<svg version = "1.1" xmlns = "http://www.w3.org/2000/svg" xmlns:xlink="http://www.w3.org/1999/xlink" width="989.606" height="252.006" viewbox = "0 0 989.606 252.006">
	<g transform="translate(-22.7369,281.809) scale(1,-1) ">
		<line x1="329.39" y1="132.806" x2="329.39" y2="281.456" stroke="rgb(255,255,0)" stroke-width="0.705556"/>
		<line x1="329.39" y1="281.456" x2="51.0897" y2="281.456" stroke="rgb(255,0,0)" stroke-width="0.705556"/>
		<line x1="530.69" y1="281.456" x2="530.69" y2="132.806" stroke="rgb(255,255,0)" stroke-width="0.705556"/>
		<line x1="329.39" y1="281.456" x2="530.69" y2="281.456" stroke="rgb(255,0,0)" stroke-width="0.705556"/>
		<line x1="811.99" y1="132.806" x2="811.99" y2="281.456" stroke="rgb(255,255,0)" stroke-width="0.705556"/>
		<line x1="811.99" y1="281.456" x2="530.69" y2="281.456" stroke="rgb(255,0,0)" stroke-width="0.705556"/>
		<line x1="1011.99" y1="281.456" x2="1011.99" y2="132.806" stroke="rgb(255,0,0)" stroke-width="0.705556"/>
		<line x1="811.99" y1="281.456" x2="1011.99" y2="281.456" stroke="rgb(255,0,0)" stroke-width="0.705556"/>
		<line x1="811.99" y1="132.806" x2="810.49" y2="132.806" stroke="rgb(255,0,0)" stroke-width="0.705556"/>
		<line x1="810.49" y1="132.806" x2="810.49" y2="30.1559" stroke="rgb(255,0,0)" stroke-width="0.705556"/>
		<line x1="810.49" y1="30.1559" x2="532.19" y2="30.1559" stroke="rgb(255,0,0)" stroke-width="0.705556"/>
		<line x1="532.19" y1="30.1559" x2="532.19" y2="132.806" stroke="rgb(255,0,0)" stroke-width="0.705556"/>
		<line x1="532.19" y1="132.806" x2="530.69" y2="132.806" stroke="rgb(255,0,0)" stroke-width="0.705556"/>
		<line x1="810.49" y1="130.806" x2="532.19" y2="130.806" stroke="rgb(255,255,0)" stroke-width="0.705556"/>
		<line x1="530.69" y1="132.806" x2="529.19" y2="132.806" stroke="rgb(255,0,0)" stroke-width="0.705556"/>
		<line x1="529.19" y1="132.806" x2="529.19" y2="30.1559" stroke="rgb(255,0,0)" stroke-width="0.705556"/>
		<line x1="529.19" y1="30.1559" x2="330.89" y2="30.1559" stroke="rgb(255,0,0)" stroke-width="0.705556"/>
		<line x1="330.89" y1="30.1559" x2="330.89" y2="132.806" stroke="rgb(255,0,0)" stroke-width="0.705556"/>
		<line x1="330.89" y1="132.806" x2="329.39" y2="132.806" stroke="rgb(255,0,0)" stroke-width="0.705556"/>
		<line x1="529.19" y1="130.806" x2="330.89" y2="130.806" stroke="rgb(255,255,0)" stroke-width="0.705556"/>
		<line x1="329.39" y1="132.806" x2="327.89" y2="132.806" stroke="rgb(255,0,0)" stroke-width="0.705556"/>
		<line x1="327.89" y1="132.806" x2="327.89" y2="30.1559" stroke="rgb(255,0,0)" stroke-width="0.705556"/>
		<line x1="327.89" y1="30.1559" x2="49.5897" y2="30.1559" stroke="rgb(255,0,0)" stroke-width="0.705556"/>
		<line x1="49.5897" y1="30.1559" x2="49.5897" y2="130.806" stroke="rgb(255,0,0)" stroke-width="0.705556"/>
		<line x1="327.89" y1="130.806" x2="49.5897" y2="130.806" stroke="rgb(255,255,0)" stroke-width="0.705556"/>
		<line x1="1011.99" y1="132.806" x2="1011.99" y2="132.806" stroke="rgb(255,0,0)" stroke-width="0.705556"/>
		<line x1="1011.99" y1="132.806" x2="1011.99" y2="30.1559" stroke="rgb(255,0,0)" stroke-width="0.705556"/>
		<line x1="1011.99" y1="30.1559" x2="813.49" y2="30.1559" stroke="rgb(255,0,0)" stroke-width="0.705556"/>
		<line x1="813.49" y1="30.1559" x2="813.49" y2="132.806" stroke="rgb(255,0,0)" stroke-width="0.705556"/>
		<line x1="813.49" y1="132.806" x2="811.99" y2="132.806" stroke="rgb(255,0,0)" stroke-width="0.705556"/>
		<line x1="1011.99" y1="130.806" x2="813.49" y2="130.806" stroke="rgb(255,255,0)" stroke-width="0.705556"/>
		<line x1="49.5897" y1="130.806" x2="23.0897" y2="143.163" stroke="rgb(255,0,0)" stroke-width="0.705556"/>
		<line x1="23.0897" y1="143.163" x2="23.0897" y2="281.456" stroke="rgb(255,0,0)" stroke-width="0.705556"/>
		<line x1="48.0897" y1="281.456" x2="48.0897" y2="131.505" stroke="rgb(255,255,0)" stroke-width="0.705556"/>
		<line x1="51.0897" y1="281.456" x2="23.0897" y2="281.456" stroke="rgb(255,0,0)" stroke-width="0.705556"/>
		<line x1="1011.99" y1="132.806" x2="1011.99" y2="132.806" stroke="rgb(255,0,0)" stroke-width="0.705556"/>
		<line x1="188.74" y1="193.421" x2="188.74" y2="165.806" stroke="rgb(64,128,128)" stroke-width="0"/>
		<line x1="197.224" y1="175.011" x2="197.224" y2="165.806" stroke="rgb(64,128,128)" stroke-width="0"/>
		<line x1="192.982" y1="184.216" x2="192.982" y2="165.806" stroke="rgb(64,128,128)" stroke-width="0"/>
		<line x1="184.498" y1="202.626" x2="184.498" y2="165.806" stroke="rgb(64,128,128)" stroke-width="0"/>
		<line x1="180.256" y1="211.831" x2="180.256" y2="165.806" stroke="rgb(64,128,128)" stroke-width="0"/>
		<line x1="176.014" y1="221.036" x2="176.014" y2="165.806" stroke="rgb(64,128,128)" stroke-width="0"/>
		<line x1="201.466" y1="165.806" x2="176.014" y2="165.806" stroke="rgb(64,128,128)" stroke-width="0"/>
		<line x1="176.014" y1="221.036" x2="204.288" y2="192.718" stroke="rgb(64,128,128)" stroke-width="0"/>
		<path d="M204.288,192.718 a26.6045 26.6045 0 0 1 -2.82257,-26.9118" fill="none" stroke="rgb(64,128,128)" stroke-width="0"/>
		<line x1="201.466" y1="165.806" x2="176.014" y2="221.036" stroke="rgb(64,128,128)" stroke-width="0"/>
	</g>
</svg>