<svg version = "1.1" xmlns = "http://www.w3.org/2000/svg" xmlns:xlink="http://www.w3.org/1999/xlink" width="989.606" height="393.306" viewbox = "0 0 989.606 393.306">
	<g transform="translate(-45.3238,458.782) scale(1,-1) ">
		<line x1="351.977" y1="188.479" x2="351.977" y2="335.779" stroke="rgb(255,255,0)" stroke-width="0.705556"/>
		<line x1="553.277" y1="335.779" x2="553.277" y2="188.479" stroke="rgb(255,255,0)" stroke-width="0.705556"/>
		<line x1="834.577" y1="188.479" x2="834.577" y2="335.779" stroke="rgb(255,255,0)" stroke-width="0.705556"/>
		<line x1="1034.58" y1="335.779" x2="1034.58" y2="188.479" stroke="rgb(255,0,0)" stroke-width="0.705556"/>
		<line x1="834.577" y1="335.779" x2="833.077" y2="335.779" stroke="rgb(255,0,0)" stroke-width="0.705556"/>
		<line x1="833.077" y1="335.779" x2="833.077" y2="458.429" stroke="rgb(255,0,0)" stroke-width="0.705556"/>
		<line x1="833.077" y1="458.429" x2="554.777" y2="458.429" stroke="rgb(255,0,0)" stroke-width="0.705556"/>
		<line x1="554.777" y1="458.429" x2="554.777" y2="335.779" stroke="rgb(255,0,0)" stroke-width="0.705556"/>
		<line x1="554.777" y1="335.779" x2="553.277" y2="335.779" stroke="rgb(255,0,0)" stroke-width="0.705556"/>
		<line x1="833.077" y1="337.779" x2="554.777" y2="337.779" stroke="rgb(255,255,0)" stroke-width="0.705556"/>
		<line x1="553.277" y1="335.779" x2="551.777" y2="335.779" stroke="rgb(255,0,0)" stroke-width="0.705556"/>
		<line x1="551.777" y1="335.779" x2="551.777" y2="458.429" stroke="rgb(255,0,0)" stroke-width="0.705556"/>
		<line x1="551.777" y1="458.429" x2="353.477" y2="458.429" stroke="rgb(255,0,0)" stroke-width="0.705556"/>
		<line x1="353.477" y1="458.429" x2="353.477" y2="335.779" stroke="rgb(255,0,0)" stroke-width="0.705556"/>
		<line x1="353.477" y1="335.779" x2="351.977" y2="335.779" stroke="rgb(255,0,0)" stroke-width="0.705556"/>
		<line x1="551.777" y1="337.779" x2="353.477" y2="337.779" stroke="rgb(255,255,0)" stroke-width="0.705556"/>
		<line x1="351.977" y1="335.779" x2="350.477" y2="335.779" stroke="rgb(255,0,0)" stroke-width="0.705556"/>
		<line x1="350.477" y1="335.779" x2="350.477" y2="458.429" stroke="rgb(255,0,0)" stroke-width="0.705556"/>
		<line x1="350.477" y1="458.429" x2="72.1766" y2="458.429" stroke="rgb(255,0,0)" stroke-width="0.705556"/>
		<line x1="72.1766" y1="458.429" x2="72.1766" y2="337.779" stroke="rgb(255,0,0)" stroke-width="0.705556"/>
		<line x1="350.477" y1="337.779" x2="72.1766" y2="337.779" stroke="rgb(255,255,0)" stroke-width="0.705556"/>
		<line x1="1034.58" y1="335.779" x2="1034.58" y2="335.779" stroke="rgb(255,0,0)" stroke-width="0.705556"/>
		<line x1="1034.58" y1="335.779" x2="1034.58" y2="458.429" stroke="rgb(255,0,0)" stroke-width="0.705556"/>
		<line x1="1034.58" y1="458.429" x2="836.077" y2="458.429" stroke="rgb(255,0,0)" stroke-width="0.705556"/>
		<line x1="836.077" y1="458.429" x2="836.077" y2="335.779" stroke="rgb(255,0,0)" stroke-width="0.705556"/>
		<line x1="836.077" y1="335.779" x2="834.577" y2="335.779" stroke="rgb(255,0,0)" stroke-width="0.705556"/>
		<line x1="1034.58" y1="337.779" x2="836.077" y2="337.779" stroke="rgb(255,255,0)" stroke-width="0.705556"/>
		<line x1="834.577" y1="188.479" x2="833.077" y2="188.479" stroke="rgb(255,0,0)" stroke-width="0.705556"/>
		<line x1="833.077" y1="188.479" x2="833.077" y2="65.8289" stroke="rgb(255,0,0)" stroke-width="0.705556"/>
		<line x1="833.077" y1="65.8289" x2="554.777" y2="65.8289" stroke="rgb(255,0,0)" stroke-width="0.705556"/>
		<line x1="554.777" y1="65.8289" x2="554.777" y2="188.479" stroke="rgb(255,0,0)" stroke-width="0.705556"/>
		<line x1="554.777" y1="188.479" x2="553.277" y2="188.479" stroke="rgb(255,0,0)" stroke-width="0.705556"/>
		<line x1="833.077" y1="186.479" x2="554.777" y2="186.479" stroke="rgb(255,255,0)" stroke-width="0.705556"/>
		<line x1="553.277" y1="188.479" x2="551.777" y2="188.479" stroke="rgb(255,0,0)" stroke-width="0.705556"/>
		<line x1="551.777" y1="188.479" x2="551.777" y2="65.8289" stroke="rgb(255,0,0)" stroke-width="0.705556"/>
		<line x1="551.777" y1="65.8289" x2="353.477" y2="65.8289" stroke="rgb(255,0,0)" stroke-width="0.705556"/>
		<line x1="353.477" y1="65.8289" x2="353.477" y2="188.479" stroke="rgb(255,0,0)" stroke-width="0.705556"/>
		<line x1="353.477" y1="188.479" x2="351.977" y2="188.479" stroke="rgb(255,0,0)" stroke-width="0.705556"/>
		<line x1="551.777" y1="186.479" x2="353.477" y2="186.479" stroke="rgb(255,255,0)" stroke-width="0.705556"/>
		<line x1="351.977" y1="188.479" x2="350.477" y2="188.479" stroke="rgb(255,0,0)" stroke-width="0.705556"/>
		<line x1="350.477" y1="188.479" x2="350.477" y2="65.8289" stroke="rgb(255,0,0)" stroke-width="0.705556"/>
		<line x1="350.477" y1="65.8289" x2="72.1766" y2="65.8289" stroke="rgb(255,0,0)" stroke-width="0.705556"/>
		<line x1="72.1766" y1="65.8289" x2="72.1766" y2="186.479" stroke="rgb(255,0,0)" stroke-width="0.705556"/>
		<line x1="350.477" y1="186.479" x2="72.1766" y2="186.479" stroke="rgb(255,255,0)" stroke-width="0.705556"/>
		<line x1="1034.58" y1="188.479" x2="1034.58" y2="188.479" stroke="rgb(255,0,0)" stroke-width="0.705556"/>
		<line x1="1034.58" y1="188.479" x2="1034.58" y2="65.8289" stroke="rgb(255,0,0)" stroke-width="0.705556"/>
		<line x1="1034.58" y1="65.8289" x2="836.077" y2="65.8289" stroke="rgb(255,0,0)" stroke-width="0.705556"/>
		<line x1="836.077" y1="65.8289" x2="836.077" y2="188.479" stroke="rgb(255,0,0)" stroke-width="0.705556"/>
		<line x1="836.077" y1="188.479" x2="834.577" y2="188.479" stroke="rgb(255,0,0)" stroke-width="0.705556"/>
		<line x1="1034.58" y1="186.479" x2="836.077" y2="186.479" stroke="rgb(255,255,0)" stroke-width="0.705556"/>
		<line x1="72.1766" y1="186.479" x2="45.6766" y2="198.836" stroke="rgb(255,0,0)" stroke-width="0.705556"/>
		<line x1="45.6766" y1="198.836" x2="45.6766" y2="325.422" stroke="rgb(255,0,0)" stroke-width="0.705556"/>
		<line x1="70.6766" y1="337.079" x2="70.6766" y2="187.178" stroke="rgb(255,255,0)" stroke-width="0.705556"/>
		<line x1="72.1766" y1="337.779" x2="45.6766" y2="325.422" stroke="rgb(255,0,0)" stroke-width="0.705556"/>
		<line x1="1034.58" y1="188.479" x2="1034.58" y2="188.479" stroke="rgb(255,0,0)" stroke-width="0.705556"/>
		<line x1="1034.58" y1="335.779" x2="1034.58" y2="335.779" stroke="rgb(255,0,0)" stroke-width="0.705556"/>
		<line x1="934.577" y1="249.094" x2="934.577" y2="221.479" stroke="rgb(64,128,128)" stroke-width="0"/>
		<line x1="943.061" y1="230.684" x2="943.061" y2="221.479" stroke="rgb(64,128,128)" stroke-width="0"/>
		<line x1="938.819" y1="239.889" x2="938.819" y2="221.479" stroke="rgb(64,128,128)" stroke-width="0"/>
		<line x1="930.335" y1="258.299" x2="930.335" y2="221.479" stroke="rgb(64,128,128)" stroke-width="0"/>
		<line x1="926.093" y1="267.504" x2="926.093" y2="221.479" stroke="rgb(64,128,128)" stroke-width="0"/>
		<line x1="921.851" y1="276.708" x2="921.851" y2="221.479" stroke="rgb(64,128,128)" stroke-width="0"/>
		<line x1="947.303" y1="221.479" x2="921.851" y2="221.479" stroke="rgb(64,128,128)" stroke-width="0"/>
		<line x1="921.851" y1="276.708" x2="950.125" y2="248.391" stroke="rgb(64,128,128)" stroke-width="0"/>
		<path d="M950.125,248.391 a26.6045 26.6045 0 0 1 -2.82257,-26.9118" fill="none" stroke="rgb(64,128,128)" stroke-width="0"/>
		<line x1="947.303" y1="221.479" x2="921.851" y2="276.708" stroke="rgb(64,128,128)" stroke-width="0"/>
	</g>
</svg>