<svg version = "1.1" xmlns = "http://www.w3.org/2000/svg" xmlns:xlink="http://www.w3.org/1999/xlink" width="989.606" height="433.306" viewbox = "0 0 989.606 433.306">
	<g transform="translate(-33.124,516.942) scale(1,-1) ">
		<line x1="339.777" y1="226.639" x2="339.777" y2="373.939" stroke="rgb(255,255,0)" stroke-width="0.705556"/>
		<line x1="541.077" y1="373.939" x2="541.077" y2="226.639" stroke="rgb(255,255,0)" stroke-width="0.705556"/>
		<line x1="822.377" y1="226.639" x2="822.377" y2="373.939" stroke="rgb(255,255,0)" stroke-width="0.705556"/>
		<line x1="1022.38" y1="373.939" x2="1022.38" y2="226.639" stroke="rgb(255,0,0)" stroke-width="0.705556"/>
		<line x1="822.377" y1="373.939" x2="820.877" y2="373.939" stroke="rgb(255,0,0)" stroke-width="0.705556"/>
		<line x1="820.877" y1="373.939" x2="820.877" y2="516.589" stroke="rgb(255,0,0)" stroke-width="0.705556"/>
		<line x1="820.877" y1="516.589" x2="542.577" y2="516.589" stroke="rgb(255,0,0)" stroke-width="0.705556"/>
		<line x1="542.577" y1="516.589" x2="542.577" y2="373.939" stroke="rgb(255,0,0)" stroke-width="0.705556"/>
		<line x1="542.577" y1="373.939" x2="541.077" y2="373.939" stroke="rgb(255,0,0)" stroke-width="0.705556"/>
		<line x1="820.877" y1="375.939" x2="542.577" y2="375.939" stroke="rgb(255,255,0)" stroke-width="0.705556"/>
		<line x1="541.077" y1="373.939" x2="539.577" y2="373.939" stroke="rgb(255,0,0)" stroke-width="0.705556"/>
		<line x1="539.577" y1="373.939" x2="539.577" y2="516.589" stroke="rgb(255,0,0)" stroke-width="0.705556"/>
		<line x1="539.577" y1="516.589" x2="341.277" y2="516.589" stroke="rgb(255,0,0)" stroke-width="0.705556"/>
		<line x1="341.277" y1="516.589" x2="341.277" y2="373.939" stroke="rgb(255,0,0)" stroke-width="0.705556"/>
		<line x1="341.277" y1="373.939" x2="339.777" y2="373.939" stroke="rgb(255,0,0)" stroke-width="0.705556"/>
		<line x1="539.577" y1="375.939" x2="341.277" y2="375.939" stroke="rgb(255,255,0)" stroke-width="0.705556"/>
		<line x1="339.777" y1="373.939" x2="338.277" y2="373.939" stroke="rgb(255,0,0)" stroke-width="0.705556"/>
		<line x1="338.277" y1="373.939" x2="338.277" y2="516.589" stroke="rgb(255,0,0)" stroke-width="0.705556"/>
		<line x1="338.277" y1="516.589" x2="59.9768" y2="516.589" stroke="rgb(255,0,0)" stroke-width="0.705556"/>
		<line x1="59.9768" y1="516.589" x2="59.9768" y2="375.939" stroke="rgb(255,0,0)" stroke-width="0.705556"/>
		<line x1="338.277" y1="375.939" x2="59.9768" y2="375.939" stroke="rgb(255,255,0)" stroke-width="0.705556"/>
		<line x1="1022.38" y1="373.939" x2="1022.38" y2="373.939" stroke="rgb(255,0,0)" stroke-width="0.705556"/>
		<line x1="1022.38" y1="373.939" x2="1022.38" y2="516.589" stroke="rgb(255,0,0)" stroke-width="0.705556"/>
		<line x1="1022.38" y1="516.589" x2="823.877" y2="516.589" stroke="rgb(255,0,0)" stroke-width="0.705556"/>
		<line x1="823.877" y1="516.589" x2="823.877" y2="373.939" stroke="rgb(255,0,0)" stroke-width="0.705556"/>
		<line x1="823.877" y1="373.939" x2="822.377" y2="373.939" stroke="rgb(255,0,0)" stroke-width="0.705556"/>
		<line x1="1022.38" y1="375.939" x2="823.877" y2="375.939" stroke="rgb(255,255,0)" stroke-width="0.705556"/>
		<line x1="822.377" y1="226.639" x2="820.877" y2="226.639" stroke="rgb(255,0,0)" stroke-width="0.705556"/>
		<line x1="820.877" y1="226.639" x2="820.877" y2="83.989" stroke="rgb(255,0,0)" stroke-width="0.705556"/>
		<line x1="820.877" y1="83.989" x2="542.577" y2="83.989" stroke="rgb(255,0,0)" stroke-width="0.705556"/>
		<line x1="542.577" y1="83.989" x2="542.577" y2="226.639" stroke="rgb(255,0,0)" stroke-width="0.705556"/>
		<line x1="542.577" y1="226.639" x2="541.077" y2="226.639" stroke="rgb(255,0,0)" stroke-width="0.705556"/>
		<line x1="820.877" y1="224.639" x2="542.577" y2="224.639" stroke="rgb(255,255,0)" stroke-width="0.705556"/>
		<line x1="541.077" y1="226.639" x2="539.577" y2="226.639" stroke="rgb(255,0,0)" stroke-width="0.705556"/>
		<line x1="539.577" y1="226.639" x2="539.577" y2="83.989" stroke="rgb(255,0,0)" stroke-width="0.705556"/>
		<line x1="539.577" y1="83.989" x2="341.277" y2="83.989" stroke="rgb(255,0,0)" stroke-width="0.705556"/>
		<line x1="341.277" y1="83.989" x2="341.277" y2="226.639" stroke="rgb(255,0,0)" stroke-width="0.705556"/>
		<line x1="341.277" y1="226.639" x2="339.777" y2="226.639" stroke="rgb(255,0,0)" stroke-width="0.705556"/>
		<line x1="539.577" y1="224.639" x2="341.277" y2="224.639" stroke="rgb(255,255,0)" stroke-width="0.705556"/>
		<line x1="339.777" y1="226.639" x2="338.277" y2="226.639" stroke="rgb(255,0,0)" stroke-width="0.705556"/>
		<line x1="338.277" y1="226.639" x2="338.277" y2="83.989" stroke="rgb(255,0,0)" stroke-width="0.705556"/>
		<line x1="338.277" y1="83.989" x2="59.9768" y2="83.989" stroke="rgb(255,0,0)" stroke-width="0.705556"/>
		<line x1="59.9768" y1="83.989" x2="59.9768" y2="224.639" stroke="rgb(255,0,0)" stroke-width="0.705556"/>
		<line x1="338.277" y1="224.639" x2="59.9768" y2="224.639" stroke="rgb(255,255,0)" stroke-width="0.705556"/>
		<line x1="1022.38" y1="226.639" x2="1022.38" y2="226.639" stroke="rgb(255,0,0)" stroke-width="0.705556"/>
		<line x1="1022.38" y1="226.639" x2="1022.38" y2="83.989" stroke="rgb(255,0,0)" stroke-width="0.705556"/>
		<line x1="1022.38" y1="83.989" x2="823.877" y2="83.989" stroke="rgb(255,0,0)" stroke-width="0.705556"/>
		<line x1="823.877" y1="83.989" x2="823.877" y2="226.639" stroke="rgb(255,0,0)" stroke-width="0.705556"/>
		<line x1="823.877" y1="226.639" x2="822.377" y2="226.639" stroke="rgb(255,0,0)" stroke-width="0.705556"/>
		<line x1="1022.38" y1="224.639" x2="823.877" y2="224.639" stroke="rgb(255,255,0)" stroke-width="0.705556"/>
		<line x1="59.9768" y1="224.639" x2="33.4768" y2="236.996" stroke="rgb(255,0,0)" stroke-width="0.705556"/>
		<line x1="33.4768" y1="236.996" x2="33.4768" y2="363.582" stroke="rgb(255,0,0)" stroke-width="0.705556"/>
		<line x1="58.4768" y1="375.24" x2="58.4768" y2="225.338" stroke="rgb(255,255,0)" stroke-width="0.705556"/>
		<line x1="59.9768" y1="375.939" x2="33.4768" y2="363.582" stroke="rgb(255,0,0)" stroke-width="0.705556"/>
		<line x1="1022.38" y1="226.639" x2="1022.38" y2="226.639" stroke="rgb(255,0,0)" stroke-width="0.705556"/>
		<line x1="1022.38" y1="373.939" x2="1022.38" y2="373.939" stroke="rgb(255,0,0)" stroke-width="0.705556"/>
		<line x1="922.377" y1="287.254" x2="922.377" y2="259.639" stroke="rgb(64,128,128)" stroke-width="0"/>
		<line x1="930.861" y1="268.844" x2="930.861" y2="259.639" stroke="rgb(64,128,128)" stroke-width="0"/>
		<line x1="926.619" y1="278.049" x2="926.619" y2="259.639" stroke="rgb(64,128,128)" stroke-width="0"/>
		<line x1="918.135" y1="296.459" x2="918.135" y2="259.639" stroke="rgb(64,128,128)" stroke-width="0"/>
		<line x1="913.893" y1="305.664" x2="913.893" y2="259.639" stroke="rgb(64,128,128)" stroke-width="0"/>
		<line x1="909.651" y1="314.869" x2="909.651" y2="259.639" stroke="rgb(64,128,128)" stroke-width="0"/>
		<line x1="935.103" y1="259.639" x2="909.651" y2="259.639" stroke="rgb(64,128,128)" stroke-width="0"/>
		<line x1="909.651" y1="314.869" x2="937.925" y2="286.551" stroke="rgb(64,128,128)" stroke-width="0"/>
		<path d="M937.925,286.551 a26.6045 26.6045 0 0 1 -2.82257,-26.9118" fill="none" stroke="rgb(64,128,128)" stroke-width="0"/>
		<line x1="935.103" y1="259.639" x2="909.651" y2="314.869" stroke="rgb(64,128,128)" stroke-width="0"/>
	</g>
</svg>