<svg version = "1.1" xmlns = "http://www.w3.org/2000/svg" xmlns:xlink="http://www.w3.org/1999/xlink" width="989.606" height="492.989" viewbox = "0 0 989.606 492.989">
	<g transform="translate(-35.5887,532.938) scale(1,-1) ">
		<line x1="342.242" y1="280.635" x2="342.242" y2="429.935" stroke="rgb(255,255,0)" stroke-width="0.705556"/>
		<line x1="543.542" y1="429.935" x2="543.542" y2="280.635" stroke="rgb(255,255,0)" stroke-width="0.705556"/>
		<line x1="824.842" y1="280.635" x2="824.842" y2="429.935" stroke="rgb(255,255,0)" stroke-width="0.705556"/>
		<line x1="1024.84" y1="429.935" x2="1024.84" y2="280.635" stroke="rgb(255,0,0)" stroke-width="0.705556"/>
		<line x1="824.842" y1="429.935" x2="823.342" y2="429.935" stroke="rgb(255,0,0)" stroke-width="0.705556"/>
		<line x1="823.342" y1="429.935" x2="823.342" y2="532.585" stroke="rgb(255,0,0)" stroke-width="0.705556"/>
		<line x1="823.342" y1="532.585" x2="545.042" y2="532.585" stroke="rgb(255,0,0)" stroke-width="0.705556"/>
		<line x1="545.042" y1="532.585" x2="545.042" y2="429.935" stroke="rgb(255,0,0)" stroke-width="0.705556"/>
		<line x1="545.042" y1="429.935" x2="543.542" y2="429.935" stroke="rgb(255,0,0)" stroke-width="0.705556"/>
		<line x1="823.342" y1="431.935" x2="545.042" y2="431.935" stroke="rgb(255,255,0)" stroke-width="0.705556"/>
		<line x1="543.542" y1="429.935" x2="542.042" y2="429.935" stroke="rgb(255,0,0)" stroke-width="0.705556"/>
		<line x1="542.042" y1="429.935" x2="542.042" y2="532.585" stroke="rgb(255,0,0)" stroke-width="0.705556"/>
		<line x1="542.042" y1="532.585" x2="343.742" y2="532.585" stroke="rgb(255,0,0)" stroke-width="0.705556"/>
		<line x1="343.742" y1="532.585" x2="343.742" y2="429.935" stroke="rgb(255,0,0)" stroke-width="0.705556"/>
		<line x1="343.742" y1="429.935" x2="342.242" y2="429.935" stroke="rgb(255,0,0)" stroke-width="0.705556"/>
		<line x1="542.042" y1="431.935" x2="343.742" y2="431.935" stroke="rgb(255,255,0)" stroke-width="0.705556"/>
		<line x1="342.242" y1="429.935" x2="340.742" y2="429.935" stroke="rgb(255,0,0)" stroke-width="0.705556"/>
		<line x1="340.742" y1="429.935" x2="340.742" y2="532.585" stroke="rgb(255,0,0)" stroke-width="0.705556"/>
		<line x1="340.742" y1="532.585" x2="62.4415" y2="532.585" stroke="rgb(255,0,0)" stroke-width="0.705556"/>
		<line x1="62.4415" y1="532.585" x2="62.4415" y2="431.935" stroke="rgb(255,0,0)" stroke-width="0.705556"/>
		<line x1="340.742" y1="431.935" x2="62.4415" y2="431.935" stroke="rgb(255,255,0)" stroke-width="0.705556"/>
		<line x1="1024.84" y1="429.935" x2="1024.84" y2="429.935" stroke="rgb(255,0,0)" stroke-width="0.705556"/>
		<line x1="1024.84" y1="429.935" x2="1024.84" y2="532.585" stroke="rgb(255,0,0)" stroke-width="0.705556"/>
		<line x1="1024.84" y1="532.585" x2="826.342" y2="532.585" stroke="rgb(255,0,0)" stroke-width="0.705556"/>
		<line x1="826.342" y1="532.585" x2="826.342" y2="429.935" stroke="rgb(255,0,0)" stroke-width="0.705556"/>
		<line x1="826.342" y1="429.935" x2="824.842" y2="429.935" stroke="rgb(255,0,0)" stroke-width="0.705556"/>
		<line x1="1024.84" y1="431.935" x2="826.342" y2="431.935" stroke="rgb(255,255,0)" stroke-width="0.705556"/>
		<line x1="824.842" y1="280.635" x2="826.142" y2="280.635" stroke="rgb(255,0,0)" stroke-width="0.705556"/>
		<line x1="826.142" y1="280.635" x2="826.142" y2="187.302" stroke="rgb(255,0,0)" stroke-width="0.705556"/>
		<line x1="1024.84" y1="187.302" x2="1024.84" y2="280.635" stroke="rgb(255,0,0)" stroke-width="0.705556"/>
		<line x1="1024.84" y1="280.635" x2="1024.84" y2="280.635" stroke="rgb(255,0,0)" stroke-width="0.705556"/>
		<line x1="826.142" y1="280.635" x2="923.217" y2="280.635" stroke="rgb(255,255,0)" stroke-width="0.705556"/>
		<line x1="926.467" y1="280.635" x2="1024.84" y2="280.635" stroke="rgb(255,255,0)" stroke-width="0.705556"/>
		<line x1="342.242" y1="280.635" x2="343.542" y2="280.635" stroke="rgb(255,0,0)" stroke-width="0.705556"/>
		<line x1="343.542" y1="280.635" x2="343.542" y2="187.302" stroke="rgb(255,0,0)" stroke-width="0.705556"/>
		<line x1="542.242" y1="187.302" x2="542.242" y2="280.635" stroke="rgb(255,0,0)" stroke-width="0.705556"/>
		<line x1="542.242" y1="280.635" x2="543.542" y2="280.635" stroke="rgb(255,0,0)" stroke-width="0.705556"/>
		<line x1="343.542" y1="280.635" x2="441.267" y2="280.635" stroke="rgb(255,255,0)" stroke-width="0.705556"/>
		<line x1="444.517" y1="280.635" x2="542.242" y2="280.635" stroke="rgb(255,255,0)" stroke-width="0.705556"/>
		<line x1="543.542" y1="280.635" x2="544.842" y2="280.635" stroke="rgb(255,0,0)" stroke-width="0.705556"/>
		<line x1="544.842" y1="280.635" x2="544.842" y2="180.635" stroke="rgb(255,0,0)" stroke-width="0.705556"/>
		<line x1="823.542" y1="180.635" x2="823.542" y2="280.635" stroke="rgb(255,0,0)" stroke-width="0.705556"/>
		<line x1="823.542" y1="280.635" x2="824.842" y2="280.635" stroke="rgb(255,0,0)" stroke-width="0.705556"/>
		<line x1="544.842" y1="280.635" x2="823.542" y2="280.635" stroke="rgb(255,255,0)" stroke-width="0.705556"/>
		<line x1="62.2415" y1="280.635" x2="62.2415" y2="180.635" stroke="rgb(255,0,0)" stroke-width="0.705556"/>
		<line x1="340.942" y1="180.635" x2="340.942" y2="280.635" stroke="rgb(255,0,0)" stroke-width="0.705556"/>
		<line x1="340.942" y1="280.635" x2="342.242" y2="280.635" stroke="rgb(255,0,0)" stroke-width="0.705556"/>
		<line x1="62.2415" y1="280.635" x2="340.942" y2="280.635" stroke="rgb(255,255,0)" stroke-width="0.705556"/>
		<line x1="544.842" y1="180.635" x2="544.842" y2="70.3016" stroke="rgb(255,0,0)" stroke-width="0.705556"/>
		<line x1="823.542" y1="70.3016" x2="823.542" y2="180.635" stroke="rgb(255,0,0)" stroke-width="0.705556"/>
		<line x1="823.542" y1="180.635" x2="544.842" y2="180.635" stroke="rgb(255,255,0)" stroke-width="0.705556"/>
		<line x1="62.2415" y1="180.635" x2="62.2415" y2="70.3016" stroke="rgb(255,0,0)" stroke-width="0.705556"/>
		<line x1="340.942" y1="70.3016" x2="340.942" y2="180.635" stroke="rgb(255,0,0)" stroke-width="0.705556"/>
		<line x1="340.942" y1="180.635" x2="62.2415" y2="180.635" stroke="rgb(255,255,0)" stroke-width="0.705556"/>
		<line x1="343.542" y1="187.302" x2="343.542" y2="40.3016" stroke="rgb(255,0,0)" stroke-width="0.705556"/>
		<line x1="343.542" y1="40.3016" x2="542.242" y2="40.3016" stroke="rgb(255,0,0)" stroke-width="0.705556"/>
		<line x1="542.242" y1="40.3016" x2="542.242" y2="187.302" stroke="rgb(255,0,0)" stroke-width="0.705556"/>
		<line x1="542.242" y1="187.302" x2="444.517" y2="187.302" stroke="rgb(255,255,0)" stroke-width="0.705556"/>
		<line x1="441.267" y1="187.302" x2="343.542" y2="187.302" stroke="rgb(255,255,0)" stroke-width="0.705556"/>
		<line x1="826.142" y1="187.302" x2="826.142" y2="40.3016" stroke="rgb(255,0,0)" stroke-width="0.705556"/>
		<line x1="826.142" y1="40.3016" x2="1024.84" y2="40.3016" stroke="rgb(255,0,0)" stroke-width="0.705556"/>
		<line x1="1024.84" y1="40.3016" x2="1024.84" y2="187.302" stroke="rgb(255,0,0)" stroke-width="0.705556"/>
		<line x1="1024.84" y1="187.302" x2="926.467" y2="187.302" stroke="rgb(255,255,0)" stroke-width="0.705556"/>
		<line x1="923.217" y1="187.302" x2="826.142" y2="187.302" stroke="rgb(255,255,0)" stroke-width="0.705556"/>
		<line x1="441.267" y1="280.635" x2="444.517" y2="280.635" stroke="rgb(255,0,0)" stroke-width="0.705556"/>
		<line x1="444.517" y1="280.635" x2="444.517" y2="187.302" stroke="rgb(255,0,0)" stroke-width="0.705556"/>
		<line x1="441.267" y1="187.302" x2="441.267" y2="280.635" stroke="rgb(255,0,0)" stroke-width="0.705556"/>
		<line x1="923.217" y1="280.635" x2="926.467" y2="280.635" stroke="rgb(255,0,0)" stroke-width="0.705556"/>
		<line x1="926.467" y1="280.635" x2="926.467" y2="187.302" stroke="rgb(255,0,0)" stroke-width="0.705556"/>
		<line x1="923.217" y1="187.302" x2="923.217" y2="280.635" stroke="rgb(255,0,0)" stroke-width="0.705556"/>
		<line x1="444.517" y1="187.302" x2="444.517" y2="76.9682" stroke="rgb(255,0,0)" stroke-width="0.705556"/>
		<line x1="444.517" y1="76.9682" x2="441.267" y2="76.9682" stroke="rgb(255,0,0)" stroke-width="0.705556"/>
		<line x1="441.267" y1="76.9682" x2="441.267" y2="187.302" stroke="rgb(255,0,0)" stroke-width="0.705556"/>
		<line x1="926.467" y1="187.302" x2="926.467" y2="76.9682" stroke="rgb(255,0,0)" stroke-width="0.705556"/>
		<line x1="926.467" y1="76.9682" x2="923.217" y2="76.9682" stroke="rgb(255,0,0)" stroke-width="0.705556"/>
		<line x1="923.217" y1="76.9682" x2="923.217" y2="187.302" stroke="rgb(255,0,0)" stroke-width="0.705556"/>
		<line x1="62.2415" y1="70.3016" x2="62.2415" y2="40.3016" stroke="rgb(255,0,0)" stroke-width="0.705556"/>
		<line x1="62.2415" y1="40.3016" x2="153.625" y2="40.3016" stroke="rgb(255,0,0)" stroke-width="0.705556"/>
		<line x1="153.625" y1="40.3016" x2="153.625" y2="70.3016" stroke="rgb(255,0,0)" stroke-width="0.705556"/>
		<line x1="155.575" y1="70.3016" x2="155.575" y2="40.3016" stroke="rgb(255,0,0)" stroke-width="0.705556"/>
		<line x1="155.575" y1="40.3016" x2="247.608" y2="40.3016" stroke="rgb(255,0,0)" stroke-width="0.705556"/>
		<line x1="247.608" y1="40.3016" x2="247.608" y2="70.3016" stroke="rgb(255,0,0)" stroke-width="0.705556"/>
		<line x1="249.558" y1="70.3016" x2="249.558" y2="40.3016" stroke="rgb(255,0,0)" stroke-width="0.705556"/>
		<line x1="249.558" y1="40.3016" x2="340.942" y2="40.3016" stroke="rgb(255,0,0)" stroke-width="0.705556"/>
		<line x1="340.942" y1="40.3016" x2="340.942" y2="70.3016" stroke="rgb(255,0,0)" stroke-width="0.705556"/>
		<line x1="155.575" y1="70.3016" x2="153.625" y2="70.3016" stroke="rgb(255,0,0)" stroke-width="0.705556"/>
		<line x1="249.558" y1="70.3016" x2="247.608" y2="70.3016" stroke="rgb(255,0,0)" stroke-width="0.705556"/>
		<line x1="340.942" y1="70.3016" x2="249.558" y2="70.3016" stroke="rgb(255,255,0)" stroke-width="0.705556"/>
		<line x1="247.608" y1="70.3016" x2="155.575" y2="70.3016" stroke="rgb(255,255,0)" stroke-width="0.705556"/>
		<line x1="153.625" y1="70.3016" x2="62.2415" y2="70.3016" stroke="rgb(255,255,0)" stroke-width="0.705556"/>
		<line x1="823.542" y1="70.3016" x2="823.542" y2="40.3016" stroke="rgb(255,0,0)" stroke-width="0.705556"/>
		<line x1="823.542" y1="40.3016" x2="732.158" y2="40.3016" stroke="rgb(255,0,0)" stroke-width="0.705556"/>
		<line x1="732.158" y1="40.3016" x2="732.158" y2="70.3016" stroke="rgb(255,0,0)" stroke-width="0.705556"/>
		<line x1="730.208" y1="70.3016" x2="730.208" y2="40.3016" stroke="rgb(255,0,0)" stroke-width="0.705556"/>
		<line x1="730.208" y1="40.3016" x2="638.175" y2="40.3016" stroke="rgb(255,0,0)" stroke-width="0.705556"/>
		<line x1="638.175" y1="40.3016" x2="638.175" y2="70.3016" stroke="rgb(255,0,0)" stroke-width="0.705556"/>
		<line x1="636.225" y1="70.3016" x2="636.225" y2="40.3016" stroke="rgb(255,0,0)" stroke-width="0.705556"/>
		<line x1="636.225" y1="40.3016" x2="544.842" y2="40.3016" stroke="rgb(255,0,0)" stroke-width="0.705556"/>
		<line x1="544.842" y1="40.3016" x2="544.842" y2="70.3016" stroke="rgb(255,0,0)" stroke-width="0.705556"/>
		<line x1="730.208" y1="70.3016" x2="732.158" y2="70.3016" stroke="rgb(255,0,0)" stroke-width="0.705556"/>
		<line x1="636.225" y1="70.3016" x2="638.175" y2="70.3016" stroke="rgb(255,0,0)" stroke-width="0.705556"/>
		<line x1="544.842" y1="70.3016" x2="636.225" y2="70.3016" stroke="rgb(255,255,0)" stroke-width="0.705556"/>
		<line x1="638.175" y1="70.3016" x2="730.208" y2="70.3016" stroke="rgb(255,255,0)" stroke-width="0.705556"/>
		<line x1="732.158" y1="70.3016" x2="823.542" y2="70.3016" stroke="rgb(255,255,0)" stroke-width="0.705556"/>
		<line x1="62.2415" y1="280.635" x2="35.9415" y2="292.899" stroke="rgb(255,0,0)" stroke-width="0.705556"/>
		<line x1="35.9415" y1="292.899" x2="35.9415" y2="419.578" stroke="rgb(255,0,0)" stroke-width="0.705556"/>
		<line x1="60.9415" y1="431.235" x2="60.9415" y2="281.241" stroke="rgb(255,255,0)" stroke-width="0.705556"/>
		<line x1="62.4415" y1="431.935" x2="35.9415" y2="419.578" stroke="rgb(255,0,0)" stroke-width="0.705556"/>
		<line x1="1024.84" y1="280.635" x2="1024.84" y2="280.635" stroke="rgb(255,0,0)" stroke-width="0.705556"/>
		<line x1="684.192" y1="333.25" x2="684.192" y2="305.635" stroke="rgb(64,128,128)" stroke-width="0"/>
		<line x1="692.676" y1="314.84" x2="692.676" y2="305.635" stroke="rgb(64,128,128)" stroke-width="0"/>
		<line x1="688.434" y1="324.045" x2="688.434" y2="305.635" stroke="rgb(64,128,128)" stroke-width="0"/>
		<line x1="679.95" y1="342.455" x2="679.95" y2="305.635" stroke="rgb(64,128,128)" stroke-width="0"/>
		<line x1="675.708" y1="351.66" x2="675.708" y2="305.635" stroke="rgb(64,128,128)" stroke-width="0"/>
		<line x1="671.466" y1="360.864" x2="671.466" y2="305.635" stroke="rgb(64,128,128)" stroke-width="0"/>
		<line x1="696.918" y1="305.635" x2="671.466" y2="305.635" stroke="rgb(64,128,128)" stroke-width="0"/>
		<line x1="671.466" y1="360.864" x2="699.74" y2="332.547" stroke="rgb(64,128,128)" stroke-width="0"/>
		<path d="M699.74,332.547 a26.6045 26.6045 0 0 1 -2.82257,-26.9118" fill="none" stroke="rgb(64,128,128)" stroke-width="0"/>
		<line x1="696.918" y1="305.635" x2="671.466" y2="360.864" stroke="rgb(64,128,128)" stroke-width="0"/>
		<line x1="1024.84" y1="429.935" x2="1024.84" y2="429.935" stroke="rgb(255,0,0)" stroke-width="0.705556"/>
	</g>
</svg>