<svg version = "1.1" xmlns = "http://www.w3.org/2000/svg" xmlns:xlink="http://www.w3.org/1999/xlink" width="989.606" height="492.572" viewbox = "0 0 989.606 492.572">
	<g transform="translate(-19.7299,630.531) scale(1,-1) ">
		<line x1="326.383" y1="308.595" x2="326.383" y2="459.895" stroke="rgb(255,255,0)" stroke-width="0.705556"/>
		<line x1="527.683" y1="459.895" x2="527.683" y2="308.595" stroke="rgb(255,255,0)" stroke-width="0.705556"/>
		<line x1="808.983" y1="308.595" x2="808.983" y2="459.895" stroke="rgb(255,255,0)" stroke-width="0.705556"/>
		<line x1="1008.98" y1="459.895" x2="1008.98" y2="308.595" stroke="rgb(255,0,0)" stroke-width="0.705556"/>
		<line x1="527.683" y1="459.895" x2="528.983" y2="459.895" stroke="rgb(255,0,0)" stroke-width="0.705556"/>
		<line x1="528.983" y1="459.895" x2="528.983" y2="559.895" stroke="rgb(255,0,0)" stroke-width="0.705556"/>
		<line x1="807.683" y1="559.895" x2="807.683" y2="459.895" stroke="rgb(255,0,0)" stroke-width="0.705556"/>
		<line x1="807.683" y1="459.895" x2="808.983" y2="459.895" stroke="rgb(255,0,0)" stroke-width="0.705556"/>
		<line x1="528.983" y1="459.895" x2="807.683" y2="459.895" stroke="rgb(255,255,0)" stroke-width="0.705556"/>
		<line x1="326.383" y1="459.895" x2="325.083" y2="459.895" stroke="rgb(255,0,0)" stroke-width="0.705556"/>
		<line x1="325.083" y1="459.895" x2="325.083" y2="559.895" stroke="rgb(255,0,0)" stroke-width="0.705556"/>
		<line x1="46.3827" y1="559.895" x2="46.3827" y2="459.895" stroke="rgb(255,0,0)" stroke-width="0.705556"/>
		<line x1="325.083" y1="459.895" x2="46.3827" y2="459.895" stroke="rgb(255,255,0)" stroke-width="0.705556"/>
		<line x1="46.3827" y1="559.895" x2="46.3827" y2="630.179" stroke="rgb(255,0,0)" stroke-width="0.705556"/>
		<line x1="46.3827" y1="630.179" x2="325.083" y2="630.179" stroke="rgb(255,0,0)" stroke-width="0.705556"/>
		<line x1="325.083" y1="630.179" x2="325.083" y2="559.895" stroke="rgb(255,0,0)" stroke-width="0.705556"/>
		<line x1="325.083" y1="559.895" x2="46.3827" y2="559.895" stroke="rgb(255,255,0)" stroke-width="0.705556"/>
		<line x1="528.983" y1="559.895" x2="528.983" y2="630.179" stroke="rgb(255,0,0)" stroke-width="0.705556"/>
		<line x1="528.983" y1="630.179" x2="807.683" y2="630.179" stroke="rgb(255,0,0)" stroke-width="0.705556"/>
		<line x1="807.683" y1="630.179" x2="807.683" y2="559.895" stroke="rgb(255,0,0)" stroke-width="0.705556"/>
		<line x1="807.683" y1="559.895" x2="528.983" y2="559.895" stroke="rgb(255,255,0)" stroke-width="0.705556"/>
		<line x1="808.983" y1="459.895" x2="810.283" y2="459.895" stroke="rgb(255,0,0)" stroke-width="0.705556"/>
		<line x1="810.283" y1="459.895" x2="810.283" y2="554.529" stroke="rgb(255,0,0)" stroke-width="0.705556"/>
		<line x1="908.008" y1="554.529" x2="908.008" y2="459.895" stroke="rgb(255,0,0)" stroke-width="0.705556"/>
		<line x1="908.008" y1="459.895" x2="911.258" y2="459.895" stroke="rgb(255,0,0)" stroke-width="0.705556"/>
		<line x1="911.258" y1="459.895" x2="911.258" y2="554.529" stroke="rgb(255,0,0)" stroke-width="0.705556"/>
		<line x1="1008.98" y1="554.529" x2="1008.98" y2="459.895" stroke="rgb(255,0,0)" stroke-width="0.705556"/>
		<line x1="1008.98" y1="459.895" x2="1008.98" y2="459.895" stroke="rgb(255,0,0)" stroke-width="0.705556"/>
		<line x1="810.283" y1="459.895" x2="908.008" y2="459.895" stroke="rgb(255,255,0)" stroke-width="0.705556"/>
		<line x1="911.258" y1="459.895" x2="1008.98" y2="459.895" stroke="rgb(255,255,0)" stroke-width="0.705556"/>
		<line x1="326.383" y1="459.895" x2="327.683" y2="459.895" stroke="rgb(255,0,0)" stroke-width="0.705556"/>
		<line x1="327.683" y1="459.895" x2="327.683" y2="554.529" stroke="rgb(255,0,0)" stroke-width="0.705556"/>
		<line x1="425.408" y1="554.529" x2="425.408" y2="459.895" stroke="rgb(255,0,0)" stroke-width="0.705556"/>
		<line x1="425.408" y1="459.895" x2="428.658" y2="459.895" stroke="rgb(255,0,0)" stroke-width="0.705556"/>
		<line x1="428.658" y1="459.895" x2="428.658" y2="554.529" stroke="rgb(255,0,0)" stroke-width="0.705556"/>
		<line x1="526.383" y1="554.529" x2="526.383" y2="459.895" stroke="rgb(255,0,0)" stroke-width="0.705556"/>
		<line x1="526.383" y1="459.895" x2="527.683" y2="459.895" stroke="rgb(255,0,0)" stroke-width="0.705556"/>
		<line x1="327.683" y1="459.895" x2="425.408" y2="459.895" stroke="rgb(255,255,0)" stroke-width="0.705556"/>
		<line x1="428.658" y1="459.895" x2="526.383" y2="459.895" stroke="rgb(255,255,0)" stroke-width="0.705556"/>
		<line x1="327.683" y1="554.529" x2="327.683" y2="630.179" stroke="rgb(255,0,0)" stroke-width="0.705556"/>
		<line x1="327.683" y1="630.179" x2="425.408" y2="630.179" stroke="rgb(255,0,0)" stroke-width="0.705556"/>
		<line x1="425.408" y1="630.179" x2="425.408" y2="554.529" stroke="rgb(255,0,0)" stroke-width="0.705556"/>
		<line x1="425.408" y1="554.529" x2="327.683" y2="554.529" stroke="rgb(255,255,0)" stroke-width="0.705556"/>
		<line x1="428.658" y1="554.529" x2="428.658" y2="630.179" stroke="rgb(255,0,0)" stroke-width="0.705556"/>
		<line x1="428.658" y1="630.179" x2="526.383" y2="630.179" stroke="rgb(255,0,0)" stroke-width="0.705556"/>
		<line x1="526.383" y1="630.179" x2="526.383" y2="554.529" stroke="rgb(255,0,0)" stroke-width="0.705556"/>
		<line x1="526.383" y1="554.529" x2="428.658" y2="554.529" stroke="rgb(255,255,0)" stroke-width="0.705556"/>
		<line x1="810.283" y1="554.529" x2="810.283" y2="630.179" stroke="rgb(255,0,0)" stroke-width="0.705556"/>
		<line x1="810.283" y1="630.179" x2="908.008" y2="630.179" stroke="rgb(255,0,0)" stroke-width="0.705556"/>
		<line x1="908.008" y1="630.179" x2="908.008" y2="554.529" stroke="rgb(255,0,0)" stroke-width="0.705556"/>
		<line x1="908.008" y1="554.529" x2="810.283" y2="554.529" stroke="rgb(255,255,0)" stroke-width="0.705556"/>
		<line x1="911.258" y1="554.529" x2="911.258" y2="630.179" stroke="rgb(255,0,0)" stroke-width="0.705556"/>
		<line x1="911.258" y1="630.179" x2="1008.98" y2="630.179" stroke="rgb(255,0,0)" stroke-width="0.705556"/>
		<line x1="1008.98" y1="630.179" x2="1008.98" y2="554.529" stroke="rgb(255,0,0)" stroke-width="0.705556"/>
		<line x1="1008.98" y1="554.529" x2="911.258" y2="554.529" stroke="rgb(255,255,0)" stroke-width="0.705556"/>
		<line x1="527.683" y1="308.595" x2="528.983" y2="308.595" stroke="rgb(255,0,0)" stroke-width="0.705556"/>
		<line x1="528.983" y1="308.595" x2="528.983" y2="208.595" stroke="rgb(255,0,0)" stroke-width="0.705556"/>
		<line x1="807.683" y1="208.595" x2="807.683" y2="308.595" stroke="rgb(255,0,0)" stroke-width="0.705556"/>
		<line x1="807.683" y1="308.595" x2="808.983" y2="308.595" stroke="rgb(255,0,0)" stroke-width="0.705556"/>
		<line x1="528.983" y1="308.595" x2="807.683" y2="308.595" stroke="rgb(255,255,0)" stroke-width="0.705556"/>
		<line x1="326.383" y1="308.595" x2="325.083" y2="308.595" stroke="rgb(255,0,0)" stroke-width="0.705556"/>
		<line x1="325.083" y1="308.595" x2="325.083" y2="208.595" stroke="rgb(255,0,0)" stroke-width="0.705556"/>
		<line x1="46.3827" y1="208.595" x2="46.3827" y2="308.595" stroke="rgb(255,0,0)" stroke-width="0.705556"/>
		<line x1="325.083" y1="308.595" x2="46.3827" y2="308.595" stroke="rgb(255,255,0)" stroke-width="0.705556"/>
		<line x1="46.3827" y1="208.595" x2="46.3827" y2="138.312" stroke="rgb(255,0,0)" stroke-width="0.705556"/>
		<line x1="46.3827" y1="138.312" x2="325.083" y2="138.312" stroke="rgb(255,0,0)" stroke-width="0.705556"/>
		<line x1="325.083" y1="138.312" x2="325.083" y2="208.595" stroke="rgb(255,0,0)" stroke-width="0.705556"/>
		<line x1="325.083" y1="208.595" x2="46.3827" y2="208.595" stroke="rgb(255,255,0)" stroke-width="0.705556"/>
		<line x1="528.983" y1="208.595" x2="528.983" y2="138.312" stroke="rgb(255,0,0)" stroke-width="0.705556"/>
		<line x1="528.983" y1="138.312" x2="807.683" y2="138.312" stroke="rgb(255,0,0)" stroke-width="0.705556"/>
		<line x1="807.683" y1="138.312" x2="807.683" y2="208.595" stroke="rgb(255,0,0)" stroke-width="0.705556"/>
		<line x1="807.683" y1="208.595" x2="528.983" y2="208.595" stroke="rgb(255,255,0)" stroke-width="0.705556"/>
		<line x1="808.983" y1="308.595" x2="810.283" y2="308.595" stroke="rgb(255,0,0)" stroke-width="0.705556"/>
		<line x1="810.283" y1="308.595" x2="810.283" y2="213.962" stroke="rgb(255,0,0)" stroke-width="0.705556"/>
		<line x1="908.008" y1="213.962" x2="908.008" y2="308.595" stroke="rgb(255,0,0)" stroke-width="0.705556"/>
		<line x1="908.008" y1="308.595" x2="911.258" y2="308.595" stroke="rgb(255,0,0)" stroke-width="0.705556"/>
		<line x1="911.258" y1="308.595" x2="911.258" y2="213.962" stroke="rgb(255,0,0)" stroke-width="0.705556"/>
		<line x1="1008.98" y1="213.962" x2="1008.98" y2="308.595" stroke="rgb(255,0,0)" stroke-width="0.705556"/>
		<line x1="1008.98" y1="308.595" x2="1008.98" y2="308.595" stroke="rgb(255,0,0)" stroke-width="0.705556"/>
		<line x1="810.283" y1="308.595" x2="908.008" y2="308.595" stroke="rgb(255,255,0)" stroke-width="0.705556"/>
		<line x1="911.258" y1="308.595" x2="1008.98" y2="308.595" stroke="rgb(255,255,0)" stroke-width="0.705556"/>
		<line x1="326.383" y1="308.595" x2="327.683" y2="308.595" stroke="rgb(255,0,0)" stroke-width="0.705556"/>
		<line x1="327.683" y1="308.595" x2="327.683" y2="213.962" stroke="rgb(255,0,0)" stroke-width="0.705556"/>
		<line x1="425.408" y1="213.962" x2="425.408" y2="308.595" stroke="rgb(255,0,0)" stroke-width="0.705556"/>
		<line x1="425.408" y1="308.595" x2="428.658" y2="308.595" stroke="rgb(255,0,0)" stroke-width="0.705556"/>
		<line x1="428.658" y1="308.595" x2="428.658" y2="213.962" stroke="rgb(255,0,0)" stroke-width="0.705556"/>
		<line x1="526.383" y1="213.962" x2="526.383" y2="308.595" stroke="rgb(255,0,0)" stroke-width="0.705556"/>
		<line x1="526.383" y1="308.595" x2="527.683" y2="308.595" stroke="rgb(255,0,0)" stroke-width="0.705556"/>
		<line x1="327.683" y1="308.595" x2="425.408" y2="308.595" stroke="rgb(255,255,0)" stroke-width="0.705556"/>
		<line x1="428.658" y1="308.595" x2="526.383" y2="308.595" stroke="rgb(255,255,0)" stroke-width="0.705556"/>
		<line x1="327.683" y1="213.962" x2="327.683" y2="138.312" stroke="rgb(255,0,0)" stroke-width="0.705556"/>
		<line x1="327.683" y1="138.312" x2="425.408" y2="138.312" stroke="rgb(255,0,0)" stroke-width="0.705556"/>
		<line x1="425.408" y1="138.312" x2="425.408" y2="213.962" stroke="rgb(255,0,0)" stroke-width="0.705556"/>
		<line x1="425.408" y1="213.962" x2="327.683" y2="213.962" stroke="rgb(255,255,0)" stroke-width="0.705556"/>
		<line x1="428.658" y1="213.962" x2="428.658" y2="138.312" stroke="rgb(255,0,0)" stroke-width="0.705556"/>
		<line x1="428.658" y1="138.312" x2="526.383" y2="138.312" stroke="rgb(255,0,0)" stroke-width="0.705556"/>
		<line x1="526.383" y1="138.312" x2="526.383" y2="213.962" stroke="rgb(255,0,0)" stroke-width="0.705556"/>
		<line x1="526.383" y1="213.962" x2="428.658" y2="213.962" stroke="rgb(255,255,0)" stroke-width="0.705556"/>
		<line x1="810.283" y1="213.962" x2="810.283" y2="138.312" stroke="rgb(255,0,0)" stroke-width="0.705556"/>
		<line x1="810.283" y1="138.312" x2="908.008" y2="138.312" stroke="rgb(255,0,0)" stroke-width="0.705556"/>
		<line x1="908.008" y1="138.312" x2="908.008" y2="213.962" stroke="rgb(255,0,0)" stroke-width="0.705556"/>
		<line x1="908.008" y1="213.962" x2="810.283" y2="213.962" stroke="rgb(255,255,0)" stroke-width="0.705556"/>
		<line x1="911.258" y1="213.962" x2="911.258" y2="138.312" stroke="rgb(255,0,0)" stroke-width="0.705556"/>
		<line x1="911.258" y1="138.312" x2="1008.98" y2="138.312" stroke="rgb(255,0,0)" stroke-width="0.705556"/>
		<line x1="1008.98" y1="138.312" x2="1008.98" y2="213.962" stroke="rgb(255,0,0)" stroke-width="0.705556"/>
		<line x1="1008.98" y1="213.962" x2="911.258" y2="213.962" stroke="rgb(255,255,0)" stroke-width="0.705556"/>
		<line x1="46.3827" y1="308.595" x2="20.0827" y2="315.595" stroke="rgb(255,0,0)" stroke-width="0.705556"/>
		<line x1="20.0827" y1="315.595" x2="20.0827" y2="452.895" stroke="rgb(255,0,0)" stroke-width="0.705556"/>
		<line x1="20.0827" y1="452.895" x2="46.3827" y2="459.895" stroke="rgb(255,0,0)" stroke-width="0.705556"/>
		<line x1="45.0827" y1="308.941" x2="45.0827" y2="459.549" stroke="rgb(255,255,0)" stroke-width="0.705556"/>
		<line x1="1008.98" y1="308.595" x2="1008.98" y2="308.595" stroke="rgb(255,0,0)" stroke-width="0.705556"/>
		<line x1="1008.98" y1="459.895" x2="1008.98" y2="459.895" stroke="rgb(255,0,0)" stroke-width="0.705556"/>
		<line x1="908.983" y1="371.21" x2="908.983" y2="343.595" stroke="rgb(64,128,128)" stroke-width="0"/>
		<line x1="917.467" y1="352.8" x2="917.467" y2="343.595" stroke="rgb(64,128,128)" stroke-width="0"/>
		<line x1="913.225" y1="362.005" x2="913.225" y2="343.595" stroke="rgb(64,128,128)" stroke-width="0"/>
		<line x1="904.741" y1="380.415" x2="904.741" y2="343.595" stroke="rgb(64,128,128)" stroke-width="0"/>
		<line x1="900.499" y1="389.62" x2="900.499" y2="343.595" stroke="rgb(64,128,128)" stroke-width="0"/>
		<line x1="896.257" y1="398.825" x2="896.257" y2="343.595" stroke="rgb(64,128,128)" stroke-width="0"/>
		<line x1="921.709" y1="343.595" x2="896.257" y2="343.595" stroke="rgb(64,128,128)" stroke-width="0"/>
		<line x1="896.257" y1="398.825" x2="924.531" y2="370.507" stroke="rgb(64,128,128)" stroke-width="0"/>
		<path d="M924.531,370.507 a26.6045 26.6045 0 0 1 -2.82257,-26.9118" fill="none" stroke="rgb(64,128,128)" stroke-width="0"/>
		<line x1="921.709" y1="343.595" x2="896.257" y2="398.825" stroke="rgb(64,128,128)" stroke-width="0"/>
	</g>
</svg>