<svg version = "1.1" xmlns = "http://www.w3.org/2000/svg" xmlns:xlink="http://www.w3.org/1999/xlink" width="989.606" height="632.006" viewbox = "0 0 989.606 632.006">
	<g transform="translate(-38.1668,645.212) scale(1,-1) ">
		<line x1="63.5196" y1="253.559" x2="344.82" y2="253.559" stroke="rgb(255,0,0)" stroke-width="0.705556"/>
		<line x1="344.82" y1="253.559" x2="344.82" y2="404.859" stroke="rgb(255,255,0)" stroke-width="0.705556"/>
		<line x1="546.12" y1="404.859" x2="546.12" y2="253.559" stroke="rgb(255,255,0)" stroke-width="0.705556"/>
		<line x1="827.42" y1="253.559" x2="827.42" y2="404.859" stroke="rgb(255,255,0)" stroke-width="0.705556"/>
		<line x1="827.42" y1="404.859" x2="698.77" y2="404.859" stroke="rgb(255,0,0)" stroke-width="0.705556"/>
		<line x1="674.77" y1="404.859" x2="546.12" y2="404.859" stroke="rgb(255,0,0)" stroke-width="0.705556"/>
		<line x1="1027.42" y1="404.859" x2="1027.42" y2="253.559" stroke="rgb(255,0,0)" stroke-width="0.705556"/>
		<path d="M674.77,404.859 a12 12 0 0 1 24,0" fill="none" stroke="rgb(255,0,0)" stroke-width="0.705556"/>
		<line x1="63.5196" y1="253.559" x2="63.5196" y2="404.859" stroke="rgb(255,255,0)" stroke-width="0.705556"/>
		<line x1="63.5196" y1="404.859" x2="38.5196" y2="398.16" stroke="rgb(255,0,0)" stroke-width="0.705556"/>
		<line x1="38.5196" y1="398.16" x2="38.5196" y2="260.258" stroke="rgb(255,0,0)" stroke-width="0.705556"/>
		<line x1="38.5196" y1="260.258" x2="63.5196" y2="253.559" stroke="rgb(255,0,0)" stroke-width="0.705556"/>
		<line x1="686.77" y1="306.174" x2="686.77" y2="278.559" stroke="rgb(64,128,128)" stroke-width="0"/>
		<line x1="695.254" y1="287.764" x2="695.254" y2="278.559" stroke="rgb(64,128,128)" stroke-width="0"/>
		<line x1="691.012" y1="296.969" x2="691.012" y2="278.559" stroke="rgb(64,128,128)" stroke-width="0"/>
		<line x1="682.528" y1="315.379" x2="682.528" y2="278.559" stroke="rgb(64,128,128)" stroke-width="0"/>
		<line x1="678.286" y1="324.584" x2="678.286" y2="278.559" stroke="rgb(64,128,128)" stroke-width="0"/>
		<line x1="674.044" y1="333.788" x2="674.044" y2="278.559" stroke="rgb(64,128,128)" stroke-width="0"/>
		<line x1="699.496" y1="278.559" x2="674.044" y2="278.559" stroke="rgb(64,128,128)" stroke-width="0"/>
		<line x1="674.044" y1="333.788" x2="702.318" y2="305.471" stroke="rgb(64,128,128)" stroke-width="0"/>
		<path d="M702.318,305.471 a26.6045 26.6045 0 0 1 -2.82257,-26.9118" fill="none" stroke="rgb(64,128,128)" stroke-width="0"/>
		<line x1="699.496" y1="278.559" x2="674.044" y2="333.788" stroke="rgb(64,128,128)" stroke-width="0"/>
		<line x1="64.8196" y1="604.859" x2="64.8196" y2="624.859" stroke="rgb(255,0,0)" stroke-width="0.705556"/>
		<line x1="84.8196" y1="644.859" x2="323.52" y2="644.859" stroke="rgb(255,0,0)" stroke-width="0.705556"/>
		<line x1="343.52" y1="624.859" x2="343.52" y2="604.859" stroke="rgb(255,0,0)" stroke-width="0.705556"/>
		<line x1="345.47" y1="604.859" x2="343.52" y2="604.859" stroke="rgb(255,0,0)" stroke-width="0.705556"/>
		<line x1="343.52" y1="604.859" x2="64.8196" y2="604.859" stroke="rgb(255,255,0)" stroke-width="0.705556"/>
		<line x1="64.8196" y1="604.859" x2="62.8696" y2="604.859" stroke="rgb(255,0,0)" stroke-width="0.705556"/>
		<path d="M84.8196,644.859 a20 20 0 0 1 -20,-20" fill="none" stroke="rgb(255,0,0)" stroke-width="0.705556"/>
		<path d="M323.52,644.859 a20 20 0 0 0 20,-20" fill="none" stroke="rgb(255,0,0)" stroke-width="0.705556"/>
		<line x1="546.12" y1="404.859" x2="544.17" y2="404.859" stroke="rgb(255,0,0)" stroke-width="0.705556"/>
		<line x1="544.17" y1="404.859" x2="544.17" y2="404.859" stroke="rgb(255,0,0)" stroke-width="0.705556"/>
		<line x1="544.17" y1="404.859" x2="518.987" y2="498.842" stroke="rgb(255,0,0)" stroke-width="0.705556"/>
		<line x1="518.987" y1="498.842" x2="345.47" y2="498.842" stroke="rgb(255,0,0)" stroke-width="0.705556"/>
		<line x1="345.47" y1="498.842" x2="345.47" y2="406.159" stroke="rgb(255,0,0)" stroke-width="0.705556"/>
		<line x1="544.17" y1="404.859" x2="344.82" y2="404.859" stroke="rgb(255,255,0)" stroke-width="0.705556"/>
		<line x1="344.82" y1="404.859" x2="345.47" y2="406.159" stroke="rgb(255,0,0)" stroke-width="0.705556"/>
		<line x1="827.42" y1="404.859" x2="829.37" y2="404.859" stroke="rgb(255,0,0)" stroke-width="0.705556"/>
		<line x1="829.37" y1="404.859" x2="829.37" y2="404.859" stroke="rgb(255,0,0)" stroke-width="0.705556"/>
		<line x1="829.37" y1="404.859" x2="854.552" y2="498.842" stroke="rgb(255,0,0)" stroke-width="0.705556"/>
		<line x1="854.552" y1="498.842" x2="1027.42" y2="498.842" stroke="rgb(255,0,0)" stroke-width="0.705556"/>
		<line x1="1027.42" y1="498.842" x2="1027.42" y2="406.159" stroke="rgb(255,0,0)" stroke-width="0.705556"/>
		<line x1="829.37" y1="404.859" x2="1027.42" y2="404.859" stroke="rgb(255,255,0)" stroke-width="0.705556"/>
		<line x1="1027.42" y1="404.859" x2="1027.42" y2="406.159" stroke="rgb(255,0,0)" stroke-width="0.705556"/>
		<line x1="344.82" y1="404.859" x2="345.47" y2="406.159" stroke="rgb(255,0,0)" stroke-width="0.705556"/>
		<line x1="345.47" y1="406.159" x2="345.47" y2="604.859" stroke="rgb(255,0,0)" stroke-width="0.705556"/>
		<line x1="62.8696" y1="604.859" x2="62.8696" y2="406.159" stroke="rgb(255,0,0)" stroke-width="0.705556"/>
		<line x1="62.8696" y1="406.159" x2="63.5196" y2="404.859" stroke="rgb(255,0,0)" stroke-width="0.705556"/>
		<line x1="344.82" y1="404.859" x2="63.5196" y2="404.859" stroke="rgb(255,255,0)" stroke-width="0.705556"/>
		<line x1="826.12" y1="53.5589" x2="826.12" y2="33.5589" stroke="rgb(255,0,0)" stroke-width="0.705556"/>
		<line x1="806.12" y1="13.5589" x2="567.42" y2="13.5589" stroke="rgb(255,0,0)" stroke-width="0.705556"/>
		<line x1="547.42" y1="33.5589" x2="547.42" y2="53.5589" stroke="rgb(255,0,0)" stroke-width="0.705556"/>
		<line x1="545.47" y1="53.5589" x2="547.42" y2="53.5589" stroke="rgb(255,0,0)" stroke-width="0.705556"/>
		<line x1="547.42" y1="53.5589" x2="826.12" y2="53.5589" stroke="rgb(255,255,0)" stroke-width="0.705556"/>
		<line x1="826.12" y1="53.5589" x2="828.07" y2="53.5589" stroke="rgb(255,0,0)" stroke-width="0.705556"/>
		<path d="M806.12,13.5589 a20 20 0 0 1 20,20" fill="none" stroke="rgb(255,0,0)" stroke-width="0.705556"/>
		<path d="M567.42,13.5589 a20 20 0 0 0 -20,20" fill="none" stroke="rgb(255,0,0)" stroke-width="0.705556"/>
		<line x1="1027.42" y1="253.559" x2="1027.42" y2="253.559" stroke="rgb(255,0,0)" stroke-width="0.705556"/>
		<line x1="1027.42" y1="253.559" x2="1027.42" y2="253.559" stroke="rgb(255,0,0)" stroke-width="0.705556"/>
		<line x1="1027.42" y1="253.559" x2="1002.24" y2="159.576" stroke="rgb(255,0,0)" stroke-width="0.705556"/>
		<line x1="1002.24" y1="159.576" x2="828.07" y2="159.576" stroke="rgb(255,0,0)" stroke-width="0.705556"/>
		<line x1="828.07" y1="159.576" x2="828.07" y2="252.259" stroke="rgb(255,0,0)" stroke-width="0.705556"/>
		<line x1="1027.42" y1="253.559" x2="827.42" y2="253.559" stroke="rgb(255,255,0)" stroke-width="0.705556"/>
		<line x1="827.42" y1="253.559" x2="828.07" y2="252.259" stroke="rgb(255,0,0)" stroke-width="0.705556"/>
		<line x1="344.82" y1="253.559" x2="346.77" y2="253.559" stroke="rgb(255,0,0)" stroke-width="0.705556"/>
		<line x1="346.77" y1="253.559" x2="346.77" y2="253.559" stroke="rgb(255,0,0)" stroke-width="0.705556"/>
		<line x1="346.77" y1="253.559" x2="371.952" y2="159.576" stroke="rgb(255,0,0)" stroke-width="0.705556"/>
		<line x1="371.952" y1="159.576" x2="545.47" y2="159.576" stroke="rgb(255,0,0)" stroke-width="0.705556"/>
		<line x1="545.47" y1="159.576" x2="545.47" y2="252.259" stroke="rgb(255,0,0)" stroke-width="0.705556"/>
		<line x1="346.77" y1="253.559" x2="546.12" y2="253.559" stroke="rgb(255,255,0)" stroke-width="0.705556"/>
		<line x1="546.12" y1="253.559" x2="545.47" y2="252.259" stroke="rgb(255,0,0)" stroke-width="0.705556"/>
		<line x1="546.12" y1="253.559" x2="545.47" y2="252.259" stroke="rgb(255,0,0)" stroke-width="0.705556"/>
		<line x1="545.47" y1="252.259" x2="545.47" y2="53.5589" stroke="rgb(255,0,0)" stroke-width="0.705556"/>
		<line x1="828.07" y1="53.5589" x2="828.07" y2="252.259" stroke="rgb(255,0,0)" stroke-width="0.705556"/>
		<line x1="828.07" y1="252.259" x2="827.42" y2="253.559" stroke="rgb(255,0,0)" stroke-width="0.705556"/>
		<line x1="546.12" y1="253.559" x2="827.42" y2="253.559" stroke="rgb(255,255,0)" stroke-width="0.705556"/>
		<line x1="1027.42" y1="253.559" x2="1027.42" y2="253.559" stroke="rgb(255,0,0)" stroke-width="0.705556"/>
	</g>
</svg>