<svg version = "1.1" xmlns = "http://www.w3.org/2000/svg" xmlns:xlink="http://www.w3.org/1999/xlink" width="1000.01" height="304.106" viewbox = "0 0 1000.01 304.106">
	<g transform="translate(-22.7369,332.609) scale(1,-1) ">
		<line x1="331.99" y1="132.806" x2="331.99" y2="280.956" stroke="rgb(255,255,0)" stroke-width="0.705556"/>
		<line x1="535.89" y1="280.956" x2="535.89" y2="132.806" stroke="rgb(255,255,0)" stroke-width="0.705556"/>
		<line x1="819.79" y1="132.806" x2="819.79" y2="280.956" stroke="rgb(255,255,0)" stroke-width="0.705556"/>
		<line x1="1022.39" y1="280.956" x2="1022.39" y2="132.806" stroke="rgb(255,0,0)" stroke-width="0.705556"/>
		<line x1="819.79" y1="132.806" x2="818.29" y2="132.806" stroke="rgb(255,0,0)" stroke-width="0.705556"/>
		<line x1="818.29" y1="132.806" x2="818.29" y2="28.8559" stroke="rgb(255,0,0)" stroke-width="0.705556"/>
		<line x1="818.29" y1="28.8559" x2="537.39" y2="28.8559" stroke="rgb(255,0,0)" stroke-width="0.705556"/>
		<line x1="537.39" y1="28.8559" x2="537.39" y2="132.806" stroke="rgb(255,0,0)" stroke-width="0.705556"/>
		<line x1="537.39" y1="132.806" x2="535.89" y2="132.806" stroke="rgb(255,0,0)" stroke-width="0.705556"/>
		<line x1="818.29" y1="130.806" x2="537.39" y2="130.806" stroke="rgb(255,255,0)" stroke-width="0.705556"/>
		<line x1="535.89" y1="132.806" x2="534.39" y2="132.806" stroke="rgb(255,0,0)" stroke-width="0.705556"/>
		<line x1="534.39" y1="132.806" x2="534.39" y2="28.8559" stroke="rgb(255,0,0)" stroke-width="0.705556"/>
		<line x1="534.39" y1="28.8559" x2="333.49" y2="28.8559" stroke="rgb(255,0,0)" stroke-width="0.705556"/>
		<line x1="333.49" y1="28.8559" x2="333.49" y2="132.806" stroke="rgb(255,0,0)" stroke-width="0.705556"/>
		<line x1="333.49" y1="132.806" x2="331.99" y2="132.806" stroke="rgb(255,0,0)" stroke-width="0.705556"/>
		<line x1="534.39" y1="130.806" x2="333.49" y2="130.806" stroke="rgb(255,255,0)" stroke-width="0.705556"/>
		<line x1="331.99" y1="132.806" x2="330.49" y2="132.806" stroke="rgb(255,0,0)" stroke-width="0.705556"/>
		<line x1="330.49" y1="132.806" x2="330.49" y2="28.8559" stroke="rgb(255,0,0)" stroke-width="0.705556"/>
		<line x1="330.49" y1="28.8559" x2="49.5897" y2="28.8559" stroke="rgb(255,0,0)" stroke-width="0.705556"/>
		<line x1="49.5897" y1="28.8559" x2="49.5897" y2="130.806" stroke="rgb(255,0,0)" stroke-width="0.705556"/>
		<line x1="330.49" y1="130.806" x2="49.5897" y2="130.806" stroke="rgb(255,255,0)" stroke-width="0.705556"/>
		<line x1="1022.39" y1="132.806" x2="1022.39" y2="132.806" stroke="rgb(255,0,0)" stroke-width="0.705556"/>
		<line x1="1022.39" y1="132.806" x2="1022.39" y2="28.8559" stroke="rgb(255,0,0)" stroke-width="0.705556"/>
		<line x1="1022.39" y1="28.8559" x2="821.29" y2="28.8559" stroke="rgb(255,0,0)" stroke-width="0.705556"/>
		<line x1="821.29" y1="28.8559" x2="821.29" y2="132.806" stroke="rgb(255,0,0)" stroke-width="0.705556"/>
		<line x1="821.29" y1="132.806" x2="819.79" y2="132.806" stroke="rgb(255,0,0)" stroke-width="0.705556"/>
		<line x1="1022.39" y1="130.806" x2="821.29" y2="130.806" stroke="rgb(255,255,0)" stroke-width="0.705556"/>
		<line x1="819.79" y1="280.956" x2="817.84" y2="280.956" stroke="rgb(255,0,0)" stroke-width="0.705556"/>
		<line x1="817.84" y1="280.956" x2="817.84" y2="282.256" stroke="rgb(255,0,0)" stroke-width="0.705556"/>
		<line x1="537.84" y1="282.256" x2="537.84" y2="280.956" stroke="rgb(255,0,0)" stroke-width="0.705556"/>
		<line x1="537.84" y1="280.956" x2="535.89" y2="280.956" stroke="rgb(255,0,0)" stroke-width="0.705556"/>
		<line x1="817.84" y1="280.956" x2="537.84" y2="280.956" stroke="rgb(255,255,0)" stroke-width="0.705556"/>
		<line x1="535.89" y1="280.956" x2="533.94" y2="280.956" stroke="rgb(255,0,0)" stroke-width="0.705556"/>
		<line x1="533.94" y1="280.956" x2="533.94" y2="282.256" stroke="rgb(255,0,0)" stroke-width="0.705556"/>
		<line x1="333.94" y1="282.256" x2="333.94" y2="280.956" stroke="rgb(255,0,0)" stroke-width="0.705556"/>
		<line x1="333.94" y1="280.956" x2="331.99" y2="280.956" stroke="rgb(255,0,0)" stroke-width="0.705556"/>
		<line x1="533.94" y1="280.956" x2="333.94" y2="280.956" stroke="rgb(255,255,0)" stroke-width="0.705556"/>
		<line x1="331.99" y1="280.956" x2="330.04" y2="280.956" stroke="rgb(255,0,0)" stroke-width="0.705556"/>
		<line x1="330.04" y1="280.956" x2="330.04" y2="282.256" stroke="rgb(255,0,0)" stroke-width="0.705556"/>
		<line x1="49.5897" y1="282.256" x2="49.5897" y2="280.956" stroke="rgb(255,0,0)" stroke-width="0.705556"/>
		<line x1="330.04" y1="280.956" x2="49.5897" y2="280.956" stroke="rgb(255,255,0)" stroke-width="0.705556"/>
		<line x1="1022.39" y1="280.956" x2="1022.39" y2="280.956" stroke="rgb(255,0,0)" stroke-width="0.705556"/>
		<line x1="1022.39" y1="280.956" x2="1022.39" y2="282.256" stroke="rgb(255,0,0)" stroke-width="0.705556"/>
		<line x1="821.74" y1="282.256" x2="821.74" y2="280.956" stroke="rgb(255,0,0)" stroke-width="0.705556"/>
		<line x1="821.74" y1="280.956" x2="819.79" y2="280.956" stroke="rgb(255,0,0)" stroke-width="0.705556"/>
		<line x1="1022.39" y1="280.956" x2="821.74" y2="280.956" stroke="rgb(255,255,0)" stroke-width="0.705556"/>
		<line x1="49.5897" y1="130.806" x2="23.0897" y2="143.163" stroke="rgb(255,0,0)" stroke-width="0.705556"/>
		<line x1="23.0897" y1="143.163" x2="23.0897" y2="268.599" stroke="rgb(255,0,0)" stroke-width="0.705556"/>
		<line x1="48.0897" y1="280.256" x2="48.0897" y2="131.505" stroke="rgb(255,255,0)" stroke-width="0.705556"/>
		<line x1="49.5897" y1="280.956" x2="23.0897" y2="268.599" stroke="rgb(255,0,0)" stroke-width="0.705556"/>
		<line x1="49.5897" y1="282.256" x2="49.5897" y2="332.256" stroke="rgb(255,0,0)" stroke-width="0.705556"/>
		<line x1="49.5897" y1="332.256" x2="330.04" y2="332.256" stroke="rgb(255,0,0)" stroke-width="0.705556"/>
		<line x1="330.04" y1="332.256" x2="330.04" y2="282.256" stroke="rgb(255,0,0)" stroke-width="0.705556"/>
		<line x1="330.04" y1="282.256" x2="49.5897" y2="282.256" stroke="rgb(255,255,0)" stroke-width="0.705556"/>
		<line x1="333.94" y1="282.256" x2="333.94" y2="332.256" stroke="rgb(255,0,0)" stroke-width="0.705556"/>
		<line x1="333.94" y1="332.256" x2="533.94" y2="332.256" stroke="rgb(255,0,0)" stroke-width="0.705556"/>
		<line x1="533.94" y1="332.256" x2="533.94" y2="282.256" stroke="rgb(255,0,0)" stroke-width="0.705556"/>
		<line x1="533.94" y1="282.256" x2="333.94" y2="282.256" stroke="rgb(255,255,0)" stroke-width="0.705556"/>
		<line x1="537.84" y1="282.256" x2="537.84" y2="332.256" stroke="rgb(255,0,0)" stroke-width="0.705556"/>
		<line x1="537.84" y1="332.256" x2="817.84" y2="332.256" stroke="rgb(255,0,0)" stroke-width="0.705556"/>
		<line x1="817.84" y1="332.256" x2="817.84" y2="282.256" stroke="rgb(255,0,0)" stroke-width="0.705556"/>
		<line x1="817.84" y1="282.256" x2="537.84" y2="282.256" stroke="rgb(255,255,0)" stroke-width="0.705556"/>
		<line x1="821.74" y1="282.256" x2="821.74" y2="332.256" stroke="rgb(255,0,0)" stroke-width="0.705556"/>
		<line x1="821.74" y1="332.256" x2="1022.39" y2="332.256" stroke="rgb(255,0,0)" stroke-width="0.705556"/>
		<line x1="1022.39" y1="332.256" x2="1022.39" y2="282.256" stroke="rgb(255,0,0)" stroke-width="0.705556"/>
		<line x1="1022.39" y1="282.256" x2="821.74" y2="282.256" stroke="rgb(255,255,0)" stroke-width="0.705556"/>
		<line x1="1022.39" y1="132.806" x2="1022.39" y2="132.806" stroke="rgb(255,0,0)" stroke-width="0.705556"/>
		<line x1="1022.39" y1="280.956" x2="1022.39" y2="280.956" stroke="rgb(255,0,0)" stroke-width="0.705556"/>
		<line x1="190.04" y1="193.421" x2="190.04" y2="165.806" stroke="rgb(64,128,128)" stroke-width="0"/>
		<line x1="198.524" y1="175.011" x2="198.524" y2="165.806" stroke="rgb(64,128,128)" stroke-width="0"/>
		<line x1="194.282" y1="184.216" x2="194.282" y2="165.806" stroke="rgb(64,128,128)" stroke-width="0"/>
		<line x1="185.798" y1="202.626" x2="185.798" y2="165.806" stroke="rgb(64,128,128)" stroke-width="0"/>
		<line x1="181.556" y1="211.831" x2="181.556" y2="165.806" stroke="rgb(64,128,128)" stroke-width="0"/>
		<line x1="177.314" y1="221.036" x2="177.314" y2="165.806" stroke="rgb(64,128,128)" stroke-width="0"/>
		<line x1="202.766" y1="165.806" x2="177.314" y2="165.806" stroke="rgb(64,128,128)" stroke-width="0"/>
		<line x1="177.314" y1="221.036" x2="205.588" y2="192.718" stroke="rgb(64,128,128)" stroke-width="0"/>
		<path d="M205.588,192.718 a26.6045 26.6045 0 0 1 -2.82257,-26.9118" fill="none" stroke="rgb(64,128,128)" stroke-width="0"/>
		<line x1="202.766" y1="165.806" x2="177.314" y2="221.036" stroke="rgb(64,128,128)" stroke-width="0"/>
	</g>
</svg>