<svg version = "1.1" xmlns = "http://www.w3.org/2000/svg" xmlns:xlink="http://www.w3.org/1999/xlink" width="1029.61" height="522.851" viewbox = "0 0 1029.61 522.851">
	<g transform="translate(5.44638,541.653) scale(1,-1) ">
		<line x1="321.206" y1="151" x2="321.206" y2="301.3" stroke="rgb(255,255,0)" stroke-width="0.705556"/>
		<line x1="522.506" y1="301.3" x2="522.506" y2="151" stroke="rgb(255,255,0)" stroke-width="0.705556"/>
		<line x1="823.806" y1="151" x2="823.806" y2="301.3" stroke="rgb(255,255,0)" stroke-width="0.705556"/>
		<line x1="823.806" y1="301.3" x2="685.156" y2="301.3" stroke="rgb(255,0,0)" stroke-width="0.705556"/>
		<line x1="661.156" y1="301.3" x2="522.506" y2="301.3" stroke="rgb(255,0,0)" stroke-width="0.705556"/>
		<line x1="1023.81" y1="301.3" x2="1023.81" y2="150" stroke="rgb(255,0,0)" stroke-width="0.705556"/>
		<path d="M661.156,301.3 a12 12 0 0 1 24,0" fill="none" stroke="rgb(255,0,0)" stroke-width="0.705556"/>
		<line x1="21.2064" y1="501.3" x2="21.2064" y2="521.3" stroke="rgb(255,0,0)" stroke-width="0.705556"/>
		<line x1="41.2064" y1="541.3" x2="299.906" y2="541.3" stroke="rgb(255,0,0)" stroke-width="0.705556"/>
		<line x1="319.906" y1="521.3" x2="319.906" y2="501.3" stroke="rgb(255,0,0)" stroke-width="0.705556"/>
		<line x1="321.856" y1="501.3" x2="319.906" y2="501.3" stroke="rgb(255,0,0)" stroke-width="0.705556"/>
		<line x1="319.906" y1="501.3" x2="21.2064" y2="501.3" stroke="rgb(255,255,0)" stroke-width="0.705556"/>
		<line x1="21.2064" y1="501.3" x2="19.2564" y2="501.3" stroke="rgb(255,0,0)" stroke-width="0.705556"/>
		<path d="M41.2064,541.3 a20 20 0 0 1 -20,-20" fill="none" stroke="rgb(255,0,0)" stroke-width="0.705556"/>
		<path d="M299.906,541.3 a20 20 0 0 0 20,-20" fill="none" stroke="rgb(255,0,0)" stroke-width="0.705556"/>
		<line x1="673.156" y1="202.615" x2="673.156" y2="175" stroke="rgb(64,128,128)" stroke-width="0"/>
		<line x1="681.64" y1="184.205" x2="681.64" y2="175" stroke="rgb(64,128,128)" stroke-width="0"/>
		<line x1="677.398" y1="193.41" x2="677.398" y2="175" stroke="rgb(64,128,128)" stroke-width="0"/>
		<line x1="668.914" y1="211.82" x2="668.914" y2="175" stroke="rgb(64,128,128)" stroke-width="0"/>
		<line x1="664.672" y1="221.025" x2="664.672" y2="175" stroke="rgb(64,128,128)" stroke-width="0"/>
		<line x1="660.43" y1="230.23" x2="660.43" y2="175" stroke="rgb(64,128,128)" stroke-width="0"/>
		<line x1="685.882" y1="175" x2="660.43" y2="175" stroke="rgb(64,128,128)" stroke-width="0"/>
		<line x1="660.43" y1="230.23" x2="688.705" y2="201.912" stroke="rgb(64,128,128)" stroke-width="0"/>
		<path d="M688.705,201.912 a26.6045 26.6045 0 0 1 -2.82257,-26.9118" fill="none" stroke="rgb(64,128,128)" stroke-width="0"/>
		<line x1="685.882" y1="175" x2="660.43" y2="230.23" stroke="rgb(64,128,128)" stroke-width="0"/>
		<line x1="522.506" y1="301.3" x2="520.556" y2="301.3" stroke="rgb(255,0,0)" stroke-width="0.705556"/>
		<line x1="520.556" y1="301.3" x2="520.556" y2="301.3" stroke="rgb(255,0,0)" stroke-width="0.705556"/>
		<line x1="520.556" y1="301.3" x2="493.645" y2="401.733" stroke="rgb(255,0,0)" stroke-width="0.705556"/>
		<line x1="493.645" y1="401.733" x2="321.856" y2="401.733" stroke="rgb(255,0,0)" stroke-width="0.705556"/>
		<line x1="321.856" y1="401.733" x2="321.856" y2="302.6" stroke="rgb(255,0,0)" stroke-width="0.705556"/>
		<line x1="520.556" y1="301.3" x2="321.206" y2="301.3" stroke="rgb(255,255,0)" stroke-width="0.705556"/>
		<line x1="321.206" y1="301.3" x2="321.856" y2="302.6" stroke="rgb(255,0,0)" stroke-width="0.705556"/>
		<line x1="321.206" y1="301.3" x2="321.856" y2="302.6" stroke="rgb(255,0,0)" stroke-width="0.705556"/>
		<line x1="321.856" y1="302.6" x2="321.856" y2="501.3" stroke="rgb(255,0,0)" stroke-width="0.705556"/>
		<line x1="19.2564" y1="501.3" x2="19.2564" y2="302.6" stroke="rgb(255,0,0)" stroke-width="0.705556"/>
		<line x1="19.2564" y1="302.6" x2="19.9064" y2="301.3" stroke="rgb(255,0,0)" stroke-width="0.705556"/>
		<line x1="321.206" y1="301.3" x2="19.9064" y2="301.3" stroke="rgb(255,255,0)" stroke-width="0.705556"/>
		<line x1="823.806" y1="301.3" x2="825.756" y2="301.3" stroke="rgb(255,0,0)" stroke-width="0.705556"/>
		<line x1="825.756" y1="301.3" x2="825.756" y2="301.3" stroke="rgb(255,0,0)" stroke-width="0.705556"/>
		<line x1="825.756" y1="301.3" x2="852.667" y2="401.733" stroke="rgb(255,0,0)" stroke-width="0.705556"/>
		<line x1="852.667" y1="401.733" x2="1023.81" y2="401.733" stroke="rgb(255,0,0)" stroke-width="0.705556"/>
		<line x1="1023.81" y1="401.733" x2="1023.81" y2="302.8" stroke="rgb(255,0,0)" stroke-width="0.705556"/>
		<line x1="825.756" y1="301.3" x2="1023.81" y2="301.3" stroke="rgb(255,255,0)" stroke-width="0.705556"/>
		<line x1="1023.81" y1="301.3" x2="1023.81" y2="302.8" stroke="rgb(255,0,0)" stroke-width="0.705556"/>
		<line x1="317.906" y1="147.7" x2="317.906" y2="19.155" stroke="rgb(255,0,0)" stroke-width="0.705556"/>
		<line x1="317.906" y1="19.155" x2="254.106" y2="19.155" stroke="rgb(255,0,0)" stroke-width="0.705556"/>
		<line x1="254.106" y1="49.35" x2="87.0064" y2="49.35" stroke="rgb(255,0,0)" stroke-width="0.705556"/>
		<line x1="87.0064" y1="19.155" x2="23.2064" y2="19.155" stroke="rgb(255,0,0)" stroke-width="0.705556"/>
		<line x1="23.2064" y1="150" x2="23.2064" y2="19.155" stroke="rgb(255,0,0)" stroke-width="0.705556"/>
		<line x1="254.106" y1="49.35" x2="254.106" y2="19.155" stroke="rgb(255,0,0)" stroke-width="0.705556"/>
		<line x1="87.0064" y1="49.35" x2="87.0064" y2="19.155" stroke="rgb(255,0,0)" stroke-width="0.705556"/>
		<path d="M321.206,151 a3.3 3.3 0 0 1 -3.3,-3.3" fill="none" stroke="rgb(255,0,0)" stroke-width="0.705556"/>
		<line x1="318.84" y1="150" x2="23.2064" y2="150" stroke="rgb(255,255,0)" stroke-width="0.705556"/>
		<line x1="756.706" y1="49.35" x2="756.706" y2="19.155" stroke="rgb(255,0,0)" stroke-width="0.705556"/>
		<line x1="756.706" y1="19.155" x2="589.606" y2="19.155" stroke="rgb(255,0,0)" stroke-width="0.705556"/>
		<line x1="589.606" y1="19.155" x2="589.606" y2="49.35" stroke="rgb(255,0,0)" stroke-width="0.705556"/>
		<path d="M823.806,151 a3.3 3.3 0 0 1 -2.7765,-1.51644" fill="none" stroke="rgb(255,0,0)" stroke-width="0.705556"/>
		<line x1="821.03" y1="149.484" x2="756.706" y2="49.35" stroke="rgb(255,0,0)" stroke-width="0.705556"/>
		<path d="M522.506,151 a3.3 3.3 0 0 0 2.7765,-1.51644" fill="none" stroke="rgb(255,0,0)" stroke-width="0.705556"/>
		<line x1="525.283" y1="149.484" x2="589.606" y2="49.35" stroke="rgb(255,0,0)" stroke-width="0.705556"/>
		<line x1="821.44" y1="150" x2="524.873" y2="150" stroke="rgb(255,255,0)" stroke-width="0.705556"/>
		<line x1="423.156" y1="19.155" x2="519.206" y2="19.155" stroke="rgb(255,0,0)" stroke-width="0.705556"/>
		<line x1="519.206" y1="19.155" x2="519.206" y2="147.7" stroke="rgb(255,0,0)" stroke-width="0.705556"/>
		<line x1="423.156" y1="82.9" x2="423.156" y2="19.155" stroke="rgb(255,0,0)" stroke-width="0.705556"/>
		<path d="M522.506,151 a3.3 3.3 0 0 1 -3.3,-3.3" fill="none" stroke="rgb(255,0,0)" stroke-width="0.705556"/>
		<path d="M321.206,151 a3.3 3.3 0 0 0 1.84561,-0.564358" fill="none" stroke="rgb(255,0,0)" stroke-width="0.705556"/>
		<line x1="423.156" y1="82.9" x2="323.052" y2="150.436" stroke="rgb(255,0,0)" stroke-width="0.705556"/>
		<line x1="520.14" y1="150" x2="323.698" y2="150" stroke="rgb(255,255,0)" stroke-width="0.705556"/>
		<line x1="921.856" y1="19.155" x2="827.106" y2="19.155" stroke="rgb(255,0,0)" stroke-width="0.705556"/>
		<line x1="827.106" y1="19.155" x2="827.106" y2="147.7" stroke="rgb(255,0,0)" stroke-width="0.705556"/>
		<line x1="921.856" y1="82.9" x2="921.856" y2="19.155" stroke="rgb(255,0,0)" stroke-width="0.705556"/>
		<path d="M823.806,151 a3.3 3.3 0 0 0 3.3,-3.3" fill="none" stroke="rgb(255,0,0)" stroke-width="0.705556"/>
		<line x1="921.856" y1="82.9" x2="1023.81" y2="150" stroke="rgb(255,0,0)" stroke-width="0.705556"/>
		<line x1="826.173" y1="150" x2="1023.81" y2="150" stroke="rgb(255,255,0)" stroke-width="0.705556"/>
		<line x1="1023.81" y1="150" x2="1023.81" y2="150" stroke="rgb(255,0,0)" stroke-width="0.705556"/>
		<line x1="23.2064" y1="150" x2="-5.0936" y2="157.583" stroke="rgb(255,0,0)" stroke-width="0.705556"/>
		<line x1="-5.0936" y1="157.583" x2="-5.0936" y2="294.601" stroke="rgb(255,0,0)" stroke-width="0.705556"/>
		<line x1="-5.0936" y1="294.601" x2="19.9064" y2="301.3" stroke="rgb(255,0,0)" stroke-width="0.705556"/>
		<line x1="19.9064" y1="150.884" x2="19.9064" y2="301.3" stroke="rgb(255,255,0)" stroke-width="0.705556"/>
	</g>
</svg>