<svg version = "1.1" xmlns = "http://www.w3.org/2000/svg" xmlns:xlink="http://www.w3.org/1999/xlink" width="1629.61" height="548.501" viewbox = "0 0 1629.61 548.501">
	<g transform="translate(5.44638,502.303) scale(1,-1) ">
		<line x1="521.206" y1="151" x2="521.206" y2="349.3" stroke="rgb(255,255,0)" stroke-width="0.705556"/>
		<line x1="822.506" y1="349.3" x2="822.506" y2="151" stroke="rgb(255,255,0)" stroke-width="0.705556"/>
		<line x1="1323.81" y1="151" x2="1323.81" y2="349.3" stroke="rgb(255,255,0)" stroke-width="0.705556"/>
		<line x1="1623.81" y1="349.3" x2="1623.81" y2="150" stroke="rgb(255,0,0)" stroke-width="0.705556"/>
		<line x1="1323.81" y1="349.3" x2="1322.31" y2="349.3" stroke="rgb(255,0,0)" stroke-width="0.705556"/>
		<line x1="1322.31" y1="349.3" x2="1322.31" y2="501.95" stroke="rgb(255,0,0)" stroke-width="0.705556"/>
		<line x1="1322.31" y1="501.95" x2="824.006" y2="501.95" stroke="rgb(255,0,0)" stroke-width="0.705556"/>
		<line x1="824.006" y1="501.95" x2="824.006" y2="349.3" stroke="rgb(255,0,0)" stroke-width="0.705556"/>
		<line x1="824.006" y1="349.3" x2="822.506" y2="349.3" stroke="rgb(255,0,0)" stroke-width="0.705556"/>
		<line x1="1322.31" y1="351.3" x2="824.006" y2="351.3" stroke="rgb(255,255,0)" stroke-width="0.705556"/>
		<line x1="822.506" y1="349.3" x2="821.006" y2="349.3" stroke="rgb(255,0,0)" stroke-width="0.705556"/>
		<line x1="821.006" y1="349.3" x2="821.006" y2="501.95" stroke="rgb(255,0,0)" stroke-width="0.705556"/>
		<line x1="821.006" y1="501.95" x2="522.706" y2="501.95" stroke="rgb(255,0,0)" stroke-width="0.705556"/>
		<line x1="522.706" y1="501.95" x2="522.706" y2="349.3" stroke="rgb(255,0,0)" stroke-width="0.705556"/>
		<line x1="522.706" y1="349.3" x2="521.206" y2="349.3" stroke="rgb(255,0,0)" stroke-width="0.705556"/>
		<line x1="821.006" y1="351.3" x2="522.706" y2="351.3" stroke="rgb(255,255,0)" stroke-width="0.705556"/>
		<line x1="521.206" y1="349.3" x2="519.706" y2="349.3" stroke="rgb(255,0,0)" stroke-width="0.705556"/>
		<line x1="519.706" y1="349.3" x2="519.706" y2="501.95" stroke="rgb(255,0,0)" stroke-width="0.705556"/>
		<line x1="519.706" y1="501.95" x2="21.4064" y2="501.95" stroke="rgb(255,0,0)" stroke-width="0.705556"/>
		<line x1="21.4064" y1="501.95" x2="21.4064" y2="349.3" stroke="rgb(255,0,0)" stroke-width="0.705556"/>
		<line x1="519.706" y1="351.3" x2="21.4064" y2="351.3" stroke="rgb(255,255,0)" stroke-width="0.705556"/>
		<line x1="1623.81" y1="349.3" x2="1623.81" y2="349.3" stroke="rgb(255,0,0)" stroke-width="0.705556"/>
		<line x1="1623.81" y1="349.3" x2="1623.81" y2="501.95" stroke="rgb(255,0,0)" stroke-width="0.705556"/>
		<line x1="1623.81" y1="501.95" x2="1325.31" y2="501.95" stroke="rgb(255,0,0)" stroke-width="0.705556"/>
		<line x1="1325.31" y1="501.95" x2="1325.31" y2="349.3" stroke="rgb(255,0,0)" stroke-width="0.705556"/>
		<line x1="1325.31" y1="349.3" x2="1323.81" y2="349.3" stroke="rgb(255,0,0)" stroke-width="0.705556"/>
		<line x1="1623.81" y1="351.3" x2="1325.31" y2="351.3" stroke="rgb(255,255,0)" stroke-width="0.705556"/>
		<line x1="1623.81" y1="349.3" x2="1623.81" y2="349.3" stroke="rgb(255,0,0)" stroke-width="0.705556"/>
		<line x1="1073.16" y1="212.615" x2="1073.16" y2="185" stroke="rgb(64,128,128)" stroke-width="0"/>
		<line x1="1081.64" y1="194.205" x2="1081.64" y2="185" stroke="rgb(64,128,128)" stroke-width="0"/>
		<line x1="1077.4" y1="203.41" x2="1077.4" y2="185" stroke="rgb(64,128,128)" stroke-width="0"/>
		<line x1="1068.91" y1="221.82" x2="1068.91" y2="185" stroke="rgb(64,128,128)" stroke-width="0"/>
		<line x1="1064.67" y1="231.025" x2="1064.67" y2="185" stroke="rgb(64,128,128)" stroke-width="0"/>
		<line x1="1060.43" y1="240.23" x2="1060.43" y2="185" stroke="rgb(64,128,128)" stroke-width="0"/>
		<line x1="1085.88" y1="185" x2="1060.43" y2="185" stroke="rgb(64,128,128)" stroke-width="0"/>
		<line x1="1060.43" y1="240.23" x2="1088.7" y2="211.912" stroke="rgb(64,128,128)" stroke-width="0"/>
		<path d="M1088.7,211.912 a26.6045 26.6045 0 0 1 -2.82257,-26.9118" fill="none" stroke="rgb(64,128,128)" stroke-width="0"/>
		<line x1="1085.88" y1="185" x2="1060.43" y2="240.23" stroke="rgb(64,128,128)" stroke-width="0"/>
		<line x1="517.906" y1="147.7" x2="517.906" y2="-45.845" stroke="rgb(255,0,0)" stroke-width="0.705556"/>
		<line x1="517.906" y1="-45.845" x2="420.773" y2="-45.845" stroke="rgb(255,0,0)" stroke-width="0.705556"/>
		<line x1="420.773" y1="-0.65" x2="120.34" y2="-0.65" stroke="rgb(255,0,0)" stroke-width="0.705556"/>
		<line x1="120.34" y1="-45.845" x2="23.2064" y2="-45.845" stroke="rgb(255,0,0)" stroke-width="0.705556"/>
		<line x1="23.2064" y1="150" x2="23.2064" y2="-45.845" stroke="rgb(255,0,0)" stroke-width="0.705556"/>
		<line x1="420.773" y1="-0.65" x2="420.773" y2="-45.845" stroke="rgb(255,0,0)" stroke-width="0.705556"/>
		<line x1="120.34" y1="-0.65" x2="120.34" y2="-45.845" stroke="rgb(255,0,0)" stroke-width="0.705556"/>
		<path d="M521.206,151 a3.3 3.3 0 0 1 -3.3,-3.3" fill="none" stroke="rgb(255,0,0)" stroke-width="0.705556"/>
		<line x1="518.84" y1="150" x2="23.2064" y2="150" stroke="rgb(255,255,0)" stroke-width="0.705556"/>
		<line x1="1223.37" y1="-0.65" x2="1223.37" y2="-45.845" stroke="rgb(255,0,0)" stroke-width="0.705556"/>
		<line x1="1223.37" y1="-45.845" x2="922.94" y2="-45.845" stroke="rgb(255,0,0)" stroke-width="0.705556"/>
		<line x1="922.94" y1="-45.845" x2="922.94" y2="-0.65" stroke="rgb(255,0,0)" stroke-width="0.705556"/>
		<path d="M1323.81,151 a3.3 3.3 0 0 1 -2.76627,-1.50063" fill="none" stroke="rgb(255,0,0)" stroke-width="0.705556"/>
		<line x1="1321.04" y1="149.499" x2="1223.37" y2="-0.65" stroke="rgb(255,0,0)" stroke-width="0.705556"/>
		<path d="M822.506,151 a3.3 3.3 0 0 0 2.76627,-1.50063" fill="none" stroke="rgb(255,0,0)" stroke-width="0.705556"/>
		<line x1="825.273" y1="149.499" x2="922.94" y2="-0.65" stroke="rgb(255,0,0)" stroke-width="0.705556"/>
		<line x1="1321.44" y1="150" x2="824.873" y2="150" stroke="rgb(255,255,0)" stroke-width="0.705556"/>
		<line x1="673.156" y1="-45.845" x2="819.206" y2="-45.845" stroke="rgb(255,0,0)" stroke-width="0.705556"/>
		<line x1="819.206" y1="-45.845" x2="819.206" y2="147.7" stroke="rgb(255,0,0)" stroke-width="0.705556"/>
		<line x1="673.156" y1="49.5667" x2="673.156" y2="-45.845" stroke="rgb(255,0,0)" stroke-width="0.705556"/>
		<path d="M822.506,151 a3.3 3.3 0 0 1 -3.3,-3.3" fill="none" stroke="rgb(255,0,0)" stroke-width="0.705556"/>
		<path d="M521.206,151 a3.3 3.3 0 0 0 1.8406,-0.560985" fill="none" stroke="rgb(255,0,0)" stroke-width="0.705556"/>
		<line x1="673.156" y1="49.5667" x2="523.047" y2="150.439" stroke="rgb(255,0,0)" stroke-width="0.705556"/>
		<line x1="820.14" y1="150" x2="523.7" y2="150" stroke="rgb(255,255,0)" stroke-width="0.705556"/>
		<line x1="1471.86" y1="-45.845" x2="1327.11" y2="-45.845" stroke="rgb(255,0,0)" stroke-width="0.705556"/>
		<line x1="1327.11" y1="-45.845" x2="1327.11" y2="147.7" stroke="rgb(255,0,0)" stroke-width="0.705556"/>
		<line x1="1471.86" y1="49.5667" x2="1471.86" y2="-45.845" stroke="rgb(255,0,0)" stroke-width="0.705556"/>
		<path d="M1323.81,151 a3.3 3.3 0 0 0 3.3,-3.3" fill="none" stroke="rgb(255,0,0)" stroke-width="0.705556"/>
		<line x1="1471.86" y1="49.5667" x2="1623.81" y2="150" stroke="rgb(255,0,0)" stroke-width="0.705556"/>
		<line x1="1326.17" y1="150" x2="1623.81" y2="150" stroke="rgb(255,255,0)" stroke-width="0.705556"/>
		<line x1="1623.81" y1="150" x2="1623.81" y2="150" stroke="rgb(255,0,0)" stroke-width="0.705556"/>
		<line x1="23.2064" y1="150" x2="-5.0936" y2="157.583" stroke="rgb(255,0,0)" stroke-width="0.705556"/>
		<line x1="-5.0936" y1="157.583" x2="-5.0936" y2="342.199" stroke="rgb(255,0,0)" stroke-width="0.705556"/>
		<line x1="-5.0936" y1="342.199" x2="21.4064" y2="349.3" stroke="rgb(255,0,0)" stroke-width="0.705556"/>
		<line x1="19.9064" y1="150.884" x2="19.9064" y2="348.898" stroke="rgb(255,255,0)" stroke-width="0.705556"/>
	</g>
</svg>