<svg version = "1.1" xmlns = "http://www.w3.org/2000/svg" xmlns:xlink="http://www.w3.org/1999/xlink" width="1029.61" height="452.851" viewbox = "0 0 1029.61 452.851">
	<g transform="translate(-101.99,521.781) scale(1,-1) ">
		<line x1="428.643" y1="201.129" x2="428.643" y2="351.429" stroke="rgb(255,255,0)" stroke-width="0.705556"/>
		<line x1="629.943" y1="351.429" x2="629.943" y2="201.129" stroke="rgb(255,255,0)" stroke-width="0.705556"/>
		<line x1="931.243" y1="201.129" x2="931.243" y2="351.429" stroke="rgb(255,255,0)" stroke-width="0.705556"/>
		<line x1="1131.24" y1="351.429" x2="1131.24" y2="200.129" stroke="rgb(255,0,0)" stroke-width="0.705556"/>
		<line x1="428.643" y1="351.429" x2="518.325" y2="429.806" stroke="rgb(255,0,0)" stroke-width="0.705556"/>
		<line x1="540.26" y1="429.806" x2="629.943" y2="351.429" stroke="rgb(255,0,0)" stroke-width="0.705556"/>
		<line x1="527.668" y1="351.429" x2="527.668" y2="408.924" stroke="rgb(255,0,0)" stroke-width="0.705556"/>
		<line x1="527.668" y1="408.924" x2="530.918" y2="408.924" stroke="rgb(255,0,0)" stroke-width="0.705556"/>
		<line x1="530.918" y1="408.924" x2="530.918" y2="351.429" stroke="rgb(255,0,0)" stroke-width="0.705556"/>
		<line x1="629.943" y1="351.429" x2="530.918" y2="351.429" stroke="rgb(255,255,0)" stroke-width="0.705556"/>
		<line x1="530.918" y1="351.429" x2="527.668" y2="351.429" stroke="rgb(255,0,0)" stroke-width="0.705556"/>
		<line x1="527.668" y1="351.429" x2="428.643" y2="351.429" stroke="rgb(255,255,0)" stroke-width="0.705556"/>
		<path d="M518.325,429.806 a16.6667 16.6667 0 0 0 21.9352,0" fill="none" stroke="rgb(255,0,0)" stroke-width="0.705556"/>
		<line x1="931.243" y1="351.429" x2="1020.23" y2="429.767" stroke="rgb(255,0,0)" stroke-width="0.705556"/>
		<line x1="1042.26" y1="429.767" x2="1131.24" y2="351.429" stroke="rgb(255,0,0)" stroke-width="0.705556"/>
		<line x1="1029.62" y1="351.429" x2="1029.62" y2="408.924" stroke="rgb(255,0,0)" stroke-width="0.705556"/>
		<line x1="1029.62" y1="408.924" x2="1032.87" y2="408.924" stroke="rgb(255,0,0)" stroke-width="0.705556"/>
		<line x1="1032.87" y1="408.924" x2="1032.87" y2="351.429" stroke="rgb(255,0,0)" stroke-width="0.705556"/>
		<line x1="1131.24" y1="351.429" x2="1032.87" y2="351.429" stroke="rgb(255,255,0)" stroke-width="0.705556"/>
		<line x1="1032.87" y1="351.429" x2="1029.62" y2="351.429" stroke="rgb(255,0,0)" stroke-width="0.705556"/>
		<line x1="1029.62" y1="351.429" x2="931.243" y2="351.429" stroke="rgb(255,255,0)" stroke-width="0.705556"/>
		<path d="M1020.23,429.767 a16.6667 16.6667 0 0 0 22.0256,0" fill="none" stroke="rgb(255,0,0)" stroke-width="0.705556"/>
		<line x1="629.943" y1="351.429" x2="631.243" y2="351.429" stroke="rgb(255,0,0)" stroke-width="0.705556"/>
		<line x1="631.243" y1="351.429" x2="631.243" y2="491.429" stroke="rgb(255,0,0)" stroke-width="0.705556"/>
		<line x1="931.243" y1="351.429" x2="929.943" y2="351.429" stroke="rgb(255,0,0)" stroke-width="0.705556"/>
		<line x1="929.943" y1="351.429" x2="929.943" y2="491.429" stroke="rgb(255,0,0)" stroke-width="0.705556"/>
		<line x1="671.243" y1="491.429" x2="681.243" y2="491.429" stroke="rgb(255,0,0)" stroke-width="0.705556"/>
		<path d="M631.243,491.429 a20 20 0 0 0 40,0" fill="none" stroke="rgb(255,0,0)" stroke-width="0.705556"/>
		<line x1="879.943" y1="491.429" x2="889.943" y2="491.429" stroke="rgb(255,0,0)" stroke-width="0.705556"/>
		<path d="M929.943,491.429 a20 20 0 0 1 -40,0" fill="none" stroke="rgb(255,0,0)" stroke-width="0.705556"/>
		<line x1="681.243" y1="491.429" x2="731.243" y2="521.429" stroke="rgb(255,0,0)" stroke-width="0.705556"/>
		<line x1="879.943" y1="491.429" x2="829.943" y2="521.429" stroke="rgb(255,0,0)" stroke-width="0.705556"/>
		<line x1="731.243" y1="521.429" x2="829.943" y2="521.429" stroke="rgb(255,0,0)" stroke-width="0.705556"/>
		<line x1="631.243" y1="451.429" x2="730.593" y2="451.429" stroke="rgb(255,255,0)" stroke-width="0.705556"/>
		<line x1="830.593" y1="451.429" x2="929.943" y2="451.429" stroke="rgb(255,255,0)" stroke-width="0.705556"/>
		<line x1="631.243" y1="351.429" x2="929.943" y2="351.429" stroke="rgb(255,255,0)" stroke-width="0.705556"/>
		<line x1="730.593" y1="451.429" x2="830.593" y2="451.429" stroke="rgb(255,0,0)" stroke-width="0.705556"/>
		<line x1="762.593" y1="483.429" x2="798.593" y2="483.429" stroke="rgb(255,0,0)" stroke-width="0.705556"/>
		<line x1="730.593" y1="451.429" x2="730.593" y2="451.429" stroke="rgb(255,0,0)" stroke-width="0.705556"/>
		<line x1="830.593" y1="451.429" x2="830.593" y2="451.429" stroke="rgb(255,0,0)" stroke-width="0.705556"/>
		<path d="M730.593,451.429 a32 32 0 0 0 32,32" fill="none" stroke="rgb(255,0,0)" stroke-width="0.705556"/>
		<path d="M830.593,451.429 a32 32 0 0 1 -32,32" fill="none" stroke="rgb(255,0,0)" stroke-width="0.705556"/>
		<line x1="127.343" y1="351.429" x2="128.643" y2="351.429" stroke="rgb(255,0,0)" stroke-width="0.705556"/>
		<line x1="128.643" y1="351.429" x2="128.643" y2="491.429" stroke="rgb(255,0,0)" stroke-width="0.705556"/>
		<line x1="428.643" y1="351.429" x2="427.343" y2="351.429" stroke="rgb(255,0,0)" stroke-width="0.705556"/>
		<line x1="427.343" y1="351.429" x2="427.343" y2="491.429" stroke="rgb(255,0,0)" stroke-width="0.705556"/>
		<line x1="168.643" y1="491.429" x2="178.643" y2="491.429" stroke="rgb(255,0,0)" stroke-width="0.705556"/>
		<path d="M128.643,491.429 a20 20 0 0 0 40,0" fill="none" stroke="rgb(255,0,0)" stroke-width="0.705556"/>
		<line x1="377.343" y1="491.429" x2="387.343" y2="491.429" stroke="rgb(255,0,0)" stroke-width="0.705556"/>
		<path d="M427.343,491.429 a20 20 0 0 1 -40,0" fill="none" stroke="rgb(255,0,0)" stroke-width="0.705556"/>
		<line x1="178.643" y1="491.429" x2="228.643" y2="521.429" stroke="rgb(255,0,0)" stroke-width="0.705556"/>
		<line x1="377.343" y1="491.429" x2="327.343" y2="521.429" stroke="rgb(255,0,0)" stroke-width="0.705556"/>
		<line x1="228.643" y1="521.429" x2="327.343" y2="521.429" stroke="rgb(255,0,0)" stroke-width="0.705556"/>
		<line x1="128.643" y1="451.429" x2="227.993" y2="451.429" stroke="rgb(255,255,0)" stroke-width="0.705556"/>
		<line x1="327.993" y1="451.429" x2="427.343" y2="451.429" stroke="rgb(255,255,0)" stroke-width="0.705556"/>
		<line x1="128.643" y1="351.429" x2="427.343" y2="351.429" stroke="rgb(255,255,0)" stroke-width="0.705556"/>
		<line x1="327.993" y1="451.429" x2="227.993" y2="451.429" stroke="rgb(255,0,0)" stroke-width="0.705556"/>
		<line x1="295.993" y1="483.429" x2="259.993" y2="483.429" stroke="rgb(255,0,0)" stroke-width="0.705556"/>
		<line x1="327.993" y1="451.429" x2="327.993" y2="451.429" stroke="rgb(255,0,0)" stroke-width="0.705556"/>
		<line x1="227.993" y1="451.429" x2="227.993" y2="451.429" stroke="rgb(255,0,0)" stroke-width="0.705556"/>
		<path d="M327.993,451.429 a32 32 0 0 1 -32,32" fill="none" stroke="rgb(255,0,0)" stroke-width="0.705556"/>
		<path d="M227.993,451.429 a32 32 0 0 0 32,32" fill="none" stroke="rgb(255,0,0)" stroke-width="0.705556"/>
		<line x1="780.593" y1="252.743" x2="780.593" y2="225.129" stroke="rgb(64,128,128)" stroke-width="0"/>
		<line x1="789.077" y1="234.333" x2="789.077" y2="225.129" stroke="rgb(64,128,128)" stroke-width="0"/>
		<line x1="784.835" y1="243.538" x2="784.835" y2="225.129" stroke="rgb(64,128,128)" stroke-width="0"/>
		<line x1="776.351" y1="261.948" x2="776.351" y2="225.129" stroke="rgb(64,128,128)" stroke-width="0"/>
		<line x1="772.109" y1="271.153" x2="772.109" y2="225.129" stroke="rgb(64,128,128)" stroke-width="0"/>
		<line x1="767.867" y1="280.358" x2="767.867" y2="225.129" stroke="rgb(64,128,128)" stroke-width="0"/>
		<line x1="793.319" y1="225.129" x2="767.867" y2="225.129" stroke="rgb(64,128,128)" stroke-width="0"/>
		<line x1="767.867" y1="280.358" x2="796.141" y2="252.04" stroke="rgb(64,128,128)" stroke-width="0"/>
		<path d="M796.141,252.04 a26.6045 26.6045 0 0 1 -2.82257,-26.9118" fill="none" stroke="rgb(64,128,128)" stroke-width="0"/>
		<line x1="793.319" y1="225.129" x2="767.867" y2="280.358" stroke="rgb(64,128,128)" stroke-width="0"/>
		<line x1="425.343" y1="197.829" x2="425.343" y2="69.2835" stroke="rgb(255,0,0)" stroke-width="0.705556"/>
		<line x1="425.343" y1="69.2835" x2="361.543" y2="69.2835" stroke="rgb(255,0,0)" stroke-width="0.705556"/>
		<line x1="361.543" y1="99.4785" x2="194.443" y2="99.4785" stroke="rgb(255,0,0)" stroke-width="0.705556"/>
		<line x1="194.443" y1="69.2835" x2="130.643" y2="69.2835" stroke="rgb(255,0,0)" stroke-width="0.705556"/>
		<line x1="130.643" y1="200.129" x2="130.643" y2="69.2835" stroke="rgb(255,0,0)" stroke-width="0.705556"/>
		<line x1="361.543" y1="99.4785" x2="361.543" y2="69.2835" stroke="rgb(255,0,0)" stroke-width="0.705556"/>
		<line x1="194.443" y1="99.4785" x2="194.443" y2="69.2835" stroke="rgb(255,0,0)" stroke-width="0.705556"/>
		<path d="M428.643,201.129 a3.3 3.3 0 0 1 -3.3,-3.3" fill="none" stroke="rgb(255,0,0)" stroke-width="0.705556"/>
		<line x1="426.276" y1="200.129" x2="130.643" y2="200.129" stroke="rgb(255,255,0)" stroke-width="0.705556"/>
		<line x1="864.143" y1="99.4785" x2="864.143" y2="69.2835" stroke="rgb(255,0,0)" stroke-width="0.705556"/>
		<line x1="864.143" y1="69.2835" x2="697.043" y2="69.2835" stroke="rgb(255,0,0)" stroke-width="0.705556"/>
		<line x1="697.043" y1="69.2835" x2="697.043" y2="99.4785" stroke="rgb(255,0,0)" stroke-width="0.705556"/>
		<path d="M931.243,201.129 a3.3 3.3 0 0 1 -2.7765,-1.51644" fill="none" stroke="rgb(255,0,0)" stroke-width="0.705556"/>
		<line x1="928.466" y1="199.612" x2="864.143" y2="99.4785" stroke="rgb(255,0,0)" stroke-width="0.705556"/>
		<path d="M629.943,201.129 a3.3 3.3 0 0 0 2.7765,-1.51644" fill="none" stroke="rgb(255,0,0)" stroke-width="0.705556"/>
		<line x1="632.719" y1="199.612" x2="697.043" y2="99.4785" stroke="rgb(255,0,0)" stroke-width="0.705556"/>
		<line x1="928.876" y1="200.129" x2="632.309" y2="200.129" stroke="rgb(255,255,0)" stroke-width="0.705556"/>
		<line x1="530.593" y1="69.2835" x2="626.643" y2="69.2835" stroke="rgb(255,0,0)" stroke-width="0.705556"/>
		<line x1="626.643" y1="69.2835" x2="626.643" y2="197.829" stroke="rgb(255,0,0)" stroke-width="0.705556"/>
		<line x1="530.593" y1="133.029" x2="530.593" y2="69.2835" stroke="rgb(255,0,0)" stroke-width="0.705556"/>
		<path d="M629.943,201.129 a3.3 3.3 0 0 1 -3.3,-3.3" fill="none" stroke="rgb(255,0,0)" stroke-width="0.705556"/>
		<path d="M428.643,201.129 a3.3 3.3 0 0 0 1.84561,-0.564358" fill="none" stroke="rgb(255,0,0)" stroke-width="0.705556"/>
		<line x1="530.593" y1="133.029" x2="430.488" y2="200.564" stroke="rgb(255,0,0)" stroke-width="0.705556"/>
		<line x1="627.576" y1="200.129" x2="431.134" y2="200.129" stroke="rgb(255,255,0)" stroke-width="0.705556"/>
		<line x1="1029.29" y1="69.2835" x2="934.543" y2="69.2835" stroke="rgb(255,0,0)" stroke-width="0.705556"/>
		<line x1="934.543" y1="69.2835" x2="934.543" y2="197.829" stroke="rgb(255,0,0)" stroke-width="0.705556"/>
		<line x1="1029.29" y1="133.029" x2="1029.29" y2="69.2835" stroke="rgb(255,0,0)" stroke-width="0.705556"/>
		<path d="M931.243,201.129 a3.3 3.3 0 0 0 3.3,-3.3" fill="none" stroke="rgb(255,0,0)" stroke-width="0.705556"/>
		<line x1="1029.29" y1="133.029" x2="1131.24" y2="200.129" stroke="rgb(255,0,0)" stroke-width="0.705556"/>
		<line x1="933.609" y1="200.129" x2="1131.24" y2="200.129" stroke="rgb(255,255,0)" stroke-width="0.705556"/>
		<line x1="1131.24" y1="200.129" x2="1131.24" y2="200.129" stroke="rgb(255,0,0)" stroke-width="0.705556"/>
		<line x1="130.643" y1="200.129" x2="102.343" y2="207.711" stroke="rgb(255,0,0)" stroke-width="0.705556"/>
		<line x1="102.343" y1="207.711" x2="102.343" y2="344.73" stroke="rgb(255,0,0)" stroke-width="0.705556"/>
		<line x1="102.343" y1="344.73" x2="127.343" y2="351.429" stroke="rgb(255,0,0)" stroke-width="0.705556"/>
		<line x1="127.343" y1="201.013" x2="127.343" y2="351.429" stroke="rgb(255,255,0)" stroke-width="0.705556"/>
	</g>
</svg>