<svg version = "1.1" xmlns = "http://www.w3.org/2000/svg" xmlns:xlink="http://www.w3.org/1999/xlink" width="989.606" height="601.356" viewbox = "0 0 989.606 601.356">
	<g transform="translate(-40.6497,624.522) scale(1,-1) ">
		<line x1="267.302" y1="226.169" x2="267.302" y2="425.469" stroke="rgb(255,255,0)" stroke-width="0.705556"/>
		<line x1="548.602" y1="425.469" x2="548.602" y2="226.169" stroke="rgb(255,255,0)" stroke-width="0.705556"/>
		<line x1="749.902" y1="226.169" x2="749.902" y2="425.469" stroke="rgb(255,255,0)" stroke-width="0.705556"/>
		<line x1="1029.9" y1="425.469" x2="1029.9" y2="226.169" stroke="rgb(255,0,0)" stroke-width="0.705556"/>
		<line x1="548.602" y1="226.169" x2="547.102" y2="226.169" stroke="rgb(255,0,0)" stroke-width="0.705556"/>
		<line x1="547.102" y1="226.169" x2="547.102" y2="23.5192" stroke="rgb(255,0,0)" stroke-width="0.705556"/>
		<line x1="547.102" y1="23.5192" x2="268.802" y2="23.5192" stroke="rgb(255,0,0)" stroke-width="0.705556"/>
		<line x1="268.802" y1="23.5192" x2="268.802" y2="226.169" stroke="rgb(255,0,0)" stroke-width="0.705556"/>
		<line x1="268.802" y1="226.169" x2="267.302" y2="226.169" stroke="rgb(255,0,0)" stroke-width="0.705556"/>
		<line x1="547.102" y1="224.169" x2="268.802" y2="224.169" stroke="rgb(255,255,0)" stroke-width="0.705556"/>
		<line x1="749.902" y1="226.169" x2="748.402" y2="226.169" stroke="rgb(255,0,0)" stroke-width="0.705556"/>
		<line x1="748.402" y1="226.169" x2="748.402" y2="23.5192" stroke="rgb(255,0,0)" stroke-width="0.705556"/>
		<line x1="748.402" y1="23.5192" x2="550.102" y2="23.5192" stroke="rgb(255,0,0)" stroke-width="0.705556"/>
		<line x1="550.102" y1="23.5192" x2="550.102" y2="226.169" stroke="rgb(255,0,0)" stroke-width="0.705556"/>
		<line x1="550.102" y1="226.169" x2="548.602" y2="226.169" stroke="rgb(255,0,0)" stroke-width="0.705556"/>
		<line x1="748.402" y1="224.169" x2="550.102" y2="224.169" stroke="rgb(255,255,0)" stroke-width="0.705556"/>
		<line x1="749.902" y1="226.169" x2="751.402" y2="226.169" stroke="rgb(255,0,0)" stroke-width="0.705556"/>
		<line x1="751.402" y1="226.169" x2="751.402" y2="23.5192" stroke="rgb(255,0,0)" stroke-width="0.705556"/>
		<line x1="751.402" y1="23.5192" x2="1029.9" y2="23.5192" stroke="rgb(255,0,0)" stroke-width="0.705556"/>
		<line x1="1029.9" y1="23.5192" x2="1029.9" y2="226.169" stroke="rgb(255,0,0)" stroke-width="0.705556"/>
		<line x1="1029.9" y1="226.169" x2="1029.9" y2="226.169" stroke="rgb(255,0,0)" stroke-width="0.705556"/>
		<line x1="751.402" y1="224.169" x2="1029.9" y2="224.169" stroke="rgb(255,255,0)" stroke-width="0.705556"/>
		<line x1="67.5024" y1="226.169" x2="67.5024" y2="23.5192" stroke="rgb(255,0,0)" stroke-width="0.705556"/>
		<line x1="67.5024" y1="23.5192" x2="265.802" y2="23.5192" stroke="rgb(255,0,0)" stroke-width="0.705556"/>
		<line x1="265.802" y1="23.5192" x2="265.802" y2="226.169" stroke="rgb(255,0,0)" stroke-width="0.705556"/>
		<line x1="265.802" y1="226.169" x2="267.302" y2="226.169" stroke="rgb(255,0,0)" stroke-width="0.705556"/>
		<line x1="67.5024" y1="224.169" x2="265.802" y2="224.169" stroke="rgb(255,255,0)" stroke-width="0.705556"/>
		<line x1="749.902" y1="425.469" x2="748.402" y2="425.469" stroke="rgb(255,0,0)" stroke-width="0.705556"/>
		<line x1="748.402" y1="425.469" x2="748.402" y2="565.469" stroke="rgb(255,0,0)" stroke-width="0.705556"/>
		<line x1="748.402" y1="565.469" x2="550.102" y2="565.469" stroke="rgb(255,0,0)" stroke-width="0.705556"/>
		<line x1="550.102" y1="565.469" x2="550.102" y2="425.469" stroke="rgb(255,0,0)" stroke-width="0.705556"/>
		<line x1="550.102" y1="425.469" x2="548.602" y2="425.469" stroke="rgb(255,0,0)" stroke-width="0.705556"/>
		<line x1="748.402" y1="425.469" x2="550.102" y2="425.469" stroke="rgb(255,255,0)" stroke-width="0.705556"/>
		<line x1="267.302" y1="425.469" x2="265.802" y2="425.469" stroke="rgb(255,0,0)" stroke-width="0.705556"/>
		<line x1="265.802" y1="425.469" x2="265.802" y2="565.469" stroke="rgb(255,0,0)" stroke-width="0.705556"/>
		<line x1="265.802" y1="565.469" x2="67.5024" y2="565.469" stroke="rgb(255,0,0)" stroke-width="0.705556"/>
		<line x1="67.5024" y1="565.469" x2="67.5024" y2="425.469" stroke="rgb(255,0,0)" stroke-width="0.705556"/>
		<line x1="265.802" y1="425.469" x2="67.5024" y2="425.469" stroke="rgb(255,255,0)" stroke-width="0.705556"/>
		<line x1="1029.9" y1="425.469" x2="1029.9" y2="425.469" stroke="rgb(255,0,0)" stroke-width="0.705556"/>
		<line x1="1029.9" y1="425.469" x2="1029.9" y2="624.169" stroke="rgb(255,0,0)" stroke-width="0.705556"/>
		<line x1="1029.9" y1="624.169" x2="751.402" y2="624.169" stroke="rgb(255,0,0)" stroke-width="0.705556"/>
		<line x1="751.402" y1="624.169" x2="751.402" y2="425.469" stroke="rgb(255,0,0)" stroke-width="0.705556"/>
		<line x1="751.402" y1="425.469" x2="749.902" y2="425.469" stroke="rgb(255,0,0)" stroke-width="0.705556"/>
		<line x1="1029.9" y1="425.469" x2="751.402" y2="425.469" stroke="rgb(255,255,0)" stroke-width="0.705556"/>
		<line x1="950.652" y1="501.819" x2="955.652" y2="501.819" stroke="rgb(255,0,0)" stroke-width="0.705556"/>
		<line x1="955.652" y1="501.819" x2="960.652" y2="541.819" stroke="rgb(255,0,0)" stroke-width="0.705556"/>
		<line x1="960.652" y1="541.819" x2="955.652" y2="547.819" stroke="rgb(255,0,0)" stroke-width="0.705556"/>
		<line x1="830.652" y1="501.819" x2="825.652" y2="501.819" stroke="rgb(255,0,0)" stroke-width="0.705556"/>
		<line x1="825.652" y1="501.819" x2="820.652" y2="541.819" stroke="rgb(255,0,0)" stroke-width="0.705556"/>
		<line x1="820.652" y1="541.819" x2="825.652" y2="547.819" stroke="rgb(255,0,0)" stroke-width="0.705556"/>
		<line x1="548.602" y1="425.469" x2="547.102" y2="425.469" stroke="rgb(255,0,0)" stroke-width="0.705556"/>
		<line x1="547.102" y1="425.469" x2="547.102" y2="450.469" stroke="rgb(255,0,0)" stroke-width="0.705556"/>
		<line x1="547.102" y1="450.469" x2="477.952" y2="507.119" stroke="rgb(255,0,0)" stroke-width="0.705556"/>
		<line x1="267.302" y1="425.469" x2="268.802" y2="425.469" stroke="rgb(255,0,0)" stroke-width="0.705556"/>
		<line x1="268.802" y1="425.469" x2="268.802" y2="450.469" stroke="rgb(255,0,0)" stroke-width="0.705556"/>
		<line x1="268.802" y1="450.469" x2="337.952" y2="507.119" stroke="rgb(255,0,0)" stroke-width="0.705556"/>
		<line x1="547.102" y1="425.469" x2="268.802" y2="425.469" stroke="rgb(255,255,0)" stroke-width="0.705556"/>
		<line x1="477.952" y1="507.119" x2="477.952" y2="510.119" stroke="rgb(255,0,0)" stroke-width="0.705556"/>
		<line x1="337.952" y1="507.119" x2="337.952" y2="510.119" stroke="rgb(255,0,0)" stroke-width="0.705556"/>
		<line x1="477.952" y1="549.119" x2="337.952" y2="549.119" stroke="rgb(255,0,0)" stroke-width="0.705556"/>
		<line x1="477.952" y1="510.119" x2="516.952" y2="510.119" stroke="rgb(255,0,0)" stroke-width="0.705556"/>
		<path d="M477.952,549.119 a39 39 0 0 0 39,-39" fill="none" stroke="rgb(255,0,0)" stroke-width="0.705556"/>
		<line x1="337.952" y1="510.119" x2="298.952" y2="510.119" stroke="rgb(255,0,0)" stroke-width="0.705556"/>
		<path d="M337.952,549.119 a39 39 0 0 1 -39,-39" fill="none" stroke="rgb(255,0,0)" stroke-width="0.705556"/>
		<line x1="67.5024" y1="226.169" x2="41.0024" y2="233.169" stroke="rgb(255,0,0)" stroke-width="0.705556"/>
		<line x1="41.0024" y1="233.169" x2="41.0024" y2="418.469" stroke="rgb(255,0,0)" stroke-width="0.705556"/>
		<line x1="41.0024" y1="418.469" x2="67.5024" y2="425.469" stroke="rgb(255,0,0)" stroke-width="0.705556"/>
		<line x1="66.0024" y1="226.565" x2="66.0024" y2="425.073" stroke="rgb(255,255,0)" stroke-width="0.705556"/>
		<line x1="1029.9" y1="226.169" x2="1029.9" y2="226.169" stroke="rgb(255,0,0)" stroke-width="0.705556"/>
		<line x1="1029.9" y1="425.469" x2="1029.9" y2="425.469" stroke="rgb(255,0,0)" stroke-width="0.705556"/>
		<line x1="889.902" y1="286.784" x2="889.902" y2="259.169" stroke="rgb(64,128,128)" stroke-width="0"/>
		<line x1="898.386" y1="268.374" x2="898.386" y2="259.169" stroke="rgb(64,128,128)" stroke-width="0"/>
		<line x1="894.144" y1="277.579" x2="894.144" y2="259.169" stroke="rgb(64,128,128)" stroke-width="0"/>
		<line x1="885.66" y1="295.989" x2="885.66" y2="259.169" stroke="rgb(64,128,128)" stroke-width="0"/>
		<line x1="881.418" y1="305.194" x2="881.418" y2="259.169" stroke="rgb(64,128,128)" stroke-width="0"/>
		<line x1="877.176" y1="314.399" x2="877.176" y2="259.169" stroke="rgb(64,128,128)" stroke-width="0"/>
		<line x1="902.628" y1="259.169" x2="877.176" y2="259.169" stroke="rgb(64,128,128)" stroke-width="0"/>
		<line x1="877.176" y1="314.399" x2="905.451" y2="286.081" stroke="rgb(64,128,128)" stroke-width="0"/>
		<path d="M905.451,286.081 a26.6045 26.6045 0 0 1 -2.82257,-26.9118" fill="none" stroke="rgb(64,128,128)" stroke-width="0"/>
		<line x1="902.628" y1="259.169" x2="877.176" y2="314.399" stroke="rgb(64,128,128)" stroke-width="0"/>
	</g>
</svg>