<svg version = "1.1" xmlns = "http://www.w3.org/2000/svg" xmlns:xlink="http://www.w3.org/1999/xlink" width="994.806" height="453.306" viewbox = "0 0 994.806 453.306">
	<g transform="translate(-93.0725,502.347) scale(1,-1) ">
		<line x1="402.325" y1="250.044" x2="402.325" y2="399.344" stroke="rgb(255,255,0)" stroke-width="0.705556"/>
		<line x1="603.625" y1="399.344" x2="603.625" y2="250.044" stroke="rgb(255,255,0)" stroke-width="0.705556"/>
		<line x1="887.525" y1="250.044" x2="887.525" y2="399.344" stroke="rgb(255,255,0)" stroke-width="0.705556"/>
		<line x1="1087.53" y1="399.344" x2="1087.53" y2="250.044" stroke="rgb(255,0,0)" stroke-width="0.705556"/>
		<line x1="887.525" y1="399.344" x2="886.025" y2="399.344" stroke="rgb(255,0,0)" stroke-width="0.705556"/>
		<line x1="886.025" y1="399.344" x2="886.025" y2="501.994" stroke="rgb(255,0,0)" stroke-width="0.705556"/>
		<line x1="886.025" y1="501.994" x2="605.125" y2="501.994" stroke="rgb(255,0,0)" stroke-width="0.705556"/>
		<line x1="605.125" y1="501.994" x2="605.125" y2="399.344" stroke="rgb(255,0,0)" stroke-width="0.705556"/>
		<line x1="605.125" y1="399.344" x2="603.625" y2="399.344" stroke="rgb(255,0,0)" stroke-width="0.705556"/>
		<line x1="886.025" y1="401.344" x2="605.125" y2="401.344" stroke="rgb(255,255,0)" stroke-width="0.705556"/>
		<line x1="603.625" y1="399.344" x2="602.125" y2="399.344" stroke="rgb(255,0,0)" stroke-width="0.705556"/>
		<line x1="602.125" y1="399.344" x2="602.125" y2="501.994" stroke="rgb(255,0,0)" stroke-width="0.705556"/>
		<line x1="602.125" y1="501.994" x2="403.825" y2="501.994" stroke="rgb(255,0,0)" stroke-width="0.705556"/>
		<line x1="403.825" y1="501.994" x2="403.825" y2="399.344" stroke="rgb(255,0,0)" stroke-width="0.705556"/>
		<line x1="403.825" y1="399.344" x2="402.325" y2="399.344" stroke="rgb(255,0,0)" stroke-width="0.705556"/>
		<line x1="602.125" y1="401.344" x2="403.825" y2="401.344" stroke="rgb(255,255,0)" stroke-width="0.705556"/>
		<line x1="402.325" y1="399.344" x2="400.825" y2="399.344" stroke="rgb(255,0,0)" stroke-width="0.705556"/>
		<line x1="400.825" y1="399.344" x2="400.825" y2="501.994" stroke="rgb(255,0,0)" stroke-width="0.705556"/>
		<line x1="400.825" y1="501.994" x2="119.925" y2="501.994" stroke="rgb(255,0,0)" stroke-width="0.705556"/>
		<line x1="119.925" y1="501.994" x2="119.925" y2="401.344" stroke="rgb(255,0,0)" stroke-width="0.705556"/>
		<line x1="400.825" y1="401.344" x2="119.925" y2="401.344" stroke="rgb(255,255,0)" stroke-width="0.705556"/>
		<line x1="1087.53" y1="399.344" x2="1087.53" y2="399.344" stroke="rgb(255,0,0)" stroke-width="0.705556"/>
		<line x1="1087.53" y1="399.344" x2="1087.53" y2="501.994" stroke="rgb(255,0,0)" stroke-width="0.705556"/>
		<line x1="1087.53" y1="501.994" x2="889.025" y2="501.994" stroke="rgb(255,0,0)" stroke-width="0.705556"/>
		<line x1="889.025" y1="501.994" x2="889.025" y2="399.344" stroke="rgb(255,0,0)" stroke-width="0.705556"/>
		<line x1="889.025" y1="399.344" x2="887.525" y2="399.344" stroke="rgb(255,0,0)" stroke-width="0.705556"/>
		<line x1="1087.53" y1="401.344" x2="889.025" y2="401.344" stroke="rgb(255,255,0)" stroke-width="0.705556"/>
		<line x1="400.375" y1="250.044" x2="400.375" y2="50.6942" stroke="rgb(255,0,0)" stroke-width="0.705556"/>
		<line x1="400.375" y1="50.6942" x2="272.375" y2="50.6942" stroke="rgb(255,0,0)" stroke-width="0.705556"/>
		<line x1="248.375" y1="50.6942" x2="120.375" y2="50.6942" stroke="rgb(255,0,0)" stroke-width="0.705556"/>
		<line x1="120.375" y1="50.6942" x2="120.375" y2="250.044" stroke="rgb(255,0,0)" stroke-width="0.705556"/>
		<line x1="400.375" y1="250.044" x2="120.375" y2="250.044" stroke="rgb(255,255,0)" stroke-width="0.705556"/>
		<line x1="886.225" y1="49.3942" x2="604.925" y2="49.3942" stroke="rgb(255,0,0)" stroke-width="0.705556"/>
		<line x1="886.225" y1="248.744" x2="604.925" y2="248.744" stroke="rgb(255,255,0)" stroke-width="0.705556"/>
		<line x1="1035.58" y1="49.3942" x2="891.225" y2="49.3942" stroke="rgb(255,0,0)" stroke-width="0.705556"/>
		<line x1="891.225" y1="49.3942" x2="886.225" y2="49.3942" stroke="rgb(255,0,0)" stroke-width="0.705556"/>
		<line x1="886.225" y1="248.744" x2="886.225" y2="49.3942" stroke="rgb(255,255,0)" stroke-width="0.705556"/>
		<line x1="1035.58" y1="49.3942" x2="1035.58" y2="248.094" stroke="rgb(255,0,0)" stroke-width="0.705556"/>
		<line x1="455.575" y1="49.3942" x2="599.925" y2="49.3942" stroke="rgb(255,0,0)" stroke-width="0.705556"/>
		<line x1="599.925" y1="49.3942" x2="604.925" y2="49.3942" stroke="rgb(255,0,0)" stroke-width="0.705556"/>
		<line x1="604.925" y1="248.744" x2="604.925" y2="49.3942" stroke="rgb(255,255,0)" stroke-width="0.705556"/>
		<line x1="455.575" y1="49.3942" x2="455.575" y2="248.094" stroke="rgb(255,0,0)" stroke-width="0.705556"/>
		<line x1="1087.53" y1="248.744" x2="1087.53" y2="250.044" stroke="rgb(255,0,0)" stroke-width="0.705556"/>
		<line x1="887.525" y1="250.044" x2="887.525" y2="248.744" stroke="rgb(255,255,0)" stroke-width="0.705556"/>
		<line x1="886.225" y1="248.744" x2="887.525" y2="248.094" stroke="rgb(255,0,0)" stroke-width="0.705556"/>
		<line x1="887.525" y1="248.094" x2="1087.53" y2="248.094" stroke="rgb(255,0,0)" stroke-width="0.705556"/>
		<line x1="1087.53" y1="248.094" x2="1087.53" y2="248.744" stroke="rgb(255,0,0)" stroke-width="0.705556"/>
		<line x1="887.525" y1="248.744" x2="887.525" y2="248.094" stroke="rgb(255,255,0)" stroke-width="0.705556"/>
		<line x1="604.925" y1="248.744" x2="603.625" y2="248.094" stroke="rgb(255,0,0)" stroke-width="0.705556"/>
		<line x1="603.625" y1="248.094" x2="402.325" y2="248.094" stroke="rgb(255,0,0)" stroke-width="0.705556"/>
		<line x1="603.625" y1="248.744" x2="603.625" y2="248.094" stroke="rgb(255,255,0)" stroke-width="0.705556"/>
		<line x1="603.625" y1="250.044" x2="603.625" y2="248.744" stroke="rgb(255,255,0)" stroke-width="0.705556"/>
		<line x1="402.325" y1="248.094" x2="400.375" y2="250.044" stroke="rgb(255,0,0)" stroke-width="0.705556"/>
		<line x1="402.325" y1="250.044" x2="402.325" y2="248.094" stroke="rgb(255,255,0)" stroke-width="0.705556"/>
		<path d="M272.375,50.6942 a12 12 0 1 1 -24,0" fill="none" stroke="rgb(255,0,0)" stroke-width="0.705556"/>
		<line x1="120.375" y1="250.044" x2="93.4253" y2="262.611" stroke="rgb(255,0,0)" stroke-width="0.705556"/>
		<line x1="93.4253" y1="262.611" x2="93.4253" y2="388.987" stroke="rgb(255,0,0)" stroke-width="0.705556"/>
		<line x1="118.425" y1="400.645" x2="118.425" y2="250.954" stroke="rgb(255,255,0)" stroke-width="0.705556"/>
		<line x1="119.925" y1="401.344" x2="93.4253" y2="388.987" stroke="rgb(255,0,0)" stroke-width="0.705556"/>
		<line x1="1087.53" y1="399.344" x2="1087.53" y2="399.344" stroke="rgb(255,0,0)" stroke-width="0.705556"/>
		<line x1="745.575" y1="326.359" x2="745.575" y2="298.744" stroke="rgb(64,128,128)" stroke-width="0"/>
		<line x1="754.059" y1="307.949" x2="754.059" y2="298.744" stroke="rgb(64,128,128)" stroke-width="0"/>
		<line x1="749.817" y1="317.154" x2="749.817" y2="298.744" stroke="rgb(64,128,128)" stroke-width="0"/>
		<line x1="741.333" y1="335.564" x2="741.333" y2="298.744" stroke="rgb(64,128,128)" stroke-width="0"/>
		<line x1="737.091" y1="344.769" x2="737.091" y2="298.744" stroke="rgb(64,128,128)" stroke-width="0"/>
		<line x1="732.849" y1="353.974" x2="732.849" y2="298.744" stroke="rgb(64,128,128)" stroke-width="0"/>
		<line x1="758.301" y1="298.744" x2="732.849" y2="298.744" stroke="rgb(64,128,128)" stroke-width="0"/>
		<line x1="732.849" y1="353.974" x2="761.124" y2="325.656" stroke="rgb(64,128,128)" stroke-width="0"/>
		<path d="M761.124,325.656 a26.6045 26.6045 0 0 1 -2.82257,-26.9118" fill="none" stroke="rgb(64,128,128)" stroke-width="0"/>
		<line x1="758.301" y1="298.744" x2="732.849" y2="353.974" stroke="rgb(64,128,128)" stroke-width="0"/>
	</g>
</svg>