<svg version = "1.1" xmlns = "http://www.w3.org/2000/svg" xmlns:xlink="http://www.w3.org/1999/xlink" width="989.606" height="355.906" viewbox = "0 0 989.606 355.906">
	<g transform="translate(-22.7369,385.709) scale(1,-1) ">
		<line x1="329.39" y1="130.806" x2="329.39" y2="284.706" stroke="rgb(255,255,0)" stroke-width="0.705556"/>
		<line x1="530.69" y1="284.706" x2="530.69" y2="130.806" stroke="rgb(255,255,0)" stroke-width="0.705556"/>
		<line x1="811.99" y1="130.806" x2="811.99" y2="284.706" stroke="rgb(255,255,0)" stroke-width="0.705556"/>
		<line x1="1011.99" y1="284.706" x2="1011.99" y2="130.806" stroke="rgb(255,0,0)" stroke-width="0.705556"/>
		<line x1="48.0897" y1="385.356" x2="329.39" y2="385.356" stroke="rgb(255,0,0)" stroke-width="0.705556"/>
		<line x1="329.39" y1="284.706" x2="48.0897" y2="284.706" stroke="rgb(255,255,0)" stroke-width="0.705556"/>
		<line x1="329.39" y1="385.356" x2="530.69" y2="385.356" stroke="rgb(255,0,0)" stroke-width="0.705556"/>
		<line x1="530.69" y1="284.706" x2="329.39" y2="284.706" stroke="rgb(255,255,0)" stroke-width="0.705556"/>
		<line x1="530.69" y1="385.356" x2="811.99" y2="385.356" stroke="rgb(255,0,0)" stroke-width="0.705556"/>
		<line x1="811.99" y1="284.706" x2="530.69" y2="284.706" stroke="rgb(255,255,0)" stroke-width="0.705556"/>
		<line x1="811.99" y1="385.356" x2="1011.99" y2="385.356" stroke="rgb(255,0,0)" stroke-width="0.705556"/>
		<line x1="1011.99" y1="385.356" x2="1011.99" y2="284.706" stroke="rgb(255,0,0)" stroke-width="0.705556"/>
		<line x1="1011.99" y1="284.706" x2="811.99" y2="284.706" stroke="rgb(255,255,0)" stroke-width="0.705556"/>
		<line x1="1011.99" y1="130.806" x2="1011.99" y2="30.1559" stroke="rgb(255,0,0)" stroke-width="0.705556"/>
		<line x1="1011.99" y1="30.1559" x2="811.99" y2="30.1559" stroke="rgb(255,0,0)" stroke-width="0.705556"/>
		<line x1="811.99" y1="130.806" x2="1011.99" y2="130.806" stroke="rgb(255,255,0)" stroke-width="0.705556"/>
		<line x1="811.99" y1="30.1559" x2="530.69" y2="30.1559" stroke="rgb(255,0,0)" stroke-width="0.705556"/>
		<line x1="530.69" y1="130.806" x2="811.99" y2="130.806" stroke="rgb(255,255,0)" stroke-width="0.705556"/>
		<line x1="530.69" y1="30.1559" x2="329.39" y2="30.1559" stroke="rgb(255,0,0)" stroke-width="0.705556"/>
		<line x1="329.39" y1="130.806" x2="530.69" y2="130.806" stroke="rgb(255,255,0)" stroke-width="0.705556"/>
		<line x1="329.39" y1="30.1559" x2="48.0897" y2="30.1559" stroke="rgb(255,0,0)" stroke-width="0.705556"/>
		<line x1="48.0897" y1="130.806" x2="329.39" y2="130.806" stroke="rgb(255,255,0)" stroke-width="0.705556"/>
		<line x1="811.99" y1="385.356" x2="811.99" y2="284.706" stroke="rgb(255,255,0)" stroke-width="0.705556"/>
		<line x1="530.69" y1="385.356" x2="530.69" y2="284.706" stroke="rgb(255,255,0)" stroke-width="0.705556"/>
		<line x1="329.39" y1="385.356" x2="329.39" y2="284.706" stroke="rgb(255,255,0)" stroke-width="0.705556"/>
		<line x1="329.39" y1="130.806" x2="329.39" y2="30.1559" stroke="rgb(255,255,0)" stroke-width="0.705556"/>
		<line x1="530.69" y1="130.806" x2="530.69" y2="30.1559" stroke="rgb(255,255,0)" stroke-width="0.705556"/>
		<line x1="811.99" y1="130.806" x2="811.99" y2="30.1559" stroke="rgb(255,255,0)" stroke-width="0.705556"/>
		<line x1="811.99" y1="284.706" x2="912.64" y2="385.356" stroke="rgb(255,255,0)" stroke-width="0.705556"/>
		<line x1="530.69" y1="284.706" x2="430.04" y2="385.356" stroke="rgb(255,255,0)" stroke-width="0.705556"/>
		<line x1="329.39" y1="284.706" x2="430.04" y2="385.356" stroke="rgb(255,255,0)" stroke-width="0.705556"/>
		<line x1="329.39" y1="130.806" x2="430.04" y2="30.1559" stroke="rgb(255,255,0)" stroke-width="0.705556"/>
		<line x1="530.69" y1="130.806" x2="430.04" y2="30.1559" stroke="rgb(255,255,0)" stroke-width="0.705556"/>
		<line x1="811.99" y1="130.806" x2="912.64" y2="30.1559" stroke="rgb(255,255,0)" stroke-width="0.705556"/>
		<line x1="48.0897" y1="130.806" x2="48.0897" y2="284.706" stroke="rgb(255,255,0)" stroke-width="0.705556"/>
		<line x1="23.0897" y1="284.706" x2="23.0897" y2="130.806" stroke="rgb(255,0,0)" stroke-width="0.705556"/>
		<line x1="23.0897" y1="284.706" x2="23.0897" y2="385.356" stroke="rgb(255,0,0)" stroke-width="0.705556"/>
		<line x1="23.0897" y1="385.356" x2="48.0897" y2="385.356" stroke="rgb(255,0,0)" stroke-width="0.705556"/>
		<line x1="48.0897" y1="385.356" x2="48.0897" y2="284.706" stroke="rgb(255,255,0)" stroke-width="0.705556"/>
		<line x1="48.0897" y1="30.1559" x2="23.0897" y2="30.1559" stroke="rgb(255,0,0)" stroke-width="0.705556"/>
		<line x1="23.0897" y1="30.1559" x2="23.0897" y2="130.806" stroke="rgb(255,0,0)" stroke-width="0.705556"/>
		<line x1="48.0897" y1="130.806" x2="48.0897" y2="30.1559" stroke="rgb(255,255,0)" stroke-width="0.705556"/>
		<line x1="23.0897" y1="284.706" x2="48.0897" y2="284.706" stroke="rgb(255,255,0)" stroke-width="0.705556"/>
		<line x1="23.0897" y1="130.806" x2="48.0897" y2="130.806" stroke="rgb(255,255,0)" stroke-width="0.705556"/>
		<line x1="48.0897" y1="284.706" x2="23.0897" y2="309.706" stroke="rgb(255,255,0)" stroke-width="0.705556"/>
		<line x1="48.0897" y1="130.806" x2="23.0897" y2="105.806" stroke="rgb(255,255,0)" stroke-width="0.705556"/>
		<line x1="1011.99" y1="286.006" x2="912.64" y2="385.356" stroke="rgb(255,255,0)" stroke-width="0.705556"/>
		<line x1="1011.99" y1="129.506" x2="912.64" y2="30.1559" stroke="rgb(255,255,0)" stroke-width="0.705556"/>
		<line x1="671.34" y1="185.921" x2="671.34" y2="158.306" stroke="rgb(64,128,128)" stroke-width="0"/>
		<line x1="679.824" y1="167.511" x2="679.824" y2="158.306" stroke="rgb(64,128,128)" stroke-width="0"/>
		<line x1="675.582" y1="176.716" x2="675.582" y2="158.306" stroke="rgb(64,128,128)" stroke-width="0"/>
		<line x1="667.098" y1="195.126" x2="667.098" y2="158.306" stroke="rgb(64,128,128)" stroke-width="0"/>
		<line x1="662.856" y1="204.331" x2="662.856" y2="158.306" stroke="rgb(64,128,128)" stroke-width="0"/>
		<line x1="658.614" y1="213.536" x2="658.614" y2="158.306" stroke="rgb(64,128,128)" stroke-width="0"/>
		<line x1="684.066" y1="158.306" x2="658.614" y2="158.306" stroke="rgb(64,128,128)" stroke-width="0"/>
		<line x1="658.614" y1="213.536" x2="686.888" y2="185.218" stroke="rgb(64,128,128)" stroke-width="0"/>
		<path d="M686.888,185.218 a26.6045 26.6045 0 0 1 -2.82257,-26.9118" fill="none" stroke="rgb(64,128,128)" stroke-width="0"/>
		<line x1="684.066" y1="158.306" x2="658.614" y2="213.536" stroke="rgb(64,128,128)" stroke-width="0"/>
	</g>
</svg>