<svg version = "1.1" xmlns = "http://www.w3.org/2000/svg" xmlns:xlink="http://www.w3.org/1999/xlink" width="994.806" height="558.506" viewbox = "0 0 994.806 558.506">
	<g transform="translate(-50.2669,626.476) scale(1,-1) ">
		<line x1="359.52" y1="271.573" x2="359.52" y2="422.873" stroke="rgb(255,255,0)" stroke-width="0.705556"/>
		<line x1="560.82" y1="422.873" x2="560.82" y2="271.573" stroke="rgb(255,255,0)" stroke-width="0.705556"/>
		<line x1="844.72" y1="271.573" x2="844.72" y2="422.873" stroke="rgb(255,255,0)" stroke-width="0.705556"/>
		<line x1="1044.72" y1="422.873" x2="1044.72" y2="271.573" stroke="rgb(255,0,0)" stroke-width="0.705556"/>
		<line x1="560.82" y1="422.873" x2="562.12" y2="424.173" stroke="rgb(255,0,0)" stroke-width="0.705556"/>
		<line x1="843.42" y1="424.173" x2="844.72" y2="422.873" stroke="rgb(255,0,0)" stroke-width="0.705556"/>
		<line x1="560.82" y1="422.873" x2="844.72" y2="422.873" stroke="rgb(255,255,0)" stroke-width="0.705556"/>
		<line x1="843.42" y1="622.223" x2="714.77" y2="622.223" stroke="rgb(255,0,0)" stroke-width="0.705556"/>
		<line x1="690.77" y1="622.223" x2="562.12" y2="622.223" stroke="rgb(255,0,0)" stroke-width="0.705556"/>
		<line x1="844.72" y1="422.873" x2="844.72" y2="422.873" stroke="rgb(255,0,0)" stroke-width="0.705556"/>
		<line x1="1044.72" y1="424.173" x2="1044.72" y2="422.873" stroke="rgb(255,0,0)" stroke-width="0.705556"/>
		<line x1="1044.72" y1="422.873" x2="1044.72" y2="422.873" stroke="rgb(255,0,0)" stroke-width="0.705556"/>
		<line x1="1044.72" y1="424.173" x2="843.42" y2="424.173" stroke="rgb(255,255,0)" stroke-width="0.705556"/>
		<line x1="1044.72" y1="424.173" x2="1044.72" y2="554.906" stroke="rgb(255,0,0)" stroke-width="0.705556"/>
		<line x1="1044.72" y1="554.906" x2="910.736" y2="554.906" stroke="rgb(255,0,0)" stroke-width="0.705556"/>
		<line x1="910.736" y1="554.906" x2="910.736" y2="491.49" stroke="rgb(255,0,0)" stroke-width="0.705556"/>
		<line x1="560.82" y1="422.873" x2="560.82" y2="422.873" stroke="rgb(255,0,0)" stroke-width="0.705556"/>
		<line x1="361.02" y1="424.173" x2="361.02" y2="422.873" stroke="rgb(255,0,0)" stroke-width="0.705556"/>
		<line x1="361.02" y1="422.873" x2="359.52" y2="422.873" stroke="rgb(255,0,0)" stroke-width="0.705556"/>
		<line x1="361.02" y1="424.173" x2="562.12" y2="424.173" stroke="rgb(255,255,0)" stroke-width="0.705556"/>
		<line x1="361.02" y1="424.173" x2="361.02" y2="554.906" stroke="rgb(255,0,0)" stroke-width="0.705556"/>
		<line x1="361.02" y1="554.906" x2="494.803" y2="554.906" stroke="rgb(255,0,0)" stroke-width="0.705556"/>
		<line x1="494.803" y1="554.906" x2="494.803" y2="491.49" stroke="rgb(255,0,0)" stroke-width="0.705556"/>
		<line x1="843.42" y1="622.223" x2="910.736" y2="554.906" stroke="rgb(255,0,0)" stroke-width="0.705556"/>
		<line x1="910.736" y1="554.906" x2="910.736" y2="491.49" stroke="rgb(255,0,0)" stroke-width="0.705556"/>
		<line x1="910.736" y1="491.49" x2="843.42" y2="424.173" stroke="rgb(255,0,0)" stroke-width="0.705556"/>
		<line x1="843.42" y1="622.223" x2="843.42" y2="424.173" stroke="rgb(255,255,0)" stroke-width="0.705556"/>
		<line x1="562.12" y1="424.173" x2="494.803" y2="491.49" stroke="rgb(255,0,0)" stroke-width="0.705556"/>
		<line x1="494.803" y1="491.49" x2="494.803" y2="554.906" stroke="rgb(255,0,0)" stroke-width="0.705556"/>
		<line x1="494.803" y1="554.906" x2="562.12" y2="622.223" stroke="rgb(255,0,0)" stroke-width="0.705556"/>
		<line x1="562.12" y1="424.173" x2="562.12" y2="622.223" stroke="rgb(255,255,0)" stroke-width="0.705556"/>
		<line x1="77.1197" y1="422.873" x2="77.1197" y2="626.123" stroke="rgb(255,0,0)" stroke-width="0.705556"/>
		<line x1="77.1197" y1="626.123" x2="358.02" y2="626.123" stroke="rgb(255,0,0)" stroke-width="0.705556"/>
		<line x1="358.02" y1="626.123" x2="358.02" y2="422.873" stroke="rgb(255,0,0)" stroke-width="0.705556"/>
		<line x1="358.02" y1="422.873" x2="359.52" y2="422.873" stroke="rgb(255,0,0)" stroke-width="0.705556"/>
		<line x1="77.1197" y1="425.473" x2="358.02" y2="425.473" stroke="rgb(255,255,0)" stroke-width="0.705556"/>
		<path d="M690.77,622.223 a12 12 0 0 1 24,0" fill="none" stroke="rgb(255,0,0)" stroke-width="0.705556"/>
		<line x1="560.82" y1="271.573" x2="562.12" y2="270.273" stroke="rgb(255,0,0)" stroke-width="0.705556"/>
		<line x1="843.42" y1="270.273" x2="844.72" y2="271.573" stroke="rgb(255,0,0)" stroke-width="0.705556"/>
		<line x1="560.82" y1="271.573" x2="844.72" y2="271.573" stroke="rgb(255,255,0)" stroke-width="0.705556"/>
		<line x1="843.42" y1="72.2231" x2="714.77" y2="72.2231" stroke="rgb(255,0,0)" stroke-width="0.705556"/>
		<line x1="690.77" y1="72.2231" x2="562.12" y2="72.2231" stroke="rgb(255,0,0)" stroke-width="0.705556"/>
		<line x1="844.72" y1="271.573" x2="844.72" y2="271.573" stroke="rgb(255,0,0)" stroke-width="0.705556"/>
		<line x1="1044.72" y1="270.273" x2="1044.72" y2="271.573" stroke="rgb(255,0,0)" stroke-width="0.705556"/>
		<line x1="1044.72" y1="271.573" x2="1044.72" y2="271.573" stroke="rgb(255,0,0)" stroke-width="0.705556"/>
		<line x1="1044.72" y1="270.273" x2="843.42" y2="270.273" stroke="rgb(255,255,0)" stroke-width="0.705556"/>
		<line x1="1044.72" y1="270.273" x2="1044.72" y2="139.54" stroke="rgb(255,0,0)" stroke-width="0.705556"/>
		<line x1="1044.72" y1="139.54" x2="910.736" y2="139.54" stroke="rgb(255,0,0)" stroke-width="0.705556"/>
		<line x1="910.736" y1="139.54" x2="910.736" y2="202.956" stroke="rgb(255,0,0)" stroke-width="0.705556"/>
		<line x1="560.82" y1="271.573" x2="560.82" y2="271.573" stroke="rgb(255,0,0)" stroke-width="0.705556"/>
		<line x1="361.02" y1="270.273" x2="361.02" y2="271.573" stroke="rgb(255,0,0)" stroke-width="0.705556"/>
		<line x1="361.02" y1="271.573" x2="359.52" y2="271.573" stroke="rgb(255,0,0)" stroke-width="0.705556"/>
		<line x1="361.02" y1="270.273" x2="562.12" y2="270.273" stroke="rgb(255,255,0)" stroke-width="0.705556"/>
		<line x1="361.02" y1="270.273" x2="361.02" y2="139.54" stroke="rgb(255,0,0)" stroke-width="0.705556"/>
		<line x1="361.02" y1="139.54" x2="494.803" y2="139.54" stroke="rgb(255,0,0)" stroke-width="0.705556"/>
		<line x1="494.803" y1="139.54" x2="494.803" y2="202.956" stroke="rgb(255,0,0)" stroke-width="0.705556"/>
		<line x1="843.42" y1="72.2231" x2="910.736" y2="139.54" stroke="rgb(255,0,0)" stroke-width="0.705556"/>
		<line x1="910.736" y1="139.54" x2="910.736" y2="202.956" stroke="rgb(255,0,0)" stroke-width="0.705556"/>
		<line x1="910.736" y1="202.956" x2="843.42" y2="270.273" stroke="rgb(255,0,0)" stroke-width="0.705556"/>
		<line x1="843.42" y1="72.2231" x2="843.42" y2="270.273" stroke="rgb(255,255,0)" stroke-width="0.705556"/>
		<line x1="562.12" y1="270.273" x2="494.803" y2="202.956" stroke="rgb(255,0,0)" stroke-width="0.705556"/>
		<line x1="494.803" y1="202.956" x2="494.803" y2="139.54" stroke="rgb(255,0,0)" stroke-width="0.705556"/>
		<line x1="494.803" y1="139.54" x2="562.12" y2="72.2231" stroke="rgb(255,0,0)" stroke-width="0.705556"/>
		<line x1="562.12" y1="270.273" x2="562.12" y2="72.2231" stroke="rgb(255,255,0)" stroke-width="0.705556"/>
		<line x1="77.1197" y1="271.573" x2="77.1197" y2="68.3231" stroke="rgb(255,0,0)" stroke-width="0.705556"/>
		<line x1="77.1197" y1="68.3231" x2="358.02" y2="68.3231" stroke="rgb(255,0,0)" stroke-width="0.705556"/>
		<line x1="358.02" y1="68.3231" x2="358.02" y2="271.573" stroke="rgb(255,0,0)" stroke-width="0.705556"/>
		<line x1="358.02" y1="271.573" x2="359.52" y2="271.573" stroke="rgb(255,0,0)" stroke-width="0.705556"/>
		<line x1="77.1197" y1="268.973" x2="358.02" y2="268.973" stroke="rgb(255,255,0)" stroke-width="0.705556"/>
		<path d="M690.77,72.2231 a12 12 0 0 0 24,0" fill="none" stroke="rgb(255,0,0)" stroke-width="0.705556"/>
		<line x1="77.1197" y1="271.573" x2="50.6197" y2="278.573" stroke="rgb(255,0,0)" stroke-width="0.705556"/>
		<line x1="50.6197" y1="278.573" x2="50.6197" y2="415.873" stroke="rgb(255,0,0)" stroke-width="0.705556"/>
		<line x1="50.6197" y1="415.873" x2="77.1197" y2="422.873" stroke="rgb(255,0,0)" stroke-width="0.705556"/>
		<line x1="75.6197" y1="271.969" x2="75.6197" y2="422.477" stroke="rgb(255,255,0)" stroke-width="0.705556"/>
		<line x1="1044.72" y1="271.573" x2="1044.72" y2="271.573" stroke="rgb(255,0,0)" stroke-width="0.705556"/>
		<line x1="1044.72" y1="422.873" x2="1044.72" y2="422.873" stroke="rgb(255,0,0)" stroke-width="0.705556"/>
		<line x1="702.77" y1="339.188" x2="702.77" y2="311.573" stroke="rgb(64,128,128)" stroke-width="0"/>
		<line x1="711.254" y1="320.778" x2="711.254" y2="311.573" stroke="rgb(64,128,128)" stroke-width="0"/>
		<line x1="707.012" y1="329.983" x2="707.012" y2="311.573" stroke="rgb(64,128,128)" stroke-width="0"/>
		<line x1="698.528" y1="348.393" x2="698.528" y2="311.573" stroke="rgb(64,128,128)" stroke-width="0"/>
		<line x1="694.286" y1="357.598" x2="694.286" y2="311.573" stroke="rgb(64,128,128)" stroke-width="0"/>
		<line x1="690.044" y1="366.803" x2="690.044" y2="311.573" stroke="rgb(64,128,128)" stroke-width="0"/>
		<line x1="715.496" y1="311.573" x2="690.044" y2="311.573" stroke="rgb(64,128,128)" stroke-width="0"/>
		<line x1="690.044" y1="366.803" x2="718.318" y2="338.485" stroke="rgb(64,128,128)" stroke-width="0"/>
		<path d="M718.318,338.485 a26.6045 26.6045 0 0 1 -2.82257,-26.9118" fill="none" stroke="rgb(64,128,128)" stroke-width="0"/>
		<line x1="715.496" y1="311.573" x2="690.044" y2="366.803" stroke="rgb(64,128,128)" stroke-width="0"/>
	</g>
</svg>