<svg version = "1.1" xmlns = "http://www.w3.org/2000/svg" xmlns:xlink="http://www.w3.org/1999/xlink" width="989.606" height="433.306" viewbox = "0 0 989.606 433.306">
	<g transform="translate(-45.3238,478.782) scale(1,-1) ">
		<line x1="271.977" y1="188.479" x2="271.977" y2="335.779" stroke="rgb(255,255,0)" stroke-width="0.705556"/>
		<line x1="553.277" y1="335.779" x2="553.277" y2="188.479" stroke="rgb(255,255,0)" stroke-width="0.705556"/>
		<line x1="754.577" y1="188.479" x2="754.577" y2="335.779" stroke="rgb(255,255,0)" stroke-width="0.705556"/>
		<line x1="1034.58" y1="335.779" x2="1034.58" y2="188.479" stroke="rgb(255,0,0)" stroke-width="0.705556"/>
		<line x1="271.977" y1="335.779" x2="273.477" y2="335.779" stroke="rgb(255,0,0)" stroke-width="0.705556"/>
		<line x1="273.477" y1="335.779" x2="273.477" y2="405.096" stroke="rgb(255,0,0)" stroke-width="0.705556"/>
		<line x1="551.777" y1="405.096" x2="551.777" y2="335.779" stroke="rgb(255,0,0)" stroke-width="0.705556"/>
		<line x1="551.777" y1="335.779" x2="553.277" y2="335.779" stroke="rgb(255,0,0)" stroke-width="0.705556"/>
		<line x1="273.477" y1="337.779" x2="551.777" y2="337.779" stroke="rgb(255,255,0)" stroke-width="0.705556"/>
		<line x1="553.277" y1="335.779" x2="554.777" y2="335.779" stroke="rgb(255,0,0)" stroke-width="0.705556"/>
		<line x1="554.777" y1="335.779" x2="554.777" y2="478.429" stroke="rgb(255,0,0)" stroke-width="0.705556"/>
		<line x1="554.777" y1="478.429" x2="753.077" y2="478.429" stroke="rgb(255,0,0)" stroke-width="0.705556"/>
		<line x1="753.077" y1="478.429" x2="753.077" y2="335.779" stroke="rgb(255,0,0)" stroke-width="0.705556"/>
		<line x1="753.077" y1="335.779" x2="754.577" y2="335.779" stroke="rgb(255,0,0)" stroke-width="0.705556"/>
		<line x1="554.777" y1="337.779" x2="753.077" y2="337.779" stroke="rgb(255,255,0)" stroke-width="0.705556"/>
		<line x1="754.577" y1="335.779" x2="756.077" y2="335.779" stroke="rgb(255,0,0)" stroke-width="0.705556"/>
		<line x1="756.077" y1="335.779" x2="756.077" y2="405.096" stroke="rgb(255,0,0)" stroke-width="0.705556"/>
		<line x1="1034.58" y1="405.096" x2="1034.58" y2="335.779" stroke="rgb(255,0,0)" stroke-width="0.705556"/>
		<line x1="1034.58" y1="335.779" x2="1034.58" y2="335.779" stroke="rgb(255,0,0)" stroke-width="0.705556"/>
		<line x1="756.077" y1="337.779" x2="1034.58" y2="337.779" stroke="rgb(255,255,0)" stroke-width="0.705556"/>
		<line x1="72.1766" y1="337.779" x2="72.1766" y2="478.429" stroke="rgb(255,0,0)" stroke-width="0.705556"/>
		<line x1="72.1766" y1="478.429" x2="270.477" y2="478.429" stroke="rgb(255,0,0)" stroke-width="0.705556"/>
		<line x1="270.477" y1="478.429" x2="270.477" y2="335.779" stroke="rgb(255,0,0)" stroke-width="0.705556"/>
		<line x1="270.477" y1="335.779" x2="271.977" y2="335.779" stroke="rgb(255,0,0)" stroke-width="0.705556"/>
		<line x1="72.1766" y1="337.779" x2="270.477" y2="337.779" stroke="rgb(255,255,0)" stroke-width="0.705556"/>
		<line x1="72.1766" y1="186.479" x2="72.1766" y2="45.8289" stroke="rgb(255,0,0)" stroke-width="0.705556"/>
		<line x1="72.1766" y1="45.8289" x2="270.477" y2="45.8289" stroke="rgb(255,0,0)" stroke-width="0.705556"/>
		<line x1="270.477" y1="45.8289" x2="270.477" y2="188.479" stroke="rgb(255,0,0)" stroke-width="0.705556"/>
		<line x1="270.477" y1="188.479" x2="271.977" y2="188.479" stroke="rgb(255,0,0)" stroke-width="0.705556"/>
		<line x1="72.1766" y1="186.479" x2="270.477" y2="186.479" stroke="rgb(255,255,0)" stroke-width="0.705556"/>
		<line x1="271.977" y1="188.479" x2="273.477" y2="188.479" stroke="rgb(255,0,0)" stroke-width="0.705556"/>
		<line x1="273.477" y1="188.479" x2="273.477" y2="119.162" stroke="rgb(255,0,0)" stroke-width="0.705556"/>
		<line x1="551.777" y1="119.162" x2="551.777" y2="188.479" stroke="rgb(255,0,0)" stroke-width="0.705556"/>
		<line x1="551.777" y1="188.479" x2="553.277" y2="188.479" stroke="rgb(255,0,0)" stroke-width="0.705556"/>
		<line x1="273.477" y1="186.479" x2="551.777" y2="186.479" stroke="rgb(255,255,0)" stroke-width="0.705556"/>
		<line x1="553.277" y1="188.479" x2="554.777" y2="188.479" stroke="rgb(255,0,0)" stroke-width="0.705556"/>
		<line x1="554.777" y1="188.479" x2="554.777" y2="45.8289" stroke="rgb(255,0,0)" stroke-width="0.705556"/>
		<line x1="554.777" y1="45.8289" x2="753.077" y2="45.8289" stroke="rgb(255,0,0)" stroke-width="0.705556"/>
		<line x1="753.077" y1="45.8289" x2="753.077" y2="188.479" stroke="rgb(255,0,0)" stroke-width="0.705556"/>
		<line x1="753.077" y1="188.479" x2="754.577" y2="188.479" stroke="rgb(255,0,0)" stroke-width="0.705556"/>
		<line x1="554.777" y1="186.479" x2="753.077" y2="186.479" stroke="rgb(255,255,0)" stroke-width="0.705556"/>
		<line x1="754.577" y1="188.479" x2="756.077" y2="188.479" stroke="rgb(255,0,0)" stroke-width="0.705556"/>
		<line x1="756.077" y1="188.479" x2="756.077" y2="119.162" stroke="rgb(255,0,0)" stroke-width="0.705556"/>
		<line x1="1034.58" y1="119.162" x2="1034.58" y2="188.479" stroke="rgb(255,0,0)" stroke-width="0.705556"/>
		<line x1="1034.58" y1="188.479" x2="1034.58" y2="188.479" stroke="rgb(255,0,0)" stroke-width="0.705556"/>
		<line x1="756.077" y1="186.479" x2="1034.58" y2="186.479" stroke="rgb(255,255,0)" stroke-width="0.705556"/>
		<line x1="273.477" y1="405.096" x2="273.477" y2="478.429" stroke="rgb(255,0,0)" stroke-width="0.705556"/>
		<line x1="273.477" y1="478.429" x2="551.777" y2="478.429" stroke="rgb(255,0,0)" stroke-width="0.705556"/>
		<line x1="551.777" y1="478.429" x2="551.777" y2="405.096" stroke="rgb(255,0,0)" stroke-width="0.705556"/>
		<line x1="551.777" y1="405.096" x2="273.477" y2="405.096" stroke="rgb(255,255,0)" stroke-width="0.705556"/>
		<line x1="756.077" y1="405.096" x2="756.077" y2="478.429" stroke="rgb(255,0,0)" stroke-width="0.705556"/>
		<line x1="756.077" y1="478.429" x2="1034.58" y2="478.429" stroke="rgb(255,0,0)" stroke-width="0.705556"/>
		<line x1="1034.58" y1="478.429" x2="1034.58" y2="405.096" stroke="rgb(255,0,0)" stroke-width="0.705556"/>
		<line x1="1034.58" y1="405.096" x2="756.077" y2="405.096" stroke="rgb(255,255,0)" stroke-width="0.705556"/>
		<line x1="1034.58" y1="119.162" x2="1034.58" y2="45.8289" stroke="rgb(255,0,0)" stroke-width="0.705556"/>
		<line x1="1034.58" y1="45.8289" x2="756.077" y2="45.8289" stroke="rgb(255,0,0)" stroke-width="0.705556"/>
		<line x1="756.077" y1="45.8289" x2="756.077" y2="119.162" stroke="rgb(255,0,0)" stroke-width="0.705556"/>
		<line x1="756.077" y1="119.162" x2="1034.58" y2="119.162" stroke="rgb(255,255,0)" stroke-width="0.705556"/>
		<line x1="551.777" y1="119.162" x2="551.777" y2="45.8289" stroke="rgb(255,0,0)" stroke-width="0.705556"/>
		<line x1="551.777" y1="45.8289" x2="273.477" y2="45.8289" stroke="rgb(255,0,0)" stroke-width="0.705556"/>
		<line x1="273.477" y1="45.8289" x2="273.477" y2="119.162" stroke="rgb(255,0,0)" stroke-width="0.705556"/>
		<line x1="273.477" y1="119.162" x2="551.777" y2="119.162" stroke="rgb(255,255,0)" stroke-width="0.705556"/>
		<line x1="72.1766" y1="186.479" x2="45.6766" y2="198.836" stroke="rgb(255,0,0)" stroke-width="0.705556"/>
		<line x1="45.6766" y1="198.836" x2="45.6766" y2="325.422" stroke="rgb(255,0,0)" stroke-width="0.705556"/>
		<line x1="70.6766" y1="337.079" x2="70.6766" y2="187.178" stroke="rgb(255,255,0)" stroke-width="0.705556"/>
		<line x1="72.1766" y1="337.779" x2="45.6766" y2="325.422" stroke="rgb(255,0,0)" stroke-width="0.705556"/>
		<line x1="1034.58" y1="188.479" x2="1034.58" y2="188.479" stroke="rgb(255,0,0)" stroke-width="0.705556"/>
		<line x1="1034.58" y1="335.779" x2="1034.58" y2="335.779" stroke="rgb(255,0,0)" stroke-width="0.705556"/>
		<line x1="894.577" y1="249.094" x2="894.577" y2="221.479" stroke="rgb(64,128,128)" stroke-width="0"/>
		<line x1="903.061" y1="230.684" x2="903.061" y2="221.479" stroke="rgb(64,128,128)" stroke-width="0"/>
		<line x1="898.819" y1="239.889" x2="898.819" y2="221.479" stroke="rgb(64,128,128)" stroke-width="0"/>
		<line x1="890.335" y1="258.299" x2="890.335" y2="221.479" stroke="rgb(64,128,128)" stroke-width="0"/>
		<line x1="886.093" y1="267.504" x2="886.093" y2="221.479" stroke="rgb(64,128,128)" stroke-width="0"/>
		<line x1="881.851" y1="276.708" x2="881.851" y2="221.479" stroke="rgb(64,128,128)" stroke-width="0"/>
		<line x1="907.303" y1="221.479" x2="881.851" y2="221.479" stroke="rgb(64,128,128)" stroke-width="0"/>
		<line x1="881.851" y1="276.708" x2="910.125" y2="248.391" stroke="rgb(64,128,128)" stroke-width="0"/>
		<path d="M910.125,248.391 a26.6045 26.6045 0 0 1 -2.82257,-26.9118" fill="none" stroke="rgb(64,128,128)" stroke-width="0"/>
		<line x1="907.303" y1="221.479" x2="881.851" y2="276.708" stroke="rgb(64,128,128)" stroke-width="0"/>
	</g>
</svg>