<svg version = "1.1" xmlns = "http://www.w3.org/2000/svg" xmlns:xlink="http://www.w3.org/1999/xlink" width="984.606" height="353.306" viewbox = "0 0 984.606 353.306">
	<g transform="translate(-313.129,416.871) scale(1,-1) ">
		<line x1="661.449" y1="166.569" x2="661.449" y2="313.869" stroke="rgb(255,255,0)" stroke-width="0.705556"/>
		<line x1="862.749" y1="313.869" x2="862.749" y2="166.569" stroke="rgb(255,255,0)" stroke-width="0.705556"/>
		<line x1="1297.38" y1="313.869" x2="1297.38" y2="166.569" stroke="rgb(255,0,0)" stroke-width="0.705556"/>
		<line x1="1144.05" y1="166.569" x2="1144.05" y2="313.869" stroke="rgb(255,255,0)" stroke-width="0.705556"/>
		<line x1="313.482" y1="166.569" x2="313.482" y2="313.869" stroke="rgb(255,0,0)" stroke-width="0.705556"/>
		<line x1="380.149" y1="313.869" x2="380.149" y2="166.569" stroke="rgb(255,255,0)" stroke-width="0.705556"/>
		<line x1="380.149" y1="313.869" x2="381.649" y2="313.869" stroke="rgb(255,0,0)" stroke-width="0.705556"/>
		<line x1="381.649" y1="313.869" x2="381.649" y2="416.519" stroke="rgb(255,0,0)" stroke-width="0.705556"/>
		<line x1="381.649" y1="416.519" x2="659.949" y2="416.519" stroke="rgb(255,0,0)" stroke-width="0.705556"/>
		<line x1="659.949" y1="416.519" x2="659.949" y2="313.869" stroke="rgb(255,0,0)" stroke-width="0.705556"/>
		<line x1="659.949" y1="313.869" x2="661.449" y2="313.869" stroke="rgb(255,0,0)" stroke-width="0.705556"/>
		<line x1="381.649" y1="315.869" x2="659.949" y2="315.869" stroke="rgb(255,255,0)" stroke-width="0.705556"/>
		<line x1="862.749" y1="313.869" x2="864.249" y2="313.869" stroke="rgb(255,0,0)" stroke-width="0.705556"/>
		<line x1="864.249" y1="313.869" x2="864.249" y2="416.519" stroke="rgb(255,0,0)" stroke-width="0.705556"/>
		<line x1="864.249" y1="416.519" x2="1142.55" y2="416.519" stroke="rgb(255,0,0)" stroke-width="0.705556"/>
		<line x1="1142.55" y1="416.519" x2="1142.55" y2="313.869" stroke="rgb(255,0,0)" stroke-width="0.705556"/>
		<line x1="1142.55" y1="313.869" x2="1144.05" y2="313.869" stroke="rgb(255,0,0)" stroke-width="0.705556"/>
		<line x1="864.249" y1="315.869" x2="1142.55" y2="315.869" stroke="rgb(255,255,0)" stroke-width="0.705556"/>
		<line x1="1144.05" y1="166.569" x2="1142.55" y2="166.569" stroke="rgb(255,0,0)" stroke-width="0.705556"/>
		<line x1="1142.55" y1="166.569" x2="1142.55" y2="63.9187" stroke="rgb(255,0,0)" stroke-width="0.705556"/>
		<line x1="1142.55" y1="63.9187" x2="864.249" y2="63.9187" stroke="rgb(255,0,0)" stroke-width="0.705556"/>
		<line x1="864.249" y1="63.9187" x2="864.249" y2="166.569" stroke="rgb(255,0,0)" stroke-width="0.705556"/>
		<line x1="864.249" y1="166.569" x2="862.749" y2="166.569" stroke="rgb(255,0,0)" stroke-width="0.705556"/>
		<line x1="1142.55" y1="164.569" x2="864.249" y2="164.569" stroke="rgb(255,255,0)" stroke-width="0.705556"/>
		<line x1="661.449" y1="166.569" x2="659.949" y2="166.569" stroke="rgb(255,0,0)" stroke-width="0.705556"/>
		<line x1="659.949" y1="166.569" x2="659.949" y2="63.9187" stroke="rgb(255,0,0)" stroke-width="0.705556"/>
		<line x1="659.949" y1="63.9187" x2="381.649" y2="63.9187" stroke="rgb(255,0,0)" stroke-width="0.705556"/>
		<line x1="381.649" y1="63.9187" x2="381.649" y2="166.569" stroke="rgb(255,0,0)" stroke-width="0.705556"/>
		<line x1="381.649" y1="166.569" x2="380.149" y2="166.569" stroke="rgb(255,0,0)" stroke-width="0.705556"/>
		<line x1="659.949" y1="164.569" x2="381.649" y2="164.569" stroke="rgb(255,255,0)" stroke-width="0.705556"/>
		<line x1="661.449" y1="313.869" x2="662.949" y2="313.869" stroke="rgb(255,0,0)" stroke-width="0.705556"/>
		<line x1="662.949" y1="313.869" x2="662.949" y2="416.519" stroke="rgb(255,0,0)" stroke-width="0.705556"/>
		<line x1="662.949" y1="416.519" x2="861.249" y2="416.519" stroke="rgb(255,0,0)" stroke-width="0.705556"/>
		<line x1="861.249" y1="416.519" x2="861.249" y2="313.869" stroke="rgb(255,0,0)" stroke-width="0.705556"/>
		<line x1="861.249" y1="313.869" x2="862.749" y2="313.869" stroke="rgb(255,0,0)" stroke-width="0.705556"/>
		<line x1="662.949" y1="315.869" x2="861.249" y2="315.869" stroke="rgb(255,255,0)" stroke-width="0.705556"/>
		<line x1="862.749" y1="166.569" x2="861.249" y2="166.569" stroke="rgb(255,0,0)" stroke-width="0.705556"/>
		<line x1="861.249" y1="166.569" x2="861.249" y2="63.9187" stroke="rgb(255,0,0)" stroke-width="0.705556"/>
		<line x1="861.249" y1="63.9187" x2="662.949" y2="63.9187" stroke="rgb(255,0,0)" stroke-width="0.705556"/>
		<line x1="662.949" y1="63.9187" x2="662.949" y2="166.569" stroke="rgb(255,0,0)" stroke-width="0.705556"/>
		<line x1="662.949" y1="166.569" x2="661.449" y2="166.569" stroke="rgb(255,0,0)" stroke-width="0.705556"/>
		<line x1="861.249" y1="164.569" x2="662.949" y2="164.569" stroke="rgb(255,255,0)" stroke-width="0.705556"/>
		<line x1="1144.05" y1="313.869" x2="1145.55" y2="313.869" stroke="rgb(255,0,0)" stroke-width="0.705556"/>
		<line x1="1145.55" y1="313.869" x2="1145.55" y2="416.519" stroke="rgb(255,0,0)" stroke-width="0.705556"/>
		<line x1="1145.55" y1="416.519" x2="1297.38" y2="416.519" stroke="rgb(255,0,0)" stroke-width="0.705556"/>
		<line x1="1297.38" y1="416.519" x2="1297.38" y2="313.869" stroke="rgb(255,0,0)" stroke-width="0.705556"/>
		<line x1="1297.38" y1="313.869" x2="1297.38" y2="313.869" stroke="rgb(255,0,0)" stroke-width="0.705556"/>
		<line x1="1145.55" y1="315.869" x2="1297.38" y2="315.869" stroke="rgb(255,255,0)" stroke-width="0.705556"/>
		<line x1="380.149" y1="313.869" x2="378.649" y2="313.869" stroke="rgb(255,0,0)" stroke-width="0.705556"/>
		<line x1="378.649" y1="313.869" x2="378.649" y2="416.519" stroke="rgb(255,0,0)" stroke-width="0.705556"/>
		<line x1="378.649" y1="416.519" x2="313.482" y2="416.519" stroke="rgb(255,0,0)" stroke-width="0.705556"/>
		<line x1="313.482" y1="416.519" x2="313.482" y2="313.869" stroke="rgb(255,0,0)" stroke-width="0.705556"/>
		<line x1="313.482" y1="313.869" x2="313.482" y2="313.869" stroke="rgb(255,0,0)" stroke-width="0.705556"/>
		<line x1="378.649" y1="315.869" x2="313.482" y2="315.869" stroke="rgb(255,255,0)" stroke-width="0.705556"/>
		<line x1="380.149" y1="166.569" x2="378.649" y2="166.569" stroke="rgb(255,0,0)" stroke-width="0.705556"/>
		<line x1="378.649" y1="166.569" x2="378.649" y2="63.9187" stroke="rgb(255,0,0)" stroke-width="0.705556"/>
		<line x1="378.649" y1="63.9187" x2="313.482" y2="63.9187" stroke="rgb(255,0,0)" stroke-width="0.705556"/>
		<line x1="313.482" y1="63.9187" x2="313.482" y2="166.569" stroke="rgb(255,0,0)" stroke-width="0.705556"/>
		<line x1="313.482" y1="166.569" x2="313.482" y2="166.569" stroke="rgb(255,0,0)" stroke-width="0.705556"/>
		<line x1="378.649" y1="164.569" x2="313.482" y2="164.569" stroke="rgb(255,255,0)" stroke-width="0.705556"/>
		<line x1="1144.05" y1="166.569" x2="1145.55" y2="166.569" stroke="rgb(255,0,0)" stroke-width="0.705556"/>
		<line x1="1145.55" y1="166.569" x2="1145.55" y2="63.9187" stroke="rgb(255,0,0)" stroke-width="0.705556"/>
		<line x1="1145.55" y1="63.9187" x2="1297.38" y2="63.9187" stroke="rgb(255,0,0)" stroke-width="0.705556"/>
		<line x1="1297.38" y1="63.9187" x2="1297.38" y2="166.569" stroke="rgb(255,0,0)" stroke-width="0.705556"/>
		<line x1="1297.38" y1="166.569" x2="1297.38" y2="166.569" stroke="rgb(255,0,0)" stroke-width="0.705556"/>
		<line x1="1145.55" y1="164.569" x2="1297.38" y2="164.569" stroke="rgb(255,255,0)" stroke-width="0.705556"/>
		<line x1="762.099" y1="227.183" x2="762.099" y2="199.569" stroke="rgb(64,128,128)" stroke-width="0"/>
		<line x1="770.583" y1="208.774" x2="770.583" y2="199.569" stroke="rgb(64,128,128)" stroke-width="0"/>
		<line x1="766.341" y1="217.979" x2="766.341" y2="199.569" stroke="rgb(64,128,128)" stroke-width="0"/>
		<line x1="757.857" y1="236.388" x2="757.857" y2="199.569" stroke="rgb(64,128,128)" stroke-width="0"/>
		<line x1="753.615" y1="245.593" x2="753.615" y2="199.569" stroke="rgb(64,128,128)" stroke-width="0"/>
		<line x1="749.373" y1="254.798" x2="749.373" y2="199.569" stroke="rgb(64,128,128)" stroke-width="0"/>
		<line x1="774.825" y1="199.569" x2="749.373" y2="199.569" stroke="rgb(64,128,128)" stroke-width="0"/>
		<line x1="749.373" y1="254.798" x2="777.647" y2="226.481" stroke="rgb(64,128,128)" stroke-width="0"/>
		<path d="M777.647,226.481 a26.6045 26.6045 0 0 1 -2.82257,-26.9118" fill="none" stroke="rgb(64,128,128)" stroke-width="0"/>
		<line x1="774.825" y1="199.569" x2="749.373" y2="254.798" stroke="rgb(64,128,128)" stroke-width="0"/>
	</g>
</svg>