<svg version = "1.1" xmlns = "http://www.w3.org/2000/svg" xmlns:xlink="http://www.w3.org/1999/xlink" width="483.306" height="405.906" viewbox = "0 0 483.306 405.906">
	<g transform="translate(-0.250184,406.253) scale(1,-1) ">
		<line x1="102.753" y1="305.25" x2="102.753" y2="405.9" stroke="rgb(255,0,0)" stroke-width="0.705556"/>
		<line x1="102.753" y1="405.9" x2="381.053" y2="405.9" stroke="rgb(255,0,0)" stroke-width="0.705556"/>
		<line x1="381.053" y1="405.9" x2="381.053" y2="305.25" stroke="rgb(255,0,0)" stroke-width="0.705556"/>
		<line x1="483.203" y1="303.95" x2="483.203" y2="102.65" stroke="rgb(255,0,0)" stroke-width="0.705556"/>
		<line x1="381.053" y1="101.35" x2="381.053" y2="0.7" stroke="rgb(255,0,0)" stroke-width="0.705556"/>
		<line x1="381.053" y1="0.7" x2="102.753" y2="0.7" stroke="rgb(255,0,0)" stroke-width="0.705556"/>
		<line x1="102.753" y1="0.7" x2="102.753" y2="101.35" stroke="rgb(255,0,0)" stroke-width="0.705556"/>
		<line x1="0.602962" y1="303.95" x2="0.602962" y2="102.65" stroke="rgb(255,0,0)" stroke-width="0.705556"/>
		<line x1="381.053" y1="305.25" x2="102.753" y2="305.25" stroke="rgb(255,255,0)" stroke-width="0.705556"/>
		<line x1="101.253" y1="303.95" x2="101.253" y2="102.65" stroke="rgb(255,255,0)" stroke-width="0.705556"/>
		<line x1="102.753" y1="101.35" x2="381.053" y2="101.35" stroke="rgb(255,255,0)" stroke-width="0.705556"/>
		<line x1="382.553" y1="102.65" x2="382.553" y2="303.95" stroke="rgb(255,255,0)" stroke-width="0.705556"/>
		<line x1="101.253" y1="303.95" x2="102.753" y2="303.95" stroke="rgb(255,0,0)" stroke-width="0.705556"/>
		<line x1="102.753" y1="303.95" x2="102.753" y2="305.25" stroke="rgb(255,0,0)" stroke-width="0.705556"/>
		<line x1="381.053" y1="305.25" x2="381.053" y2="303.95" stroke="rgb(255,0,0)" stroke-width="0.705556"/>
		<line x1="381.053" y1="303.95" x2="382.553" y2="303.95" stroke="rgb(255,0,0)" stroke-width="0.705556"/>
		<line x1="381.053" y1="101.35" x2="381.053" y2="102.65" stroke="rgb(255,0,0)" stroke-width="0.705556"/>
		<line x1="381.053" y1="102.65" x2="382.553" y2="102.65" stroke="rgb(255,0,0)" stroke-width="0.705556"/>
		<line x1="101.253" y1="102.65" x2="102.753" y2="102.65" stroke="rgb(255,0,0)" stroke-width="0.705556"/>
		<line x1="102.753" y1="102.65" x2="102.753" y2="101.35" stroke="rgb(255,0,0)" stroke-width="0.705556"/>
		<line x1="0.602962" y1="303.95" x2="0.602962" y2="303.95" stroke="rgb(255,0,0)" stroke-width="0.705556"/>
		<line x1="0.602962" y1="303.95" x2="0.602962" y2="405.9" stroke="rgb(255,0,0)" stroke-width="0.705556"/>
		<line x1="0.602962" y1="405.9" x2="99.753" y2="405.9" stroke="rgb(255,0,0)" stroke-width="0.705556"/>
		<line x1="99.753" y1="405.9" x2="99.753" y2="303.95" stroke="rgb(255,0,0)" stroke-width="0.705556"/>
		<line x1="99.753" y1="303.95" x2="101.253" y2="303.95" stroke="rgb(255,0,0)" stroke-width="0.705556"/>
		<line x1="0.602962" y1="303.95" x2="99.753" y2="303.95" stroke="rgb(255,255,0)" stroke-width="0.705556"/>
		<line x1="483.203" y1="303.95" x2="483.203" y2="303.95" stroke="rgb(255,0,0)" stroke-width="0.705556"/>
		<line x1="483.203" y1="303.95" x2="483.203" y2="405.9" stroke="rgb(255,0,0)" stroke-width="0.705556"/>
		<line x1="483.203" y1="405.9" x2="384.053" y2="405.9" stroke="rgb(255,0,0)" stroke-width="0.705556"/>
		<line x1="384.053" y1="405.9" x2="384.053" y2="303.95" stroke="rgb(255,0,0)" stroke-width="0.705556"/>
		<line x1="384.053" y1="303.95" x2="382.553" y2="303.95" stroke="rgb(255,0,0)" stroke-width="0.705556"/>
		<line x1="483.203" y1="303.95" x2="384.053" y2="303.95" stroke="rgb(255,255,0)" stroke-width="0.705556"/>
		<line x1="483.203" y1="102.65" x2="483.203" y2="102.65" stroke="rgb(255,0,0)" stroke-width="0.705556"/>
		<line x1="483.203" y1="102.65" x2="483.203" y2="0.7" stroke="rgb(255,0,0)" stroke-width="0.705556"/>
		<line x1="483.203" y1="0.7" x2="384.053" y2="0.7" stroke="rgb(255,0,0)" stroke-width="0.705556"/>
		<line x1="384.053" y1="0.7" x2="384.053" y2="102.65" stroke="rgb(255,0,0)" stroke-width="0.705556"/>
		<line x1="384.053" y1="102.65" x2="382.553" y2="102.65" stroke="rgb(255,0,0)" stroke-width="0.705556"/>
		<line x1="483.203" y1="102.65" x2="384.053" y2="102.65" stroke="rgb(255,255,0)" stroke-width="0.705556"/>
		<line x1="0.602962" y1="102.65" x2="0.602962" y2="102.65" stroke="rgb(255,0,0)" stroke-width="0.705556"/>
		<line x1="0.602962" y1="102.65" x2="0.602962" y2="0.7" stroke="rgb(255,0,0)" stroke-width="0.705556"/>
		<line x1="0.602962" y1="0.7" x2="99.753" y2="0.7" stroke="rgb(255,0,0)" stroke-width="0.705556"/>
		<line x1="99.753" y1="0.7" x2="99.753" y2="102.65" stroke="rgb(255,0,0)" stroke-width="0.705556"/>
		<line x1="99.753" y1="102.65" x2="101.253" y2="102.65" stroke="rgb(255,0,0)" stroke-width="0.705556"/>
		<line x1="0.602962" y1="102.65" x2="99.753" y2="102.65" stroke="rgb(255,255,0)" stroke-width="0.705556"/>
		<line x1="241.903" y1="155.265" x2="241.903" y2="127.65" stroke="rgb(64,128,128)" stroke-width="0"/>
		<line x1="250.387" y1="136.855" x2="250.387" y2="127.65" stroke="rgb(64,128,128)" stroke-width="0"/>
		<line x1="246.145" y1="146.06" x2="246.145" y2="127.65" stroke="rgb(64,128,128)" stroke-width="0"/>
		<line x1="237.661" y1="164.47" x2="237.661" y2="127.65" stroke="rgb(64,128,128)" stroke-width="0"/>
		<line x1="233.419" y1="173.675" x2="233.419" y2="127.65" stroke="rgb(64,128,128)" stroke-width="0"/>
		<line x1="229.177" y1="182.88" x2="229.177" y2="127.65" stroke="rgb(64,128,128)" stroke-width="0"/>
		<line x1="254.629" y1="127.65" x2="229.177" y2="127.65" stroke="rgb(64,128,128)" stroke-width="0"/>
		<line x1="229.177" y1="182.88" x2="257.452" y2="154.562" stroke="rgb(64,128,128)" stroke-width="0"/>
		<path d="M257.452,154.562 a26.6045 26.6045 0 0 1 -2.82257,-26.9118" fill="none" stroke="rgb(64,128,128)" stroke-width="0"/>
		<line x1="254.629" y1="127.65" x2="229.177" y2="182.88" stroke="rgb(64,128,128)" stroke-width="0"/>
	</g>
</svg>