<svg version = "1.1" xmlns = "http://www.w3.org/2000/svg" xmlns:xlink="http://www.w3.org/1999/xlink" width="483.306" height="403.306" viewbox = "0 0 483.306 403.306">
	<g transform="translate(-0.521931,403.253) scale(1,-1) ">
		<line x1="103.025" y1="302.25" x2="103.025" y2="402.9" stroke="rgb(255,0,0)" stroke-width="0.705556"/>
		<line x1="103.025" y1="402.9" x2="381.325" y2="402.9" stroke="rgb(255,0,0)" stroke-width="0.705556"/>
		<line x1="381.325" y1="402.9" x2="381.325" y2="302.25" stroke="rgb(255,0,0)" stroke-width="0.705556"/>
		<line x1="382.825" y1="300.75" x2="483.475" y2="300.75" stroke="rgb(255,0,0)" stroke-width="0.705556"/>
		<line x1="483.475" y1="300.75" x2="483.475" y2="102.45" stroke="rgb(255,0,0)" stroke-width="0.705556"/>
		<line x1="483.475" y1="102.45" x2="382.825" y2="102.45" stroke="rgb(255,0,0)" stroke-width="0.705556"/>
		<line x1="381.325" y1="100.95" x2="381.325" y2="0.3" stroke="rgb(255,0,0)" stroke-width="0.705556"/>
		<line x1="381.325" y1="0.3" x2="103.025" y2="0.3" stroke="rgb(255,0,0)" stroke-width="0.705556"/>
		<line x1="103.025" y1="0.3" x2="103.025" y2="100.95" stroke="rgb(255,0,0)" stroke-width="0.705556"/>
		<line x1="101.525" y1="300.75" x2="0.874709" y2="300.75" stroke="rgb(255,0,0)" stroke-width="0.705556"/>
		<line x1="0.874709" y1="300.75" x2="0.874709" y2="102.45" stroke="rgb(255,0,0)" stroke-width="0.705556"/>
		<line x1="0.874709" y1="102.45" x2="101.525" y2="102.45" stroke="rgb(255,0,0)" stroke-width="0.705556"/>
		<line x1="381.325" y1="302.25" x2="103.025" y2="302.25" stroke="rgb(255,255,0)" stroke-width="0.705556"/>
		<line x1="101.525" y1="300.75" x2="101.525" y2="102.45" stroke="rgb(255,255,0)" stroke-width="0.705556"/>
		<line x1="103.025" y1="100.95" x2="381.325" y2="100.95" stroke="rgb(255,255,0)" stroke-width="0.705556"/>
		<line x1="382.825" y1="102.45" x2="382.825" y2="300.75" stroke="rgb(255,255,0)" stroke-width="0.705556"/>
		<line x1="101.525" y1="300.75" x2="103.025" y2="300.75" stroke="rgb(255,0,0)" stroke-width="0.705556"/>
		<line x1="103.025" y1="300.75" x2="103.025" y2="302.25" stroke="rgb(255,0,0)" stroke-width="0.705556"/>
		<line x1="381.325" y1="302.25" x2="381.325" y2="300.75" stroke="rgb(255,0,0)" stroke-width="0.705556"/>
		<line x1="381.325" y1="300.75" x2="382.825" y2="300.75" stroke="rgb(255,0,0)" stroke-width="0.705556"/>
		<line x1="381.325" y1="100.95" x2="381.325" y2="102.45" stroke="rgb(255,0,0)" stroke-width="0.705556"/>
		<line x1="381.325" y1="102.45" x2="382.825" y2="102.45" stroke="rgb(255,0,0)" stroke-width="0.705556"/>
		<line x1="101.525" y1="102.45" x2="103.025" y2="102.45" stroke="rgb(255,0,0)" stroke-width="0.705556"/>
		<line x1="103.025" y1="102.45" x2="103.025" y2="100.95" stroke="rgb(255,0,0)" stroke-width="0.705556"/>
		<line x1="242.175" y1="153.565" x2="242.175" y2="125.95" stroke="rgb(64,128,128)" stroke-width="0"/>
		<line x1="250.659" y1="135.155" x2="250.659" y2="125.95" stroke="rgb(64,128,128)" stroke-width="0"/>
		<line x1="246.417" y1="144.36" x2="246.417" y2="125.95" stroke="rgb(64,128,128)" stroke-width="0"/>
		<line x1="237.933" y1="162.77" x2="237.933" y2="125.95" stroke="rgb(64,128,128)" stroke-width="0"/>
		<line x1="233.691" y1="171.975" x2="233.691" y2="125.95" stroke="rgb(64,128,128)" stroke-width="0"/>
		<line x1="229.449" y1="181.18" x2="229.449" y2="125.95" stroke="rgb(64,128,128)" stroke-width="0"/>
		<line x1="254.901" y1="125.95" x2="229.449" y2="125.95" stroke="rgb(64,128,128)" stroke-width="0"/>
		<line x1="229.449" y1="181.18" x2="257.723" y2="152.862" stroke="rgb(64,128,128)" stroke-width="0"/>
		<path d="M257.723,152.862 a26.6045 26.6045 0 0 1 -2.82257,-26.9118" fill="none" stroke="rgb(64,128,128)" stroke-width="0"/>
		<line x1="254.901" y1="125.95" x2="229.449" y2="181.18" stroke="rgb(64,128,128)" stroke-width="0"/>
	</g>
</svg>