<svg version = "1.1" xmlns = "http://www.w3.org/2000/svg" xmlns:xlink="http://www.w3.org/1999/xlink" width="483.306" height="405.906" viewbox = "0 0 483.306 405.906">
	<g transform="translate(-1.79363,403.253) scale(1,-1) ">
		<line x1="102.796" y1="302.25" x2="102.796" y2="402.9" stroke="rgb(255,0,0)" stroke-width="0.705556"/>
		<line x1="102.796" y1="402.9" x2="384.096" y2="402.9" stroke="rgb(255,0,0)" stroke-width="0.705556"/>
		<line x1="384.096" y1="402.9" x2="384.096" y2="302.25" stroke="rgb(255,0,0)" stroke-width="0.705556"/>
		<line x1="484.746" y1="302.25" x2="484.746" y2="98.35" stroke="rgb(255,0,0)" stroke-width="0.705556"/>
		<line x1="384.096" y1="98.35" x2="384.096" y2="-2.3" stroke="rgb(255,0,0)" stroke-width="0.705556"/>
		<line x1="384.096" y1="-2.3" x2="102.796" y2="-2.3" stroke="rgb(255,0,0)" stroke-width="0.705556"/>
		<line x1="102.796" y1="-2.3" x2="102.796" y2="98.35" stroke="rgb(255,0,0)" stroke-width="0.705556"/>
		<line x1="2.14641" y1="302.25" x2="2.14641" y2="98.35" stroke="rgb(255,0,0)" stroke-width="0.705556"/>
		<line x1="384.096" y1="302.25" x2="102.796" y2="302.25" stroke="rgb(255,255,0)" stroke-width="0.705556"/>
		<line x1="102.796" y1="302.25" x2="102.796" y2="98.35" stroke="rgb(255,255,0)" stroke-width="0.705556"/>
		<line x1="102.796" y1="98.35" x2="384.096" y2="98.35" stroke="rgb(255,255,0)" stroke-width="0.705556"/>
		<line x1="384.096" y1="98.35" x2="384.096" y2="302.25" stroke="rgb(255,255,0)" stroke-width="0.705556"/>
		<line x1="102.796" y1="302.25" x2="102.796" y2="302.25" stroke="rgb(255,0,0)" stroke-width="0.705556"/>
		<line x1="102.796" y1="302.25" x2="102.796" y2="302.25" stroke="rgb(255,0,0)" stroke-width="0.705556"/>
		<line x1="384.096" y1="302.25" x2="384.096" y2="302.25" stroke="rgb(255,0,0)" stroke-width="0.705556"/>
		<line x1="384.096" y1="302.25" x2="384.096" y2="302.25" stroke="rgb(255,0,0)" stroke-width="0.705556"/>
		<line x1="384.096" y1="98.35" x2="384.096" y2="98.35" stroke="rgb(255,0,0)" stroke-width="0.705556"/>
		<line x1="384.096" y1="98.35" x2="384.096" y2="98.35" stroke="rgb(255,0,0)" stroke-width="0.705556"/>
		<line x1="102.796" y1="98.35" x2="102.796" y2="98.35" stroke="rgb(255,0,0)" stroke-width="0.705556"/>
		<line x1="102.796" y1="98.35" x2="102.796" y2="98.35" stroke="rgb(255,0,0)" stroke-width="0.705556"/>
		<line x1="135.796" y1="327.25" x2="162.146" y2="363.9" stroke="rgb(255,0,0)" stroke-width="0.705556"/>
		<line x1="162.146" y1="363.9" x2="177.146" y2="363.9" stroke="rgb(255,0,0)" stroke-width="0.705556"/>
		<line x1="351.096" y1="327.25" x2="324.746" y2="363.9" stroke="rgb(255,0,0)" stroke-width="0.705556"/>
		<line x1="324.746" y1="363.9" x2="309.746" y2="363.9" stroke="rgb(255,0,0)" stroke-width="0.705556"/>
		<line x1="2.14641" y1="302.25" x2="2.14641" y2="302.25" stroke="rgb(255,0,0)" stroke-width="0.705556"/>
		<line x1="2.14641" y1="303.55" x2="102.796" y2="303.55" stroke="rgb(255,255,0)" stroke-width="0.705556"/>
		<line x1="2.14641" y1="302.25" x2="2.14641" y2="348.755" stroke="rgb(255,0,0)" stroke-width="0.705556"/>
		<line x1="2.14641" y1="348.755" x2="42.7964" y2="363.55" stroke="rgb(255,0,0)" stroke-width="0.705556"/>
		<line x1="42.7964" y1="363.55" x2="35.7253" y2="370.621" stroke="rgb(255,0,0)" stroke-width="0.705556"/>
		<path d="M35.7253,370.621 a26.2132 26.2132 0 1 0 37.0711,-37.0711" fill="none" stroke="rgb(255,0,0)" stroke-width="0.705556"/>
		<line x1="102.796" y1="302.25" x2="102.796" y2="303.55" stroke="rgb(255,0,0)" stroke-width="0.705556"/>
		<line x1="102.796" y1="303.55" x2="72.7964" y2="333.55" stroke="rgb(255,0,0)" stroke-width="0.705556"/>
		<line x1="484.746" y1="302.25" x2="484.746" y2="302.25" stroke="rgb(255,0,0)" stroke-width="0.705556"/>
		<line x1="484.746" y1="303.55" x2="384.096" y2="303.55" stroke="rgb(255,255,0)" stroke-width="0.705556"/>
		<line x1="484.746" y1="302.25" x2="484.746" y2="348.755" stroke="rgb(255,0,0)" stroke-width="0.705556"/>
		<line x1="484.746" y1="348.755" x2="444.096" y2="363.55" stroke="rgb(255,0,0)" stroke-width="0.705556"/>
		<line x1="444.096" y1="363.55" x2="451.167" y2="370.621" stroke="rgb(255,0,0)" stroke-width="0.705556"/>
		<path d="M451.167,370.621 a26.2132 26.2132 0 0 1 -37.0711,-37.0711" fill="none" stroke="rgb(255,0,0)" stroke-width="0.705556"/>
		<line x1="384.096" y1="302.25" x2="384.096" y2="303.55" stroke="rgb(255,0,0)" stroke-width="0.705556"/>
		<line x1="384.096" y1="303.55" x2="414.096" y2="333.55" stroke="rgb(255,0,0)" stroke-width="0.705556"/>
		<line x1="135.796" y1="73.35" x2="162.146" y2="36.7" stroke="rgb(255,0,0)" stroke-width="0.705556"/>
		<line x1="162.146" y1="36.7" x2="177.146" y2="36.7" stroke="rgb(255,0,0)" stroke-width="0.705556"/>
		<line x1="351.096" y1="73.35" x2="324.746" y2="36.7" stroke="rgb(255,0,0)" stroke-width="0.705556"/>
		<line x1="324.746" y1="36.7" x2="309.746" y2="36.7" stroke="rgb(255,0,0)" stroke-width="0.705556"/>
		<line x1="2.14641" y1="98.35" x2="2.14641" y2="98.35" stroke="rgb(255,0,0)" stroke-width="0.705556"/>
		<line x1="2.14641" y1="97.05" x2="102.796" y2="97.05" stroke="rgb(255,255,0)" stroke-width="0.705556"/>
		<line x1="2.14641" y1="98.35" x2="2.14641" y2="51.8454" stroke="rgb(255,0,0)" stroke-width="0.705556"/>
		<line x1="2.14641" y1="51.8454" x2="42.7964" y2="37.05" stroke="rgb(255,0,0)" stroke-width="0.705556"/>
		<line x1="42.7964" y1="37.05" x2="35.7253" y2="29.9789" stroke="rgb(255,0,0)" stroke-width="0.705556"/>
		<path d="M35.7253,29.9789 a26.2132 26.2132 0 0 1 37.0711,37.0711" fill="none" stroke="rgb(255,0,0)" stroke-width="0.705556"/>
		<line x1="102.796" y1="98.35" x2="102.796" y2="97.05" stroke="rgb(255,0,0)" stroke-width="0.705556"/>
		<line x1="102.796" y1="97.05" x2="72.7964" y2="67.05" stroke="rgb(255,0,0)" stroke-width="0.705556"/>
		<line x1="484.746" y1="98.35" x2="484.746" y2="98.35" stroke="rgb(255,0,0)" stroke-width="0.705556"/>
		<line x1="484.746" y1="97.05" x2="384.096" y2="97.05" stroke="rgb(255,255,0)" stroke-width="0.705556"/>
		<line x1="484.746" y1="98.35" x2="484.746" y2="51.8454" stroke="rgb(255,0,0)" stroke-width="0.705556"/>
		<line x1="484.746" y1="51.8454" x2="444.096" y2="37.05" stroke="rgb(255,0,0)" stroke-width="0.705556"/>
		<line x1="444.096" y1="37.05" x2="451.167" y2="29.9789" stroke="rgb(255,0,0)" stroke-width="0.705556"/>
		<path d="M451.167,29.9789 a26.2132 26.2132 0 0 0 -37.0711,37.0711" fill="none" stroke="rgb(255,0,0)" stroke-width="0.705556"/>
		<line x1="384.096" y1="98.35" x2="384.096" y2="97.05" stroke="rgb(255,0,0)" stroke-width="0.705556"/>
		<line x1="384.096" y1="97.05" x2="414.096" y2="67.05" stroke="rgb(255,0,0)" stroke-width="0.705556"/>
		<line x1="484.746" y1="98.35" x2="484.746" y2="98.35" stroke="rgb(255,0,0)" stroke-width="0.705556"/>
		<line x1="484.746" y1="302.25" x2="484.746" y2="302.25" stroke="rgb(255,0,0)" stroke-width="0.705556"/>
		<line x1="2.14641" y1="302.25" x2="2.14641" y2="302.25" stroke="rgb(255,0,0)" stroke-width="0.705556"/>
		<line x1="2.14641" y1="98.35" x2="2.14641" y2="98.35" stroke="rgb(255,0,0)" stroke-width="0.705556"/>
		<line x1="243.446" y1="150.965" x2="243.446" y2="123.35" stroke="rgb(64,128,128)" stroke-width="0"/>
		<line x1="251.93" y1="132.555" x2="251.93" y2="123.35" stroke="rgb(64,128,128)" stroke-width="0"/>
		<line x1="247.688" y1="141.76" x2="247.688" y2="123.35" stroke="rgb(64,128,128)" stroke-width="0"/>
		<line x1="239.204" y1="160.17" x2="239.204" y2="123.35" stroke="rgb(64,128,128)" stroke-width="0"/>
		<line x1="234.962" y1="169.375" x2="234.962" y2="123.35" stroke="rgb(64,128,128)" stroke-width="0"/>
		<line x1="230.72" y1="178.58" x2="230.72" y2="123.35" stroke="rgb(64,128,128)" stroke-width="0"/>
		<line x1="256.172" y1="123.35" x2="230.72" y2="123.35" stroke="rgb(64,128,128)" stroke-width="0"/>
		<line x1="230.72" y1="178.58" x2="258.995" y2="150.262" stroke="rgb(64,128,128)" stroke-width="0"/>
		<path d="M258.995,150.262 a26.6045 26.6045 0 0 1 -2.82257,-26.9118" fill="none" stroke="rgb(64,128,128)" stroke-width="0"/>
		<line x1="256.172" y1="123.35" x2="230.72" y2="178.58" stroke="rgb(64,128,128)" stroke-width="0"/>
	</g>
</svg>