<svg version = "1.1" xmlns = "http://www.w3.org/2000/svg" xmlns:xlink="http://www.w3.org/1999/xlink" width="483.306" height="403.306" viewbox = "0 0 483.306 403.306">
	<g transform="translate(-1.72593,404.769) scale(1,-1) ">
		<line x1="243.379" y1="155.081" x2="243.379" y2="127.467" stroke="rgb(64,128,128)" stroke-width="0"/>
		<line x1="251.863" y1="136.672" x2="251.863" y2="127.467" stroke="rgb(64,128,128)" stroke-width="0"/>
		<line x1="247.621" y1="145.876" x2="247.621" y2="127.467" stroke="rgb(64,128,128)" stroke-width="0"/>
		<line x1="239.137" y1="164.286" x2="239.137" y2="127.467" stroke="rgb(64,128,128)" stroke-width="0"/>
		<line x1="234.895" y1="173.491" x2="234.895" y2="127.467" stroke="rgb(64,128,128)" stroke-width="0"/>
		<line x1="230.653" y1="182.696" x2="230.653" y2="127.467" stroke="rgb(64,128,128)" stroke-width="0"/>
		<line x1="256.105" y1="127.467" x2="230.653" y2="127.467" stroke="rgb(64,128,128)" stroke-width="0"/>
		<line x1="230.653" y1="182.696" x2="258.927" y2="154.378" stroke="rgb(64,128,128)" stroke-width="0"/>
		<path d="M258.927,154.378 a26.6045 26.6045 0 0 1 -2.82257,-26.9118" fill="none" stroke="rgb(64,128,128)" stroke-width="0"/>
		<line x1="256.105" y1="127.467" x2="230.653" y2="182.696" stroke="rgb(64,128,128)" stroke-width="0"/>
		<line x1="102.729" y1="303.767" x2="104.229" y2="303.767" stroke="rgb(255,0,0)" stroke-width="0.705556"/>
		<line x1="104.229" y1="303.767" x2="104.229" y2="404.417" stroke="rgb(255,0,0)" stroke-width="0.705556"/>
		<line x1="104.229" y1="404.417" x2="382.529" y2="404.417" stroke="rgb(255,0,0)" stroke-width="0.705556"/>
		<line x1="382.529" y1="404.417" x2="382.529" y2="303.767" stroke="rgb(255,0,0)" stroke-width="0.705556"/>
		<line x1="382.529" y1="303.767" x2="384.029" y2="303.767" stroke="rgb(255,0,0)" stroke-width="0.705556"/>
		<line x1="104.229" y1="303.767" x2="382.529" y2="303.767" stroke="rgb(255,255,0)" stroke-width="0.705556"/>
		<line x1="384.029" y1="102.467" x2="382.529" y2="102.467" stroke="rgb(255,0,0)" stroke-width="0.705556"/>
		<line x1="382.529" y1="102.467" x2="382.529" y2="1.81664" stroke="rgb(255,0,0)" stroke-width="0.705556"/>
		<line x1="382.529" y1="1.81664" x2="104.229" y2="1.81664" stroke="rgb(255,0,0)" stroke-width="0.705556"/>
		<line x1="104.229" y1="1.81664" x2="104.229" y2="102.467" stroke="rgb(255,0,0)" stroke-width="0.705556"/>
		<line x1="104.229" y1="102.467" x2="102.729" y2="102.467" stroke="rgb(255,0,0)" stroke-width="0.705556"/>
		<line x1="382.529" y1="102.467" x2="104.229" y2="102.467" stroke="rgb(255,255,0)" stroke-width="0.705556"/>
		<line x1="484.679" y1="303.767" x2="484.679" y2="102.467" stroke="rgb(255,0,0)" stroke-width="0.705556"/>
		<line x1="384.029" y1="102.467" x2="384.029" y2="303.767" stroke="rgb(255,255,0)" stroke-width="0.705556"/>
		<line x1="2.07871" y1="102.467" x2="2.07871" y2="303.767" stroke="rgb(255,0,0)" stroke-width="0.705556"/>
		<line x1="102.729" y1="303.767" x2="102.729" y2="102.467" stroke="rgb(255,255,0)" stroke-width="0.705556"/>
		<line x1="484.679" y1="303.767" x2="484.679" y2="303.767" stroke="rgb(255,0,0)" stroke-width="0.705556"/>
		<line x1="484.679" y1="303.767" x2="484.679" y2="404.417" stroke="rgb(255,0,0)" stroke-width="0.705556"/>
		<line x1="484.679" y1="404.417" x2="385.529" y2="404.417" stroke="rgb(255,0,0)" stroke-width="0.705556"/>
		<line x1="385.529" y1="404.417" x2="385.529" y2="303.767" stroke="rgb(255,0,0)" stroke-width="0.705556"/>
		<line x1="385.529" y1="303.767" x2="384.029" y2="303.767" stroke="rgb(255,0,0)" stroke-width="0.705556"/>
		<line x1="484.679" y1="305.067" x2="385.529" y2="305.067" stroke="rgb(255,255,0)" stroke-width="0.705556"/>
		<line x1="385.529" y1="306.567" x2="483.379" y2="404.417" stroke="rgb(255,255,0)" stroke-width="0.705556"/>
		<line x1="2.07871" y1="303.767" x2="2.07871" y2="303.767" stroke="rgb(255,0,0)" stroke-width="0.705556"/>
		<line x1="2.07871" y1="303.767" x2="2.07871" y2="404.417" stroke="rgb(255,0,0)" stroke-width="0.705556"/>
		<line x1="2.07871" y1="404.417" x2="101.229" y2="404.417" stroke="rgb(255,0,0)" stroke-width="0.705556"/>
		<line x1="101.229" y1="404.417" x2="101.229" y2="303.767" stroke="rgb(255,0,0)" stroke-width="0.705556"/>
		<line x1="101.229" y1="303.767" x2="102.729" y2="303.767" stroke="rgb(255,0,0)" stroke-width="0.705556"/>
		<line x1="2.07871" y1="305.067" x2="101.229" y2="305.067" stroke="rgb(255,255,0)" stroke-width="0.705556"/>
		<line x1="101.229" y1="306.567" x2="3.37871" y2="404.417" stroke="rgb(255,255,0)" stroke-width="0.705556"/>
		<line x1="2.07871" y1="102.467" x2="2.07871" y2="102.467" stroke="rgb(255,0,0)" stroke-width="0.705556"/>
		<line x1="2.07871" y1="102.467" x2="2.07871" y2="1.81664" stroke="rgb(255,0,0)" stroke-width="0.705556"/>
		<line x1="2.07871" y1="1.81664" x2="101.229" y2="1.81664" stroke="rgb(255,0,0)" stroke-width="0.705556"/>
		<line x1="101.229" y1="1.81664" x2="101.229" y2="102.467" stroke="rgb(255,0,0)" stroke-width="0.705556"/>
		<line x1="101.229" y1="102.467" x2="102.729" y2="102.467" stroke="rgb(255,0,0)" stroke-width="0.705556"/>
		<line x1="2.07871" y1="101.167" x2="101.229" y2="101.167" stroke="rgb(255,255,0)" stroke-width="0.705556"/>
		<line x1="101.229" y1="99.6666" x2="3.37871" y2="1.81664" stroke="rgb(255,255,0)" stroke-width="0.705556"/>
		<line x1="484.679" y1="102.467" x2="484.679" y2="102.467" stroke="rgb(255,0,0)" stroke-width="0.705556"/>
		<line x1="484.679" y1="102.467" x2="484.679" y2="1.81664" stroke="rgb(255,0,0)" stroke-width="0.705556"/>
		<line x1="484.679" y1="1.81664" x2="385.529" y2="1.81664" stroke="rgb(255,0,0)" stroke-width="0.705556"/>
		<line x1="385.529" y1="1.81664" x2="385.529" y2="102.467" stroke="rgb(255,0,0)" stroke-width="0.705556"/>
		<line x1="385.529" y1="102.467" x2="384.029" y2="102.467" stroke="rgb(255,0,0)" stroke-width="0.705556"/>
		<line x1="484.679" y1="101.167" x2="385.529" y2="101.167" stroke="rgb(255,255,0)" stroke-width="0.705556"/>
		<line x1="385.529" y1="99.6666" x2="483.379" y2="1.81664" stroke="rgb(255,255,0)" stroke-width="0.705556"/>
	</g>
</svg>