<svg version = "1.1" xmlns = "http://www.w3.org/2000/svg" xmlns:xlink="http://www.w3.org/1999/xlink" width="483.306" height="403.306" viewbox = "0 0 483.306 403.306">
	<g transform="translate(-31.92,426.876) scale(1,-1) ">
		<line x1="132.923" y1="426.523" x2="414.223" y2="426.523" stroke="rgb(255,0,0)" stroke-width="0.705556"/>
		<line x1="414.223" y1="325.873" x2="132.923" y2="325.873" stroke="rgb(255,255,0)" stroke-width="0.705556"/>
		<line x1="414.223" y1="23.9228" x2="132.923" y2="23.9228" stroke="rgb(255,0,0)" stroke-width="0.705556"/>
		<line x1="132.923" y1="124.573" x2="414.223" y2="124.573" stroke="rgb(255,255,0)" stroke-width="0.705556"/>
		<line x1="514.873" y1="325.873" x2="514.873" y2="124.573" stroke="rgb(255,0,0)" stroke-width="0.705556"/>
		<line x1="414.223" y1="124.573" x2="414.223" y2="325.873" stroke="rgb(255,255,0)" stroke-width="0.705556"/>
		<line x1="32.2728" y1="124.573" x2="32.2728" y2="325.873" stroke="rgb(255,0,0)" stroke-width="0.705556"/>
		<line x1="132.923" y1="325.873" x2="132.923" y2="124.573" stroke="rgb(255,255,0)" stroke-width="0.705556"/>
		<line x1="414.223" y1="426.523" x2="414.223" y2="426.523" stroke="rgb(255,0,0)" stroke-width="0.705556"/>
		<line x1="414.223" y1="426.523" x2="514.873" y2="426.523" stroke="rgb(255,0,0)" stroke-width="0.705556"/>
		<line x1="514.873" y1="426.523" x2="514.873" y2="325.873" stroke="rgb(255,0,0)" stroke-width="0.705556"/>
		<line x1="414.223" y1="426.523" x2="414.223" y2="325.873" stroke="rgb(255,255,0)" stroke-width="0.705556"/>
		<line x1="414.223" y1="325.873" x2="514.873" y2="426.523" stroke="rgb(255,255,0)" stroke-width="0.705556"/>
		<line x1="414.223" y1="325.873" x2="514.873" y2="325.873" stroke="rgb(255,255,0)" stroke-width="0.705556"/>
		<line x1="132.923" y1="426.523" x2="132.923" y2="426.523" stroke="rgb(255,0,0)" stroke-width="0.705556"/>
		<line x1="132.923" y1="426.523" x2="32.2728" y2="426.523" stroke="rgb(255,0,0)" stroke-width="0.705556"/>
		<line x1="32.2728" y1="426.523" x2="32.2728" y2="325.873" stroke="rgb(255,0,0)" stroke-width="0.705556"/>
		<line x1="132.923" y1="426.523" x2="132.923" y2="325.873" stroke="rgb(255,255,0)" stroke-width="0.705556"/>
		<line x1="132.923" y1="325.873" x2="32.2728" y2="426.523" stroke="rgb(255,255,0)" stroke-width="0.705556"/>
		<line x1="132.923" y1="325.873" x2="32.2728" y2="325.873" stroke="rgb(255,255,0)" stroke-width="0.705556"/>
		<line x1="414.223" y1="23.9228" x2="414.223" y2="23.9228" stroke="rgb(255,0,0)" stroke-width="0.705556"/>
		<line x1="414.223" y1="23.9228" x2="514.873" y2="23.9228" stroke="rgb(255,0,0)" stroke-width="0.705556"/>
		<line x1="514.873" y1="23.9228" x2="514.873" y2="124.573" stroke="rgb(255,0,0)" stroke-width="0.705556"/>
		<line x1="414.223" y1="23.9228" x2="414.223" y2="124.573" stroke="rgb(255,255,0)" stroke-width="0.705556"/>
		<line x1="414.223" y1="124.573" x2="514.873" y2="23.9228" stroke="rgb(255,255,0)" stroke-width="0.705556"/>
		<line x1="414.223" y1="124.573" x2="514.873" y2="124.573" stroke="rgb(255,255,0)" stroke-width="0.705556"/>
		<line x1="132.923" y1="23.9228" x2="132.923" y2="23.9228" stroke="rgb(255,0,0)" stroke-width="0.705556"/>
		<line x1="132.923" y1="23.9228" x2="32.2728" y2="23.9228" stroke="rgb(255,0,0)" stroke-width="0.705556"/>
		<line x1="32.2728" y1="23.9228" x2="32.2728" y2="124.573" stroke="rgb(255,0,0)" stroke-width="0.705556"/>
		<line x1="132.923" y1="23.9228" x2="132.923" y2="124.573" stroke="rgb(255,255,0)" stroke-width="0.705556"/>
		<line x1="132.923" y1="124.573" x2="32.2728" y2="23.9228" stroke="rgb(255,255,0)" stroke-width="0.705556"/>
		<line x1="132.923" y1="124.573" x2="32.2728" y2="124.573" stroke="rgb(255,255,0)" stroke-width="0.705556"/>
		<line x1="273.573" y1="187.188" x2="273.573" y2="159.573" stroke="rgb(64,128,128)" stroke-width="0"/>
		<line x1="282.057" y1="168.778" x2="282.057" y2="159.573" stroke="rgb(64,128,128)" stroke-width="0"/>
		<line x1="277.815" y1="177.983" x2="277.815" y2="159.573" stroke="rgb(64,128,128)" stroke-width="0"/>
		<line x1="269.331" y1="196.393" x2="269.331" y2="159.573" stroke="rgb(64,128,128)" stroke-width="0"/>
		<line x1="265.089" y1="205.597" x2="265.089" y2="159.573" stroke="rgb(64,128,128)" stroke-width="0"/>
		<line x1="260.847" y1="214.802" x2="260.847" y2="159.573" stroke="rgb(64,128,128)" stroke-width="0"/>
		<line x1="286.299" y1="159.573" x2="260.847" y2="159.573" stroke="rgb(64,128,128)" stroke-width="0"/>
		<line x1="260.847" y1="214.802" x2="289.121" y2="186.485" stroke="rgb(64,128,128)" stroke-width="0"/>
		<path d="M289.121,186.485 a26.6045 26.6045 0 0 1 -2.82257,-26.9118" fill="none" stroke="rgb(64,128,128)" stroke-width="0"/>
		<line x1="286.299" y1="159.573" x2="260.847" y2="214.802" stroke="rgb(64,128,128)" stroke-width="0"/>
	</g>
</svg>