<svg version = "1.1" xmlns = "http://www.w3.org/2000/svg" xmlns:xlink="http://www.w3.org/1999/xlink" width="352.572" height="275.172" viewbox = "0 0 352.572 275.172">
	<g transform="translate(-1.76196,277.419) scale(1,-1) ">
		<line x1="37.5981" y1="243.083" x2="37.5981" y2="277.067" stroke="rgb(255,0,0)" stroke-width="0.705556"/>
		<line x1="37.5981" y1="277.067" x2="318.498" y2="277.067" stroke="rgb(255,0,0)" stroke-width="0.705556"/>
		<line x1="318.498" y1="277.067" x2="318.498" y2="243.083" stroke="rgb(255,0,0)" stroke-width="0.705556"/>
		<line x1="353.981" y1="241.783" x2="353.981" y2="37.8833" stroke="rgb(255,0,0)" stroke-width="0.705556"/>
		<line x1="318.498" y1="36.5833" x2="318.498" y2="2.6" stroke="rgb(255,0,0)" stroke-width="0.705556"/>
		<line x1="318.498" y1="2.6" x2="37.5981" y2="2.6" stroke="rgb(255,0,0)" stroke-width="0.705556"/>
		<line x1="37.5981" y1="2.6" x2="37.5981" y2="36.5833" stroke="rgb(255,0,0)" stroke-width="0.705556"/>
		<line x1="2.11473" y1="241.783" x2="2.11473" y2="37.8833" stroke="rgb(255,0,0)" stroke-width="0.705556"/>
		<line x1="318.498" y1="243.083" x2="37.5981" y2="243.083" stroke="rgb(255,255,0)" stroke-width="0.705556"/>
		<line x1="36.0981" y1="241.783" x2="36.0981" y2="37.8833" stroke="rgb(255,255,0)" stroke-width="0.705556"/>
		<line x1="37.5981" y1="36.5833" x2="318.498" y2="36.5833" stroke="rgb(255,255,0)" stroke-width="0.705556"/>
		<line x1="319.998" y1="37.8833" x2="319.998" y2="241.783" stroke="rgb(255,255,0)" stroke-width="0.705556"/>
		<line x1="36.0981" y1="241.783" x2="37.5981" y2="241.783" stroke="rgb(255,0,0)" stroke-width="0.705556"/>
		<line x1="37.5981" y1="241.783" x2="37.5981" y2="243.083" stroke="rgb(255,0,0)" stroke-width="0.705556"/>
		<line x1="318.498" y1="243.083" x2="318.498" y2="241.783" stroke="rgb(255,0,0)" stroke-width="0.705556"/>
		<line x1="318.498" y1="241.783" x2="319.998" y2="241.783" stroke="rgb(255,0,0)" stroke-width="0.705556"/>
		<line x1="318.498" y1="36.5833" x2="318.498" y2="37.8833" stroke="rgb(255,0,0)" stroke-width="0.705556"/>
		<line x1="318.498" y1="37.8833" x2="319.998" y2="37.8833" stroke="rgb(255,0,0)" stroke-width="0.705556"/>
		<line x1="36.0981" y1="37.8833" x2="37.5981" y2="37.8833" stroke="rgb(255,0,0)" stroke-width="0.705556"/>
		<line x1="37.5981" y1="37.8833" x2="37.5981" y2="36.5833" stroke="rgb(255,0,0)" stroke-width="0.705556"/>
		<line x1="319.998" y1="241.783" x2="321.498" y2="241.783" stroke="rgb(255,0,0)" stroke-width="0.705556"/>
		<line x1="321.498" y1="241.783" x2="321.498" y2="277.067" stroke="rgb(255,0,0)" stroke-width="0.705556"/>
		<line x1="321.498" y1="277.067" x2="353.981" y2="277.067" stroke="rgb(255,0,0)" stroke-width="0.705556"/>
		<line x1="353.981" y1="277.067" x2="353.981" y2="241.783" stroke="rgb(255,0,0)" stroke-width="0.705556"/>
		<line x1="353.981" y1="241.783" x2="353.981" y2="241.783" stroke="rgb(255,0,0)" stroke-width="0.705556"/>
		<line x1="321.498" y1="241.783" x2="353.981" y2="241.783" stroke="rgb(255,255,0)" stroke-width="0.705556"/>
		<line x1="36.0981" y1="241.783" x2="34.5981" y2="241.783" stroke="rgb(255,0,0)" stroke-width="0.705556"/>
		<line x1="34.5981" y1="241.783" x2="34.5981" y2="277.067" stroke="rgb(255,0,0)" stroke-width="0.705556"/>
		<line x1="34.5981" y1="277.067" x2="2.11473" y2="277.067" stroke="rgb(255,0,0)" stroke-width="0.705556"/>
		<line x1="2.11473" y1="277.067" x2="2.11473" y2="241.783" stroke="rgb(255,0,0)" stroke-width="0.705556"/>
		<line x1="2.11473" y1="241.783" x2="2.11473" y2="241.783" stroke="rgb(255,0,0)" stroke-width="0.705556"/>
		<line x1="34.5981" y1="241.783" x2="2.11473" y2="241.783" stroke="rgb(255,255,0)" stroke-width="0.705556"/>
		<line x1="36.0981" y1="37.8833" x2="34.5981" y2="37.8833" stroke="rgb(255,0,0)" stroke-width="0.705556"/>
		<line x1="34.5981" y1="37.8833" x2="34.5981" y2="2.6" stroke="rgb(255,0,0)" stroke-width="0.705556"/>
		<line x1="34.5981" y1="2.6" x2="2.11473" y2="2.6" stroke="rgb(255,0,0)" stroke-width="0.705556"/>
		<line x1="2.11473" y1="2.6" x2="2.11473" y2="37.8833" stroke="rgb(255,0,0)" stroke-width="0.705556"/>
		<line x1="2.11473" y1="37.8833" x2="2.11473" y2="37.8833" stroke="rgb(255,0,0)" stroke-width="0.705556"/>
		<line x1="34.5981" y1="37.8833" x2="2.11473" y2="37.8833" stroke="rgb(255,255,0)" stroke-width="0.705556"/>
		<line x1="319.998" y1="37.8833" x2="321.498" y2="37.8833" stroke="rgb(255,0,0)" stroke-width="0.705556"/>
		<line x1="321.498" y1="37.8833" x2="321.498" y2="2.6" stroke="rgb(255,0,0)" stroke-width="0.705556"/>
		<line x1="321.498" y1="2.6" x2="353.981" y2="2.6" stroke="rgb(255,0,0)" stroke-width="0.705556"/>
		<line x1="353.981" y1="2.6" x2="353.981" y2="37.8833" stroke="rgb(255,0,0)" stroke-width="0.705556"/>
		<line x1="353.981" y1="37.8833" x2="353.981" y2="37.8833" stroke="rgb(255,0,0)" stroke-width="0.705556"/>
		<line x1="321.498" y1="37.8833" x2="353.981" y2="37.8833" stroke="rgb(255,255,0)" stroke-width="0.705556"/>
		<line x1="178.048" y1="89.1981" x2="178.048" y2="61.5833" stroke="rgb(64,128,128)" stroke-width="0"/>
		<line x1="186.532" y1="70.7883" x2="186.532" y2="61.5833" stroke="rgb(64,128,128)" stroke-width="0"/>
		<line x1="182.29" y1="79.9932" x2="182.29" y2="61.5833" stroke="rgb(64,128,128)" stroke-width="0"/>
		<line x1="173.806" y1="98.4031" x2="173.806" y2="61.5833" stroke="rgb(64,128,128)" stroke-width="0"/>
		<line x1="169.564" y1="107.608" x2="169.564" y2="61.5833" stroke="rgb(64,128,128)" stroke-width="0"/>
		<line x1="165.322" y1="116.813" x2="165.322" y2="61.5833" stroke="rgb(64,128,128)" stroke-width="0"/>
		<line x1="190.774" y1="61.5833" x2="165.322" y2="61.5833" stroke="rgb(64,128,128)" stroke-width="0"/>
		<line x1="165.322" y1="116.813" x2="193.597" y2="88.4952" stroke="rgb(64,128,128)" stroke-width="0"/>
		<path d="M193.597,88.4952 a26.6045 26.6045 0 0 1 -2.82257,-26.9118" fill="none" stroke="rgb(64,128,128)" stroke-width="0"/>
		<line x1="190.774" y1="61.5833" x2="165.322" y2="116.813" stroke="rgb(64,128,128)" stroke-width="0"/>
	</g>
</svg>