<svg version = "1.1" xmlns = "http://www.w3.org/2000/svg" xmlns:xlink="http://www.w3.org/1999/xlink" width="984.606" height="203.306" viewbox = "0 0 984.606 203.306">
	<g transform="translate(-22.1974,248.623) scale(1,-1) ">
		<line x1="323.85" y1="149.621" x2="323.85" y2="248.271" stroke="rgb(255,255,0)" stroke-width="0.705556"/>
		<line x1="323.85" y1="248.271" x2="42.5501" y2="248.271" stroke="rgb(255,0,0)" stroke-width="0.705556"/>
		<line x1="525.15" y1="248.271" x2="525.15" y2="149.621" stroke="rgb(255,255,0)" stroke-width="0.705556"/>
		<line x1="323.85" y1="248.271" x2="525.15" y2="248.271" stroke="rgb(255,0,0)" stroke-width="0.705556"/>
		<line x1="806.45" y1="149.621" x2="806.45" y2="248.271" stroke="rgb(255,255,0)" stroke-width="0.705556"/>
		<line x1="806.45" y1="248.271" x2="525.15" y2="248.271" stroke="rgb(255,0,0)" stroke-width="0.705556"/>
		<line x1="1006.45" y1="248.271" x2="1006.45" y2="149.621" stroke="rgb(255,0,0)" stroke-width="0.705556"/>
		<line x1="806.45" y1="248.271" x2="1006.45" y2="248.271" stroke="rgb(255,0,0)" stroke-width="0.705556"/>
		<line x1="525.15" y1="149.621" x2="523.65" y2="149.621" stroke="rgb(255,0,0)" stroke-width="0.705556"/>
		<line x1="523.65" y1="149.621" x2="523.65" y2="45.6705" stroke="rgb(255,0,0)" stroke-width="0.705556"/>
		<line x1="523.65" y1="45.6705" x2="325.35" y2="45.6705" stroke="rgb(255,0,0)" stroke-width="0.705556"/>
		<line x1="325.35" y1="45.6705" x2="325.35" y2="149.621" stroke="rgb(255,0,0)" stroke-width="0.705556"/>
		<line x1="325.35" y1="149.621" x2="323.85" y2="149.621" stroke="rgb(255,0,0)" stroke-width="0.705556"/>
		<line x1="523.65" y1="147.621" x2="325.35" y2="147.621" stroke="rgb(255,255,0)" stroke-width="0.705556"/>
		<line x1="806.45" y1="149.621" x2="804.95" y2="149.621" stroke="rgb(255,0,0)" stroke-width="0.705556"/>
		<line x1="804.95" y1="149.621" x2="804.95" y2="45.6705" stroke="rgb(255,0,0)" stroke-width="0.705556"/>
		<line x1="804.95" y1="45.6705" x2="526.65" y2="45.6705" stroke="rgb(255,0,0)" stroke-width="0.705556"/>
		<line x1="526.65" y1="45.6705" x2="526.65" y2="149.621" stroke="rgb(255,0,0)" stroke-width="0.705556"/>
		<line x1="526.65" y1="149.621" x2="525.15" y2="149.621" stroke="rgb(255,0,0)" stroke-width="0.705556"/>
		<line x1="804.95" y1="146.321" x2="526.65" y2="146.321" stroke="rgb(255,255,0)" stroke-width="0.705556"/>
		<line x1="44.0501" y1="149.621" x2="44.0501" y2="45.6705" stroke="rgb(255,0,0)" stroke-width="0.705556"/>
		<line x1="44.0501" y1="45.6705" x2="322.35" y2="45.6705" stroke="rgb(255,0,0)" stroke-width="0.705556"/>
		<line x1="322.35" y1="45.6705" x2="322.35" y2="149.621" stroke="rgb(255,0,0)" stroke-width="0.705556"/>
		<line x1="322.35" y1="149.621" x2="323.85" y2="149.621" stroke="rgb(255,0,0)" stroke-width="0.705556"/>
		<line x1="44.0501" y1="146.321" x2="322.35" y2="146.321" stroke="rgb(255,255,0)" stroke-width="0.705556"/>
		<line x1="806.45" y1="149.621" x2="807.95" y2="149.621" stroke="rgb(255,0,0)" stroke-width="0.705556"/>
		<line x1="807.95" y1="149.621" x2="807.95" y2="45.6705" stroke="rgb(255,0,0)" stroke-width="0.705556"/>
		<line x1="807.95" y1="45.6705" x2="1004.95" y2="45.6705" stroke="rgb(255,0,0)" stroke-width="0.705556"/>
		<line x1="1004.95" y1="45.6705" x2="1004.95" y2="149.621" stroke="rgb(255,0,0)" stroke-width="0.705556"/>
		<line x1="1004.95" y1="149.621" x2="1006.45" y2="149.621" stroke="rgb(255,0,0)" stroke-width="0.705556"/>
		<line x1="807.95" y1="147.621" x2="1004.95" y2="147.621" stroke="rgb(255,255,0)" stroke-width="0.705556"/>
		<line x1="44.0501" y1="149.621" x2="22.5501" y2="159.646" stroke="rgb(255,0,0)" stroke-width="0.705556"/>
		<line x1="22.5501" y1="159.646" x2="22.5501" y2="238.944" stroke="rgb(255,0,0)" stroke-width="0.705556"/>
		<line x1="42.5501" y1="248.271" x2="42.5501" y2="150.32" stroke="rgb(255,255,0)" stroke-width="0.705556"/>
		<line x1="42.5501" y1="248.271" x2="22.5501" y2="238.944" stroke="rgb(255,0,0)" stroke-width="0.705556"/>
		<line x1="905.7" y1="202.235" x2="905.7" y2="174.621" stroke="rgb(64,128,128)" stroke-width="0"/>
		<line x1="914.184" y1="183.825" x2="914.184" y2="174.621" stroke="rgb(64,128,128)" stroke-width="0"/>
		<line x1="909.942" y1="193.03" x2="909.942" y2="174.621" stroke="rgb(64,128,128)" stroke-width="0"/>
		<line x1="901.458" y1="211.44" x2="901.458" y2="174.621" stroke="rgb(64,128,128)" stroke-width="0"/>
		<line x1="897.216" y1="220.645" x2="897.216" y2="174.621" stroke="rgb(64,128,128)" stroke-width="0"/>
		<line x1="892.974" y1="229.85" x2="892.974" y2="174.621" stroke="rgb(64,128,128)" stroke-width="0"/>
		<line x1="918.426" y1="174.621" x2="892.974" y2="174.621" stroke="rgb(64,128,128)" stroke-width="0"/>
		<line x1="892.974" y1="229.85" x2="921.249" y2="201.532" stroke="rgb(64,128,128)" stroke-width="0"/>
		<path d="M921.249,201.532 a26.6045 26.6045 0 0 1 -2.82257,-26.9118" fill="none" stroke="rgb(64,128,128)" stroke-width="0"/>
		<line x1="918.426" y1="174.621" x2="892.974" y2="229.85" stroke="rgb(64,128,128)" stroke-width="0"/>
	</g>
</svg>