<svg version = "1.1" xmlns = "http://www.w3.org/2000/svg" xmlns:xlink="http://www.w3.org/1999/xlink" width="989.606" height="305.906" viewbox = "0 0 989.606 305.906">
	<g transform="translate(-67.8305,328.357) scale(1,-1) ">
		<line x1="374.483" y1="126.754" x2="374.483" y2="224.054" stroke="rgb(255,255,0)" stroke-width="0.705556"/>
		<line x1="575.783" y1="224.054" x2="575.783" y2="126.754" stroke="rgb(255,255,0)" stroke-width="0.705556"/>
		<line x1="857.083" y1="126.754" x2="857.083" y2="224.054" stroke="rgb(255,255,0)" stroke-width="0.705556"/>
		<line x1="1057.08" y1="224.054" x2="1057.08" y2="126.754" stroke="rgb(255,0,0)" stroke-width="0.705556"/>
		<line x1="575.783" y1="126.754" x2="574.283" y2="126.754" stroke="rgb(255,0,0)" stroke-width="0.705556"/>
		<line x1="574.283" y1="126.754" x2="574.283" y2="22.804" stroke="rgb(255,0,0)" stroke-width="0.705556"/>
		<line x1="574.283" y1="22.804" x2="375.983" y2="22.804" stroke="rgb(255,0,0)" stroke-width="0.705556"/>
		<line x1="375.983" y1="22.804" x2="375.983" y2="126.754" stroke="rgb(255,0,0)" stroke-width="0.705556"/>
		<line x1="375.983" y1="126.754" x2="374.483" y2="126.754" stroke="rgb(255,0,0)" stroke-width="0.705556"/>
		<line x1="574.283" y1="124.754" x2="375.983" y2="124.754" stroke="rgb(255,255,0)" stroke-width="0.705556"/>
		<line x1="857.083" y1="126.754" x2="858.583" y2="126.754" stroke="rgb(255,0,0)" stroke-width="0.705556"/>
		<line x1="858.583" y1="126.754" x2="858.583" y2="22.804" stroke="rgb(255,0,0)" stroke-width="0.705556"/>
		<line x1="858.583" y1="22.804" x2="1055.58" y2="22.804" stroke="rgb(255,0,0)" stroke-width="0.705556"/>
		<line x1="1055.58" y1="22.804" x2="1055.58" y2="126.754" stroke="rgb(255,0,0)" stroke-width="0.705556"/>
		<line x1="1055.58" y1="126.754" x2="1057.08" y2="126.754" stroke="rgb(255,0,0)" stroke-width="0.705556"/>
		<line x1="858.583" y1="124.754" x2="1055.58" y2="124.754" stroke="rgb(255,255,0)" stroke-width="0.705556"/>
		<line x1="857.083" y1="126.754" x2="855.583" y2="126.754" stroke="rgb(255,0,0)" stroke-width="0.705556"/>
		<line x1="855.583" y1="126.754" x2="855.583" y2="22.804" stroke="rgb(255,0,0)" stroke-width="0.705556"/>
		<line x1="855.583" y1="22.804" x2="577.283" y2="22.804" stroke="rgb(255,0,0)" stroke-width="0.705556"/>
		<line x1="577.283" y1="22.804" x2="577.283" y2="126.754" stroke="rgb(255,0,0)" stroke-width="0.705556"/>
		<line x1="577.283" y1="126.754" x2="575.783" y2="126.754" stroke="rgb(255,0,0)" stroke-width="0.705556"/>
		<line x1="855.583" y1="123.454" x2="577.283" y2="123.454" stroke="rgb(255,255,0)" stroke-width="0.705556"/>
		<line x1="94.6833" y1="126.754" x2="94.6833" y2="22.804" stroke="rgb(255,0,0)" stroke-width="0.705556"/>
		<line x1="94.6833" y1="22.804" x2="372.983" y2="22.804" stroke="rgb(255,0,0)" stroke-width="0.705556"/>
		<line x1="372.983" y1="22.804" x2="372.983" y2="126.754" stroke="rgb(255,0,0)" stroke-width="0.705556"/>
		<line x1="372.983" y1="126.754" x2="374.483" y2="126.754" stroke="rgb(255,0,0)" stroke-width="0.705556"/>
		<line x1="94.6833" y1="123.454" x2="372.983" y2="123.454" stroke="rgb(255,255,0)" stroke-width="0.705556"/>
		<line x1="94.6833" y1="224.054" x2="94.6833" y2="328.004" stroke="rgb(255,0,0)" stroke-width="0.705556"/>
		<line x1="94.6833" y1="328.004" x2="372.983" y2="328.004" stroke="rgb(255,0,0)" stroke-width="0.705556"/>
		<line x1="372.983" y1="328.004" x2="372.983" y2="224.054" stroke="rgb(255,0,0)" stroke-width="0.705556"/>
		<line x1="372.983" y1="224.054" x2="374.483" y2="224.054" stroke="rgb(255,0,0)" stroke-width="0.705556"/>
		<line x1="94.6833" y1="227.354" x2="372.983" y2="227.354" stroke="rgb(255,255,0)" stroke-width="0.705556"/>
		<line x1="575.783" y1="224.054" x2="577.283" y2="224.054" stroke="rgb(255,0,0)" stroke-width="0.705556"/>
		<line x1="577.283" y1="224.054" x2="577.283" y2="328.004" stroke="rgb(255,0,0)" stroke-width="0.705556"/>
		<line x1="577.283" y1="328.004" x2="855.583" y2="328.004" stroke="rgb(255,0,0)" stroke-width="0.705556"/>
		<line x1="855.583" y1="328.004" x2="855.583" y2="224.054" stroke="rgb(255,0,0)" stroke-width="0.705556"/>
		<line x1="855.583" y1="224.054" x2="857.083" y2="224.054" stroke="rgb(255,0,0)" stroke-width="0.705556"/>
		<line x1="577.283" y1="227.354" x2="855.583" y2="227.354" stroke="rgb(255,255,0)" stroke-width="0.705556"/>
		<line x1="374.483" y1="224.054" x2="375.983" y2="224.054" stroke="rgb(255,0,0)" stroke-width="0.705556"/>
		<line x1="375.983" y1="224.054" x2="375.983" y2="328.004" stroke="rgb(255,0,0)" stroke-width="0.705556"/>
		<line x1="375.983" y1="328.004" x2="574.283" y2="328.004" stroke="rgb(255,0,0)" stroke-width="0.705556"/>
		<line x1="574.283" y1="328.004" x2="574.283" y2="224.054" stroke="rgb(255,0,0)" stroke-width="0.705556"/>
		<line x1="574.283" y1="224.054" x2="575.783" y2="224.054" stroke="rgb(255,0,0)" stroke-width="0.705556"/>
		<line x1="375.983" y1="226.054" x2="574.283" y2="226.054" stroke="rgb(255,255,0)" stroke-width="0.705556"/>
		<line x1="857.083" y1="224.054" x2="858.583" y2="224.054" stroke="rgb(255,0,0)" stroke-width="0.705556"/>
		<line x1="858.583" y1="224.054" x2="858.583" y2="328.004" stroke="rgb(255,0,0)" stroke-width="0.705556"/>
		<line x1="858.583" y1="328.004" x2="1055.58" y2="328.004" stroke="rgb(255,0,0)" stroke-width="0.705556"/>
		<line x1="1055.58" y1="328.004" x2="1055.58" y2="224.054" stroke="rgb(255,0,0)" stroke-width="0.705556"/>
		<line x1="1055.58" y1="224.054" x2="1057.08" y2="224.054" stroke="rgb(255,0,0)" stroke-width="0.705556"/>
		<line x1="858.583" y1="226.054" x2="1055.58" y2="226.054" stroke="rgb(255,255,0)" stroke-width="0.705556"/>
		<line x1="94.6833" y1="126.754" x2="68.1833" y2="139.111" stroke="rgb(255,0,0)" stroke-width="0.705556"/>
		<line x1="68.1833" y1="139.111" x2="68.1833" y2="211.697" stroke="rgb(255,0,0)" stroke-width="0.705556"/>
		<line x1="93.1833" y1="223.355" x2="93.1833" y2="127.453" stroke="rgb(255,255,0)" stroke-width="0.705556"/>
		<line x1="94.6833" y1="224.054" x2="68.1833" y2="211.697" stroke="rgb(255,0,0)" stroke-width="0.705556"/>
		<line x1="957.083" y1="192.369" x2="957.083" y2="164.754" stroke="rgb(64,128,128)" stroke-width="0"/>
		<line x1="965.567" y1="173.959" x2="965.567" y2="164.754" stroke="rgb(64,128,128)" stroke-width="0"/>
		<line x1="961.325" y1="183.164" x2="961.325" y2="164.754" stroke="rgb(64,128,128)" stroke-width="0"/>
		<line x1="952.841" y1="201.574" x2="952.841" y2="164.754" stroke="rgb(64,128,128)" stroke-width="0"/>
		<line x1="948.599" y1="210.779" x2="948.599" y2="164.754" stroke="rgb(64,128,128)" stroke-width="0"/>
		<line x1="944.357" y1="219.984" x2="944.357" y2="164.754" stroke="rgb(64,128,128)" stroke-width="0"/>
		<line x1="969.809" y1="164.754" x2="944.357" y2="164.754" stroke="rgb(64,128,128)" stroke-width="0"/>
		<line x1="944.357" y1="219.984" x2="972.632" y2="191.666" stroke="rgb(64,128,128)" stroke-width="0"/>
		<path d="M972.632,191.666 a26.6045 26.6045 0 0 1 -2.82257,-26.9118" fill="none" stroke="rgb(64,128,128)" stroke-width="0"/>
		<line x1="969.809" y1="164.754" x2="944.357" y2="219.984" stroke="rgb(64,128,128)" stroke-width="0"/>
	</g>
</svg>