<svg version = "1.1" xmlns = "http://www.w3.org/2000/svg" xmlns:xlink="http://www.w3.org/1999/xlink" width="598.206" height="353.506" viewbox = "0 0 598.206 353.506">
	<g transform="translate(-34.9259,412.146) scale(1,-1) ">
		<line x1="190.779" y1="411.794" x2="477.279" y2="411.794" stroke="rgb(255,0,0)" stroke-width="0.705556"/>
		<line x1="477.279" y1="58.9937" x2="190.779" y2="58.9937" stroke="rgb(255,0,0)" stroke-width="0.705556"/>
		<line x1="477.279" y1="337.344" x2="190.779" y2="337.344" stroke="rgb(255,255,0)" stroke-width="0.705556"/>
		<line x1="189.479" y1="337.344" x2="189.479" y2="310.394" stroke="rgb(255,255,0)" stroke-width="0.705556"/>
		<line x1="189.479" y1="277.06" x2="189.479" y2="193.727" stroke="rgb(255,255,0)" stroke-width="0.705556"/>
		<line x1="189.479" y1="160.394" x2="189.479" y2="133.444" stroke="rgb(255,255,0)" stroke-width="0.705556"/>
		<line x1="190.779" y1="133.444" x2="477.279" y2="133.444" stroke="rgb(255,255,0)" stroke-width="0.705556"/>
		<line x1="478.579" y1="133.444" x2="478.579" y2="160.394" stroke="rgb(255,255,0)" stroke-width="0.705556"/>
		<line x1="478.579" y1="193.727" x2="478.579" y2="277.06" stroke="rgb(255,255,0)" stroke-width="0.705556"/>
		<line x1="478.579" y1="310.394" x2="478.579" y2="337.344" stroke="rgb(255,255,0)" stroke-width="0.705556"/>
		<line x1="190.779" y1="337.344" x2="190.779" y2="337.344" stroke="rgb(255,0,0)" stroke-width="0.705556"/>
		<line x1="477.279" y1="337.344" x2="477.279" y2="337.344" stroke="rgb(255,0,0)" stroke-width="0.705556"/>
		<line x1="477.279" y1="133.444" x2="477.279" y2="133.444" stroke="rgb(255,0,0)" stroke-width="0.705556"/>
		<line x1="190.779" y1="133.444" x2="190.779" y2="133.444" stroke="rgb(255,0,0)" stroke-width="0.705556"/>
		<line x1="477.279" y1="411.794" x2="482.279" y2="411.794" stroke="rgb(255,0,0)" stroke-width="0.705556"/>
		<line x1="482.279" y1="411.794" x2="577.229" y2="411.794" stroke="rgb(255,0,0)" stroke-width="0.705556"/>
		<line x1="577.229" y1="411.794" x2="577.229" y2="342.994" stroke="rgb(255,0,0)" stroke-width="0.705556"/>
		<line x1="577.229" y1="342.994" x2="558.729" y2="342.994" stroke="rgb(255,0,0)" stroke-width="0.705556"/>
		<line x1="558.729" y1="342.994" x2="553.729" y2="337.994" stroke="rgb(255,0,0)" stroke-width="0.705556"/>
		<line x1="477.279" y1="411.794" x2="477.279" y2="337.344" stroke="rgb(255,255,0)" stroke-width="0.705556"/>
		<line x1="190.779" y1="411.794" x2="185.779" y2="411.794" stroke="rgb(255,0,0)" stroke-width="0.705556"/>
		<line x1="185.779" y1="411.794" x2="90.8287" y2="411.794" stroke="rgb(255,0,0)" stroke-width="0.705556"/>
		<line x1="90.8287" y1="411.794" x2="90.8287" y2="342.994" stroke="rgb(255,0,0)" stroke-width="0.705556"/>
		<line x1="90.8287" y1="342.994" x2="109.329" y2="342.994" stroke="rgb(255,0,0)" stroke-width="0.705556"/>
		<line x1="109.329" y1="342.994" x2="114.329" y2="337.994" stroke="rgb(255,0,0)" stroke-width="0.705556"/>
		<line x1="190.779" y1="411.794" x2="190.779" y2="337.344" stroke="rgb(255,255,0)" stroke-width="0.705556"/>
		<line x1="477.279" y1="58.9937" x2="482.279" y2="58.9937" stroke="rgb(255,0,0)" stroke-width="0.705556"/>
		<line x1="482.279" y1="58.9937" x2="577.229" y2="58.9937" stroke="rgb(255,0,0)" stroke-width="0.705556"/>
		<line x1="577.229" y1="58.9937" x2="577.229" y2="127.794" stroke="rgb(255,0,0)" stroke-width="0.705556"/>
		<line x1="577.229" y1="127.794" x2="558.729" y2="127.794" stroke="rgb(255,0,0)" stroke-width="0.705556"/>
		<line x1="558.729" y1="127.794" x2="553.729" y2="132.794" stroke="rgb(255,0,0)" stroke-width="0.705556"/>
		<line x1="477.279" y1="58.9937" x2="477.279" y2="133.444" stroke="rgb(255,255,0)" stroke-width="0.705556"/>
		<line x1="190.779" y1="58.9937" x2="185.779" y2="58.9937" stroke="rgb(255,0,0)" stroke-width="0.705556"/>
		<line x1="185.779" y1="58.9937" x2="90.8287" y2="58.9937" stroke="rgb(255,0,0)" stroke-width="0.705556"/>
		<line x1="90.8287" y1="58.9937" x2="90.8287" y2="127.794" stroke="rgb(255,0,0)" stroke-width="0.705556"/>
		<line x1="90.8287" y1="127.794" x2="109.329" y2="127.794" stroke="rgb(255,0,0)" stroke-width="0.705556"/>
		<line x1="109.329" y1="127.794" x2="114.329" y2="132.794" stroke="rgb(255,0,0)" stroke-width="0.705556"/>
		<line x1="190.779" y1="58.9937" x2="190.779" y2="133.444" stroke="rgb(255,255,0)" stroke-width="0.705556"/>
		<line x1="190.779" y1="337.344" x2="189.479" y2="337.994" stroke="rgb(255,0,0)" stroke-width="0.705556"/>
		<line x1="189.479" y1="337.994" x2="114.329" y2="337.994" stroke="rgb(255,0,0)" stroke-width="0.705556"/>
		<line x1="189.479" y1="337.344" x2="189.479" y2="337.994" stroke="rgb(255,255,0)" stroke-width="0.705556"/>
		<line x1="477.279" y1="337.344" x2="478.579" y2="337.994" stroke="rgb(255,0,0)" stroke-width="0.705556"/>
		<line x1="478.579" y1="337.994" x2="553.729" y2="337.994" stroke="rgb(255,0,0)" stroke-width="0.705556"/>
		<line x1="478.579" y1="337.344" x2="478.579" y2="337.994" stroke="rgb(255,255,0)" stroke-width="0.705556"/>
		<line x1="190.779" y1="133.444" x2="189.479" y2="132.794" stroke="rgb(255,0,0)" stroke-width="0.705556"/>
		<line x1="189.479" y1="132.794" x2="114.329" y2="132.794" stroke="rgb(255,0,0)" stroke-width="0.705556"/>
		<line x1="189.479" y1="133.444" x2="189.479" y2="132.794" stroke="rgb(255,255,0)" stroke-width="0.705556"/>
		<line x1="477.279" y1="133.444" x2="478.579" y2="132.794" stroke="rgb(255,0,0)" stroke-width="0.705556"/>
		<line x1="478.579" y1="132.794" x2="553.729" y2="132.794" stroke="rgb(255,0,0)" stroke-width="0.705556"/>
		<line x1="478.579" y1="133.444" x2="478.579" y2="132.794" stroke="rgb(255,255,0)" stroke-width="0.705556"/>
		<line x1="553.729" y1="337.994" x2="553.729" y2="132.794" stroke="rgb(255,255,0)" stroke-width="0.705556"/>
		<line x1="553.729" y1="132.794" x2="556.329" y2="135.394" stroke="rgb(255,0,0)" stroke-width="0.705556"/>
		<line x1="556.329" y1="335.394" x2="553.729" y2="337.994" stroke="rgb(255,0,0)" stroke-width="0.705556"/>
		<line x1="114.329" y1="132.794" x2="114.329" y2="337.994" stroke="rgb(255,255,0)" stroke-width="0.705556"/>
		<line x1="114.329" y1="337.994" x2="111.729" y2="335.394" stroke="rgb(255,0,0)" stroke-width="0.705556"/>
		<line x1="111.729" y1="135.394" x2="114.329" y2="132.794" stroke="rgb(255,0,0)" stroke-width="0.705556"/>
		<line x1="556.329" y1="335.394" x2="630.829" y2="335.394" stroke="rgb(255,0,0)" stroke-width="0.705556"/>
		<line x1="630.829" y1="335.394" x2="630.829" y2="310.394" stroke="rgb(255,0,0)" stroke-width="0.705556"/>
		<line x1="630.829" y1="277.06" x2="630.829" y2="193.727" stroke="rgb(255,0,0)" stroke-width="0.705556"/>
		<line x1="630.829" y1="160.394" x2="630.829" y2="135.394" stroke="rgb(255,0,0)" stroke-width="0.705556"/>
		<line x1="630.829" y1="135.394" x2="556.329" y2="135.394" stroke="rgb(255,0,0)" stroke-width="0.705556"/>
		<line x1="556.329" y1="135.394" x2="556.329" y2="335.394" stroke="rgb(255,255,0)" stroke-width="0.705556"/>
		<line x1="111.729" y1="135.394" x2="37.2287" y2="135.394" stroke="rgb(255,0,0)" stroke-width="0.705556"/>
		<line x1="37.2287" y1="135.394" x2="37.2287" y2="160.394" stroke="rgb(255,0,0)" stroke-width="0.705556"/>
		<line x1="37.2287" y1="193.727" x2="37.2287" y2="277.06" stroke="rgb(255,0,0)" stroke-width="0.705556"/>
		<line x1="37.2287" y1="310.394" x2="37.2287" y2="335.394" stroke="rgb(255,0,0)" stroke-width="0.705556"/>
		<line x1="37.2287" y1="335.394" x2="111.729" y2="335.394" stroke="rgb(255,0,0)" stroke-width="0.705556"/>
		<line x1="111.729" y1="335.394" x2="111.729" y2="135.394" stroke="rgb(255,255,0)" stroke-width="0.705556"/>
		<line x1="340.401" y1="171.17" x2="312.787" y2="171.17" stroke="rgb(64,128,128)" stroke-width="0"/>
		<line x1="321.992" y1="179.654" x2="312.787" y2="179.654" stroke="rgb(64,128,128)" stroke-width="0"/>
		<line x1="331.196" y1="175.412" x2="312.787" y2="175.412" stroke="rgb(64,128,128)" stroke-width="0"/>
		<line x1="349.606" y1="166.928" x2="312.787" y2="166.928" stroke="rgb(64,128,128)" stroke-width="0"/>
		<line x1="358.811" y1="162.686" x2="312.787" y2="162.686" stroke="rgb(64,128,128)" stroke-width="0"/>
		<line x1="368.016" y1="158.444" x2="312.787" y2="158.444" stroke="rgb(64,128,128)" stroke-width="0"/>
		<line x1="312.787" y1="183.896" x2="312.787" y2="158.444" stroke="rgb(64,128,128)" stroke-width="0"/>
		<line x1="368.016" y1="158.444" x2="339.698" y2="186.718" stroke="rgb(64,128,128)" stroke-width="0"/>
		<path d="M339.698,186.718 a26.6045 26.6045 0 0 0 -26.9118,-2.82257" fill="none" stroke="rgb(64,128,128)" stroke-width="0"/>
		<line x1="312.787" y1="183.896" x2="368.016" y2="158.444" stroke="rgb(64,128,128)" stroke-width="0"/>
		<line x1="37.2287" y1="160.394" x2="35.2787" y2="161.394" stroke="rgb(255,0,0)" stroke-width="0.705556"/>
		<line x1="35.2787" y1="161.394" x2="35.2787" y2="192.727" stroke="rgb(255,0,0)" stroke-width="0.705556"/>
		<line x1="35.2787" y1="192.727" x2="37.2287" y2="193.727" stroke="rgb(255,0,0)" stroke-width="0.705556"/>
		<line x1="37.2287" y1="277.06" x2="35.2787" y2="278.06" stroke="rgb(255,0,0)" stroke-width="0.705556"/>
		<line x1="35.2787" y1="278.06" x2="35.2787" y2="309.394" stroke="rgb(255,0,0)" stroke-width="0.705556"/>
		<line x1="35.2787" y1="309.394" x2="37.2287" y2="310.394" stroke="rgb(255,0,0)" stroke-width="0.705556"/>
		<line x1="37.2287" y1="277.06" x2="35.2787" y2="278.06" stroke="rgb(255,0,0)" stroke-width="0.705556"/>
		<line x1="35.2787" y1="278.06" x2="35.2787" y2="309.394" stroke="rgb(255,0,0)" stroke-width="0.705556"/>
		<line x1="35.2787" y1="309.394" x2="37.2287" y2="310.394" stroke="rgb(255,0,0)" stroke-width="0.705556"/>
		<line x1="37.2287" y1="277.06" x2="35.2787" y2="278.06" stroke="rgb(255,0,0)" stroke-width="0.705556"/>
		<line x1="35.2787" y1="278.06" x2="35.2787" y2="309.394" stroke="rgb(255,0,0)" stroke-width="0.705556"/>
		<line x1="35.2787" y1="309.394" x2="37.2287" y2="310.394" stroke="rgb(255,0,0)" stroke-width="0.705556"/>
		<line x1="37.2287" y1="277.06" x2="35.2787" y2="278.06" stroke="rgb(255,0,0)" stroke-width="0.705556"/>
		<line x1="35.2787" y1="278.06" x2="35.2787" y2="309.394" stroke="rgb(255,0,0)" stroke-width="0.705556"/>
		<line x1="35.2787" y1="309.394" x2="37.2287" y2="310.394" stroke="rgb(255,0,0)" stroke-width="0.705556"/>
		<line x1="37.2287" y1="277.06" x2="35.2787" y2="278.06" stroke="rgb(255,0,0)" stroke-width="0.705556"/>
		<line x1="35.2787" y1="278.06" x2="35.2787" y2="309.394" stroke="rgb(255,0,0)" stroke-width="0.705556"/>
		<line x1="35.2787" y1="309.394" x2="37.2287" y2="310.394" stroke="rgb(255,0,0)" stroke-width="0.705556"/>
		<line x1="37.2287" y1="277.06" x2="35.2787" y2="278.06" stroke="rgb(255,0,0)" stroke-width="0.705556"/>
		<line x1="35.2787" y1="278.06" x2="35.2787" y2="309.394" stroke="rgb(255,0,0)" stroke-width="0.705556"/>
		<line x1="35.2787" y1="309.394" x2="37.2287" y2="310.394" stroke="rgb(255,0,0)" stroke-width="0.705556"/>
		<line x1="37.2287" y1="277.06" x2="35.2787" y2="278.06" stroke="rgb(255,0,0)" stroke-width="0.705556"/>
		<line x1="35.2787" y1="278.06" x2="35.2787" y2="309.394" stroke="rgb(255,0,0)" stroke-width="0.705556"/>
		<line x1="35.2787" y1="309.394" x2="37.2287" y2="310.394" stroke="rgb(255,0,0)" stroke-width="0.705556"/>
		<line x1="37.2287" y1="277.06" x2="35.2787" y2="278.06" stroke="rgb(255,0,0)" stroke-width="0.705556"/>
		<line x1="35.2787" y1="278.06" x2="35.2787" y2="309.394" stroke="rgb(255,0,0)" stroke-width="0.705556"/>
		<line x1="35.2787" y1="309.394" x2="37.2287" y2="310.394" stroke="rgb(255,0,0)" stroke-width="0.705556"/>
		<line x1="37.2287" y1="277.06" x2="35.2787" y2="278.06" stroke="rgb(255,0,0)" stroke-width="0.705556"/>
		<line x1="35.2787" y1="278.06" x2="35.2787" y2="309.394" stroke="rgb(255,0,0)" stroke-width="0.705556"/>
		<line x1="35.2787" y1="309.394" x2="37.2287" y2="310.394" stroke="rgb(255,0,0)" stroke-width="0.705556"/>
		<line x1="37.2287" y1="277.06" x2="35.2787" y2="278.06" stroke="rgb(255,0,0)" stroke-width="0.705556"/>
		<line x1="35.2787" y1="278.06" x2="35.2787" y2="309.394" stroke="rgb(255,0,0)" stroke-width="0.705556"/>
		<line x1="35.2787" y1="309.394" x2="37.2287" y2="310.394" stroke="rgb(255,0,0)" stroke-width="0.705556"/>
		<line x1="37.2287" y1="277.06" x2="35.2787" y2="278.06" stroke="rgb(255,0,0)" stroke-width="0.705556"/>
		<line x1="35.2787" y1="278.06" x2="35.2787" y2="309.394" stroke="rgb(255,0,0)" stroke-width="0.705556"/>
		<line x1="35.2787" y1="309.394" x2="37.2287" y2="310.394" stroke="rgb(255,0,0)" stroke-width="0.705556"/>
		<line x1="37.2287" y1="277.06" x2="35.2787" y2="278.06" stroke="rgb(255,0,0)" stroke-width="0.705556"/>
		<line x1="35.2787" y1="278.06" x2="35.2787" y2="309.394" stroke="rgb(255,0,0)" stroke-width="0.705556"/>
		<line x1="35.2787" y1="309.394" x2="37.2287" y2="310.394" stroke="rgb(255,0,0)" stroke-width="0.705556"/>
		<line x1="37.2287" y1="277.06" x2="35.2787" y2="278.06" stroke="rgb(255,0,0)" stroke-width="0.705556"/>
		<line x1="35.2787" y1="278.06" x2="35.2787" y2="309.394" stroke="rgb(255,0,0)" stroke-width="0.705556"/>
		<line x1="35.2787" y1="309.394" x2="37.2287" y2="310.394" stroke="rgb(255,0,0)" stroke-width="0.705556"/>
		<line x1="37.2287" y1="277.06" x2="35.2787" y2="278.06" stroke="rgb(255,0,0)" stroke-width="0.705556"/>
		<line x1="35.2787" y1="278.06" x2="35.2787" y2="309.394" stroke="rgb(255,0,0)" stroke-width="0.705556"/>
		<line x1="35.2787" y1="309.394" x2="37.2287" y2="310.394" stroke="rgb(255,0,0)" stroke-width="0.705556"/>
		<line x1="37.2287" y1="277.06" x2="35.2787" y2="278.06" stroke="rgb(255,0,0)" stroke-width="0.705556"/>
		<line x1="35.2787" y1="278.06" x2="35.2787" y2="309.394" stroke="rgb(255,0,0)" stroke-width="0.705556"/>
		<line x1="35.2787" y1="309.394" x2="37.2287" y2="310.394" stroke="rgb(255,0,0)" stroke-width="0.705556"/>
		<line x1="37.2287" y1="277.06" x2="35.2787" y2="278.06" stroke="rgb(255,0,0)" stroke-width="0.705556"/>
		<line x1="35.2787" y1="278.06" x2="35.2787" y2="309.394" stroke="rgb(255,0,0)" stroke-width="0.705556"/>
		<line x1="35.2787" y1="309.394" x2="37.2287" y2="310.394" stroke="rgb(255,0,0)" stroke-width="0.705556"/>
		<line x1="37.2287" y1="277.06" x2="35.2787" y2="278.06" stroke="rgb(255,0,0)" stroke-width="0.705556"/>
		<line x1="35.2787" y1="278.06" x2="35.2787" y2="309.394" stroke="rgb(255,0,0)" stroke-width="0.705556"/>
		<line x1="35.2787" y1="309.394" x2="37.2287" y2="310.394" stroke="rgb(255,0,0)" stroke-width="0.705556"/>
		<line x1="37.2287" y1="277.06" x2="35.2787" y2="278.06" stroke="rgb(255,0,0)" stroke-width="0.705556"/>
		<line x1="35.2787" y1="278.06" x2="35.2787" y2="309.394" stroke="rgb(255,0,0)" stroke-width="0.705556"/>
		<line x1="35.2787" y1="309.394" x2="37.2287" y2="310.394" stroke="rgb(255,0,0)" stroke-width="0.705556"/>
		<line x1="192.729" y1="160.394" x2="192.729" y2="160.394" stroke="rgb(255,0,0)" stroke-width="0.705556"/>
		<line x1="192.729" y1="193.727" x2="192.729" y2="193.727" stroke="rgb(255,0,0)" stroke-width="0.705556"/>
		<line x1="192.729" y1="277.06" x2="189.479" y2="277.06" stroke="rgb(255,0,0)" stroke-width="0.705556"/>
		<line x1="189.479" y1="277.06" x2="189.479" y2="310.394" stroke="rgb(255,0,0)" stroke-width="0.705556"/>
		<line x1="189.479" y1="310.394" x2="192.729" y2="310.394" stroke="rgb(255,0,0)" stroke-width="0.705556"/>
		<line x1="192.729" y1="310.394" x2="192.729" y2="277.06" stroke="rgb(255,0,0)" stroke-width="0.705556"/>
		<line x1="192.729" y1="277.06" x2="192.729" y2="277.06" stroke="rgb(255,0,0)" stroke-width="0.705556"/>
		<line x1="192.729" y1="310.394" x2="192.729" y2="310.394" stroke="rgb(255,0,0)" stroke-width="0.705556"/>
		<line x1="192.729" y1="160.394" x2="192.729" y2="160.394" stroke="rgb(255,0,0)" stroke-width="0.705556"/>
		<line x1="192.729" y1="193.727" x2="192.729" y2="193.727" stroke="rgb(255,0,0)" stroke-width="0.705556"/>
		<line x1="192.729" y1="160.394" x2="192.729" y2="160.394" stroke="rgb(255,0,0)" stroke-width="0.705556"/>
		<line x1="192.729" y1="193.727" x2="192.729" y2="193.727" stroke="rgb(255,0,0)" stroke-width="0.705556"/>
		<line x1="192.729" y1="160.394" x2="192.729" y2="160.394" stroke="rgb(255,0,0)" stroke-width="0.705556"/>
		<line x1="192.729" y1="193.727" x2="192.729" y2="193.727" stroke="rgb(255,0,0)" stroke-width="0.705556"/>
		<line x1="192.729" y1="160.394" x2="192.729" y2="160.394" stroke="rgb(255,0,0)" stroke-width="0.705556"/>
		<line x1="192.729" y1="193.727" x2="192.729" y2="193.727" stroke="rgb(255,0,0)" stroke-width="0.705556"/>
		<line x1="192.729" y1="160.394" x2="192.729" y2="160.394" stroke="rgb(255,0,0)" stroke-width="0.705556"/>
		<line x1="192.729" y1="193.727" x2="192.729" y2="193.727" stroke="rgb(255,0,0)" stroke-width="0.705556"/>
		<line x1="192.729" y1="160.394" x2="192.729" y2="160.394" stroke="rgb(255,0,0)" stroke-width="0.705556"/>
		<line x1="192.729" y1="193.727" x2="192.729" y2="193.727" stroke="rgb(255,0,0)" stroke-width="0.705556"/>
		<line x1="192.729" y1="160.394" x2="192.729" y2="160.394" stroke="rgb(255,0,0)" stroke-width="0.705556"/>
		<line x1="192.729" y1="193.727" x2="192.729" y2="193.727" stroke="rgb(255,0,0)" stroke-width="0.705556"/>
		<line x1="192.729" y1="160.394" x2="192.729" y2="160.394" stroke="rgb(255,0,0)" stroke-width="0.705556"/>
		<line x1="192.729" y1="193.727" x2="192.729" y2="193.727" stroke="rgb(255,0,0)" stroke-width="0.705556"/>
		<line x1="192.729" y1="160.394" x2="192.729" y2="160.394" stroke="rgb(255,0,0)" stroke-width="0.705556"/>
		<line x1="192.729" y1="193.727" x2="192.729" y2="193.727" stroke="rgb(255,0,0)" stroke-width="0.705556"/>
		<line x1="192.729" y1="160.394" x2="192.729" y2="160.394" stroke="rgb(255,0,0)" stroke-width="0.705556"/>
		<line x1="192.729" y1="193.727" x2="192.729" y2="193.727" stroke="rgb(255,0,0)" stroke-width="0.705556"/>
		<line x1="192.729" y1="160.394" x2="192.729" y2="160.394" stroke="rgb(255,0,0)" stroke-width="0.705556"/>
		<line x1="192.729" y1="193.727" x2="192.729" y2="193.727" stroke="rgb(255,0,0)" stroke-width="0.705556"/>
		<line x1="192.729" y1="160.394" x2="192.729" y2="160.394" stroke="rgb(255,0,0)" stroke-width="0.705556"/>
		<line x1="192.729" y1="193.727" x2="192.729" y2="193.727" stroke="rgb(255,0,0)" stroke-width="0.705556"/>
		<line x1="192.729" y1="160.394" x2="192.729" y2="160.394" stroke="rgb(255,0,0)" stroke-width="0.705556"/>
		<line x1="192.729" y1="193.727" x2="192.729" y2="193.727" stroke="rgb(255,0,0)" stroke-width="0.705556"/>
		<line x1="192.729" y1="160.394" x2="192.729" y2="160.394" stroke="rgb(255,0,0)" stroke-width="0.705556"/>
		<line x1="192.729" y1="193.727" x2="192.729" y2="193.727" stroke="rgb(255,0,0)" stroke-width="0.705556"/>
		<line x1="192.729" y1="160.394" x2="192.729" y2="160.394" stroke="rgb(255,0,0)" stroke-width="0.705556"/>
		<line x1="192.729" y1="193.727" x2="192.729" y2="193.727" stroke="rgb(255,0,0)" stroke-width="0.705556"/>
		<line x1="192.729" y1="160.394" x2="192.729" y2="160.394" stroke="rgb(255,0,0)" stroke-width="0.705556"/>
		<line x1="192.729" y1="193.727" x2="192.729" y2="193.727" stroke="rgb(255,0,0)" stroke-width="0.705556"/>
		<line x1="192.729" y1="160.394" x2="189.479" y2="160.394" stroke="rgb(255,0,0)" stroke-width="0.705556"/>
		<line x1="189.479" y1="160.394" x2="189.479" y2="193.727" stroke="rgb(255,0,0)" stroke-width="0.705556"/>
		<line x1="189.479" y1="193.727" x2="192.729" y2="193.727" stroke="rgb(255,0,0)" stroke-width="0.705556"/>
		<line x1="192.729" y1="193.727" x2="192.729" y2="160.394" stroke="rgb(255,0,0)" stroke-width="0.705556"/>
		<line x1="192.729" y1="160.394" x2="192.729" y2="160.394" stroke="rgb(255,0,0)" stroke-width="0.705556"/>
		<line x1="192.729" y1="193.727" x2="192.729" y2="193.727" stroke="rgb(255,0,0)" stroke-width="0.705556"/>
		<line x1="630.829" y1="310.394" x2="632.779" y2="309.394" stroke="rgb(255,0,0)" stroke-width="0.705556"/>
		<line x1="632.779" y1="309.394" x2="632.779" y2="278.06" stroke="rgb(255,0,0)" stroke-width="0.705556"/>
		<line x1="632.779" y1="278.06" x2="630.829" y2="277.06" stroke="rgb(255,0,0)" stroke-width="0.705556"/>
		<line x1="630.829" y1="193.727" x2="632.779" y2="192.727" stroke="rgb(255,0,0)" stroke-width="0.705556"/>
		<line x1="632.779" y1="192.727" x2="632.779" y2="161.394" stroke="rgb(255,0,0)" stroke-width="0.705556"/>
		<line x1="632.779" y1="161.394" x2="630.829" y2="160.394" stroke="rgb(255,0,0)" stroke-width="0.705556"/>
		<line x1="630.829" y1="193.727" x2="632.779" y2="192.727" stroke="rgb(255,0,0)" stroke-width="0.705556"/>
		<line x1="632.779" y1="192.727" x2="632.779" y2="161.394" stroke="rgb(255,0,0)" stroke-width="0.705556"/>
		<line x1="632.779" y1="161.394" x2="630.829" y2="160.394" stroke="rgb(255,0,0)" stroke-width="0.705556"/>
		<line x1="630.829" y1="193.727" x2="632.779" y2="192.727" stroke="rgb(255,0,0)" stroke-width="0.705556"/>
		<line x1="632.779" y1="192.727" x2="632.779" y2="161.394" stroke="rgb(255,0,0)" stroke-width="0.705556"/>
		<line x1="632.779" y1="161.394" x2="630.829" y2="160.394" stroke="rgb(255,0,0)" stroke-width="0.705556"/>
		<line x1="630.829" y1="193.727" x2="632.779" y2="192.727" stroke="rgb(255,0,0)" stroke-width="0.705556"/>
		<line x1="632.779" y1="192.727" x2="632.779" y2="161.394" stroke="rgb(255,0,0)" stroke-width="0.705556"/>
		<line x1="632.779" y1="161.394" x2="630.829" y2="160.394" stroke="rgb(255,0,0)" stroke-width="0.705556"/>
		<line x1="630.829" y1="193.727" x2="632.779" y2="192.727" stroke="rgb(255,0,0)" stroke-width="0.705556"/>
		<line x1="632.779" y1="192.727" x2="632.779" y2="161.394" stroke="rgb(255,0,0)" stroke-width="0.705556"/>
		<line x1="632.779" y1="161.394" x2="630.829" y2="160.394" stroke="rgb(255,0,0)" stroke-width="0.705556"/>
		<line x1="630.829" y1="193.727" x2="632.779" y2="192.727" stroke="rgb(255,0,0)" stroke-width="0.705556"/>
		<line x1="632.779" y1="192.727" x2="632.779" y2="161.394" stroke="rgb(255,0,0)" stroke-width="0.705556"/>
		<line x1="632.779" y1="161.394" x2="630.829" y2="160.394" stroke="rgb(255,0,0)" stroke-width="0.705556"/>
		<line x1="630.829" y1="193.727" x2="632.779" y2="192.727" stroke="rgb(255,0,0)" stroke-width="0.705556"/>
		<line x1="632.779" y1="192.727" x2="632.779" y2="161.394" stroke="rgb(255,0,0)" stroke-width="0.705556"/>
		<line x1="632.779" y1="161.394" x2="630.829" y2="160.394" stroke="rgb(255,0,0)" stroke-width="0.705556"/>
		<line x1="630.829" y1="193.727" x2="632.779" y2="192.727" stroke="rgb(255,0,0)" stroke-width="0.705556"/>
		<line x1="632.779" y1="192.727" x2="632.779" y2="161.394" stroke="rgb(255,0,0)" stroke-width="0.705556"/>
		<line x1="632.779" y1="161.394" x2="630.829" y2="160.394" stroke="rgb(255,0,0)" stroke-width="0.705556"/>
		<line x1="630.829" y1="193.727" x2="632.779" y2="192.727" stroke="rgb(255,0,0)" stroke-width="0.705556"/>
		<line x1="632.779" y1="192.727" x2="632.779" y2="161.394" stroke="rgb(255,0,0)" stroke-width="0.705556"/>
		<line x1="632.779" y1="161.394" x2="630.829" y2="160.394" stroke="rgb(255,0,0)" stroke-width="0.705556"/>
		<line x1="630.829" y1="193.727" x2="632.779" y2="192.727" stroke="rgb(255,0,0)" stroke-width="0.705556"/>
		<line x1="632.779" y1="192.727" x2="632.779" y2="161.394" stroke="rgb(255,0,0)" stroke-width="0.705556"/>
		<line x1="632.779" y1="161.394" x2="630.829" y2="160.394" stroke="rgb(255,0,0)" stroke-width="0.705556"/>
		<line x1="630.829" y1="193.727" x2="632.779" y2="192.727" stroke="rgb(255,0,0)" stroke-width="0.705556"/>
		<line x1="632.779" y1="192.727" x2="632.779" y2="161.394" stroke="rgb(255,0,0)" stroke-width="0.705556"/>
		<line x1="632.779" y1="161.394" x2="630.829" y2="160.394" stroke="rgb(255,0,0)" stroke-width="0.705556"/>
		<line x1="630.829" y1="193.727" x2="632.779" y2="192.727" stroke="rgb(255,0,0)" stroke-width="0.705556"/>
		<line x1="632.779" y1="192.727" x2="632.779" y2="161.394" stroke="rgb(255,0,0)" stroke-width="0.705556"/>
		<line x1="632.779" y1="161.394" x2="630.829" y2="160.394" stroke="rgb(255,0,0)" stroke-width="0.705556"/>
		<line x1="630.829" y1="193.727" x2="632.779" y2="192.727" stroke="rgb(255,0,0)" stroke-width="0.705556"/>
		<line x1="632.779" y1="192.727" x2="632.779" y2="161.394" stroke="rgb(255,0,0)" stroke-width="0.705556"/>
		<line x1="632.779" y1="161.394" x2="630.829" y2="160.394" stroke="rgb(255,0,0)" stroke-width="0.705556"/>
		<line x1="630.829" y1="193.727" x2="632.779" y2="192.727" stroke="rgb(255,0,0)" stroke-width="0.705556"/>
		<line x1="632.779" y1="192.727" x2="632.779" y2="161.394" stroke="rgb(255,0,0)" stroke-width="0.705556"/>
		<line x1="632.779" y1="161.394" x2="630.829" y2="160.394" stroke="rgb(255,0,0)" stroke-width="0.705556"/>
		<line x1="630.829" y1="193.727" x2="632.779" y2="192.727" stroke="rgb(255,0,0)" stroke-width="0.705556"/>
		<line x1="632.779" y1="192.727" x2="632.779" y2="161.394" stroke="rgb(255,0,0)" stroke-width="0.705556"/>
		<line x1="632.779" y1="161.394" x2="630.829" y2="160.394" stroke="rgb(255,0,0)" stroke-width="0.705556"/>
		<line x1="630.829" y1="193.727" x2="632.779" y2="192.727" stroke="rgb(255,0,0)" stroke-width="0.705556"/>
		<line x1="632.779" y1="192.727" x2="632.779" y2="161.394" stroke="rgb(255,0,0)" stroke-width="0.705556"/>
		<line x1="632.779" y1="161.394" x2="630.829" y2="160.394" stroke="rgb(255,0,0)" stroke-width="0.705556"/>
		<line x1="630.829" y1="193.727" x2="632.779" y2="192.727" stroke="rgb(255,0,0)" stroke-width="0.705556"/>
		<line x1="632.779" y1="192.727" x2="632.779" y2="161.394" stroke="rgb(255,0,0)" stroke-width="0.705556"/>
		<line x1="632.779" y1="161.394" x2="630.829" y2="160.394" stroke="rgb(255,0,0)" stroke-width="0.705556"/>
		<line x1="630.829" y1="193.727" x2="632.779" y2="192.727" stroke="rgb(255,0,0)" stroke-width="0.705556"/>
		<line x1="632.779" y1="192.727" x2="632.779" y2="161.394" stroke="rgb(255,0,0)" stroke-width="0.705556"/>
		<line x1="632.779" y1="161.394" x2="630.829" y2="160.394" stroke="rgb(255,0,0)" stroke-width="0.705556"/>
		<line x1="475.329" y1="310.394" x2="475.329" y2="310.394" stroke="rgb(255,0,0)" stroke-width="0.705556"/>
		<line x1="475.329" y1="277.06" x2="475.329" y2="277.06" stroke="rgb(255,0,0)" stroke-width="0.705556"/>
		<line x1="475.329" y1="193.727" x2="478.579" y2="193.727" stroke="rgb(255,0,0)" stroke-width="0.705556"/>
		<line x1="478.579" y1="193.727" x2="478.579" y2="160.394" stroke="rgb(255,0,0)" stroke-width="0.705556"/>
		<line x1="478.579" y1="160.394" x2="475.329" y2="160.394" stroke="rgb(255,0,0)" stroke-width="0.705556"/>
		<line x1="475.329" y1="160.394" x2="475.329" y2="193.727" stroke="rgb(255,0,0)" stroke-width="0.705556"/>
		<line x1="475.329" y1="193.727" x2="475.329" y2="193.727" stroke="rgb(255,0,0)" stroke-width="0.705556"/>
		<line x1="475.329" y1="160.394" x2="475.329" y2="160.394" stroke="rgb(255,0,0)" stroke-width="0.705556"/>
		<line x1="475.329" y1="310.394" x2="475.329" y2="310.394" stroke="rgb(255,0,0)" stroke-width="0.705556"/>
		<line x1="475.329" y1="277.06" x2="475.329" y2="277.06" stroke="rgb(255,0,0)" stroke-width="0.705556"/>
		<line x1="475.329" y1="310.394" x2="475.329" y2="310.394" stroke="rgb(255,0,0)" stroke-width="0.705556"/>
		<line x1="475.329" y1="277.06" x2="475.329" y2="277.06" stroke="rgb(255,0,0)" stroke-width="0.705556"/>
		<line x1="475.329" y1="310.394" x2="475.329" y2="310.394" stroke="rgb(255,0,0)" stroke-width="0.705556"/>
		<line x1="475.329" y1="277.06" x2="475.329" y2="277.06" stroke="rgb(255,0,0)" stroke-width="0.705556"/>
		<line x1="475.329" y1="310.394" x2="475.329" y2="310.394" stroke="rgb(255,0,0)" stroke-width="0.705556"/>
		<line x1="475.329" y1="277.06" x2="475.329" y2="277.06" stroke="rgb(255,0,0)" stroke-width="0.705556"/>
		<line x1="475.329" y1="310.394" x2="475.329" y2="310.394" stroke="rgb(255,0,0)" stroke-width="0.705556"/>
		<line x1="475.329" y1="277.06" x2="475.329" y2="277.06" stroke="rgb(255,0,0)" stroke-width="0.705556"/>
		<line x1="475.329" y1="310.394" x2="475.329" y2="310.394" stroke="rgb(255,0,0)" stroke-width="0.705556"/>
		<line x1="475.329" y1="277.06" x2="475.329" y2="277.06" stroke="rgb(255,0,0)" stroke-width="0.705556"/>
		<line x1="475.329" y1="310.394" x2="475.329" y2="310.394" stroke="rgb(255,0,0)" stroke-width="0.705556"/>
		<line x1="475.329" y1="277.06" x2="475.329" y2="277.06" stroke="rgb(255,0,0)" stroke-width="0.705556"/>
		<line x1="475.329" y1="310.394" x2="475.329" y2="310.394" stroke="rgb(255,0,0)" stroke-width="0.705556"/>
		<line x1="475.329" y1="277.06" x2="475.329" y2="277.06" stroke="rgb(255,0,0)" stroke-width="0.705556"/>
		<line x1="475.329" y1="310.394" x2="475.329" y2="310.394" stroke="rgb(255,0,0)" stroke-width="0.705556"/>
		<line x1="475.329" y1="277.06" x2="475.329" y2="277.06" stroke="rgb(255,0,0)" stroke-width="0.705556"/>
		<line x1="475.329" y1="310.394" x2="475.329" y2="310.394" stroke="rgb(255,0,0)" stroke-width="0.705556"/>
		<line x1="475.329" y1="277.06" x2="475.329" y2="277.06" stroke="rgb(255,0,0)" stroke-width="0.705556"/>
		<line x1="475.329" y1="310.394" x2="475.329" y2="310.394" stroke="rgb(255,0,0)" stroke-width="0.705556"/>
		<line x1="475.329" y1="277.06" x2="475.329" y2="277.06" stroke="rgb(255,0,0)" stroke-width="0.705556"/>
		<line x1="475.329" y1="310.394" x2="475.329" y2="310.394" stroke="rgb(255,0,0)" stroke-width="0.705556"/>
		<line x1="475.329" y1="277.06" x2="475.329" y2="277.06" stroke="rgb(255,0,0)" stroke-width="0.705556"/>
		<line x1="475.329" y1="310.394" x2="475.329" y2="310.394" stroke="rgb(255,0,0)" stroke-width="0.705556"/>
		<line x1="475.329" y1="277.06" x2="475.329" y2="277.06" stroke="rgb(255,0,0)" stroke-width="0.705556"/>
		<line x1="475.329" y1="310.394" x2="475.329" y2="310.394" stroke="rgb(255,0,0)" stroke-width="0.705556"/>
		<line x1="475.329" y1="277.06" x2="475.329" y2="277.06" stroke="rgb(255,0,0)" stroke-width="0.705556"/>
		<line x1="475.329" y1="310.394" x2="475.329" y2="310.394" stroke="rgb(255,0,0)" stroke-width="0.705556"/>
		<line x1="475.329" y1="277.06" x2="475.329" y2="277.06" stroke="rgb(255,0,0)" stroke-width="0.705556"/>
		<line x1="475.329" y1="310.394" x2="475.329" y2="310.394" stroke="rgb(255,0,0)" stroke-width="0.705556"/>
		<line x1="475.329" y1="277.06" x2="475.329" y2="277.06" stroke="rgb(255,0,0)" stroke-width="0.705556"/>
		<line x1="475.329" y1="310.394" x2="478.579" y2="310.394" stroke="rgb(255,0,0)" stroke-width="0.705556"/>
		<line x1="478.579" y1="310.394" x2="478.579" y2="277.06" stroke="rgb(255,0,0)" stroke-width="0.705556"/>
		<line x1="478.579" y1="277.06" x2="475.329" y2="277.06" stroke="rgb(255,0,0)" stroke-width="0.705556"/>
		<line x1="475.329" y1="277.06" x2="475.329" y2="310.394" stroke="rgb(255,0,0)" stroke-width="0.705556"/>
		<line x1="475.329" y1="310.394" x2="475.329" y2="310.394" stroke="rgb(255,0,0)" stroke-width="0.705556"/>
		<line x1="475.329" y1="277.06" x2="475.329" y2="277.06" stroke="rgb(255,0,0)" stroke-width="0.705556"/>
	</g>
</svg>