<svg version = "1.1" xmlns = "http://www.w3.org/2000/svg" xmlns:xlink="http://www.w3.org/1999/xlink" width="984.606" height="202.006" viewbox = "0 0 984.606 202.006">
	<g transform="translate(-58.6293,286.927) scale(1,-1) ">
		<line x1="360.282" y1="187.924" x2="360.282" y2="286.574" stroke="rgb(255,255,0)" stroke-width="0.705556"/>
		<line x1="360.282" y1="286.574" x2="78.982" y2="286.574" stroke="rgb(255,0,0)" stroke-width="0.705556"/>
		<line x1="561.582" y1="286.574" x2="561.582" y2="187.924" stroke="rgb(255,255,0)" stroke-width="0.705556"/>
		<line x1="360.282" y1="286.574" x2="561.582" y2="286.574" stroke="rgb(255,0,0)" stroke-width="0.705556"/>
		<line x1="842.882" y1="187.924" x2="842.882" y2="286.574" stroke="rgb(255,255,0)" stroke-width="0.705556"/>
		<line x1="842.882" y1="286.574" x2="561.582" y2="286.574" stroke="rgb(255,0,0)" stroke-width="0.705556"/>
		<line x1="1042.88" y1="286.574" x2="1042.88" y2="187.924" stroke="rgb(255,0,0)" stroke-width="0.705556"/>
		<line x1="842.882" y1="286.574" x2="1042.88" y2="286.574" stroke="rgb(255,0,0)" stroke-width="0.705556"/>
		<line x1="561.582" y1="187.924" x2="560.082" y2="187.924" stroke="rgb(255,0,0)" stroke-width="0.705556"/>
		<line x1="560.082" y1="187.924" x2="560.082" y2="85.2745" stroke="rgb(255,0,0)" stroke-width="0.705556"/>
		<line x1="560.082" y1="85.2745" x2="361.782" y2="85.2745" stroke="rgb(255,0,0)" stroke-width="0.705556"/>
		<line x1="361.782" y1="85.2745" x2="361.782" y2="187.924" stroke="rgb(255,0,0)" stroke-width="0.705556"/>
		<line x1="361.782" y1="187.924" x2="360.282" y2="187.924" stroke="rgb(255,0,0)" stroke-width="0.705556"/>
		<line x1="560.082" y1="185.924" x2="361.782" y2="185.924" stroke="rgb(255,255,0)" stroke-width="0.705556"/>
		<line x1="842.882" y1="187.924" x2="841.382" y2="187.924" stroke="rgb(255,0,0)" stroke-width="0.705556"/>
		<line x1="841.382" y1="187.924" x2="841.382" y2="85.2745" stroke="rgb(255,0,0)" stroke-width="0.705556"/>
		<line x1="841.382" y1="85.2745" x2="563.082" y2="85.2745" stroke="rgb(255,0,0)" stroke-width="0.705556"/>
		<line x1="563.082" y1="85.2745" x2="563.082" y2="187.924" stroke="rgb(255,0,0)" stroke-width="0.705556"/>
		<line x1="563.082" y1="187.924" x2="561.582" y2="187.924" stroke="rgb(255,0,0)" stroke-width="0.705556"/>
		<line x1="841.382" y1="185.924" x2="563.082" y2="185.924" stroke="rgb(255,255,0)" stroke-width="0.705556"/>
		<line x1="842.882" y1="187.924" x2="844.382" y2="187.924" stroke="rgb(255,0,0)" stroke-width="0.705556"/>
		<line x1="844.382" y1="187.924" x2="844.382" y2="85.2745" stroke="rgb(255,0,0)" stroke-width="0.705556"/>
		<line x1="844.382" y1="85.2745" x2="1042.88" y2="85.2745" stroke="rgb(255,0,0)" stroke-width="0.705556"/>
		<line x1="1042.88" y1="85.2745" x2="1042.88" y2="187.924" stroke="rgb(255,0,0)" stroke-width="0.705556"/>
		<line x1="1042.88" y1="187.924" x2="1042.88" y2="187.924" stroke="rgb(255,0,0)" stroke-width="0.705556"/>
		<line x1="844.382" y1="185.924" x2="1042.88" y2="185.924" stroke="rgb(255,255,0)" stroke-width="0.705556"/>
		<line x1="80.482" y1="187.924" x2="80.482" y2="85.2745" stroke="rgb(255,0,0)" stroke-width="0.705556"/>
		<line x1="80.482" y1="85.2745" x2="358.782" y2="85.2745" stroke="rgb(255,0,0)" stroke-width="0.705556"/>
		<line x1="358.782" y1="85.2745" x2="358.782" y2="187.924" stroke="rgb(255,0,0)" stroke-width="0.705556"/>
		<line x1="358.782" y1="187.924" x2="360.282" y2="187.924" stroke="rgb(255,0,0)" stroke-width="0.705556"/>
		<line x1="80.482" y1="185.924" x2="358.782" y2="185.924" stroke="rgb(255,255,0)" stroke-width="0.705556"/>
		<line x1="80.482" y1="187.924" x2="58.982" y2="197.95" stroke="rgb(255,0,0)" stroke-width="0.705556"/>
		<line x1="58.982" y1="197.95" x2="58.982" y2="286.574" stroke="rgb(255,0,0)" stroke-width="0.705556"/>
		<line x1="78.982" y1="286.574" x2="78.982" y2="188.624" stroke="rgb(255,255,0)" stroke-width="0.705556"/>
		<line x1="78.982" y1="286.574" x2="58.982" y2="286.574" stroke="rgb(255,0,0)" stroke-width="0.705556"/>
		<line x1="1042.88" y1="187.924" x2="1042.88" y2="187.924" stroke="rgb(255,0,0)" stroke-width="0.705556"/>
		<line x1="943.632" y1="238.539" x2="943.632" y2="210.924" stroke="rgb(64,128,128)" stroke-width="0"/>
		<line x1="952.116" y1="220.129" x2="952.116" y2="210.924" stroke="rgb(64,128,128)" stroke-width="0"/>
		<line x1="947.874" y1="229.334" x2="947.874" y2="210.924" stroke="rgb(64,128,128)" stroke-width="0"/>
		<line x1="939.39" y1="247.744" x2="939.39" y2="210.924" stroke="rgb(64,128,128)" stroke-width="0"/>
		<line x1="935.148" y1="256.949" x2="935.148" y2="210.924" stroke="rgb(64,128,128)" stroke-width="0"/>
		<line x1="930.906" y1="266.154" x2="930.906" y2="210.924" stroke="rgb(64,128,128)" stroke-width="0"/>
		<line x1="956.358" y1="210.924" x2="930.906" y2="210.924" stroke="rgb(64,128,128)" stroke-width="0"/>
		<line x1="930.906" y1="266.154" x2="959.181" y2="237.836" stroke="rgb(64,128,128)" stroke-width="0"/>
		<path d="M959.181,237.836 a26.6045 26.6045 0 0 1 -2.82257,-26.9118" fill="none" stroke="rgb(64,128,128)" stroke-width="0"/>
		<line x1="956.358" y1="210.924" x2="930.906" y2="266.154" stroke="rgb(64,128,128)" stroke-width="0"/>
	</g>
</svg>