<svg version = "1.1" xmlns = "http://www.w3.org/2000/svg" xmlns:xlink="http://www.w3.org/1999/xlink" width="989.606" height="282.201" viewbox = "0 0 989.606 282.201">
	<g transform="translate(5.44638,301.003) scale(1,-1) ">
		<line x1="301.206" y1="151" x2="301.206" y2="300.65" stroke="rgb(255,255,0)" stroke-width="0.705556"/>
		<line x1="301.206" y1="300.65" x2="19.9064" y2="300.65" stroke="rgb(255,0,0)" stroke-width="0.705556"/>
		<line x1="502.506" y1="300.65" x2="502.506" y2="151" stroke="rgb(255,255,0)" stroke-width="0.705556"/>
		<line x1="301.206" y1="300.65" x2="502.506" y2="300.65" stroke="rgb(255,0,0)" stroke-width="0.705556"/>
		<line x1="783.806" y1="151" x2="783.806" y2="300.65" stroke="rgb(255,255,0)" stroke-width="0.705556"/>
		<line x1="783.806" y1="300.65" x2="502.506" y2="300.65" stroke="rgb(255,0,0)" stroke-width="0.705556"/>
		<line x1="983.806" y1="300.65" x2="983.806" y2="150" stroke="rgb(255,0,0)" stroke-width="0.705556"/>
		<line x1="783.806" y1="300.65" x2="983.806" y2="300.65" stroke="rgb(255,0,0)" stroke-width="0.705556"/>
		<line x1="643.156" y1="202.615" x2="643.156" y2="175" stroke="rgb(64,128,128)" stroke-width="0"/>
		<line x1="651.64" y1="184.205" x2="651.64" y2="175" stroke="rgb(64,128,128)" stroke-width="0"/>
		<line x1="647.398" y1="193.41" x2="647.398" y2="175" stroke="rgb(64,128,128)" stroke-width="0"/>
		<line x1="638.914" y1="211.82" x2="638.914" y2="175" stroke="rgb(64,128,128)" stroke-width="0"/>
		<line x1="634.672" y1="221.025" x2="634.672" y2="175" stroke="rgb(64,128,128)" stroke-width="0"/>
		<line x1="630.43" y1="230.23" x2="630.43" y2="175" stroke="rgb(64,128,128)" stroke-width="0"/>
		<line x1="655.882" y1="175" x2="630.43" y2="175" stroke="rgb(64,128,128)" stroke-width="0"/>
		<line x1="630.43" y1="230.23" x2="658.705" y2="201.912" stroke="rgb(64,128,128)" stroke-width="0"/>
		<path d="M658.705,201.912 a26.6045 26.6045 0 0 1 -2.82257,-26.9118" fill="none" stroke="rgb(64,128,128)" stroke-width="0"/>
		<line x1="655.882" y1="175" x2="630.43" y2="230.23" stroke="rgb(64,128,128)" stroke-width="0"/>
		<line x1="297.906" y1="147.7" x2="297.906" y2="19.155" stroke="rgb(255,0,0)" stroke-width="0.705556"/>
		<line x1="297.906" y1="19.155" x2="234.106" y2="19.155" stroke="rgb(255,0,0)" stroke-width="0.705556"/>
		<line x1="234.106" y1="49.35" x2="87.0064" y2="49.35" stroke="rgb(255,0,0)" stroke-width="0.705556"/>
		<line x1="87.0064" y1="19.155" x2="23.2064" y2="19.155" stroke="rgb(255,0,0)" stroke-width="0.705556"/>
		<line x1="23.2064" y1="150" x2="23.2064" y2="19.155" stroke="rgb(255,0,0)" stroke-width="0.705556"/>
		<line x1="234.106" y1="49.35" x2="234.106" y2="19.155" stroke="rgb(255,0,0)" stroke-width="0.705556"/>
		<line x1="87.0064" y1="49.35" x2="87.0064" y2="19.155" stroke="rgb(255,0,0)" stroke-width="0.705556"/>
		<path d="M301.206,151 a3.3 3.3 0 0 1 -3.3,-3.3" fill="none" stroke="rgb(255,0,0)" stroke-width="0.705556"/>
		<line x1="298.84" y1="150" x2="23.2064" y2="150" stroke="rgb(255,255,0)" stroke-width="0.705556"/>
		<line x1="716.706" y1="49.35" x2="716.706" y2="19.155" stroke="rgb(255,0,0)" stroke-width="0.705556"/>
		<line x1="716.706" y1="19.155" x2="569.606" y2="19.155" stroke="rgb(255,0,0)" stroke-width="0.705556"/>
		<line x1="569.606" y1="19.155" x2="569.606" y2="49.35" stroke="rgb(255,0,0)" stroke-width="0.705556"/>
		<path d="M783.806,151 a3.3 3.3 0 0 1 -2.7765,-1.51644" fill="none" stroke="rgb(255,0,0)" stroke-width="0.705556"/>
		<line x1="781.03" y1="149.484" x2="716.706" y2="49.35" stroke="rgb(255,0,0)" stroke-width="0.705556"/>
		<path d="M502.506,151 a3.3 3.3 0 0 0 2.7765,-1.51644" fill="none" stroke="rgb(255,0,0)" stroke-width="0.705556"/>
		<line x1="505.283" y1="149.484" x2="569.606" y2="49.35" stroke="rgb(255,0,0)" stroke-width="0.705556"/>
		<line x1="781.44" y1="150" x2="504.873" y2="150" stroke="rgb(255,255,0)" stroke-width="0.705556"/>
		<line x1="403.156" y1="19.155" x2="499.206" y2="19.155" stroke="rgb(255,0,0)" stroke-width="0.705556"/>
		<line x1="499.206" y1="19.155" x2="499.206" y2="147.7" stroke="rgb(255,0,0)" stroke-width="0.705556"/>
		<line x1="403.156" y1="82.9" x2="403.156" y2="19.155" stroke="rgb(255,0,0)" stroke-width="0.705556"/>
		<path d="M502.506,151 a3.3 3.3 0 0 1 -3.3,-3.3" fill="none" stroke="rgb(255,0,0)" stroke-width="0.705556"/>
		<path d="M301.206,151 a3.3 3.3 0 0 0 1.84561,-0.564358" fill="none" stroke="rgb(255,0,0)" stroke-width="0.705556"/>
		<line x1="403.156" y1="82.9" x2="303.052" y2="150.436" stroke="rgb(255,0,0)" stroke-width="0.705556"/>
		<line x1="500.14" y1="150" x2="303.698" y2="150" stroke="rgb(255,255,0)" stroke-width="0.705556"/>
		<line x1="881.856" y1="19.155" x2="787.106" y2="19.155" stroke="rgb(255,0,0)" stroke-width="0.705556"/>
		<line x1="787.106" y1="19.155" x2="787.106" y2="147.7" stroke="rgb(255,0,0)" stroke-width="0.705556"/>
		<line x1="881.856" y1="82.9" x2="881.856" y2="19.155" stroke="rgb(255,0,0)" stroke-width="0.705556"/>
		<path d="M783.806,151 a3.3 3.3 0 0 0 3.3,-3.3" fill="none" stroke="rgb(255,0,0)" stroke-width="0.705556"/>
		<line x1="881.856" y1="82.9" x2="983.806" y2="150" stroke="rgb(255,0,0)" stroke-width="0.705556"/>
		<line x1="786.173" y1="150" x2="983.806" y2="150" stroke="rgb(255,255,0)" stroke-width="0.705556"/>
		<line x1="983.806" y1="150" x2="983.806" y2="150" stroke="rgb(255,0,0)" stroke-width="0.705556"/>
		<line x1="23.2064" y1="150" x2="-5.0936" y2="157.583" stroke="rgb(255,0,0)" stroke-width="0.705556"/>
		<line x1="-5.0936" y1="157.583" x2="-5.0936" y2="300.65" stroke="rgb(255,0,0)" stroke-width="0.705556"/>
		<line x1="-5.0936" y1="300.65" x2="19.9064" y2="300.65" stroke="rgb(255,0,0)" stroke-width="0.705556"/>
		<line x1="19.9064" y1="150.884" x2="19.9064" y2="300.65" stroke="rgb(255,255,0)" stroke-width="0.705556"/>
	</g>
</svg>