<svg version = "1.1" xmlns = "http://www.w3.org/2000/svg" xmlns:xlink="http://www.w3.org/1999/xlink" width="759.072" height="473.872" viewbox = "0 0 759.072 473.872">
	<g transform="translate(4.60171,513.425) scale(1,-1) ">
		<line x1="519.484" y1="378.439" x2="230.384" y2="378.439" stroke="rgb(255,255,0)" stroke-width="0.705556"/>
		<line x1="230.384" y1="174.539" x2="519.484" y2="174.539" stroke="rgb(255,255,0)" stroke-width="0.705556"/>
		<line x1="519.484" y1="174.539" x2="519.484" y2="378.439" stroke="rgb(255,255,0)" stroke-width="0.705556"/>
		<line x1="230.384" y1="378.439" x2="230.384" y2="174.539" stroke="rgb(255,255,0)" stroke-width="0.705556"/>
		<line x1="245.684" y1="513.072" x2="504.184" y2="513.072" stroke="rgb(255,0,0)" stroke-width="0.705556"/>
		<line x1="231.684" y1="479.739" x2="518.184" y2="479.739" stroke="rgb(255,255,0)" stroke-width="0.705556"/>
		<line x1="504.184" y1="39.9054" x2="245.684" y2="39.9054" stroke="rgb(255,0,0)" stroke-width="0.705556"/>
		<line x1="518.184" y1="73.2388" x2="231.684" y2="73.2388" stroke="rgb(255,255,0)" stroke-width="0.705556"/>
		<line x1="620.784" y1="377.139" x2="620.784" y2="175.839" stroke="rgb(255,255,0)" stroke-width="0.705556"/>
		<line x1="129.084" y1="175.839" x2="129.084" y2="377.139" stroke="rgb(255,255,0)" stroke-width="0.705556"/>
		<line x1="720.784" y1="377.139" x2="754.118" y2="377.139" stroke="rgb(255,0,0)" stroke-width="0.705556"/>
		<line x1="754.118" y1="377.139" x2="754.118" y2="175.839" stroke="rgb(255,0,0)" stroke-width="0.705556"/>
		<line x1="754.118" y1="175.839" x2="720.784" y2="175.839" stroke="rgb(255,0,0)" stroke-width="0.705556"/>
		<line x1="720.784" y1="175.839" x2="720.784" y2="377.139" stroke="rgb(255,255,0)" stroke-width="0.705556"/>
		<line x1="29.0844" y1="175.839" x2="-4.24893" y2="175.839" stroke="rgb(255,0,0)" stroke-width="0.705556"/>
		<line x1="-4.24893" y1="175.839" x2="-4.24893" y2="377.139" stroke="rgb(255,0,0)" stroke-width="0.705556"/>
		<line x1="-4.24893" y1="377.139" x2="29.0844" y2="377.139" stroke="rgb(255,0,0)" stroke-width="0.705556"/>
		<line x1="29.0844" y1="377.139" x2="29.0844" y2="175.839" stroke="rgb(255,255,0)" stroke-width="0.705556"/>
		<line x1="720.784" y1="175.839" x2="720.134" y2="175.839" stroke="rgb(255,0,0)" stroke-width="0.705556"/>
		<line x1="720.134" y1="175.839" x2="720.134" y2="161.839" stroke="rgb(255,0,0)" stroke-width="0.705556"/>
		<line x1="720.134" y1="161.839" x2="648.468" y2="161.839" stroke="rgb(255,0,0)" stroke-width="0.705556"/>
		<line x1="648.468" y1="161.839" x2="648.468" y2="175.839" stroke="rgb(255,0,0)" stroke-width="0.705556"/>
		<line x1="648.468" y1="175.839" x2="620.784" y2="175.839" stroke="rgb(255,0,0)" stroke-width="0.705556"/>
		<line x1="720.134" y1="175.839" x2="648.468" y2="175.839" stroke="rgb(255,255,0)" stroke-width="0.705556"/>
		<line x1="720.784" y1="377.139" x2="720.134" y2="377.139" stroke="rgb(255,0,0)" stroke-width="0.705556"/>
		<line x1="720.134" y1="377.139" x2="720.134" y2="391.139" stroke="rgb(255,0,0)" stroke-width="0.705556"/>
		<line x1="720.134" y1="391.139" x2="648.468" y2="391.139" stroke="rgb(255,0,0)" stroke-width="0.705556"/>
		<line x1="648.468" y1="391.139" x2="648.468" y2="377.139" stroke="rgb(255,0,0)" stroke-width="0.705556"/>
		<line x1="648.468" y1="377.139" x2="620.784" y2="377.139" stroke="rgb(255,0,0)" stroke-width="0.705556"/>
		<line x1="720.134" y1="377.139" x2="648.468" y2="377.139" stroke="rgb(255,255,0)" stroke-width="0.705556"/>
		<line x1="29.0844" y1="175.839" x2="29.7344" y2="175.839" stroke="rgb(255,0,0)" stroke-width="0.705556"/>
		<line x1="29.7344" y1="175.839" x2="29.7344" y2="161.839" stroke="rgb(255,0,0)" stroke-width="0.705556"/>
		<line x1="29.7344" y1="161.839" x2="101.401" y2="161.839" stroke="rgb(255,0,0)" stroke-width="0.705556"/>
		<line x1="101.401" y1="161.839" x2="101.401" y2="175.839" stroke="rgb(255,0,0)" stroke-width="0.705556"/>
		<line x1="101.401" y1="175.839" x2="129.084" y2="175.839" stroke="rgb(255,0,0)" stroke-width="0.705556"/>
		<line x1="29.7344" y1="175.839" x2="101.401" y2="175.839" stroke="rgb(255,255,0)" stroke-width="0.705556"/>
		<line x1="29.0844" y1="377.139" x2="29.7344" y2="377.139" stroke="rgb(255,0,0)" stroke-width="0.705556"/>
		<line x1="29.7344" y1="377.139" x2="29.7344" y2="391.139" stroke="rgb(255,0,0)" stroke-width="0.705556"/>
		<line x1="29.7344" y1="391.139" x2="101.401" y2="391.139" stroke="rgb(255,0,0)" stroke-width="0.705556"/>
		<line x1="101.401" y1="391.139" x2="101.401" y2="377.139" stroke="rgb(255,0,0)" stroke-width="0.705556"/>
		<line x1="101.401" y1="377.139" x2="129.084" y2="377.139" stroke="rgb(255,0,0)" stroke-width="0.705556"/>
		<line x1="29.7344" y1="377.139" x2="101.401" y2="377.139" stroke="rgb(255,255,0)" stroke-width="0.705556"/>
		<line x1="504.184" y1="513.072" x2="504.184" y2="508.072" stroke="rgb(255,0,0)" stroke-width="0.705556"/>
		<line x1="504.184" y1="508.072" x2="518.184" y2="508.072" stroke="rgb(255,0,0)" stroke-width="0.705556"/>
		<line x1="245.684" y1="513.072" x2="245.684" y2="508.072" stroke="rgb(255,0,0)" stroke-width="0.705556"/>
		<line x1="245.684" y1="508.072" x2="231.684" y2="508.072" stroke="rgb(255,0,0)" stroke-width="0.705556"/>
		<line x1="504.184" y1="39.9054" x2="504.184" y2="44.9054" stroke="rgb(255,0,0)" stroke-width="0.705556"/>
		<line x1="504.184" y1="44.9054" x2="518.184" y2="44.9054" stroke="rgb(255,0,0)" stroke-width="0.705556"/>
		<line x1="245.684" y1="39.9054" x2="245.684" y2="44.9054" stroke="rgb(255,0,0)" stroke-width="0.705556"/>
		<line x1="245.684" y1="44.9054" x2="231.684" y2="44.9054" stroke="rgb(255,0,0)" stroke-width="0.705556"/>
		<line x1="518.184" y1="508.072" x2="518.184" y2="508.072" stroke="rgb(255,0,0)" stroke-width="0.705556"/>
		<line x1="518.184" y1="508.072" x2="551.951" y2="508.072" stroke="rgb(255,0,0)" stroke-width="0.705556"/>
		<line x1="551.951" y1="508.072" x2="551.951" y2="481.039" stroke="rgb(255,0,0)" stroke-width="0.705556"/>
		<line x1="551.951" y1="481.039" x2="518.184" y2="481.039" stroke="rgb(255,0,0)" stroke-width="0.705556"/>
		<line x1="518.184" y1="481.039" x2="518.184" y2="479.739" stroke="rgb(255,0,0)" stroke-width="0.705556"/>
		<line x1="518.184" y1="508.072" x2="518.184" y2="481.039" stroke="rgb(255,255,0)" stroke-width="0.705556"/>
		<line x1="518.184" y1="44.9054" x2="518.184" y2="44.9054" stroke="rgb(255,0,0)" stroke-width="0.705556"/>
		<line x1="518.184" y1="44.9054" x2="551.951" y2="44.9054" stroke="rgb(255,0,0)" stroke-width="0.705556"/>
		<line x1="551.951" y1="44.9054" x2="551.951" y2="71.9388" stroke="rgb(255,0,0)" stroke-width="0.705556"/>
		<line x1="551.951" y1="71.9388" x2="518.184" y2="71.9388" stroke="rgb(255,0,0)" stroke-width="0.705556"/>
		<line x1="518.184" y1="71.9388" x2="518.184" y2="73.2388" stroke="rgb(255,0,0)" stroke-width="0.705556"/>
		<line x1="518.184" y1="44.9054" x2="518.184" y2="71.9388" stroke="rgb(255,255,0)" stroke-width="0.705556"/>
		<line x1="231.684" y1="44.9054" x2="231.684" y2="44.9054" stroke="rgb(255,0,0)" stroke-width="0.705556"/>
		<line x1="231.684" y1="44.9054" x2="197.918" y2="44.9054" stroke="rgb(255,0,0)" stroke-width="0.705556"/>
		<line x1="197.918" y1="44.9054" x2="197.918" y2="71.9388" stroke="rgb(255,0,0)" stroke-width="0.705556"/>
		<line x1="197.918" y1="71.9388" x2="231.684" y2="71.9388" stroke="rgb(255,0,0)" stroke-width="0.705556"/>
		<line x1="231.684" y1="71.9388" x2="231.684" y2="73.2388" stroke="rgb(255,0,0)" stroke-width="0.705556"/>
		<line x1="231.684" y1="44.9054" x2="231.684" y2="71.9388" stroke="rgb(255,255,0)" stroke-width="0.705556"/>
		<line x1="231.684" y1="508.072" x2="231.684" y2="508.072" stroke="rgb(255,0,0)" stroke-width="0.705556"/>
		<line x1="231.684" y1="508.072" x2="197.918" y2="508.072" stroke="rgb(255,0,0)" stroke-width="0.705556"/>
		<line x1="197.918" y1="508.072" x2="197.918" y2="481.039" stroke="rgb(255,0,0)" stroke-width="0.705556"/>
		<line x1="197.918" y1="481.039" x2="231.684" y2="481.039" stroke="rgb(255,0,0)" stroke-width="0.705556"/>
		<line x1="231.684" y1="481.039" x2="231.684" y2="479.739" stroke="rgb(255,0,0)" stroke-width="0.705556"/>
		<line x1="231.684" y1="508.072" x2="231.684" y2="481.039" stroke="rgb(255,255,0)" stroke-width="0.705556"/>
		<line x1="381.307" y1="222.265" x2="353.692" y2="222.265" stroke="rgb(64,128,128)" stroke-width="0"/>
		<line x1="362.897" y1="230.749" x2="353.692" y2="230.749" stroke="rgb(64,128,128)" stroke-width="0"/>
		<line x1="372.102" y1="226.507" x2="353.692" y2="226.507" stroke="rgb(64,128,128)" stroke-width="0"/>
		<line x1="390.512" y1="218.023" x2="353.692" y2="218.023" stroke="rgb(64,128,128)" stroke-width="0"/>
		<line x1="399.717" y1="213.781" x2="353.692" y2="213.781" stroke="rgb(64,128,128)" stroke-width="0"/>
		<line x1="408.922" y1="209.539" x2="353.692" y2="209.539" stroke="rgb(64,128,128)" stroke-width="0"/>
		<line x1="353.692" y1="234.991" x2="353.692" y2="209.539" stroke="rgb(64,128,128)" stroke-width="0"/>
		<line x1="408.922" y1="209.539" x2="380.604" y2="237.813" stroke="rgb(64,128,128)" stroke-width="0"/>
		<path d="M380.604,237.813 a26.6045 26.6045 0 0 0 -26.9118,-2.82257" fill="none" stroke="rgb(64,128,128)" stroke-width="0"/>
		<line x1="353.692" y1="234.991" x2="408.922" y2="209.539" stroke="rgb(64,128,128)" stroke-width="0"/>
		<line x1="519.484" y1="378.439" x2="620.47" y2="378.439" stroke="rgb(255,255,0)" stroke-width="0.705556"/>
		<line x1="519.484" y1="378.439" x2="600.784" y2="459.739" stroke="rgb(255,255,0)" stroke-width="0.705556"/>
		<line x1="620.784" y1="377.139" x2="600.784" y2="459.739" stroke="rgb(255,0,0)" stroke-width="0.705556"/>
		<line x1="600.784" y1="459.739" x2="518.184" y2="479.739" stroke="rgb(255,0,0)" stroke-width="0.705556"/>
		<line x1="519.484" y1="378.439" x2="519.484" y2="479.424" stroke="rgb(255,255,0)" stroke-width="0.705556"/>
		<line x1="519.484" y1="174.539" x2="620.47" y2="174.539" stroke="rgb(255,255,0)" stroke-width="0.705556"/>
		<line x1="519.484" y1="174.539" x2="600.784" y2="93.2388" stroke="rgb(255,255,0)" stroke-width="0.705556"/>
		<line x1="620.784" y1="175.839" x2="600.784" y2="93.2388" stroke="rgb(255,0,0)" stroke-width="0.705556"/>
		<line x1="600.784" y1="93.2388" x2="518.184" y2="73.2388" stroke="rgb(255,0,0)" stroke-width="0.705556"/>
		<line x1="519.484" y1="174.539" x2="519.484" y2="73.5535" stroke="rgb(255,255,0)" stroke-width="0.705556"/>
		<line x1="230.384" y1="378.439" x2="129.399" y2="378.439" stroke="rgb(255,255,0)" stroke-width="0.705556"/>
		<line x1="230.384" y1="378.439" x2="149.084" y2="459.739" stroke="rgb(255,255,0)" stroke-width="0.705556"/>
		<line x1="129.084" y1="377.139" x2="149.084" y2="459.739" stroke="rgb(255,0,0)" stroke-width="0.705556"/>
		<line x1="149.084" y1="459.739" x2="231.684" y2="479.739" stroke="rgb(255,0,0)" stroke-width="0.705556"/>
		<line x1="230.384" y1="378.439" x2="230.384" y2="479.424" stroke="rgb(255,255,0)" stroke-width="0.705556"/>
		<line x1="230.384" y1="174.539" x2="129.399" y2="174.539" stroke="rgb(255,255,0)" stroke-width="0.705556"/>
		<line x1="230.384" y1="174.539" x2="149.084" y2="93.2388" stroke="rgb(255,255,0)" stroke-width="0.705556"/>
		<line x1="129.084" y1="175.839" x2="149.084" y2="93.2388" stroke="rgb(255,0,0)" stroke-width="0.705556"/>
		<line x1="149.084" y1="93.2388" x2="231.684" y2="73.2388" stroke="rgb(255,0,0)" stroke-width="0.705556"/>
		<line x1="230.384" y1="174.539" x2="230.384" y2="73.5535" stroke="rgb(255,255,0)" stroke-width="0.705556"/>
	</g>
</svg>