<svg version = "1.1" xmlns = "http://www.w3.org/2000/svg" xmlns:xlink="http://www.w3.org/1999/xlink" width="747.606" height="662.406" viewbox = "0 0 747.606 662.406">
	<g transform="translate(-49.9068,683.113) scale(1,-1) ">
		<line x1="568.26" y1="453.86" x2="279.16" y2="453.86" stroke="rgb(255,255,0)" stroke-width="0.705556"/>
		<line x1="279.16" y1="249.96" x2="568.26" y2="249.96" stroke="rgb(255,255,0)" stroke-width="0.705556"/>
		<line x1="568.26" y1="249.96" x2="568.26" y2="453.86" stroke="rgb(255,255,0)" stroke-width="0.705556"/>
		<line x1="279.16" y1="453.86" x2="279.16" y2="249.96" stroke="rgb(255,255,0)" stroke-width="0.705556"/>
		<line x1="279.81" y1="556.46" x2="279.81" y2="657.76" stroke="rgb(255,0,0)" stroke-width="0.705556"/>
		<line x1="567.61" y1="657.76" x2="567.61" y2="556.46" stroke="rgb(255,0,0)" stroke-width="0.705556"/>
		<line x1="279.81" y1="556.46" x2="567.61" y2="556.46" stroke="rgb(255,255,0)" stroke-width="0.705556"/>
		<line x1="567.61" y1="147.36" x2="567.61" y2="46.06" stroke="rgb(255,0,0)" stroke-width="0.705556"/>
		<line x1="279.81" y1="46.06" x2="279.81" y2="147.36" stroke="rgb(255,0,0)" stroke-width="0.705556"/>
		<line x1="567.61" y1="147.36" x2="279.81" y2="147.36" stroke="rgb(255,255,0)" stroke-width="0.705556"/>
		<line x1="670.86" y1="453.21" x2="772.16" y2="453.21" stroke="rgb(255,0,0)" stroke-width="0.705556"/>
		<line x1="772.16" y1="250.61" x2="670.86" y2="250.61" stroke="rgb(255,0,0)" stroke-width="0.705556"/>
		<line x1="670.86" y1="453.21" x2="670.86" y2="250.61" stroke="rgb(255,255,0)" stroke-width="0.705556"/>
		<line x1="176.56" y1="250.61" x2="75.2596" y2="250.61" stroke="rgb(255,0,0)" stroke-width="0.705556"/>
		<line x1="75.2596" y1="453.21" x2="176.56" y2="453.21" stroke="rgb(255,0,0)" stroke-width="0.705556"/>
		<line x1="176.56" y1="250.61" x2="176.56" y2="453.21" stroke="rgb(255,255,0)" stroke-width="0.705556"/>
		<line x1="279.81" y1="657.76" x2="567.61" y2="657.76" stroke="rgb(255,255,0)" stroke-width="0.705556"/>
		<line x1="567.61" y1="657.76" x2="542.61" y2="682.76" stroke="rgb(255,0,0)" stroke-width="0.705556"/>
		<line x1="542.61" y1="682.76" x2="304.81" y2="682.76" stroke="rgb(255,0,0)" stroke-width="0.705556"/>
		<line x1="304.81" y1="682.76" x2="279.81" y2="657.76" stroke="rgb(255,0,0)" stroke-width="0.705556"/>
		<line x1="772.16" y1="453.21" x2="772.16" y2="250.61" stroke="rgb(255,255,0)" stroke-width="0.705556"/>
		<line x1="772.16" y1="250.61" x2="797.16" y2="275.61" stroke="rgb(255,0,0)" stroke-width="0.705556"/>
		<line x1="797.16" y1="275.61" x2="797.16" y2="428.21" stroke="rgb(255,0,0)" stroke-width="0.705556"/>
		<line x1="797.16" y1="428.21" x2="772.16" y2="453.21" stroke="rgb(255,0,0)" stroke-width="0.705556"/>
		<line x1="75.2596" y1="250.61" x2="75.2596" y2="453.21" stroke="rgb(255,255,0)" stroke-width="0.705556"/>
		<line x1="75.2596" y1="453.21" x2="50.2596" y2="428.21" stroke="rgb(255,0,0)" stroke-width="0.705556"/>
		<line x1="50.2596" y1="428.21" x2="50.2596" y2="275.61" stroke="rgb(255,0,0)" stroke-width="0.705556"/>
		<line x1="50.2596" y1="275.61" x2="75.2596" y2="250.61" stroke="rgb(255,0,0)" stroke-width="0.705556"/>
		<line x1="567.61" y1="46.06" x2="279.81" y2="46.06" stroke="rgb(255,255,0)" stroke-width="0.705556"/>
		<line x1="279.81" y1="46.06" x2="304.81" y2="21.06" stroke="rgb(255,0,0)" stroke-width="0.705556"/>
		<line x1="304.81" y1="21.06" x2="542.61" y2="21.06" stroke="rgb(255,0,0)" stroke-width="0.705556"/>
		<line x1="542.61" y1="21.06" x2="567.61" y2="46.06" stroke="rgb(255,0,0)" stroke-width="0.705556"/>
		<line x1="430.082" y1="297.686" x2="402.467" y2="297.686" stroke="rgb(64,128,128)" stroke-width="0"/>
		<line x1="411.672" y1="306.17" x2="402.467" y2="306.17" stroke="rgb(64,128,128)" stroke-width="0"/>
		<line x1="420.877" y1="301.928" x2="402.467" y2="301.928" stroke="rgb(64,128,128)" stroke-width="0"/>
		<line x1="439.287" y1="293.444" x2="402.467" y2="293.444" stroke="rgb(64,128,128)" stroke-width="0"/>
		<line x1="448.492" y1="289.202" x2="402.467" y2="289.202" stroke="rgb(64,128,128)" stroke-width="0"/>
		<line x1="457.697" y1="284.96" x2="402.467" y2="284.96" stroke="rgb(64,128,128)" stroke-width="0"/>
		<line x1="402.467" y1="310.412" x2="402.467" y2="284.96" stroke="rgb(64,128,128)" stroke-width="0"/>
		<line x1="457.697" y1="284.96" x2="429.379" y2="313.235" stroke="rgb(64,128,128)" stroke-width="0"/>
		<path d="M429.379,313.235 a26.6045 26.6045 0 0 0 -26.9118,-2.82257" fill="none" stroke="rgb(64,128,128)" stroke-width="0"/>
		<line x1="402.467" y1="310.412" x2="457.697" y2="284.96" stroke="rgb(64,128,128)" stroke-width="0"/>
		<line x1="568.26" y1="453.86" x2="670.701" y2="453.86" stroke="rgb(255,255,0)" stroke-width="0.705556"/>
		<line x1="568.26" y1="453.86" x2="650.6" y2="536.2" stroke="rgb(255,255,0)" stroke-width="0.705556"/>
		<line x1="670.86" y1="453.21" x2="650.6" y2="536.2" stroke="rgb(255,0,0)" stroke-width="0.705556"/>
		<line x1="650.6" y1="536.2" x2="567.61" y2="556.46" stroke="rgb(255,0,0)" stroke-width="0.705556"/>
		<line x1="568.26" y1="453.86" x2="568.26" y2="556.301" stroke="rgb(255,255,0)" stroke-width="0.705556"/>
		<line x1="279.16" y1="453.86" x2="176.718" y2="453.86" stroke="rgb(255,255,0)" stroke-width="0.705556"/>
		<line x1="279.16" y1="453.86" x2="196.82" y2="536.2" stroke="rgb(255,255,0)" stroke-width="0.705556"/>
		<line x1="176.56" y1="453.21" x2="196.82" y2="536.2" stroke="rgb(255,0,0)" stroke-width="0.705556"/>
		<line x1="196.82" y1="536.2" x2="279.81" y2="556.46" stroke="rgb(255,0,0)" stroke-width="0.705556"/>
		<line x1="279.16" y1="453.86" x2="279.16" y2="556.301" stroke="rgb(255,255,0)" stroke-width="0.705556"/>
		<line x1="568.26" y1="249.96" x2="670.701" y2="249.96" stroke="rgb(255,255,0)" stroke-width="0.705556"/>
		<line x1="568.26" y1="249.96" x2="650.6" y2="167.62" stroke="rgb(255,255,0)" stroke-width="0.705556"/>
		<line x1="670.86" y1="250.61" x2="650.6" y2="167.62" stroke="rgb(255,0,0)" stroke-width="0.705556"/>
		<line x1="650.6" y1="167.62" x2="567.61" y2="147.36" stroke="rgb(255,0,0)" stroke-width="0.705556"/>
		<line x1="568.26" y1="249.96" x2="568.26" y2="147.519" stroke="rgb(255,255,0)" stroke-width="0.705556"/>
		<line x1="279.16" y1="249.96" x2="176.718" y2="249.96" stroke="rgb(255,255,0)" stroke-width="0.705556"/>
		<line x1="279.16" y1="249.96" x2="196.82" y2="167.62" stroke="rgb(255,255,0)" stroke-width="0.705556"/>
		<line x1="176.56" y1="250.61" x2="196.82" y2="167.62" stroke="rgb(255,0,0)" stroke-width="0.705556"/>
		<line x1="196.82" y1="167.62" x2="279.81" y2="147.36" stroke="rgb(255,0,0)" stroke-width="0.705556"/>
		<line x1="279.16" y1="249.96" x2="279.16" y2="147.519" stroke="rgb(255,255,0)" stroke-width="0.705556"/>
	</g>
</svg>