<svg version = "1.1" xmlns = "http://www.w3.org/2000/svg" xmlns:xlink="http://www.w3.org/1999/xlink" width="424.439" height="344.439" viewbox = "0 0 424.439 344.439">
	<g transform="translate(-7.1218,349.963) scale(1,-1) ">
		<line x1="76.0912" y1="280.994" x2="76.0912" y2="315.627" stroke="rgb(255,0,0)" stroke-width="0.705556"/>
		<line x1="362.591" y1="315.627" x2="362.591" y2="280.994" stroke="rgb(255,0,0)" stroke-width="0.705556"/>
		<line x1="362.591" y1="280.994" x2="397.225" y2="280.994" stroke="rgb(255,0,0)" stroke-width="0.705556"/>
		<line x1="397.225" y1="74.4937" x2="362.591" y2="74.4937" stroke="rgb(255,0,0)" stroke-width="0.705556"/>
		<line x1="362.591" y1="74.4937" x2="362.591" y2="39.8604" stroke="rgb(255,0,0)" stroke-width="0.705556"/>
		<line x1="76.0912" y1="39.8604" x2="76.0912" y2="74.4937" stroke="rgb(255,0,0)" stroke-width="0.705556"/>
		<line x1="76.0912" y1="280.994" x2="41.4579" y2="280.994" stroke="rgb(255,0,0)" stroke-width="0.705556"/>
		<line x1="41.4579" y1="74.4937" x2="76.0912" y2="74.4937" stroke="rgb(255,0,0)" stroke-width="0.705556"/>
		<line x1="362.591" y1="280.994" x2="76.0912" y2="280.994" stroke="rgb(255,255,0)" stroke-width="0.705556"/>
		<line x1="76.0912" y1="280.994" x2="76.0912" y2="74.4937" stroke="rgb(255,255,0)" stroke-width="0.705556"/>
		<line x1="76.0912" y1="74.4937" x2="362.591" y2="74.4937" stroke="rgb(255,255,0)" stroke-width="0.705556"/>
		<line x1="362.591" y1="74.4937" x2="362.591" y2="280.994" stroke="rgb(255,255,0)" stroke-width="0.705556"/>
		<line x1="76.0912" y1="280.994" x2="76.0912" y2="280.994" stroke="rgb(255,0,0)" stroke-width="0.705556"/>
		<line x1="76.0912" y1="280.994" x2="76.0912" y2="280.994" stroke="rgb(255,0,0)" stroke-width="0.705556"/>
		<line x1="362.591" y1="280.994" x2="362.591" y2="280.994" stroke="rgb(255,0,0)" stroke-width="0.705556"/>
		<line x1="362.591" y1="280.994" x2="362.591" y2="280.994" stroke="rgb(255,0,0)" stroke-width="0.705556"/>
		<line x1="362.591" y1="74.4937" x2="362.591" y2="74.4937" stroke="rgb(255,0,0)" stroke-width="0.705556"/>
		<line x1="362.591" y1="74.4937" x2="362.591" y2="74.4937" stroke="rgb(255,0,0)" stroke-width="0.705556"/>
		<line x1="76.0912" y1="74.4937" x2="76.0912" y2="74.4937" stroke="rgb(255,0,0)" stroke-width="0.705556"/>
		<line x1="76.0912" y1="74.4937" x2="76.0912" y2="74.4937" stroke="rgb(255,0,0)" stroke-width="0.705556"/>
		<line x1="76.0912" y1="315.627" x2="76.0912" y2="349.61" stroke="rgb(255,0,0)" stroke-width="0.705556"/>
		<line x1="76.0912" y1="349.61" x2="362.591" y2="349.61" stroke="rgb(255,0,0)" stroke-width="0.705556"/>
		<line x1="362.591" y1="349.61" x2="362.591" y2="315.627" stroke="rgb(255,0,0)" stroke-width="0.705556"/>
		<line x1="362.591" y1="315.627" x2="76.0912" y2="315.627" stroke="rgb(255,255,0)" stroke-width="0.705556"/>
		<line x1="362.591" y1="39.8604" x2="362.591" y2="5.87704" stroke="rgb(255,0,0)" stroke-width="0.705556"/>
		<line x1="362.591" y1="5.87704" x2="76.0912" y2="5.87704" stroke="rgb(255,0,0)" stroke-width="0.705556"/>
		<line x1="76.0912" y1="5.87704" x2="76.0912" y2="39.8604" stroke="rgb(255,0,0)" stroke-width="0.705556"/>
		<line x1="76.0912" y1="39.8604" x2="362.591" y2="39.8604" stroke="rgb(255,255,0)" stroke-width="0.705556"/>
		<line x1="397.225" y1="280.994" x2="431.208" y2="280.994" stroke="rgb(255,0,0)" stroke-width="0.705556"/>
		<line x1="431.208" y1="280.994" x2="431.208" y2="74.4937" stroke="rgb(255,0,0)" stroke-width="0.705556"/>
		<line x1="431.208" y1="74.4937" x2="397.225" y2="74.4937" stroke="rgb(255,0,0)" stroke-width="0.705556"/>
		<line x1="397.225" y1="74.4937" x2="397.225" y2="280.994" stroke="rgb(255,255,0)" stroke-width="0.705556"/>
		<line x1="41.4579" y1="74.4937" x2="7.47458" y2="74.4937" stroke="rgb(255,0,0)" stroke-width="0.705556"/>
		<line x1="7.47458" y1="74.4937" x2="7.47458" y2="280.994" stroke="rgb(255,0,0)" stroke-width="0.705556"/>
		<line x1="7.47458" y1="280.994" x2="41.4579" y2="280.994" stroke="rgb(255,0,0)" stroke-width="0.705556"/>
		<line x1="41.4579" y1="280.994" x2="41.4579" y2="74.4937" stroke="rgb(255,255,0)" stroke-width="0.705556"/>
		<line x1="219.341" y1="127.108" x2="219.341" y2="99.4937" stroke="rgb(64,128,128)" stroke-width="0"/>
		<line x1="227.825" y1="108.699" x2="227.825" y2="99.4937" stroke="rgb(64,128,128)" stroke-width="0"/>
		<line x1="223.583" y1="117.904" x2="223.583" y2="99.4937" stroke="rgb(64,128,128)" stroke-width="0"/>
		<line x1="215.099" y1="136.313" x2="215.099" y2="99.4937" stroke="rgb(64,128,128)" stroke-width="0"/>
		<line x1="210.857" y1="145.518" x2="210.857" y2="99.4937" stroke="rgb(64,128,128)" stroke-width="0"/>
		<line x1="206.615" y1="154.723" x2="206.615" y2="99.4937" stroke="rgb(64,128,128)" stroke-width="0"/>
		<line x1="232.067" y1="99.4937" x2="206.615" y2="99.4937" stroke="rgb(64,128,128)" stroke-width="0"/>
		<line x1="206.615" y1="154.723" x2="234.89" y2="126.406" stroke="rgb(64,128,128)" stroke-width="0"/>
		<path d="M234.89,126.406 a26.6045 26.6045 0 0 1 -2.82257,-26.9118" fill="none" stroke="rgb(64,128,128)" stroke-width="0"/>
		<line x1="232.067" y1="99.4937" x2="206.615" y2="154.723" stroke="rgb(64,128,128)" stroke-width="0"/>
	</g>
</svg>