<svg version = "1.1" xmlns = "http://www.w3.org/2000/svg" xmlns:xlink="http://www.w3.org/1999/xlink" width="480.906" height="615.606" viewbox = "0 0 480.906 615.606">
	<g transform="translate(-1.17402,618.662) scale(1,-1) ">
		<line x1="481.727" y1="412.81" x2="481.727" y2="208.91" stroke="rgb(255,0,0)" stroke-width="0.705556"/>
		<line x1="1.52679" y1="412.81" x2="1.52679" y2="208.91" stroke="rgb(255,0,0)" stroke-width="0.705556"/>
		<line x1="382.277" y1="414.11" x2="353.627" y2="414.11" stroke="rgb(255,255,0)" stroke-width="0.705556"/>
		<line x1="304.96" y1="414.11" x2="178.293" y2="414.11" stroke="rgb(255,255,0)" stroke-width="0.705556"/>
		<line x1="129.627" y1="414.11" x2="100.977" y2="414.11" stroke="rgb(255,255,0)" stroke-width="0.705556"/>
		<line x1="100.977" y1="412.81" x2="100.977" y2="208.91" stroke="rgb(255,255,0)" stroke-width="0.705556"/>
		<line x1="100.977" y1="207.61" x2="129.627" y2="207.61" stroke="rgb(255,255,0)" stroke-width="0.705556"/>
		<line x1="178.293" y1="207.61" x2="304.96" y2="207.61" stroke="rgb(255,255,0)" stroke-width="0.705556"/>
		<line x1="353.627" y1="207.61" x2="382.277" y2="207.61" stroke="rgb(255,255,0)" stroke-width="0.705556"/>
		<line x1="382.277" y1="208.91" x2="382.277" y2="412.81" stroke="rgb(255,255,0)" stroke-width="0.705556"/>
		<line x1="100.977" y1="412.81" x2="100.977" y2="412.81" stroke="rgb(255,0,0)" stroke-width="0.705556"/>
		<line x1="382.277" y1="412.81" x2="382.277" y2="412.81" stroke="rgb(255,0,0)" stroke-width="0.705556"/>
		<line x1="382.277" y1="208.91" x2="382.277" y2="208.91" stroke="rgb(255,0,0)" stroke-width="0.705556"/>
		<line x1="100.977" y1="208.91" x2="100.977" y2="208.91" stroke="rgb(255,0,0)" stroke-width="0.705556"/>
		<line x1="382.927" y1="441.46" x2="382.927" y2="514.26" stroke="rgb(255,0,0)" stroke-width="0.705556"/>
		<line x1="382.277" y1="414.11" x2="382.927" y2="414.11" stroke="rgb(255,255,0)" stroke-width="0.705556"/>
		<line x1="100.327" y1="180.26" x2="100.327" y2="107.46" stroke="rgb(255,0,0)" stroke-width="0.705556"/>
		<line x1="100.977" y1="207.61" x2="100.327" y2="207.61" stroke="rgb(255,255,0)" stroke-width="0.705556"/>
		<line x1="100.327" y1="441.46" x2="100.327" y2="514.26" stroke="rgb(255,0,0)" stroke-width="0.705556"/>
		<line x1="100.977" y1="414.11" x2="100.327" y2="414.11" stroke="rgb(255,255,0)" stroke-width="0.705556"/>
		<line x1="382.927" y1="180.26" x2="382.927" y2="107.46" stroke="rgb(255,0,0)" stroke-width="0.705556"/>
		<line x1="382.277" y1="207.61" x2="382.927" y2="207.61" stroke="rgb(255,255,0)" stroke-width="0.705556"/>
		<line x1="241.627" y1="261.524" x2="241.627" y2="233.91" stroke="rgb(64,128,128)" stroke-width="0"/>
		<line x1="250.111" y1="243.115" x2="250.111" y2="233.91" stroke="rgb(64,128,128)" stroke-width="0"/>
		<line x1="245.869" y1="252.319" x2="245.869" y2="233.91" stroke="rgb(64,128,128)" stroke-width="0"/>
		<line x1="237.385" y1="270.729" x2="237.385" y2="233.91" stroke="rgb(64,128,128)" stroke-width="0"/>
		<line x1="233.143" y1="279.934" x2="233.143" y2="233.91" stroke="rgb(64,128,128)" stroke-width="0"/>
		<line x1="228.901" y1="289.139" x2="228.901" y2="233.91" stroke="rgb(64,128,128)" stroke-width="0"/>
		<line x1="254.353" y1="233.91" x2="228.901" y2="233.91" stroke="rgb(64,128,128)" stroke-width="0"/>
		<line x1="228.901" y1="289.139" x2="257.175" y2="260.821" stroke="rgb(64,128,128)" stroke-width="0"/>
		<path d="M257.175,260.821 a26.6045 26.6045 0 0 1 -2.82257,-26.9118" fill="none" stroke="rgb(64,128,128)" stroke-width="0"/>
		<line x1="254.353" y1="233.91" x2="228.901" y2="289.139" stroke="rgb(64,128,128)" stroke-width="0"/>
		<line x1="1.52679" y1="412.81" x2="1.52679" y2="417.81" stroke="rgb(255,0,0)" stroke-width="0.705556"/>
		<line x1="1.52679" y1="417.81" x2="1.52679" y2="551.46" stroke="rgb(255,0,0)" stroke-width="0.705556"/>
		<line x1="1.52679" y1="551.46" x2="95.3268" y2="551.46" stroke="rgb(255,0,0)" stroke-width="0.705556"/>
		<line x1="95.3268" y1="551.46" x2="95.3268" y2="446.46" stroke="rgb(255,0,0)" stroke-width="0.705556"/>
		<line x1="95.3268" y1="446.46" x2="100.327" y2="441.46" stroke="rgb(255,0,0)" stroke-width="0.705556"/>
		<line x1="100.327" y1="441.46" x2="100.327" y2="414.11" stroke="rgb(255,0,0)" stroke-width="0.705556"/>
		<line x1="100.327" y1="414.11" x2="100.977" y2="412.81" stroke="rgb(255,0,0)" stroke-width="0.705556"/>
		<line x1="1.52679" y1="412.81" x2="100.977" y2="412.81" stroke="rgb(255,255,0)" stroke-width="0.705556"/>
		<line x1="481.727" y1="412.81" x2="481.727" y2="417.81" stroke="rgb(255,0,0)" stroke-width="0.705556"/>
		<line x1="481.727" y1="417.81" x2="481.727" y2="551.46" stroke="rgb(255,0,0)" stroke-width="0.705556"/>
		<line x1="481.727" y1="551.46" x2="387.927" y2="551.46" stroke="rgb(255,0,0)" stroke-width="0.705556"/>
		<line x1="387.927" y1="551.46" x2="387.927" y2="446.46" stroke="rgb(255,0,0)" stroke-width="0.705556"/>
		<line x1="387.927" y1="446.46" x2="382.927" y2="441.46" stroke="rgb(255,0,0)" stroke-width="0.705556"/>
		<line x1="382.927" y1="441.46" x2="382.927" y2="414.11" stroke="rgb(255,0,0)" stroke-width="0.705556"/>
		<line x1="382.927" y1="414.11" x2="382.277" y2="412.81" stroke="rgb(255,0,0)" stroke-width="0.705556"/>
		<line x1="481.727" y1="412.81" x2="382.277" y2="412.81" stroke="rgb(255,255,0)" stroke-width="0.705556"/>
		<line x1="1.52679" y1="208.91" x2="1.52679" y2="203.91" stroke="rgb(255,0,0)" stroke-width="0.705556"/>
		<line x1="1.52679" y1="203.91" x2="1.52679" y2="70.2596" stroke="rgb(255,0,0)" stroke-width="0.705556"/>
		<line x1="1.52679" y1="70.2596" x2="95.3268" y2="70.2596" stroke="rgb(255,0,0)" stroke-width="0.705556"/>
		<line x1="95.3268" y1="70.2596" x2="95.3268" y2="175.26" stroke="rgb(255,0,0)" stroke-width="0.705556"/>
		<line x1="95.3268" y1="175.26" x2="100.327" y2="180.26" stroke="rgb(255,0,0)" stroke-width="0.705556"/>
		<line x1="100.327" y1="180.26" x2="100.327" y2="207.61" stroke="rgb(255,0,0)" stroke-width="0.705556"/>
		<line x1="100.327" y1="207.61" x2="100.977" y2="208.91" stroke="rgb(255,0,0)" stroke-width="0.705556"/>
		<line x1="1.52679" y1="208.91" x2="100.977" y2="208.91" stroke="rgb(255,255,0)" stroke-width="0.705556"/>
		<line x1="481.727" y1="208.91" x2="481.727" y2="203.91" stroke="rgb(255,0,0)" stroke-width="0.705556"/>
		<line x1="481.727" y1="203.91" x2="481.727" y2="70.2596" stroke="rgb(255,0,0)" stroke-width="0.705556"/>
		<line x1="481.727" y1="70.2596" x2="387.927" y2="70.2596" stroke="rgb(255,0,0)" stroke-width="0.705556"/>
		<line x1="387.927" y1="70.2596" x2="387.927" y2="175.26" stroke="rgb(255,0,0)" stroke-width="0.705556"/>
		<line x1="387.927" y1="175.26" x2="382.927" y2="180.26" stroke="rgb(255,0,0)" stroke-width="0.705556"/>
		<line x1="382.927" y1="180.26" x2="382.927" y2="207.61" stroke="rgb(255,0,0)" stroke-width="0.705556"/>
		<line x1="382.927" y1="207.61" x2="382.277" y2="208.91" stroke="rgb(255,0,0)" stroke-width="0.705556"/>
		<line x1="481.727" y1="208.91" x2="382.277" y2="208.91" stroke="rgb(255,255,0)" stroke-width="0.705556"/>
		<line x1="100.327" y1="514.26" x2="382.927" y2="514.26" stroke="rgb(255,255,0)" stroke-width="0.705556"/>
		<line x1="382.927" y1="514.26" x2="381.627" y2="516.86" stroke="rgb(255,0,0)" stroke-width="0.705556"/>
		<line x1="101.627" y1="516.86" x2="100.327" y2="514.26" stroke="rgb(255,0,0)" stroke-width="0.705556"/>
		<line x1="101.627" y1="516.86" x2="101.627" y2="616.36" stroke="rgb(255,0,0)" stroke-width="0.705556"/>
		<line x1="101.627" y1="616.36" x2="129.627" y2="616.36" stroke="rgb(255,0,0)" stroke-width="0.705556"/>
		<line x1="178.293" y1="616.36" x2="304.96" y2="616.36" stroke="rgb(255,0,0)" stroke-width="0.705556"/>
		<line x1="353.627" y1="616.36" x2="381.627" y2="616.36" stroke="rgb(255,0,0)" stroke-width="0.705556"/>
		<line x1="381.627" y1="616.36" x2="381.627" y2="516.86" stroke="rgb(255,0,0)" stroke-width="0.705556"/>
		<line x1="381.627" y1="516.86" x2="101.627" y2="516.86" stroke="rgb(255,255,0)" stroke-width="0.705556"/>
		<line x1="382.927" y1="107.46" x2="100.327" y2="107.46" stroke="rgb(255,255,0)" stroke-width="0.705556"/>
		<line x1="100.327" y1="107.46" x2="101.627" y2="104.86" stroke="rgb(255,0,0)" stroke-width="0.705556"/>
		<line x1="381.627" y1="104.86" x2="382.927" y2="107.46" stroke="rgb(255,0,0)" stroke-width="0.705556"/>
		<line x1="381.627" y1="104.86" x2="381.627" y2="5.35964" stroke="rgb(255,0,0)" stroke-width="0.705556"/>
		<line x1="381.627" y1="5.35964" x2="353.627" y2="5.35964" stroke="rgb(255,0,0)" stroke-width="0.705556"/>
		<line x1="304.96" y1="5.35964" x2="178.293" y2="5.35964" stroke="rgb(255,0,0)" stroke-width="0.705556"/>
		<line x1="129.627" y1="5.35964" x2="101.627" y2="5.35964" stroke="rgb(255,0,0)" stroke-width="0.705556"/>
		<line x1="101.627" y1="5.35964" x2="101.627" y2="104.86" stroke="rgb(255,0,0)" stroke-width="0.705556"/>
		<line x1="101.627" y1="104.86" x2="381.627" y2="104.86" stroke="rgb(255,255,0)" stroke-width="0.705556"/>
		<line x1="353.627" y1="5.35964" x2="351.627" y2="3.40964" stroke="rgb(255,0,0)" stroke-width="0.705556"/>
		<line x1="351.627" y1="3.40964" x2="306.96" y2="3.40964" stroke="rgb(255,0,0)" stroke-width="0.705556"/>
		<line x1="306.96" y1="3.40964" x2="304.96" y2="5.35964" stroke="rgb(255,0,0)" stroke-width="0.705556"/>
		<line x1="178.293" y1="5.35964" x2="176.293" y2="3.40964" stroke="rgb(255,0,0)" stroke-width="0.705556"/>
		<line x1="176.293" y1="3.40964" x2="131.627" y2="3.40964" stroke="rgb(255,0,0)" stroke-width="0.705556"/>
		<line x1="131.627" y1="3.40964" x2="129.627" y2="5.35964" stroke="rgb(255,0,0)" stroke-width="0.705556"/>
		<line x1="178.293" y1="5.35964" x2="176.293" y2="3.40964" stroke="rgb(255,0,0)" stroke-width="0.705556"/>
		<line x1="176.293" y1="3.40964" x2="131.627" y2="3.40964" stroke="rgb(255,0,0)" stroke-width="0.705556"/>
		<line x1="131.627" y1="3.40964" x2="129.627" y2="5.35964" stroke="rgb(255,0,0)" stroke-width="0.705556"/>
		<line x1="178.293" y1="5.35964" x2="176.293" y2="3.40964" stroke="rgb(255,0,0)" stroke-width="0.705556"/>
		<line x1="176.293" y1="3.40964" x2="131.627" y2="3.40964" stroke="rgb(255,0,0)" stroke-width="0.705556"/>
		<line x1="131.627" y1="3.40964" x2="129.627" y2="5.35964" stroke="rgb(255,0,0)" stroke-width="0.705556"/>
		<line x1="178.293" y1="5.35964" x2="176.293" y2="3.40964" stroke="rgb(255,0,0)" stroke-width="0.705556"/>
		<line x1="176.293" y1="3.40964" x2="131.627" y2="3.40964" stroke="rgb(255,0,0)" stroke-width="0.705556"/>
		<line x1="131.627" y1="3.40964" x2="129.627" y2="5.35964" stroke="rgb(255,0,0)" stroke-width="0.705556"/>
		<line x1="178.293" y1="5.35964" x2="176.293" y2="3.40964" stroke="rgb(255,0,0)" stroke-width="0.705556"/>
		<line x1="176.293" y1="3.40964" x2="131.627" y2="3.40964" stroke="rgb(255,0,0)" stroke-width="0.705556"/>
		<line x1="131.627" y1="3.40964" x2="129.627" y2="5.35964" stroke="rgb(255,0,0)" stroke-width="0.705556"/>
		<line x1="178.293" y1="5.35964" x2="176.293" y2="3.40964" stroke="rgb(255,0,0)" stroke-width="0.705556"/>
		<line x1="176.293" y1="3.40964" x2="131.627" y2="3.40964" stroke="rgb(255,0,0)" stroke-width="0.705556"/>
		<line x1="131.627" y1="3.40964" x2="129.627" y2="5.35964" stroke="rgb(255,0,0)" stroke-width="0.705556"/>
		<line x1="178.293" y1="5.35964" x2="176.293" y2="3.40964" stroke="rgb(255,0,0)" stroke-width="0.705556"/>
		<line x1="176.293" y1="3.40964" x2="131.627" y2="3.40964" stroke="rgb(255,0,0)" stroke-width="0.705556"/>
		<line x1="131.627" y1="3.40964" x2="129.627" y2="5.35964" stroke="rgb(255,0,0)" stroke-width="0.705556"/>
		<line x1="178.293" y1="5.35964" x2="176.293" y2="3.40964" stroke="rgb(255,0,0)" stroke-width="0.705556"/>
		<line x1="176.293" y1="3.40964" x2="131.627" y2="3.40964" stroke="rgb(255,0,0)" stroke-width="0.705556"/>
		<line x1="131.627" y1="3.40964" x2="129.627" y2="5.35964" stroke="rgb(255,0,0)" stroke-width="0.705556"/>
		<line x1="178.293" y1="5.35964" x2="176.293" y2="3.40964" stroke="rgb(255,0,0)" stroke-width="0.705556"/>
		<line x1="176.293" y1="3.40964" x2="131.627" y2="3.40964" stroke="rgb(255,0,0)" stroke-width="0.705556"/>
		<line x1="131.627" y1="3.40964" x2="129.627" y2="5.35964" stroke="rgb(255,0,0)" stroke-width="0.705556"/>
		<line x1="178.293" y1="5.35964" x2="176.293" y2="3.40964" stroke="rgb(255,0,0)" stroke-width="0.705556"/>
		<line x1="176.293" y1="3.40964" x2="131.627" y2="3.40964" stroke="rgb(255,0,0)" stroke-width="0.705556"/>
		<line x1="131.627" y1="3.40964" x2="129.627" y2="5.35964" stroke="rgb(255,0,0)" stroke-width="0.705556"/>
		<line x1="178.293" y1="5.35964" x2="176.293" y2="3.40964" stroke="rgb(255,0,0)" stroke-width="0.705556"/>
		<line x1="176.293" y1="3.40964" x2="131.627" y2="3.40964" stroke="rgb(255,0,0)" stroke-width="0.705556"/>
		<line x1="131.627" y1="3.40964" x2="129.627" y2="5.35964" stroke="rgb(255,0,0)" stroke-width="0.705556"/>
		<line x1="178.293" y1="5.35964" x2="176.293" y2="3.40964" stroke="rgb(255,0,0)" stroke-width="0.705556"/>
		<line x1="176.293" y1="3.40964" x2="131.627" y2="3.40964" stroke="rgb(255,0,0)" stroke-width="0.705556"/>
		<line x1="131.627" y1="3.40964" x2="129.627" y2="5.35964" stroke="rgb(255,0,0)" stroke-width="0.705556"/>
		<line x1="178.293" y1="5.35964" x2="176.293" y2="3.40964" stroke="rgb(255,0,0)" stroke-width="0.705556"/>
		<line x1="176.293" y1="3.40964" x2="131.627" y2="3.40964" stroke="rgb(255,0,0)" stroke-width="0.705556"/>
		<line x1="131.627" y1="3.40964" x2="129.627" y2="5.35964" stroke="rgb(255,0,0)" stroke-width="0.705556"/>
		<line x1="178.293" y1="5.35964" x2="176.293" y2="3.40964" stroke="rgb(255,0,0)" stroke-width="0.705556"/>
		<line x1="176.293" y1="3.40964" x2="131.627" y2="3.40964" stroke="rgb(255,0,0)" stroke-width="0.705556"/>
		<line x1="131.627" y1="3.40964" x2="129.627" y2="5.35964" stroke="rgb(255,0,0)" stroke-width="0.705556"/>
		<line x1="178.293" y1="5.35964" x2="176.293" y2="3.40964" stroke="rgb(255,0,0)" stroke-width="0.705556"/>
		<line x1="176.293" y1="3.40964" x2="131.627" y2="3.40964" stroke="rgb(255,0,0)" stroke-width="0.705556"/>
		<line x1="131.627" y1="3.40964" x2="129.627" y2="5.35964" stroke="rgb(255,0,0)" stroke-width="0.705556"/>
		<line x1="178.293" y1="5.35964" x2="176.293" y2="3.40964" stroke="rgb(255,0,0)" stroke-width="0.705556"/>
		<line x1="176.293" y1="3.40964" x2="131.627" y2="3.40964" stroke="rgb(255,0,0)" stroke-width="0.705556"/>
		<line x1="131.627" y1="3.40964" x2="129.627" y2="5.35964" stroke="rgb(255,0,0)" stroke-width="0.705556"/>
		<line x1="178.293" y1="5.35964" x2="176.293" y2="3.40964" stroke="rgb(255,0,0)" stroke-width="0.705556"/>
		<line x1="176.293" y1="3.40964" x2="131.627" y2="3.40964" stroke="rgb(255,0,0)" stroke-width="0.705556"/>
		<line x1="131.627" y1="3.40964" x2="129.627" y2="5.35964" stroke="rgb(255,0,0)" stroke-width="0.705556"/>
		<line x1="178.293" y1="5.35964" x2="176.293" y2="3.40964" stroke="rgb(255,0,0)" stroke-width="0.705556"/>
		<line x1="176.293" y1="3.40964" x2="131.627" y2="3.40964" stroke="rgb(255,0,0)" stroke-width="0.705556"/>
		<line x1="131.627" y1="3.40964" x2="129.627" y2="5.35964" stroke="rgb(255,0,0)" stroke-width="0.705556"/>
		<line x1="353.627" y1="210.86" x2="353.627" y2="210.86" stroke="rgb(255,0,0)" stroke-width="0.705556"/>
		<line x1="304.96" y1="210.86" x2="304.96" y2="210.86" stroke="rgb(255,0,0)" stroke-width="0.705556"/>
		<line x1="178.293" y1="210.86" x2="178.293" y2="207.61" stroke="rgb(255,0,0)" stroke-width="0.705556"/>
		<line x1="178.293" y1="207.61" x2="129.627" y2="207.61" stroke="rgb(255,0,0)" stroke-width="0.705556"/>
		<line x1="129.627" y1="207.61" x2="129.627" y2="210.86" stroke="rgb(255,0,0)" stroke-width="0.705556"/>
		<line x1="129.627" y1="210.86" x2="178.293" y2="210.86" stroke="rgb(255,0,0)" stroke-width="0.705556"/>
		<line x1="178.293" y1="210.86" x2="178.293" y2="210.86" stroke="rgb(255,0,0)" stroke-width="0.705556"/>
		<line x1="129.627" y1="210.86" x2="129.627" y2="210.86" stroke="rgb(255,0,0)" stroke-width="0.705556"/>
		<line x1="353.627" y1="210.86" x2="353.627" y2="210.86" stroke="rgb(255,0,0)" stroke-width="0.705556"/>
		<line x1="304.96" y1="210.86" x2="304.96" y2="210.86" stroke="rgb(255,0,0)" stroke-width="0.705556"/>
		<line x1="353.627" y1="210.86" x2="353.627" y2="210.86" stroke="rgb(255,0,0)" stroke-width="0.705556"/>
		<line x1="304.96" y1="210.86" x2="304.96" y2="210.86" stroke="rgb(255,0,0)" stroke-width="0.705556"/>
		<line x1="353.627" y1="210.86" x2="353.627" y2="210.86" stroke="rgb(255,0,0)" stroke-width="0.705556"/>
		<line x1="304.96" y1="210.86" x2="304.96" y2="210.86" stroke="rgb(255,0,0)" stroke-width="0.705556"/>
		<line x1="353.627" y1="210.86" x2="353.627" y2="210.86" stroke="rgb(255,0,0)" stroke-width="0.705556"/>
		<line x1="304.96" y1="210.86" x2="304.96" y2="210.86" stroke="rgb(255,0,0)" stroke-width="0.705556"/>
		<line x1="353.627" y1="210.86" x2="353.627" y2="210.86" stroke="rgb(255,0,0)" stroke-width="0.705556"/>
		<line x1="304.96" y1="210.86" x2="304.96" y2="210.86" stroke="rgb(255,0,0)" stroke-width="0.705556"/>
		<line x1="353.627" y1="210.86" x2="353.627" y2="210.86" stroke="rgb(255,0,0)" stroke-width="0.705556"/>
		<line x1="304.96" y1="210.86" x2="304.96" y2="210.86" stroke="rgb(255,0,0)" stroke-width="0.705556"/>
		<line x1="353.627" y1="210.86" x2="353.627" y2="210.86" stroke="rgb(255,0,0)" stroke-width="0.705556"/>
		<line x1="304.96" y1="210.86" x2="304.96" y2="210.86" stroke="rgb(255,0,0)" stroke-width="0.705556"/>
		<line x1="353.627" y1="210.86" x2="353.627" y2="210.86" stroke="rgb(255,0,0)" stroke-width="0.705556"/>
		<line x1="304.96" y1="210.86" x2="304.96" y2="210.86" stroke="rgb(255,0,0)" stroke-width="0.705556"/>
		<line x1="353.627" y1="210.86" x2="353.627" y2="210.86" stroke="rgb(255,0,0)" stroke-width="0.705556"/>
		<line x1="304.96" y1="210.86" x2="304.96" y2="210.86" stroke="rgb(255,0,0)" stroke-width="0.705556"/>
		<line x1="353.627" y1="210.86" x2="353.627" y2="210.86" stroke="rgb(255,0,0)" stroke-width="0.705556"/>
		<line x1="304.96" y1="210.86" x2="304.96" y2="210.86" stroke="rgb(255,0,0)" stroke-width="0.705556"/>
		<line x1="353.627" y1="210.86" x2="353.627" y2="210.86" stroke="rgb(255,0,0)" stroke-width="0.705556"/>
		<line x1="304.96" y1="210.86" x2="304.96" y2="210.86" stroke="rgb(255,0,0)" stroke-width="0.705556"/>
		<line x1="353.627" y1="210.86" x2="353.627" y2="210.86" stroke="rgb(255,0,0)" stroke-width="0.705556"/>
		<line x1="304.96" y1="210.86" x2="304.96" y2="210.86" stroke="rgb(255,0,0)" stroke-width="0.705556"/>
		<line x1="353.627" y1="210.86" x2="353.627" y2="210.86" stroke="rgb(255,0,0)" stroke-width="0.705556"/>
		<line x1="304.96" y1="210.86" x2="304.96" y2="210.86" stroke="rgb(255,0,0)" stroke-width="0.705556"/>
		<line x1="353.627" y1="210.86" x2="353.627" y2="210.86" stroke="rgb(255,0,0)" stroke-width="0.705556"/>
		<line x1="304.96" y1="210.86" x2="304.96" y2="210.86" stroke="rgb(255,0,0)" stroke-width="0.705556"/>
		<line x1="353.627" y1="210.86" x2="353.627" y2="210.86" stroke="rgb(255,0,0)" stroke-width="0.705556"/>
		<line x1="304.96" y1="210.86" x2="304.96" y2="210.86" stroke="rgb(255,0,0)" stroke-width="0.705556"/>
		<line x1="353.627" y1="210.86" x2="353.627" y2="210.86" stroke="rgb(255,0,0)" stroke-width="0.705556"/>
		<line x1="304.96" y1="210.86" x2="304.96" y2="210.86" stroke="rgb(255,0,0)" stroke-width="0.705556"/>
		<line x1="353.627" y1="210.86" x2="353.627" y2="207.61" stroke="rgb(255,0,0)" stroke-width="0.705556"/>
		<line x1="353.627" y1="207.61" x2="304.96" y2="207.61" stroke="rgb(255,0,0)" stroke-width="0.705556"/>
		<line x1="304.96" y1="207.61" x2="304.96" y2="210.86" stroke="rgb(255,0,0)" stroke-width="0.705556"/>
		<line x1="304.96" y1="210.86" x2="353.627" y2="210.86" stroke="rgb(255,0,0)" stroke-width="0.705556"/>
		<line x1="353.627" y1="210.86" x2="353.627" y2="210.86" stroke="rgb(255,0,0)" stroke-width="0.705556"/>
		<line x1="304.96" y1="210.86" x2="304.96" y2="210.86" stroke="rgb(255,0,0)" stroke-width="0.705556"/>
		<line x1="129.627" y1="616.36" x2="131.627" y2="618.31" stroke="rgb(255,0,0)" stroke-width="0.705556"/>
		<line x1="131.627" y1="618.31" x2="176.293" y2="618.31" stroke="rgb(255,0,0)" stroke-width="0.705556"/>
		<line x1="176.293" y1="618.31" x2="178.293" y2="616.36" stroke="rgb(255,0,0)" stroke-width="0.705556"/>
		<line x1="304.96" y1="616.36" x2="306.96" y2="618.31" stroke="rgb(255,0,0)" stroke-width="0.705556"/>
		<line x1="306.96" y1="618.31" x2="351.627" y2="618.31" stroke="rgb(255,0,0)" stroke-width="0.705556"/>
		<line x1="351.627" y1="618.31" x2="353.627" y2="616.36" stroke="rgb(255,0,0)" stroke-width="0.705556"/>
		<line x1="304.96" y1="616.36" x2="306.96" y2="618.31" stroke="rgb(255,0,0)" stroke-width="0.705556"/>
		<line x1="306.96" y1="618.31" x2="351.627" y2="618.31" stroke="rgb(255,0,0)" stroke-width="0.705556"/>
		<line x1="351.627" y1="618.31" x2="353.627" y2="616.36" stroke="rgb(255,0,0)" stroke-width="0.705556"/>
		<line x1="304.96" y1="616.36" x2="306.96" y2="618.31" stroke="rgb(255,0,0)" stroke-width="0.705556"/>
		<line x1="306.96" y1="618.31" x2="351.627" y2="618.31" stroke="rgb(255,0,0)" stroke-width="0.705556"/>
		<line x1="351.627" y1="618.31" x2="353.627" y2="616.36" stroke="rgb(255,0,0)" stroke-width="0.705556"/>
		<line x1="304.96" y1="616.36" x2="306.96" y2="618.31" stroke="rgb(255,0,0)" stroke-width="0.705556"/>
		<line x1="306.96" y1="618.31" x2="351.627" y2="618.31" stroke="rgb(255,0,0)" stroke-width="0.705556"/>
		<line x1="351.627" y1="618.31" x2="353.627" y2="616.36" stroke="rgb(255,0,0)" stroke-width="0.705556"/>
		<line x1="304.96" y1="616.36" x2="306.96" y2="618.31" stroke="rgb(255,0,0)" stroke-width="0.705556"/>
		<line x1="306.96" y1="618.31" x2="351.627" y2="618.31" stroke="rgb(255,0,0)" stroke-width="0.705556"/>
		<line x1="351.627" y1="618.31" x2="353.627" y2="616.36" stroke="rgb(255,0,0)" stroke-width="0.705556"/>
		<line x1="304.96" y1="616.36" x2="306.96" y2="618.31" stroke="rgb(255,0,0)" stroke-width="0.705556"/>
		<line x1="306.96" y1="618.31" x2="351.627" y2="618.31" stroke="rgb(255,0,0)" stroke-width="0.705556"/>
		<line x1="351.627" y1="618.31" x2="353.627" y2="616.36" stroke="rgb(255,0,0)" stroke-width="0.705556"/>
		<line x1="304.96" y1="616.36" x2="306.96" y2="618.31" stroke="rgb(255,0,0)" stroke-width="0.705556"/>
		<line x1="306.96" y1="618.31" x2="351.627" y2="618.31" stroke="rgb(255,0,0)" stroke-width="0.705556"/>
		<line x1="351.627" y1="618.31" x2="353.627" y2="616.36" stroke="rgb(255,0,0)" stroke-width="0.705556"/>
		<line x1="304.96" y1="616.36" x2="306.96" y2="618.31" stroke="rgb(255,0,0)" stroke-width="0.705556"/>
		<line x1="306.96" y1="618.31" x2="351.627" y2="618.31" stroke="rgb(255,0,0)" stroke-width="0.705556"/>
		<line x1="351.627" y1="618.31" x2="353.627" y2="616.36" stroke="rgb(255,0,0)" stroke-width="0.705556"/>
		<line x1="304.96" y1="616.36" x2="306.96" y2="618.31" stroke="rgb(255,0,0)" stroke-width="0.705556"/>
		<line x1="306.96" y1="618.31" x2="351.627" y2="618.31" stroke="rgb(255,0,0)" stroke-width="0.705556"/>
		<line x1="351.627" y1="618.31" x2="353.627" y2="616.36" stroke="rgb(255,0,0)" stroke-width="0.705556"/>
		<line x1="304.96" y1="616.36" x2="306.96" y2="618.31" stroke="rgb(255,0,0)" stroke-width="0.705556"/>
		<line x1="306.96" y1="618.31" x2="351.627" y2="618.31" stroke="rgb(255,0,0)" stroke-width="0.705556"/>
		<line x1="351.627" y1="618.31" x2="353.627" y2="616.36" stroke="rgb(255,0,0)" stroke-width="0.705556"/>
		<line x1="304.96" y1="616.36" x2="306.96" y2="618.31" stroke="rgb(255,0,0)" stroke-width="0.705556"/>
		<line x1="306.96" y1="618.31" x2="351.627" y2="618.31" stroke="rgb(255,0,0)" stroke-width="0.705556"/>
		<line x1="351.627" y1="618.31" x2="353.627" y2="616.36" stroke="rgb(255,0,0)" stroke-width="0.705556"/>
		<line x1="304.96" y1="616.36" x2="306.96" y2="618.31" stroke="rgb(255,0,0)" stroke-width="0.705556"/>
		<line x1="306.96" y1="618.31" x2="351.627" y2="618.31" stroke="rgb(255,0,0)" stroke-width="0.705556"/>
		<line x1="351.627" y1="618.31" x2="353.627" y2="616.36" stroke="rgb(255,0,0)" stroke-width="0.705556"/>
		<line x1="304.96" y1="616.36" x2="306.96" y2="618.31" stroke="rgb(255,0,0)" stroke-width="0.705556"/>
		<line x1="306.96" y1="618.31" x2="351.627" y2="618.31" stroke="rgb(255,0,0)" stroke-width="0.705556"/>
		<line x1="351.627" y1="618.31" x2="353.627" y2="616.36" stroke="rgb(255,0,0)" stroke-width="0.705556"/>
		<line x1="304.96" y1="616.36" x2="306.96" y2="618.31" stroke="rgb(255,0,0)" stroke-width="0.705556"/>
		<line x1="306.96" y1="618.31" x2="351.627" y2="618.31" stroke="rgb(255,0,0)" stroke-width="0.705556"/>
		<line x1="351.627" y1="618.31" x2="353.627" y2="616.36" stroke="rgb(255,0,0)" stroke-width="0.705556"/>
		<line x1="304.96" y1="616.36" x2="306.96" y2="618.31" stroke="rgb(255,0,0)" stroke-width="0.705556"/>
		<line x1="306.96" y1="618.31" x2="351.627" y2="618.31" stroke="rgb(255,0,0)" stroke-width="0.705556"/>
		<line x1="351.627" y1="618.31" x2="353.627" y2="616.36" stroke="rgb(255,0,0)" stroke-width="0.705556"/>
		<line x1="304.96" y1="616.36" x2="306.96" y2="618.31" stroke="rgb(255,0,0)" stroke-width="0.705556"/>
		<line x1="306.96" y1="618.31" x2="351.627" y2="618.31" stroke="rgb(255,0,0)" stroke-width="0.705556"/>
		<line x1="351.627" y1="618.31" x2="353.627" y2="616.36" stroke="rgb(255,0,0)" stroke-width="0.705556"/>
		<line x1="304.96" y1="616.36" x2="306.96" y2="618.31" stroke="rgb(255,0,0)" stroke-width="0.705556"/>
		<line x1="306.96" y1="618.31" x2="351.627" y2="618.31" stroke="rgb(255,0,0)" stroke-width="0.705556"/>
		<line x1="351.627" y1="618.31" x2="353.627" y2="616.36" stroke="rgb(255,0,0)" stroke-width="0.705556"/>
		<line x1="304.96" y1="616.36" x2="306.96" y2="618.31" stroke="rgb(255,0,0)" stroke-width="0.705556"/>
		<line x1="306.96" y1="618.31" x2="351.627" y2="618.31" stroke="rgb(255,0,0)" stroke-width="0.705556"/>
		<line x1="351.627" y1="618.31" x2="353.627" y2="616.36" stroke="rgb(255,0,0)" stroke-width="0.705556"/>
		<line x1="129.627" y1="410.86" x2="129.627" y2="410.86" stroke="rgb(255,0,0)" stroke-width="0.705556"/>
		<line x1="178.293" y1="410.86" x2="178.293" y2="410.86" stroke="rgb(255,0,0)" stroke-width="0.705556"/>
		<line x1="304.96" y1="410.86" x2="304.96" y2="414.11" stroke="rgb(255,0,0)" stroke-width="0.705556"/>
		<line x1="304.96" y1="414.11" x2="353.627" y2="414.11" stroke="rgb(255,0,0)" stroke-width="0.705556"/>
		<line x1="353.627" y1="414.11" x2="353.627" y2="410.86" stroke="rgb(255,0,0)" stroke-width="0.705556"/>
		<line x1="353.627" y1="410.86" x2="304.96" y2="410.86" stroke="rgb(255,0,0)" stroke-width="0.705556"/>
		<line x1="304.96" y1="410.86" x2="304.96" y2="410.86" stroke="rgb(255,0,0)" stroke-width="0.705556"/>
		<line x1="353.627" y1="410.86" x2="353.627" y2="410.86" stroke="rgb(255,0,0)" stroke-width="0.705556"/>
		<line x1="129.627" y1="410.86" x2="129.627" y2="410.86" stroke="rgb(255,0,0)" stroke-width="0.705556"/>
		<line x1="178.293" y1="410.86" x2="178.293" y2="410.86" stroke="rgb(255,0,0)" stroke-width="0.705556"/>
		<line x1="129.627" y1="410.86" x2="129.627" y2="410.86" stroke="rgb(255,0,0)" stroke-width="0.705556"/>
		<line x1="178.293" y1="410.86" x2="178.293" y2="410.86" stroke="rgb(255,0,0)" stroke-width="0.705556"/>
		<line x1="129.627" y1="410.86" x2="129.627" y2="410.86" stroke="rgb(255,0,0)" stroke-width="0.705556"/>
		<line x1="178.293" y1="410.86" x2="178.293" y2="410.86" stroke="rgb(255,0,0)" stroke-width="0.705556"/>
		<line x1="129.627" y1="410.86" x2="129.627" y2="410.86" stroke="rgb(255,0,0)" stroke-width="0.705556"/>
		<line x1="178.293" y1="410.86" x2="178.293" y2="410.86" stroke="rgb(255,0,0)" stroke-width="0.705556"/>
		<line x1="129.627" y1="410.86" x2="129.627" y2="410.86" stroke="rgb(255,0,0)" stroke-width="0.705556"/>
		<line x1="178.293" y1="410.86" x2="178.293" y2="410.86" stroke="rgb(255,0,0)" stroke-width="0.705556"/>
		<line x1="129.627" y1="410.86" x2="129.627" y2="410.86" stroke="rgb(255,0,0)" stroke-width="0.705556"/>
		<line x1="178.293" y1="410.86" x2="178.293" y2="410.86" stroke="rgb(255,0,0)" stroke-width="0.705556"/>
		<line x1="129.627" y1="410.86" x2="129.627" y2="410.86" stroke="rgb(255,0,0)" stroke-width="0.705556"/>
		<line x1="178.293" y1="410.86" x2="178.293" y2="410.86" stroke="rgb(255,0,0)" stroke-width="0.705556"/>
		<line x1="129.627" y1="410.86" x2="129.627" y2="410.86" stroke="rgb(255,0,0)" stroke-width="0.705556"/>
		<line x1="178.293" y1="410.86" x2="178.293" y2="410.86" stroke="rgb(255,0,0)" stroke-width="0.705556"/>
		<line x1="129.627" y1="410.86" x2="129.627" y2="410.86" stroke="rgb(255,0,0)" stroke-width="0.705556"/>
		<line x1="178.293" y1="410.86" x2="178.293" y2="410.86" stroke="rgb(255,0,0)" stroke-width="0.705556"/>
		<line x1="129.627" y1="410.86" x2="129.627" y2="410.86" stroke="rgb(255,0,0)" stroke-width="0.705556"/>
		<line x1="178.293" y1="410.86" x2="178.293" y2="410.86" stroke="rgb(255,0,0)" stroke-width="0.705556"/>
		<line x1="129.627" y1="410.86" x2="129.627" y2="410.86" stroke="rgb(255,0,0)" stroke-width="0.705556"/>
		<line x1="178.293" y1="410.86" x2="178.293" y2="410.86" stroke="rgb(255,0,0)" stroke-width="0.705556"/>
		<line x1="129.627" y1="410.86" x2="129.627" y2="410.86" stroke="rgb(255,0,0)" stroke-width="0.705556"/>
		<line x1="178.293" y1="410.86" x2="178.293" y2="410.86" stroke="rgb(255,0,0)" stroke-width="0.705556"/>
		<line x1="129.627" y1="410.86" x2="129.627" y2="410.86" stroke="rgb(255,0,0)" stroke-width="0.705556"/>
		<line x1="178.293" y1="410.86" x2="178.293" y2="410.86" stroke="rgb(255,0,0)" stroke-width="0.705556"/>
		<line x1="129.627" y1="410.86" x2="129.627" y2="410.86" stroke="rgb(255,0,0)" stroke-width="0.705556"/>
		<line x1="178.293" y1="410.86" x2="178.293" y2="410.86" stroke="rgb(255,0,0)" stroke-width="0.705556"/>
		<line x1="129.627" y1="410.86" x2="129.627" y2="410.86" stroke="rgb(255,0,0)" stroke-width="0.705556"/>
		<line x1="178.293" y1="410.86" x2="178.293" y2="410.86" stroke="rgb(255,0,0)" stroke-width="0.705556"/>
		<line x1="129.627" y1="410.86" x2="129.627" y2="410.86" stroke="rgb(255,0,0)" stroke-width="0.705556"/>
		<line x1="178.293" y1="410.86" x2="178.293" y2="410.86" stroke="rgb(255,0,0)" stroke-width="0.705556"/>
		<line x1="129.627" y1="410.86" x2="129.627" y2="414.11" stroke="rgb(255,0,0)" stroke-width="0.705556"/>
		<line x1="129.627" y1="414.11" x2="178.293" y2="414.11" stroke="rgb(255,0,0)" stroke-width="0.705556"/>
		<line x1="178.293" y1="414.11" x2="178.293" y2="410.86" stroke="rgb(255,0,0)" stroke-width="0.705556"/>
		<line x1="178.293" y1="410.86" x2="129.627" y2="410.86" stroke="rgb(255,0,0)" stroke-width="0.705556"/>
		<line x1="129.627" y1="410.86" x2="129.627" y2="410.86" stroke="rgb(255,0,0)" stroke-width="0.705556"/>
		<line x1="178.293" y1="410.86" x2="178.293" y2="410.86" stroke="rgb(255,0,0)" stroke-width="0.705556"/>
	</g>
</svg>