<svg version = "1.1" xmlns = "http://www.w3.org/2000/svg" xmlns:xlink="http://www.w3.org/1999/xlink" width="484.606" height="611.106" viewbox = "0 0 484.606 611.106">
	<g transform="translate(-23.9638,626.077) scale(1,-1) ">
		<line x1="127.117" y1="423.774" x2="127.117" y2="525.074" stroke="rgb(255,0,0)" stroke-width="0.705556"/>
		<line x1="405.417" y1="525.074" x2="405.417" y2="423.774" stroke="rgb(255,0,0)" stroke-width="0.705556"/>
		<line x1="508.217" y1="422.474" x2="508.217" y2="218.574" stroke="rgb(255,0,0)" stroke-width="0.705556"/>
		<line x1="405.417" y1="217.274" x2="405.417" y2="115.974" stroke="rgb(255,0,0)" stroke-width="0.705556"/>
		<line x1="127.117" y1="115.974" x2="127.117" y2="217.274" stroke="rgb(255,0,0)" stroke-width="0.705556"/>
		<line x1="24.3166" y1="422.474" x2="24.3166" y2="218.574" stroke="rgb(255,0,0)" stroke-width="0.705556"/>
		<line x1="405.417" y1="423.774" x2="127.117" y2="423.774" stroke="rgb(255,255,0)" stroke-width="0.705556"/>
		<line x1="125.617" y1="422.474" x2="125.617" y2="218.574" stroke="rgb(255,255,0)" stroke-width="0.705556"/>
		<line x1="127.117" y1="217.274" x2="405.417" y2="217.274" stroke="rgb(255,255,0)" stroke-width="0.705556"/>
		<line x1="406.917" y1="218.574" x2="406.917" y2="422.474" stroke="rgb(255,255,0)" stroke-width="0.705556"/>
		<line x1="125.617" y1="422.474" x2="127.117" y2="422.474" stroke="rgb(255,0,0)" stroke-width="0.705556"/>
		<line x1="127.117" y1="422.474" x2="127.117" y2="423.774" stroke="rgb(255,0,0)" stroke-width="0.705556"/>
		<line x1="405.417" y1="423.774" x2="405.417" y2="422.474" stroke="rgb(255,0,0)" stroke-width="0.705556"/>
		<line x1="405.417" y1="422.474" x2="406.917" y2="422.474" stroke="rgb(255,0,0)" stroke-width="0.705556"/>
		<line x1="405.417" y1="217.274" x2="405.417" y2="218.574" stroke="rgb(255,0,0)" stroke-width="0.705556"/>
		<line x1="405.417" y1="218.574" x2="406.917" y2="218.574" stroke="rgb(255,0,0)" stroke-width="0.705556"/>
		<line x1="125.617" y1="218.574" x2="127.117" y2="218.574" stroke="rgb(255,0,0)" stroke-width="0.705556"/>
		<line x1="127.117" y1="218.574" x2="127.117" y2="217.274" stroke="rgb(255,0,0)" stroke-width="0.705556"/>
		<line x1="24.3166" y1="422.474" x2="24.3166" y2="422.474" stroke="rgb(255,0,0)" stroke-width="0.705556"/>
		<line x1="24.3166" y1="422.474" x2="24.3166" y2="561.124" stroke="rgb(255,0,0)" stroke-width="0.705556"/>
		<line x1="24.3166" y1="561.124" x2="124.117" y2="561.124" stroke="rgb(255,0,0)" stroke-width="0.705556"/>
		<line x1="124.117" y1="561.124" x2="124.117" y2="422.474" stroke="rgb(255,0,0)" stroke-width="0.705556"/>
		<line x1="124.117" y1="422.474" x2="125.617" y2="422.474" stroke="rgb(255,0,0)" stroke-width="0.705556"/>
		<line x1="24.3166" y1="422.474" x2="124.117" y2="422.474" stroke="rgb(255,255,0)" stroke-width="0.705556"/>
		<line x1="508.217" y1="422.474" x2="508.217" y2="422.474" stroke="rgb(255,0,0)" stroke-width="0.705556"/>
		<line x1="508.217" y1="422.474" x2="508.217" y2="561.124" stroke="rgb(255,0,0)" stroke-width="0.705556"/>
		<line x1="508.217" y1="561.124" x2="408.417" y2="561.124" stroke="rgb(255,0,0)" stroke-width="0.705556"/>
		<line x1="408.417" y1="561.124" x2="408.417" y2="422.474" stroke="rgb(255,0,0)" stroke-width="0.705556"/>
		<line x1="408.417" y1="422.474" x2="406.917" y2="422.474" stroke="rgb(255,0,0)" stroke-width="0.705556"/>
		<line x1="508.217" y1="422.474" x2="408.417" y2="422.474" stroke="rgb(255,255,0)" stroke-width="0.705556"/>
		<line x1="508.217" y1="218.574" x2="508.217" y2="218.574" stroke="rgb(255,0,0)" stroke-width="0.705556"/>
		<line x1="508.217" y1="218.574" x2="508.217" y2="79.9242" stroke="rgb(255,0,0)" stroke-width="0.705556"/>
		<line x1="508.217" y1="79.9242" x2="408.417" y2="79.9242" stroke="rgb(255,0,0)" stroke-width="0.705556"/>
		<line x1="408.417" y1="79.9242" x2="408.417" y2="218.574" stroke="rgb(255,0,0)" stroke-width="0.705556"/>
		<line x1="408.417" y1="218.574" x2="406.917" y2="218.574" stroke="rgb(255,0,0)" stroke-width="0.705556"/>
		<line x1="508.217" y1="218.574" x2="408.417" y2="218.574" stroke="rgb(255,255,0)" stroke-width="0.705556"/>
		<line x1="24.3166" y1="218.574" x2="24.3166" y2="218.574" stroke="rgb(255,0,0)" stroke-width="0.705556"/>
		<line x1="24.3166" y1="218.574" x2="24.3166" y2="79.9242" stroke="rgb(255,0,0)" stroke-width="0.705556"/>
		<line x1="24.3166" y1="79.9242" x2="124.117" y2="79.9242" stroke="rgb(255,0,0)" stroke-width="0.705556"/>
		<line x1="124.117" y1="79.9242" x2="124.117" y2="218.574" stroke="rgb(255,0,0)" stroke-width="0.705556"/>
		<line x1="124.117" y1="218.574" x2="125.617" y2="218.574" stroke="rgb(255,0,0)" stroke-width="0.705556"/>
		<line x1="24.3166" y1="218.574" x2="124.117" y2="218.574" stroke="rgb(255,255,0)" stroke-width="0.705556"/>
		<line x1="127.117" y1="525.074" x2="127.117" y2="625.724" stroke="rgb(255,0,0)" stroke-width="0.705556"/>
		<line x1="127.117" y1="625.724" x2="405.417" y2="625.724" stroke="rgb(255,0,0)" stroke-width="0.705556"/>
		<line x1="405.417" y1="625.724" x2="405.417" y2="525.074" stroke="rgb(255,0,0)" stroke-width="0.705556"/>
		<line x1="405.417" y1="525.074" x2="127.117" y2="525.074" stroke="rgb(255,255,0)" stroke-width="0.705556"/>
		<line x1="405.417" y1="115.974" x2="405.417" y2="15.3242" stroke="rgb(255,0,0)" stroke-width="0.705556"/>
		<line x1="405.417" y1="15.3242" x2="127.117" y2="15.3242" stroke="rgb(255,0,0)" stroke-width="0.705556"/>
		<line x1="127.117" y1="15.3242" x2="127.117" y2="115.974" stroke="rgb(255,0,0)" stroke-width="0.705556"/>
		<line x1="127.117" y1="115.974" x2="405.417" y2="115.974" stroke="rgb(255,255,0)" stroke-width="0.705556"/>
		<line x1="266.267" y1="271.189" x2="266.267" y2="243.574" stroke="rgb(64,128,128)" stroke-width="0"/>
		<line x1="274.751" y1="252.779" x2="274.751" y2="243.574" stroke="rgb(64,128,128)" stroke-width="0"/>
		<line x1="270.509" y1="261.984" x2="270.509" y2="243.574" stroke="rgb(64,128,128)" stroke-width="0"/>
		<line x1="262.025" y1="280.394" x2="262.025" y2="243.574" stroke="rgb(64,128,128)" stroke-width="0"/>
		<line x1="257.783" y1="289.599" x2="257.783" y2="243.574" stroke="rgb(64,128,128)" stroke-width="0"/>
		<line x1="253.541" y1="298.804" x2="253.541" y2="243.574" stroke="rgb(64,128,128)" stroke-width="0"/>
		<line x1="278.993" y1="243.574" x2="253.541" y2="243.574" stroke="rgb(64,128,128)" stroke-width="0"/>
		<line x1="253.541" y1="298.804" x2="281.815" y2="270.486" stroke="rgb(64,128,128)" stroke-width="0"/>
		<path d="M281.815,270.486 a26.6045 26.6045 0 0 1 -2.82257,-26.9118" fill="none" stroke="rgb(64,128,128)" stroke-width="0"/>
		<line x1="278.993" y1="243.574" x2="253.541" y2="298.804" stroke="rgb(64,128,128)" stroke-width="0"/>
	</g>
</svg>