<svg version = "1.1" xmlns = "http://www.w3.org/2000/svg" xmlns:xlink="http://www.w3.org/1999/xlink" width="348.506" height="348.506" viewbox = "0 0 348.506 348.506">
	<g transform="translate(-0.0170583,369.912) scale(1,-1) ">
		<line x1="256.29" y1="360.122" x2="338.733" y2="277.679" stroke="rgb(255,0,0)" stroke-width="0.705556"/>
		<line x1="317.52" y1="256.466" x2="235.076" y2="338.909" stroke="rgb(255,255,0)" stroke-width="0.705556"/>
		<line x1="338.733" y1="113.639" x2="256.29" y2="31.196" stroke="rgb(255,0,0)" stroke-width="0.705556"/>
		<line x1="235.076" y1="52.4092" x2="317.52" y2="134.853" stroke="rgb(255,255,0)" stroke-width="0.705556"/>
		<line x1="92.2501" y1="31.196" x2="9.80663" y2="113.639" stroke="rgb(255,0,0)" stroke-width="0.705556"/>
		<line x1="31.0198" y1="134.853" x2="113.463" y2="52.4092" stroke="rgb(255,255,0)" stroke-width="0.705556"/>
		<line x1="9.80663" y1="277.679" x2="92.2501" y2="360.122" stroke="rgb(255,0,0)" stroke-width="0.705556"/>
		<line x1="113.463" y1="338.909" x2="31.0198" y2="256.466" stroke="rgb(255,255,0)" stroke-width="0.705556"/>
		<line x1="113.463" y1="338.909" x2="114.763" y2="338.909" stroke="rgb(255,0,0)" stroke-width="0.705556"/>
		<line x1="114.763" y1="338.909" x2="114.763" y2="369.559" stroke="rgb(255,0,0)" stroke-width="0.705556"/>
		<line x1="114.763" y1="369.559" x2="233.776" y2="369.559" stroke="rgb(255,0,0)" stroke-width="0.705556"/>
		<line x1="233.776" y1="369.559" x2="233.776" y2="338.909" stroke="rgb(255,0,0)" stroke-width="0.705556"/>
		<line x1="233.776" y1="338.909" x2="235.076" y2="338.909" stroke="rgb(255,0,0)" stroke-width="0.705556"/>
		<line x1="114.763" y1="338.909" x2="233.776" y2="338.909" stroke="rgb(255,255,0)" stroke-width="0.705556"/>
		<line x1="317.52" y1="256.466" x2="317.52" y2="255.166" stroke="rgb(255,0,0)" stroke-width="0.705556"/>
		<line x1="317.52" y1="255.166" x2="348.17" y2="255.166" stroke="rgb(255,0,0)" stroke-width="0.705556"/>
		<line x1="348.17" y1="255.166" x2="348.17" y2="136.153" stroke="rgb(255,0,0)" stroke-width="0.705556"/>
		<line x1="348.17" y1="136.153" x2="317.52" y2="136.153" stroke="rgb(255,0,0)" stroke-width="0.705556"/>
		<line x1="317.52" y1="136.153" x2="317.52" y2="134.853" stroke="rgb(255,0,0)" stroke-width="0.705556"/>
		<line x1="317.52" y1="255.166" x2="317.52" y2="136.153" stroke="rgb(255,255,0)" stroke-width="0.705556"/>
		<line x1="235.076" y1="52.4092" x2="233.776" y2="52.4092" stroke="rgb(255,0,0)" stroke-width="0.705556"/>
		<line x1="233.776" y1="52.4092" x2="233.776" y2="21.7592" stroke="rgb(255,0,0)" stroke-width="0.705556"/>
		<line x1="233.776" y1="21.7592" x2="114.763" y2="21.7592" stroke="rgb(255,0,0)" stroke-width="0.705556"/>
		<line x1="114.763" y1="21.7592" x2="114.763" y2="52.4092" stroke="rgb(255,0,0)" stroke-width="0.705556"/>
		<line x1="114.763" y1="52.4092" x2="113.463" y2="52.4092" stroke="rgb(255,0,0)" stroke-width="0.705556"/>
		<line x1="233.776" y1="52.4092" x2="114.763" y2="52.4092" stroke="rgb(255,255,0)" stroke-width="0.705556"/>
		<line x1="31.0198" y1="134.853" x2="31.0198" y2="136.153" stroke="rgb(255,0,0)" stroke-width="0.705556"/>
		<line x1="31.0198" y1="136.153" x2="0.369836" y2="136.153" stroke="rgb(255,0,0)" stroke-width="0.705556"/>
		<line x1="0.369836" y1="136.153" x2="0.369836" y2="255.166" stroke="rgb(255,0,0)" stroke-width="0.705556"/>
		<line x1="0.369836" y1="255.166" x2="31.0198" y2="255.166" stroke="rgb(255,0,0)" stroke-width="0.705556"/>
		<line x1="31.0198" y1="255.166" x2="31.0198" y2="256.466" stroke="rgb(255,0,0)" stroke-width="0.705556"/>
		<line x1="31.0198" y1="136.153" x2="31.0198" y2="255.166" stroke="rgb(255,255,0)" stroke-width="0.705556"/>
		<line x1="235.076" y1="338.909" x2="235.076" y2="338.909" stroke="rgb(255,0,0)" stroke-width="0.705556"/>
		<line x1="235.076" y1="338.909" x2="235.076" y2="369.559" stroke="rgb(255,0,0)" stroke-width="0.705556"/>
		<line x1="235.076" y1="369.559" x2="246.853" y2="369.559" stroke="rgb(255,0,0)" stroke-width="0.705556"/>
		<line x1="246.853" y1="369.559" x2="256.29" y2="360.122" stroke="rgb(255,0,0)" stroke-width="0.705556"/>
		<line x1="256.29" y1="360.122" x2="256.29" y2="360.122" stroke="rgb(255,0,0)" stroke-width="0.705556"/>
		<line x1="235.076" y1="338.909" x2="256.29" y2="360.122" stroke="rgb(255,255,0)" stroke-width="0.705556"/>
		<line x1="113.463" y1="338.909" x2="113.463" y2="338.909" stroke="rgb(255,0,0)" stroke-width="0.705556"/>
		<line x1="113.463" y1="338.909" x2="113.463" y2="369.559" stroke="rgb(255,0,0)" stroke-width="0.705556"/>
		<line x1="113.463" y1="369.559" x2="101.687" y2="369.559" stroke="rgb(255,0,0)" stroke-width="0.705556"/>
		<line x1="101.687" y1="369.559" x2="92.2501" y2="360.122" stroke="rgb(255,0,0)" stroke-width="0.705556"/>
		<line x1="92.2501" y1="360.122" x2="92.2501" y2="360.122" stroke="rgb(255,0,0)" stroke-width="0.705556"/>
		<line x1="113.463" y1="338.909" x2="92.2501" y2="360.122" stroke="rgb(255,255,0)" stroke-width="0.705556"/>
		<line x1="31.0198" y1="256.466" x2="31.0198" y2="256.466" stroke="rgb(255,0,0)" stroke-width="0.705556"/>
		<line x1="31.0198" y1="256.466" x2="0.369836" y2="256.466" stroke="rgb(255,0,0)" stroke-width="0.705556"/>
		<line x1="0.369836" y1="256.466" x2="0.369836" y2="268.242" stroke="rgb(255,0,0)" stroke-width="0.705556"/>
		<line x1="0.369836" y1="268.242" x2="9.80663" y2="277.679" stroke="rgb(255,0,0)" stroke-width="0.705556"/>
		<line x1="9.80663" y1="277.679" x2="9.80663" y2="277.679" stroke="rgb(255,0,0)" stroke-width="0.705556"/>
		<line x1="31.0198" y1="256.466" x2="9.80663" y2="277.679" stroke="rgb(255,255,0)" stroke-width="0.705556"/>
		<line x1="31.0198" y1="134.853" x2="31.0198" y2="134.853" stroke="rgb(255,0,0)" stroke-width="0.705556"/>
		<line x1="31.0198" y1="134.853" x2="0.369836" y2="134.853" stroke="rgb(255,0,0)" stroke-width="0.705556"/>
		<line x1="0.369836" y1="134.853" x2="0.369836" y2="123.076" stroke="rgb(255,0,0)" stroke-width="0.705556"/>
		<line x1="0.369836" y1="123.076" x2="9.80663" y2="113.639" stroke="rgb(255,0,0)" stroke-width="0.705556"/>
		<line x1="9.80663" y1="113.639" x2="9.80663" y2="113.639" stroke="rgb(255,0,0)" stroke-width="0.705556"/>
		<line x1="31.0198" y1="134.853" x2="9.80663" y2="113.639" stroke="rgb(255,255,0)" stroke-width="0.705556"/>
		<line x1="235.076" y1="52.4092" x2="235.076" y2="52.4092" stroke="rgb(255,0,0)" stroke-width="0.705556"/>
		<line x1="235.076" y1="52.4092" x2="235.076" y2="21.7592" stroke="rgb(255,0,0)" stroke-width="0.705556"/>
		<line x1="235.076" y1="21.7592" x2="246.853" y2="21.7592" stroke="rgb(255,0,0)" stroke-width="0.705556"/>
		<line x1="246.853" y1="21.7592" x2="256.29" y2="31.196" stroke="rgb(255,0,0)" stroke-width="0.705556"/>
		<line x1="256.29" y1="31.196" x2="256.29" y2="31.196" stroke="rgb(255,0,0)" stroke-width="0.705556"/>
		<line x1="235.076" y1="52.4092" x2="256.29" y2="31.196" stroke="rgb(255,255,0)" stroke-width="0.705556"/>
		<line x1="317.52" y1="256.466" x2="317.52" y2="256.466" stroke="rgb(255,0,0)" stroke-width="0.705556"/>
		<line x1="317.52" y1="256.466" x2="348.17" y2="256.466" stroke="rgb(255,0,0)" stroke-width="0.705556"/>
		<line x1="348.17" y1="256.466" x2="348.17" y2="268.242" stroke="rgb(255,0,0)" stroke-width="0.705556"/>
		<line x1="348.17" y1="268.242" x2="338.733" y2="277.679" stroke="rgb(255,0,0)" stroke-width="0.705556"/>
		<line x1="338.733" y1="277.679" x2="338.733" y2="277.679" stroke="rgb(255,0,0)" stroke-width="0.705556"/>
		<line x1="317.52" y1="256.466" x2="338.733" y2="277.679" stroke="rgb(255,255,0)" stroke-width="0.705556"/>
		<line x1="317.52" y1="134.853" x2="317.52" y2="134.853" stroke="rgb(255,0,0)" stroke-width="0.705556"/>
		<line x1="317.52" y1="134.853" x2="348.17" y2="134.853" stroke="rgb(255,0,0)" stroke-width="0.705556"/>
		<line x1="348.17" y1="134.853" x2="348.17" y2="123.076" stroke="rgb(255,0,0)" stroke-width="0.705556"/>
		<line x1="348.17" y1="123.076" x2="338.733" y2="113.639" stroke="rgb(255,0,0)" stroke-width="0.705556"/>
		<line x1="338.733" y1="113.639" x2="338.733" y2="113.639" stroke="rgb(255,0,0)" stroke-width="0.705556"/>
		<line x1="317.52" y1="134.853" x2="338.733" y2="113.639" stroke="rgb(255,255,0)" stroke-width="0.705556"/>
		<line x1="113.463" y1="52.4092" x2="113.463" y2="52.4092" stroke="rgb(255,0,0)" stroke-width="0.705556"/>
		<line x1="113.463" y1="52.4092" x2="113.463" y2="21.7592" stroke="rgb(255,0,0)" stroke-width="0.705556"/>
		<line x1="113.463" y1="21.7592" x2="101.687" y2="21.7592" stroke="rgb(255,0,0)" stroke-width="0.705556"/>
		<line x1="101.687" y1="21.7592" x2="92.2501" y2="31.196" stroke="rgb(255,0,0)" stroke-width="0.705556"/>
		<line x1="92.2501" y1="31.196" x2="92.2501" y2="31.196" stroke="rgb(255,0,0)" stroke-width="0.705556"/>
		<line x1="113.463" y1="52.4092" x2="92.2501" y2="31.196" stroke="rgb(255,255,0)" stroke-width="0.705556"/>
		<line x1="180.643" y1="90.1352" x2="153.028" y2="90.1352" stroke="rgb(64,128,128)" stroke-width="0"/>
		<line x1="162.233" y1="98.6192" x2="153.028" y2="98.6192" stroke="rgb(64,128,128)" stroke-width="0"/>
		<line x1="171.438" y1="94.3772" x2="153.028" y2="94.3772" stroke="rgb(64,128,128)" stroke-width="0"/>
		<line x1="189.847" y1="85.8932" x2="153.028" y2="85.8932" stroke="rgb(64,128,128)" stroke-width="0"/>
		<line x1="199.052" y1="81.6512" x2="153.028" y2="81.6512" stroke="rgb(64,128,128)" stroke-width="0"/>
		<line x1="208.257" y1="77.4092" x2="153.028" y2="77.4092" stroke="rgb(64,128,128)" stroke-width="0"/>
		<line x1="153.028" y1="102.861" x2="153.028" y2="77.4092" stroke="rgb(64,128,128)" stroke-width="0"/>
		<line x1="208.257" y1="77.4092" x2="179.94" y2="105.684" stroke="rgb(64,128,128)" stroke-width="0"/>
		<path d="M179.94,105.684 a26.6045 26.6045 0 0 0 -26.9118,-2.82257" fill="none" stroke="rgb(64,128,128)" stroke-width="0"/>
		<line x1="153.028" y1="102.861" x2="208.257" y2="77.4092" stroke="rgb(64,128,128)" stroke-width="0"/>
	</g>
</svg>