<svg version = "1.1" xmlns = "http://www.w3.org/2000/svg" xmlns:xlink="http://www.w3.org/1999/xlink" width="387.521" height="387.521" viewbox = "0 0 387.521 387.521">
	<g transform="translate(1.85883,396.833) scale(1,-1) ">
		<line x1="130.504" y1="346.48" x2="131.804" y2="346.48" stroke="rgb(255,0,0)" stroke-width="0.705556"/>
		<line x1="131.804" y1="396.48" x2="251.999" y2="396.48" stroke="rgb(255,0,0)" stroke-width="0.705556"/>
		<line x1="251.999" y1="346.48" x2="253.299" y2="346.48" stroke="rgb(255,0,0)" stroke-width="0.705556"/>
		<line x1="131.804" y1="346.48" x2="251.999" y2="346.48" stroke="rgb(255,255,0)" stroke-width="0.705556"/>
		<line x1="335.309" y1="264.47" x2="335.309" y2="263.17" stroke="rgb(255,0,0)" stroke-width="0.705556"/>
		<line x1="385.309" y1="263.17" x2="385.309" y2="142.975" stroke="rgb(255,0,0)" stroke-width="0.705556"/>
		<line x1="335.309" y1="142.975" x2="335.309" y2="141.675" stroke="rgb(255,0,0)" stroke-width="0.705556"/>
		<line x1="335.309" y1="263.17" x2="335.309" y2="142.975" stroke="rgb(255,255,0)" stroke-width="0.705556"/>
		<line x1="253.299" y1="59.6646" x2="251.999" y2="59.6646" stroke="rgb(255,0,0)" stroke-width="0.705556"/>
		<line x1="251.999" y1="9.66457" x2="131.804" y2="9.66457" stroke="rgb(255,0,0)" stroke-width="0.705556"/>
		<line x1="131.804" y1="59.6646" x2="130.504" y2="59.6646" stroke="rgb(255,0,0)" stroke-width="0.705556"/>
		<line x1="251.999" y1="59.6646" x2="131.804" y2="59.6646" stroke="rgb(255,255,0)" stroke-width="0.705556"/>
		<line x1="48.4939" y1="141.675" x2="48.4939" y2="142.975" stroke="rgb(255,0,0)" stroke-width="0.705556"/>
		<line x1="-1.50606" y1="142.975" x2="-1.50606" y2="263.17" stroke="rgb(255,0,0)" stroke-width="0.705556"/>
		<line x1="48.4939" y1="263.17" x2="48.4939" y2="264.47" stroke="rgb(255,0,0)" stroke-width="0.705556"/>
		<line x1="48.4939" y1="142.975" x2="48.4939" y2="263.17" stroke="rgb(255,255,0)" stroke-width="0.705556"/>
		<line x1="253.299" y1="346.48" x2="286.103" y2="313.676" stroke="rgb(255,255,0)" stroke-width="0.705556"/>
		<line x1="302.505" y1="297.274" x2="335.309" y2="264.47" stroke="rgb(255,255,0)" stroke-width="0.705556"/>
		<line x1="335.309" y1="264.47" x2="335.309" y2="287.666" stroke="rgb(255,0,0)" stroke-width="0.705556"/>
		<line x1="253.299" y1="346.48" x2="276.495" y2="346.48" stroke="rgb(255,0,0)" stroke-width="0.705556"/>
		<line x1="276.495" y1="346.48" x2="290.033" y2="382.295" stroke="rgb(255,0,0)" stroke-width="0.705556"/>
		<line x1="335.309" y1="287.666" x2="371.124" y2="301.204" stroke="rgb(255,0,0)" stroke-width="0.705556"/>
		<line x1="290.033" y1="382.295" x2="371.124" y2="301.204" stroke="rgb(255,255,0)" stroke-width="0.705556"/>
		<line x1="291.872" y1="384.133" x2="372.963" y2="303.043" stroke="rgb(255,255,0)" stroke-width="0.705556"/>
		<line x1="350.236" y1="396.48" x2="359.572" y2="387.144" stroke="rgb(255,0,0)" stroke-width="0.705556"/>
		<line x1="375.974" y1="370.742" x2="385.309" y2="361.407" stroke="rgb(255,0,0)" stroke-width="0.705556"/>
		<line x1="290.033" y1="382.295" x2="304.219" y2="396.48" stroke="rgb(255,0,0)" stroke-width="0.705556"/>
		<line x1="371.124" y1="301.204" x2="385.309" y2="315.389" stroke="rgb(255,0,0)" stroke-width="0.705556"/>
		<line x1="385.309" y1="315.389" x2="385.309" y2="361.407" stroke="rgb(255,0,0)" stroke-width="0.705556"/>
		<line x1="304.219" y1="396.48" x2="350.236" y2="396.48" stroke="rgb(255,0,0)" stroke-width="0.705556"/>
		<line x1="335.309" y1="141.675" x2="302.505" y2="108.871" stroke="rgb(255,255,0)" stroke-width="0.705556"/>
		<line x1="286.103" y1="92.4686" x2="253.299" y2="59.6646" stroke="rgb(255,255,0)" stroke-width="0.705556"/>
		<line x1="253.299" y1="59.6646" x2="276.495" y2="59.6646" stroke="rgb(255,0,0)" stroke-width="0.705556"/>
		<line x1="335.309" y1="141.675" x2="335.309" y2="118.479" stroke="rgb(255,0,0)" stroke-width="0.705556"/>
		<line x1="335.309" y1="118.479" x2="371.124" y2="104.94" stroke="rgb(255,0,0)" stroke-width="0.705556"/>
		<line x1="276.495" y1="59.6646" x2="290.033" y2="23.8496" stroke="rgb(255,0,0)" stroke-width="0.705556"/>
		<line x1="371.124" y1="104.94" x2="290.033" y2="23.8496" stroke="rgb(255,255,0)" stroke-width="0.705556"/>
		<line x1="372.963" y1="103.102" x2="291.872" y2="22.0111" stroke="rgb(255,255,0)" stroke-width="0.705556"/>
		<line x1="385.309" y1="44.7379" x2="375.974" y2="35.4022" stroke="rgb(255,0,0)" stroke-width="0.705556"/>
		<line x1="359.572" y1="19.0002" x2="350.236" y2="9.66457" stroke="rgb(255,0,0)" stroke-width="0.705556"/>
		<line x1="371.124" y1="104.94" x2="385.309" y2="90.7554" stroke="rgb(255,0,0)" stroke-width="0.705556"/>
		<line x1="290.033" y1="23.8496" x2="304.219" y2="9.66457" stroke="rgb(255,0,0)" stroke-width="0.705556"/>
		<line x1="304.219" y1="9.66457" x2="350.236" y2="9.66457" stroke="rgb(255,0,0)" stroke-width="0.705556"/>
		<line x1="385.309" y1="90.7554" x2="385.309" y2="44.7379" stroke="rgb(255,0,0)" stroke-width="0.705556"/>
		<line x1="130.504" y1="59.6646" x2="97.7" y2="92.4686" stroke="rgb(255,255,0)" stroke-width="0.705556"/>
		<line x1="81.298" y1="108.871" x2="48.4939" y2="141.675" stroke="rgb(255,255,0)" stroke-width="0.705556"/>
		<line x1="48.4939" y1="141.675" x2="48.4939" y2="118.479" stroke="rgb(255,0,0)" stroke-width="0.705556"/>
		<line x1="130.504" y1="59.6646" x2="107.308" y2="59.6646" stroke="rgb(255,0,0)" stroke-width="0.705556"/>
		<line x1="107.308" y1="59.6646" x2="93.7698" y2="23.8496" stroke="rgb(255,0,0)" stroke-width="0.705556"/>
		<line x1="48.4939" y1="118.479" x2="12.679" y2="104.94" stroke="rgb(255,0,0)" stroke-width="0.705556"/>
		<line x1="93.7698" y1="23.8496" x2="12.679" y2="104.94" stroke="rgb(255,255,0)" stroke-width="0.705556"/>
		<line x1="91.9314" y1="22.0111" x2="10.8405" y2="103.102" stroke="rgb(255,255,0)" stroke-width="0.705556"/>
		<line x1="33.5673" y1="9.66457" x2="24.2316" y2="19.0002" stroke="rgb(255,0,0)" stroke-width="0.705556"/>
		<line x1="7.82959" y1="35.4022" x2="-1.50606" y2="44.7379" stroke="rgb(255,0,0)" stroke-width="0.705556"/>
		<line x1="93.7698" y1="23.8496" x2="79.5848" y2="9.66457" stroke="rgb(255,0,0)" stroke-width="0.705556"/>
		<line x1="12.679" y1="104.94" x2="-1.50606" y2="90.7554" stroke="rgb(255,0,0)" stroke-width="0.705556"/>
		<line x1="-1.50606" y1="90.7554" x2="-1.50606" y2="44.7379" stroke="rgb(255,0,0)" stroke-width="0.705556"/>
		<line x1="79.5848" y1="9.66457" x2="33.5673" y2="9.66457" stroke="rgb(255,0,0)" stroke-width="0.705556"/>
		<line x1="48.4939" y1="264.47" x2="81.298" y2="297.274" stroke="rgb(255,255,0)" stroke-width="0.705556"/>
		<line x1="97.7" y1="313.676" x2="130.504" y2="346.48" stroke="rgb(255,255,0)" stroke-width="0.705556"/>
		<line x1="130.504" y1="346.48" x2="107.308" y2="346.48" stroke="rgb(255,0,0)" stroke-width="0.705556"/>
		<line x1="48.4939" y1="264.47" x2="48.4939" y2="287.666" stroke="rgb(255,0,0)" stroke-width="0.705556"/>
		<line x1="48.4939" y1="287.666" x2="12.679" y2="301.204" stroke="rgb(255,0,0)" stroke-width="0.705556"/>
		<line x1="107.308" y1="346.48" x2="93.7698" y2="382.295" stroke="rgb(255,0,0)" stroke-width="0.705556"/>
		<line x1="12.679" y1="301.204" x2="93.7698" y2="382.295" stroke="rgb(255,255,0)" stroke-width="0.705556"/>
		<line x1="10.8405" y1="303.043" x2="91.9314" y2="384.133" stroke="rgb(255,255,0)" stroke-width="0.705556"/>
		<line x1="-1.50606" y1="361.407" x2="7.82959" y2="370.742" stroke="rgb(255,0,0)" stroke-width="0.705556"/>
		<line x1="24.2316" y1="387.144" x2="33.5673" y2="396.48" stroke="rgb(255,0,0)" stroke-width="0.705556"/>
		<line x1="12.679" y1="301.204" x2="-1.50606" y2="315.389" stroke="rgb(255,0,0)" stroke-width="0.705556"/>
		<line x1="93.7698" y1="382.295" x2="79.5848" y2="396.48" stroke="rgb(255,0,0)" stroke-width="0.705556"/>
		<line x1="79.5848" y1="396.48" x2="33.5673" y2="396.48" stroke="rgb(255,0,0)" stroke-width="0.705556"/>
		<line x1="-1.50606" y1="315.389" x2="-1.50606" y2="361.407" stroke="rgb(255,0,0)" stroke-width="0.705556"/>
		<line x1="335.309" y1="263.17" x2="385.309" y2="263.17" stroke="rgb(255,255,0)" stroke-width="0.705556"/>
		<line x1="335.309" y1="142.975" x2="385.309" y2="142.975" stroke="rgb(255,255,0)" stroke-width="0.705556"/>
		<line x1="251.999" y1="59.6646" x2="251.999" y2="9.66457" stroke="rgb(255,255,0)" stroke-width="0.705556"/>
		<line x1="131.804" y1="9.66457" x2="131.804" y2="59.6646" stroke="rgb(255,255,0)" stroke-width="0.705556"/>
		<line x1="-1.50606" y1="142.975" x2="48.4939" y2="142.975" stroke="rgb(255,255,0)" stroke-width="0.705556"/>
		<line x1="-1.50606" y1="263.17" x2="48.4939" y2="263.17" stroke="rgb(255,255,0)" stroke-width="0.705556"/>
		<line x1="131.804" y1="396.48" x2="131.804" y2="346.48" stroke="rgb(255,255,0)" stroke-width="0.705556"/>
		<line x1="251.999" y1="396.48" x2="251.999" y2="346.48" stroke="rgb(255,255,0)" stroke-width="0.705556"/>
		<line x1="251.999" y1="396.48" x2="304.219" y2="396.48" stroke="rgb(255,0,0)" stroke-width="0.705556"/>
		<line x1="385.309" y1="315.389" x2="385.309" y2="263.17" stroke="rgb(255,0,0)" stroke-width="0.705556"/>
		<line x1="385.309" y1="142.975" x2="385.309" y2="90.7554" stroke="rgb(255,0,0)" stroke-width="0.705556"/>
		<line x1="131.804" y1="396.48" x2="79.5848" y2="396.48" stroke="rgb(255,0,0)" stroke-width="0.705556"/>
		<line x1="-1.50606" y1="263.17" x2="-1.50606" y2="315.389" stroke="rgb(255,0,0)" stroke-width="0.705556"/>
		<line x1="-1.50606" y1="90.7554" x2="-1.50606" y2="142.975" stroke="rgb(255,0,0)" stroke-width="0.705556"/>
		<line x1="79.5848" y1="9.66457" x2="131.804" y2="9.66457" stroke="rgb(255,0,0)" stroke-width="0.705556"/>
		<line x1="251.999" y1="9.66457" x2="304.219" y2="9.66457" stroke="rgb(255,0,0)" stroke-width="0.705556"/>
		<line x1="375.974" y1="370.742" x2="376.645" y2="372.828" stroke="rgb(255,0,0)" stroke-width="0.705556"/>
		<line x1="376.645" y1="372.828" x2="361.658" y2="387.816" stroke="rgb(255,0,0)" stroke-width="0.705556"/>
		<line x1="361.658" y1="387.816" x2="359.572" y2="387.144" stroke="rgb(255,0,0)" stroke-width="0.705556"/>
		<line x1="302.505" y1="297.274" x2="300.207" y2="294.976" stroke="rgb(255,0,0)" stroke-width="0.705556"/>
		<line x1="300.207" y1="294.976" x2="283.805" y2="311.378" stroke="rgb(255,0,0)" stroke-width="0.705556"/>
		<line x1="283.805" y1="311.378" x2="286.103" y2="313.676" stroke="rgb(255,0,0)" stroke-width="0.705556"/>
		<line x1="302.505" y1="297.274" x2="286.103" y2="313.676" stroke="rgb(255,0,0)" stroke-width="0.705556"/>
		<line x1="359.572" y1="19.0002" x2="361.658" y2="18.3285" stroke="rgb(255,0,0)" stroke-width="0.705556"/>
		<line x1="361.658" y1="18.3285" x2="376.645" y2="33.3163" stroke="rgb(255,0,0)" stroke-width="0.705556"/>
		<line x1="376.645" y1="33.3163" x2="375.974" y2="35.4022" stroke="rgb(255,0,0)" stroke-width="0.705556"/>
		<line x1="286.103" y1="92.4686" x2="283.805" y2="94.7667" stroke="rgb(255,0,0)" stroke-width="0.705556"/>
		<line x1="283.805" y1="94.7667" x2="300.207" y2="111.169" stroke="rgb(255,0,0)" stroke-width="0.705556"/>
		<line x1="300.207" y1="111.169" x2="302.505" y2="108.871" stroke="rgb(255,0,0)" stroke-width="0.705556"/>
		<line x1="286.103" y1="92.4686" x2="302.505" y2="108.871" stroke="rgb(255,0,0)" stroke-width="0.705556"/>
		<line x1="7.82959" y1="35.4022" x2="7.15784" y2="33.3163" stroke="rgb(255,0,0)" stroke-width="0.705556"/>
		<line x1="7.15784" y1="33.3163" x2="22.1456" y2="18.3285" stroke="rgb(255,0,0)" stroke-width="0.705556"/>
		<line x1="22.1456" y1="18.3285" x2="24.2316" y2="19.0002" stroke="rgb(255,0,0)" stroke-width="0.705556"/>
		<line x1="81.298" y1="108.871" x2="83.5961" y2="111.169" stroke="rgb(255,0,0)" stroke-width="0.705556"/>
		<line x1="83.5961" y1="111.169" x2="99.9981" y2="94.7667" stroke="rgb(255,0,0)" stroke-width="0.705556"/>
		<line x1="99.9981" y1="94.7667" x2="97.7" y2="92.4686" stroke="rgb(255,0,0)" stroke-width="0.705556"/>
		<line x1="81.298" y1="108.871" x2="97.7" y2="92.4686" stroke="rgb(255,0,0)" stroke-width="0.705556"/>
		<line x1="24.2316" y1="387.144" x2="22.1456" y2="387.816" stroke="rgb(255,0,0)" stroke-width="0.705556"/>
		<line x1="22.1456" y1="387.816" x2="7.15784" y2="372.828" stroke="rgb(255,0,0)" stroke-width="0.705556"/>
		<line x1="7.15784" y1="372.828" x2="7.82959" y2="370.742" stroke="rgb(255,0,0)" stroke-width="0.705556"/>
		<line x1="97.7" y1="313.676" x2="99.9981" y2="311.378" stroke="rgb(255,0,0)" stroke-width="0.705556"/>
		<line x1="99.9981" y1="311.378" x2="83.5961" y2="294.976" stroke="rgb(255,0,0)" stroke-width="0.705556"/>
		<line x1="83.5961" y1="294.976" x2="81.298" y2="297.274" stroke="rgb(255,0,0)" stroke-width="0.705556"/>
		<line x1="97.7" y1="313.676" x2="81.298" y2="297.274" stroke="rgb(255,0,0)" stroke-width="0.705556"/>
		<line x1="198.274" y1="107.391" x2="170.66" y2="107.391" stroke="rgb(64,128,128)" stroke-width="0"/>
		<line x1="179.865" y1="115.875" x2="170.66" y2="115.875" stroke="rgb(64,128,128)" stroke-width="0"/>
		<line x1="189.069" y1="111.633" x2="170.66" y2="111.633" stroke="rgb(64,128,128)" stroke-width="0"/>
		<line x1="207.479" y1="103.149" x2="170.66" y2="103.149" stroke="rgb(64,128,128)" stroke-width="0"/>
		<line x1="216.684" y1="98.9066" x2="170.66" y2="98.9066" stroke="rgb(64,128,128)" stroke-width="0"/>
		<line x1="225.889" y1="94.6646" x2="170.66" y2="94.6646" stroke="rgb(64,128,128)" stroke-width="0"/>
		<line x1="170.66" y1="120.117" x2="170.66" y2="94.6646" stroke="rgb(64,128,128)" stroke-width="0"/>
		<line x1="225.889" y1="94.6646" x2="197.571" y2="122.939" stroke="rgb(64,128,128)" stroke-width="0"/>
		<path d="M197.571,122.939 a26.6045 26.6045 0 0 0 -26.9118,-2.82257" fill="none" stroke="rgb(64,128,128)" stroke-width="0"/>
		<line x1="170.66" y1="120.117" x2="225.889" y2="94.6646" stroke="rgb(64,128,128)" stroke-width="0"/>
	</g>
</svg>