<svg version = "1.1" xmlns = "http://www.w3.org/2000/svg" xmlns:xlink="http://www.w3.org/1999/xlink" width="388.099" height="308.099" viewbox = "0 0 388.099 308.099">
	<g transform="translate(2.14803,317.122) scale(1,-1) ">
		<line x1="119.205" y1="266.48" x2="120.505" y2="266.48" stroke="rgb(255,0,0)" stroke-width="0.705556"/>
		<line x1="120.505" y1="316.48" x2="263.299" y2="316.48" stroke="rgb(255,0,0)" stroke-width="0.705556"/>
		<line x1="263.299" y1="266.48" x2="264.599" y2="266.48" stroke="rgb(255,0,0)" stroke-width="0.705556"/>
		<line x1="120.505" y1="266.48" x2="263.299" y2="266.48" stroke="rgb(255,255,0)" stroke-width="0.705556"/>
		<line x1="335.309" y1="195.769" x2="335.309" y2="194.469" stroke="rgb(255,0,0)" stroke-width="0.705556"/>
		<line x1="385.309" y1="194.469" x2="385.309" y2="131.675" stroke="rgb(255,0,0)" stroke-width="0.705556"/>
		<line x1="335.309" y1="131.675" x2="335.309" y2="130.375" stroke="rgb(255,0,0)" stroke-width="0.705556"/>
		<line x1="335.309" y1="194.469" x2="335.309" y2="131.675" stroke="rgb(255,255,0)" stroke-width="0.705556"/>
		<line x1="264.599" y1="59.6646" x2="263.299" y2="59.6646" stroke="rgb(255,0,0)" stroke-width="0.705556"/>
		<line x1="263.299" y1="9.66457" x2="120.505" y2="9.66457" stroke="rgb(255,0,0)" stroke-width="0.705556"/>
		<line x1="120.505" y1="59.6646" x2="119.205" y2="59.6646" stroke="rgb(255,0,0)" stroke-width="0.705556"/>
		<line x1="263.299" y1="59.6646" x2="120.505" y2="59.6646" stroke="rgb(255,255,0)" stroke-width="0.705556"/>
		<line x1="48.4939" y1="130.375" x2="48.4939" y2="131.675" stroke="rgb(255,0,0)" stroke-width="0.705556"/>
		<line x1="-1.50606" y1="131.675" x2="-1.50606" y2="194.469" stroke="rgb(255,0,0)" stroke-width="0.705556"/>
		<line x1="48.4939" y1="194.469" x2="48.4939" y2="195.769" stroke="rgb(255,0,0)" stroke-width="0.705556"/>
		<line x1="48.4939" y1="131.675" x2="48.4939" y2="194.469" stroke="rgb(255,255,0)" stroke-width="0.705556"/>
		<line x1="264.599" y1="266.48" x2="288.45" y2="242.629" stroke="rgb(255,255,0)" stroke-width="0.705556"/>
		<line x1="311.458" y1="219.62" x2="335.309" y2="195.769" stroke="rgb(255,255,0)" stroke-width="0.705556"/>
		<line x1="335.309" y1="195.769" x2="335.309" y2="215.769" stroke="rgb(255,0,0)" stroke-width="0.705556"/>
		<line x1="264.599" y1="266.48" x2="284.599" y2="266.48" stroke="rgb(255,0,0)" stroke-width="0.705556"/>
		<line x1="284.599" y1="266.48" x2="301.333" y2="302.295" stroke="rgb(255,0,0)" stroke-width="0.705556"/>
		<line x1="335.309" y1="215.769" x2="371.124" y2="232.504" stroke="rgb(255,0,0)" stroke-width="0.705556"/>
		<line x1="301.333" y1="302.295" x2="371.124" y2="232.504" stroke="rgb(255,255,0)" stroke-width="0.705556"/>
		<line x1="303.171" y1="304.133" x2="372.963" y2="234.342" stroke="rgb(255,255,0)" stroke-width="0.705556"/>
		<line x1="361.535" y1="316.48" x2="361.918" y2="316.097" stroke="rgb(255,0,0)" stroke-width="0.705556"/>
		<line x1="384.927" y1="293.089" x2="385.309" y2="292.706" stroke="rgb(255,0,0)" stroke-width="0.705556"/>
		<line x1="301.333" y1="302.295" x2="315.518" y2="316.48" stroke="rgb(255,0,0)" stroke-width="0.705556"/>
		<line x1="371.124" y1="232.504" x2="385.309" y2="246.689" stroke="rgb(255,0,0)" stroke-width="0.705556"/>
		<line x1="385.309" y1="246.689" x2="385.309" y2="292.706" stroke="rgb(255,0,0)" stroke-width="0.705556"/>
		<line x1="315.518" y1="316.48" x2="361.535" y2="316.48" stroke="rgb(255,0,0)" stroke-width="0.705556"/>
		<line x1="335.309" y1="130.375" x2="311.458" y2="106.524" stroke="rgb(255,255,0)" stroke-width="0.705556"/>
		<line x1="288.45" y1="83.5155" x2="264.599" y2="59.6646" stroke="rgb(255,255,0)" stroke-width="0.705556"/>
		<line x1="264.599" y1="59.6646" x2="284.599" y2="59.6646" stroke="rgb(255,0,0)" stroke-width="0.705556"/>
		<line x1="335.309" y1="130.375" x2="335.309" y2="110.375" stroke="rgb(255,0,0)" stroke-width="0.705556"/>
		<line x1="335.309" y1="110.375" x2="371.124" y2="93.641" stroke="rgb(255,0,0)" stroke-width="0.705556"/>
		<line x1="284.599" y1="59.6646" x2="301.333" y2="23.8496" stroke="rgb(255,0,0)" stroke-width="0.705556"/>
		<line x1="371.124" y1="93.641" x2="301.333" y2="23.8496" stroke="rgb(255,255,0)" stroke-width="0.705556"/>
		<line x1="372.963" y1="91.8026" x2="303.171" y2="22.0111" stroke="rgb(255,255,0)" stroke-width="0.705556"/>
		<line x1="385.309" y1="33.4385" x2="384.927" y2="33.0559" stroke="rgb(255,0,0)" stroke-width="0.705556"/>
		<line x1="361.918" y1="10.0471" x2="361.535" y2="9.66457" stroke="rgb(255,0,0)" stroke-width="0.705556"/>
		<line x1="371.124" y1="93.641" x2="385.309" y2="79.456" stroke="rgb(255,0,0)" stroke-width="0.705556"/>
		<line x1="301.333" y1="23.8496" x2="315.518" y2="9.66457" stroke="rgb(255,0,0)" stroke-width="0.705556"/>
		<line x1="315.518" y1="9.66457" x2="361.535" y2="9.66457" stroke="rgb(255,0,0)" stroke-width="0.705556"/>
		<line x1="385.309" y1="79.456" x2="385.309" y2="33.4385" stroke="rgb(255,0,0)" stroke-width="0.705556"/>
		<line x1="119.205" y1="59.6646" x2="95.3537" y2="83.5155" stroke="rgb(255,255,0)" stroke-width="0.705556"/>
		<line x1="72.3449" y1="106.524" x2="48.4939" y2="130.375" stroke="rgb(255,255,0)" stroke-width="0.705556"/>
		<line x1="48.4939" y1="130.375" x2="48.4939" y2="110.375" stroke="rgb(255,0,0)" stroke-width="0.705556"/>
		<line x1="119.205" y1="59.6646" x2="99.2046" y2="59.6646" stroke="rgb(255,0,0)" stroke-width="0.705556"/>
		<line x1="99.2046" y1="59.6646" x2="82.4704" y2="23.8496" stroke="rgb(255,0,0)" stroke-width="0.705556"/>
		<line x1="48.4939" y1="110.375" x2="12.679" y2="93.641" stroke="rgb(255,0,0)" stroke-width="0.705556"/>
		<line x1="82.4704" y1="23.8496" x2="12.679" y2="93.641" stroke="rgb(255,255,0)" stroke-width="0.705556"/>
		<line x1="80.6319" y1="22.0111" x2="10.8405" y2="91.8026" stroke="rgb(255,255,0)" stroke-width="0.705556"/>
		<line x1="22.2678" y1="9.66457" x2="21.8853" y2="10.0471" stroke="rgb(255,0,0)" stroke-width="0.705556"/>
		<line x1="-1.1235" y1="33.0559" x2="-1.50606" y2="33.4385" stroke="rgb(255,0,0)" stroke-width="0.705556"/>
		<line x1="82.4704" y1="23.8496" x2="68.2854" y2="9.66457" stroke="rgb(255,0,0)" stroke-width="0.705556"/>
		<line x1="12.679" y1="93.641" x2="-1.50606" y2="79.456" stroke="rgb(255,0,0)" stroke-width="0.705556"/>
		<line x1="-1.50606" y1="79.456" x2="-1.50606" y2="33.4385" stroke="rgb(255,0,0)" stroke-width="0.705556"/>
		<line x1="68.2854" y1="9.66457" x2="22.2678" y2="9.66457" stroke="rgb(255,0,0)" stroke-width="0.705556"/>
		<line x1="48.4939" y1="195.769" x2="72.3449" y2="219.62" stroke="rgb(255,255,0)" stroke-width="0.705556"/>
		<line x1="95.3537" y1="242.629" x2="119.205" y2="266.48" stroke="rgb(255,255,0)" stroke-width="0.705556"/>
		<line x1="119.205" y1="266.48" x2="99.2046" y2="266.48" stroke="rgb(255,0,0)" stroke-width="0.705556"/>
		<line x1="48.4939" y1="195.769" x2="48.4939" y2="215.769" stroke="rgb(255,0,0)" stroke-width="0.705556"/>
		<line x1="48.4939" y1="215.769" x2="12.679" y2="232.504" stroke="rgb(255,0,0)" stroke-width="0.705556"/>
		<line x1="99.2046" y1="266.48" x2="82.4704" y2="302.295" stroke="rgb(255,0,0)" stroke-width="0.705556"/>
		<line x1="12.679" y1="232.504" x2="82.4704" y2="302.295" stroke="rgb(255,255,0)" stroke-width="0.705556"/>
		<line x1="10.8405" y1="234.342" x2="80.6319" y2="304.133" stroke="rgb(255,255,0)" stroke-width="0.705556"/>
		<line x1="-1.50606" y1="292.706" x2="-1.1235" y2="293.089" stroke="rgb(255,0,0)" stroke-width="0.705556"/>
		<line x1="21.8853" y1="316.097" x2="22.2678" y2="316.48" stroke="rgb(255,0,0)" stroke-width="0.705556"/>
		<line x1="12.679" y1="232.504" x2="-1.50606" y2="246.689" stroke="rgb(255,0,0)" stroke-width="0.705556"/>
		<line x1="82.4704" y1="302.295" x2="68.2854" y2="316.48" stroke="rgb(255,0,0)" stroke-width="0.705556"/>
		<line x1="68.2854" y1="316.48" x2="22.2678" y2="316.48" stroke="rgb(255,0,0)" stroke-width="0.705556"/>
		<line x1="-1.50606" y1="246.689" x2="-1.50606" y2="292.706" stroke="rgb(255,0,0)" stroke-width="0.705556"/>
		<line x1="335.309" y1="194.469" x2="385.309" y2="194.469" stroke="rgb(255,255,0)" stroke-width="0.705556"/>
		<line x1="335.309" y1="131.675" x2="385.309" y2="131.675" stroke="rgb(255,255,0)" stroke-width="0.705556"/>
		<line x1="263.299" y1="59.6646" x2="263.299" y2="9.66457" stroke="rgb(255,255,0)" stroke-width="0.705556"/>
		<line x1="120.505" y1="9.66457" x2="120.505" y2="59.6646" stroke="rgb(255,255,0)" stroke-width="0.705556"/>
		<line x1="-1.50606" y1="131.675" x2="48.4939" y2="131.675" stroke="rgb(255,255,0)" stroke-width="0.705556"/>
		<line x1="-1.50606" y1="194.469" x2="48.4939" y2="194.469" stroke="rgb(255,255,0)" stroke-width="0.705556"/>
		<line x1="120.505" y1="316.48" x2="120.505" y2="266.48" stroke="rgb(255,255,0)" stroke-width="0.705556"/>
		<line x1="263.299" y1="316.48" x2="263.299" y2="266.48" stroke="rgb(255,255,0)" stroke-width="0.705556"/>
		<line x1="263.299" y1="316.48" x2="315.518" y2="316.48" stroke="rgb(255,0,0)" stroke-width="0.705556"/>
		<line x1="385.309" y1="246.689" x2="385.309" y2="194.469" stroke="rgb(255,0,0)" stroke-width="0.705556"/>
		<line x1="385.309" y1="131.675" x2="385.309" y2="79.456" stroke="rgb(255,0,0)" stroke-width="0.705556"/>
		<line x1="120.505" y1="316.48" x2="68.2854" y2="316.48" stroke="rgb(255,0,0)" stroke-width="0.705556"/>
		<line x1="-1.50606" y1="194.469" x2="-1.50606" y2="246.689" stroke="rgb(255,0,0)" stroke-width="0.705556"/>
		<line x1="-1.50606" y1="79.456" x2="-1.50606" y2="131.675" stroke="rgb(255,0,0)" stroke-width="0.705556"/>
		<line x1="68.2854" y1="9.66457" x2="120.505" y2="9.66457" stroke="rgb(255,0,0)" stroke-width="0.705556"/>
		<line x1="263.299" y1="9.66457" x2="315.518" y2="9.66457" stroke="rgb(255,0,0)" stroke-width="0.705556"/>
		<line x1="384.927" y1="293.089" x2="385.599" y2="295.175" stroke="rgb(255,0,0)" stroke-width="0.705556"/>
		<line x1="385.599" y1="295.175" x2="364.004" y2="316.769" stroke="rgb(255,0,0)" stroke-width="0.705556"/>
		<line x1="364.004" y1="316.769" x2="361.918" y2="316.097" stroke="rgb(255,0,0)" stroke-width="0.705556"/>
		<line x1="311.458" y1="219.62" x2="309.16" y2="217.322" stroke="rgb(255,0,0)" stroke-width="0.705556"/>
		<line x1="309.16" y1="217.322" x2="286.152" y2="240.331" stroke="rgb(255,0,0)" stroke-width="0.705556"/>
		<line x1="286.152" y1="240.331" x2="288.45" y2="242.629" stroke="rgb(255,0,0)" stroke-width="0.705556"/>
		<line x1="311.458" y1="219.62" x2="288.45" y2="242.629" stroke="rgb(255,0,0)" stroke-width="0.705556"/>
		<line x1="361.918" y1="10.0471" x2="364.004" y2="9.37537" stroke="rgb(255,0,0)" stroke-width="0.705556"/>
		<line x1="364.004" y1="9.37537" x2="385.599" y2="30.9699" stroke="rgb(255,0,0)" stroke-width="0.705556"/>
		<line x1="385.599" y1="30.9699" x2="384.927" y2="33.0559" stroke="rgb(255,0,0)" stroke-width="0.705556"/>
		<line x1="288.45" y1="83.5155" x2="286.152" y2="85.8136" stroke="rgb(255,0,0)" stroke-width="0.705556"/>
		<line x1="286.152" y1="85.8136" x2="309.16" y2="108.822" stroke="rgb(255,0,0)" stroke-width="0.705556"/>
		<line x1="309.16" y1="108.822" x2="311.458" y2="106.524" stroke="rgb(255,0,0)" stroke-width="0.705556"/>
		<line x1="288.45" y1="83.5155" x2="311.458" y2="106.524" stroke="rgb(255,0,0)" stroke-width="0.705556"/>
		<line x1="-1.1235" y1="33.0559" x2="-1.79525" y2="30.9699" stroke="rgb(255,0,0)" stroke-width="0.705556"/>
		<line x1="-1.79525" y1="30.9699" x2="19.7993" y2="9.37537" stroke="rgb(255,0,0)" stroke-width="0.705556"/>
		<line x1="19.7993" y1="9.37537" x2="21.8853" y2="10.0471" stroke="rgb(255,0,0)" stroke-width="0.705556"/>
		<line x1="72.3449" y1="106.524" x2="74.643" y2="108.822" stroke="rgb(255,0,0)" stroke-width="0.705556"/>
		<line x1="74.643" y1="108.822" x2="97.6518" y2="85.8136" stroke="rgb(255,0,0)" stroke-width="0.705556"/>
		<line x1="97.6518" y1="85.8136" x2="95.3537" y2="83.5155" stroke="rgb(255,0,0)" stroke-width="0.705556"/>
		<line x1="72.3449" y1="106.524" x2="95.3537" y2="83.5155" stroke="rgb(255,0,0)" stroke-width="0.705556"/>
		<line x1="21.8853" y1="316.097" x2="19.7993" y2="316.769" stroke="rgb(255,0,0)" stroke-width="0.705556"/>
		<line x1="19.7993" y1="316.769" x2="-1.79525" y2="295.175" stroke="rgb(255,0,0)" stroke-width="0.705556"/>
		<line x1="-1.79525" y1="295.175" x2="-1.1235" y2="293.089" stroke="rgb(255,0,0)" stroke-width="0.705556"/>
		<line x1="95.3537" y1="242.629" x2="97.6518" y2="240.331" stroke="rgb(255,0,0)" stroke-width="0.705556"/>
		<line x1="97.6518" y1="240.331" x2="74.643" y2="217.322" stroke="rgb(255,0,0)" stroke-width="0.705556"/>
		<line x1="74.643" y1="217.322" x2="72.3449" y2="219.62" stroke="rgb(255,0,0)" stroke-width="0.705556"/>
		<line x1="95.3537" y1="242.629" x2="72.3449" y2="219.62" stroke="rgb(255,0,0)" stroke-width="0.705556"/>
		<line x1="191.902" y1="122.279" x2="191.902" y2="94.6646" stroke="rgb(64,128,128)" stroke-width="0"/>
		<line x1="200.386" y1="103.869" x2="200.386" y2="94.6646" stroke="rgb(64,128,128)" stroke-width="0"/>
		<line x1="196.144" y1="113.074" x2="196.144" y2="94.6646" stroke="rgb(64,128,128)" stroke-width="0"/>
		<line x1="187.66" y1="131.484" x2="187.66" y2="94.6646" stroke="rgb(64,128,128)" stroke-width="0"/>
		<line x1="183.418" y1="140.689" x2="183.418" y2="94.6646" stroke="rgb(64,128,128)" stroke-width="0"/>
		<line x1="179.176" y1="149.894" x2="179.176" y2="94.6646" stroke="rgb(64,128,128)" stroke-width="0"/>
		<line x1="204.628" y1="94.6646" x2="179.176" y2="94.6646" stroke="rgb(64,128,128)" stroke-width="0"/>
		<line x1="179.176" y1="149.894" x2="207.45" y2="121.576" stroke="rgb(64,128,128)" stroke-width="0"/>
		<path d="M207.45,121.576 a26.6045 26.6045 0 0 1 -2.82257,-26.9118" fill="none" stroke="rgb(64,128,128)" stroke-width="0"/>
		<line x1="204.628" y1="94.6646" x2="179.176" y2="149.894" stroke="rgb(64,128,128)" stroke-width="0"/>
	</g>
</svg>