<svg version = "1.1" xmlns = "http://www.w3.org/2000/svg" xmlns:xlink="http://www.w3.org/1999/xlink" width="711.106" height="479.239" viewbox = "0 0 711.106 479.239">
	<g transform="translate(-119.308,461.477) scale(1,-1) ">
		<line x1="830.06" y1="81.2075" x2="830.06" y2="362.507" stroke="rgb(255,0,0)" stroke-width="0.705556"/>
		<line x1="629.41" y1="372.507" x2="629.41" y2="413.807" stroke="rgb(255,0,0)" stroke-width="0.705556"/>
		<line x1="830.06" y1="413.807" x2="830.06" y2="362.507" stroke="rgb(255,0,0)" stroke-width="0.705556"/>
		<line x1="830.06" y1="362.507" x2="629.41" y2="362.507" stroke="rgb(255,255,0)" stroke-width="0.705556"/>
		<line x1="830.06" y1="81.2075" x2="830.06" y2="29.9075" stroke="rgb(255,0,0)" stroke-width="0.705556"/>
		<line x1="629.41" y1="29.9075" x2="629.41" y2="71.2075" stroke="rgb(255,0,0)" stroke-width="0.705556"/>
		<line x1="629.41" y1="81.2075" x2="830.06" y2="81.2075" stroke="rgb(255,255,0)" stroke-width="0.705556"/>
		<line x1="629.41" y1="81.2075" x2="629.41" y2="71.2075" stroke="rgb(255,0,0)" stroke-width="0.705556"/>
		<line x1="629.41" y1="71.2075" x2="576.81" y2="71.2075" stroke="rgb(255,0,0)" stroke-width="0.705556"/>
		<line x1="576.81" y1="372.507" x2="629.41" y2="372.507" stroke="rgb(255,0,0)" stroke-width="0.705556"/>
		<line x1="629.41" y1="372.507" x2="629.41" y2="362.507" stroke="rgb(255,0,0)" stroke-width="0.705556"/>
		<line x1="629.41" y1="362.507" x2="629.41" y2="81.2075" stroke="rgb(255,255,0)" stroke-width="0.705556"/>
		<line x1="576.81" y1="71.2075" x2="375.51" y2="71.2075" stroke="rgb(255,0,0)" stroke-width="0.705556"/>
		<line x1="375.51" y1="372.507" x2="576.81" y2="372.507" stroke="rgb(255,0,0)" stroke-width="0.705556"/>
		<line x1="576.81" y1="372.507" x2="576.81" y2="71.2075" stroke="rgb(255,255,0)" stroke-width="0.705556"/>
		<line x1="375.51" y1="71.2075" x2="321.61" y2="71.2075" stroke="rgb(255,0,0)" stroke-width="0.705556"/>
		<line x1="321.61" y1="372.507" x2="375.51" y2="372.507" stroke="rgb(255,0,0)" stroke-width="0.705556"/>
		<line x1="375.51" y1="372.507" x2="375.51" y2="71.2075" stroke="rgb(255,255,0)" stroke-width="0.705556"/>
		<line x1="321.61" y1="71.2075" x2="119.66" y2="71.2075" stroke="rgb(255,0,0)" stroke-width="0.705556"/>
		<line x1="119.66" y1="71.2075" x2="119.66" y2="372.507" stroke="rgb(255,0,0)" stroke-width="0.705556"/>
		<line x1="119.66" y1="372.507" x2="321.61" y2="372.507" stroke="rgb(255,0,0)" stroke-width="0.705556"/>
		<line x1="321.61" y1="372.507" x2="321.61" y2="71.2075" stroke="rgb(255,255,0)" stroke-width="0.705556"/>
		<line x1="629.41" y1="413.807" x2="629.41" y2="461.124" stroke="rgb(255,0,0)" stroke-width="0.705556"/>
		<line x1="629.41" y1="461.124" x2="830.06" y2="461.124" stroke="rgb(255,0,0)" stroke-width="0.705556"/>
		<line x1="830.06" y1="461.124" x2="830.06" y2="413.807" stroke="rgb(255,0,0)" stroke-width="0.705556"/>
		<line x1="830.06" y1="413.807" x2="629.41" y2="413.807" stroke="rgb(255,255,0)" stroke-width="0.705556"/>
		<line x1="830.06" y1="29.9075" x2="830.06" y2="-17.4092" stroke="rgb(255,0,0)" stroke-width="0.705556"/>
		<line x1="830.06" y1="-17.4092" x2="629.41" y2="-17.4092" stroke="rgb(255,0,0)" stroke-width="0.705556"/>
		<line x1="629.41" y1="-17.4092" x2="629.41" y2="29.9075" stroke="rgb(255,0,0)" stroke-width="0.705556"/>
		<line x1="629.41" y1="29.9075" x2="830.06" y2="29.9075" stroke="rgb(255,255,0)" stroke-width="0.705556"/>
		<line x1="476.16" y1="133.822" x2="476.16" y2="106.207" stroke="rgb(64,128,128)" stroke-width="0"/>
		<line x1="484.644" y1="115.412" x2="484.644" y2="106.207" stroke="rgb(64,128,128)" stroke-width="0"/>
		<line x1="480.402" y1="124.617" x2="480.402" y2="106.207" stroke="rgb(64,128,128)" stroke-width="0"/>
		<line x1="471.918" y1="143.027" x2="471.918" y2="106.207" stroke="rgb(64,128,128)" stroke-width="0"/>
		<line x1="467.676" y1="152.232" x2="467.676" y2="106.207" stroke="rgb(64,128,128)" stroke-width="0"/>
		<line x1="463.434" y1="161.437" x2="463.434" y2="106.207" stroke="rgb(64,128,128)" stroke-width="0"/>
		<line x1="488.886" y1="106.207" x2="463.434" y2="106.207" stroke="rgb(64,128,128)" stroke-width="0"/>
		<line x1="463.434" y1="161.437" x2="491.709" y2="133.119" stroke="rgb(64,128,128)" stroke-width="0"/>
		<path d="M491.709,133.119 a26.6045 26.6045 0 0 1 -2.82257,-26.9118" fill="none" stroke="rgb(64,128,128)" stroke-width="0"/>
		<line x1="488.886" y1="106.207" x2="463.434" y2="161.437" stroke="rgb(64,128,128)" stroke-width="0"/>
	</g>
</svg>