<svg version = "1.1" xmlns = "http://www.w3.org/2000/svg" xmlns:xlink="http://www.w3.org/1999/xlink" width="584.606" height="608.506" viewbox = "0 0 584.606 608.506">
	<g transform="translate(-26.3308,634.231) scale(1,-1) ">
		<line x1="177.984" y1="430.628" x2="177.984" y2="533.228" stroke="rgb(255,0,0)" stroke-width="0.705556"/>
		<line x1="459.284" y1="533.228" x2="459.284" y2="430.628" stroke="rgb(255,0,0)" stroke-width="0.705556"/>
		<line x1="459.284" y1="430.628" x2="177.984" y2="430.628" stroke="rgb(255,255,0)" stroke-width="0.705556"/>
		<line x1="459.284" y1="229.328" x2="459.284" y2="126.728" stroke="rgb(255,0,0)" stroke-width="0.705556"/>
		<line x1="177.984" y1="126.728" x2="177.984" y2="229.328" stroke="rgb(255,0,0)" stroke-width="0.705556"/>
		<line x1="177.984" y1="229.328" x2="459.284" y2="229.328" stroke="rgb(255,255,0)" stroke-width="0.705556"/>
		<line x1="459.284" y1="430.628" x2="459.284" y2="429.978" stroke="rgb(255,0,0)" stroke-width="0.705556"/>
		<line x1="459.284" y1="429.978" x2="560.584" y2="429.978" stroke="rgb(255,0,0)" stroke-width="0.705556"/>
		<line x1="560.584" y1="229.978" x2="459.284" y2="229.978" stroke="rgb(255,0,0)" stroke-width="0.705556"/>
		<line x1="459.284" y1="229.978" x2="459.284" y2="229.328" stroke="rgb(255,0,0)" stroke-width="0.705556"/>
		<line x1="459.284" y1="429.978" x2="459.284" y2="229.978" stroke="rgb(255,255,0)" stroke-width="0.705556"/>
		<line x1="177.984" y1="229.328" x2="177.984" y2="229.978" stroke="rgb(255,0,0)" stroke-width="0.705556"/>
		<line x1="177.984" y1="229.978" x2="76.6836" y2="229.978" stroke="rgb(255,0,0)" stroke-width="0.705556"/>
		<line x1="76.6836" y1="429.978" x2="177.984" y2="429.978" stroke="rgb(255,0,0)" stroke-width="0.705556"/>
		<line x1="177.984" y1="429.978" x2="177.984" y2="430.628" stroke="rgb(255,0,0)" stroke-width="0.705556"/>
		<line x1="177.984" y1="229.978" x2="177.984" y2="429.978" stroke="rgb(255,255,0)" stroke-width="0.705556"/>
		<line x1="177.984" y1="533.228" x2="177.984" y2="633.878" stroke="rgb(255,0,0)" stroke-width="0.705556"/>
		<line x1="177.984" y1="633.878" x2="459.284" y2="633.878" stroke="rgb(255,0,0)" stroke-width="0.705556"/>
		<line x1="459.284" y1="633.878" x2="459.284" y2="533.228" stroke="rgb(255,0,0)" stroke-width="0.705556"/>
		<line x1="459.284" y1="533.228" x2="177.984" y2="533.228" stroke="rgb(255,255,0)" stroke-width="0.705556"/>
		<line x1="459.284" y1="126.728" x2="459.284" y2="26.0778" stroke="rgb(255,0,0)" stroke-width="0.705556"/>
		<line x1="459.284" y1="26.0778" x2="177.984" y2="26.0778" stroke="rgb(255,0,0)" stroke-width="0.705556"/>
		<line x1="177.984" y1="26.0778" x2="177.984" y2="126.728" stroke="rgb(255,0,0)" stroke-width="0.705556"/>
		<line x1="177.984" y1="126.728" x2="459.284" y2="126.728" stroke="rgb(255,255,0)" stroke-width="0.705556"/>
		<line x1="560.584" y1="429.978" x2="610.584" y2="429.978" stroke="rgb(255,0,0)" stroke-width="0.705556"/>
		<line x1="610.584" y1="429.978" x2="610.584" y2="229.978" stroke="rgb(255,0,0)" stroke-width="0.705556"/>
		<line x1="610.584" y1="229.978" x2="560.584" y2="229.978" stroke="rgb(255,0,0)" stroke-width="0.705556"/>
		<line x1="560.584" y1="229.978" x2="560.584" y2="429.978" stroke="rgb(255,255,0)" stroke-width="0.705556"/>
		<line x1="76.6836" y1="229.978" x2="26.6836" y2="229.978" stroke="rgb(255,0,0)" stroke-width="0.705556"/>
		<line x1="26.6836" y1="229.978" x2="26.6836" y2="429.978" stroke="rgb(255,0,0)" stroke-width="0.705556"/>
		<line x1="26.6836" y1="429.978" x2="76.6836" y2="429.978" stroke="rgb(255,0,0)" stroke-width="0.705556"/>
		<line x1="76.6836" y1="429.978" x2="76.6836" y2="229.978" stroke="rgb(255,255,0)" stroke-width="0.705556"/>
		<line x1="318.634" y1="281.943" x2="318.634" y2="254.328" stroke="rgb(64,128,128)" stroke-width="0"/>
		<line x1="327.118" y1="263.533" x2="327.118" y2="254.328" stroke="rgb(64,128,128)" stroke-width="0"/>
		<line x1="322.876" y1="272.738" x2="322.876" y2="254.328" stroke="rgb(64,128,128)" stroke-width="0"/>
		<line x1="314.392" y1="291.148" x2="314.392" y2="254.328" stroke="rgb(64,128,128)" stroke-width="0"/>
		<line x1="310.15" y1="300.352" x2="310.15" y2="254.328" stroke="rgb(64,128,128)" stroke-width="0"/>
		<line x1="305.908" y1="309.557" x2="305.908" y2="254.328" stroke="rgb(64,128,128)" stroke-width="0"/>
		<line x1="331.36" y1="254.328" x2="305.908" y2="254.328" stroke="rgb(64,128,128)" stroke-width="0"/>
		<line x1="305.908" y1="309.557" x2="334.182" y2="281.24" stroke="rgb(64,128,128)" stroke-width="0"/>
		<path d="M334.182,281.24 a26.6045 26.6045 0 0 1 -2.82257,-26.9118" fill="none" stroke="rgb(64,128,128)" stroke-width="0"/>
		<line x1="331.36" y1="254.328" x2="305.908" y2="309.557" stroke="rgb(64,128,128)" stroke-width="0"/>
	</g>
</svg>