<svg version = "1.1" xmlns = "http://www.w3.org/2000/svg" xmlns:xlink="http://www.w3.org/1999/xlink" width="768.506" height="505.906" viewbox = "0 0 768.506 505.906">
	<g transform="translate(-27.5276,563.157) scale(1,-1) ">
		<line x1="552.43" y1="410.854" x2="655.03" y2="410.854" stroke="rgb(255,0,0)" stroke-width="0.705556"/>
		<line x1="655.03" y1="209.554" x2="552.43" y2="209.554" stroke="rgb(255,0,0)" stroke-width="0.705556"/>
		<line x1="552.43" y1="209.554" x2="552.43" y2="410.854" stroke="rgb(255,255,0)" stroke-width="0.705556"/>
		<line x1="271.13" y1="209.554" x2="168.53" y2="209.554" stroke="rgb(255,0,0)" stroke-width="0.705556"/>
		<line x1="168.53" y1="410.854" x2="271.13" y2="410.854" stroke="rgb(255,0,0)" stroke-width="0.705556"/>
		<line x1="271.13" y1="410.854" x2="271.13" y2="209.554" stroke="rgb(255,255,0)" stroke-width="0.705556"/>
		<line x1="271.13" y1="410.854" x2="271.78" y2="410.854" stroke="rgb(255,0,0)" stroke-width="0.705556"/>
		<line x1="271.78" y1="410.854" x2="271.78" y2="512.154" stroke="rgb(255,0,0)" stroke-width="0.705556"/>
		<line x1="551.78" y1="512.154" x2="551.78" y2="410.854" stroke="rgb(255,0,0)" stroke-width="0.705556"/>
		<line x1="551.78" y1="410.854" x2="552.43" y2="410.854" stroke="rgb(255,0,0)" stroke-width="0.705556"/>
		<line x1="271.78" y1="410.854" x2="551.78" y2="410.854" stroke="rgb(255,255,0)" stroke-width="0.705556"/>
		<line x1="552.43" y1="209.554" x2="551.78" y2="209.554" stroke="rgb(255,0,0)" stroke-width="0.705556"/>
		<line x1="551.78" y1="209.554" x2="551.78" y2="108.254" stroke="rgb(255,0,0)" stroke-width="0.705556"/>
		<line x1="271.78" y1="108.254" x2="271.78" y2="209.554" stroke="rgb(255,0,0)" stroke-width="0.705556"/>
		<line x1="271.78" y1="209.554" x2="271.13" y2="209.554" stroke="rgb(255,0,0)" stroke-width="0.705556"/>
		<line x1="551.78" y1="209.554" x2="271.78" y2="209.554" stroke="rgb(255,255,0)" stroke-width="0.705556"/>
		<line x1="271.78" y1="512.154" x2="271.78" y2="562.804" stroke="rgb(255,0,0)" stroke-width="0.705556"/>
		<line x1="271.78" y1="562.804" x2="551.78" y2="562.804" stroke="rgb(255,0,0)" stroke-width="0.705556"/>
		<line x1="551.78" y1="562.804" x2="551.78" y2="512.154" stroke="rgb(255,0,0)" stroke-width="0.705556"/>
		<line x1="551.78" y1="512.154" x2="271.78" y2="512.154" stroke="rgb(255,255,0)" stroke-width="0.705556"/>
		<line x1="551.78" y1="108.254" x2="551.78" y2="57.6039" stroke="rgb(255,0,0)" stroke-width="0.705556"/>
		<line x1="551.78" y1="57.6039" x2="271.78" y2="57.6039" stroke="rgb(255,0,0)" stroke-width="0.705556"/>
		<line x1="271.78" y1="57.6039" x2="271.78" y2="108.254" stroke="rgb(255,0,0)" stroke-width="0.705556"/>
		<line x1="271.78" y1="108.254" x2="551.78" y2="108.254" stroke="rgb(255,255,0)" stroke-width="0.705556"/>
		<line x1="655.03" y1="410.854" x2="795.68" y2="410.854" stroke="rgb(255,0,0)" stroke-width="0.705556"/>
		<line x1="795.68" y1="410.854" x2="795.68" y2="209.554" stroke="rgb(255,0,0)" stroke-width="0.705556"/>
		<line x1="795.68" y1="209.554" x2="655.03" y2="209.554" stroke="rgb(255,0,0)" stroke-width="0.705556"/>
		<line x1="655.03" y1="209.554" x2="655.03" y2="410.854" stroke="rgb(255,255,0)" stroke-width="0.705556"/>
		<line x1="168.53" y1="209.554" x2="27.8804" y2="209.554" stroke="rgb(255,0,0)" stroke-width="0.705556"/>
		<line x1="27.8804" y1="209.554" x2="27.8804" y2="410.854" stroke="rgb(255,0,0)" stroke-width="0.705556"/>
		<line x1="27.8804" y1="410.854" x2="168.53" y2="410.854" stroke="rgb(255,0,0)" stroke-width="0.705556"/>
		<line x1="168.53" y1="410.854" x2="168.53" y2="209.554" stroke="rgb(255,255,0)" stroke-width="0.705556"/>
		<line x1="418.153" y1="247.28" x2="390.538" y2="247.28" stroke="rgb(64,128,128)" stroke-width="0"/>
		<line x1="399.743" y1="255.764" x2="390.538" y2="255.764" stroke="rgb(64,128,128)" stroke-width="0"/>
		<line x1="408.948" y1="251.522" x2="390.538" y2="251.522" stroke="rgb(64,128,128)" stroke-width="0"/>
		<line x1="427.358" y1="243.038" x2="390.538" y2="243.038" stroke="rgb(64,128,128)" stroke-width="0"/>
		<line x1="436.563" y1="238.796" x2="390.538" y2="238.796" stroke="rgb(64,128,128)" stroke-width="0"/>
		<line x1="445.768" y1="234.554" x2="390.538" y2="234.554" stroke="rgb(64,128,128)" stroke-width="0"/>
		<line x1="390.538" y1="260.006" x2="390.538" y2="234.554" stroke="rgb(64,128,128)" stroke-width="0"/>
		<line x1="445.768" y1="234.554" x2="417.45" y2="262.828" stroke="rgb(64,128,128)" stroke-width="0"/>
		<path d="M417.45,262.828 a26.6045 26.6045 0 0 0 -26.9118,-2.82257" fill="none" stroke="rgb(64,128,128)" stroke-width="0"/>
		<line x1="390.538" y1="260.006" x2="445.768" y2="234.554" stroke="rgb(64,128,128)" stroke-width="0"/>
	</g>
</svg>