<svg version = "1.1" xmlns = "http://www.w3.org/2000/svg" xmlns:xlink="http://www.w3.org/1999/xlink" width="863.306" height="608.506" viewbox = "0 0 863.306 608.506">
	<g transform="translate(-31.0819,671.997) scale(1,-1) ">
		<line x1="292.085" y1="468.394" x2="292.085" y2="570.994" stroke="rgb(255,0,0)" stroke-width="0.705556"/>
		<line x1="633.385" y1="570.994" x2="633.385" y2="468.394" stroke="rgb(255,0,0)" stroke-width="0.705556"/>
		<line x1="633.385" y1="468.394" x2="292.085" y2="468.394" stroke="rgb(255,255,0)" stroke-width="0.705556"/>
		<line x1="633.385" y1="267.094" x2="633.385" y2="164.494" stroke="rgb(255,0,0)" stroke-width="0.705556"/>
		<line x1="292.085" y1="164.494" x2="292.085" y2="267.094" stroke="rgb(255,0,0)" stroke-width="0.705556"/>
		<line x1="292.085" y1="267.094" x2="633.385" y2="267.094" stroke="rgb(255,255,0)" stroke-width="0.705556"/>
		<line x1="633.385" y1="468.394" x2="633.385" y2="467.744" stroke="rgb(255,0,0)" stroke-width="0.705556"/>
		<line x1="633.385" y1="467.744" x2="734.685" y2="467.744" stroke="rgb(255,0,0)" stroke-width="0.705556"/>
		<line x1="734.685" y1="267.744" x2="633.385" y2="267.744" stroke="rgb(255,0,0)" stroke-width="0.705556"/>
		<line x1="633.385" y1="267.744" x2="633.385" y2="267.094" stroke="rgb(255,0,0)" stroke-width="0.705556"/>
		<line x1="633.385" y1="467.744" x2="633.385" y2="267.744" stroke="rgb(255,255,0)" stroke-width="0.705556"/>
		<line x1="292.085" y1="267.094" x2="292.085" y2="267.744" stroke="rgb(255,0,0)" stroke-width="0.705556"/>
		<line x1="292.085" y1="267.744" x2="190.785" y2="267.744" stroke="rgb(255,0,0)" stroke-width="0.705556"/>
		<line x1="190.785" y1="467.744" x2="292.085" y2="467.744" stroke="rgb(255,0,0)" stroke-width="0.705556"/>
		<line x1="292.085" y1="467.744" x2="292.085" y2="468.394" stroke="rgb(255,0,0)" stroke-width="0.705556"/>
		<line x1="292.085" y1="267.744" x2="292.085" y2="467.744" stroke="rgb(255,255,0)" stroke-width="0.705556"/>
		<line x1="292.085" y1="570.994" x2="292.085" y2="671.644" stroke="rgb(255,0,0)" stroke-width="0.705556"/>
		<line x1="292.085" y1="671.644" x2="633.385" y2="671.644" stroke="rgb(255,0,0)" stroke-width="0.705556"/>
		<line x1="633.385" y1="671.644" x2="633.385" y2="570.994" stroke="rgb(255,0,0)" stroke-width="0.705556"/>
		<line x1="633.385" y1="570.994" x2="292.085" y2="570.994" stroke="rgb(255,255,0)" stroke-width="0.705556"/>
		<line x1="633.385" y1="164.494" x2="633.385" y2="63.8443" stroke="rgb(255,0,0)" stroke-width="0.705556"/>
		<line x1="633.385" y1="63.8443" x2="292.085" y2="63.8443" stroke="rgb(255,0,0)" stroke-width="0.705556"/>
		<line x1="292.085" y1="63.8443" x2="292.085" y2="164.494" stroke="rgb(255,0,0)" stroke-width="0.705556"/>
		<line x1="292.085" y1="164.494" x2="633.385" y2="164.494" stroke="rgb(255,255,0)" stroke-width="0.705556"/>
		<line x1="734.685" y1="467.744" x2="764.685" y2="467.744" stroke="rgb(255,0,0)" stroke-width="0.705556"/>
		<line x1="764.685" y1="267.744" x2="734.685" y2="267.744" stroke="rgb(255,0,0)" stroke-width="0.705556"/>
		<line x1="734.685" y1="267.744" x2="734.685" y2="467.744" stroke="rgb(255,255,0)" stroke-width="0.705556"/>
		<line x1="190.785" y1="267.744" x2="160.785" y2="267.744" stroke="rgb(255,0,0)" stroke-width="0.705556"/>
		<line x1="160.785" y1="467.744" x2="190.785" y2="467.744" stroke="rgb(255,0,0)" stroke-width="0.705556"/>
		<line x1="190.785" y1="467.744" x2="190.785" y2="267.744" stroke="rgb(255,255,0)" stroke-width="0.705556"/>
		<line x1="764.685" y1="467.744" x2="864.685" y2="467.744" stroke="rgb(255,0,0)" stroke-width="0.705556"/>
		<line x1="864.685" y1="267.744" x2="764.685" y2="267.744" stroke="rgb(255,0,0)" stroke-width="0.705556"/>
		<line x1="764.685" y1="267.744" x2="764.685" y2="467.744" stroke="rgb(255,255,0)" stroke-width="0.705556"/>
		<line x1="160.785" y1="267.744" x2="60.7847" y2="267.744" stroke="rgb(255,0,0)" stroke-width="0.705556"/>
		<line x1="60.7847" y1="467.744" x2="160.785" y2="467.744" stroke="rgb(255,0,0)" stroke-width="0.705556"/>
		<line x1="160.785" y1="467.744" x2="160.785" y2="267.744" stroke="rgb(255,255,0)" stroke-width="0.705556"/>
		<line x1="864.685" y1="467.744" x2="894.035" y2="467.744" stroke="rgb(255,0,0)" stroke-width="0.705556"/>
		<line x1="894.035" y1="467.744" x2="894.035" y2="267.744" stroke="rgb(255,0,0)" stroke-width="0.705556"/>
		<line x1="894.035" y1="267.744" x2="864.685" y2="267.744" stroke="rgb(255,0,0)" stroke-width="0.705556"/>
		<line x1="864.685" y1="267.744" x2="864.685" y2="467.744" stroke="rgb(255,255,0)" stroke-width="0.705556"/>
		<line x1="60.7847" y1="267.744" x2="31.4347" y2="267.744" stroke="rgb(255,0,0)" stroke-width="0.705556"/>
		<line x1="31.4347" y1="267.744" x2="31.4347" y2="467.744" stroke="rgb(255,0,0)" stroke-width="0.705556"/>
		<line x1="31.4347" y1="467.744" x2="60.7847" y2="467.744" stroke="rgb(255,0,0)" stroke-width="0.705556"/>
		<line x1="60.7847" y1="467.744" x2="60.7847" y2="267.744" stroke="rgb(255,255,0)" stroke-width="0.705556"/>
		<line x1="469.107" y1="304.82" x2="441.493" y2="304.82" stroke="rgb(64,128,128)" stroke-width="0"/>
		<line x1="450.698" y1="313.304" x2="441.493" y2="313.304" stroke="rgb(64,128,128)" stroke-width="0"/>
		<line x1="459.902" y1="309.062" x2="441.493" y2="309.062" stroke="rgb(64,128,128)" stroke-width="0"/>
		<line x1="478.312" y1="300.578" x2="441.493" y2="300.578" stroke="rgb(64,128,128)" stroke-width="0"/>
		<line x1="487.517" y1="296.336" x2="441.493" y2="296.336" stroke="rgb(64,128,128)" stroke-width="0"/>
		<line x1="496.722" y1="292.094" x2="441.493" y2="292.094" stroke="rgb(64,128,128)" stroke-width="0"/>
		<line x1="441.493" y1="317.546" x2="441.493" y2="292.094" stroke="rgb(64,128,128)" stroke-width="0"/>
		<line x1="496.722" y1="292.094" x2="468.404" y2="320.369" stroke="rgb(64,128,128)" stroke-width="0"/>
		<path d="M468.404,320.369 a26.6045 26.6045 0 0 0 -26.9118,-2.82257" fill="none" stroke="rgb(64,128,128)" stroke-width="0"/>
		<line x1="441.493" y1="317.546" x2="496.722" y2="292.094" stroke="rgb(64,128,128)" stroke-width="0"/>
	</g>
</svg>