<svg version = "1.1" xmlns = "http://www.w3.org/2000/svg" xmlns:xlink="http://www.w3.org/1999/xlink" width="750.306" height="198.106" viewbox = "0 0 750.306 198.106">
	<g transform="translate(-85.8838,270.116) scale(1,-1) ">
		<line x1="600.387" y1="269.763" x2="321.687" y2="269.763" stroke="rgb(255,0,0)" stroke-width="0.705556"/>
		<line x1="321.687" y1="72.3633" x2="600.387" y2="72.3633" stroke="rgb(255,0,0)" stroke-width="0.705556"/>
		<line x1="600.387" y1="269.763" x2="696.487" y2="269.763" stroke="rgb(255,0,0)" stroke-width="0.705556"/>
		<line x1="696.487" y1="72.3633" x2="600.387" y2="72.3633" stroke="rgb(255,0,0)" stroke-width="0.705556"/>
		<line x1="600.387" y1="72.3633" x2="600.387" y2="269.763" stroke="rgb(255,255,0)" stroke-width="0.705556"/>
		<line x1="321.687" y1="72.3633" x2="225.587" y2="72.3633" stroke="rgb(255,0,0)" stroke-width="0.705556"/>
		<line x1="225.587" y1="269.763" x2="321.687" y2="269.763" stroke="rgb(255,0,0)" stroke-width="0.705556"/>
		<line x1="321.687" y1="269.763" x2="321.687" y2="72.3633" stroke="rgb(255,255,0)" stroke-width="0.705556"/>
		<line x1="696.487" y1="269.763" x2="835.837" y2="269.763" stroke="rgb(255,0,0)" stroke-width="0.705556"/>
		<line x1="835.837" y1="269.763" x2="835.837" y2="72.3633" stroke="rgb(255,0,0)" stroke-width="0.705556"/>
		<line x1="835.837" y1="72.3633" x2="696.487" y2="72.3633" stroke="rgb(255,0,0)" stroke-width="0.705556"/>
		<line x1="696.487" y1="72.3633" x2="696.487" y2="269.763" stroke="rgb(255,255,0)" stroke-width="0.705556"/>
		<line x1="225.587" y1="72.3633" x2="86.2365" y2="72.3633" stroke="rgb(255,0,0)" stroke-width="0.705556"/>
		<line x1="86.2365" y1="72.3633" x2="86.2365" y2="269.763" stroke="rgb(255,0,0)" stroke-width="0.705556"/>
		<line x1="86.2365" y1="269.763" x2="225.587" y2="269.763" stroke="rgb(255,0,0)" stroke-width="0.705556"/>
		<line x1="225.587" y1="269.763" x2="225.587" y2="72.3633" stroke="rgb(255,255,0)" stroke-width="0.705556"/>
		<line x1="467.409" y1="110.089" x2="439.794" y2="110.089" stroke="rgb(64,128,128)" stroke-width="0"/>
		<line x1="448.999" y1="118.573" x2="439.794" y2="118.573" stroke="rgb(64,128,128)" stroke-width="0"/>
		<line x1="458.204" y1="114.331" x2="439.794" y2="114.331" stroke="rgb(64,128,128)" stroke-width="0"/>
		<line x1="476.614" y1="105.847" x2="439.794" y2="105.847" stroke="rgb(64,128,128)" stroke-width="0"/>
		<line x1="485.819" y1="101.605" x2="439.794" y2="101.605" stroke="rgb(64,128,128)" stroke-width="0"/>
		<line x1="495.024" y1="97.3633" x2="439.794" y2="97.3633" stroke="rgb(64,128,128)" stroke-width="0"/>
		<line x1="439.794" y1="122.815" x2="439.794" y2="97.3633" stroke="rgb(64,128,128)" stroke-width="0"/>
		<line x1="495.024" y1="97.3633" x2="466.706" y2="125.638" stroke="rgb(64,128,128)" stroke-width="0"/>
		<path d="M466.706,125.638 a26.6045 26.6045 0 0 0 -26.9118,-2.82257" fill="none" stroke="rgb(64,128,128)" stroke-width="0"/>
		<line x1="439.794" y1="122.815" x2="495.024" y2="97.3633" stroke="rgb(64,128,128)" stroke-width="0"/>
	</g>
</svg>