<svg version = "1.1" xmlns = "http://www.w3.org/2000/svg" xmlns:xlink="http://www.w3.org/1999/xlink" width="595.506" height="280.706" viewbox = "0 0 595.506 280.706">
	<g transform="translate(-81.6569,339.44) scale(1,-1) ">
		<line x1="478.76" y1="339.087" x2="280.06" y2="339.087" stroke="rgb(255,0,0)" stroke-width="0.705556"/>
		<line x1="280.06" y1="59.0873" x2="478.76" y2="59.0873" stroke="rgb(255,0,0)" stroke-width="0.705556"/>
		<line x1="478.76" y1="339.087" x2="577.46" y2="339.087" stroke="rgb(255,0,0)" stroke-width="0.705556"/>
		<line x1="577.46" y1="59.0873" x2="478.76" y2="59.0873" stroke="rgb(255,0,0)" stroke-width="0.705556"/>
		<line x1="478.76" y1="59.0873" x2="478.76" y2="339.087" stroke="rgb(255,255,0)" stroke-width="0.705556"/>
		<line x1="280.06" y1="59.0873" x2="181.36" y2="59.0873" stroke="rgb(255,0,0)" stroke-width="0.705556"/>
		<line x1="181.36" y1="339.087" x2="280.06" y2="339.087" stroke="rgb(255,0,0)" stroke-width="0.705556"/>
		<line x1="280.06" y1="339.087" x2="280.06" y2="59.0873" stroke="rgb(255,255,0)" stroke-width="0.705556"/>
		<line x1="577.46" y1="339.087" x2="676.81" y2="339.087" stroke="rgb(255,0,0)" stroke-width="0.705556"/>
		<line x1="676.81" y1="339.087" x2="676.81" y2="59.0873" stroke="rgb(255,0,0)" stroke-width="0.705556"/>
		<line x1="676.81" y1="59.0873" x2="577.46" y2="59.0873" stroke="rgb(255,0,0)" stroke-width="0.705556"/>
		<line x1="577.46" y1="59.0873" x2="577.46" y2="339.087" stroke="rgb(255,255,0)" stroke-width="0.705556"/>
		<line x1="181.36" y1="59.0873" x2="82.0097" y2="59.0873" stroke="rgb(255,0,0)" stroke-width="0.705556"/>
		<line x1="82.0097" y1="59.0873" x2="82.0097" y2="339.087" stroke="rgb(255,0,0)" stroke-width="0.705556"/>
		<line x1="82.0097" y1="339.087" x2="181.36" y2="339.087" stroke="rgb(255,0,0)" stroke-width="0.705556"/>
		<line x1="181.36" y1="339.087" x2="181.36" y2="59.0873" stroke="rgb(255,255,0)" stroke-width="0.705556"/>
		<line x1="385.782" y1="96.8133" x2="358.168" y2="96.8133" stroke="rgb(64,128,128)" stroke-width="0"/>
		<line x1="367.373" y1="105.297" x2="358.168" y2="105.297" stroke="rgb(64,128,128)" stroke-width="0"/>
		<line x1="376.577" y1="101.055" x2="358.168" y2="101.055" stroke="rgb(64,128,128)" stroke-width="0"/>
		<line x1="394.987" y1="92.5713" x2="358.168" y2="92.5713" stroke="rgb(64,128,128)" stroke-width="0"/>
		<line x1="404.192" y1="88.3293" x2="358.168" y2="88.3293" stroke="rgb(64,128,128)" stroke-width="0"/>
		<line x1="413.397" y1="84.0873" x2="358.168" y2="84.0873" stroke="rgb(64,128,128)" stroke-width="0"/>
		<line x1="358.168" y1="109.539" x2="358.168" y2="84.0873" stroke="rgb(64,128,128)" stroke-width="0"/>
		<line x1="413.397" y1="84.0873" x2="385.079" y2="112.362" stroke="rgb(64,128,128)" stroke-width="0"/>
		<path d="M385.079,112.362 a26.6045 26.6045 0 0 0 -26.9118,-2.82257" fill="none" stroke="rgb(64,128,128)" stroke-width="0"/>
		<line x1="358.168" y1="109.539" x2="413.397" y2="84.0873" stroke="rgb(64,128,128)" stroke-width="0"/>
	</g>
</svg>