<svg version = "1.1" xmlns = "http://www.w3.org/2000/svg" xmlns:xlink="http://www.w3.org/1999/xlink" width="732.206" height="425.906" viewbox = "0 0 732.206 425.906">
	<g transform="translate(-22.7369,479.409) scale(1,-1) ">
		<line x1="250.69" y1="130.806" x2="250.69" y2="402.106" stroke="rgb(255,255,0)" stroke-width="0.705556"/>
		<line x1="401.99" y1="402.106" x2="401.99" y2="130.806" stroke="rgb(255,255,0)" stroke-width="0.705556"/>
		<line x1="604.59" y1="130.806" x2="604.59" y2="402.106" stroke="rgb(255,255,0)" stroke-width="0.705556"/>
		<line x1="754.59" y1="402.106" x2="754.59" y2="130.806" stroke="rgb(255,0,0)" stroke-width="0.705556"/>
		<line x1="48.0897" y1="402.106" x2="48.0897" y2="402.106" stroke="rgb(255,0,0)" stroke-width="0.705556"/>
		<line x1="48.0897" y1="402.106" x2="58.0897" y2="479.056" stroke="rgb(255,0,0)" stroke-width="0.705556"/>
		<line x1="58.0897" y1="479.056" x2="237.69" y2="479.056" stroke="rgb(255,0,0)" stroke-width="0.705556"/>
		<line x1="237.69" y1="479.056" x2="247.69" y2="402.106" stroke="rgb(255,0,0)" stroke-width="0.705556"/>
		<line x1="247.69" y1="402.106" x2="250.69" y2="402.106" stroke="rgb(255,0,0)" stroke-width="0.705556"/>
		<line x1="48.2587" y1="403.406" x2="247.521" y2="403.406" stroke="rgb(255,255,0)" stroke-width="0.705556"/>
		<line x1="401.99" y1="402.106" x2="404.99" y2="402.106" stroke="rgb(255,0,0)" stroke-width="0.705556"/>
		<line x1="404.99" y1="402.106" x2="414.99" y2="479.056" stroke="rgb(255,0,0)" stroke-width="0.705556"/>
		<line x1="414.99" y1="479.056" x2="591.59" y2="479.056" stroke="rgb(255,0,0)" stroke-width="0.705556"/>
		<line x1="591.59" y1="479.056" x2="601.59" y2="402.106" stroke="rgb(255,0,0)" stroke-width="0.705556"/>
		<line x1="601.59" y1="402.106" x2="604.59" y2="402.106" stroke="rgb(255,0,0)" stroke-width="0.705556"/>
		<line x1="405.159" y1="403.406" x2="601.421" y2="403.406" stroke="rgb(255,255,0)" stroke-width="0.705556"/>
		<line x1="401.99" y1="130.806" x2="404.99" y2="130.806" stroke="rgb(255,0,0)" stroke-width="0.705556"/>
		<line x1="404.99" y1="130.806" x2="414.99" y2="53.8559" stroke="rgb(255,0,0)" stroke-width="0.705556"/>
		<line x1="414.99" y1="53.8559" x2="591.59" y2="53.8559" stroke="rgb(255,0,0)" stroke-width="0.705556"/>
		<line x1="591.59" y1="53.8559" x2="601.59" y2="130.806" stroke="rgb(255,0,0)" stroke-width="0.705556"/>
		<line x1="601.59" y1="130.806" x2="604.59" y2="130.806" stroke="rgb(255,0,0)" stroke-width="0.705556"/>
		<line x1="405.159" y1="129.506" x2="601.421" y2="129.506" stroke="rgb(255,255,0)" stroke-width="0.705556"/>
		<line x1="48.0897" y1="130.806" x2="48.0897" y2="130.806" stroke="rgb(255,0,0)" stroke-width="0.705556"/>
		<line x1="48.0897" y1="130.806" x2="58.0897" y2="53.8559" stroke="rgb(255,0,0)" stroke-width="0.705556"/>
		<line x1="58.0897" y1="53.8559" x2="237.69" y2="53.8559" stroke="rgb(255,0,0)" stroke-width="0.705556"/>
		<line x1="237.69" y1="53.8559" x2="247.69" y2="130.806" stroke="rgb(255,0,0)" stroke-width="0.705556"/>
		<line x1="247.69" y1="130.806" x2="250.69" y2="130.806" stroke="rgb(255,0,0)" stroke-width="0.705556"/>
		<line x1="48.2587" y1="129.506" x2="247.521" y2="129.506" stroke="rgb(255,255,0)" stroke-width="0.705556"/>
		<line x1="250.69" y1="402.106" x2="253.69" y2="402.106" stroke="rgb(255,0,0)" stroke-width="0.705556"/>
		<line x1="253.69" y1="402.106" x2="263.69" y2="479.056" stroke="rgb(255,0,0)" stroke-width="0.705556"/>
		<line x1="263.69" y1="479.056" x2="388.99" y2="479.056" stroke="rgb(255,0,0)" stroke-width="0.705556"/>
		<line x1="388.99" y1="479.056" x2="398.99" y2="402.106" stroke="rgb(255,0,0)" stroke-width="0.705556"/>
		<line x1="398.99" y1="402.106" x2="401.99" y2="402.106" stroke="rgb(255,0,0)" stroke-width="0.705556"/>
		<line x1="253.69" y1="402.106" x2="398.99" y2="402.106" stroke="rgb(255,255,0)" stroke-width="0.705556"/>
		<line x1="604.59" y1="402.106" x2="607.59" y2="402.106" stroke="rgb(255,0,0)" stroke-width="0.705556"/>
		<line x1="607.59" y1="402.106" x2="617.59" y2="479.056" stroke="rgb(255,0,0)" stroke-width="0.705556"/>
		<line x1="617.59" y1="479.056" x2="744.59" y2="479.056" stroke="rgb(255,0,0)" stroke-width="0.705556"/>
		<line x1="744.59" y1="479.056" x2="754.59" y2="402.106" stroke="rgb(255,0,0)" stroke-width="0.705556"/>
		<line x1="754.59" y1="402.106" x2="754.59" y2="402.106" stroke="rgb(255,0,0)" stroke-width="0.705556"/>
		<line x1="607.59" y1="402.106" x2="754.59" y2="402.106" stroke="rgb(255,255,0)" stroke-width="0.705556"/>
		<line x1="604.59" y1="130.806" x2="607.59" y2="130.806" stroke="rgb(255,0,0)" stroke-width="0.705556"/>
		<line x1="607.59" y1="130.806" x2="617.59" y2="53.8559" stroke="rgb(255,0,0)" stroke-width="0.705556"/>
		<line x1="617.59" y1="53.8559" x2="744.59" y2="53.8559" stroke="rgb(255,0,0)" stroke-width="0.705556"/>
		<line x1="744.59" y1="53.8559" x2="754.59" y2="130.806" stroke="rgb(255,0,0)" stroke-width="0.705556"/>
		<line x1="754.59" y1="130.806" x2="754.59" y2="130.806" stroke="rgb(255,0,0)" stroke-width="0.705556"/>
		<line x1="607.59" y1="130.806" x2="754.59" y2="130.806" stroke="rgb(255,255,0)" stroke-width="0.705556"/>
		<line x1="250.69" y1="130.806" x2="253.69" y2="130.806" stroke="rgb(255,0,0)" stroke-width="0.705556"/>
		<line x1="253.69" y1="130.806" x2="263.69" y2="53.8559" stroke="rgb(255,0,0)" stroke-width="0.705556"/>
		<line x1="263.69" y1="53.8559" x2="388.99" y2="53.8559" stroke="rgb(255,0,0)" stroke-width="0.705556"/>
		<line x1="388.99" y1="53.8559" x2="398.99" y2="130.806" stroke="rgb(255,0,0)" stroke-width="0.705556"/>
		<line x1="398.99" y1="130.806" x2="401.99" y2="130.806" stroke="rgb(255,0,0)" stroke-width="0.705556"/>
		<line x1="253.69" y1="130.806" x2="398.99" y2="130.806" stroke="rgb(255,255,0)" stroke-width="0.705556"/>
		<line x1="48.0897" y1="130.806" x2="48.0897" y2="402.106" stroke="rgb(255,255,0)" stroke-width="0.705556"/>
		<line x1="48.0897" y1="402.106" x2="23.0897" y2="395.407" stroke="rgb(255,0,0)" stroke-width="0.705556"/>
		<line x1="23.0897" y1="395.407" x2="23.0897" y2="137.505" stroke="rgb(255,0,0)" stroke-width="0.705556"/>
		<line x1="23.0897" y1="137.505" x2="48.0897" y2="130.806" stroke="rgb(255,0,0)" stroke-width="0.705556"/>
		<line x1="503.29" y1="193.421" x2="503.29" y2="165.806" stroke="rgb(64,128,128)" stroke-width="0"/>
		<line x1="511.774" y1="175.011" x2="511.774" y2="165.806" stroke="rgb(64,128,128)" stroke-width="0"/>
		<line x1="507.532" y1="184.216" x2="507.532" y2="165.806" stroke="rgb(64,128,128)" stroke-width="0"/>
		<line x1="499.048" y1="202.626" x2="499.048" y2="165.806" stroke="rgb(64,128,128)" stroke-width="0"/>
		<line x1="494.806" y1="211.831" x2="494.806" y2="165.806" stroke="rgb(64,128,128)" stroke-width="0"/>
		<line x1="490.564" y1="221.036" x2="490.564" y2="165.806" stroke="rgb(64,128,128)" stroke-width="0"/>
		<line x1="516.016" y1="165.806" x2="490.564" y2="165.806" stroke="rgb(64,128,128)" stroke-width="0"/>
		<line x1="490.564" y1="221.036" x2="518.838" y2="192.718" stroke="rgb(64,128,128)" stroke-width="0"/>
		<path d="M518.838,192.718 a26.6045 26.6045 0 0 1 -2.82257,-26.9118" fill="none" stroke="rgb(64,128,128)" stroke-width="0"/>
		<line x1="516.016" y1="165.806" x2="490.564" y2="221.036" stroke="rgb(64,128,128)" stroke-width="0"/>
	</g>
</svg>