<svg version = "1.1" xmlns = "http://www.w3.org/2000/svg" xmlns:xlink="http://www.w3.org/1999/xlink" width="677.206" height="465.906" viewbox = "0 0 677.206 465.906">
	<g transform="translate(-27.0433,492.907) scale(1,-1) ">
		<line x1="411.946" y1="118.004" x2="411.946" y2="118.004" stroke="rgb(255,0,0)" stroke-width="0.705556"/>
		<line x1="411.946" y1="401.904" x2="411.946" y2="401.904" stroke="rgb(255,0,0)" stroke-width="0.705556"/>
		<line x1="411.946" y1="120.004" x2="411.946" y2="399.904" stroke="rgb(255,255,0)" stroke-width="0.705556"/>
		<line x1="613.246" y1="401.904" x2="613.246" y2="401.904" stroke="rgb(255,0,0)" stroke-width="0.705556"/>
		<line x1="703.896" y1="399.904" x2="703.896" y2="120.004" stroke="rgb(255,0,0)" stroke-width="0.705556"/>
		<line x1="613.246" y1="118.004" x2="613.246" y2="118.004" stroke="rgb(255,0,0)" stroke-width="0.705556"/>
		<line x1="613.246" y1="399.904" x2="613.246" y2="120.004" stroke="rgb(255,255,0)" stroke-width="0.705556"/>
		<line x1="320.646" y1="399.904" x2="320.646" y2="120.004" stroke="rgb(255,255,0)" stroke-width="0.705556"/>
		<line x1="27.396" y1="120.004" x2="27.396" y2="399.904" stroke="rgb(255,0,0)" stroke-width="0.705556"/>
		<line x1="118.046" y1="399.904" x2="118.046" y2="120.004" stroke="rgb(255,255,0)" stroke-width="0.705556"/>
		<line x1="411.946" y1="399.904" x2="413.446" y2="399.904" stroke="rgb(255,0,0)" stroke-width="0.705556"/>
		<line x1="413.446" y1="399.904" x2="413.446" y2="492.554" stroke="rgb(255,0,0)" stroke-width="0.705556"/>
		<line x1="413.446" y1="492.554" x2="611.746" y2="492.554" stroke="rgb(255,0,0)" stroke-width="0.705556"/>
		<line x1="611.746" y1="492.554" x2="611.746" y2="399.904" stroke="rgb(255,0,0)" stroke-width="0.705556"/>
		<line x1="611.746" y1="399.904" x2="613.246" y2="399.904" stroke="rgb(255,0,0)" stroke-width="0.705556"/>
		<line x1="413.446" y1="401.904" x2="611.746" y2="401.904" stroke="rgb(255,255,0)" stroke-width="0.705556"/>
		<line x1="320.646" y1="399.904" x2="322.146" y2="399.904" stroke="rgb(255,0,0)" stroke-width="0.705556"/>
		<line x1="322.146" y1="399.904" x2="322.146" y2="492.554" stroke="rgb(255,0,0)" stroke-width="0.705556"/>
		<line x1="322.146" y1="492.554" x2="410.446" y2="492.554" stroke="rgb(255,0,0)" stroke-width="0.705556"/>
		<line x1="410.446" y1="492.554" x2="410.446" y2="399.904" stroke="rgb(255,0,0)" stroke-width="0.705556"/>
		<line x1="410.446" y1="399.904" x2="411.946" y2="399.904" stroke="rgb(255,0,0)" stroke-width="0.705556"/>
		<line x1="322.146" y1="401.904" x2="410.446" y2="401.904" stroke="rgb(255,255,0)" stroke-width="0.705556"/>
		<line x1="613.246" y1="399.904" x2="614.746" y2="399.904" stroke="rgb(255,0,0)" stroke-width="0.705556"/>
		<line x1="614.746" y1="399.904" x2="614.746" y2="492.554" stroke="rgb(255,0,0)" stroke-width="0.705556"/>
		<line x1="614.746" y1="492.554" x2="703.896" y2="492.554" stroke="rgb(255,0,0)" stroke-width="0.705556"/>
		<line x1="703.896" y1="492.554" x2="703.896" y2="399.904" stroke="rgb(255,0,0)" stroke-width="0.705556"/>
		<line x1="703.896" y1="399.904" x2="703.896" y2="399.904" stroke="rgb(255,0,0)" stroke-width="0.705556"/>
		<line x1="614.746" y1="401.904" x2="703.896" y2="401.904" stroke="rgb(255,255,0)" stroke-width="0.705556"/>
		<line x1="118.046" y1="399.904" x2="119.546" y2="399.904" stroke="rgb(255,0,0)" stroke-width="0.705556"/>
		<line x1="119.546" y1="399.904" x2="119.546" y2="492.554" stroke="rgb(255,0,0)" stroke-width="0.705556"/>
		<line x1="119.546" y1="492.554" x2="319.146" y2="492.554" stroke="rgb(255,0,0)" stroke-width="0.705556"/>
		<line x1="319.146" y1="492.554" x2="319.146" y2="399.904" stroke="rgb(255,0,0)" stroke-width="0.705556"/>
		<line x1="319.146" y1="399.904" x2="320.646" y2="399.904" stroke="rgb(255,0,0)" stroke-width="0.705556"/>
		<line x1="119.546" y1="401.904" x2="319.146" y2="401.904" stroke="rgb(255,255,0)" stroke-width="0.705556"/>
		<line x1="118.046" y1="399.904" x2="116.546" y2="399.904" stroke="rgb(255,0,0)" stroke-width="0.705556"/>
		<line x1="116.546" y1="399.904" x2="116.546" y2="492.554" stroke="rgb(255,0,0)" stroke-width="0.705556"/>
		<line x1="116.546" y1="492.554" x2="27.396" y2="492.554" stroke="rgb(255,0,0)" stroke-width="0.705556"/>
		<line x1="27.396" y1="492.554" x2="27.396" y2="399.904" stroke="rgb(255,0,0)" stroke-width="0.705556"/>
		<line x1="27.396" y1="399.904" x2="27.396" y2="399.904" stroke="rgb(255,0,0)" stroke-width="0.705556"/>
		<line x1="116.546" y1="401.904" x2="27.396" y2="401.904" stroke="rgb(255,255,0)" stroke-width="0.705556"/>
		<line x1="411.946" y1="120.004" x2="410.446" y2="120.004" stroke="rgb(255,0,0)" stroke-width="0.705556"/>
		<line x1="410.446" y1="120.004" x2="410.446" y2="27.3541" stroke="rgb(255,0,0)" stroke-width="0.705556"/>
		<line x1="410.446" y1="27.3541" x2="322.146" y2="27.3541" stroke="rgb(255,0,0)" stroke-width="0.705556"/>
		<line x1="322.146" y1="27.3541" x2="322.146" y2="120.004" stroke="rgb(255,0,0)" stroke-width="0.705556"/>
		<line x1="322.146" y1="120.004" x2="320.646" y2="120.004" stroke="rgb(255,0,0)" stroke-width="0.705556"/>
		<line x1="410.446" y1="118.004" x2="322.146" y2="118.004" stroke="rgb(255,255,0)" stroke-width="0.705556"/>
		<line x1="613.246" y1="120.004" x2="614.746" y2="120.004" stroke="rgb(255,0,0)" stroke-width="0.705556"/>
		<line x1="614.746" y1="120.004" x2="614.746" y2="27.3541" stroke="rgb(255,0,0)" stroke-width="0.705556"/>
		<line x1="614.746" y1="27.3541" x2="703.896" y2="27.3541" stroke="rgb(255,0,0)" stroke-width="0.705556"/>
		<line x1="703.896" y1="27.3541" x2="703.896" y2="120.004" stroke="rgb(255,0,0)" stroke-width="0.705556"/>
		<line x1="703.896" y1="120.004" x2="703.896" y2="120.004" stroke="rgb(255,0,0)" stroke-width="0.705556"/>
		<line x1="614.746" y1="118.004" x2="703.896" y2="118.004" stroke="rgb(255,255,0)" stroke-width="0.705556"/>
		<line x1="613.246" y1="120.004" x2="611.746" y2="120.004" stroke="rgb(255,0,0)" stroke-width="0.705556"/>
		<line x1="611.746" y1="120.004" x2="611.746" y2="27.3541" stroke="rgb(255,0,0)" stroke-width="0.705556"/>
		<line x1="611.746" y1="27.3541" x2="413.446" y2="27.3541" stroke="rgb(255,0,0)" stroke-width="0.705556"/>
		<line x1="413.446" y1="27.3541" x2="413.446" y2="120.004" stroke="rgb(255,0,0)" stroke-width="0.705556"/>
		<line x1="413.446" y1="120.004" x2="411.946" y2="120.004" stroke="rgb(255,0,0)" stroke-width="0.705556"/>
		<line x1="611.746" y1="118.004" x2="413.446" y2="118.004" stroke="rgb(255,255,0)" stroke-width="0.705556"/>
		<line x1="320.646" y1="120.004" x2="319.146" y2="120.004" stroke="rgb(255,0,0)" stroke-width="0.705556"/>
		<line x1="319.146" y1="120.004" x2="319.146" y2="27.3541" stroke="rgb(255,0,0)" stroke-width="0.705556"/>
		<line x1="319.146" y1="27.3541" x2="119.546" y2="27.3541" stroke="rgb(255,0,0)" stroke-width="0.705556"/>
		<line x1="119.546" y1="27.3541" x2="119.546" y2="120.004" stroke="rgb(255,0,0)" stroke-width="0.705556"/>
		<line x1="119.546" y1="120.004" x2="118.046" y2="120.004" stroke="rgb(255,0,0)" stroke-width="0.705556"/>
		<line x1="319.146" y1="118.004" x2="119.546" y2="118.004" stroke="rgb(255,255,0)" stroke-width="0.705556"/>
		<line x1="118.046" y1="120.004" x2="116.546" y2="120.004" stroke="rgb(255,0,0)" stroke-width="0.705556"/>
		<line x1="116.546" y1="120.004" x2="116.546" y2="27.3541" stroke="rgb(255,0,0)" stroke-width="0.705556"/>
		<line x1="116.546" y1="27.3541" x2="27.396" y2="27.3541" stroke="rgb(255,0,0)" stroke-width="0.705556"/>
		<line x1="27.396" y1="27.3541" x2="27.396" y2="120.004" stroke="rgb(255,0,0)" stroke-width="0.705556"/>
		<line x1="27.396" y1="120.004" x2="27.396" y2="120.004" stroke="rgb(255,0,0)" stroke-width="0.705556"/>
		<line x1="116.546" y1="118.004" x2="27.396" y2="118.004" stroke="rgb(255,255,0)" stroke-width="0.705556"/>
		<line x1="703.896" y1="120.004" x2="703.896" y2="120.004" stroke="rgb(255,0,0)" stroke-width="0.705556"/>
		<line x1="703.896" y1="399.904" x2="703.896" y2="399.904" stroke="rgb(255,0,0)" stroke-width="0.705556"/>
		<line x1="27.396" y1="399.904" x2="27.396" y2="399.904" stroke="rgb(255,0,0)" stroke-width="0.705556"/>
		<line x1="27.396" y1="120.004" x2="27.396" y2="120.004" stroke="rgb(255,0,0)" stroke-width="0.705556"/>
		<line x1="512.596" y1="170.619" x2="512.596" y2="143.004" stroke="rgb(64,128,128)" stroke-width="0"/>
		<line x1="521.08" y1="152.209" x2="521.08" y2="143.004" stroke="rgb(64,128,128)" stroke-width="0"/>
		<line x1="516.838" y1="161.414" x2="516.838" y2="143.004" stroke="rgb(64,128,128)" stroke-width="0"/>
		<line x1="508.354" y1="179.824" x2="508.354" y2="143.004" stroke="rgb(64,128,128)" stroke-width="0"/>
		<line x1="504.112" y1="189.029" x2="504.112" y2="143.004" stroke="rgb(64,128,128)" stroke-width="0"/>
		<line x1="499.87" y1="198.234" x2="499.87" y2="143.004" stroke="rgb(64,128,128)" stroke-width="0"/>
		<line x1="525.322" y1="143.004" x2="499.87" y2="143.004" stroke="rgb(64,128,128)" stroke-width="0"/>
		<line x1="499.87" y1="198.234" x2="528.145" y2="169.916" stroke="rgb(64,128,128)" stroke-width="0"/>
		<path d="M528.145,169.916 a26.6045 26.6045 0 0 1 -2.82257,-26.9118" fill="none" stroke="rgb(64,128,128)" stroke-width="0"/>
		<line x1="525.322" y1="143.004" x2="499.87" y2="198.234" stroke="rgb(64,128,128)" stroke-width="0"/>
	</g>
</svg>