<svg version = "1.1" xmlns = "http://www.w3.org/2000/svg" xmlns:xlink="http://www.w3.org/1999/xlink" width="659.006" height="450.306" viewbox = "0 0 659.006 450.306">
	<g transform="translate(-38.7433,479.907) scale(1,-1) ">
		<line x1="411.946" y1="121.304" x2="411.946" y2="388.204" stroke="rgb(255,255,0)" stroke-width="0.705556"/>
		<line x1="697.396" y1="388.204" x2="697.396" y2="121.304" stroke="rgb(255,0,0)" stroke-width="0.705556"/>
		<line x1="609.346" y1="388.204" x2="609.346" y2="121.304" stroke="rgb(255,255,0)" stroke-width="0.705556"/>
		<line x1="323.246" y1="388.204" x2="323.246" y2="121.304" stroke="rgb(255,255,0)" stroke-width="0.705556"/>
		<line x1="411.946" y1="388.204" x2="413.446" y2="388.204" stroke="rgb(255,0,0)" stroke-width="0.705556"/>
		<line x1="413.446" y1="388.204" x2="413.446" y2="479.554" stroke="rgb(255,0,0)" stroke-width="0.705556"/>
		<line x1="413.446" y1="479.554" x2="607.846" y2="479.554" stroke="rgb(255,0,0)" stroke-width="0.705556"/>
		<line x1="607.846" y1="479.554" x2="607.846" y2="388.204" stroke="rgb(255,0,0)" stroke-width="0.705556"/>
		<line x1="607.846" y1="388.204" x2="609.346" y2="388.204" stroke="rgb(255,0,0)" stroke-width="0.705556"/>
		<line x1="413.446" y1="391.504" x2="607.846" y2="391.504" stroke="rgb(255,255,0)" stroke-width="0.705556"/>
		<line x1="323.246" y1="388.204" x2="324.746" y2="388.204" stroke="rgb(255,0,0)" stroke-width="0.705556"/>
		<line x1="324.746" y1="388.204" x2="324.746" y2="479.554" stroke="rgb(255,0,0)" stroke-width="0.705556"/>
		<line x1="324.746" y1="479.554" x2="410.446" y2="479.554" stroke="rgb(255,0,0)" stroke-width="0.705556"/>
		<line x1="410.446" y1="479.554" x2="410.446" y2="388.204" stroke="rgb(255,0,0)" stroke-width="0.705556"/>
		<line x1="410.446" y1="388.204" x2="411.946" y2="388.204" stroke="rgb(255,0,0)" stroke-width="0.705556"/>
		<line x1="324.746" y1="390.204" x2="410.446" y2="390.204" stroke="rgb(255,255,0)" stroke-width="0.705556"/>
		<line x1="609.346" y1="388.204" x2="610.846" y2="388.204" stroke="rgb(255,0,0)" stroke-width="0.705556"/>
		<line x1="610.846" y1="388.204" x2="610.846" y2="479.554" stroke="rgb(255,0,0)" stroke-width="0.705556"/>
		<line x1="610.846" y1="479.554" x2="697.396" y2="479.554" stroke="rgb(255,0,0)" stroke-width="0.705556"/>
		<line x1="697.396" y1="479.554" x2="697.396" y2="388.204" stroke="rgb(255,0,0)" stroke-width="0.705556"/>
		<line x1="697.396" y1="388.204" x2="697.396" y2="388.204" stroke="rgb(255,0,0)" stroke-width="0.705556"/>
		<line x1="610.846" y1="390.204" x2="697.396" y2="390.204" stroke="rgb(255,255,0)" stroke-width="0.705556"/>
		<line x1="124.546" y1="388.204" x2="126.046" y2="388.204" stroke="rgb(255,0,0)" stroke-width="0.705556"/>
		<line x1="126.046" y1="388.204" x2="126.046" y2="478.254" stroke="rgb(255,0,0)" stroke-width="0.705556"/>
		<line x1="126.046" y1="478.254" x2="321.746" y2="478.254" stroke="rgb(255,0,0)" stroke-width="0.705556"/>
		<line x1="321.746" y1="478.254" x2="321.746" y2="388.204" stroke="rgb(255,0,0)" stroke-width="0.705556"/>
		<line x1="321.746" y1="388.204" x2="323.246" y2="388.204" stroke="rgb(255,0,0)" stroke-width="0.705556"/>
		<line x1="126.046" y1="392.804" x2="321.746" y2="392.804" stroke="rgb(255,255,0)" stroke-width="0.705556"/>
		<line x1="411.946" y1="121.304" x2="410.446" y2="121.304" stroke="rgb(255,0,0)" stroke-width="0.705556"/>
		<line x1="410.446" y1="121.304" x2="410.446" y2="29.9541" stroke="rgb(255,0,0)" stroke-width="0.705556"/>
		<line x1="410.446" y1="29.9541" x2="324.746" y2="29.9541" stroke="rgb(255,0,0)" stroke-width="0.705556"/>
		<line x1="324.746" y1="29.9541" x2="324.746" y2="121.304" stroke="rgb(255,0,0)" stroke-width="0.705556"/>
		<line x1="324.746" y1="121.304" x2="323.246" y2="121.304" stroke="rgb(255,0,0)" stroke-width="0.705556"/>
		<line x1="410.446" y1="119.304" x2="324.746" y2="119.304" stroke="rgb(255,255,0)" stroke-width="0.705556"/>
		<line x1="609.346" y1="121.304" x2="610.846" y2="121.304" stroke="rgb(255,0,0)" stroke-width="0.705556"/>
		<line x1="610.846" y1="121.304" x2="610.846" y2="29.9541" stroke="rgb(255,0,0)" stroke-width="0.705556"/>
		<line x1="610.846" y1="29.9541" x2="697.396" y2="29.9541" stroke="rgb(255,0,0)" stroke-width="0.705556"/>
		<line x1="697.396" y1="29.9541" x2="697.396" y2="121.304" stroke="rgb(255,0,0)" stroke-width="0.705556"/>
		<line x1="697.396" y1="121.304" x2="697.396" y2="121.304" stroke="rgb(255,0,0)" stroke-width="0.705556"/>
		<line x1="610.846" y1="119.304" x2="697.396" y2="119.304" stroke="rgb(255,255,0)" stroke-width="0.705556"/>
		<line x1="609.346" y1="121.304" x2="607.846" y2="121.304" stroke="rgb(255,0,0)" stroke-width="0.705556"/>
		<line x1="607.846" y1="121.304" x2="607.846" y2="29.9541" stroke="rgb(255,0,0)" stroke-width="0.705556"/>
		<line x1="607.846" y1="29.9541" x2="413.446" y2="29.9541" stroke="rgb(255,0,0)" stroke-width="0.705556"/>
		<line x1="413.446" y1="29.9541" x2="413.446" y2="121.304" stroke="rgb(255,0,0)" stroke-width="0.705556"/>
		<line x1="413.446" y1="121.304" x2="411.946" y2="121.304" stroke="rgb(255,0,0)" stroke-width="0.705556"/>
		<line x1="607.846" y1="118.004" x2="413.446" y2="118.004" stroke="rgb(255,255,0)" stroke-width="0.705556"/>
		<line x1="323.246" y1="121.304" x2="321.746" y2="121.304" stroke="rgb(255,0,0)" stroke-width="0.705556"/>
		<line x1="321.746" y1="121.304" x2="321.746" y2="31.2541" stroke="rgb(255,0,0)" stroke-width="0.705556"/>
		<line x1="321.746" y1="31.2541" x2="126.046" y2="31.2541" stroke="rgb(255,0,0)" stroke-width="0.705556"/>
		<line x1="126.046" y1="31.2541" x2="126.046" y2="121.304" stroke="rgb(255,0,0)" stroke-width="0.705556"/>
		<line x1="126.046" y1="121.304" x2="124.546" y2="121.304" stroke="rgb(255,0,0)" stroke-width="0.705556"/>
		<line x1="321.746" y1="116.704" x2="126.046" y2="116.704" stroke="rgb(255,255,0)" stroke-width="0.705556"/>
		<line x1="124.546" y1="121.304" x2="39.096" y2="121.304" stroke="rgb(255,0,0)" stroke-width="0.705556"/>
		<line x1="39.096" y1="121.304" x2="39.096" y2="388.204" stroke="rgb(255,0,0)" stroke-width="0.705556"/>
		<line x1="39.096" y1="388.204" x2="124.546" y2="388.204" stroke="rgb(255,0,0)" stroke-width="0.705556"/>
		<line x1="124.546" y1="388.204" x2="124.546" y2="121.304" stroke="rgb(255,255,0)" stroke-width="0.705556"/>
		<line x1="697.396" y1="121.304" x2="697.396" y2="121.304" stroke="rgb(255,0,0)" stroke-width="0.705556"/>
		<line x1="697.396" y1="388.204" x2="697.396" y2="388.204" stroke="rgb(255,0,0)" stroke-width="0.705556"/>
		<line x1="510.646" y1="171.919" x2="510.646" y2="144.304" stroke="rgb(64,128,128)" stroke-width="0"/>
		<line x1="519.13" y1="153.509" x2="519.13" y2="144.304" stroke="rgb(64,128,128)" stroke-width="0"/>
		<line x1="514.888" y1="162.714" x2="514.888" y2="144.304" stroke="rgb(64,128,128)" stroke-width="0"/>
		<line x1="506.404" y1="181.124" x2="506.404" y2="144.304" stroke="rgb(64,128,128)" stroke-width="0"/>
		<line x1="502.162" y1="190.329" x2="502.162" y2="144.304" stroke="rgb(64,128,128)" stroke-width="0"/>
		<line x1="497.92" y1="199.534" x2="497.92" y2="144.304" stroke="rgb(64,128,128)" stroke-width="0"/>
		<line x1="523.372" y1="144.304" x2="497.92" y2="144.304" stroke="rgb(64,128,128)" stroke-width="0"/>
		<line x1="497.92" y1="199.534" x2="526.195" y2="171.216" stroke="rgb(64,128,128)" stroke-width="0"/>
		<path d="M526.195,171.216 a26.6045 26.6045 0 0 1 -2.82257,-26.9118" fill="none" stroke="rgb(64,128,128)" stroke-width="0"/>
		<line x1="523.372" y1="144.304" x2="497.92" y2="199.534" stroke="rgb(64,128,128)" stroke-width="0"/>
	</g>
</svg>