<svg version = "1.1" xmlns = "http://www.w3.org/2000/svg" xmlns:xlink="http://www.w3.org/1999/xlink" width="585.906" height="468.506" viewbox = "0 0 585.906 468.506">
	<g transform="translate(-32.8597,488.853) scale(1,-1) ">
		<line x1="225.162" y1="111.35" x2="225.162" y2="397.85" stroke="rgb(255,255,0)" stroke-width="0.705556"/>
		<line x1="426.462" y1="397.85" x2="426.462" y2="111.35" stroke="rgb(255,255,0)" stroke-width="0.705556"/>
		<line x1="225.162" y1="397.85" x2="226.662" y2="397.85" stroke="rgb(255,0,0)" stroke-width="0.705556"/>
		<line x1="226.662" y1="397.85" x2="226.662" y2="488.5" stroke="rgb(255,0,0)" stroke-width="0.705556"/>
		<line x1="226.662" y1="488.5" x2="424.962" y2="488.5" stroke="rgb(255,0,0)" stroke-width="0.705556"/>
		<line x1="424.962" y1="488.5" x2="424.962" y2="397.85" stroke="rgb(255,0,0)" stroke-width="0.705556"/>
		<line x1="424.962" y1="397.85" x2="426.462" y2="397.85" stroke="rgb(255,0,0)" stroke-width="0.705556"/>
		<line x1="226.662" y1="397.85" x2="424.962" y2="397.85" stroke="rgb(255,255,0)" stroke-width="0.705556"/>
		<line x1="426.462" y1="111.35" x2="424.962" y2="111.35" stroke="rgb(255,0,0)" stroke-width="0.705556"/>
		<line x1="424.962" y1="111.35" x2="424.962" y2="20.6999" stroke="rgb(255,0,0)" stroke-width="0.705556"/>
		<line x1="424.962" y1="20.6999" x2="226.662" y2="20.6999" stroke="rgb(255,0,0)" stroke-width="0.705556"/>
		<line x1="226.662" y1="20.6999" x2="226.662" y2="111.35" stroke="rgb(255,0,0)" stroke-width="0.705556"/>
		<line x1="226.662" y1="111.35" x2="225.162" y2="111.35" stroke="rgb(255,0,0)" stroke-width="0.705556"/>
		<line x1="424.962" y1="111.35" x2="226.662" y2="111.35" stroke="rgb(255,255,0)" stroke-width="0.705556"/>
		<line x1="427.962" y1="397.85" x2="427.962" y2="488.5" stroke="rgb(255,0,0)" stroke-width="0.705556"/>
		<line x1="427.962" y1="488.5" x2="516.262" y2="488.5" stroke="rgb(255,0,0)" stroke-width="0.705556"/>
		<line x1="516.262" y1="488.5" x2="516.262" y2="397.85" stroke="rgb(255,0,0)" stroke-width="0.705556"/>
		<line x1="427.962" y1="397.85" x2="516.262" y2="397.85" stroke="rgb(255,255,0)" stroke-width="0.705556"/>
		<line x1="516.262" y1="397.85" x2="517.762" y2="397.85" stroke="rgb(255,0,0)" stroke-width="0.705556"/>
		<line x1="427.962" y1="397.85" x2="426.462" y2="397.85" stroke="rgb(255,0,0)" stroke-width="0.705556"/>
		<line x1="135.362" y1="397.85" x2="135.362" y2="488.5" stroke="rgb(255,0,0)" stroke-width="0.705556"/>
		<line x1="135.362" y1="488.5" x2="223.662" y2="488.5" stroke="rgb(255,0,0)" stroke-width="0.705556"/>
		<line x1="223.662" y1="488.5" x2="223.662" y2="397.85" stroke="rgb(255,0,0)" stroke-width="0.705556"/>
		<line x1="135.362" y1="397.85" x2="223.662" y2="397.85" stroke="rgb(255,255,0)" stroke-width="0.705556"/>
		<line x1="223.662" y1="397.85" x2="225.162" y2="397.85" stroke="rgb(255,0,0)" stroke-width="0.705556"/>
		<line x1="135.362" y1="397.85" x2="133.862" y2="397.85" stroke="rgb(255,0,0)" stroke-width="0.705556"/>
		<line x1="427.962" y1="111.35" x2="427.962" y2="20.6999" stroke="rgb(255,0,0)" stroke-width="0.705556"/>
		<line x1="427.962" y1="20.6999" x2="516.262" y2="20.6999" stroke="rgb(255,0,0)" stroke-width="0.705556"/>
		<line x1="516.262" y1="20.6999" x2="516.262" y2="111.35" stroke="rgb(255,0,0)" stroke-width="0.705556"/>
		<line x1="427.962" y1="111.35" x2="516.262" y2="111.35" stroke="rgb(255,255,0)" stroke-width="0.705556"/>
		<line x1="516.262" y1="111.35" x2="517.762" y2="111.35" stroke="rgb(255,0,0)" stroke-width="0.705556"/>
		<line x1="427.962" y1="111.35" x2="426.462" y2="111.35" stroke="rgb(255,0,0)" stroke-width="0.705556"/>
		<line x1="135.362" y1="111.35" x2="135.362" y2="20.6999" stroke="rgb(255,0,0)" stroke-width="0.705556"/>
		<line x1="135.362" y1="20.6999" x2="223.662" y2="20.6999" stroke="rgb(255,0,0)" stroke-width="0.705556"/>
		<line x1="223.662" y1="20.6999" x2="223.662" y2="111.35" stroke="rgb(255,0,0)" stroke-width="0.705556"/>
		<line x1="135.362" y1="111.35" x2="223.662" y2="111.35" stroke="rgb(255,255,0)" stroke-width="0.705556"/>
		<line x1="223.662" y1="111.35" x2="225.162" y2="111.35" stroke="rgb(255,0,0)" stroke-width="0.705556"/>
		<line x1="135.362" y1="111.35" x2="133.862" y2="111.35" stroke="rgb(255,0,0)" stroke-width="0.705556"/>
		<line x1="618.412" y1="397.85" x2="618.412" y2="111.35" stroke="rgb(255,0,0)" stroke-width="0.705556"/>
		<line x1="517.762" y1="111.35" x2="517.762" y2="397.85" stroke="rgb(255,255,0)" stroke-width="0.705556"/>
		<line x1="33.2124" y1="111.35" x2="33.2124" y2="397.85" stroke="rgb(255,0,0)" stroke-width="0.705556"/>
		<line x1="133.862" y1="397.85" x2="133.862" y2="111.35" stroke="rgb(255,255,0)" stroke-width="0.705556"/>
		<line x1="517.762" y1="397.85" x2="519.262" y2="397.85" stroke="rgb(255,0,0)" stroke-width="0.705556"/>
		<line x1="519.262" y1="397.85" x2="519.262" y2="488.5" stroke="rgb(255,0,0)" stroke-width="0.705556"/>
		<line x1="519.262" y1="488.5" x2="618.412" y2="488.5" stroke="rgb(255,0,0)" stroke-width="0.705556"/>
		<line x1="618.412" y1="488.5" x2="618.412" y2="397.85" stroke="rgb(255,0,0)" stroke-width="0.705556"/>
		<line x1="618.412" y1="397.85" x2="618.412" y2="397.85" stroke="rgb(255,0,0)" stroke-width="0.705556"/>
		<line x1="519.262" y1="397.85" x2="618.412" y2="397.85" stroke="rgb(255,255,0)" stroke-width="0.705556"/>
		<line x1="133.862" y1="397.85" x2="132.362" y2="397.85" stroke="rgb(255,0,0)" stroke-width="0.705556"/>
		<line x1="132.362" y1="397.85" x2="132.362" y2="488.5" stroke="rgb(255,0,0)" stroke-width="0.705556"/>
		<line x1="132.362" y1="488.5" x2="33.2124" y2="488.5" stroke="rgb(255,0,0)" stroke-width="0.705556"/>
		<line x1="33.2124" y1="488.5" x2="33.2124" y2="397.85" stroke="rgb(255,0,0)" stroke-width="0.705556"/>
		<line x1="33.2124" y1="397.85" x2="33.2124" y2="397.85" stroke="rgb(255,0,0)" stroke-width="0.705556"/>
		<line x1="132.362" y1="397.85" x2="33.2124" y2="397.85" stroke="rgb(255,255,0)" stroke-width="0.705556"/>
		<line x1="133.862" y1="111.35" x2="132.362" y2="111.35" stroke="rgb(255,0,0)" stroke-width="0.705556"/>
		<line x1="132.362" y1="111.35" x2="132.362" y2="20.6999" stroke="rgb(255,0,0)" stroke-width="0.705556"/>
		<line x1="132.362" y1="20.6999" x2="33.2124" y2="20.6999" stroke="rgb(255,0,0)" stroke-width="0.705556"/>
		<line x1="33.2124" y1="20.6999" x2="33.2124" y2="111.35" stroke="rgb(255,0,0)" stroke-width="0.705556"/>
		<line x1="33.2124" y1="111.35" x2="33.2124" y2="111.35" stroke="rgb(255,0,0)" stroke-width="0.705556"/>
		<line x1="132.362" y1="111.35" x2="33.2124" y2="111.35" stroke="rgb(255,255,0)" stroke-width="0.705556"/>
		<line x1="517.762" y1="111.35" x2="519.262" y2="111.35" stroke="rgb(255,0,0)" stroke-width="0.705556"/>
		<line x1="519.262" y1="111.35" x2="519.262" y2="20.6999" stroke="rgb(255,0,0)" stroke-width="0.705556"/>
		<line x1="519.262" y1="20.6999" x2="618.412" y2="20.6999" stroke="rgb(255,0,0)" stroke-width="0.705556"/>
		<line x1="618.412" y1="20.6999" x2="618.412" y2="111.35" stroke="rgb(255,0,0)" stroke-width="0.705556"/>
		<line x1="618.412" y1="111.35" x2="618.412" y2="111.35" stroke="rgb(255,0,0)" stroke-width="0.705556"/>
		<line x1="519.262" y1="111.35" x2="618.412" y2="111.35" stroke="rgb(255,255,0)" stroke-width="0.705556"/>
		<line x1="325.812" y1="163.965" x2="325.812" y2="136.35" stroke="rgb(64,128,128)" stroke-width="0"/>
		<line x1="334.296" y1="145.555" x2="334.296" y2="136.35" stroke="rgb(64,128,128)" stroke-width="0"/>
		<line x1="330.054" y1="154.76" x2="330.054" y2="136.35" stroke="rgb(64,128,128)" stroke-width="0"/>
		<line x1="321.57" y1="173.17" x2="321.57" y2="136.35" stroke="rgb(64,128,128)" stroke-width="0"/>
		<line x1="317.328" y1="182.375" x2="317.328" y2="136.35" stroke="rgb(64,128,128)" stroke-width="0"/>
		<line x1="313.086" y1="191.579" x2="313.086" y2="136.35" stroke="rgb(64,128,128)" stroke-width="0"/>
		<line x1="338.538" y1="136.35" x2="313.086" y2="136.35" stroke="rgb(64,128,128)" stroke-width="0"/>
		<line x1="313.086" y1="191.579" x2="341.361" y2="163.262" stroke="rgb(64,128,128)" stroke-width="0"/>
		<path d="M341.361,163.262 a26.6045 26.6045 0 0 1 -2.82257,-26.9118" fill="none" stroke="rgb(64,128,128)" stroke-width="0"/>
		<line x1="338.538" y1="136.35" x2="313.086" y2="191.579" stroke="rgb(64,128,128)" stroke-width="0"/>
	</g>
</svg>