<svg version = "1.1" xmlns = "http://www.w3.org/2000/svg" xmlns:xlink="http://www.w3.org/1999/xlink" width="452.606" height="553.706" viewbox = "0 0 452.606 553.706">
	<g transform="translate(-26.8607,570.705) scale(1,-1) ">
		<line x1="112.513" y1="193.203" x2="112.513" y2="394.503" stroke="rgb(255,255,0)" stroke-width="0.705556"/>
		<line x1="393.813" y1="394.503" x2="393.813" y2="193.203" stroke="rgb(255,255,0)" stroke-width="0.705556"/>
		<line x1="112.513" y1="394.503" x2="114.013" y2="394.503" stroke="rgb(255,0,0)" stroke-width="0.705556"/>
		<line x1="114.013" y1="394.503" x2="114.013" y2="468.403" stroke="rgb(255,0,0)" stroke-width="0.705556"/>
		<line x1="392.313" y1="468.403" x2="392.313" y2="394.503" stroke="rgb(255,0,0)" stroke-width="0.705556"/>
		<line x1="392.313" y1="394.503" x2="393.813" y2="394.503" stroke="rgb(255,0,0)" stroke-width="0.705556"/>
		<line x1="114.013" y1="395.803" x2="392.313" y2="395.803" stroke="rgb(255,255,0)" stroke-width="0.705556"/>
		<line x1="393.813" y1="193.203" x2="392.313" y2="193.203" stroke="rgb(255,0,0)" stroke-width="0.705556"/>
		<line x1="392.313" y1="193.203" x2="392.313" y2="119.303" stroke="rgb(255,0,0)" stroke-width="0.705556"/>
		<line x1="114.013" y1="119.303" x2="114.013" y2="193.203" stroke="rgb(255,0,0)" stroke-width="0.705556"/>
		<line x1="114.013" y1="193.203" x2="112.513" y2="193.203" stroke="rgb(255,0,0)" stroke-width="0.705556"/>
		<line x1="392.313" y1="191.903" x2="114.013" y2="191.903" stroke="rgb(255,255,0)" stroke-width="0.705556"/>
		<line x1="393.813" y1="394.503" x2="395.313" y2="394.503" stroke="rgb(255,0,0)" stroke-width="0.705556"/>
		<line x1="395.313" y1="394.503" x2="395.313" y2="533.153" stroke="rgb(255,0,0)" stroke-width="0.705556"/>
		<line x1="395.313" y1="533.153" x2="465.113" y2="533.153" stroke="rgb(255,0,0)" stroke-width="0.705556"/>
		<line x1="465.113" y1="533.153" x2="465.113" y2="394.503" stroke="rgb(255,0,0)" stroke-width="0.705556"/>
		<line x1="465.113" y1="394.503" x2="465.113" y2="394.503" stroke="rgb(255,0,0)" stroke-width="0.705556"/>
		<line x1="395.313" y1="394.503" x2="465.113" y2="394.503" stroke="rgb(255,255,0)" stroke-width="0.705556"/>
		<line x1="112.513" y1="394.503" x2="111.013" y2="394.503" stroke="rgb(255,0,0)" stroke-width="0.705556"/>
		<line x1="111.013" y1="394.503" x2="111.013" y2="533.153" stroke="rgb(255,0,0)" stroke-width="0.705556"/>
		<line x1="111.013" y1="533.153" x2="41.2135" y2="533.153" stroke="rgb(255,0,0)" stroke-width="0.705556"/>
		<line x1="41.2135" y1="533.153" x2="41.2135" y2="394.503" stroke="rgb(255,0,0)" stroke-width="0.705556"/>
		<line x1="41.2135" y1="394.503" x2="41.2135" y2="394.503" stroke="rgb(255,0,0)" stroke-width="0.705556"/>
		<line x1="111.013" y1="394.503" x2="41.2135" y2="394.503" stroke="rgb(255,255,0)" stroke-width="0.705556"/>
		<line x1="112.513" y1="193.203" x2="111.013" y2="193.203" stroke="rgb(255,0,0)" stroke-width="0.705556"/>
		<line x1="111.013" y1="193.203" x2="111.013" y2="54.5527" stroke="rgb(255,0,0)" stroke-width="0.705556"/>
		<line x1="111.013" y1="54.5527" x2="41.2135" y2="54.5527" stroke="rgb(255,0,0)" stroke-width="0.705556"/>
		<line x1="41.2135" y1="54.5527" x2="41.2135" y2="193.203" stroke="rgb(255,0,0)" stroke-width="0.705556"/>
		<line x1="41.2135" y1="193.203" x2="41.2135" y2="193.203" stroke="rgb(255,0,0)" stroke-width="0.705556"/>
		<line x1="111.013" y1="193.203" x2="41.2135" y2="193.203" stroke="rgb(255,255,0)" stroke-width="0.705556"/>
		<line x1="393.813" y1="193.203" x2="395.313" y2="193.203" stroke="rgb(255,0,0)" stroke-width="0.705556"/>
		<line x1="395.313" y1="193.203" x2="395.313" y2="54.5527" stroke="rgb(255,0,0)" stroke-width="0.705556"/>
		<line x1="395.313" y1="54.5527" x2="465.113" y2="54.5527" stroke="rgb(255,0,0)" stroke-width="0.705556"/>
		<line x1="465.113" y1="54.5527" x2="465.113" y2="193.203" stroke="rgb(255,0,0)" stroke-width="0.705556"/>
		<line x1="465.113" y1="193.203" x2="465.113" y2="193.203" stroke="rgb(255,0,0)" stroke-width="0.705556"/>
		<line x1="395.313" y1="193.203" x2="465.113" y2="193.203" stroke="rgb(255,255,0)" stroke-width="0.705556"/>
		<line x1="114.013" y1="468.403" x2="114.013" y2="570.353" stroke="rgb(255,0,0)" stroke-width="0.705556"/>
		<line x1="114.013" y1="570.353" x2="392.313" y2="570.353" stroke="rgb(255,0,0)" stroke-width="0.705556"/>
		<line x1="392.313" y1="570.353" x2="392.313" y2="468.403" stroke="rgb(255,0,0)" stroke-width="0.705556"/>
		<line x1="392.313" y1="468.403" x2="114.013" y2="468.403" stroke="rgb(255,255,0)" stroke-width="0.705556"/>
		<line x1="392.313" y1="119.303" x2="392.313" y2="17.3527" stroke="rgb(255,0,0)" stroke-width="0.705556"/>
		<line x1="392.313" y1="17.3527" x2="114.013" y2="17.3527" stroke="rgb(255,0,0)" stroke-width="0.705556"/>
		<line x1="114.013" y1="17.3527" x2="114.013" y2="119.303" stroke="rgb(255,0,0)" stroke-width="0.705556"/>
		<line x1="114.013" y1="119.303" x2="392.313" y2="119.303" stroke="rgb(255,255,0)" stroke-width="0.705556"/>
		<line x1="465.113" y1="394.503" x2="479.113" y2="384.503" stroke="rgb(255,0,0)" stroke-width="0.705556"/>
		<line x1="479.113" y1="384.503" x2="479.113" y2="203.203" stroke="rgb(255,0,0)" stroke-width="0.705556"/>
		<line x1="479.113" y1="203.203" x2="465.113" y2="193.203" stroke="rgb(255,0,0)" stroke-width="0.705556"/>
		<line x1="465.113" y1="394.503" x2="465.113" y2="193.203" stroke="rgb(255,255,0)" stroke-width="0.705556"/>
		<line x1="41.2135" y1="193.203" x2="27.2135" y2="203.203" stroke="rgb(255,0,0)" stroke-width="0.705556"/>
		<line x1="27.2135" y1="203.203" x2="27.2135" y2="384.503" stroke="rgb(255,0,0)" stroke-width="0.705556"/>
		<line x1="27.2135" y1="384.503" x2="41.2135" y2="394.503" stroke="rgb(255,0,0)" stroke-width="0.705556"/>
		<line x1="41.2135" y1="193.203" x2="41.2135" y2="394.503" stroke="rgb(255,255,0)" stroke-width="0.705556"/>
		<line x1="253.163" y1="244.517" x2="253.163" y2="216.903" stroke="rgb(64,128,128)" stroke-width="0"/>
		<line x1="261.647" y1="226.108" x2="261.647" y2="216.903" stroke="rgb(64,128,128)" stroke-width="0"/>
		<line x1="257.405" y1="235.313" x2="257.405" y2="216.903" stroke="rgb(64,128,128)" stroke-width="0"/>
		<line x1="248.921" y1="253.722" x2="248.921" y2="216.903" stroke="rgb(64,128,128)" stroke-width="0"/>
		<line x1="244.679" y1="262.927" x2="244.679" y2="216.903" stroke="rgb(64,128,128)" stroke-width="0"/>
		<line x1="240.437" y1="272.132" x2="240.437" y2="216.903" stroke="rgb(64,128,128)" stroke-width="0"/>
		<line x1="265.889" y1="216.903" x2="240.437" y2="216.903" stroke="rgb(64,128,128)" stroke-width="0"/>
		<line x1="240.437" y1="272.132" x2="268.712" y2="243.815" stroke="rgb(64,128,128)" stroke-width="0"/>
		<path d="M268.712,243.815 a26.6045 26.6045 0 0 1 -2.82257,-26.9118" fill="none" stroke="rgb(64,128,128)" stroke-width="0"/>
		<line x1="265.889" y1="216.903" x2="240.437" y2="272.132" stroke="rgb(64,128,128)" stroke-width="0"/>
	</g>
</svg>