<svg version = "1.1" xmlns = "http://www.w3.org/2000/svg" xmlns:xlink="http://www.w3.org/1999/xlink" width="452.606" height="621.756" viewbox = "0 0 452.606 621.756">
	<g transform="translate(-26.8607,742.655) scale(1,-1) ">
		<line x1="112.513" y1="193.203" x2="112.513" y2="394.503" stroke="rgb(255,255,0)" stroke-width="0.705556"/>
		<line x1="393.813" y1="394.503" x2="393.813" y2="193.203" stroke="rgb(255,255,0)" stroke-width="0.705556"/>
		<line x1="112.513" y1="394.503" x2="114.013" y2="394.503" stroke="rgb(255,0,0)" stroke-width="0.705556"/>
		<line x1="114.013" y1="394.503" x2="114.013" y2="468.403" stroke="rgb(255,0,0)" stroke-width="0.705556"/>
		<line x1="392.313" y1="468.403" x2="392.313" y2="394.503" stroke="rgb(255,0,0)" stroke-width="0.705556"/>
		<line x1="392.313" y1="394.503" x2="393.813" y2="394.503" stroke="rgb(255,0,0)" stroke-width="0.705556"/>
		<line x1="114.013" y1="395.803" x2="392.313" y2="395.803" stroke="rgb(255,255,0)" stroke-width="0.705556"/>
		<line x1="393.813" y1="193.203" x2="392.313" y2="193.203" stroke="rgb(255,0,0)" stroke-width="0.705556"/>
		<line x1="392.313" y1="193.203" x2="392.313" y2="121.253" stroke="rgb(255,0,0)" stroke-width="0.705556"/>
		<line x1="392.313" y1="121.253" x2="114.013" y2="121.253" stroke="rgb(255,0,0)" stroke-width="0.705556"/>
		<line x1="114.013" y1="121.253" x2="114.013" y2="193.203" stroke="rgb(255,0,0)" stroke-width="0.705556"/>
		<line x1="114.013" y1="193.203" x2="112.513" y2="193.203" stroke="rgb(255,0,0)" stroke-width="0.705556"/>
		<line x1="392.313" y1="191.903" x2="114.013" y2="191.903" stroke="rgb(255,255,0)" stroke-width="0.705556"/>
		<line x1="393.813" y1="394.503" x2="395.313" y2="394.503" stroke="rgb(255,0,0)" stroke-width="0.705556"/>
		<line x1="395.313" y1="394.503" x2="395.313" y2="570.153" stroke="rgb(255,0,0)" stroke-width="0.705556"/>
		<line x1="395.313" y1="570.153" x2="465.113" y2="570.153" stroke="rgb(255,0,0)" stroke-width="0.705556"/>
		<line x1="465.113" y1="570.153" x2="465.113" y2="394.503" stroke="rgb(255,0,0)" stroke-width="0.705556"/>
		<line x1="465.113" y1="394.503" x2="465.113" y2="394.503" stroke="rgb(255,0,0)" stroke-width="0.705556"/>
		<line x1="395.313" y1="394.503" x2="465.113" y2="394.503" stroke="rgb(255,255,0)" stroke-width="0.705556"/>
		<line x1="112.513" y1="394.503" x2="111.013" y2="394.503" stroke="rgb(255,0,0)" stroke-width="0.705556"/>
		<line x1="111.013" y1="394.503" x2="111.013" y2="570.153" stroke="rgb(255,0,0)" stroke-width="0.705556"/>
		<line x1="111.013" y1="570.153" x2="41.2135" y2="570.153" stroke="rgb(255,0,0)" stroke-width="0.705556"/>
		<line x1="41.2135" y1="570.153" x2="41.2135" y2="394.503" stroke="rgb(255,0,0)" stroke-width="0.705556"/>
		<line x1="41.2135" y1="394.503" x2="41.2135" y2="394.503" stroke="rgb(255,0,0)" stroke-width="0.705556"/>
		<line x1="111.013" y1="394.503" x2="41.2135" y2="394.503" stroke="rgb(255,255,0)" stroke-width="0.705556"/>
		<line x1="112.513" y1="193.203" x2="111.013" y2="193.203" stroke="rgb(255,0,0)" stroke-width="0.705556"/>
		<line x1="111.013" y1="193.203" x2="111.013" y2="121.253" stroke="rgb(255,0,0)" stroke-width="0.705556"/>
		<line x1="111.013" y1="121.253" x2="41.2135" y2="121.253" stroke="rgb(255,0,0)" stroke-width="0.705556"/>
		<line x1="41.2135" y1="121.253" x2="41.2135" y2="193.203" stroke="rgb(255,0,0)" stroke-width="0.705556"/>
		<line x1="41.2135" y1="193.203" x2="41.2135" y2="193.203" stroke="rgb(255,0,0)" stroke-width="0.705556"/>
		<line x1="111.013" y1="193.203" x2="41.2135" y2="193.203" stroke="rgb(255,255,0)" stroke-width="0.705556"/>
		<line x1="393.813" y1="193.203" x2="395.313" y2="193.203" stroke="rgb(255,0,0)" stroke-width="0.705556"/>
		<line x1="395.313" y1="193.203" x2="395.313" y2="121.253" stroke="rgb(255,0,0)" stroke-width="0.705556"/>
		<line x1="395.313" y1="121.253" x2="465.113" y2="121.253" stroke="rgb(255,0,0)" stroke-width="0.705556"/>
		<line x1="465.113" y1="121.253" x2="465.113" y2="193.203" stroke="rgb(255,0,0)" stroke-width="0.705556"/>
		<line x1="465.113" y1="193.203" x2="465.113" y2="193.203" stroke="rgb(255,0,0)" stroke-width="0.705556"/>
		<line x1="395.313" y1="193.203" x2="465.113" y2="193.203" stroke="rgb(255,255,0)" stroke-width="0.705556"/>
		<line x1="114.013" y1="468.403" x2="114.013" y2="670.353" stroke="rgb(255,0,0)" stroke-width="0.705556"/>
		<line x1="392.313" y1="670.353" x2="392.313" y2="468.403" stroke="rgb(255,0,0)" stroke-width="0.705556"/>
		<line x1="392.313" y1="468.403" x2="114.013" y2="468.403" stroke="rgb(255,255,0)" stroke-width="0.705556"/>
		<line x1="465.113" y1="394.503" x2="479.113" y2="384.503" stroke="rgb(255,0,0)" stroke-width="0.705556"/>
		<line x1="479.113" y1="384.503" x2="479.113" y2="203.203" stroke="rgb(255,0,0)" stroke-width="0.705556"/>
		<line x1="479.113" y1="203.203" x2="465.113" y2="193.203" stroke="rgb(255,0,0)" stroke-width="0.705556"/>
		<line x1="465.113" y1="394.503" x2="465.113" y2="193.203" stroke="rgb(255,255,0)" stroke-width="0.705556"/>
		<line x1="41.2135" y1="193.203" x2="27.2135" y2="203.203" stroke="rgb(255,0,0)" stroke-width="0.705556"/>
		<line x1="27.2135" y1="203.203" x2="27.2135" y2="384.503" stroke="rgb(255,0,0)" stroke-width="0.705556"/>
		<line x1="27.2135" y1="384.503" x2="41.2135" y2="394.503" stroke="rgb(255,0,0)" stroke-width="0.705556"/>
		<line x1="41.2135" y1="193.203" x2="41.2135" y2="394.503" stroke="rgb(255,255,0)" stroke-width="0.705556"/>
		<line x1="114.013" y1="670.353" x2="114.013" y2="742.303" stroke="rgb(255,0,0)" stroke-width="0.705556"/>
		<line x1="114.013" y1="742.303" x2="392.313" y2="742.303" stroke="rgb(255,0,0)" stroke-width="0.705556"/>
		<line x1="392.313" y1="742.303" x2="392.313" y2="670.353" stroke="rgb(255,0,0)" stroke-width="0.705556"/>
		<line x1="392.313" y1="670.353" x2="114.013" y2="670.353" stroke="rgb(255,255,0)" stroke-width="0.705556"/>
		<line x1="253.163" y1="254.517" x2="253.163" y2="226.903" stroke="rgb(64,128,128)" stroke-width="0"/>
		<line x1="261.647" y1="236.108" x2="261.647" y2="226.903" stroke="rgb(64,128,128)" stroke-width="0"/>
		<line x1="257.405" y1="245.313" x2="257.405" y2="226.903" stroke="rgb(64,128,128)" stroke-width="0"/>
		<line x1="248.921" y1="263.722" x2="248.921" y2="226.903" stroke="rgb(64,128,128)" stroke-width="0"/>
		<line x1="244.679" y1="272.927" x2="244.679" y2="226.903" stroke="rgb(64,128,128)" stroke-width="0"/>
		<line x1="240.437" y1="282.132" x2="240.437" y2="226.903" stroke="rgb(64,128,128)" stroke-width="0"/>
		<line x1="265.889" y1="226.903" x2="240.437" y2="226.903" stroke="rgb(64,128,128)" stroke-width="0"/>
		<line x1="240.437" y1="282.132" x2="268.712" y2="253.815" stroke="rgb(64,128,128)" stroke-width="0"/>
		<path d="M268.712,253.815 a26.6045 26.6045 0 0 1 -2.82257,-26.9118" fill="none" stroke="rgb(64,128,128)" stroke-width="0"/>
		<line x1="265.889" y1="226.903" x2="240.437" y2="282.132" stroke="rgb(64,128,128)" stroke-width="0"/>
	</g>
</svg>