<svg version = "1.1" xmlns = "http://www.w3.org/2000/svg" xmlns:xlink="http://www.w3.org/1999/xlink" width="591.406" height="605.906" viewbox = "0 0 591.406 605.906">
	<g transform="translate(-116.071,682.142) scale(1,-1) ">
		<line x1="269.824" y1="479.839" x2="553.724" y2="479.839" stroke="rgb(255,255,0)" stroke-width="0.705556"/>
		<line x1="553.724" y1="278.539" x2="269.824" y2="278.539" stroke="rgb(255,255,0)" stroke-width="0.705556"/>
		<line x1="553.724" y1="479.839" x2="553.724" y2="478.339" stroke="rgb(255,0,0)" stroke-width="0.705556"/>
		<line x1="553.724" y1="478.339" x2="655.024" y2="478.339" stroke="rgb(255,0,0)" stroke-width="0.705556"/>
		<line x1="655.024" y1="280.039" x2="553.724" y2="280.039" stroke="rgb(255,0,0)" stroke-width="0.705556"/>
		<line x1="553.724" y1="280.039" x2="553.724" y2="278.539" stroke="rgb(255,0,0)" stroke-width="0.705556"/>
		<line x1="555.024" y1="478.339" x2="555.024" y2="280.039" stroke="rgb(255,255,0)" stroke-width="0.705556"/>
		<line x1="269.824" y1="278.539" x2="269.824" y2="280.039" stroke="rgb(255,0,0)" stroke-width="0.705556"/>
		<line x1="269.824" y1="280.039" x2="168.524" y2="280.039" stroke="rgb(255,0,0)" stroke-width="0.705556"/>
		<line x1="168.524" y1="478.339" x2="269.824" y2="478.339" stroke="rgb(255,0,0)" stroke-width="0.705556"/>
		<line x1="269.824" y1="478.339" x2="269.824" y2="479.839" stroke="rgb(255,0,0)" stroke-width="0.705556"/>
		<line x1="268.524" y1="280.039" x2="268.524" y2="478.339" stroke="rgb(255,255,0)" stroke-width="0.705556"/>
		<line x1="555.024" y1="578.539" x2="652.374" y2="578.539" stroke="rgb(255,0,0)" stroke-width="0.705556"/>
		<line x1="652.374" y1="578.539" x2="652.374" y2="481.339" stroke="rgb(255,0,0)" stroke-width="0.705556"/>
		<line x1="652.374" y1="481.339" x2="553.724" y2="481.339" stroke="rgb(255,0,0)" stroke-width="0.705556"/>
		<line x1="553.724" y1="481.339" x2="553.724" y2="479.839" stroke="rgb(255,0,0)" stroke-width="0.705556"/>
		<line x1="553.724" y1="578.539" x2="553.724" y2="481.339" stroke="rgb(255,255,0)" stroke-width="0.705556"/>
		<line x1="268.524" y1="578.539" x2="171.174" y2="578.539" stroke="rgb(255,0,0)" stroke-width="0.705556"/>
		<line x1="171.174" y1="578.539" x2="171.174" y2="481.339" stroke="rgb(255,0,0)" stroke-width="0.705556"/>
		<line x1="171.174" y1="481.339" x2="269.824" y2="481.339" stroke="rgb(255,0,0)" stroke-width="0.705556"/>
		<line x1="269.824" y1="481.339" x2="269.824" y2="479.839" stroke="rgb(255,0,0)" stroke-width="0.705556"/>
		<line x1="269.824" y1="578.539" x2="269.824" y2="481.339" stroke="rgb(255,255,0)" stroke-width="0.705556"/>
		<line x1="268.524" y1="179.839" x2="171.174" y2="179.839" stroke="rgb(255,0,0)" stroke-width="0.705556"/>
		<line x1="171.174" y1="179.839" x2="171.174" y2="277.039" stroke="rgb(255,0,0)" stroke-width="0.705556"/>
		<line x1="171.174" y1="277.039" x2="269.824" y2="277.039" stroke="rgb(255,0,0)" stroke-width="0.705556"/>
		<line x1="269.824" y1="277.039" x2="269.824" y2="278.539" stroke="rgb(255,0,0)" stroke-width="0.705556"/>
		<line x1="269.824" y1="179.839" x2="269.824" y2="277.039" stroke="rgb(255,255,0)" stroke-width="0.705556"/>
		<line x1="555.024" y1="179.839" x2="652.374" y2="179.839" stroke="rgb(255,0,0)" stroke-width="0.705556"/>
		<line x1="652.374" y1="179.839" x2="652.374" y2="277.039" stroke="rgb(255,0,0)" stroke-width="0.705556"/>
		<line x1="652.374" y1="277.039" x2="553.724" y2="277.039" stroke="rgb(255,0,0)" stroke-width="0.705556"/>
		<line x1="553.724" y1="277.039" x2="553.724" y2="278.539" stroke="rgb(255,0,0)" stroke-width="0.705556"/>
		<line x1="553.724" y1="179.839" x2="553.724" y2="277.039" stroke="rgb(255,255,0)" stroke-width="0.705556"/>
		<line x1="553.724" y1="579.839" x2="555.024" y2="578.539" stroke="rgb(255,0,0)" stroke-width="0.705556"/>
		<line x1="553.724" y1="578.539" x2="553.724" y2="579.839" stroke="rgb(255,255,0)" stroke-width="0.705556"/>
		<line x1="553.724" y1="178.539" x2="555.024" y2="179.839" stroke="rgb(255,0,0)" stroke-width="0.705556"/>
		<line x1="553.724" y1="179.839" x2="553.724" y2="178.539" stroke="rgb(255,255,0)" stroke-width="0.705556"/>
		<line x1="269.824" y1="178.539" x2="268.524" y2="179.839" stroke="rgb(255,0,0)" stroke-width="0.705556"/>
		<line x1="269.824" y1="179.839" x2="269.824" y2="178.539" stroke="rgb(255,255,0)" stroke-width="0.705556"/>
		<line x1="269.824" y1="579.839" x2="268.524" y2="578.539" stroke="rgb(255,0,0)" stroke-width="0.705556"/>
		<line x1="269.824" y1="578.539" x2="269.824" y2="579.839" stroke="rgb(255,255,0)" stroke-width="0.705556"/>
		<line x1="655.024" y1="478.339" x2="655.024" y2="280.039" stroke="rgb(255,255,0)" stroke-width="0.705556"/>
		<line x1="655.024" y1="280.039" x2="657.624" y2="280.039" stroke="rgb(255,0,0)" stroke-width="0.705556"/>
		<line x1="657.624" y1="478.339" x2="655.024" y2="478.339" stroke="rgb(255,0,0)" stroke-width="0.705556"/>
		<line x1="168.524" y1="280.039" x2="168.524" y2="478.339" stroke="rgb(255,255,0)" stroke-width="0.705556"/>
		<line x1="168.524" y1="478.339" x2="165.924" y2="478.339" stroke="rgb(255,0,0)" stroke-width="0.705556"/>
		<line x1="165.924" y1="280.039" x2="168.524" y2="280.039" stroke="rgb(255,0,0)" stroke-width="0.705556"/>
		<line x1="657.624" y1="478.339" x2="707.124" y2="478.339" stroke="rgb(255,0,0)" stroke-width="0.705556"/>
		<line x1="707.124" y1="478.339" x2="707.124" y2="280.039" stroke="rgb(255,0,0)" stroke-width="0.705556"/>
		<line x1="707.124" y1="280.039" x2="657.624" y2="280.039" stroke="rgb(255,0,0)" stroke-width="0.705556"/>
		<line x1="657.624" y1="280.039" x2="657.624" y2="478.339" stroke="rgb(255,255,0)" stroke-width="0.705556"/>
		<line x1="165.924" y1="280.039" x2="116.424" y2="280.039" stroke="rgb(255,0,0)" stroke-width="0.705556"/>
		<line x1="116.424" y1="280.039" x2="116.424" y2="478.339" stroke="rgb(255,0,0)" stroke-width="0.705556"/>
		<line x1="116.424" y1="478.339" x2="165.924" y2="478.339" stroke="rgb(255,0,0)" stroke-width="0.705556"/>
		<line x1="165.924" y1="478.339" x2="165.924" y2="280.039" stroke="rgb(255,255,0)" stroke-width="0.705556"/>
		<line x1="553.724" y1="579.839" x2="555.674" y2="581.139" stroke="rgb(255,0,0)" stroke-width="0.705556"/>
		<line x1="555.674" y1="581.139" x2="555.674" y2="681.789" stroke="rgb(255,0,0)" stroke-width="0.705556"/>
		<line x1="555.674" y1="681.789" x2="267.874" y2="681.789" stroke="rgb(255,0,0)" stroke-width="0.705556"/>
		<line x1="267.874" y1="681.789" x2="267.874" y2="581.139" stroke="rgb(255,0,0)" stroke-width="0.705556"/>
		<line x1="267.874" y1="581.139" x2="269.824" y2="579.839" stroke="rgb(255,0,0)" stroke-width="0.705556"/>
		<line x1="555.674" y1="581.139" x2="267.874" y2="581.139" stroke="rgb(255,255,0)" stroke-width="0.705556"/>
		<line x1="553.724" y1="178.539" x2="555.674" y2="177.239" stroke="rgb(255,0,0)" stroke-width="0.705556"/>
		<line x1="555.674" y1="177.239" x2="555.674" y2="76.5887" stroke="rgb(255,0,0)" stroke-width="0.705556"/>
		<line x1="555.674" y1="76.5887" x2="267.874" y2="76.5887" stroke="rgb(255,0,0)" stroke-width="0.705556"/>
		<line x1="267.874" y1="76.5887" x2="267.874" y2="177.239" stroke="rgb(255,0,0)" stroke-width="0.705556"/>
		<line x1="267.874" y1="177.239" x2="269.824" y2="178.539" stroke="rgb(255,0,0)" stroke-width="0.705556"/>
		<line x1="555.674" y1="177.239" x2="267.874" y2="177.239" stroke="rgb(255,255,0)" stroke-width="0.705556"/>
		<line x1="418.147" y1="318.765" x2="390.532" y2="318.765" stroke="rgb(64,128,128)" stroke-width="0"/>
		<line x1="399.737" y1="327.249" x2="390.532" y2="327.249" stroke="rgb(64,128,128)" stroke-width="0"/>
		<line x1="408.942" y1="323.007" x2="390.532" y2="323.007" stroke="rgb(64,128,128)" stroke-width="0"/>
		<line x1="427.351" y1="314.523" x2="390.532" y2="314.523" stroke="rgb(64,128,128)" stroke-width="0"/>
		<line x1="436.556" y1="310.281" x2="390.532" y2="310.281" stroke="rgb(64,128,128)" stroke-width="0"/>
		<line x1="445.761" y1="306.039" x2="390.532" y2="306.039" stroke="rgb(64,128,128)" stroke-width="0"/>
		<line x1="390.532" y1="331.491" x2="390.532" y2="306.039" stroke="rgb(64,128,128)" stroke-width="0"/>
		<line x1="445.761" y1="306.039" x2="417.444" y2="334.313" stroke="rgb(64,128,128)" stroke-width="0"/>
		<path d="M417.444,334.313 a26.6045 26.6045 0 0 0 -26.9118,-2.82257" fill="none" stroke="rgb(64,128,128)" stroke-width="0"/>
		<line x1="390.532" y1="331.491" x2="445.761" y2="306.039" stroke="rgb(64,128,128)" stroke-width="0"/>
	</g>
</svg>