<svg version = "1.1" xmlns = "http://www.w3.org/2000/svg" xmlns:xlink="http://www.w3.org/1999/xlink" width="488.506" height="611.106" viewbox = "0 0 488.506 611.106">
	<g transform="translate(-24.1177,638.387) scale(1,-1) ">
		<line x1="512.27" y1="433.484" x2="512.27" y2="232.184" stroke="rgb(255,0,0)" stroke-width="0.705556"/>
		<line x1="24.4705" y1="433.484" x2="24.4705" y2="232.184" stroke="rgb(255,0,0)" stroke-width="0.705556"/>
		<line x1="410.32" y1="434.784" x2="126.42" y2="434.784" stroke="rgb(255,255,0)" stroke-width="0.705556"/>
		<line x1="126.42" y1="433.484" x2="126.42" y2="232.184" stroke="rgb(255,255,0)" stroke-width="0.705556"/>
		<line x1="126.42" y1="230.884" x2="410.32" y2="230.884" stroke="rgb(255,255,0)" stroke-width="0.705556"/>
		<line x1="410.32" y1="232.184" x2="410.32" y2="433.484" stroke="rgb(255,255,0)" stroke-width="0.705556"/>
		<line x1="126.42" y1="433.484" x2="126.42" y2="433.484" stroke="rgb(255,0,0)" stroke-width="0.705556"/>
		<line x1="410.32" y1="433.484" x2="410.32" y2="433.484" stroke="rgb(255,0,0)" stroke-width="0.705556"/>
		<line x1="410.32" y1="232.184" x2="410.32" y2="232.184" stroke="rgb(255,0,0)" stroke-width="0.705556"/>
		<line x1="126.42" y1="232.184" x2="126.42" y2="232.184" stroke="rgb(255,0,0)" stroke-width="0.705556"/>
		<line x1="410.32" y1="434.784" x2="410.97" y2="434.784" stroke="rgb(255,255,0)" stroke-width="0.705556"/>
		<line x1="126.42" y1="230.884" x2="125.77" y2="230.884" stroke="rgb(255,255,0)" stroke-width="0.705556"/>
		<line x1="126.42" y1="434.784" x2="125.77" y2="434.784" stroke="rgb(255,255,0)" stroke-width="0.705556"/>
		<line x1="410.32" y1="230.884" x2="410.97" y2="230.884" stroke="rgb(255,255,0)" stroke-width="0.705556"/>
		<line x1="127.72" y1="638.034" x2="409.02" y2="638.034" stroke="rgb(255,0,0)" stroke-width="0.705556"/>
		<line x1="125.77" y1="536.084" x2="410.97" y2="536.084" stroke="rgb(255,255,0)" stroke-width="0.705556"/>
		<line x1="409.02" y1="638.034" x2="409.02" y2="638.034" stroke="rgb(255,0,0)" stroke-width="0.705556"/>
		<line x1="409.02" y1="638.034" x2="509.67" y2="638.034" stroke="rgb(255,0,0)" stroke-width="0.705556"/>
		<line x1="509.67" y1="638.034" x2="509.67" y2="538.034" stroke="rgb(255,0,0)" stroke-width="0.705556"/>
		<line x1="409.02" y1="538.034" x2="409.02" y2="538.034" stroke="rgb(255,0,0)" stroke-width="0.705556"/>
		<line x1="409.02" y1="638.034" x2="409.02" y2="538.034" stroke="rgb(255,255,0)" stroke-width="0.705556"/>
		<line x1="127.72" y1="638.034" x2="127.72" y2="638.034" stroke="rgb(255,0,0)" stroke-width="0.705556"/>
		<line x1="127.72" y1="638.034" x2="27.0705" y2="638.034" stroke="rgb(255,0,0)" stroke-width="0.705556"/>
		<line x1="27.0705" y1="638.034" x2="27.0705" y2="538.034" stroke="rgb(255,0,0)" stroke-width="0.705556"/>
		<line x1="127.72" y1="538.034" x2="127.72" y2="538.034" stroke="rgb(255,0,0)" stroke-width="0.705556"/>
		<line x1="127.72" y1="638.034" x2="127.72" y2="538.034" stroke="rgb(255,255,0)" stroke-width="0.705556"/>
		<line x1="127.72" y1="27.6344" x2="409.02" y2="27.6344" stroke="rgb(255,0,0)" stroke-width="0.705556"/>
		<line x1="125.77" y1="129.584" x2="410.97" y2="129.584" stroke="rgb(255,255,0)" stroke-width="0.705556"/>
		<line x1="409.02" y1="27.6344" x2="409.02" y2="27.6344" stroke="rgb(255,0,0)" stroke-width="0.705556"/>
		<line x1="409.02" y1="27.6344" x2="509.67" y2="27.6344" stroke="rgb(255,0,0)" stroke-width="0.705556"/>
		<line x1="509.67" y1="27.6344" x2="509.67" y2="127.634" stroke="rgb(255,0,0)" stroke-width="0.705556"/>
		<line x1="409.02" y1="127.634" x2="409.02" y2="127.634" stroke="rgb(255,0,0)" stroke-width="0.705556"/>
		<line x1="409.02" y1="27.6344" x2="409.02" y2="127.634" stroke="rgb(255,255,0)" stroke-width="0.705556"/>
		<line x1="127.72" y1="27.6344" x2="127.72" y2="27.6344" stroke="rgb(255,0,0)" stroke-width="0.705556"/>
		<line x1="127.72" y1="27.6344" x2="27.0705" y2="27.6344" stroke="rgb(255,0,0)" stroke-width="0.705556"/>
		<line x1="27.0705" y1="27.6344" x2="27.0705" y2="127.634" stroke="rgb(255,0,0)" stroke-width="0.705556"/>
		<line x1="127.72" y1="127.634" x2="127.72" y2="127.634" stroke="rgb(255,0,0)" stroke-width="0.705556"/>
		<line x1="127.72" y1="27.6344" x2="127.72" y2="127.634" stroke="rgb(255,255,0)" stroke-width="0.705556"/>
		<line x1="268.37" y1="284.799" x2="268.37" y2="257.184" stroke="rgb(64,128,128)" stroke-width="0"/>
		<line x1="276.854" y1="266.389" x2="276.854" y2="257.184" stroke="rgb(64,128,128)" stroke-width="0"/>
		<line x1="272.612" y1="275.594" x2="272.612" y2="257.184" stroke="rgb(64,128,128)" stroke-width="0"/>
		<line x1="264.128" y1="294.004" x2="264.128" y2="257.184" stroke="rgb(64,128,128)" stroke-width="0"/>
		<line x1="259.886" y1="303.209" x2="259.886" y2="257.184" stroke="rgb(64,128,128)" stroke-width="0"/>
		<line x1="255.644" y1="312.414" x2="255.644" y2="257.184" stroke="rgb(64,128,128)" stroke-width="0"/>
		<line x1="281.096" y1="257.184" x2="255.644" y2="257.184" stroke="rgb(64,128,128)" stroke-width="0"/>
		<line x1="255.644" y1="312.414" x2="283.919" y2="284.096" stroke="rgb(64,128,128)" stroke-width="0"/>
		<path d="M283.919,284.096 a26.6045 26.6045 0 0 1 -2.82257,-26.9118" fill="none" stroke="rgb(64,128,128)" stroke-width="0"/>
		<line x1="281.096" y1="257.184" x2="255.644" y2="312.414" stroke="rgb(64,128,128)" stroke-width="0"/>
		<line x1="512.27" y1="433.484" x2="510.97" y2="434.784" stroke="rgb(255,0,0)" stroke-width="0.705556"/>
		<line x1="510.97" y1="434.784" x2="510.97" y2="536.084" stroke="rgb(255,0,0)" stroke-width="0.705556"/>
		<line x1="410.97" y1="536.084" x2="410.97" y2="434.784" stroke="rgb(255,0,0)" stroke-width="0.705556"/>
		<line x1="410.97" y1="434.784" x2="410.32" y2="433.484" stroke="rgb(255,0,0)" stroke-width="0.705556"/>
		<line x1="512.27" y1="433.484" x2="410.32" y2="433.484" stroke="rgb(255,255,0)" stroke-width="0.705556"/>
		<line x1="24.4705" y1="433.484" x2="25.7705" y2="434.784" stroke="rgb(255,0,0)" stroke-width="0.705556"/>
		<line x1="25.7705" y1="434.784" x2="25.7705" y2="536.084" stroke="rgb(255,0,0)" stroke-width="0.705556"/>
		<line x1="125.77" y1="536.084" x2="125.77" y2="434.784" stroke="rgb(255,0,0)" stroke-width="0.705556"/>
		<line x1="125.77" y1="434.784" x2="126.42" y2="433.484" stroke="rgb(255,0,0)" stroke-width="0.705556"/>
		<line x1="24.4705" y1="433.484" x2="126.42" y2="433.484" stroke="rgb(255,255,0)" stroke-width="0.705556"/>
		<line x1="512.27" y1="232.184" x2="510.97" y2="230.884" stroke="rgb(255,0,0)" stroke-width="0.705556"/>
		<line x1="510.97" y1="230.884" x2="510.97" y2="129.584" stroke="rgb(255,0,0)" stroke-width="0.705556"/>
		<line x1="410.97" y1="129.584" x2="410.97" y2="230.884" stroke="rgb(255,0,0)" stroke-width="0.705556"/>
		<line x1="410.97" y1="230.884" x2="410.32" y2="232.184" stroke="rgb(255,0,0)" stroke-width="0.705556"/>
		<line x1="512.27" y1="232.184" x2="410.32" y2="232.184" stroke="rgb(255,255,0)" stroke-width="0.705556"/>
		<line x1="24.4705" y1="232.184" x2="25.7705" y2="230.884" stroke="rgb(255,0,0)" stroke-width="0.705556"/>
		<line x1="25.7705" y1="230.884" x2="25.7705" y2="129.584" stroke="rgb(255,0,0)" stroke-width="0.705556"/>
		<line x1="125.77" y1="129.584" x2="125.77" y2="230.884" stroke="rgb(255,0,0)" stroke-width="0.705556"/>
		<line x1="125.77" y1="230.884" x2="126.42" y2="232.184" stroke="rgb(255,0,0)" stroke-width="0.705556"/>
		<line x1="24.4705" y1="232.184" x2="126.42" y2="232.184" stroke="rgb(255,255,0)" stroke-width="0.705556"/>
		<line x1="410.97" y1="536.084" x2="409.02" y2="538.034" stroke="rgb(255,0,0)" stroke-width="0.705556"/>
		<line x1="409.02" y1="538.034" x2="510.97" y2="538.034" stroke="rgb(255,0,0)" stroke-width="0.705556"/>
		<line x1="510.97" y1="538.034" x2="510.97" y2="536.084" stroke="rgb(255,0,0)" stroke-width="0.705556"/>
		<line x1="125.77" y1="536.084" x2="127.72" y2="538.034" stroke="rgb(255,0,0)" stroke-width="0.705556"/>
		<line x1="127.72" y1="538.034" x2="25.7705" y2="538.034" stroke="rgb(255,0,0)" stroke-width="0.705556"/>
		<line x1="25.7705" y1="538.034" x2="25.7705" y2="536.084" stroke="rgb(255,0,0)" stroke-width="0.705556"/>
		<line x1="410.97" y1="129.584" x2="409.02" y2="127.634" stroke="rgb(255,0,0)" stroke-width="0.705556"/>
		<line x1="409.02" y1="127.634" x2="510.97" y2="127.634" stroke="rgb(255,0,0)" stroke-width="0.705556"/>
		<line x1="510.97" y1="127.634" x2="510.97" y2="129.584" stroke="rgb(255,0,0)" stroke-width="0.705556"/>
		<line x1="125.77" y1="129.584" x2="127.72" y2="127.634" stroke="rgb(255,0,0)" stroke-width="0.705556"/>
		<line x1="127.72" y1="127.634" x2="25.7705" y2="127.634" stroke="rgb(255,0,0)" stroke-width="0.705556"/>
		<line x1="25.7705" y1="127.634" x2="25.7705" y2="129.584" stroke="rgb(255,0,0)" stroke-width="0.705556"/>
	</g>
</svg>