<svg version = "1.1" xmlns = "http://www.w3.org/2000/svg" xmlns:xlink="http://www.w3.org/1999/xlink" width="581.839" height="637.856" viewbox = "0 0 581.839 637.856">
	<g transform="translate(-9.25139,651.236) scale(1,-1) ">
		<line x1="442.121" y1="315.484" x2="543.421" y2="315.484" stroke="rgb(255,0,0)" stroke-width="0.705556"/>
		<line x1="543.421" y1="115.884" x2="442.121" y2="115.884" stroke="rgb(255,0,0)" stroke-width="0.705556"/>
		<line x1="440.821" y1="13.7336" x2="159.521" y2="13.7336" stroke="rgb(255,0,0)" stroke-width="0.705556"/>
		<line x1="158.221" y1="315.484" x2="56.9208" y2="315.484" stroke="rgb(255,0,0)" stroke-width="0.705556"/>
		<line x1="56.9208" y1="115.884" x2="158.221" y2="115.884" stroke="rgb(255,0,0)" stroke-width="0.705556"/>
		<line x1="440.821" y1="316.984" x2="159.521" y2="316.984" stroke="rgb(255,255,0)" stroke-width="0.705556"/>
		<line x1="158.221" y1="315.484" x2="158.221" y2="115.884" stroke="rgb(255,255,0)" stroke-width="0.705556"/>
		<line x1="159.521" y1="114.384" x2="440.821" y2="114.384" stroke="rgb(255,255,0)" stroke-width="0.705556"/>
		<line x1="442.121" y1="115.884" x2="442.121" y2="315.484" stroke="rgb(255,255,0)" stroke-width="0.705556"/>
		<line x1="158.221" y1="315.484" x2="159.521" y2="315.484" stroke="rgb(255,0,0)" stroke-width="0.705556"/>
		<line x1="159.521" y1="315.484" x2="159.521" y2="316.984" stroke="rgb(255,0,0)" stroke-width="0.705556"/>
		<line x1="440.821" y1="316.984" x2="440.821" y2="315.484" stroke="rgb(255,0,0)" stroke-width="0.705556"/>
		<line x1="440.821" y1="315.484" x2="442.121" y2="315.484" stroke="rgb(255,0,0)" stroke-width="0.705556"/>
		<line x1="440.821" y1="114.384" x2="440.821" y2="115.884" stroke="rgb(255,0,0)" stroke-width="0.705556"/>
		<line x1="440.821" y1="115.884" x2="442.121" y2="115.884" stroke="rgb(255,0,0)" stroke-width="0.705556"/>
		<line x1="158.221" y1="115.884" x2="159.521" y2="115.884" stroke="rgb(255,0,0)" stroke-width="0.705556"/>
		<line x1="159.521" y1="115.884" x2="159.521" y2="114.384" stroke="rgb(255,0,0)" stroke-width="0.705556"/>
		<line x1="543.421" y1="315.484" x2="543.421" y2="315.484" stroke="rgb(255,0,0)" stroke-width="0.705556"/>
		<line x1="543.421" y1="315.484" x2="590.738" y2="315.484" stroke="rgb(255,0,0)" stroke-width="0.705556"/>
		<line x1="590.738" y1="315.484" x2="590.738" y2="116.334" stroke="rgb(255,0,0)" stroke-width="0.705556"/>
		<line x1="590.738" y1="116.334" x2="543.421" y2="116.334" stroke="rgb(255,0,0)" stroke-width="0.705556"/>
		<line x1="543.421" y1="116.334" x2="543.421" y2="115.884" stroke="rgb(255,0,0)" stroke-width="0.705556"/>
		<line x1="543.421" y1="315.484" x2="543.421" y2="116.334" stroke="rgb(255,255,0)" stroke-width="0.705556"/>
		<line x1="56.9208" y1="315.484" x2="56.9208" y2="315.484" stroke="rgb(255,0,0)" stroke-width="0.705556"/>
		<line x1="56.9208" y1="315.484" x2="9.60417" y2="315.484" stroke="rgb(255,0,0)" stroke-width="0.705556"/>
		<line x1="9.60417" y1="315.484" x2="9.60417" y2="116.334" stroke="rgb(255,0,0)" stroke-width="0.705556"/>
		<line x1="9.60417" y1="116.334" x2="56.9208" y2="116.334" stroke="rgb(255,0,0)" stroke-width="0.705556"/>
		<line x1="56.9208" y1="116.334" x2="56.9208" y2="115.884" stroke="rgb(255,0,0)" stroke-width="0.705556"/>
		<line x1="56.9208" y1="315.484" x2="56.9208" y2="116.334" stroke="rgb(255,255,0)" stroke-width="0.705556"/>
		<line x1="440.821" y1="417.634" x2="442.771" y2="419.584" stroke="rgb(255,0,0)" stroke-width="0.705556"/>
		<line x1="442.771" y1="419.584" x2="442.771" y2="620.884" stroke="rgb(255,0,0)" stroke-width="0.705556"/>
		<line x1="157.571" y1="620.884" x2="157.571" y2="419.584" stroke="rgb(255,0,0)" stroke-width="0.705556"/>
		<line x1="157.571" y1="419.584" x2="159.521" y2="417.634" stroke="rgb(255,0,0)" stroke-width="0.705556"/>
		<line x1="442.771" y1="419.584" x2="157.571" y2="419.584" stroke="rgb(255,255,0)" stroke-width="0.705556"/>
		<line x1="440.171" y1="620.884" x2="440.171" y2="635.884" stroke="rgb(255,0,0)" stroke-width="0.705556"/>
		<line x1="425.171" y1="650.884" x2="175.171" y2="650.884" stroke="rgb(255,0,0)" stroke-width="0.705556"/>
		<line x1="160.171" y1="635.884" x2="160.171" y2="620.884" stroke="rgb(255,0,0)" stroke-width="0.705556"/>
		<line x1="157.571" y1="620.884" x2="160.171" y2="620.884" stroke="rgb(255,0,0)" stroke-width="0.705556"/>
		<line x1="160.171" y1="620.884" x2="440.171" y2="620.884" stroke="rgb(255,255,0)" stroke-width="0.705556"/>
		<line x1="440.171" y1="620.884" x2="442.771" y2="620.884" stroke="rgb(255,0,0)" stroke-width="0.705556"/>
		<path d="M425.171,650.884 a15 15 0 0 0 15,-15" fill="none" stroke="rgb(255,0,0)" stroke-width="0.705556"/>
		<path d="M175.171,650.884 a15 15 0 0 1 -15,-15" fill="none" stroke="rgb(255,0,0)" stroke-width="0.705556"/>
		<line x1="543.421" y1="315.484" x2="543.421" y2="315.484" stroke="rgb(255,0,0)" stroke-width="0.705556"/>
		<line x1="56.9208" y1="315.484" x2="56.9208" y2="315.484" stroke="rgb(255,0,0)" stroke-width="0.705556"/>
		<line x1="306.544" y1="152.11" x2="278.929" y2="152.11" stroke="rgb(64,128,128)" stroke-width="0"/>
		<line x1="288.134" y1="160.594" x2="278.929" y2="160.594" stroke="rgb(64,128,128)" stroke-width="0"/>
		<line x1="297.339" y1="156.352" x2="278.929" y2="156.352" stroke="rgb(64,128,128)" stroke-width="0"/>
		<line x1="315.748" y1="147.868" x2="278.929" y2="147.868" stroke="rgb(64,128,128)" stroke-width="0"/>
		<line x1="324.953" y1="143.626" x2="278.929" y2="143.626" stroke="rgb(64,128,128)" stroke-width="0"/>
		<line x1="334.158" y1="139.384" x2="278.929" y2="139.384" stroke="rgb(64,128,128)" stroke-width="0"/>
		<line x1="278.929" y1="164.836" x2="278.929" y2="139.384" stroke="rgb(64,128,128)" stroke-width="0"/>
		<line x1="334.158" y1="139.384" x2="305.841" y2="167.658" stroke="rgb(64,128,128)" stroke-width="0"/>
		<path d="M305.841,167.658 a26.6045 26.6045 0 0 0 -26.9118,-2.82257" fill="none" stroke="rgb(64,128,128)" stroke-width="0"/>
		<line x1="278.929" y1="164.836" x2="334.158" y2="139.384" stroke="rgb(64,128,128)" stroke-width="0"/>
		<line x1="440.821" y1="417.634" x2="440.821" y2="417.634" stroke="rgb(255,0,0)" stroke-width="0.705556"/>
		<line x1="440.821" y1="417.634" x2="521.471" y2="417.634" stroke="rgb(255,0,0)" stroke-width="0.705556"/>
		<line x1="521.471" y1="417.634" x2="521.471" y2="318.484" stroke="rgb(255,0,0)" stroke-width="0.705556"/>
		<line x1="521.471" y1="318.484" x2="440.821" y2="318.484" stroke="rgb(255,0,0)" stroke-width="0.705556"/>
		<line x1="440.821" y1="318.484" x2="440.821" y2="316.984" stroke="rgb(255,0,0)" stroke-width="0.705556"/>
		<line x1="440.821" y1="417.634" x2="440.821" y2="318.484" stroke="rgb(255,255,0)" stroke-width="0.705556"/>
		<line x1="159.521" y1="417.634" x2="159.521" y2="417.634" stroke="rgb(255,0,0)" stroke-width="0.705556"/>
		<line x1="159.521" y1="417.634" x2="78.8708" y2="417.634" stroke="rgb(255,0,0)" stroke-width="0.705556"/>
		<line x1="78.8708" y1="417.634" x2="78.8708" y2="318.484" stroke="rgb(255,0,0)" stroke-width="0.705556"/>
		<line x1="78.8708" y1="318.484" x2="159.521" y2="318.484" stroke="rgb(255,0,0)" stroke-width="0.705556"/>
		<line x1="159.521" y1="318.484" x2="159.521" y2="316.984" stroke="rgb(255,0,0)" stroke-width="0.705556"/>
		<line x1="159.521" y1="417.634" x2="159.521" y2="318.484" stroke="rgb(255,255,0)" stroke-width="0.705556"/>
		<line x1="440.821" y1="13.7336" x2="440.821" y2="13.7336" stroke="rgb(255,0,0)" stroke-width="0.705556"/>
		<line x1="440.821" y1="13.7336" x2="521.471" y2="13.7336" stroke="rgb(255,0,0)" stroke-width="0.705556"/>
		<line x1="521.471" y1="13.7336" x2="521.471" y2="112.884" stroke="rgb(255,0,0)" stroke-width="0.705556"/>
		<line x1="521.471" y1="112.884" x2="440.821" y2="112.884" stroke="rgb(255,0,0)" stroke-width="0.705556"/>
		<line x1="440.821" y1="112.884" x2="440.821" y2="114.384" stroke="rgb(255,0,0)" stroke-width="0.705556"/>
		<line x1="440.821" y1="13.7336" x2="440.821" y2="112.884" stroke="rgb(255,255,0)" stroke-width="0.705556"/>
		<line x1="159.521" y1="13.7336" x2="159.521" y2="13.7336" stroke="rgb(255,0,0)" stroke-width="0.705556"/>
		<line x1="159.521" y1="13.7336" x2="78.8708" y2="13.7336" stroke="rgb(255,0,0)" stroke-width="0.705556"/>
		<line x1="78.8708" y1="13.7336" x2="78.8708" y2="112.884" stroke="rgb(255,0,0)" stroke-width="0.705556"/>
		<line x1="78.8708" y1="112.884" x2="159.521" y2="112.884" stroke="rgb(255,0,0)" stroke-width="0.705556"/>
		<line x1="159.521" y1="112.884" x2="159.521" y2="114.384" stroke="rgb(255,0,0)" stroke-width="0.705556"/>
		<line x1="159.521" y1="13.7336" x2="159.521" y2="112.884" stroke="rgb(255,255,0)" stroke-width="0.705556"/>
	</g>
</svg>