<svg version = "1.1" xmlns = "http://www.w3.org/2000/svg" xmlns:xlink="http://www.w3.org/1999/xlink" width="494.606" height="536.556" viewbox = "0 0 494.606 536.556">
	<g transform="translate(-17.8685,553.574) scale(1,-1) ">
		<line x1="407.121" y1="17.3712" x2="123.221" y2="17.3712" stroke="rgb(255,0,0)" stroke-width="0.705556"/>
		<line x1="407.121" y1="270.621" x2="123.221" y2="270.621" stroke="rgb(255,255,0)" stroke-width="0.705556"/>
		<line x1="121.921" y1="270.621" x2="121.921" y2="250.621" stroke="rgb(255,255,0)" stroke-width="0.705556"/>
		<line x1="121.921" y1="215.988" x2="121.921" y2="122.655" stroke="rgb(255,255,0)" stroke-width="0.705556"/>
		<line x1="121.921" y1="88.0212" x2="121.921" y2="68.0212" stroke="rgb(255,255,0)" stroke-width="0.705556"/>
		<line x1="123.221" y1="68.0212" x2="407.121" y2="68.0212" stroke="rgb(255,255,0)" stroke-width="0.705556"/>
		<line x1="408.421" y1="68.0212" x2="408.421" y2="88.0212" stroke="rgb(255,255,0)" stroke-width="0.705556"/>
		<line x1="408.421" y1="122.655" x2="408.421" y2="215.988" stroke="rgb(255,255,0)" stroke-width="0.705556"/>
		<line x1="408.421" y1="250.621" x2="408.421" y2="270.621" stroke="rgb(255,255,0)" stroke-width="0.705556"/>
		<line x1="123.221" y1="270.621" x2="123.221" y2="270.621" stroke="rgb(255,0,0)" stroke-width="0.705556"/>
		<line x1="407.121" y1="270.621" x2="407.121" y2="270.621" stroke="rgb(255,0,0)" stroke-width="0.705556"/>
		<line x1="407.121" y1="68.0212" x2="407.121" y2="68.0212" stroke="rgb(255,0,0)" stroke-width="0.705556"/>
		<line x1="123.221" y1="68.0212" x2="123.221" y2="68.0212" stroke="rgb(255,0,0)" stroke-width="0.705556"/>
		<line x1="408.421" y1="68.0212" x2="408.421" y2="67.3712" stroke="rgb(255,255,0)" stroke-width="0.705556"/>
		<line x1="121.921" y1="270.621" x2="121.921" y2="271.271" stroke="rgb(255,255,0)" stroke-width="0.705556"/>
		<line x1="408.421" y1="270.621" x2="408.421" y2="271.271" stroke="rgb(255,255,0)" stroke-width="0.705556"/>
		<line x1="121.921" y1="68.0212" x2="121.921" y2="67.3712" stroke="rgb(255,255,0)" stroke-width="0.705556"/>
		<line x1="407.121" y1="321.271" x2="409.071" y2="321.921" stroke="rgb(255,0,0)" stroke-width="0.705556"/>
		<line x1="409.071" y1="321.921" x2="409.071" y2="523.221" stroke="rgb(255,0,0)" stroke-width="0.705556"/>
		<line x1="121.271" y1="523.221" x2="121.271" y2="321.921" stroke="rgb(255,0,0)" stroke-width="0.705556"/>
		<line x1="121.271" y1="321.921" x2="123.221" y2="321.271" stroke="rgb(255,0,0)" stroke-width="0.705556"/>
		<line x1="409.071" y1="321.921" x2="121.271" y2="321.921" stroke="rgb(255,255,0)" stroke-width="0.705556"/>
		<line x1="405.171" y1="523.221" x2="405.171" y2="538.221" stroke="rgb(255,0,0)" stroke-width="0.705556"/>
		<line x1="390.171" y1="553.221" x2="140.171" y2="553.221" stroke="rgb(255,0,0)" stroke-width="0.705556"/>
		<line x1="125.171" y1="538.221" x2="125.171" y2="523.221" stroke="rgb(255,0,0)" stroke-width="0.705556"/>
		<line x1="121.271" y1="523.221" x2="125.171" y2="523.221" stroke="rgb(255,0,0)" stroke-width="0.705556"/>
		<line x1="125.171" y1="523.221" x2="405.171" y2="523.221" stroke="rgb(255,255,0)" stroke-width="0.705556"/>
		<line x1="405.171" y1="523.221" x2="409.071" y2="523.221" stroke="rgb(255,0,0)" stroke-width="0.705556"/>
		<path d="M390.171,553.221 a15 15 0 0 0 15,-15" fill="none" stroke="rgb(255,0,0)" stroke-width="0.705556"/>
		<path d="M140.171,553.221 a15 15 0 0 1 -15,-15" fill="none" stroke="rgb(255,0,0)" stroke-width="0.705556"/>
		<line x1="271.544" y1="105.747" x2="243.929" y2="105.747" stroke="rgb(64,128,128)" stroke-width="0"/>
		<line x1="253.134" y1="114.231" x2="243.929" y2="114.231" stroke="rgb(64,128,128)" stroke-width="0"/>
		<line x1="262.339" y1="109.989" x2="243.929" y2="109.989" stroke="rgb(64,128,128)" stroke-width="0"/>
		<line x1="280.749" y1="101.505" x2="243.929" y2="101.505" stroke="rgb(64,128,128)" stroke-width="0"/>
		<line x1="289.954" y1="97.2632" x2="243.929" y2="97.2632" stroke="rgb(64,128,128)" stroke-width="0"/>
		<line x1="299.159" y1="93.0212" x2="243.929" y2="93.0212" stroke="rgb(64,128,128)" stroke-width="0"/>
		<line x1="243.929" y1="118.473" x2="243.929" y2="93.0212" stroke="rgb(64,128,128)" stroke-width="0"/>
		<line x1="299.159" y1="93.0212" x2="270.841" y2="121.296" stroke="rgb(64,128,128)" stroke-width="0"/>
		<path d="M270.841,121.296 a26.6045 26.6045 0 0 0 -26.9118,-2.82257" fill="none" stroke="rgb(64,128,128)" stroke-width="0"/>
		<line x1="243.929" y1="118.473" x2="299.159" y2="93.0212" stroke="rgb(64,128,128)" stroke-width="0"/>
		<line x1="407.121" y1="321.271" x2="408.421" y2="319.971" stroke="rgb(255,0,0)" stroke-width="0.705556"/>
		<line x1="408.421" y1="319.971" x2="497.771" y2="319.971" stroke="rgb(255,0,0)" stroke-width="0.705556"/>
		<line x1="497.771" y1="319.971" x2="497.771" y2="274.271" stroke="rgb(255,0,0)" stroke-width="0.705556"/>
		<line x1="497.771" y1="274.271" x2="461.321" y2="274.271" stroke="rgb(255,0,0)" stroke-width="0.705556"/>
		<line x1="461.321" y1="274.271" x2="458.321" y2="271.271" stroke="rgb(255,0,0)" stroke-width="0.705556"/>
		<line x1="458.321" y1="271.271" x2="408.421" y2="271.271" stroke="rgb(255,0,0)" stroke-width="0.705556"/>
		<line x1="408.421" y1="271.271" x2="407.121" y2="270.621" stroke="rgb(255,0,0)" stroke-width="0.705556"/>
		<line x1="407.121" y1="321.271" x2="407.121" y2="270.621" stroke="rgb(255,255,0)" stroke-width="0.705556"/>
		<line x1="123.221" y1="321.271" x2="121.921" y2="319.971" stroke="rgb(255,0,0)" stroke-width="0.705556"/>
		<line x1="121.921" y1="319.971" x2="32.5713" y2="319.971" stroke="rgb(255,0,0)" stroke-width="0.705556"/>
		<line x1="32.5713" y1="319.971" x2="32.5713" y2="274.271" stroke="rgb(255,0,0)" stroke-width="0.705556"/>
		<line x1="32.5713" y1="274.271" x2="69.0213" y2="274.271" stroke="rgb(255,0,0)" stroke-width="0.705556"/>
		<line x1="69.0213" y1="274.271" x2="72.0213" y2="271.271" stroke="rgb(255,0,0)" stroke-width="0.705556"/>
		<line x1="72.0213" y1="271.271" x2="121.921" y2="271.271" stroke="rgb(255,0,0)" stroke-width="0.705556"/>
		<line x1="121.921" y1="271.271" x2="123.221" y2="270.621" stroke="rgb(255,0,0)" stroke-width="0.705556"/>
		<line x1="123.221" y1="321.271" x2="123.221" y2="270.621" stroke="rgb(255,255,0)" stroke-width="0.705556"/>
		<line x1="407.121" y1="17.3712" x2="408.421" y2="18.6712" stroke="rgb(255,0,0)" stroke-width="0.705556"/>
		<line x1="408.421" y1="18.6712" x2="497.771" y2="18.6712" stroke="rgb(255,0,0)" stroke-width="0.705556"/>
		<line x1="497.771" y1="18.6712" x2="497.771" y2="64.3712" stroke="rgb(255,0,0)" stroke-width="0.705556"/>
		<line x1="497.771" y1="64.3712" x2="461.321" y2="64.3712" stroke="rgb(255,0,0)" stroke-width="0.705556"/>
		<line x1="461.321" y1="64.3712" x2="458.321" y2="67.3712" stroke="rgb(255,0,0)" stroke-width="0.705556"/>
		<line x1="458.321" y1="67.3712" x2="408.421" y2="67.3712" stroke="rgb(255,0,0)" stroke-width="0.705556"/>
		<line x1="408.421" y1="67.3712" x2="407.121" y2="68.0212" stroke="rgb(255,0,0)" stroke-width="0.705556"/>
		<line x1="407.121" y1="17.3712" x2="407.121" y2="68.0212" stroke="rgb(255,255,0)" stroke-width="0.705556"/>
		<line x1="123.221" y1="17.3712" x2="121.921" y2="18.6712" stroke="rgb(255,0,0)" stroke-width="0.705556"/>
		<line x1="121.921" y1="18.6712" x2="32.5713" y2="18.6712" stroke="rgb(255,0,0)" stroke-width="0.705556"/>
		<line x1="32.5713" y1="18.6712" x2="32.5713" y2="64.3712" stroke="rgb(255,0,0)" stroke-width="0.705556"/>
		<line x1="32.5713" y1="64.3712" x2="69.0213" y2="64.3712" stroke="rgb(255,0,0)" stroke-width="0.705556"/>
		<line x1="69.0213" y1="64.3712" x2="72.0213" y2="67.3712" stroke="rgb(255,0,0)" stroke-width="0.705556"/>
		<line x1="72.0213" y1="67.3712" x2="121.921" y2="67.3712" stroke="rgb(255,0,0)" stroke-width="0.705556"/>
		<line x1="121.921" y1="67.3712" x2="123.221" y2="68.0212" stroke="rgb(255,0,0)" stroke-width="0.705556"/>
		<line x1="123.221" y1="17.3712" x2="123.221" y2="68.0212" stroke="rgb(255,255,0)" stroke-width="0.705556"/>
		<line x1="458.321" y1="271.271" x2="458.321" y2="67.3712" stroke="rgb(255,255,0)" stroke-width="0.705556"/>
		<line x1="458.321" y1="67.3712" x2="460.921" y2="68.6712" stroke="rgb(255,0,0)" stroke-width="0.705556"/>
		<line x1="460.921" y1="269.971" x2="458.321" y2="271.271" stroke="rgb(255,0,0)" stroke-width="0.705556"/>
		<line x1="460.921" y1="269.971" x2="510.171" y2="269.971" stroke="rgb(255,0,0)" stroke-width="0.705556"/>
		<line x1="510.171" y1="269.971" x2="510.171" y2="249.971" stroke="rgb(255,0,0)" stroke-width="0.705556"/>
		<line x1="510.171" y1="216.638" x2="510.171" y2="122.005" stroke="rgb(255,0,0)" stroke-width="0.705556"/>
		<line x1="510.171" y1="88.6712" x2="510.171" y2="68.6712" stroke="rgb(255,0,0)" stroke-width="0.705556"/>
		<line x1="510.171" y1="68.6712" x2="460.921" y2="68.6712" stroke="rgb(255,0,0)" stroke-width="0.705556"/>
		<line x1="460.921" y1="68.6712" x2="460.921" y2="269.971" stroke="rgb(255,255,0)" stroke-width="0.705556"/>
		<line x1="72.0213" y1="67.3712" x2="72.0213" y2="271.271" stroke="rgb(255,255,0)" stroke-width="0.705556"/>
		<line x1="72.0213" y1="271.271" x2="69.4213" y2="269.971" stroke="rgb(255,0,0)" stroke-width="0.705556"/>
		<line x1="69.4213" y1="68.6712" x2="72.0213" y2="67.3712" stroke="rgb(255,0,0)" stroke-width="0.705556"/>
		<line x1="69.4213" y1="68.6712" x2="20.1713" y2="68.6712" stroke="rgb(255,0,0)" stroke-width="0.705556"/>
		<line x1="20.1713" y1="68.6712" x2="20.1713" y2="88.6712" stroke="rgb(255,0,0)" stroke-width="0.705556"/>
		<line x1="20.1713" y1="122.005" x2="20.1713" y2="216.638" stroke="rgb(255,0,0)" stroke-width="0.705556"/>
		<line x1="20.1713" y1="249.971" x2="20.1713" y2="269.971" stroke="rgb(255,0,0)" stroke-width="0.705556"/>
		<line x1="20.1713" y1="269.971" x2="69.4213" y2="269.971" stroke="rgb(255,0,0)" stroke-width="0.705556"/>
		<line x1="69.4213" y1="269.971" x2="69.4213" y2="68.6712" stroke="rgb(255,255,0)" stroke-width="0.705556"/>
		<line x1="20.1713" y1="88.6712" x2="18.2213" y2="90.6712" stroke="rgb(255,0,0)" stroke-width="0.705556"/>
		<line x1="18.2213" y1="90.6712" x2="18.2213" y2="120.005" stroke="rgb(255,0,0)" stroke-width="0.705556"/>
		<line x1="18.2213" y1="120.005" x2="20.1713" y2="122.005" stroke="rgb(255,0,0)" stroke-width="0.705556"/>
		<line x1="20.1713" y1="216.638" x2="18.2213" y2="218.638" stroke="rgb(255,0,0)" stroke-width="0.705556"/>
		<line x1="18.2213" y1="218.638" x2="18.2213" y2="247.971" stroke="rgb(255,0,0)" stroke-width="0.705556"/>
		<line x1="18.2213" y1="247.971" x2="20.1713" y2="249.971" stroke="rgb(255,0,0)" stroke-width="0.705556"/>
		<line x1="20.1713" y1="216.638" x2="18.2213" y2="218.638" stroke="rgb(255,0,0)" stroke-width="0.705556"/>
		<line x1="18.2213" y1="218.638" x2="18.2213" y2="247.971" stroke="rgb(255,0,0)" stroke-width="0.705556"/>
		<line x1="18.2213" y1="247.971" x2="20.1713" y2="249.971" stroke="rgb(255,0,0)" stroke-width="0.705556"/>
		<line x1="20.1713" y1="216.638" x2="18.2213" y2="218.638" stroke="rgb(255,0,0)" stroke-width="0.705556"/>
		<line x1="18.2213" y1="218.638" x2="18.2213" y2="247.971" stroke="rgb(255,0,0)" stroke-width="0.705556"/>
		<line x1="18.2213" y1="247.971" x2="20.1713" y2="249.971" stroke="rgb(255,0,0)" stroke-width="0.705556"/>
		<line x1="20.1713" y1="216.638" x2="18.2213" y2="218.638" stroke="rgb(255,0,0)" stroke-width="0.705556"/>
		<line x1="18.2213" y1="218.638" x2="18.2213" y2="247.971" stroke="rgb(255,0,0)" stroke-width="0.705556"/>
		<line x1="18.2213" y1="247.971" x2="20.1713" y2="249.971" stroke="rgb(255,0,0)" stroke-width="0.705556"/>
		<line x1="20.1713" y1="216.638" x2="18.2213" y2="218.638" stroke="rgb(255,0,0)" stroke-width="0.705556"/>
		<line x1="18.2213" y1="218.638" x2="18.2213" y2="247.971" stroke="rgb(255,0,0)" stroke-width="0.705556"/>
		<line x1="18.2213" y1="247.971" x2="20.1713" y2="249.971" stroke="rgb(255,0,0)" stroke-width="0.705556"/>
		<line x1="20.1713" y1="216.638" x2="18.2213" y2="218.638" stroke="rgb(255,0,0)" stroke-width="0.705556"/>
		<line x1="18.2213" y1="218.638" x2="18.2213" y2="247.971" stroke="rgb(255,0,0)" stroke-width="0.705556"/>
		<line x1="18.2213" y1="247.971" x2="20.1713" y2="249.971" stroke="rgb(255,0,0)" stroke-width="0.705556"/>
		<line x1="20.1713" y1="216.638" x2="18.2213" y2="218.638" stroke="rgb(255,0,0)" stroke-width="0.705556"/>
		<line x1="18.2213" y1="218.638" x2="18.2213" y2="247.971" stroke="rgb(255,0,0)" stroke-width="0.705556"/>
		<line x1="18.2213" y1="247.971" x2="20.1713" y2="249.971" stroke="rgb(255,0,0)" stroke-width="0.705556"/>
		<line x1="20.1713" y1="216.638" x2="18.2213" y2="218.638" stroke="rgb(255,0,0)" stroke-width="0.705556"/>
		<line x1="18.2213" y1="218.638" x2="18.2213" y2="247.971" stroke="rgb(255,0,0)" stroke-width="0.705556"/>
		<line x1="18.2213" y1="247.971" x2="20.1713" y2="249.971" stroke="rgb(255,0,0)" stroke-width="0.705556"/>
		<line x1="20.1713" y1="216.638" x2="18.2213" y2="218.638" stroke="rgb(255,0,0)" stroke-width="0.705556"/>
		<line x1="18.2213" y1="218.638" x2="18.2213" y2="247.971" stroke="rgb(255,0,0)" stroke-width="0.705556"/>
		<line x1="18.2213" y1="247.971" x2="20.1713" y2="249.971" stroke="rgb(255,0,0)" stroke-width="0.705556"/>
		<line x1="20.1713" y1="216.638" x2="18.2213" y2="218.638" stroke="rgb(255,0,0)" stroke-width="0.705556"/>
		<line x1="18.2213" y1="218.638" x2="18.2213" y2="247.971" stroke="rgb(255,0,0)" stroke-width="0.705556"/>
		<line x1="18.2213" y1="247.971" x2="20.1713" y2="249.971" stroke="rgb(255,0,0)" stroke-width="0.705556"/>
		<line x1="20.1713" y1="216.638" x2="18.2213" y2="218.638" stroke="rgb(255,0,0)" stroke-width="0.705556"/>
		<line x1="18.2213" y1="218.638" x2="18.2213" y2="247.971" stroke="rgb(255,0,0)" stroke-width="0.705556"/>
		<line x1="18.2213" y1="247.971" x2="20.1713" y2="249.971" stroke="rgb(255,0,0)" stroke-width="0.705556"/>
		<line x1="20.1713" y1="216.638" x2="18.2213" y2="218.638" stroke="rgb(255,0,0)" stroke-width="0.705556"/>
		<line x1="18.2213" y1="218.638" x2="18.2213" y2="247.971" stroke="rgb(255,0,0)" stroke-width="0.705556"/>
		<line x1="18.2213" y1="247.971" x2="20.1713" y2="249.971" stroke="rgb(255,0,0)" stroke-width="0.705556"/>
		<line x1="20.1713" y1="216.638" x2="18.2213" y2="218.638" stroke="rgb(255,0,0)" stroke-width="0.705556"/>
		<line x1="18.2213" y1="218.638" x2="18.2213" y2="247.971" stroke="rgb(255,0,0)" stroke-width="0.705556"/>
		<line x1="18.2213" y1="247.971" x2="20.1713" y2="249.971" stroke="rgb(255,0,0)" stroke-width="0.705556"/>
		<line x1="20.1713" y1="216.638" x2="18.2213" y2="218.638" stroke="rgb(255,0,0)" stroke-width="0.705556"/>
		<line x1="18.2213" y1="218.638" x2="18.2213" y2="247.971" stroke="rgb(255,0,0)" stroke-width="0.705556"/>
		<line x1="18.2213" y1="247.971" x2="20.1713" y2="249.971" stroke="rgb(255,0,0)" stroke-width="0.705556"/>
		<line x1="20.1713" y1="216.638" x2="18.2213" y2="218.638" stroke="rgb(255,0,0)" stroke-width="0.705556"/>
		<line x1="18.2213" y1="218.638" x2="18.2213" y2="247.971" stroke="rgb(255,0,0)" stroke-width="0.705556"/>
		<line x1="18.2213" y1="247.971" x2="20.1713" y2="249.971" stroke="rgb(255,0,0)" stroke-width="0.705556"/>
		<line x1="20.1713" y1="216.638" x2="18.2213" y2="218.638" stroke="rgb(255,0,0)" stroke-width="0.705556"/>
		<line x1="18.2213" y1="218.638" x2="18.2213" y2="247.971" stroke="rgb(255,0,0)" stroke-width="0.705556"/>
		<line x1="18.2213" y1="247.971" x2="20.1713" y2="249.971" stroke="rgb(255,0,0)" stroke-width="0.705556"/>
		<line x1="20.1713" y1="216.638" x2="18.2213" y2="218.638" stroke="rgb(255,0,0)" stroke-width="0.705556"/>
		<line x1="18.2213" y1="218.638" x2="18.2213" y2="247.971" stroke="rgb(255,0,0)" stroke-width="0.705556"/>
		<line x1="18.2213" y1="247.971" x2="20.1713" y2="249.971" stroke="rgb(255,0,0)" stroke-width="0.705556"/>
		<line x1="20.1713" y1="216.638" x2="18.2213" y2="218.638" stroke="rgb(255,0,0)" stroke-width="0.705556"/>
		<line x1="18.2213" y1="218.638" x2="18.2213" y2="247.971" stroke="rgb(255,0,0)" stroke-width="0.705556"/>
		<line x1="18.2213" y1="247.971" x2="20.1713" y2="249.971" stroke="rgb(255,0,0)" stroke-width="0.705556"/>
		<line x1="125.171" y1="88.0212" x2="125.171" y2="88.0212" stroke="rgb(255,0,0)" stroke-width="0.705556"/>
		<line x1="125.171" y1="122.655" x2="125.171" y2="122.655" stroke="rgb(255,0,0)" stroke-width="0.705556"/>
		<line x1="125.171" y1="215.988" x2="121.921" y2="215.988" stroke="rgb(255,0,0)" stroke-width="0.705556"/>
		<line x1="121.921" y1="215.988" x2="121.921" y2="250.621" stroke="rgb(255,0,0)" stroke-width="0.705556"/>
		<line x1="121.921" y1="250.621" x2="125.171" y2="250.621" stroke="rgb(255,0,0)" stroke-width="0.705556"/>
		<line x1="125.171" y1="250.621" x2="125.171" y2="215.988" stroke="rgb(255,0,0)" stroke-width="0.705556"/>
		<line x1="125.171" y1="215.988" x2="125.171" y2="215.988" stroke="rgb(255,0,0)" stroke-width="0.705556"/>
		<line x1="125.171" y1="250.621" x2="125.171" y2="250.621" stroke="rgb(255,0,0)" stroke-width="0.705556"/>
		<line x1="125.171" y1="88.0212" x2="125.171" y2="88.0212" stroke="rgb(255,0,0)" stroke-width="0.705556"/>
		<line x1="125.171" y1="122.655" x2="125.171" y2="122.655" stroke="rgb(255,0,0)" stroke-width="0.705556"/>
		<line x1="125.171" y1="88.0212" x2="125.171" y2="88.0212" stroke="rgb(255,0,0)" stroke-width="0.705556"/>
		<line x1="125.171" y1="122.655" x2="125.171" y2="122.655" stroke="rgb(255,0,0)" stroke-width="0.705556"/>
		<line x1="125.171" y1="88.0212" x2="125.171" y2="88.0212" stroke="rgb(255,0,0)" stroke-width="0.705556"/>
		<line x1="125.171" y1="122.655" x2="125.171" y2="122.655" stroke="rgb(255,0,0)" stroke-width="0.705556"/>
		<line x1="125.171" y1="88.0212" x2="125.171" y2="88.0212" stroke="rgb(255,0,0)" stroke-width="0.705556"/>
		<line x1="125.171" y1="122.655" x2="125.171" y2="122.655" stroke="rgb(255,0,0)" stroke-width="0.705556"/>
		<line x1="125.171" y1="88.0212" x2="125.171" y2="88.0212" stroke="rgb(255,0,0)" stroke-width="0.705556"/>
		<line x1="125.171" y1="122.655" x2="125.171" y2="122.655" stroke="rgb(255,0,0)" stroke-width="0.705556"/>
		<line x1="125.171" y1="88.0212" x2="125.171" y2="88.0212" stroke="rgb(255,0,0)" stroke-width="0.705556"/>
		<line x1="125.171" y1="122.655" x2="125.171" y2="122.655" stroke="rgb(255,0,0)" stroke-width="0.705556"/>
		<line x1="125.171" y1="88.0212" x2="125.171" y2="88.0212" stroke="rgb(255,0,0)" stroke-width="0.705556"/>
		<line x1="125.171" y1="122.655" x2="125.171" y2="122.655" stroke="rgb(255,0,0)" stroke-width="0.705556"/>
		<line x1="125.171" y1="88.0212" x2="125.171" y2="88.0212" stroke="rgb(255,0,0)" stroke-width="0.705556"/>
		<line x1="125.171" y1="122.655" x2="125.171" y2="122.655" stroke="rgb(255,0,0)" stroke-width="0.705556"/>
		<line x1="125.171" y1="88.0212" x2="125.171" y2="88.0212" stroke="rgb(255,0,0)" stroke-width="0.705556"/>
		<line x1="125.171" y1="122.655" x2="125.171" y2="122.655" stroke="rgb(255,0,0)" stroke-width="0.705556"/>
		<line x1="125.171" y1="88.0212" x2="125.171" y2="88.0212" stroke="rgb(255,0,0)" stroke-width="0.705556"/>
		<line x1="125.171" y1="122.655" x2="125.171" y2="122.655" stroke="rgb(255,0,0)" stroke-width="0.705556"/>
		<line x1="125.171" y1="88.0212" x2="125.171" y2="88.0212" stroke="rgb(255,0,0)" stroke-width="0.705556"/>
		<line x1="125.171" y1="122.655" x2="125.171" y2="122.655" stroke="rgb(255,0,0)" stroke-width="0.705556"/>
		<line x1="125.171" y1="88.0212" x2="125.171" y2="88.0212" stroke="rgb(255,0,0)" stroke-width="0.705556"/>
		<line x1="125.171" y1="122.655" x2="125.171" y2="122.655" stroke="rgb(255,0,0)" stroke-width="0.705556"/>
		<line x1="125.171" y1="88.0212" x2="125.171" y2="88.0212" stroke="rgb(255,0,0)" stroke-width="0.705556"/>
		<line x1="125.171" y1="122.655" x2="125.171" y2="122.655" stroke="rgb(255,0,0)" stroke-width="0.705556"/>
		<line x1="125.171" y1="88.0212" x2="125.171" y2="88.0212" stroke="rgb(255,0,0)" stroke-width="0.705556"/>
		<line x1="125.171" y1="122.655" x2="125.171" y2="122.655" stroke="rgb(255,0,0)" stroke-width="0.705556"/>
		<line x1="125.171" y1="88.0212" x2="125.171" y2="88.0212" stroke="rgb(255,0,0)" stroke-width="0.705556"/>
		<line x1="125.171" y1="122.655" x2="125.171" y2="122.655" stroke="rgb(255,0,0)" stroke-width="0.705556"/>
		<line x1="125.171" y1="88.0212" x2="125.171" y2="88.0212" stroke="rgb(255,0,0)" stroke-width="0.705556"/>
		<line x1="125.171" y1="122.655" x2="125.171" y2="122.655" stroke="rgb(255,0,0)" stroke-width="0.705556"/>
		<line x1="125.171" y1="88.0212" x2="121.921" y2="88.0212" stroke="rgb(255,0,0)" stroke-width="0.705556"/>
		<line x1="121.921" y1="88.0212" x2="121.921" y2="122.655" stroke="rgb(255,0,0)" stroke-width="0.705556"/>
		<line x1="121.921" y1="122.655" x2="125.171" y2="122.655" stroke="rgb(255,0,0)" stroke-width="0.705556"/>
		<line x1="125.171" y1="122.655" x2="125.171" y2="88.0212" stroke="rgb(255,0,0)" stroke-width="0.705556"/>
		<line x1="125.171" y1="88.0212" x2="125.171" y2="88.0212" stroke="rgb(255,0,0)" stroke-width="0.705556"/>
		<line x1="125.171" y1="122.655" x2="125.171" y2="122.655" stroke="rgb(255,0,0)" stroke-width="0.705556"/>
		<line x1="510.171" y1="249.971" x2="512.121" y2="247.971" stroke="rgb(255,0,0)" stroke-width="0.705556"/>
		<line x1="512.121" y1="247.971" x2="512.121" y2="218.638" stroke="rgb(255,0,0)" stroke-width="0.705556"/>
		<line x1="512.121" y1="218.638" x2="510.171" y2="216.638" stroke="rgb(255,0,0)" stroke-width="0.705556"/>
		<line x1="510.171" y1="122.005" x2="512.121" y2="120.005" stroke="rgb(255,0,0)" stroke-width="0.705556"/>
		<line x1="512.121" y1="120.005" x2="512.121" y2="90.6712" stroke="rgb(255,0,0)" stroke-width="0.705556"/>
		<line x1="512.121" y1="90.6712" x2="510.171" y2="88.6712" stroke="rgb(255,0,0)" stroke-width="0.705556"/>
		<line x1="510.171" y1="122.005" x2="512.121" y2="120.005" stroke="rgb(255,0,0)" stroke-width="0.705556"/>
		<line x1="512.121" y1="120.005" x2="512.121" y2="90.6712" stroke="rgb(255,0,0)" stroke-width="0.705556"/>
		<line x1="512.121" y1="90.6712" x2="510.171" y2="88.6712" stroke="rgb(255,0,0)" stroke-width="0.705556"/>
		<line x1="510.171" y1="122.005" x2="512.121" y2="120.005" stroke="rgb(255,0,0)" stroke-width="0.705556"/>
		<line x1="512.121" y1="120.005" x2="512.121" y2="90.6712" stroke="rgb(255,0,0)" stroke-width="0.705556"/>
		<line x1="512.121" y1="90.6712" x2="510.171" y2="88.6712" stroke="rgb(255,0,0)" stroke-width="0.705556"/>
		<line x1="510.171" y1="122.005" x2="512.121" y2="120.005" stroke="rgb(255,0,0)" stroke-width="0.705556"/>
		<line x1="512.121" y1="120.005" x2="512.121" y2="90.6712" stroke="rgb(255,0,0)" stroke-width="0.705556"/>
		<line x1="512.121" y1="90.6712" x2="510.171" y2="88.6712" stroke="rgb(255,0,0)" stroke-width="0.705556"/>
		<line x1="510.171" y1="122.005" x2="512.121" y2="120.005" stroke="rgb(255,0,0)" stroke-width="0.705556"/>
		<line x1="512.121" y1="120.005" x2="512.121" y2="90.6712" stroke="rgb(255,0,0)" stroke-width="0.705556"/>
		<line x1="512.121" y1="90.6712" x2="510.171" y2="88.6712" stroke="rgb(255,0,0)" stroke-width="0.705556"/>
		<line x1="510.171" y1="122.005" x2="512.121" y2="120.005" stroke="rgb(255,0,0)" stroke-width="0.705556"/>
		<line x1="512.121" y1="120.005" x2="512.121" y2="90.6712" stroke="rgb(255,0,0)" stroke-width="0.705556"/>
		<line x1="512.121" y1="90.6712" x2="510.171" y2="88.6712" stroke="rgb(255,0,0)" stroke-width="0.705556"/>
		<line x1="510.171" y1="122.005" x2="512.121" y2="120.005" stroke="rgb(255,0,0)" stroke-width="0.705556"/>
		<line x1="512.121" y1="120.005" x2="512.121" y2="90.6712" stroke="rgb(255,0,0)" stroke-width="0.705556"/>
		<line x1="512.121" y1="90.6712" x2="510.171" y2="88.6712" stroke="rgb(255,0,0)" stroke-width="0.705556"/>
		<line x1="510.171" y1="122.005" x2="512.121" y2="120.005" stroke="rgb(255,0,0)" stroke-width="0.705556"/>
		<line x1="512.121" y1="120.005" x2="512.121" y2="90.6712" stroke="rgb(255,0,0)" stroke-width="0.705556"/>
		<line x1="512.121" y1="90.6712" x2="510.171" y2="88.6712" stroke="rgb(255,0,0)" stroke-width="0.705556"/>
		<line x1="510.171" y1="122.005" x2="512.121" y2="120.005" stroke="rgb(255,0,0)" stroke-width="0.705556"/>
		<line x1="512.121" y1="120.005" x2="512.121" y2="90.6712" stroke="rgb(255,0,0)" stroke-width="0.705556"/>
		<line x1="512.121" y1="90.6712" x2="510.171" y2="88.6712" stroke="rgb(255,0,0)" stroke-width="0.705556"/>
		<line x1="510.171" y1="122.005" x2="512.121" y2="120.005" stroke="rgb(255,0,0)" stroke-width="0.705556"/>
		<line x1="512.121" y1="120.005" x2="512.121" y2="90.6712" stroke="rgb(255,0,0)" stroke-width="0.705556"/>
		<line x1="512.121" y1="90.6712" x2="510.171" y2="88.6712" stroke="rgb(255,0,0)" stroke-width="0.705556"/>
		<line x1="510.171" y1="122.005" x2="512.121" y2="120.005" stroke="rgb(255,0,0)" stroke-width="0.705556"/>
		<line x1="512.121" y1="120.005" x2="512.121" y2="90.6712" stroke="rgb(255,0,0)" stroke-width="0.705556"/>
		<line x1="512.121" y1="90.6712" x2="510.171" y2="88.6712" stroke="rgb(255,0,0)" stroke-width="0.705556"/>
		<line x1="510.171" y1="122.005" x2="512.121" y2="120.005" stroke="rgb(255,0,0)" stroke-width="0.705556"/>
		<line x1="512.121" y1="120.005" x2="512.121" y2="90.6712" stroke="rgb(255,0,0)" stroke-width="0.705556"/>
		<line x1="512.121" y1="90.6712" x2="510.171" y2="88.6712" stroke="rgb(255,0,0)" stroke-width="0.705556"/>
		<line x1="510.171" y1="122.005" x2="512.121" y2="120.005" stroke="rgb(255,0,0)" stroke-width="0.705556"/>
		<line x1="512.121" y1="120.005" x2="512.121" y2="90.6712" stroke="rgb(255,0,0)" stroke-width="0.705556"/>
		<line x1="512.121" y1="90.6712" x2="510.171" y2="88.6712" stroke="rgb(255,0,0)" stroke-width="0.705556"/>
		<line x1="510.171" y1="122.005" x2="512.121" y2="120.005" stroke="rgb(255,0,0)" stroke-width="0.705556"/>
		<line x1="512.121" y1="120.005" x2="512.121" y2="90.6712" stroke="rgb(255,0,0)" stroke-width="0.705556"/>
		<line x1="512.121" y1="90.6712" x2="510.171" y2="88.6712" stroke="rgb(255,0,0)" stroke-width="0.705556"/>
		<line x1="510.171" y1="122.005" x2="512.121" y2="120.005" stroke="rgb(255,0,0)" stroke-width="0.705556"/>
		<line x1="512.121" y1="120.005" x2="512.121" y2="90.6712" stroke="rgb(255,0,0)" stroke-width="0.705556"/>
		<line x1="512.121" y1="90.6712" x2="510.171" y2="88.6712" stroke="rgb(255,0,0)" stroke-width="0.705556"/>
		<line x1="510.171" y1="122.005" x2="512.121" y2="120.005" stroke="rgb(255,0,0)" stroke-width="0.705556"/>
		<line x1="512.121" y1="120.005" x2="512.121" y2="90.6712" stroke="rgb(255,0,0)" stroke-width="0.705556"/>
		<line x1="512.121" y1="90.6712" x2="510.171" y2="88.6712" stroke="rgb(255,0,0)" stroke-width="0.705556"/>
		<line x1="510.171" y1="122.005" x2="512.121" y2="120.005" stroke="rgb(255,0,0)" stroke-width="0.705556"/>
		<line x1="512.121" y1="120.005" x2="512.121" y2="90.6712" stroke="rgb(255,0,0)" stroke-width="0.705556"/>
		<line x1="512.121" y1="90.6712" x2="510.171" y2="88.6712" stroke="rgb(255,0,0)" stroke-width="0.705556"/>
		<line x1="510.171" y1="122.005" x2="512.121" y2="120.005" stroke="rgb(255,0,0)" stroke-width="0.705556"/>
		<line x1="512.121" y1="120.005" x2="512.121" y2="90.6712" stroke="rgb(255,0,0)" stroke-width="0.705556"/>
		<line x1="512.121" y1="90.6712" x2="510.171" y2="88.6712" stroke="rgb(255,0,0)" stroke-width="0.705556"/>
		<line x1="405.171" y1="250.621" x2="405.171" y2="250.621" stroke="rgb(255,0,0)" stroke-width="0.705556"/>
		<line x1="405.171" y1="215.988" x2="405.171" y2="215.988" stroke="rgb(255,0,0)" stroke-width="0.705556"/>
		<line x1="405.171" y1="122.655" x2="408.421" y2="122.655" stroke="rgb(255,0,0)" stroke-width="0.705556"/>
		<line x1="408.421" y1="122.655" x2="408.421" y2="88.0212" stroke="rgb(255,0,0)" stroke-width="0.705556"/>
		<line x1="408.421" y1="88.0212" x2="405.171" y2="88.0212" stroke="rgb(255,0,0)" stroke-width="0.705556"/>
		<line x1="405.171" y1="88.0212" x2="405.171" y2="122.655" stroke="rgb(255,0,0)" stroke-width="0.705556"/>
		<line x1="405.171" y1="122.655" x2="405.171" y2="122.655" stroke="rgb(255,0,0)" stroke-width="0.705556"/>
		<line x1="405.171" y1="88.0212" x2="405.171" y2="88.0212" stroke="rgb(255,0,0)" stroke-width="0.705556"/>
		<line x1="405.171" y1="250.621" x2="405.171" y2="250.621" stroke="rgb(255,0,0)" stroke-width="0.705556"/>
		<line x1="405.171" y1="215.988" x2="405.171" y2="215.988" stroke="rgb(255,0,0)" stroke-width="0.705556"/>
		<line x1="405.171" y1="250.621" x2="405.171" y2="250.621" stroke="rgb(255,0,0)" stroke-width="0.705556"/>
		<line x1="405.171" y1="215.988" x2="405.171" y2="215.988" stroke="rgb(255,0,0)" stroke-width="0.705556"/>
		<line x1="405.171" y1="250.621" x2="405.171" y2="250.621" stroke="rgb(255,0,0)" stroke-width="0.705556"/>
		<line x1="405.171" y1="215.988" x2="405.171" y2="215.988" stroke="rgb(255,0,0)" stroke-width="0.705556"/>
		<line x1="405.171" y1="250.621" x2="405.171" y2="250.621" stroke="rgb(255,0,0)" stroke-width="0.705556"/>
		<line x1="405.171" y1="215.988" x2="405.171" y2="215.988" stroke="rgb(255,0,0)" stroke-width="0.705556"/>
		<line x1="405.171" y1="250.621" x2="405.171" y2="250.621" stroke="rgb(255,0,0)" stroke-width="0.705556"/>
		<line x1="405.171" y1="215.988" x2="405.171" y2="215.988" stroke="rgb(255,0,0)" stroke-width="0.705556"/>
		<line x1="405.171" y1="250.621" x2="405.171" y2="250.621" stroke="rgb(255,0,0)" stroke-width="0.705556"/>
		<line x1="405.171" y1="215.988" x2="405.171" y2="215.988" stroke="rgb(255,0,0)" stroke-width="0.705556"/>
		<line x1="405.171" y1="250.621" x2="405.171" y2="250.621" stroke="rgb(255,0,0)" stroke-width="0.705556"/>
		<line x1="405.171" y1="215.988" x2="405.171" y2="215.988" stroke="rgb(255,0,0)" stroke-width="0.705556"/>
		<line x1="405.171" y1="250.621" x2="405.171" y2="250.621" stroke="rgb(255,0,0)" stroke-width="0.705556"/>
		<line x1="405.171" y1="215.988" x2="405.171" y2="215.988" stroke="rgb(255,0,0)" stroke-width="0.705556"/>
		<line x1="405.171" y1="250.621" x2="405.171" y2="250.621" stroke="rgb(255,0,0)" stroke-width="0.705556"/>
		<line x1="405.171" y1="215.988" x2="405.171" y2="215.988" stroke="rgb(255,0,0)" stroke-width="0.705556"/>
		<line x1="405.171" y1="250.621" x2="405.171" y2="250.621" stroke="rgb(255,0,0)" stroke-width="0.705556"/>
		<line x1="405.171" y1="215.988" x2="405.171" y2="215.988" stroke="rgb(255,0,0)" stroke-width="0.705556"/>
		<line x1="405.171" y1="250.621" x2="405.171" y2="250.621" stroke="rgb(255,0,0)" stroke-width="0.705556"/>
		<line x1="405.171" y1="215.988" x2="405.171" y2="215.988" stroke="rgb(255,0,0)" stroke-width="0.705556"/>
		<line x1="405.171" y1="250.621" x2="405.171" y2="250.621" stroke="rgb(255,0,0)" stroke-width="0.705556"/>
		<line x1="405.171" y1="215.988" x2="405.171" y2="215.988" stroke="rgb(255,0,0)" stroke-width="0.705556"/>
		<line x1="405.171" y1="250.621" x2="405.171" y2="250.621" stroke="rgb(255,0,0)" stroke-width="0.705556"/>
		<line x1="405.171" y1="215.988" x2="405.171" y2="215.988" stroke="rgb(255,0,0)" stroke-width="0.705556"/>
		<line x1="405.171" y1="250.621" x2="405.171" y2="250.621" stroke="rgb(255,0,0)" stroke-width="0.705556"/>
		<line x1="405.171" y1="215.988" x2="405.171" y2="215.988" stroke="rgb(255,0,0)" stroke-width="0.705556"/>
		<line x1="405.171" y1="250.621" x2="405.171" y2="250.621" stroke="rgb(255,0,0)" stroke-width="0.705556"/>
		<line x1="405.171" y1="215.988" x2="405.171" y2="215.988" stroke="rgb(255,0,0)" stroke-width="0.705556"/>
		<line x1="405.171" y1="250.621" x2="405.171" y2="250.621" stroke="rgb(255,0,0)" stroke-width="0.705556"/>
		<line x1="405.171" y1="215.988" x2="405.171" y2="215.988" stroke="rgb(255,0,0)" stroke-width="0.705556"/>
		<line x1="405.171" y1="250.621" x2="408.421" y2="250.621" stroke="rgb(255,0,0)" stroke-width="0.705556"/>
		<line x1="408.421" y1="250.621" x2="408.421" y2="215.988" stroke="rgb(255,0,0)" stroke-width="0.705556"/>
		<line x1="408.421" y1="215.988" x2="405.171" y2="215.988" stroke="rgb(255,0,0)" stroke-width="0.705556"/>
		<line x1="405.171" y1="215.988" x2="405.171" y2="250.621" stroke="rgb(255,0,0)" stroke-width="0.705556"/>
		<line x1="405.171" y1="250.621" x2="405.171" y2="250.621" stroke="rgb(255,0,0)" stroke-width="0.705556"/>
		<line x1="405.171" y1="215.988" x2="405.171" y2="215.988" stroke="rgb(255,0,0)" stroke-width="0.705556"/>
	</g>
</svg>