<svg version = "1.1" xmlns = "http://www.w3.org/2000/svg" xmlns:xlink="http://www.w3.org/1999/xlink" width="485.906" height="615.606" viewbox = "0 0 485.906 615.606">
	<g transform="translate(0.278314,618.347) scale(1,-1) ">
		<line x1="485.274" y1="412.494" x2="485.274" y2="208.594" stroke="rgb(255,0,0)" stroke-width="0.705556"/>
		<line x1="0.0744642" y1="412.494" x2="0.0744642" y2="208.594" stroke="rgb(255,0,0)" stroke-width="0.705556"/>
		<line x1="384.624" y1="413.794" x2="356.324" y2="413.794" stroke="rgb(255,255,0)" stroke-width="0.705556"/>
		<line x1="307.658" y1="413.794" x2="177.691" y2="413.794" stroke="rgb(255,255,0)" stroke-width="0.705556"/>
		<line x1="129.024" y1="413.794" x2="100.724" y2="413.794" stroke="rgb(255,255,0)" stroke-width="0.705556"/>
		<line x1="100.724" y1="412.494" x2="100.724" y2="208.594" stroke="rgb(255,255,0)" stroke-width="0.705556"/>
		<line x1="100.724" y1="207.294" x2="129.024" y2="207.294" stroke="rgb(255,255,0)" stroke-width="0.705556"/>
		<line x1="177.691" y1="207.294" x2="307.658" y2="207.294" stroke="rgb(255,255,0)" stroke-width="0.705556"/>
		<line x1="356.324" y1="207.294" x2="384.624" y2="207.294" stroke="rgb(255,255,0)" stroke-width="0.705556"/>
		<line x1="384.624" y1="208.594" x2="384.624" y2="412.494" stroke="rgb(255,255,0)" stroke-width="0.705556"/>
		<line x1="100.724" y1="412.494" x2="100.724" y2="412.494" stroke="rgb(255,0,0)" stroke-width="0.705556"/>
		<line x1="384.624" y1="412.494" x2="384.624" y2="412.494" stroke="rgb(255,0,0)" stroke-width="0.705556"/>
		<line x1="384.624" y1="208.594" x2="384.624" y2="208.594" stroke="rgb(255,0,0)" stroke-width="0.705556"/>
		<line x1="100.724" y1="208.594" x2="100.724" y2="208.594" stroke="rgb(255,0,0)" stroke-width="0.705556"/>
		<line x1="384.624" y1="413.794" x2="385.274" y2="413.794" stroke="rgb(255,255,0)" stroke-width="0.705556"/>
		<line x1="100.724" y1="207.294" x2="100.074" y2="207.294" stroke="rgb(255,255,0)" stroke-width="0.705556"/>
		<line x1="100.724" y1="413.794" x2="100.074" y2="413.794" stroke="rgb(255,255,0)" stroke-width="0.705556"/>
		<line x1="384.624" y1="207.294" x2="385.274" y2="207.294" stroke="rgb(255,255,0)" stroke-width="0.705556"/>
		<line x1="100.074" y1="513.944" x2="385.274" y2="513.944" stroke="rgb(255,255,0)" stroke-width="0.705556"/>
		<line x1="102.024" y1="516.544" x2="102.024" y2="516.544" stroke="rgb(255,0,0)" stroke-width="0.705556"/>
		<line x1="102.024" y1="616.044" x2="130.024" y2="616.044" stroke="rgb(255,0,0)" stroke-width="0.705556"/>
		<line x1="176.691" y1="616.044" x2="308.658" y2="616.044" stroke="rgb(255,0,0)" stroke-width="0.705556"/>
		<line x1="355.324" y1="616.044" x2="383.324" y2="616.044" stroke="rgb(255,0,0)" stroke-width="0.705556"/>
		<line x1="383.324" y1="516.544" x2="383.324" y2="516.544" stroke="rgb(255,0,0)" stroke-width="0.705556"/>
		<line x1="102.024" y1="516.544" x2="383.324" y2="516.544" stroke="rgb(255,255,0)" stroke-width="0.705556"/>
		<line x1="100.074" y1="107.144" x2="385.274" y2="107.144" stroke="rgb(255,255,0)" stroke-width="0.705556"/>
		<line x1="102.024" y1="104.544" x2="102.024" y2="104.544" stroke="rgb(255,0,0)" stroke-width="0.705556"/>
		<line x1="102.024" y1="5.04381" x2="130.024" y2="5.04381" stroke="rgb(255,0,0)" stroke-width="0.705556"/>
		<line x1="176.691" y1="5.04381" x2="308.658" y2="5.04381" stroke="rgb(255,0,0)" stroke-width="0.705556"/>
		<line x1="355.324" y1="5.04381" x2="383.324" y2="5.04381" stroke="rgb(255,0,0)" stroke-width="0.705556"/>
		<line x1="383.324" y1="104.544" x2="383.324" y2="104.544" stroke="rgb(255,0,0)" stroke-width="0.705556"/>
		<line x1="102.024" y1="104.544" x2="383.324" y2="104.544" stroke="rgb(255,255,0)" stroke-width="0.705556"/>
		<line x1="383.324" y1="616.044" x2="483.974" y2="616.044" stroke="rgb(255,0,0)" stroke-width="0.705556"/>
		<line x1="483.974" y1="616.044" x2="483.974" y2="516.544" stroke="rgb(255,0,0)" stroke-width="0.705556"/>
		<line x1="383.324" y1="516.544" x2="383.324" y2="616.044" stroke="rgb(255,255,0)" stroke-width="0.705556"/>
		<line x1="1.37446" y1="516.544" x2="1.37446" y2="616.044" stroke="rgb(255,0,0)" stroke-width="0.705556"/>
		<line x1="1.37446" y1="616.044" x2="102.024" y2="616.044" stroke="rgb(255,0,0)" stroke-width="0.705556"/>
		<line x1="102.024" y1="616.044" x2="102.024" y2="516.544" stroke="rgb(255,255,0)" stroke-width="0.705556"/>
		<line x1="102.024" y1="5.04381" x2="1.37446" y2="5.04381" stroke="rgb(255,0,0)" stroke-width="0.705556"/>
		<line x1="1.37446" y1="5.04381" x2="1.37446" y2="104.544" stroke="rgb(255,0,0)" stroke-width="0.705556"/>
		<line x1="102.024" y1="104.544" x2="102.024" y2="5.04381" stroke="rgb(255,255,0)" stroke-width="0.705556"/>
		<line x1="483.974" y1="104.544" x2="483.974" y2="5.04381" stroke="rgb(255,0,0)" stroke-width="0.705556"/>
		<line x1="483.974" y1="5.04381" x2="383.324" y2="5.04381" stroke="rgb(255,0,0)" stroke-width="0.705556"/>
		<line x1="383.324" y1="5.04381" x2="383.324" y2="104.544" stroke="rgb(255,255,0)" stroke-width="0.705556"/>
		<line x1="242.674" y1="261.209" x2="242.674" y2="233.594" stroke="rgb(64,128,128)" stroke-width="0"/>
		<line x1="251.158" y1="242.799" x2="251.158" y2="233.594" stroke="rgb(64,128,128)" stroke-width="0"/>
		<line x1="246.916" y1="252.004" x2="246.916" y2="233.594" stroke="rgb(64,128,128)" stroke-width="0"/>
		<line x1="238.432" y1="270.414" x2="238.432" y2="233.594" stroke="rgb(64,128,128)" stroke-width="0"/>
		<line x1="234.19" y1="279.618" x2="234.19" y2="233.594" stroke="rgb(64,128,128)" stroke-width="0"/>
		<line x1="229.948" y1="288.823" x2="229.948" y2="233.594" stroke="rgb(64,128,128)" stroke-width="0"/>
		<line x1="255.4" y1="233.594" x2="229.948" y2="233.594" stroke="rgb(64,128,128)" stroke-width="0"/>
		<line x1="229.948" y1="288.823" x2="258.223" y2="260.506" stroke="rgb(64,128,128)" stroke-width="0"/>
		<path d="M258.223,260.506 a26.6045 26.6045 0 0 1 -2.82257,-26.9118" fill="none" stroke="rgb(64,128,128)" stroke-width="0"/>
		<line x1="255.4" y1="233.594" x2="229.948" y2="288.823" stroke="rgb(64,128,128)" stroke-width="0"/>
		<line x1="485.274" y1="412.494" x2="483.974" y2="413.794" stroke="rgb(255,0,0)" stroke-width="0.705556"/>
		<line x1="483.974" y1="413.794" x2="483.974" y2="513.944" stroke="rgb(255,0,0)" stroke-width="0.705556"/>
		<line x1="385.274" y1="513.944" x2="385.274" y2="413.794" stroke="rgb(255,0,0)" stroke-width="0.705556"/>
		<line x1="385.274" y1="413.794" x2="384.624" y2="412.494" stroke="rgb(255,0,0)" stroke-width="0.705556"/>
		<line x1="485.274" y1="412.494" x2="384.624" y2="412.494" stroke="rgb(255,255,0)" stroke-width="0.705556"/>
		<line x1="485.274" y1="208.594" x2="483.974" y2="207.294" stroke="rgb(255,0,0)" stroke-width="0.705556"/>
		<line x1="483.974" y1="207.294" x2="483.974" y2="107.144" stroke="rgb(255,0,0)" stroke-width="0.705556"/>
		<line x1="385.274" y1="107.144" x2="385.274" y2="207.294" stroke="rgb(255,0,0)" stroke-width="0.705556"/>
		<line x1="385.274" y1="207.294" x2="384.624" y2="208.594" stroke="rgb(255,0,0)" stroke-width="0.705556"/>
		<line x1="485.274" y1="208.594" x2="384.624" y2="208.594" stroke="rgb(255,255,0)" stroke-width="0.705556"/>
		<line x1="0.0744642" y1="412.494" x2="1.37446" y2="413.794" stroke="rgb(255,0,0)" stroke-width="0.705556"/>
		<line x1="1.37446" y1="413.794" x2="1.37446" y2="513.944" stroke="rgb(255,0,0)" stroke-width="0.705556"/>
		<line x1="100.074" y1="513.944" x2="100.074" y2="413.794" stroke="rgb(255,0,0)" stroke-width="0.705556"/>
		<line x1="100.074" y1="413.794" x2="100.724" y2="412.494" stroke="rgb(255,0,0)" stroke-width="0.705556"/>
		<line x1="0.0744642" y1="412.494" x2="100.724" y2="412.494" stroke="rgb(255,255,0)" stroke-width="0.705556"/>
		<line x1="0.0744642" y1="208.594" x2="1.37446" y2="207.294" stroke="rgb(255,0,0)" stroke-width="0.705556"/>
		<line x1="1.37446" y1="207.294" x2="1.37446" y2="107.144" stroke="rgb(255,0,0)" stroke-width="0.705556"/>
		<line x1="100.074" y1="107.144" x2="100.074" y2="207.294" stroke="rgb(255,0,0)" stroke-width="0.705556"/>
		<line x1="100.074" y1="207.294" x2="100.724" y2="208.594" stroke="rgb(255,0,0)" stroke-width="0.705556"/>
		<line x1="0.0744642" y1="208.594" x2="100.724" y2="208.594" stroke="rgb(255,255,0)" stroke-width="0.705556"/>
		<line x1="385.274" y1="513.944" x2="383.324" y2="516.544" stroke="rgb(255,0,0)" stroke-width="0.705556"/>
		<line x1="383.324" y1="516.544" x2="483.974" y2="516.544" stroke="rgb(255,0,0)" stroke-width="0.705556"/>
		<line x1="483.974" y1="516.544" x2="483.974" y2="513.944" stroke="rgb(255,0,0)" stroke-width="0.705556"/>
		<line x1="385.274" y1="107.144" x2="383.324" y2="104.544" stroke="rgb(255,0,0)" stroke-width="0.705556"/>
		<line x1="383.324" y1="104.544" x2="483.974" y2="104.544" stroke="rgb(255,0,0)" stroke-width="0.705556"/>
		<line x1="483.974" y1="104.544" x2="483.974" y2="107.144" stroke="rgb(255,0,0)" stroke-width="0.705556"/>
		<line x1="100.074" y1="107.144" x2="102.024" y2="104.544" stroke="rgb(255,0,0)" stroke-width="0.705556"/>
		<line x1="102.024" y1="104.544" x2="1.37446" y2="104.544" stroke="rgb(255,0,0)" stroke-width="0.705556"/>
		<line x1="1.37446" y1="104.544" x2="1.37446" y2="107.144" stroke="rgb(255,0,0)" stroke-width="0.705556"/>
		<line x1="100.074" y1="513.944" x2="102.024" y2="516.544" stroke="rgb(255,0,0)" stroke-width="0.705556"/>
		<line x1="102.024" y1="516.544" x2="1.37446" y2="516.544" stroke="rgb(255,0,0)" stroke-width="0.705556"/>
		<line x1="1.37446" y1="516.544" x2="1.37446" y2="513.944" stroke="rgb(255,0,0)" stroke-width="0.705556"/>
		<line x1="355.324" y1="5.04381" x2="353.324" y2="3.09381" stroke="rgb(255,0,0)" stroke-width="0.705556"/>
		<line x1="353.324" y1="3.09381" x2="310.658" y2="3.09381" stroke="rgb(255,0,0)" stroke-width="0.705556"/>
		<line x1="310.658" y1="3.09381" x2="308.658" y2="5.04381" stroke="rgb(255,0,0)" stroke-width="0.705556"/>
		<line x1="176.691" y1="5.04381" x2="174.691" y2="3.09381" stroke="rgb(255,0,0)" stroke-width="0.705556"/>
		<line x1="174.691" y1="3.09381" x2="132.024" y2="3.09381" stroke="rgb(255,0,0)" stroke-width="0.705556"/>
		<line x1="132.024" y1="3.09381" x2="130.024" y2="5.04381" stroke="rgb(255,0,0)" stroke-width="0.705556"/>
		<line x1="176.691" y1="5.04381" x2="174.691" y2="3.09381" stroke="rgb(255,0,0)" stroke-width="0.705556"/>
		<line x1="174.691" y1="3.09381" x2="132.024" y2="3.09381" stroke="rgb(255,0,0)" stroke-width="0.705556"/>
		<line x1="132.024" y1="3.09381" x2="130.024" y2="5.04381" stroke="rgb(255,0,0)" stroke-width="0.705556"/>
		<line x1="176.691" y1="5.04381" x2="174.691" y2="3.09381" stroke="rgb(255,0,0)" stroke-width="0.705556"/>
		<line x1="174.691" y1="3.09381" x2="132.024" y2="3.09381" stroke="rgb(255,0,0)" stroke-width="0.705556"/>
		<line x1="132.024" y1="3.09381" x2="130.024" y2="5.04381" stroke="rgb(255,0,0)" stroke-width="0.705556"/>
		<line x1="176.691" y1="5.04381" x2="174.691" y2="3.09381" stroke="rgb(255,0,0)" stroke-width="0.705556"/>
		<line x1="174.691" y1="3.09381" x2="132.024" y2="3.09381" stroke="rgb(255,0,0)" stroke-width="0.705556"/>
		<line x1="132.024" y1="3.09381" x2="130.024" y2="5.04381" stroke="rgb(255,0,0)" stroke-width="0.705556"/>
		<line x1="176.691" y1="5.04381" x2="174.691" y2="3.09381" stroke="rgb(255,0,0)" stroke-width="0.705556"/>
		<line x1="174.691" y1="3.09381" x2="132.024" y2="3.09381" stroke="rgb(255,0,0)" stroke-width="0.705556"/>
		<line x1="132.024" y1="3.09381" x2="130.024" y2="5.04381" stroke="rgb(255,0,0)" stroke-width="0.705556"/>
		<line x1="176.691" y1="5.04381" x2="174.691" y2="3.09381" stroke="rgb(255,0,0)" stroke-width="0.705556"/>
		<line x1="174.691" y1="3.09381" x2="132.024" y2="3.09381" stroke="rgb(255,0,0)" stroke-width="0.705556"/>
		<line x1="132.024" y1="3.09381" x2="130.024" y2="5.04381" stroke="rgb(255,0,0)" stroke-width="0.705556"/>
		<line x1="176.691" y1="5.04381" x2="174.691" y2="3.09381" stroke="rgb(255,0,0)" stroke-width="0.705556"/>
		<line x1="174.691" y1="3.09381" x2="132.024" y2="3.09381" stroke="rgb(255,0,0)" stroke-width="0.705556"/>
		<line x1="132.024" y1="3.09381" x2="130.024" y2="5.04381" stroke="rgb(255,0,0)" stroke-width="0.705556"/>
		<line x1="176.691" y1="5.04381" x2="174.691" y2="3.09381" stroke="rgb(255,0,0)" stroke-width="0.705556"/>
		<line x1="174.691" y1="3.09381" x2="132.024" y2="3.09381" stroke="rgb(255,0,0)" stroke-width="0.705556"/>
		<line x1="132.024" y1="3.09381" x2="130.024" y2="5.04381" stroke="rgb(255,0,0)" stroke-width="0.705556"/>
		<line x1="176.691" y1="5.04381" x2="174.691" y2="3.09381" stroke="rgb(255,0,0)" stroke-width="0.705556"/>
		<line x1="174.691" y1="3.09381" x2="132.024" y2="3.09381" stroke="rgb(255,0,0)" stroke-width="0.705556"/>
		<line x1="132.024" y1="3.09381" x2="130.024" y2="5.04381" stroke="rgb(255,0,0)" stroke-width="0.705556"/>
		<line x1="176.691" y1="5.04381" x2="174.691" y2="3.09381" stroke="rgb(255,0,0)" stroke-width="0.705556"/>
		<line x1="174.691" y1="3.09381" x2="132.024" y2="3.09381" stroke="rgb(255,0,0)" stroke-width="0.705556"/>
		<line x1="132.024" y1="3.09381" x2="130.024" y2="5.04381" stroke="rgb(255,0,0)" stroke-width="0.705556"/>
		<line x1="176.691" y1="5.04381" x2="174.691" y2="3.09381" stroke="rgb(255,0,0)" stroke-width="0.705556"/>
		<line x1="174.691" y1="3.09381" x2="132.024" y2="3.09381" stroke="rgb(255,0,0)" stroke-width="0.705556"/>
		<line x1="132.024" y1="3.09381" x2="130.024" y2="5.04381" stroke="rgb(255,0,0)" stroke-width="0.705556"/>
		<line x1="176.691" y1="5.04381" x2="174.691" y2="3.09381" stroke="rgb(255,0,0)" stroke-width="0.705556"/>
		<line x1="174.691" y1="3.09381" x2="132.024" y2="3.09381" stroke="rgb(255,0,0)" stroke-width="0.705556"/>
		<line x1="132.024" y1="3.09381" x2="130.024" y2="5.04381" stroke="rgb(255,0,0)" stroke-width="0.705556"/>
		<line x1="176.691" y1="5.04381" x2="174.691" y2="3.09381" stroke="rgb(255,0,0)" stroke-width="0.705556"/>
		<line x1="174.691" y1="3.09381" x2="132.024" y2="3.09381" stroke="rgb(255,0,0)" stroke-width="0.705556"/>
		<line x1="132.024" y1="3.09381" x2="130.024" y2="5.04381" stroke="rgb(255,0,0)" stroke-width="0.705556"/>
		<line x1="176.691" y1="5.04381" x2="174.691" y2="3.09381" stroke="rgb(255,0,0)" stroke-width="0.705556"/>
		<line x1="174.691" y1="3.09381" x2="132.024" y2="3.09381" stroke="rgb(255,0,0)" stroke-width="0.705556"/>
		<line x1="132.024" y1="3.09381" x2="130.024" y2="5.04381" stroke="rgb(255,0,0)" stroke-width="0.705556"/>
		<line x1="176.691" y1="5.04381" x2="174.691" y2="3.09381" stroke="rgb(255,0,0)" stroke-width="0.705556"/>
		<line x1="174.691" y1="3.09381" x2="132.024" y2="3.09381" stroke="rgb(255,0,0)" stroke-width="0.705556"/>
		<line x1="132.024" y1="3.09381" x2="130.024" y2="5.04381" stroke="rgb(255,0,0)" stroke-width="0.705556"/>
		<line x1="176.691" y1="5.04381" x2="174.691" y2="3.09381" stroke="rgb(255,0,0)" stroke-width="0.705556"/>
		<line x1="174.691" y1="3.09381" x2="132.024" y2="3.09381" stroke="rgb(255,0,0)" stroke-width="0.705556"/>
		<line x1="132.024" y1="3.09381" x2="130.024" y2="5.04381" stroke="rgb(255,0,0)" stroke-width="0.705556"/>
		<line x1="176.691" y1="5.04381" x2="174.691" y2="3.09381" stroke="rgb(255,0,0)" stroke-width="0.705556"/>
		<line x1="174.691" y1="3.09381" x2="132.024" y2="3.09381" stroke="rgb(255,0,0)" stroke-width="0.705556"/>
		<line x1="132.024" y1="3.09381" x2="130.024" y2="5.04381" stroke="rgb(255,0,0)" stroke-width="0.705556"/>
		<line x1="176.691" y1="5.04381" x2="174.691" y2="3.09381" stroke="rgb(255,0,0)" stroke-width="0.705556"/>
		<line x1="174.691" y1="3.09381" x2="132.024" y2="3.09381" stroke="rgb(255,0,0)" stroke-width="0.705556"/>
		<line x1="132.024" y1="3.09381" x2="130.024" y2="5.04381" stroke="rgb(255,0,0)" stroke-width="0.705556"/>
		<line x1="356.324" y1="210.544" x2="356.324" y2="210.544" stroke="rgb(255,0,0)" stroke-width="0.705556"/>
		<line x1="307.658" y1="210.544" x2="307.658" y2="210.544" stroke="rgb(255,0,0)" stroke-width="0.705556"/>
		<line x1="177.691" y1="210.544" x2="177.691" y2="207.294" stroke="rgb(255,0,0)" stroke-width="0.705556"/>
		<line x1="177.691" y1="207.294" x2="129.024" y2="207.294" stroke="rgb(255,0,0)" stroke-width="0.705556"/>
		<line x1="129.024" y1="207.294" x2="129.024" y2="210.544" stroke="rgb(255,0,0)" stroke-width="0.705556"/>
		<line x1="129.024" y1="210.544" x2="177.691" y2="210.544" stroke="rgb(255,0,0)" stroke-width="0.705556"/>
		<line x1="177.691" y1="210.544" x2="177.691" y2="210.544" stroke="rgb(255,0,0)" stroke-width="0.705556"/>
		<line x1="129.024" y1="210.544" x2="129.024" y2="210.544" stroke="rgb(255,0,0)" stroke-width="0.705556"/>
		<line x1="356.324" y1="210.544" x2="356.324" y2="210.544" stroke="rgb(255,0,0)" stroke-width="0.705556"/>
		<line x1="307.658" y1="210.544" x2="307.658" y2="210.544" stroke="rgb(255,0,0)" stroke-width="0.705556"/>
		<line x1="356.324" y1="210.544" x2="356.324" y2="210.544" stroke="rgb(255,0,0)" stroke-width="0.705556"/>
		<line x1="307.658" y1="210.544" x2="307.658" y2="210.544" stroke="rgb(255,0,0)" stroke-width="0.705556"/>
		<line x1="356.324" y1="210.544" x2="356.324" y2="210.544" stroke="rgb(255,0,0)" stroke-width="0.705556"/>
		<line x1="307.658" y1="210.544" x2="307.658" y2="210.544" stroke="rgb(255,0,0)" stroke-width="0.705556"/>
		<line x1="356.324" y1="210.544" x2="356.324" y2="210.544" stroke="rgb(255,0,0)" stroke-width="0.705556"/>
		<line x1="307.658" y1="210.544" x2="307.658" y2="210.544" stroke="rgb(255,0,0)" stroke-width="0.705556"/>
		<line x1="356.324" y1="210.544" x2="356.324" y2="210.544" stroke="rgb(255,0,0)" stroke-width="0.705556"/>
		<line x1="307.658" y1="210.544" x2="307.658" y2="210.544" stroke="rgb(255,0,0)" stroke-width="0.705556"/>
		<line x1="356.324" y1="210.544" x2="356.324" y2="210.544" stroke="rgb(255,0,0)" stroke-width="0.705556"/>
		<line x1="307.658" y1="210.544" x2="307.658" y2="210.544" stroke="rgb(255,0,0)" stroke-width="0.705556"/>
		<line x1="356.324" y1="210.544" x2="356.324" y2="210.544" stroke="rgb(255,0,0)" stroke-width="0.705556"/>
		<line x1="307.658" y1="210.544" x2="307.658" y2="210.544" stroke="rgb(255,0,0)" stroke-width="0.705556"/>
		<line x1="356.324" y1="210.544" x2="356.324" y2="210.544" stroke="rgb(255,0,0)" stroke-width="0.705556"/>
		<line x1="307.658" y1="210.544" x2="307.658" y2="210.544" stroke="rgb(255,0,0)" stroke-width="0.705556"/>
		<line x1="356.324" y1="210.544" x2="356.324" y2="210.544" stroke="rgb(255,0,0)" stroke-width="0.705556"/>
		<line x1="307.658" y1="210.544" x2="307.658" y2="210.544" stroke="rgb(255,0,0)" stroke-width="0.705556"/>
		<line x1="356.324" y1="210.544" x2="356.324" y2="210.544" stroke="rgb(255,0,0)" stroke-width="0.705556"/>
		<line x1="307.658" y1="210.544" x2="307.658" y2="210.544" stroke="rgb(255,0,0)" stroke-width="0.705556"/>
		<line x1="356.324" y1="210.544" x2="356.324" y2="210.544" stroke="rgb(255,0,0)" stroke-width="0.705556"/>
		<line x1="307.658" y1="210.544" x2="307.658" y2="210.544" stroke="rgb(255,0,0)" stroke-width="0.705556"/>
		<line x1="356.324" y1="210.544" x2="356.324" y2="210.544" stroke="rgb(255,0,0)" stroke-width="0.705556"/>
		<line x1="307.658" y1="210.544" x2="307.658" y2="210.544" stroke="rgb(255,0,0)" stroke-width="0.705556"/>
		<line x1="356.324" y1="210.544" x2="356.324" y2="210.544" stroke="rgb(255,0,0)" stroke-width="0.705556"/>
		<line x1="307.658" y1="210.544" x2="307.658" y2="210.544" stroke="rgb(255,0,0)" stroke-width="0.705556"/>
		<line x1="356.324" y1="210.544" x2="356.324" y2="210.544" stroke="rgb(255,0,0)" stroke-width="0.705556"/>
		<line x1="307.658" y1="210.544" x2="307.658" y2="210.544" stroke="rgb(255,0,0)" stroke-width="0.705556"/>
		<line x1="356.324" y1="210.544" x2="356.324" y2="210.544" stroke="rgb(255,0,0)" stroke-width="0.705556"/>
		<line x1="307.658" y1="210.544" x2="307.658" y2="210.544" stroke="rgb(255,0,0)" stroke-width="0.705556"/>
		<line x1="356.324" y1="210.544" x2="356.324" y2="210.544" stroke="rgb(255,0,0)" stroke-width="0.705556"/>
		<line x1="307.658" y1="210.544" x2="307.658" y2="210.544" stroke="rgb(255,0,0)" stroke-width="0.705556"/>
		<line x1="356.324" y1="210.544" x2="356.324" y2="207.294" stroke="rgb(255,0,0)" stroke-width="0.705556"/>
		<line x1="356.324" y1="207.294" x2="307.658" y2="207.294" stroke="rgb(255,0,0)" stroke-width="0.705556"/>
		<line x1="307.658" y1="207.294" x2="307.658" y2="210.544" stroke="rgb(255,0,0)" stroke-width="0.705556"/>
		<line x1="307.658" y1="210.544" x2="356.324" y2="210.544" stroke="rgb(255,0,0)" stroke-width="0.705556"/>
		<line x1="356.324" y1="210.544" x2="356.324" y2="210.544" stroke="rgb(255,0,0)" stroke-width="0.705556"/>
		<line x1="307.658" y1="210.544" x2="307.658" y2="210.544" stroke="rgb(255,0,0)" stroke-width="0.705556"/>
		<line x1="130.024" y1="616.044" x2="132.024" y2="617.994" stroke="rgb(255,0,0)" stroke-width="0.705556"/>
		<line x1="132.024" y1="617.994" x2="174.691" y2="617.994" stroke="rgb(255,0,0)" stroke-width="0.705556"/>
		<line x1="174.691" y1="617.994" x2="176.691" y2="616.044" stroke="rgb(255,0,0)" stroke-width="0.705556"/>
		<line x1="308.658" y1="616.044" x2="310.658" y2="617.994" stroke="rgb(255,0,0)" stroke-width="0.705556"/>
		<line x1="310.658" y1="617.994" x2="353.324" y2="617.994" stroke="rgb(255,0,0)" stroke-width="0.705556"/>
		<line x1="353.324" y1="617.994" x2="355.324" y2="616.044" stroke="rgb(255,0,0)" stroke-width="0.705556"/>
		<line x1="308.658" y1="616.044" x2="310.658" y2="617.994" stroke="rgb(255,0,0)" stroke-width="0.705556"/>
		<line x1="310.658" y1="617.994" x2="353.324" y2="617.994" stroke="rgb(255,0,0)" stroke-width="0.705556"/>
		<line x1="353.324" y1="617.994" x2="355.324" y2="616.044" stroke="rgb(255,0,0)" stroke-width="0.705556"/>
		<line x1="308.658" y1="616.044" x2="310.658" y2="617.994" stroke="rgb(255,0,0)" stroke-width="0.705556"/>
		<line x1="310.658" y1="617.994" x2="353.324" y2="617.994" stroke="rgb(255,0,0)" stroke-width="0.705556"/>
		<line x1="353.324" y1="617.994" x2="355.324" y2="616.044" stroke="rgb(255,0,0)" stroke-width="0.705556"/>
		<line x1="308.658" y1="616.044" x2="310.658" y2="617.994" stroke="rgb(255,0,0)" stroke-width="0.705556"/>
		<line x1="310.658" y1="617.994" x2="353.324" y2="617.994" stroke="rgb(255,0,0)" stroke-width="0.705556"/>
		<line x1="353.324" y1="617.994" x2="355.324" y2="616.044" stroke="rgb(255,0,0)" stroke-width="0.705556"/>
		<line x1="308.658" y1="616.044" x2="310.658" y2="617.994" stroke="rgb(255,0,0)" stroke-width="0.705556"/>
		<line x1="310.658" y1="617.994" x2="353.324" y2="617.994" stroke="rgb(255,0,0)" stroke-width="0.705556"/>
		<line x1="353.324" y1="617.994" x2="355.324" y2="616.044" stroke="rgb(255,0,0)" stroke-width="0.705556"/>
		<line x1="308.658" y1="616.044" x2="310.658" y2="617.994" stroke="rgb(255,0,0)" stroke-width="0.705556"/>
		<line x1="310.658" y1="617.994" x2="353.324" y2="617.994" stroke="rgb(255,0,0)" stroke-width="0.705556"/>
		<line x1="353.324" y1="617.994" x2="355.324" y2="616.044" stroke="rgb(255,0,0)" stroke-width="0.705556"/>
		<line x1="308.658" y1="616.044" x2="310.658" y2="617.994" stroke="rgb(255,0,0)" stroke-width="0.705556"/>
		<line x1="310.658" y1="617.994" x2="353.324" y2="617.994" stroke="rgb(255,0,0)" stroke-width="0.705556"/>
		<line x1="353.324" y1="617.994" x2="355.324" y2="616.044" stroke="rgb(255,0,0)" stroke-width="0.705556"/>
		<line x1="308.658" y1="616.044" x2="310.658" y2="617.994" stroke="rgb(255,0,0)" stroke-width="0.705556"/>
		<line x1="310.658" y1="617.994" x2="353.324" y2="617.994" stroke="rgb(255,0,0)" stroke-width="0.705556"/>
		<line x1="353.324" y1="617.994" x2="355.324" y2="616.044" stroke="rgb(255,0,0)" stroke-width="0.705556"/>
		<line x1="308.658" y1="616.044" x2="310.658" y2="617.994" stroke="rgb(255,0,0)" stroke-width="0.705556"/>
		<line x1="310.658" y1="617.994" x2="353.324" y2="617.994" stroke="rgb(255,0,0)" stroke-width="0.705556"/>
		<line x1="353.324" y1="617.994" x2="355.324" y2="616.044" stroke="rgb(255,0,0)" stroke-width="0.705556"/>
		<line x1="308.658" y1="616.044" x2="310.658" y2="617.994" stroke="rgb(255,0,0)" stroke-width="0.705556"/>
		<line x1="310.658" y1="617.994" x2="353.324" y2="617.994" stroke="rgb(255,0,0)" stroke-width="0.705556"/>
		<line x1="353.324" y1="617.994" x2="355.324" y2="616.044" stroke="rgb(255,0,0)" stroke-width="0.705556"/>
		<line x1="308.658" y1="616.044" x2="310.658" y2="617.994" stroke="rgb(255,0,0)" stroke-width="0.705556"/>
		<line x1="310.658" y1="617.994" x2="353.324" y2="617.994" stroke="rgb(255,0,0)" stroke-width="0.705556"/>
		<line x1="353.324" y1="617.994" x2="355.324" y2="616.044" stroke="rgb(255,0,0)" stroke-width="0.705556"/>
		<line x1="308.658" y1="616.044" x2="310.658" y2="617.994" stroke="rgb(255,0,0)" stroke-width="0.705556"/>
		<line x1="310.658" y1="617.994" x2="353.324" y2="617.994" stroke="rgb(255,0,0)" stroke-width="0.705556"/>
		<line x1="353.324" y1="617.994" x2="355.324" y2="616.044" stroke="rgb(255,0,0)" stroke-width="0.705556"/>
		<line x1="308.658" y1="616.044" x2="310.658" y2="617.994" stroke="rgb(255,0,0)" stroke-width="0.705556"/>
		<line x1="310.658" y1="617.994" x2="353.324" y2="617.994" stroke="rgb(255,0,0)" stroke-width="0.705556"/>
		<line x1="353.324" y1="617.994" x2="355.324" y2="616.044" stroke="rgb(255,0,0)" stroke-width="0.705556"/>
		<line x1="308.658" y1="616.044" x2="310.658" y2="617.994" stroke="rgb(255,0,0)" stroke-width="0.705556"/>
		<line x1="310.658" y1="617.994" x2="353.324" y2="617.994" stroke="rgb(255,0,0)" stroke-width="0.705556"/>
		<line x1="353.324" y1="617.994" x2="355.324" y2="616.044" stroke="rgb(255,0,0)" stroke-width="0.705556"/>
		<line x1="308.658" y1="616.044" x2="310.658" y2="617.994" stroke="rgb(255,0,0)" stroke-width="0.705556"/>
		<line x1="310.658" y1="617.994" x2="353.324" y2="617.994" stroke="rgb(255,0,0)" stroke-width="0.705556"/>
		<line x1="353.324" y1="617.994" x2="355.324" y2="616.044" stroke="rgb(255,0,0)" stroke-width="0.705556"/>
		<line x1="308.658" y1="616.044" x2="310.658" y2="617.994" stroke="rgb(255,0,0)" stroke-width="0.705556"/>
		<line x1="310.658" y1="617.994" x2="353.324" y2="617.994" stroke="rgb(255,0,0)" stroke-width="0.705556"/>
		<line x1="353.324" y1="617.994" x2="355.324" y2="616.044" stroke="rgb(255,0,0)" stroke-width="0.705556"/>
		<line x1="308.658" y1="616.044" x2="310.658" y2="617.994" stroke="rgb(255,0,0)" stroke-width="0.705556"/>
		<line x1="310.658" y1="617.994" x2="353.324" y2="617.994" stroke="rgb(255,0,0)" stroke-width="0.705556"/>
		<line x1="353.324" y1="617.994" x2="355.324" y2="616.044" stroke="rgb(255,0,0)" stroke-width="0.705556"/>
		<line x1="308.658" y1="616.044" x2="310.658" y2="617.994" stroke="rgb(255,0,0)" stroke-width="0.705556"/>
		<line x1="310.658" y1="617.994" x2="353.324" y2="617.994" stroke="rgb(255,0,0)" stroke-width="0.705556"/>
		<line x1="353.324" y1="617.994" x2="355.324" y2="616.044" stroke="rgb(255,0,0)" stroke-width="0.705556"/>
		<line x1="129.024" y1="410.544" x2="129.024" y2="410.544" stroke="rgb(255,0,0)" stroke-width="0.705556"/>
		<line x1="177.691" y1="410.544" x2="177.691" y2="410.544" stroke="rgb(255,0,0)" stroke-width="0.705556"/>
		<line x1="307.658" y1="410.544" x2="307.658" y2="413.794" stroke="rgb(255,0,0)" stroke-width="0.705556"/>
		<line x1="307.658" y1="413.794" x2="356.324" y2="413.794" stroke="rgb(255,0,0)" stroke-width="0.705556"/>
		<line x1="356.324" y1="413.794" x2="356.324" y2="410.544" stroke="rgb(255,0,0)" stroke-width="0.705556"/>
		<line x1="356.324" y1="410.544" x2="307.658" y2="410.544" stroke="rgb(255,0,0)" stroke-width="0.705556"/>
		<line x1="307.658" y1="410.544" x2="307.658" y2="410.544" stroke="rgb(255,0,0)" stroke-width="0.705556"/>
		<line x1="356.324" y1="410.544" x2="356.324" y2="410.544" stroke="rgb(255,0,0)" stroke-width="0.705556"/>
		<line x1="129.024" y1="410.544" x2="129.024" y2="410.544" stroke="rgb(255,0,0)" stroke-width="0.705556"/>
		<line x1="177.691" y1="410.544" x2="177.691" y2="410.544" stroke="rgb(255,0,0)" stroke-width="0.705556"/>
		<line x1="129.024" y1="410.544" x2="129.024" y2="410.544" stroke="rgb(255,0,0)" stroke-width="0.705556"/>
		<line x1="177.691" y1="410.544" x2="177.691" y2="410.544" stroke="rgb(255,0,0)" stroke-width="0.705556"/>
		<line x1="129.024" y1="410.544" x2="129.024" y2="410.544" stroke="rgb(255,0,0)" stroke-width="0.705556"/>
		<line x1="177.691" y1="410.544" x2="177.691" y2="410.544" stroke="rgb(255,0,0)" stroke-width="0.705556"/>
		<line x1="129.024" y1="410.544" x2="129.024" y2="410.544" stroke="rgb(255,0,0)" stroke-width="0.705556"/>
		<line x1="177.691" y1="410.544" x2="177.691" y2="410.544" stroke="rgb(255,0,0)" stroke-width="0.705556"/>
		<line x1="129.024" y1="410.544" x2="129.024" y2="410.544" stroke="rgb(255,0,0)" stroke-width="0.705556"/>
		<line x1="177.691" y1="410.544" x2="177.691" y2="410.544" stroke="rgb(255,0,0)" stroke-width="0.705556"/>
		<line x1="129.024" y1="410.544" x2="129.024" y2="410.544" stroke="rgb(255,0,0)" stroke-width="0.705556"/>
		<line x1="177.691" y1="410.544" x2="177.691" y2="410.544" stroke="rgb(255,0,0)" stroke-width="0.705556"/>
		<line x1="129.024" y1="410.544" x2="129.024" y2="410.544" stroke="rgb(255,0,0)" stroke-width="0.705556"/>
		<line x1="177.691" y1="410.544" x2="177.691" y2="410.544" stroke="rgb(255,0,0)" stroke-width="0.705556"/>
		<line x1="129.024" y1="410.544" x2="129.024" y2="410.544" stroke="rgb(255,0,0)" stroke-width="0.705556"/>
		<line x1="177.691" y1="410.544" x2="177.691" y2="410.544" stroke="rgb(255,0,0)" stroke-width="0.705556"/>
		<line x1="129.024" y1="410.544" x2="129.024" y2="410.544" stroke="rgb(255,0,0)" stroke-width="0.705556"/>
		<line x1="177.691" y1="410.544" x2="177.691" y2="410.544" stroke="rgb(255,0,0)" stroke-width="0.705556"/>
		<line x1="129.024" y1="410.544" x2="129.024" y2="410.544" stroke="rgb(255,0,0)" stroke-width="0.705556"/>
		<line x1="177.691" y1="410.544" x2="177.691" y2="410.544" stroke="rgb(255,0,0)" stroke-width="0.705556"/>
		<line x1="129.024" y1="410.544" x2="129.024" y2="410.544" stroke="rgb(255,0,0)" stroke-width="0.705556"/>
		<line x1="177.691" y1="410.544" x2="177.691" y2="410.544" stroke="rgb(255,0,0)" stroke-width="0.705556"/>
		<line x1="129.024" y1="410.544" x2="129.024" y2="410.544" stroke="rgb(255,0,0)" stroke-width="0.705556"/>
		<line x1="177.691" y1="410.544" x2="177.691" y2="410.544" stroke="rgb(255,0,0)" stroke-width="0.705556"/>
		<line x1="129.024" y1="410.544" x2="129.024" y2="410.544" stroke="rgb(255,0,0)" stroke-width="0.705556"/>
		<line x1="177.691" y1="410.544" x2="177.691" y2="410.544" stroke="rgb(255,0,0)" stroke-width="0.705556"/>
		<line x1="129.024" y1="410.544" x2="129.024" y2="410.544" stroke="rgb(255,0,0)" stroke-width="0.705556"/>
		<line x1="177.691" y1="410.544" x2="177.691" y2="410.544" stroke="rgb(255,0,0)" stroke-width="0.705556"/>
		<line x1="129.024" y1="410.544" x2="129.024" y2="410.544" stroke="rgb(255,0,0)" stroke-width="0.705556"/>
		<line x1="177.691" y1="410.544" x2="177.691" y2="410.544" stroke="rgb(255,0,0)" stroke-width="0.705556"/>
		<line x1="129.024" y1="410.544" x2="129.024" y2="410.544" stroke="rgb(255,0,0)" stroke-width="0.705556"/>
		<line x1="177.691" y1="410.544" x2="177.691" y2="410.544" stroke="rgb(255,0,0)" stroke-width="0.705556"/>
		<line x1="129.024" y1="410.544" x2="129.024" y2="413.794" stroke="rgb(255,0,0)" stroke-width="0.705556"/>
		<line x1="129.024" y1="413.794" x2="177.691" y2="413.794" stroke="rgb(255,0,0)" stroke-width="0.705556"/>
		<line x1="177.691" y1="413.794" x2="177.691" y2="410.544" stroke="rgb(255,0,0)" stroke-width="0.705556"/>
		<line x1="177.691" y1="410.544" x2="129.024" y2="410.544" stroke="rgb(255,0,0)" stroke-width="0.705556"/>
		<line x1="129.024" y1="410.544" x2="129.024" y2="410.544" stroke="rgb(255,0,0)" stroke-width="0.705556"/>
		<line x1="177.691" y1="410.544" x2="177.691" y2="410.544" stroke="rgb(255,0,0)" stroke-width="0.705556"/>
	</g>
</svg>