<svg version = "1.1" xmlns = "http://www.w3.org/2000/svg" xmlns:xlink="http://www.w3.org/1999/xlink" width="465.906" height="774.656" viewbox = "0 0 465.906 774.656">
	<g transform="translate(-28.6589,801.511) scale(1,-1) ">
		<line x1="121.162" y1="417.909" x2="121.162" y2="509.209" stroke="rgb(255,0,0)" stroke-width="0.705556"/>
		<line x1="402.062" y1="509.209" x2="402.062" y2="417.909" stroke="rgb(255,0,0)" stroke-width="0.705556"/>
		<line x1="494.212" y1="416.609" x2="494.212" y2="212.709" stroke="rgb(255,0,0)" stroke-width="0.705556"/>
		<line x1="402.062" y1="211.409" x2="402.062" y2="121.259" stroke="rgb(255,0,0)" stroke-width="0.705556"/>
		<line x1="121.162" y1="121.259" x2="121.162" y2="211.409" stroke="rgb(255,0,0)" stroke-width="0.705556"/>
		<line x1="29.0117" y1="416.609" x2="29.0117" y2="212.709" stroke="rgb(255,0,0)" stroke-width="0.705556"/>
		<line x1="402.062" y1="417.909" x2="121.162" y2="417.909" stroke="rgb(255,255,0)" stroke-width="0.705556"/>
		<line x1="119.662" y1="416.609" x2="119.662" y2="212.709" stroke="rgb(255,255,0)" stroke-width="0.705556"/>
		<line x1="121.162" y1="211.409" x2="148.162" y2="211.409" stroke="rgb(255,255,0)" stroke-width="0.705556"/>
		<line x1="196.828" y1="211.409" x2="326.395" y2="211.409" stroke="rgb(255,255,0)" stroke-width="0.705556"/>
		<line x1="375.062" y1="211.409" x2="402.062" y2="211.409" stroke="rgb(255,255,0)" stroke-width="0.705556"/>
		<line x1="403.562" y1="212.709" x2="403.562" y2="416.609" stroke="rgb(255,255,0)" stroke-width="0.705556"/>
		<line x1="119.662" y1="416.609" x2="121.162" y2="416.609" stroke="rgb(255,0,0)" stroke-width="0.705556"/>
		<line x1="121.162" y1="416.609" x2="121.162" y2="417.909" stroke="rgb(255,0,0)" stroke-width="0.705556"/>
		<line x1="402.062" y1="417.909" x2="402.062" y2="416.609" stroke="rgb(255,0,0)" stroke-width="0.705556"/>
		<line x1="402.062" y1="416.609" x2="403.562" y2="416.609" stroke="rgb(255,0,0)" stroke-width="0.705556"/>
		<line x1="402.062" y1="211.409" x2="402.062" y2="212.709" stroke="rgb(255,0,0)" stroke-width="0.705556"/>
		<line x1="402.062" y1="212.709" x2="403.562" y2="212.709" stroke="rgb(255,0,0)" stroke-width="0.705556"/>
		<line x1="119.662" y1="212.709" x2="121.162" y2="212.709" stroke="rgb(255,0,0)" stroke-width="0.705556"/>
		<line x1="121.162" y1="212.709" x2="121.162" y2="211.409" stroke="rgb(255,0,0)" stroke-width="0.705556"/>
		<line x1="402.062" y1="121.259" x2="121.162" y2="121.259" stroke="rgb(255,255,0)" stroke-width="0.705556"/>
		<line x1="121.162" y1="121.259" x2="121.162" y2="118.659" stroke="rgb(255,0,0)" stroke-width="0.705556"/>
		<line x1="402.062" y1="118.659" x2="402.062" y2="121.259" stroke="rgb(255,0,0)" stroke-width="0.705556"/>
		<line x1="402.062" y1="118.659" x2="402.062" y2="29.1585" stroke="rgb(255,0,0)" stroke-width="0.705556"/>
		<line x1="402.062" y1="29.1585" x2="374.062" y2="29.1585" stroke="rgb(255,0,0)" stroke-width="0.705556"/>
		<line x1="327.395" y1="29.1585" x2="195.828" y2="29.1585" stroke="rgb(255,0,0)" stroke-width="0.705556"/>
		<line x1="149.162" y1="29.1585" x2="121.162" y2="29.1585" stroke="rgb(255,0,0)" stroke-width="0.705556"/>
		<line x1="121.162" y1="29.1585" x2="121.162" y2="118.659" stroke="rgb(255,0,0)" stroke-width="0.705556"/>
		<line x1="121.162" y1="118.659" x2="402.062" y2="118.659" stroke="rgb(255,255,0)" stroke-width="0.705556"/>
		<line x1="402.062" y1="509.209" x2="121.162" y2="509.209" stroke="rgb(255,255,0)" stroke-width="0.705556"/>
		<line x1="402.062" y1="711.809" x2="402.062" y2="756.484" stroke="rgb(255,0,0)" stroke-width="0.705556"/>
		<line x1="357.387" y1="801.159" x2="165.837" y2="801.159" stroke="rgb(255,0,0)" stroke-width="0.705556"/>
		<line x1="121.162" y1="756.484" x2="121.162" y2="711.809" stroke="rgb(255,0,0)" stroke-width="0.705556"/>
		<line x1="121.162" y1="711.809" x2="121.162" y2="711.809" stroke="rgb(255,0,0)" stroke-width="0.705556"/>
		<line x1="121.162" y1="711.809" x2="402.062" y2="711.809" stroke="rgb(255,255,0)" stroke-width="0.705556"/>
		<line x1="402.062" y1="711.809" x2="402.062" y2="711.809" stroke="rgb(255,0,0)" stroke-width="0.705556"/>
		<path d="M357.387,801.159 a44.675 44.675 0 0 0 44.675,-44.675" fill="none" stroke="rgb(255,0,0)" stroke-width="0.705556"/>
		<path d="M165.837,801.159 a44.675 44.675 0 0 1 -44.675,-44.675" fill="none" stroke="rgb(255,0,0)" stroke-width="0.705556"/>
		<line x1="261.612" y1="265.323" x2="261.612" y2="237.709" stroke="rgb(64,128,128)" stroke-width="0"/>
		<line x1="270.096" y1="246.913" x2="270.096" y2="237.709" stroke="rgb(64,128,128)" stroke-width="0"/>
		<line x1="265.854" y1="256.118" x2="265.854" y2="237.709" stroke="rgb(64,128,128)" stroke-width="0"/>
		<line x1="257.37" y1="274.528" x2="257.37" y2="237.709" stroke="rgb(64,128,128)" stroke-width="0"/>
		<line x1="253.128" y1="283.733" x2="253.128" y2="237.709" stroke="rgb(64,128,128)" stroke-width="0"/>
		<line x1="248.886" y1="292.938" x2="248.886" y2="237.709" stroke="rgb(64,128,128)" stroke-width="0"/>
		<line x1="274.338" y1="237.709" x2="248.886" y2="237.709" stroke="rgb(64,128,128)" stroke-width="0"/>
		<line x1="248.886" y1="292.938" x2="277.16" y2="264.62" stroke="rgb(64,128,128)" stroke-width="0"/>
		<path d="M277.16,264.62 a26.6045 26.6045 0 0 1 -2.82257,-26.9118" fill="none" stroke="rgb(64,128,128)" stroke-width="0"/>
		<line x1="274.338" y1="237.709" x2="248.886" y2="292.938" stroke="rgb(64,128,128)" stroke-width="0"/>
		<line x1="403.562" y1="416.609" x2="405.062" y2="416.609" stroke="rgb(255,0,0)" stroke-width="0.705556"/>
		<line x1="405.062" y1="416.609" x2="405.062" y2="489.259" stroke="rgb(255,0,0)" stroke-width="0.705556"/>
		<line x1="405.062" y1="489.259" x2="492.912" y2="489.259" stroke="rgb(255,0,0)" stroke-width="0.705556"/>
		<line x1="405.062" y1="416.609" x2="494.212" y2="416.609" stroke="rgb(255,255,0)" stroke-width="0.705556"/>
		<line x1="492.912" y1="489.259" x2="492.912" y2="417.909" stroke="rgb(255,0,0)" stroke-width="0.705556"/>
		<line x1="492.912" y1="417.909" x2="494.212" y2="416.609" stroke="rgb(255,0,0)" stroke-width="0.705556"/>
		<line x1="403.562" y1="212.709" x2="405.062" y2="212.709" stroke="rgb(255,0,0)" stroke-width="0.705556"/>
		<line x1="405.062" y1="212.709" x2="405.062" y2="140.059" stroke="rgb(255,0,0)" stroke-width="0.705556"/>
		<line x1="405.062" y1="140.059" x2="492.912" y2="140.059" stroke="rgb(255,0,0)" stroke-width="0.705556"/>
		<line x1="405.062" y1="212.709" x2="494.212" y2="212.709" stroke="rgb(255,255,0)" stroke-width="0.705556"/>
		<line x1="492.912" y1="140.059" x2="492.912" y2="211.409" stroke="rgb(255,0,0)" stroke-width="0.705556"/>
		<line x1="492.912" y1="211.409" x2="494.212" y2="212.709" stroke="rgb(255,0,0)" stroke-width="0.705556"/>
		<line x1="119.662" y1="212.709" x2="118.162" y2="212.709" stroke="rgb(255,0,0)" stroke-width="0.705556"/>
		<line x1="118.162" y1="212.709" x2="118.162" y2="140.059" stroke="rgb(255,0,0)" stroke-width="0.705556"/>
		<line x1="118.162" y1="140.059" x2="30.3117" y2="140.059" stroke="rgb(255,0,0)" stroke-width="0.705556"/>
		<line x1="118.162" y1="212.709" x2="29.0117" y2="212.709" stroke="rgb(255,255,0)" stroke-width="0.705556"/>
		<line x1="30.3117" y1="140.059" x2="30.3117" y2="211.409" stroke="rgb(255,0,0)" stroke-width="0.705556"/>
		<line x1="30.3117" y1="211.409" x2="29.0117" y2="212.709" stroke="rgb(255,0,0)" stroke-width="0.705556"/>
		<line x1="119.662" y1="416.609" x2="118.162" y2="416.609" stroke="rgb(255,0,0)" stroke-width="0.705556"/>
		<line x1="118.162" y1="416.609" x2="118.162" y2="489.259" stroke="rgb(255,0,0)" stroke-width="0.705556"/>
		<line x1="118.162" y1="489.259" x2="30.3117" y2="489.259" stroke="rgb(255,0,0)" stroke-width="0.705556"/>
		<line x1="118.162" y1="416.609" x2="29.0117" y2="416.609" stroke="rgb(255,255,0)" stroke-width="0.705556"/>
		<line x1="30.3117" y1="489.259" x2="30.3117" y2="417.909" stroke="rgb(255,0,0)" stroke-width="0.705556"/>
		<line x1="30.3117" y1="417.909" x2="29.0117" y2="416.609" stroke="rgb(255,0,0)" stroke-width="0.705556"/>
		<line x1="491.412" y1="556.484" x2="491.412" y2="621.08" stroke="rgb(255,0,0)" stroke-width="0.705556"/>
		<line x1="402.062" y1="711.809" x2="417.577" y2="709.073" stroke="rgb(255,0,0)" stroke-width="0.705556"/>
		<line x1="446.737" y1="511.809" x2="402.062" y2="511.809" stroke="rgb(255,0,0)" stroke-width="0.705556"/>
		<line x1="402.062" y1="711.809" x2="402.062" y2="711.809" stroke="rgb(255,0,0)" stroke-width="0.705556"/>
		<line x1="402.062" y1="711.809" x2="402.062" y2="511.809" stroke="rgb(255,255,0)" stroke-width="0.705556"/>
		<line x1="402.062" y1="511.809" x2="402.062" y2="509.209" stroke="rgb(255,0,0)" stroke-width="0.705556"/>
		<path d="M491.412,621.08 a89.35 89.35 0 0 1 -73.8345,87.9926" fill="none" stroke="rgb(255,0,0)" stroke-width="0.705556"/>
		<path d="M491.412,556.484 a44.675 44.675 0 0 0 -44.675,-44.675" fill="none" stroke="rgb(255,0,0)" stroke-width="0.705556"/>
		<line x1="31.8117" y1="556.484" x2="31.8117" y2="621.08" stroke="rgb(255,0,0)" stroke-width="0.705556"/>
		<line x1="121.162" y1="711.809" x2="105.646" y2="709.073" stroke="rgb(255,0,0)" stroke-width="0.705556"/>
		<line x1="76.4867" y1="511.809" x2="121.162" y2="511.809" stroke="rgb(255,0,0)" stroke-width="0.705556"/>
		<line x1="121.162" y1="711.809" x2="121.162" y2="711.809" stroke="rgb(255,0,0)" stroke-width="0.705556"/>
		<line x1="121.162" y1="711.809" x2="121.162" y2="511.809" stroke="rgb(255,255,0)" stroke-width="0.705556"/>
		<line x1="121.162" y1="511.809" x2="121.162" y2="509.209" stroke="rgb(255,0,0)" stroke-width="0.705556"/>
		<path d="M31.8117,621.08 a89.35 89.35 0 0 0 73.8345,87.9926" fill="none" stroke="rgb(255,0,0)" stroke-width="0.705556"/>
		<path d="M31.8117,556.484 a44.675 44.675 0 0 1 44.675,-44.675" fill="none" stroke="rgb(255,0,0)" stroke-width="0.705556"/>
		<line x1="374.062" y1="29.1585" x2="372.062" y2="27.2085" stroke="rgb(255,0,0)" stroke-width="0.705556"/>
		<line x1="372.062" y1="27.2085" x2="329.395" y2="27.2085" stroke="rgb(255,0,0)" stroke-width="0.705556"/>
		<line x1="329.395" y1="27.2085" x2="327.395" y2="29.1585" stroke="rgb(255,0,0)" stroke-width="0.705556"/>
		<line x1="195.828" y1="29.1585" x2="193.828" y2="27.2085" stroke="rgb(255,0,0)" stroke-width="0.705556"/>
		<line x1="193.828" y1="27.2085" x2="151.162" y2="27.2085" stroke="rgb(255,0,0)" stroke-width="0.705556"/>
		<line x1="151.162" y1="27.2085" x2="149.162" y2="29.1585" stroke="rgb(255,0,0)" stroke-width="0.705556"/>
		<line x1="195.828" y1="29.1585" x2="193.828" y2="27.2085" stroke="rgb(255,0,0)" stroke-width="0.705556"/>
		<line x1="193.828" y1="27.2085" x2="151.162" y2="27.2085" stroke="rgb(255,0,0)" stroke-width="0.705556"/>
		<line x1="151.162" y1="27.2085" x2="149.162" y2="29.1585" stroke="rgb(255,0,0)" stroke-width="0.705556"/>
		<line x1="195.828" y1="29.1585" x2="193.828" y2="27.2085" stroke="rgb(255,0,0)" stroke-width="0.705556"/>
		<line x1="193.828" y1="27.2085" x2="151.162" y2="27.2085" stroke="rgb(255,0,0)" stroke-width="0.705556"/>
		<line x1="151.162" y1="27.2085" x2="149.162" y2="29.1585" stroke="rgb(255,0,0)" stroke-width="0.705556"/>
		<line x1="195.828" y1="29.1585" x2="193.828" y2="27.2085" stroke="rgb(255,0,0)" stroke-width="0.705556"/>
		<line x1="193.828" y1="27.2085" x2="151.162" y2="27.2085" stroke="rgb(255,0,0)" stroke-width="0.705556"/>
		<line x1="151.162" y1="27.2085" x2="149.162" y2="29.1585" stroke="rgb(255,0,0)" stroke-width="0.705556"/>
		<line x1="195.828" y1="29.1585" x2="193.828" y2="27.2085" stroke="rgb(255,0,0)" stroke-width="0.705556"/>
		<line x1="193.828" y1="27.2085" x2="151.162" y2="27.2085" stroke="rgb(255,0,0)" stroke-width="0.705556"/>
		<line x1="151.162" y1="27.2085" x2="149.162" y2="29.1585" stroke="rgb(255,0,0)" stroke-width="0.705556"/>
		<line x1="195.828" y1="29.1585" x2="193.828" y2="27.2085" stroke="rgb(255,0,0)" stroke-width="0.705556"/>
		<line x1="193.828" y1="27.2085" x2="151.162" y2="27.2085" stroke="rgb(255,0,0)" stroke-width="0.705556"/>
		<line x1="151.162" y1="27.2085" x2="149.162" y2="29.1585" stroke="rgb(255,0,0)" stroke-width="0.705556"/>
		<line x1="195.828" y1="29.1585" x2="193.828" y2="27.2085" stroke="rgb(255,0,0)" stroke-width="0.705556"/>
		<line x1="193.828" y1="27.2085" x2="151.162" y2="27.2085" stroke="rgb(255,0,0)" stroke-width="0.705556"/>
		<line x1="151.162" y1="27.2085" x2="149.162" y2="29.1585" stroke="rgb(255,0,0)" stroke-width="0.705556"/>
		<line x1="195.828" y1="29.1585" x2="193.828" y2="27.2085" stroke="rgb(255,0,0)" stroke-width="0.705556"/>
		<line x1="193.828" y1="27.2085" x2="151.162" y2="27.2085" stroke="rgb(255,0,0)" stroke-width="0.705556"/>
		<line x1="151.162" y1="27.2085" x2="149.162" y2="29.1585" stroke="rgb(255,0,0)" stroke-width="0.705556"/>
		<line x1="195.828" y1="29.1585" x2="193.828" y2="27.2085" stroke="rgb(255,0,0)" stroke-width="0.705556"/>
		<line x1="193.828" y1="27.2085" x2="151.162" y2="27.2085" stroke="rgb(255,0,0)" stroke-width="0.705556"/>
		<line x1="151.162" y1="27.2085" x2="149.162" y2="29.1585" stroke="rgb(255,0,0)" stroke-width="0.705556"/>
		<line x1="195.828" y1="29.1585" x2="193.828" y2="27.2085" stroke="rgb(255,0,0)" stroke-width="0.705556"/>
		<line x1="193.828" y1="27.2085" x2="151.162" y2="27.2085" stroke="rgb(255,0,0)" stroke-width="0.705556"/>
		<line x1="151.162" y1="27.2085" x2="149.162" y2="29.1585" stroke="rgb(255,0,0)" stroke-width="0.705556"/>
		<line x1="195.828" y1="29.1585" x2="193.828" y2="27.2085" stroke="rgb(255,0,0)" stroke-width="0.705556"/>
		<line x1="193.828" y1="27.2085" x2="151.162" y2="27.2085" stroke="rgb(255,0,0)" stroke-width="0.705556"/>
		<line x1="151.162" y1="27.2085" x2="149.162" y2="29.1585" stroke="rgb(255,0,0)" stroke-width="0.705556"/>
		<line x1="195.828" y1="29.1585" x2="193.828" y2="27.2085" stroke="rgb(255,0,0)" stroke-width="0.705556"/>
		<line x1="193.828" y1="27.2085" x2="151.162" y2="27.2085" stroke="rgb(255,0,0)" stroke-width="0.705556"/>
		<line x1="151.162" y1="27.2085" x2="149.162" y2="29.1585" stroke="rgb(255,0,0)" stroke-width="0.705556"/>
		<line x1="195.828" y1="29.1585" x2="193.828" y2="27.2085" stroke="rgb(255,0,0)" stroke-width="0.705556"/>
		<line x1="193.828" y1="27.2085" x2="151.162" y2="27.2085" stroke="rgb(255,0,0)" stroke-width="0.705556"/>
		<line x1="151.162" y1="27.2085" x2="149.162" y2="29.1585" stroke="rgb(255,0,0)" stroke-width="0.705556"/>
		<line x1="195.828" y1="29.1585" x2="193.828" y2="27.2085" stroke="rgb(255,0,0)" stroke-width="0.705556"/>
		<line x1="193.828" y1="27.2085" x2="151.162" y2="27.2085" stroke="rgb(255,0,0)" stroke-width="0.705556"/>
		<line x1="151.162" y1="27.2085" x2="149.162" y2="29.1585" stroke="rgb(255,0,0)" stroke-width="0.705556"/>
		<line x1="195.828" y1="29.1585" x2="193.828" y2="27.2085" stroke="rgb(255,0,0)" stroke-width="0.705556"/>
		<line x1="193.828" y1="27.2085" x2="151.162" y2="27.2085" stroke="rgb(255,0,0)" stroke-width="0.705556"/>
		<line x1="151.162" y1="27.2085" x2="149.162" y2="29.1585" stroke="rgb(255,0,0)" stroke-width="0.705556"/>
		<line x1="195.828" y1="29.1585" x2="193.828" y2="27.2085" stroke="rgb(255,0,0)" stroke-width="0.705556"/>
		<line x1="193.828" y1="27.2085" x2="151.162" y2="27.2085" stroke="rgb(255,0,0)" stroke-width="0.705556"/>
		<line x1="151.162" y1="27.2085" x2="149.162" y2="29.1585" stroke="rgb(255,0,0)" stroke-width="0.705556"/>
		<line x1="195.828" y1="29.1585" x2="193.828" y2="27.2085" stroke="rgb(255,0,0)" stroke-width="0.705556"/>
		<line x1="193.828" y1="27.2085" x2="151.162" y2="27.2085" stroke="rgb(255,0,0)" stroke-width="0.705556"/>
		<line x1="151.162" y1="27.2085" x2="149.162" y2="29.1585" stroke="rgb(255,0,0)" stroke-width="0.705556"/>
		<line x1="195.828" y1="29.1585" x2="193.828" y2="27.2085" stroke="rgb(255,0,0)" stroke-width="0.705556"/>
		<line x1="193.828" y1="27.2085" x2="151.162" y2="27.2085" stroke="rgb(255,0,0)" stroke-width="0.705556"/>
		<line x1="151.162" y1="27.2085" x2="149.162" y2="29.1585" stroke="rgb(255,0,0)" stroke-width="0.705556"/>
		<line x1="375.062" y1="214.659" x2="375.062" y2="214.659" stroke="rgb(255,0,0)" stroke-width="0.705556"/>
		<line x1="326.395" y1="214.659" x2="326.395" y2="214.659" stroke="rgb(255,0,0)" stroke-width="0.705556"/>
		<line x1="196.828" y1="214.659" x2="196.828" y2="211.409" stroke="rgb(255,0,0)" stroke-width="0.705556"/>
		<line x1="196.828" y1="211.409" x2="148.162" y2="211.409" stroke="rgb(255,0,0)" stroke-width="0.705556"/>
		<line x1="148.162" y1="211.409" x2="148.162" y2="214.659" stroke="rgb(255,0,0)" stroke-width="0.705556"/>
		<line x1="148.162" y1="214.659" x2="196.828" y2="214.659" stroke="rgb(255,0,0)" stroke-width="0.705556"/>
		<line x1="196.828" y1="214.659" x2="196.828" y2="214.659" stroke="rgb(255,0,0)" stroke-width="0.705556"/>
		<line x1="148.162" y1="214.659" x2="148.162" y2="214.659" stroke="rgb(255,0,0)" stroke-width="0.705556"/>
		<line x1="375.062" y1="214.659" x2="375.062" y2="214.659" stroke="rgb(255,0,0)" stroke-width="0.705556"/>
		<line x1="326.395" y1="214.659" x2="326.395" y2="214.659" stroke="rgb(255,0,0)" stroke-width="0.705556"/>
		<line x1="375.062" y1="214.659" x2="375.062" y2="214.659" stroke="rgb(255,0,0)" stroke-width="0.705556"/>
		<line x1="326.395" y1="214.659" x2="326.395" y2="214.659" stroke="rgb(255,0,0)" stroke-width="0.705556"/>
		<line x1="375.062" y1="214.659" x2="375.062" y2="214.659" stroke="rgb(255,0,0)" stroke-width="0.705556"/>
		<line x1="326.395" y1="214.659" x2="326.395" y2="214.659" stroke="rgb(255,0,0)" stroke-width="0.705556"/>
		<line x1="375.062" y1="214.659" x2="375.062" y2="214.659" stroke="rgb(255,0,0)" stroke-width="0.705556"/>
		<line x1="326.395" y1="214.659" x2="326.395" y2="214.659" stroke="rgb(255,0,0)" stroke-width="0.705556"/>
		<line x1="375.062" y1="214.659" x2="375.062" y2="214.659" stroke="rgb(255,0,0)" stroke-width="0.705556"/>
		<line x1="326.395" y1="214.659" x2="326.395" y2="214.659" stroke="rgb(255,0,0)" stroke-width="0.705556"/>
		<line x1="375.062" y1="214.659" x2="375.062" y2="214.659" stroke="rgb(255,0,0)" stroke-width="0.705556"/>
		<line x1="326.395" y1="214.659" x2="326.395" y2="214.659" stroke="rgb(255,0,0)" stroke-width="0.705556"/>
		<line x1="375.062" y1="214.659" x2="375.062" y2="214.659" stroke="rgb(255,0,0)" stroke-width="0.705556"/>
		<line x1="326.395" y1="214.659" x2="326.395" y2="214.659" stroke="rgb(255,0,0)" stroke-width="0.705556"/>
		<line x1="375.062" y1="214.659" x2="375.062" y2="214.659" stroke="rgb(255,0,0)" stroke-width="0.705556"/>
		<line x1="326.395" y1="214.659" x2="326.395" y2="214.659" stroke="rgb(255,0,0)" stroke-width="0.705556"/>
		<line x1="375.062" y1="214.659" x2="375.062" y2="214.659" stroke="rgb(255,0,0)" stroke-width="0.705556"/>
		<line x1="326.395" y1="214.659" x2="326.395" y2="214.659" stroke="rgb(255,0,0)" stroke-width="0.705556"/>
		<line x1="375.062" y1="214.659" x2="375.062" y2="214.659" stroke="rgb(255,0,0)" stroke-width="0.705556"/>
		<line x1="326.395" y1="214.659" x2="326.395" y2="214.659" stroke="rgb(255,0,0)" stroke-width="0.705556"/>
		<line x1="375.062" y1="214.659" x2="375.062" y2="214.659" stroke="rgb(255,0,0)" stroke-width="0.705556"/>
		<line x1="326.395" y1="214.659" x2="326.395" y2="214.659" stroke="rgb(255,0,0)" stroke-width="0.705556"/>
		<line x1="375.062" y1="214.659" x2="375.062" y2="214.659" stroke="rgb(255,0,0)" stroke-width="0.705556"/>
		<line x1="326.395" y1="214.659" x2="326.395" y2="214.659" stroke="rgb(255,0,0)" stroke-width="0.705556"/>
		<line x1="375.062" y1="214.659" x2="375.062" y2="214.659" stroke="rgb(255,0,0)" stroke-width="0.705556"/>
		<line x1="326.395" y1="214.659" x2="326.395" y2="214.659" stroke="rgb(255,0,0)" stroke-width="0.705556"/>
		<line x1="375.062" y1="214.659" x2="375.062" y2="214.659" stroke="rgb(255,0,0)" stroke-width="0.705556"/>
		<line x1="326.395" y1="214.659" x2="326.395" y2="214.659" stroke="rgb(255,0,0)" stroke-width="0.705556"/>
		<line x1="375.062" y1="214.659" x2="375.062" y2="214.659" stroke="rgb(255,0,0)" stroke-width="0.705556"/>
		<line x1="326.395" y1="214.659" x2="326.395" y2="214.659" stroke="rgb(255,0,0)" stroke-width="0.705556"/>
		<line x1="375.062" y1="214.659" x2="375.062" y2="214.659" stroke="rgb(255,0,0)" stroke-width="0.705556"/>
		<line x1="326.395" y1="214.659" x2="326.395" y2="214.659" stroke="rgb(255,0,0)" stroke-width="0.705556"/>
		<line x1="375.062" y1="214.659" x2="375.062" y2="211.409" stroke="rgb(255,0,0)" stroke-width="0.705556"/>
		<line x1="375.062" y1="211.409" x2="326.395" y2="211.409" stroke="rgb(255,0,0)" stroke-width="0.705556"/>
		<line x1="326.395" y1="211.409" x2="326.395" y2="214.659" stroke="rgb(255,0,0)" stroke-width="0.705556"/>
		<line x1="326.395" y1="214.659" x2="375.062" y2="214.659" stroke="rgb(255,0,0)" stroke-width="0.705556"/>
		<line x1="375.062" y1="214.659" x2="375.062" y2="214.659" stroke="rgb(255,0,0)" stroke-width="0.705556"/>
		<line x1="326.395" y1="214.659" x2="326.395" y2="214.659" stroke="rgb(255,0,0)" stroke-width="0.705556"/>
	</g>
</svg>