<svg version = "1.1" xmlns = "http://www.w3.org/2000/svg" xmlns:xlink="http://www.w3.org/1999/xlink" width="428.606" height="498.156" viewbox = "0 0 428.606 498.156">
	<g transform="translate(-138.783,568.403) scale(1,-1) ">
		<line x1="496.336" y1="70.6" x2="209.836" y2="70.6" stroke="rgb(255,0,0)" stroke-width="0.705556"/>
		<line x1="497.636" y1="302.05" x2="208.536" y2="302.05" stroke="rgb(255,255,0)" stroke-width="0.705556"/>
		<line x1="207.236" y1="302.05" x2="207.236" y2="277.05" stroke="rgb(255,255,0)" stroke-width="0.705556"/>
		<line x1="207.236" y1="242.417" x2="207.236" y2="160.383" stroke="rgb(255,255,0)" stroke-width="0.705556"/>
		<line x1="207.236" y1="125.75" x2="207.236" y2="100.75" stroke="rgb(255,255,0)" stroke-width="0.705556"/>
		<line x1="209.836" y1="100.75" x2="496.336" y2="100.75" stroke="rgb(255,255,0)" stroke-width="0.705556"/>
		<line x1="498.936" y1="100.75" x2="498.936" y2="125.75" stroke="rgb(255,255,0)" stroke-width="0.705556"/>
		<line x1="498.936" y1="160.383" x2="498.936" y2="242.417" stroke="rgb(255,255,0)" stroke-width="0.705556"/>
		<line x1="498.936" y1="277.05" x2="498.936" y2="302.05" stroke="rgb(255,255,0)" stroke-width="0.705556"/>
		<line x1="207.236" y1="302.05" x2="207.236" y2="302.7" stroke="rgb(255,255,0)" stroke-width="0.705556"/>
		<line x1="498.936" y1="302.05" x2="498.936" y2="302.7" stroke="rgb(255,255,0)" stroke-width="0.705556"/>
		<line x1="498.936" y1="100.75" x2="498.936" y2="100.1" stroke="rgb(255,255,0)" stroke-width="0.705556"/>
		<line x1="207.236" y1="100.75" x2="207.236" y2="100.1" stroke="rgb(255,255,0)" stroke-width="0.705556"/>
		<line x1="208.536" y1="332.2" x2="211.786" y2="332.2" stroke="rgb(255,0,0)" stroke-width="0.705556"/>
		<line x1="211.786" y1="332.2" x2="211.786" y2="333.5" stroke="rgb(255,0,0)" stroke-width="0.705556"/>
		<line x1="494.386" y1="333.5" x2="494.386" y2="332.2" stroke="rgb(255,0,0)" stroke-width="0.705556"/>
		<line x1="494.386" y1="332.2" x2="497.636" y2="332.2" stroke="rgb(255,0,0)" stroke-width="0.705556"/>
		<line x1="211.786" y1="333.5" x2="494.386" y2="333.5" stroke="rgb(255,255,0)" stroke-width="0.705556"/>
		<line x1="211.786" y1="536.1" x2="208.536" y2="538.7" stroke="rgb(255,0,0)" stroke-width="0.705556"/>
		<line x1="208.536" y1="568.05" x2="341.086" y2="568.05" stroke="rgb(255,0,0)" stroke-width="0.705556"/>
		<line x1="365.086" y1="568.05" x2="497.636" y2="568.05" stroke="rgb(255,0,0)" stroke-width="0.705556"/>
		<line x1="497.636" y1="538.7" x2="494.386" y2="536.1" stroke="rgb(255,0,0)" stroke-width="0.705556"/>
		<line x1="494.386" y1="536.1" x2="211.786" y2="536.1" stroke="rgb(255,255,0)" stroke-width="0.705556"/>
		<line x1="359.458" y1="138.476" x2="331.843" y2="138.476" stroke="rgb(64,128,128)" stroke-width="0"/>
		<line x1="341.048" y1="146.96" x2="331.843" y2="146.96" stroke="rgb(64,128,128)" stroke-width="0"/>
		<line x1="350.253" y1="142.718" x2="331.843" y2="142.718" stroke="rgb(64,128,128)" stroke-width="0"/>
		<line x1="368.663" y1="134.234" x2="331.843" y2="134.234" stroke="rgb(64,128,128)" stroke-width="0"/>
		<line x1="377.868" y1="129.992" x2="331.843" y2="129.992" stroke="rgb(64,128,128)" stroke-width="0"/>
		<line x1="387.073" y1="125.75" x2="331.843" y2="125.75" stroke="rgb(64,128,128)" stroke-width="0"/>
		<line x1="331.843" y1="151.202" x2="331.843" y2="125.75" stroke="rgb(64,128,128)" stroke-width="0"/>
		<line x1="387.073" y1="125.75" x2="358.755" y2="154.025" stroke="rgb(64,128,128)" stroke-width="0"/>
		<path d="M358.755,154.025 a26.6045 26.6045 0 0 0 -26.9118,-2.82257" fill="none" stroke="rgb(64,128,128)" stroke-width="0"/>
		<line x1="331.843" y1="151.202" x2="387.073" y2="125.75" stroke="rgb(64,128,128)" stroke-width="0"/>
		<line x1="497.636" y1="332.2" x2="502.636" y2="332.2" stroke="rgb(255,0,0)" stroke-width="0.705556"/>
		<line x1="502.636" y1="332.2" x2="530.386" y2="332.2" stroke="rgb(255,0,0)" stroke-width="0.705556"/>
		<line x1="530.386" y1="302.7" x2="498.936" y2="302.7" stroke="rgb(255,0,0)" stroke-width="0.705556"/>
		<line x1="498.936" y1="302.7" x2="497.636" y2="302.05" stroke="rgb(255,0,0)" stroke-width="0.705556"/>
		<line x1="497.636" y1="332.2" x2="497.636" y2="302.05" stroke="rgb(255,255,0)" stroke-width="0.705556"/>
		<line x1="530.386" y1="302.7" x2="530.386" y2="332.2" stroke="rgb(255,0,0)" stroke-width="0.705556"/>
		<line x1="208.536" y1="332.2" x2="203.536" y2="332.2" stroke="rgb(255,0,0)" stroke-width="0.705556"/>
		<line x1="203.536" y1="332.2" x2="175.786" y2="332.2" stroke="rgb(255,0,0)" stroke-width="0.705556"/>
		<line x1="175.786" y1="302.7" x2="207.236" y2="302.7" stroke="rgb(255,0,0)" stroke-width="0.705556"/>
		<line x1="207.236" y1="302.7" x2="208.536" y2="302.05" stroke="rgb(255,0,0)" stroke-width="0.705556"/>
		<line x1="208.536" y1="332.2" x2="208.536" y2="302.05" stroke="rgb(255,255,0)" stroke-width="0.705556"/>
		<line x1="175.786" y1="302.7" x2="175.786" y2="332.2" stroke="rgb(255,0,0)" stroke-width="0.705556"/>
		<line x1="496.336" y1="70.6" x2="496.336" y2="70.6" stroke="rgb(255,0,0)" stroke-width="0.705556"/>
		<line x1="496.336" y1="70.6" x2="530.386" y2="70.6" stroke="rgb(255,0,0)" stroke-width="0.705556"/>
		<line x1="530.386" y1="100.1" x2="498.936" y2="100.1" stroke="rgb(255,0,0)" stroke-width="0.705556"/>
		<line x1="498.936" y1="100.1" x2="496.336" y2="100.75" stroke="rgb(255,0,0)" stroke-width="0.705556"/>
		<line x1="496.336" y1="70.6" x2="496.336" y2="100.75" stroke="rgb(255,255,0)" stroke-width="0.705556"/>
		<line x1="530.386" y1="100.1" x2="530.386" y2="70.6" stroke="rgb(255,0,0)" stroke-width="0.705556"/>
		<line x1="209.836" y1="70.6" x2="209.836" y2="70.6" stroke="rgb(255,0,0)" stroke-width="0.705556"/>
		<line x1="209.836" y1="70.6" x2="175.786" y2="70.6" stroke="rgb(255,0,0)" stroke-width="0.705556"/>
		<line x1="175.786" y1="100.1" x2="207.236" y2="100.1" stroke="rgb(255,0,0)" stroke-width="0.705556"/>
		<line x1="207.236" y1="100.1" x2="209.836" y2="100.75" stroke="rgb(255,0,0)" stroke-width="0.705556"/>
		<line x1="209.836" y1="70.6" x2="209.836" y2="100.75" stroke="rgb(255,255,0)" stroke-width="0.705556"/>
		<line x1="175.786" y1="100.1" x2="175.786" y2="70.6" stroke="rgb(255,0,0)" stroke-width="0.705556"/>
		<path d="M341.086,568.05 a12 12 0 0 1 24,0" fill="none" stroke="rgb(255,0,0)" stroke-width="0.705556"/>
		<line x1="530.386" y1="302.7" x2="530.386" y2="100.1" stroke="rgb(255,255,0)" stroke-width="0.705556"/>
		<line x1="530.386" y1="100.1" x2="534.286" y2="101.4" stroke="rgb(255,0,0)" stroke-width="0.705556"/>
		<line x1="534.286" y1="301.4" x2="530.386" y2="302.7" stroke="rgb(255,0,0)" stroke-width="0.705556"/>
		<line x1="534.286" y1="301.4" x2="565.086" y2="301.4" stroke="rgb(255,0,0)" stroke-width="0.705556"/>
		<line x1="565.086" y1="301.4" x2="565.086" y2="276.4" stroke="rgb(255,0,0)" stroke-width="0.705556"/>
		<line x1="565.086" y1="243.067" x2="565.086" y2="159.733" stroke="rgb(255,0,0)" stroke-width="0.705556"/>
		<line x1="565.086" y1="126.4" x2="565.086" y2="101.4" stroke="rgb(255,0,0)" stroke-width="0.705556"/>
		<line x1="565.086" y1="101.4" x2="534.286" y2="101.4" stroke="rgb(255,0,0)" stroke-width="0.705556"/>
		<line x1="534.286" y1="101.4" x2="534.286" y2="301.4" stroke="rgb(255,255,0)" stroke-width="0.705556"/>
		<line x1="175.786" y1="100.1" x2="175.786" y2="302.7" stroke="rgb(255,255,0)" stroke-width="0.705556"/>
		<line x1="175.786" y1="302.7" x2="171.886" y2="301.4" stroke="rgb(255,0,0)" stroke-width="0.705556"/>
		<line x1="171.886" y1="101.4" x2="175.786" y2="100.1" stroke="rgb(255,0,0)" stroke-width="0.705556"/>
		<line x1="171.886" y1="101.4" x2="141.086" y2="101.4" stroke="rgb(255,0,0)" stroke-width="0.705556"/>
		<line x1="141.086" y1="101.4" x2="141.086" y2="126.4" stroke="rgb(255,0,0)" stroke-width="0.705556"/>
		<line x1="141.086" y1="159.733" x2="141.086" y2="243.067" stroke="rgb(255,0,0)" stroke-width="0.705556"/>
		<line x1="141.086" y1="276.4" x2="141.086" y2="301.4" stroke="rgb(255,0,0)" stroke-width="0.705556"/>
		<line x1="141.086" y1="301.4" x2="171.886" y2="301.4" stroke="rgb(255,0,0)" stroke-width="0.705556"/>
		<line x1="171.886" y1="301.4" x2="171.886" y2="101.4" stroke="rgb(255,255,0)" stroke-width="0.705556"/>
		<line x1="141.086" y1="126.4" x2="139.136" y2="127.4" stroke="rgb(255,0,0)" stroke-width="0.705556"/>
		<line x1="139.136" y1="127.4" x2="139.136" y2="158.733" stroke="rgb(255,0,0)" stroke-width="0.705556"/>
		<line x1="139.136" y1="158.733" x2="141.086" y2="159.733" stroke="rgb(255,0,0)" stroke-width="0.705556"/>
		<line x1="141.086" y1="243.067" x2="139.136" y2="244.067" stroke="rgb(255,0,0)" stroke-width="0.705556"/>
		<line x1="139.136" y1="244.067" x2="139.136" y2="275.4" stroke="rgb(255,0,0)" stroke-width="0.705556"/>
		<line x1="139.136" y1="275.4" x2="141.086" y2="276.4" stroke="rgb(255,0,0)" stroke-width="0.705556"/>
		<line x1="141.086" y1="243.067" x2="139.136" y2="244.067" stroke="rgb(255,0,0)" stroke-width="0.705556"/>
		<line x1="139.136" y1="244.067" x2="139.136" y2="275.4" stroke="rgb(255,0,0)" stroke-width="0.705556"/>
		<line x1="139.136" y1="275.4" x2="141.086" y2="276.4" stroke="rgb(255,0,0)" stroke-width="0.705556"/>
		<line x1="141.086" y1="243.067" x2="139.136" y2="244.067" stroke="rgb(255,0,0)" stroke-width="0.705556"/>
		<line x1="139.136" y1="244.067" x2="139.136" y2="275.4" stroke="rgb(255,0,0)" stroke-width="0.705556"/>
		<line x1="139.136" y1="275.4" x2="141.086" y2="276.4" stroke="rgb(255,0,0)" stroke-width="0.705556"/>
		<line x1="141.086" y1="243.067" x2="139.136" y2="244.067" stroke="rgb(255,0,0)" stroke-width="0.705556"/>
		<line x1="139.136" y1="244.067" x2="139.136" y2="275.4" stroke="rgb(255,0,0)" stroke-width="0.705556"/>
		<line x1="139.136" y1="275.4" x2="141.086" y2="276.4" stroke="rgb(255,0,0)" stroke-width="0.705556"/>
		<line x1="141.086" y1="243.067" x2="139.136" y2="244.067" stroke="rgb(255,0,0)" stroke-width="0.705556"/>
		<line x1="139.136" y1="244.067" x2="139.136" y2="275.4" stroke="rgb(255,0,0)" stroke-width="0.705556"/>
		<line x1="139.136" y1="275.4" x2="141.086" y2="276.4" stroke="rgb(255,0,0)" stroke-width="0.705556"/>
		<line x1="141.086" y1="243.067" x2="139.136" y2="244.067" stroke="rgb(255,0,0)" stroke-width="0.705556"/>
		<line x1="139.136" y1="244.067" x2="139.136" y2="275.4" stroke="rgb(255,0,0)" stroke-width="0.705556"/>
		<line x1="139.136" y1="275.4" x2="141.086" y2="276.4" stroke="rgb(255,0,0)" stroke-width="0.705556"/>
		<line x1="141.086" y1="243.067" x2="139.136" y2="244.067" stroke="rgb(255,0,0)" stroke-width="0.705556"/>
		<line x1="139.136" y1="244.067" x2="139.136" y2="275.4" stroke="rgb(255,0,0)" stroke-width="0.705556"/>
		<line x1="139.136" y1="275.4" x2="141.086" y2="276.4" stroke="rgb(255,0,0)" stroke-width="0.705556"/>
		<line x1="141.086" y1="243.067" x2="139.136" y2="244.067" stroke="rgb(255,0,0)" stroke-width="0.705556"/>
		<line x1="139.136" y1="244.067" x2="139.136" y2="275.4" stroke="rgb(255,0,0)" stroke-width="0.705556"/>
		<line x1="139.136" y1="275.4" x2="141.086" y2="276.4" stroke="rgb(255,0,0)" stroke-width="0.705556"/>
		<line x1="141.086" y1="243.067" x2="139.136" y2="244.067" stroke="rgb(255,0,0)" stroke-width="0.705556"/>
		<line x1="139.136" y1="244.067" x2="139.136" y2="275.4" stroke="rgb(255,0,0)" stroke-width="0.705556"/>
		<line x1="139.136" y1="275.4" x2="141.086" y2="276.4" stroke="rgb(255,0,0)" stroke-width="0.705556"/>
		<line x1="141.086" y1="243.067" x2="139.136" y2="244.067" stroke="rgb(255,0,0)" stroke-width="0.705556"/>
		<line x1="139.136" y1="244.067" x2="139.136" y2="275.4" stroke="rgb(255,0,0)" stroke-width="0.705556"/>
		<line x1="139.136" y1="275.4" x2="141.086" y2="276.4" stroke="rgb(255,0,0)" stroke-width="0.705556"/>
		<line x1="141.086" y1="243.067" x2="139.136" y2="244.067" stroke="rgb(255,0,0)" stroke-width="0.705556"/>
		<line x1="139.136" y1="244.067" x2="139.136" y2="275.4" stroke="rgb(255,0,0)" stroke-width="0.705556"/>
		<line x1="139.136" y1="275.4" x2="141.086" y2="276.4" stroke="rgb(255,0,0)" stroke-width="0.705556"/>
		<line x1="141.086" y1="243.067" x2="139.136" y2="244.067" stroke="rgb(255,0,0)" stroke-width="0.705556"/>
		<line x1="139.136" y1="244.067" x2="139.136" y2="275.4" stroke="rgb(255,0,0)" stroke-width="0.705556"/>
		<line x1="139.136" y1="275.4" x2="141.086" y2="276.4" stroke="rgb(255,0,0)" stroke-width="0.705556"/>
		<line x1="141.086" y1="243.067" x2="139.136" y2="244.067" stroke="rgb(255,0,0)" stroke-width="0.705556"/>
		<line x1="139.136" y1="244.067" x2="139.136" y2="275.4" stroke="rgb(255,0,0)" stroke-width="0.705556"/>
		<line x1="139.136" y1="275.4" x2="141.086" y2="276.4" stroke="rgb(255,0,0)" stroke-width="0.705556"/>
		<line x1="141.086" y1="243.067" x2="139.136" y2="244.067" stroke="rgb(255,0,0)" stroke-width="0.705556"/>
		<line x1="139.136" y1="244.067" x2="139.136" y2="275.4" stroke="rgb(255,0,0)" stroke-width="0.705556"/>
		<line x1="139.136" y1="275.4" x2="141.086" y2="276.4" stroke="rgb(255,0,0)" stroke-width="0.705556"/>
		<line x1="141.086" y1="243.067" x2="139.136" y2="244.067" stroke="rgb(255,0,0)" stroke-width="0.705556"/>
		<line x1="139.136" y1="244.067" x2="139.136" y2="275.4" stroke="rgb(255,0,0)" stroke-width="0.705556"/>
		<line x1="139.136" y1="275.4" x2="141.086" y2="276.4" stroke="rgb(255,0,0)" stroke-width="0.705556"/>
		<line x1="141.086" y1="243.067" x2="139.136" y2="244.067" stroke="rgb(255,0,0)" stroke-width="0.705556"/>
		<line x1="139.136" y1="244.067" x2="139.136" y2="275.4" stroke="rgb(255,0,0)" stroke-width="0.705556"/>
		<line x1="139.136" y1="275.4" x2="141.086" y2="276.4" stroke="rgb(255,0,0)" stroke-width="0.705556"/>
		<line x1="141.086" y1="243.067" x2="139.136" y2="244.067" stroke="rgb(255,0,0)" stroke-width="0.705556"/>
		<line x1="139.136" y1="244.067" x2="139.136" y2="275.4" stroke="rgb(255,0,0)" stroke-width="0.705556"/>
		<line x1="139.136" y1="275.4" x2="141.086" y2="276.4" stroke="rgb(255,0,0)" stroke-width="0.705556"/>
		<line x1="141.086" y1="243.067" x2="139.136" y2="244.067" stroke="rgb(255,0,0)" stroke-width="0.705556"/>
		<line x1="139.136" y1="244.067" x2="139.136" y2="275.4" stroke="rgb(255,0,0)" stroke-width="0.705556"/>
		<line x1="139.136" y1="275.4" x2="141.086" y2="276.4" stroke="rgb(255,0,0)" stroke-width="0.705556"/>
		<line x1="211.786" y1="125.75" x2="211.786" y2="125.75" stroke="rgb(255,0,0)" stroke-width="0.705556"/>
		<line x1="211.786" y1="160.383" x2="211.786" y2="160.383" stroke="rgb(255,0,0)" stroke-width="0.705556"/>
		<line x1="211.786" y1="242.417" x2="207.236" y2="242.417" stroke="rgb(255,0,0)" stroke-width="0.705556"/>
		<line x1="207.236" y1="242.417" x2="207.236" y2="277.05" stroke="rgb(255,0,0)" stroke-width="0.705556"/>
		<line x1="207.236" y1="277.05" x2="211.786" y2="277.05" stroke="rgb(255,0,0)" stroke-width="0.705556"/>
		<line x1="211.786" y1="277.05" x2="211.786" y2="242.417" stroke="rgb(255,0,0)" stroke-width="0.705556"/>
		<line x1="211.786" y1="242.417" x2="211.786" y2="242.417" stroke="rgb(255,0,0)" stroke-width="0.705556"/>
		<line x1="211.786" y1="277.05" x2="211.786" y2="277.05" stroke="rgb(255,0,0)" stroke-width="0.705556"/>
		<line x1="211.786" y1="125.75" x2="211.786" y2="125.75" stroke="rgb(255,0,0)" stroke-width="0.705556"/>
		<line x1="211.786" y1="160.383" x2="211.786" y2="160.383" stroke="rgb(255,0,0)" stroke-width="0.705556"/>
		<line x1="211.786" y1="125.75" x2="211.786" y2="125.75" stroke="rgb(255,0,0)" stroke-width="0.705556"/>
		<line x1="211.786" y1="160.383" x2="211.786" y2="160.383" stroke="rgb(255,0,0)" stroke-width="0.705556"/>
		<line x1="211.786" y1="125.75" x2="211.786" y2="125.75" stroke="rgb(255,0,0)" stroke-width="0.705556"/>
		<line x1="211.786" y1="160.383" x2="211.786" y2="160.383" stroke="rgb(255,0,0)" stroke-width="0.705556"/>
		<line x1="211.786" y1="125.75" x2="211.786" y2="125.75" stroke="rgb(255,0,0)" stroke-width="0.705556"/>
		<line x1="211.786" y1="160.383" x2="211.786" y2="160.383" stroke="rgb(255,0,0)" stroke-width="0.705556"/>
		<line x1="211.786" y1="125.75" x2="211.786" y2="125.75" stroke="rgb(255,0,0)" stroke-width="0.705556"/>
		<line x1="211.786" y1="160.383" x2="211.786" y2="160.383" stroke="rgb(255,0,0)" stroke-width="0.705556"/>
		<line x1="211.786" y1="125.75" x2="211.786" y2="125.75" stroke="rgb(255,0,0)" stroke-width="0.705556"/>
		<line x1="211.786" y1="160.383" x2="211.786" y2="160.383" stroke="rgb(255,0,0)" stroke-width="0.705556"/>
		<line x1="211.786" y1="125.75" x2="211.786" y2="125.75" stroke="rgb(255,0,0)" stroke-width="0.705556"/>
		<line x1="211.786" y1="160.383" x2="211.786" y2="160.383" stroke="rgb(255,0,0)" stroke-width="0.705556"/>
		<line x1="211.786" y1="125.75" x2="211.786" y2="125.75" stroke="rgb(255,0,0)" stroke-width="0.705556"/>
		<line x1="211.786" y1="160.383" x2="211.786" y2="160.383" stroke="rgb(255,0,0)" stroke-width="0.705556"/>
		<line x1="211.786" y1="125.75" x2="211.786" y2="125.75" stroke="rgb(255,0,0)" stroke-width="0.705556"/>
		<line x1="211.786" y1="160.383" x2="211.786" y2="160.383" stroke="rgb(255,0,0)" stroke-width="0.705556"/>
		<line x1="211.786" y1="125.75" x2="211.786" y2="125.75" stroke="rgb(255,0,0)" stroke-width="0.705556"/>
		<line x1="211.786" y1="160.383" x2="211.786" y2="160.383" stroke="rgb(255,0,0)" stroke-width="0.705556"/>
		<line x1="211.786" y1="125.75" x2="211.786" y2="125.75" stroke="rgb(255,0,0)" stroke-width="0.705556"/>
		<line x1="211.786" y1="160.383" x2="211.786" y2="160.383" stroke="rgb(255,0,0)" stroke-width="0.705556"/>
		<line x1="211.786" y1="125.75" x2="211.786" y2="125.75" stroke="rgb(255,0,0)" stroke-width="0.705556"/>
		<line x1="211.786" y1="160.383" x2="211.786" y2="160.383" stroke="rgb(255,0,0)" stroke-width="0.705556"/>
		<line x1="211.786" y1="125.75" x2="211.786" y2="125.75" stroke="rgb(255,0,0)" stroke-width="0.705556"/>
		<line x1="211.786" y1="160.383" x2="211.786" y2="160.383" stroke="rgb(255,0,0)" stroke-width="0.705556"/>
		<line x1="211.786" y1="125.75" x2="211.786" y2="125.75" stroke="rgb(255,0,0)" stroke-width="0.705556"/>
		<line x1="211.786" y1="160.383" x2="211.786" y2="160.383" stroke="rgb(255,0,0)" stroke-width="0.705556"/>
		<line x1="211.786" y1="125.75" x2="211.786" y2="125.75" stroke="rgb(255,0,0)" stroke-width="0.705556"/>
		<line x1="211.786" y1="160.383" x2="211.786" y2="160.383" stroke="rgb(255,0,0)" stroke-width="0.705556"/>
		<line x1="211.786" y1="125.75" x2="211.786" y2="125.75" stroke="rgb(255,0,0)" stroke-width="0.705556"/>
		<line x1="211.786" y1="160.383" x2="211.786" y2="160.383" stroke="rgb(255,0,0)" stroke-width="0.705556"/>
		<line x1="211.786" y1="125.75" x2="207.236" y2="125.75" stroke="rgb(255,0,0)" stroke-width="0.705556"/>
		<line x1="207.236" y1="125.75" x2="207.236" y2="160.383" stroke="rgb(255,0,0)" stroke-width="0.705556"/>
		<line x1="207.236" y1="160.383" x2="211.786" y2="160.383" stroke="rgb(255,0,0)" stroke-width="0.705556"/>
		<line x1="211.786" y1="160.383" x2="211.786" y2="125.75" stroke="rgb(255,0,0)" stroke-width="0.705556"/>
		<line x1="211.786" y1="125.75" x2="211.786" y2="125.75" stroke="rgb(255,0,0)" stroke-width="0.705556"/>
		<line x1="211.786" y1="160.383" x2="211.786" y2="160.383" stroke="rgb(255,0,0)" stroke-width="0.705556"/>
		<line x1="565.086" y1="276.4" x2="567.036" y2="275.4" stroke="rgb(255,0,0)" stroke-width="0.705556"/>
		<line x1="567.036" y1="275.4" x2="567.036" y2="244.067" stroke="rgb(255,0,0)" stroke-width="0.705556"/>
		<line x1="567.036" y1="244.067" x2="565.086" y2="243.067" stroke="rgb(255,0,0)" stroke-width="0.705556"/>
		<line x1="565.086" y1="159.733" x2="567.036" y2="158.733" stroke="rgb(255,0,0)" stroke-width="0.705556"/>
		<line x1="567.036" y1="158.733" x2="567.036" y2="127.4" stroke="rgb(255,0,0)" stroke-width="0.705556"/>
		<line x1="567.036" y1="127.4" x2="565.086" y2="126.4" stroke="rgb(255,0,0)" stroke-width="0.705556"/>
		<line x1="565.086" y1="159.733" x2="567.036" y2="158.733" stroke="rgb(255,0,0)" stroke-width="0.705556"/>
		<line x1="567.036" y1="158.733" x2="567.036" y2="127.4" stroke="rgb(255,0,0)" stroke-width="0.705556"/>
		<line x1="567.036" y1="127.4" x2="565.086" y2="126.4" stroke="rgb(255,0,0)" stroke-width="0.705556"/>
		<line x1="565.086" y1="159.733" x2="567.036" y2="158.733" stroke="rgb(255,0,0)" stroke-width="0.705556"/>
		<line x1="567.036" y1="158.733" x2="567.036" y2="127.4" stroke="rgb(255,0,0)" stroke-width="0.705556"/>
		<line x1="567.036" y1="127.4" x2="565.086" y2="126.4" stroke="rgb(255,0,0)" stroke-width="0.705556"/>
		<line x1="565.086" y1="159.733" x2="567.036" y2="158.733" stroke="rgb(255,0,0)" stroke-width="0.705556"/>
		<line x1="567.036" y1="158.733" x2="567.036" y2="127.4" stroke="rgb(255,0,0)" stroke-width="0.705556"/>
		<line x1="567.036" y1="127.4" x2="565.086" y2="126.4" stroke="rgb(255,0,0)" stroke-width="0.705556"/>
		<line x1="565.086" y1="159.733" x2="567.036" y2="158.733" stroke="rgb(255,0,0)" stroke-width="0.705556"/>
		<line x1="567.036" y1="158.733" x2="567.036" y2="127.4" stroke="rgb(255,0,0)" stroke-width="0.705556"/>
		<line x1="567.036" y1="127.4" x2="565.086" y2="126.4" stroke="rgb(255,0,0)" stroke-width="0.705556"/>
		<line x1="565.086" y1="159.733" x2="567.036" y2="158.733" stroke="rgb(255,0,0)" stroke-width="0.705556"/>
		<line x1="567.036" y1="158.733" x2="567.036" y2="127.4" stroke="rgb(255,0,0)" stroke-width="0.705556"/>
		<line x1="567.036" y1="127.4" x2="565.086" y2="126.4" stroke="rgb(255,0,0)" stroke-width="0.705556"/>
		<line x1="565.086" y1="159.733" x2="567.036" y2="158.733" stroke="rgb(255,0,0)" stroke-width="0.705556"/>
		<line x1="567.036" y1="158.733" x2="567.036" y2="127.4" stroke="rgb(255,0,0)" stroke-width="0.705556"/>
		<line x1="567.036" y1="127.4" x2="565.086" y2="126.4" stroke="rgb(255,0,0)" stroke-width="0.705556"/>
		<line x1="565.086" y1="159.733" x2="567.036" y2="158.733" stroke="rgb(255,0,0)" stroke-width="0.705556"/>
		<line x1="567.036" y1="158.733" x2="567.036" y2="127.4" stroke="rgb(255,0,0)" stroke-width="0.705556"/>
		<line x1="567.036" y1="127.4" x2="565.086" y2="126.4" stroke="rgb(255,0,0)" stroke-width="0.705556"/>
		<line x1="565.086" y1="159.733" x2="567.036" y2="158.733" stroke="rgb(255,0,0)" stroke-width="0.705556"/>
		<line x1="567.036" y1="158.733" x2="567.036" y2="127.4" stroke="rgb(255,0,0)" stroke-width="0.705556"/>
		<line x1="567.036" y1="127.4" x2="565.086" y2="126.4" stroke="rgb(255,0,0)" stroke-width="0.705556"/>
		<line x1="565.086" y1="159.733" x2="567.036" y2="158.733" stroke="rgb(255,0,0)" stroke-width="0.705556"/>
		<line x1="567.036" y1="158.733" x2="567.036" y2="127.4" stroke="rgb(255,0,0)" stroke-width="0.705556"/>
		<line x1="567.036" y1="127.4" x2="565.086" y2="126.4" stroke="rgb(255,0,0)" stroke-width="0.705556"/>
		<line x1="565.086" y1="159.733" x2="567.036" y2="158.733" stroke="rgb(255,0,0)" stroke-width="0.705556"/>
		<line x1="567.036" y1="158.733" x2="567.036" y2="127.4" stroke="rgb(255,0,0)" stroke-width="0.705556"/>
		<line x1="567.036" y1="127.4" x2="565.086" y2="126.4" stroke="rgb(255,0,0)" stroke-width="0.705556"/>
		<line x1="565.086" y1="159.733" x2="567.036" y2="158.733" stroke="rgb(255,0,0)" stroke-width="0.705556"/>
		<line x1="567.036" y1="158.733" x2="567.036" y2="127.4" stroke="rgb(255,0,0)" stroke-width="0.705556"/>
		<line x1="567.036" y1="127.4" x2="565.086" y2="126.4" stroke="rgb(255,0,0)" stroke-width="0.705556"/>
		<line x1="565.086" y1="159.733" x2="567.036" y2="158.733" stroke="rgb(255,0,0)" stroke-width="0.705556"/>
		<line x1="567.036" y1="158.733" x2="567.036" y2="127.4" stroke="rgb(255,0,0)" stroke-width="0.705556"/>
		<line x1="567.036" y1="127.4" x2="565.086" y2="126.4" stroke="rgb(255,0,0)" stroke-width="0.705556"/>
		<line x1="565.086" y1="159.733" x2="567.036" y2="158.733" stroke="rgb(255,0,0)" stroke-width="0.705556"/>
		<line x1="567.036" y1="158.733" x2="567.036" y2="127.4" stroke="rgb(255,0,0)" stroke-width="0.705556"/>
		<line x1="567.036" y1="127.4" x2="565.086" y2="126.4" stroke="rgb(255,0,0)" stroke-width="0.705556"/>
		<line x1="565.086" y1="159.733" x2="567.036" y2="158.733" stroke="rgb(255,0,0)" stroke-width="0.705556"/>
		<line x1="567.036" y1="158.733" x2="567.036" y2="127.4" stroke="rgb(255,0,0)" stroke-width="0.705556"/>
		<line x1="567.036" y1="127.4" x2="565.086" y2="126.4" stroke="rgb(255,0,0)" stroke-width="0.705556"/>
		<line x1="565.086" y1="159.733" x2="567.036" y2="158.733" stroke="rgb(255,0,0)" stroke-width="0.705556"/>
		<line x1="567.036" y1="158.733" x2="567.036" y2="127.4" stroke="rgb(255,0,0)" stroke-width="0.705556"/>
		<line x1="567.036" y1="127.4" x2="565.086" y2="126.4" stroke="rgb(255,0,0)" stroke-width="0.705556"/>
		<line x1="565.086" y1="159.733" x2="567.036" y2="158.733" stroke="rgb(255,0,0)" stroke-width="0.705556"/>
		<line x1="567.036" y1="158.733" x2="567.036" y2="127.4" stroke="rgb(255,0,0)" stroke-width="0.705556"/>
		<line x1="567.036" y1="127.4" x2="565.086" y2="126.4" stroke="rgb(255,0,0)" stroke-width="0.705556"/>
		<line x1="565.086" y1="159.733" x2="567.036" y2="158.733" stroke="rgb(255,0,0)" stroke-width="0.705556"/>
		<line x1="567.036" y1="158.733" x2="567.036" y2="127.4" stroke="rgb(255,0,0)" stroke-width="0.705556"/>
		<line x1="567.036" y1="127.4" x2="565.086" y2="126.4" stroke="rgb(255,0,0)" stroke-width="0.705556"/>
		<line x1="494.386" y1="277.05" x2="494.386" y2="277.05" stroke="rgb(255,0,0)" stroke-width="0.705556"/>
		<line x1="494.386" y1="242.417" x2="494.386" y2="242.417" stroke="rgb(255,0,0)" stroke-width="0.705556"/>
		<line x1="494.386" y1="160.383" x2="498.936" y2="160.383" stroke="rgb(255,0,0)" stroke-width="0.705556"/>
		<line x1="498.936" y1="160.383" x2="498.936" y2="125.75" stroke="rgb(255,0,0)" stroke-width="0.705556"/>
		<line x1="498.936" y1="125.75" x2="494.386" y2="125.75" stroke="rgb(255,0,0)" stroke-width="0.705556"/>
		<line x1="494.386" y1="125.75" x2="494.386" y2="160.383" stroke="rgb(255,0,0)" stroke-width="0.705556"/>
		<line x1="494.386" y1="160.383" x2="494.386" y2="160.383" stroke="rgb(255,0,0)" stroke-width="0.705556"/>
		<line x1="494.386" y1="125.75" x2="494.386" y2="125.75" stroke="rgb(255,0,0)" stroke-width="0.705556"/>
		<line x1="494.386" y1="277.05" x2="494.386" y2="277.05" stroke="rgb(255,0,0)" stroke-width="0.705556"/>
		<line x1="494.386" y1="242.417" x2="494.386" y2="242.417" stroke="rgb(255,0,0)" stroke-width="0.705556"/>
		<line x1="494.386" y1="277.05" x2="494.386" y2="277.05" stroke="rgb(255,0,0)" stroke-width="0.705556"/>
		<line x1="494.386" y1="242.417" x2="494.386" y2="242.417" stroke="rgb(255,0,0)" stroke-width="0.705556"/>
		<line x1="494.386" y1="277.05" x2="494.386" y2="277.05" stroke="rgb(255,0,0)" stroke-width="0.705556"/>
		<line x1="494.386" y1="242.417" x2="494.386" y2="242.417" stroke="rgb(255,0,0)" stroke-width="0.705556"/>
		<line x1="494.386" y1="277.05" x2="494.386" y2="277.05" stroke="rgb(255,0,0)" stroke-width="0.705556"/>
		<line x1="494.386" y1="242.417" x2="494.386" y2="242.417" stroke="rgb(255,0,0)" stroke-width="0.705556"/>
		<line x1="494.386" y1="277.05" x2="494.386" y2="277.05" stroke="rgb(255,0,0)" stroke-width="0.705556"/>
		<line x1="494.386" y1="242.417" x2="494.386" y2="242.417" stroke="rgb(255,0,0)" stroke-width="0.705556"/>
		<line x1="494.386" y1="277.05" x2="494.386" y2="277.05" stroke="rgb(255,0,0)" stroke-width="0.705556"/>
		<line x1="494.386" y1="242.417" x2="494.386" y2="242.417" stroke="rgb(255,0,0)" stroke-width="0.705556"/>
		<line x1="494.386" y1="277.05" x2="494.386" y2="277.05" stroke="rgb(255,0,0)" stroke-width="0.705556"/>
		<line x1="494.386" y1="242.417" x2="494.386" y2="242.417" stroke="rgb(255,0,0)" stroke-width="0.705556"/>
		<line x1="494.386" y1="277.05" x2="494.386" y2="277.05" stroke="rgb(255,0,0)" stroke-width="0.705556"/>
		<line x1="494.386" y1="242.417" x2="494.386" y2="242.417" stroke="rgb(255,0,0)" stroke-width="0.705556"/>
		<line x1="494.386" y1="277.05" x2="494.386" y2="277.05" stroke="rgb(255,0,0)" stroke-width="0.705556"/>
		<line x1="494.386" y1="242.417" x2="494.386" y2="242.417" stroke="rgb(255,0,0)" stroke-width="0.705556"/>
		<line x1="494.386" y1="277.05" x2="494.386" y2="277.05" stroke="rgb(255,0,0)" stroke-width="0.705556"/>
		<line x1="494.386" y1="242.417" x2="494.386" y2="242.417" stroke="rgb(255,0,0)" stroke-width="0.705556"/>
		<line x1="494.386" y1="277.05" x2="494.386" y2="277.05" stroke="rgb(255,0,0)" stroke-width="0.705556"/>
		<line x1="494.386" y1="242.417" x2="494.386" y2="242.417" stroke="rgb(255,0,0)" stroke-width="0.705556"/>
		<line x1="494.386" y1="277.05" x2="494.386" y2="277.05" stroke="rgb(255,0,0)" stroke-width="0.705556"/>
		<line x1="494.386" y1="242.417" x2="494.386" y2="242.417" stroke="rgb(255,0,0)" stroke-width="0.705556"/>
		<line x1="494.386" y1="277.05" x2="494.386" y2="277.05" stroke="rgb(255,0,0)" stroke-width="0.705556"/>
		<line x1="494.386" y1="242.417" x2="494.386" y2="242.417" stroke="rgb(255,0,0)" stroke-width="0.705556"/>
		<line x1="494.386" y1="277.05" x2="494.386" y2="277.05" stroke="rgb(255,0,0)" stroke-width="0.705556"/>
		<line x1="494.386" y1="242.417" x2="494.386" y2="242.417" stroke="rgb(255,0,0)" stroke-width="0.705556"/>
		<line x1="494.386" y1="277.05" x2="494.386" y2="277.05" stroke="rgb(255,0,0)" stroke-width="0.705556"/>
		<line x1="494.386" y1="242.417" x2="494.386" y2="242.417" stroke="rgb(255,0,0)" stroke-width="0.705556"/>
		<line x1="494.386" y1="277.05" x2="494.386" y2="277.05" stroke="rgb(255,0,0)" stroke-width="0.705556"/>
		<line x1="494.386" y1="242.417" x2="494.386" y2="242.417" stroke="rgb(255,0,0)" stroke-width="0.705556"/>
		<line x1="494.386" y1="277.05" x2="498.936" y2="277.05" stroke="rgb(255,0,0)" stroke-width="0.705556"/>
		<line x1="498.936" y1="277.05" x2="498.936" y2="242.417" stroke="rgb(255,0,0)" stroke-width="0.705556"/>
		<line x1="498.936" y1="242.417" x2="494.386" y2="242.417" stroke="rgb(255,0,0)" stroke-width="0.705556"/>
		<line x1="494.386" y1="242.417" x2="494.386" y2="277.05" stroke="rgb(255,0,0)" stroke-width="0.705556"/>
		<line x1="494.386" y1="277.05" x2="494.386" y2="277.05" stroke="rgb(255,0,0)" stroke-width="0.705556"/>
		<line x1="494.386" y1="242.417" x2="494.386" y2="242.417" stroke="rgb(255,0,0)" stroke-width="0.705556"/>
		<line x1="494.386" y1="534.15" x2="514.688" y2="527.526" stroke="rgb(255,0,0)" stroke-width="0.705556"/>
		<line x1="525.036" y1="513.266" x2="525.036" y2="356.334" stroke="rgb(255,0,0)" stroke-width="0.705556"/>
		<line x1="514.688" y1="342.074" x2="494.386" y2="335.45" stroke="rgb(255,0,0)" stroke-width="0.705556"/>
		<path d="M514.688,527.526 a15 15 0 0 0 10.3474,-14.2602" fill="none" stroke="rgb(255,0,0)" stroke-width="0.705556"/>
		<path d="M525.036,356.334 a15 15 0 0 0 -10.3474,-14.2602" fill="none" stroke="rgb(255,0,0)" stroke-width="0.705556"/>
		<line x1="494.386" y1="335.45" x2="494.386" y2="333.5" stroke="rgb(255,0,0)" stroke-width="0.705556"/>
		<line x1="494.386" y1="536.1" x2="494.386" y2="534.15" stroke="rgb(255,0,0)" stroke-width="0.705556"/>
		<line x1="494.386" y1="534.15" x2="494.386" y2="335.45" stroke="rgb(255,255,0)" stroke-width="0.705556"/>
		<line x1="211.786" y1="534.15" x2="191.483" y2="527.526" stroke="rgb(255,0,0)" stroke-width="0.705556"/>
		<line x1="181.136" y1="513.266" x2="181.136" y2="356.334" stroke="rgb(255,0,0)" stroke-width="0.705556"/>
		<line x1="191.483" y1="342.074" x2="211.786" y2="335.45" stroke="rgb(255,0,0)" stroke-width="0.705556"/>
		<path d="M191.483,527.526 a15 15 0 0 1 -10.3474,-14.2602" fill="none" stroke="rgb(255,0,0)" stroke-width="0.705556"/>
		<path d="M181.136,356.334 a15 15 0 0 1 10.3474,-14.2602" fill="none" stroke="rgb(255,0,0)" stroke-width="0.705556"/>
		<line x1="211.786" y1="335.45" x2="211.786" y2="333.5" stroke="rgb(255,0,0)" stroke-width="0.705556"/>
		<line x1="211.786" y1="536.1" x2="211.786" y2="534.15" stroke="rgb(255,0,0)" stroke-width="0.705556"/>
		<line x1="211.786" y1="534.15" x2="211.786" y2="335.45" stroke="rgb(255,255,0)" stroke-width="0.705556"/>
		<line x1="497.636" y1="565.45" x2="513.207" y2="559.767" stroke="rgb(255,0,0)" stroke-width="0.705556"/>
		<line x1="525.036" y1="542.858" x2="525.036" y2="541.7" stroke="rgb(255,0,0)" stroke-width="0.705556"/>
		<line x1="522.036" y1="538.7" x2="497.636" y2="538.7" stroke="rgb(255,0,0)" stroke-width="0.705556"/>
		<path d="M513.207,559.767 a18 18 0 0 0 11.8288,-16.9091" fill="none" stroke="rgb(255,0,0)" stroke-width="0.705556"/>
		<path d="M525.036,541.7 a3 3 0 0 0 -3,-3" fill="none" stroke="rgb(255,0,0)" stroke-width="0.705556"/>
		<line x1="497.636" y1="538.7" x2="497.636" y2="538.7" stroke="rgb(255,0,0)" stroke-width="0.705556"/>
		<line x1="497.636" y1="568.05" x2="497.636" y2="565.45" stroke="rgb(255,0,0)" stroke-width="0.705556"/>
		<line x1="497.636" y1="565.45" x2="497.636" y2="538.7" stroke="rgb(255,255,0)" stroke-width="0.705556"/>
		<line x1="208.536" y1="565.45" x2="192.964" y2="559.767" stroke="rgb(255,0,0)" stroke-width="0.705556"/>
		<line x1="181.136" y1="542.858" x2="181.136" y2="541.7" stroke="rgb(255,0,0)" stroke-width="0.705556"/>
		<line x1="184.136" y1="538.7" x2="208.536" y2="538.7" stroke="rgb(255,0,0)" stroke-width="0.705556"/>
		<path d="M192.964,559.767 a18 18 0 0 1 -11.8288,-16.9091" fill="none" stroke="rgb(255,0,0)" stroke-width="0.705556"/>
		<path d="M181.136,541.7 a3 3 0 0 1 3,-3" fill="none" stroke="rgb(255,0,0)" stroke-width="0.705556"/>
		<line x1="208.536" y1="538.7" x2="208.536" y2="538.7" stroke="rgb(255,0,0)" stroke-width="0.705556"/>
		<line x1="208.536" y1="568.05" x2="208.536" y2="565.45" stroke="rgb(255,0,0)" stroke-width="0.705556"/>
		<line x1="208.536" y1="565.45" x2="208.536" y2="538.7" stroke="rgb(255,255,0)" stroke-width="0.705556"/>
	</g>
</svg>