<svg version = "1.1" xmlns = "http://www.w3.org/2000/svg" xmlns:xlink="http://www.w3.org/1999/xlink" width="725.606" height="639.806" viewbox = "0 0 725.606 639.806">
	<g transform="translate(-50.2604,671.246) scale(1,-1) ">
		<line x1="556.313" y1="334.843" x2="657.763" y2="334.843" stroke="rgb(255,0,0)" stroke-width="0.705556"/>
		<line x1="657.763" y1="135.243" x2="556.313" y2="135.243" stroke="rgb(255,0,0)" stroke-width="0.705556"/>
		<line x1="555.013" y1="31.7929" x2="271.113" y2="31.7929" stroke="rgb(255,0,0)" stroke-width="0.705556"/>
		<line x1="269.813" y1="334.843" x2="168.363" y2="334.843" stroke="rgb(255,0,0)" stroke-width="0.705556"/>
		<line x1="168.363" y1="135.243" x2="269.813" y2="135.243" stroke="rgb(255,0,0)" stroke-width="0.705556"/>
		<line x1="555.013" y1="336.343" x2="271.113" y2="336.343" stroke="rgb(255,255,0)" stroke-width="0.705556"/>
		<line x1="269.813" y1="334.843" x2="269.813" y2="135.243" stroke="rgb(255,255,0)" stroke-width="0.705556"/>
		<line x1="271.113" y1="133.743" x2="555.013" y2="133.743" stroke="rgb(255,255,0)" stroke-width="0.705556"/>
		<line x1="556.313" y1="135.243" x2="556.313" y2="334.843" stroke="rgb(255,255,0)" stroke-width="0.705556"/>
		<line x1="269.813" y1="334.843" x2="271.113" y2="334.843" stroke="rgb(255,0,0)" stroke-width="0.705556"/>
		<line x1="271.113" y1="334.843" x2="271.113" y2="336.343" stroke="rgb(255,0,0)" stroke-width="0.705556"/>
		<line x1="555.013" y1="336.343" x2="555.013" y2="334.843" stroke="rgb(255,0,0)" stroke-width="0.705556"/>
		<line x1="555.013" y1="334.843" x2="556.313" y2="334.843" stroke="rgb(255,0,0)" stroke-width="0.705556"/>
		<line x1="555.013" y1="133.743" x2="555.013" y2="135.243" stroke="rgb(255,0,0)" stroke-width="0.705556"/>
		<line x1="555.013" y1="135.243" x2="556.313" y2="135.243" stroke="rgb(255,0,0)" stroke-width="0.705556"/>
		<line x1="269.813" y1="135.243" x2="271.113" y2="135.243" stroke="rgb(255,0,0)" stroke-width="0.705556"/>
		<line x1="271.113" y1="135.243" x2="271.113" y2="133.743" stroke="rgb(255,0,0)" stroke-width="0.705556"/>
		<line x1="657.763" y1="334.843" x2="657.763" y2="135.243" stroke="rgb(255,255,0)" stroke-width="0.705556"/>
		<line x1="657.763" y1="135.243" x2="660.363" y2="135.243" stroke="rgb(255,0,0)" stroke-width="0.705556"/>
		<line x1="660.363" y1="334.843" x2="657.763" y2="334.843" stroke="rgb(255,0,0)" stroke-width="0.705556"/>
		<line x1="168.363" y1="135.243" x2="168.363" y2="334.843" stroke="rgb(255,255,0)" stroke-width="0.705556"/>
		<line x1="168.363" y1="334.843" x2="165.763" y2="334.843" stroke="rgb(255,0,0)" stroke-width="0.705556"/>
		<line x1="165.763" y1="135.243" x2="168.363" y2="135.243" stroke="rgb(255,0,0)" stroke-width="0.705556"/>
		<line x1="660.363" y1="334.843" x2="760.513" y2="334.843" stroke="rgb(255,0,0)" stroke-width="0.705556"/>
		<line x1="760.513" y1="135.243" x2="660.363" y2="135.243" stroke="rgb(255,0,0)" stroke-width="0.705556"/>
		<line x1="660.363" y1="135.243" x2="660.363" y2="334.843" stroke="rgb(255,255,0)" stroke-width="0.705556"/>
		<line x1="165.763" y1="135.243" x2="65.6132" y2="135.243" stroke="rgb(255,0,0)" stroke-width="0.705556"/>
		<line x1="65.6132" y1="334.843" x2="165.763" y2="334.843" stroke="rgb(255,0,0)" stroke-width="0.705556"/>
		<line x1="165.763" y1="334.843" x2="165.763" y2="135.243" stroke="rgb(255,255,0)" stroke-width="0.705556"/>
		<line x1="760.513" y1="135.243" x2="775.513" y2="133.243" stroke="rgb(255,0,0)" stroke-width="0.705556"/>
		<line x1="775.513" y1="133.243" x2="775.513" y2="336.843" stroke="rgb(255,0,0)" stroke-width="0.705556"/>
		<line x1="775.513" y1="336.843" x2="760.513" y2="334.843" stroke="rgb(255,0,0)" stroke-width="0.705556"/>
		<line x1="760.513" y1="334.843" x2="760.513" y2="135.243" stroke="rgb(255,255,0)" stroke-width="0.705556"/>
		<line x1="65.6132" y1="334.843" x2="50.6132" y2="336.843" stroke="rgb(255,0,0)" stroke-width="0.705556"/>
		<line x1="50.6132" y1="336.843" x2="50.6132" y2="133.243" stroke="rgb(255,0,0)" stroke-width="0.705556"/>
		<line x1="50.6132" y1="133.243" x2="65.6132" y2="135.243" stroke="rgb(255,0,0)" stroke-width="0.705556"/>
		<line x1="65.6132" y1="135.243" x2="65.6132" y2="334.843" stroke="rgb(255,255,0)" stroke-width="0.705556"/>
		<line x1="555.013" y1="438.293" x2="556.963" y2="439.593" stroke="rgb(255,0,0)" stroke-width="0.705556"/>
		<line x1="556.963" y1="439.593" x2="556.963" y2="640.893" stroke="rgb(255,0,0)" stroke-width="0.705556"/>
		<line x1="269.163" y1="640.893" x2="269.163" y2="439.593" stroke="rgb(255,0,0)" stroke-width="0.705556"/>
		<line x1="269.163" y1="439.593" x2="271.113" y2="438.293" stroke="rgb(255,0,0)" stroke-width="0.705556"/>
		<line x1="556.963" y1="439.593" x2="269.163" y2="439.593" stroke="rgb(255,255,0)" stroke-width="0.705556"/>
		<line x1="553.063" y1="640.893" x2="553.063" y2="655.893" stroke="rgb(255,0,0)" stroke-width="0.705556"/>
		<line x1="538.063" y1="670.893" x2="288.063" y2="670.893" stroke="rgb(255,0,0)" stroke-width="0.705556"/>
		<line x1="273.063" y1="655.893" x2="273.063" y2="640.893" stroke="rgb(255,0,0)" stroke-width="0.705556"/>
		<line x1="269.163" y1="640.893" x2="273.063" y2="640.893" stroke="rgb(255,0,0)" stroke-width="0.705556"/>
		<line x1="273.063" y1="640.893" x2="553.063" y2="640.893" stroke="rgb(255,255,0)" stroke-width="0.705556"/>
		<line x1="553.063" y1="640.893" x2="556.963" y2="640.893" stroke="rgb(255,0,0)" stroke-width="0.705556"/>
		<path d="M538.063,670.893 a15 15 0 0 0 15,-15" fill="none" stroke="rgb(255,0,0)" stroke-width="0.705556"/>
		<path d="M288.063,670.893 a15 15 0 0 1 -15,-15" fill="none" stroke="rgb(255,0,0)" stroke-width="0.705556"/>
		<line x1="419.436" y1="171.469" x2="391.821" y2="171.469" stroke="rgb(64,128,128)" stroke-width="0"/>
		<line x1="401.026" y1="179.953" x2="391.821" y2="179.953" stroke="rgb(64,128,128)" stroke-width="0"/>
		<line x1="410.231" y1="175.711" x2="391.821" y2="175.711" stroke="rgb(64,128,128)" stroke-width="0"/>
		<line x1="428.641" y1="167.227" x2="391.821" y2="167.227" stroke="rgb(64,128,128)" stroke-width="0"/>
		<line x1="437.846" y1="162.985" x2="391.821" y2="162.985" stroke="rgb(64,128,128)" stroke-width="0"/>
		<line x1="447.051" y1="158.743" x2="391.821" y2="158.743" stroke="rgb(64,128,128)" stroke-width="0"/>
		<line x1="391.821" y1="184.195" x2="391.821" y2="158.743" stroke="rgb(64,128,128)" stroke-width="0"/>
		<line x1="447.051" y1="158.743" x2="418.733" y2="187.017" stroke="rgb(64,128,128)" stroke-width="0"/>
		<path d="M418.733,187.017 a26.6045 26.6045 0 0 0 -26.9118,-2.82257" fill="none" stroke="rgb(64,128,128)" stroke-width="0"/>
		<line x1="391.821" y1="184.195" x2="447.051" y2="158.743" stroke="rgb(64,128,128)" stroke-width="0"/>
		<line x1="555.013" y1="336.343" x2="555.013" y2="337.843" stroke="rgb(255,0,0)" stroke-width="0.705556"/>
		<line x1="555.013" y1="337.843" x2="654.313" y2="337.843" stroke="rgb(255,0,0)" stroke-width="0.705556"/>
		<line x1="654.313" y1="337.843" x2="654.313" y2="436.993" stroke="rgb(255,0,0)" stroke-width="0.705556"/>
		<line x1="555.013" y1="337.843" x2="555.013" y2="438.293" stroke="rgb(255,255,0)" stroke-width="0.705556"/>
		<line x1="654.313" y1="436.993" x2="558.013" y2="436.993" stroke="rgb(255,0,0)" stroke-width="0.705556"/>
		<line x1="558.013" y1="436.993" x2="555.013" y2="438.293" stroke="rgb(255,0,0)" stroke-width="0.705556"/>
		<line x1="555.013" y1="133.743" x2="555.013" y2="132.243" stroke="rgb(255,0,0)" stroke-width="0.705556"/>
		<line x1="555.013" y1="132.243" x2="654.313" y2="132.243" stroke="rgb(255,0,0)" stroke-width="0.705556"/>
		<line x1="654.313" y1="132.243" x2="654.313" y2="33.0929" stroke="rgb(255,0,0)" stroke-width="0.705556"/>
		<line x1="555.013" y1="132.243" x2="555.013" y2="31.7929" stroke="rgb(255,255,0)" stroke-width="0.705556"/>
		<line x1="654.313" y1="33.0929" x2="558.013" y2="33.0929" stroke="rgb(255,0,0)" stroke-width="0.705556"/>
		<line x1="558.013" y1="33.0929" x2="555.013" y2="31.7929" stroke="rgb(255,0,0)" stroke-width="0.705556"/>
		<line x1="271.113" y1="133.743" x2="271.113" y2="132.243" stroke="rgb(255,0,0)" stroke-width="0.705556"/>
		<line x1="271.113" y1="132.243" x2="171.813" y2="132.243" stroke="rgb(255,0,0)" stroke-width="0.705556"/>
		<line x1="171.813" y1="132.243" x2="171.813" y2="33.0929" stroke="rgb(255,0,0)" stroke-width="0.705556"/>
		<line x1="271.113" y1="132.243" x2="271.113" y2="31.7929" stroke="rgb(255,255,0)" stroke-width="0.705556"/>
		<line x1="171.813" y1="33.0929" x2="268.113" y2="33.0929" stroke="rgb(255,0,0)" stroke-width="0.705556"/>
		<line x1="268.113" y1="33.0929" x2="271.113" y2="31.7929" stroke="rgb(255,0,0)" stroke-width="0.705556"/>
		<line x1="271.113" y1="336.343" x2="271.113" y2="337.843" stroke="rgb(255,0,0)" stroke-width="0.705556"/>
		<line x1="271.113" y1="337.843" x2="171.813" y2="337.843" stroke="rgb(255,0,0)" stroke-width="0.705556"/>
		<line x1="171.813" y1="337.843" x2="171.813" y2="436.993" stroke="rgb(255,0,0)" stroke-width="0.705556"/>
		<line x1="271.113" y1="337.843" x2="271.113" y2="438.293" stroke="rgb(255,255,0)" stroke-width="0.705556"/>
		<line x1="171.813" y1="436.993" x2="268.113" y2="436.993" stroke="rgb(255,0,0)" stroke-width="0.705556"/>
		<line x1="268.113" y1="436.993" x2="271.113" y2="438.293" stroke="rgb(255,0,0)" stroke-width="0.705556"/>
	</g>
</svg>