<svg version = "1.1" xmlns = "http://www.w3.org/2000/svg" xmlns:xlink="http://www.w3.org/1999/xlink" width="498.206" height="531.556" viewbox = "0 0 498.206 531.556">
	<g transform="translate(-102.683,581.303) scale(1,-1) ">
		<line x1="495.036" y1="50.1" x2="365.786" y2="50.1" stroke="rgb(255,0,0)" stroke-width="0.705556"/>
		<line x1="337.786" y1="50.1" x2="208.536" y2="50.1" stroke="rgb(255,0,0)" stroke-width="0.705556"/>
		<line x1="495.036" y1="303.35" x2="208.536" y2="303.35" stroke="rgb(255,255,0)" stroke-width="0.705556"/>
		<line x1="207.236" y1="303.35" x2="207.236" y2="277.7" stroke="rgb(255,255,0)" stroke-width="0.705556"/>
		<line x1="207.236" y1="244.367" x2="207.236" y2="159.733" stroke="rgb(255,255,0)" stroke-width="0.705556"/>
		<line x1="207.236" y1="126.4" x2="207.236" y2="100.75" stroke="rgb(255,255,0)" stroke-width="0.705556"/>
		<line x1="208.536" y1="100.75" x2="495.036" y2="100.75" stroke="rgb(255,255,0)" stroke-width="0.705556"/>
		<line x1="496.336" y1="100.75" x2="496.336" y2="126.4" stroke="rgb(255,255,0)" stroke-width="0.705556"/>
		<line x1="496.336" y1="159.733" x2="496.336" y2="244.367" stroke="rgb(255,255,0)" stroke-width="0.705556"/>
		<line x1="496.336" y1="277.7" x2="496.336" y2="303.35" stroke="rgb(255,255,0)" stroke-width="0.705556"/>
		<line x1="207.236" y1="303.35" x2="207.236" y2="304" stroke="rgb(255,255,0)" stroke-width="0.705556"/>
		<line x1="496.336" y1="303.35" x2="496.336" y2="304" stroke="rgb(255,255,0)" stroke-width="0.705556"/>
		<line x1="496.336" y1="100.75" x2="496.336" y2="100.1" stroke="rgb(255,255,0)" stroke-width="0.705556"/>
		<line x1="207.236" y1="100.75" x2="207.236" y2="100.1" stroke="rgb(255,255,0)" stroke-width="0.705556"/>
		<line x1="546.486" y1="304" x2="546.486" y2="100.1" stroke="rgb(255,255,0)" stroke-width="0.705556"/>
		<line x1="546.486" y1="100.1" x2="549.086" y2="101.4" stroke="rgb(255,0,0)" stroke-width="0.705556"/>
		<line x1="549.086" y1="302.7" x2="546.486" y2="304" stroke="rgb(255,0,0)" stroke-width="0.705556"/>
		<line x1="549.086" y1="302.7" x2="549.086" y2="302.7" stroke="rgb(255,0,0)" stroke-width="0.705556"/>
		<line x1="549.086" y1="302.7" x2="598.586" y2="302.7" stroke="rgb(255,0,0)" stroke-width="0.705556"/>
		<line x1="598.586" y1="302.7" x2="598.586" y2="277.7" stroke="rgb(255,0,0)" stroke-width="0.705556"/>
		<line x1="598.586" y1="244.367" x2="598.586" y2="159.733" stroke="rgb(255,0,0)" stroke-width="0.705556"/>
		<line x1="598.586" y1="126.4" x2="598.586" y2="101.4" stroke="rgb(255,0,0)" stroke-width="0.705556"/>
		<line x1="598.586" y1="101.4" x2="549.086" y2="101.4" stroke="rgb(255,0,0)" stroke-width="0.705556"/>
		<line x1="549.086" y1="101.4" x2="549.086" y2="101.4" stroke="rgb(255,0,0)" stroke-width="0.705556"/>
		<line x1="549.086" y1="302.7" x2="549.086" y2="101.4" stroke="rgb(255,255,0)" stroke-width="0.705556"/>
		<line x1="157.086" y1="100.1" x2="157.086" y2="304" stroke="rgb(255,255,0)" stroke-width="0.705556"/>
		<line x1="157.086" y1="304" x2="154.486" y2="302.7" stroke="rgb(255,0,0)" stroke-width="0.705556"/>
		<line x1="154.486" y1="101.4" x2="157.086" y2="100.1" stroke="rgb(255,0,0)" stroke-width="0.705556"/>
		<line x1="154.486" y1="101.4" x2="154.486" y2="101.4" stroke="rgb(255,0,0)" stroke-width="0.705556"/>
		<line x1="154.486" y1="101.4" x2="104.986" y2="101.4" stroke="rgb(255,0,0)" stroke-width="0.705556"/>
		<line x1="104.986" y1="101.4" x2="104.986" y2="126.4" stroke="rgb(255,0,0)" stroke-width="0.705556"/>
		<line x1="104.986" y1="159.733" x2="104.986" y2="244.367" stroke="rgb(255,0,0)" stroke-width="0.705556"/>
		<line x1="104.986" y1="277.7" x2="104.986" y2="302.7" stroke="rgb(255,0,0)" stroke-width="0.705556"/>
		<line x1="104.986" y1="302.7" x2="154.486" y2="302.7" stroke="rgb(255,0,0)" stroke-width="0.705556"/>
		<line x1="154.486" y1="302.7" x2="154.486" y2="302.7" stroke="rgb(255,0,0)" stroke-width="0.705556"/>
		<line x1="154.486" y1="101.4" x2="154.486" y2="302.7" stroke="rgb(255,255,0)" stroke-width="0.705556"/>
		<line x1="495.036" y1="50.1" x2="496.336" y2="51.4" stroke="rgb(255,0,0)" stroke-width="0.705556"/>
		<line x1="496.336" y1="51.4" x2="572.861" y2="51.4" stroke="rgb(255,0,0)" stroke-width="0.705556"/>
		<line x1="572.861" y1="51.4" x2="572.861" y2="95.1" stroke="rgb(255,0,0)" stroke-width="0.705556"/>
		<line x1="572.861" y1="95.1" x2="572.861" y2="95.1" stroke="rgb(255,0,0)" stroke-width="0.705556"/>
		<line x1="572.861" y1="95.1" x2="546.486" y2="100.1" stroke="rgb(255,0,0)" stroke-width="0.705556"/>
		<line x1="546.486" y1="100.1" x2="496.336" y2="100.1" stroke="rgb(255,0,0)" stroke-width="0.705556"/>
		<line x1="496.336" y1="100.1" x2="495.036" y2="100.75" stroke="rgb(255,0,0)" stroke-width="0.705556"/>
		<line x1="495.036" y1="50.1" x2="495.036" y2="100.75" stroke="rgb(255,255,0)" stroke-width="0.705556"/>
		<line x1="208.536" y1="50.1" x2="207.236" y2="51.4" stroke="rgb(255,0,0)" stroke-width="0.705556"/>
		<line x1="207.236" y1="51.4" x2="130.711" y2="51.4" stroke="rgb(255,0,0)" stroke-width="0.705556"/>
		<line x1="130.711" y1="51.4" x2="130.711" y2="95.1" stroke="rgb(255,0,0)" stroke-width="0.705556"/>
		<line x1="130.711" y1="95.1" x2="130.711" y2="95.1" stroke="rgb(255,0,0)" stroke-width="0.705556"/>
		<line x1="130.711" y1="95.1" x2="157.086" y2="100.1" stroke="rgb(255,0,0)" stroke-width="0.705556"/>
		<line x1="157.086" y1="100.1" x2="207.236" y2="100.1" stroke="rgb(255,0,0)" stroke-width="0.705556"/>
		<line x1="207.236" y1="100.1" x2="208.536" y2="100.75" stroke="rgb(255,0,0)" stroke-width="0.705556"/>
		<line x1="208.536" y1="50.1" x2="208.536" y2="100.75" stroke="rgb(255,255,0)" stroke-width="0.705556"/>
		<line x1="211.136" y1="354.65" x2="492.436" y2="354.65" stroke="rgb(255,255,0)" stroke-width="0.705556"/>
		<line x1="492.436" y1="555.95" x2="492.436" y2="555.95" stroke="rgb(255,0,0)" stroke-width="0.705556"/>
		<line x1="492.436" y1="555.95" x2="543.086" y2="545.95" stroke="rgb(255,0,0)" stroke-width="0.705556"/>
		<line x1="543.086" y1="545.95" x2="543.086" y2="355.95" stroke="rgb(255,0,0)" stroke-width="0.705556"/>
		<line x1="543.086" y1="355.95" x2="492.436" y2="355.95" stroke="rgb(255,0,0)" stroke-width="0.705556"/>
		<line x1="492.436" y1="355.95" x2="492.436" y2="354.65" stroke="rgb(255,0,0)" stroke-width="0.705556"/>
		<line x1="492.436" y1="555.95" x2="492.436" y2="355.95" stroke="rgb(255,255,0)" stroke-width="0.705556"/>
		<line x1="211.136" y1="555.95" x2="211.136" y2="555.95" stroke="rgb(255,0,0)" stroke-width="0.705556"/>
		<line x1="211.136" y1="555.95" x2="160.486" y2="545.95" stroke="rgb(255,0,0)" stroke-width="0.705556"/>
		<line x1="160.486" y1="545.95" x2="160.486" y2="355.95" stroke="rgb(255,0,0)" stroke-width="0.705556"/>
		<line x1="160.486" y1="355.95" x2="211.136" y2="355.95" stroke="rgb(255,0,0)" stroke-width="0.705556"/>
		<line x1="211.136" y1="355.95" x2="211.136" y2="354.65" stroke="rgb(255,0,0)" stroke-width="0.705556"/>
		<line x1="211.136" y1="555.95" x2="211.136" y2="355.95" stroke="rgb(255,255,0)" stroke-width="0.705556"/>
		<line x1="211.136" y1="555.95" x2="211.136" y2="580.95" stroke="rgb(255,0,0)" stroke-width="0.705556"/>
		<line x1="211.136" y1="580.95" x2="492.436" y2="580.95" stroke="rgb(255,0,0)" stroke-width="0.705556"/>
		<line x1="492.436" y1="580.95" x2="492.436" y2="555.95" stroke="rgb(255,0,0)" stroke-width="0.705556"/>
		<line x1="492.436" y1="555.95" x2="211.136" y2="555.95" stroke="rgb(255,255,0)" stroke-width="0.705556"/>
		<line x1="495.036" y1="353.35" x2="572.861" y2="353.35" stroke="rgb(255,0,0)" stroke-width="0.705556"/>
		<line x1="572.861" y1="353.35" x2="572.861" y2="309" stroke="rgb(255,0,0)" stroke-width="0.705556"/>
		<line x1="572.861" y1="309" x2="572.861" y2="309" stroke="rgb(255,0,0)" stroke-width="0.705556"/>
		<line x1="572.861" y1="309" x2="546.486" y2="304" stroke="rgb(255,0,0)" stroke-width="0.705556"/>
		<line x1="546.486" y1="304" x2="496.336" y2="304" stroke="rgb(255,0,0)" stroke-width="0.705556"/>
		<line x1="496.336" y1="304" x2="495.036" y2="303.35" stroke="rgb(255,0,0)" stroke-width="0.705556"/>
		<line x1="495.036" y1="353.35" x2="495.036" y2="303.35" stroke="rgb(255,255,0)" stroke-width="0.705556"/>
		<line x1="208.536" y1="353.35" x2="130.711" y2="353.35" stroke="rgb(255,0,0)" stroke-width="0.705556"/>
		<line x1="130.711" y1="353.35" x2="130.711" y2="309" stroke="rgb(255,0,0)" stroke-width="0.705556"/>
		<line x1="130.711" y1="309" x2="130.711" y2="309" stroke="rgb(255,0,0)" stroke-width="0.705556"/>
		<line x1="130.711" y1="309" x2="157.086" y2="304" stroke="rgb(255,0,0)" stroke-width="0.705556"/>
		<line x1="157.086" y1="304" x2="207.236" y2="304" stroke="rgb(255,0,0)" stroke-width="0.705556"/>
		<line x1="207.236" y1="304" x2="208.536" y2="303.35" stroke="rgb(255,0,0)" stroke-width="0.705556"/>
		<line x1="208.536" y1="353.35" x2="208.536" y2="303.35" stroke="rgb(255,255,0)" stroke-width="0.705556"/>
		<line x1="495.036" y1="353.35" x2="492.436" y2="354.65" stroke="rgb(255,0,0)" stroke-width="0.705556"/>
		<line x1="208.536" y1="353.35" x2="211.136" y2="354.65" stroke="rgb(255,0,0)" stroke-width="0.705556"/>
		<line x1="337.786" y1="50.1" x2="343.386" y2="62.6" stroke="rgb(255,0,0)" stroke-width="0.705556"/>
		<line x1="343.386" y1="62.6" x2="360.186" y2="62.6" stroke="rgb(255,0,0)" stroke-width="0.705556"/>
		<line x1="360.186" y1="62.6" x2="365.786" y2="50.1" stroke="rgb(255,0,0)" stroke-width="0.705556"/>
		<line x1="358.158" y1="138.476" x2="330.543" y2="138.476" stroke="rgb(64,128,128)" stroke-width="0"/>
		<line x1="339.748" y1="146.96" x2="330.543" y2="146.96" stroke="rgb(64,128,128)" stroke-width="0"/>
		<line x1="348.953" y1="142.718" x2="330.543" y2="142.718" stroke="rgb(64,128,128)" stroke-width="0"/>
		<line x1="367.363" y1="134.234" x2="330.543" y2="134.234" stroke="rgb(64,128,128)" stroke-width="0"/>
		<line x1="376.568" y1="129.992" x2="330.543" y2="129.992" stroke="rgb(64,128,128)" stroke-width="0"/>
		<line x1="385.773" y1="125.75" x2="330.543" y2="125.75" stroke="rgb(64,128,128)" stroke-width="0"/>
		<line x1="330.543" y1="151.202" x2="330.543" y2="125.75" stroke="rgb(64,128,128)" stroke-width="0"/>
		<line x1="385.773" y1="125.75" x2="357.455" y2="154.025" stroke="rgb(64,128,128)" stroke-width="0"/>
		<path d="M357.455,154.025 a26.6045 26.6045 0 0 0 -26.9118,-2.82257" fill="none" stroke="rgb(64,128,128)" stroke-width="0"/>
		<line x1="330.543" y1="151.202" x2="385.773" y2="125.75" stroke="rgb(64,128,128)" stroke-width="0"/>
		<line x1="104.986" y1="126.4" x2="103.036" y2="127.4" stroke="rgb(255,0,0)" stroke-width="0.705556"/>
		<line x1="103.036" y1="127.4" x2="103.036" y2="158.733" stroke="rgb(255,0,0)" stroke-width="0.705556"/>
		<line x1="103.036" y1="158.733" x2="104.986" y2="159.733" stroke="rgb(255,0,0)" stroke-width="0.705556"/>
		<line x1="104.986" y1="244.367" x2="103.036" y2="245.367" stroke="rgb(255,0,0)" stroke-width="0.705556"/>
		<line x1="103.036" y1="245.367" x2="103.036" y2="276.7" stroke="rgb(255,0,0)" stroke-width="0.705556"/>
		<line x1="103.036" y1="276.7" x2="104.986" y2="277.7" stroke="rgb(255,0,0)" stroke-width="0.705556"/>
		<line x1="104.986" y1="244.367" x2="103.036" y2="245.367" stroke="rgb(255,0,0)" stroke-width="0.705556"/>
		<line x1="103.036" y1="245.367" x2="103.036" y2="276.7" stroke="rgb(255,0,0)" stroke-width="0.705556"/>
		<line x1="103.036" y1="276.7" x2="104.986" y2="277.7" stroke="rgb(255,0,0)" stroke-width="0.705556"/>
		<line x1="104.986" y1="244.367" x2="103.036" y2="245.367" stroke="rgb(255,0,0)" stroke-width="0.705556"/>
		<line x1="103.036" y1="245.367" x2="103.036" y2="276.7" stroke="rgb(255,0,0)" stroke-width="0.705556"/>
		<line x1="103.036" y1="276.7" x2="104.986" y2="277.7" stroke="rgb(255,0,0)" stroke-width="0.705556"/>
		<line x1="104.986" y1="244.367" x2="103.036" y2="245.367" stroke="rgb(255,0,0)" stroke-width="0.705556"/>
		<line x1="103.036" y1="245.367" x2="103.036" y2="276.7" stroke="rgb(255,0,0)" stroke-width="0.705556"/>
		<line x1="103.036" y1="276.7" x2="104.986" y2="277.7" stroke="rgb(255,0,0)" stroke-width="0.705556"/>
		<line x1="104.986" y1="244.367" x2="103.036" y2="245.367" stroke="rgb(255,0,0)" stroke-width="0.705556"/>
		<line x1="103.036" y1="245.367" x2="103.036" y2="276.7" stroke="rgb(255,0,0)" stroke-width="0.705556"/>
		<line x1="103.036" y1="276.7" x2="104.986" y2="277.7" stroke="rgb(255,0,0)" stroke-width="0.705556"/>
		<line x1="104.986" y1="244.367" x2="103.036" y2="245.367" stroke="rgb(255,0,0)" stroke-width="0.705556"/>
		<line x1="103.036" y1="245.367" x2="103.036" y2="276.7" stroke="rgb(255,0,0)" stroke-width="0.705556"/>
		<line x1="103.036" y1="276.7" x2="104.986" y2="277.7" stroke="rgb(255,0,0)" stroke-width="0.705556"/>
		<line x1="104.986" y1="244.367" x2="103.036" y2="245.367" stroke="rgb(255,0,0)" stroke-width="0.705556"/>
		<line x1="103.036" y1="245.367" x2="103.036" y2="276.7" stroke="rgb(255,0,0)" stroke-width="0.705556"/>
		<line x1="103.036" y1="276.7" x2="104.986" y2="277.7" stroke="rgb(255,0,0)" stroke-width="0.705556"/>
		<line x1="104.986" y1="244.367" x2="103.036" y2="245.367" stroke="rgb(255,0,0)" stroke-width="0.705556"/>
		<line x1="103.036" y1="245.367" x2="103.036" y2="276.7" stroke="rgb(255,0,0)" stroke-width="0.705556"/>
		<line x1="103.036" y1="276.7" x2="104.986" y2="277.7" stroke="rgb(255,0,0)" stroke-width="0.705556"/>
		<line x1="104.986" y1="244.367" x2="103.036" y2="245.367" stroke="rgb(255,0,0)" stroke-width="0.705556"/>
		<line x1="103.036" y1="245.367" x2="103.036" y2="276.7" stroke="rgb(255,0,0)" stroke-width="0.705556"/>
		<line x1="103.036" y1="276.7" x2="104.986" y2="277.7" stroke="rgb(255,0,0)" stroke-width="0.705556"/>
		<line x1="104.986" y1="244.367" x2="103.036" y2="245.367" stroke="rgb(255,0,0)" stroke-width="0.705556"/>
		<line x1="103.036" y1="245.367" x2="103.036" y2="276.7" stroke="rgb(255,0,0)" stroke-width="0.705556"/>
		<line x1="103.036" y1="276.7" x2="104.986" y2="277.7" stroke="rgb(255,0,0)" stroke-width="0.705556"/>
		<line x1="104.986" y1="244.367" x2="103.036" y2="245.367" stroke="rgb(255,0,0)" stroke-width="0.705556"/>
		<line x1="103.036" y1="245.367" x2="103.036" y2="276.7" stroke="rgb(255,0,0)" stroke-width="0.705556"/>
		<line x1="103.036" y1="276.7" x2="104.986" y2="277.7" stroke="rgb(255,0,0)" stroke-width="0.705556"/>
		<line x1="104.986" y1="244.367" x2="103.036" y2="245.367" stroke="rgb(255,0,0)" stroke-width="0.705556"/>
		<line x1="103.036" y1="245.367" x2="103.036" y2="276.7" stroke="rgb(255,0,0)" stroke-width="0.705556"/>
		<line x1="103.036" y1="276.7" x2="104.986" y2="277.7" stroke="rgb(255,0,0)" stroke-width="0.705556"/>
		<line x1="104.986" y1="244.367" x2="103.036" y2="245.367" stroke="rgb(255,0,0)" stroke-width="0.705556"/>
		<line x1="103.036" y1="245.367" x2="103.036" y2="276.7" stroke="rgb(255,0,0)" stroke-width="0.705556"/>
		<line x1="103.036" y1="276.7" x2="104.986" y2="277.7" stroke="rgb(255,0,0)" stroke-width="0.705556"/>
		<line x1="104.986" y1="244.367" x2="103.036" y2="245.367" stroke="rgb(255,0,0)" stroke-width="0.705556"/>
		<line x1="103.036" y1="245.367" x2="103.036" y2="276.7" stroke="rgb(255,0,0)" stroke-width="0.705556"/>
		<line x1="103.036" y1="276.7" x2="104.986" y2="277.7" stroke="rgb(255,0,0)" stroke-width="0.705556"/>
		<line x1="104.986" y1="244.367" x2="103.036" y2="245.367" stroke="rgb(255,0,0)" stroke-width="0.705556"/>
		<line x1="103.036" y1="245.367" x2="103.036" y2="276.7" stroke="rgb(255,0,0)" stroke-width="0.705556"/>
		<line x1="103.036" y1="276.7" x2="104.986" y2="277.7" stroke="rgb(255,0,0)" stroke-width="0.705556"/>
		<line x1="104.986" y1="244.367" x2="103.036" y2="245.367" stroke="rgb(255,0,0)" stroke-width="0.705556"/>
		<line x1="103.036" y1="245.367" x2="103.036" y2="276.7" stroke="rgb(255,0,0)" stroke-width="0.705556"/>
		<line x1="103.036" y1="276.7" x2="104.986" y2="277.7" stroke="rgb(255,0,0)" stroke-width="0.705556"/>
		<line x1="104.986" y1="244.367" x2="103.036" y2="245.367" stroke="rgb(255,0,0)" stroke-width="0.705556"/>
		<line x1="103.036" y1="245.367" x2="103.036" y2="276.7" stroke="rgb(255,0,0)" stroke-width="0.705556"/>
		<line x1="103.036" y1="276.7" x2="104.986" y2="277.7" stroke="rgb(255,0,0)" stroke-width="0.705556"/>
		<line x1="104.986" y1="244.367" x2="103.036" y2="245.367" stroke="rgb(255,0,0)" stroke-width="0.705556"/>
		<line x1="103.036" y1="245.367" x2="103.036" y2="276.7" stroke="rgb(255,0,0)" stroke-width="0.705556"/>
		<line x1="103.036" y1="276.7" x2="104.986" y2="277.7" stroke="rgb(255,0,0)" stroke-width="0.705556"/>
		<line x1="210.486" y1="126.4" x2="210.486" y2="126.4" stroke="rgb(255,0,0)" stroke-width="0.705556"/>
		<line x1="210.486" y1="159.733" x2="210.486" y2="159.733" stroke="rgb(255,0,0)" stroke-width="0.705556"/>
		<line x1="210.486" y1="244.367" x2="207.236" y2="244.367" stroke="rgb(255,0,0)" stroke-width="0.705556"/>
		<line x1="207.236" y1="244.367" x2="207.236" y2="277.7" stroke="rgb(255,0,0)" stroke-width="0.705556"/>
		<line x1="207.236" y1="277.7" x2="210.486" y2="277.7" stroke="rgb(255,0,0)" stroke-width="0.705556"/>
		<line x1="210.486" y1="277.7" x2="210.486" y2="244.367" stroke="rgb(255,0,0)" stroke-width="0.705556"/>
		<line x1="210.486" y1="244.367" x2="210.486" y2="244.367" stroke="rgb(255,0,0)" stroke-width="0.705556"/>
		<line x1="210.486" y1="277.7" x2="210.486" y2="277.7" stroke="rgb(255,0,0)" stroke-width="0.705556"/>
		<line x1="210.486" y1="126.4" x2="210.486" y2="126.4" stroke="rgb(255,0,0)" stroke-width="0.705556"/>
		<line x1="210.486" y1="159.733" x2="210.486" y2="159.733" stroke="rgb(255,0,0)" stroke-width="0.705556"/>
		<line x1="210.486" y1="126.4" x2="210.486" y2="126.4" stroke="rgb(255,0,0)" stroke-width="0.705556"/>
		<line x1="210.486" y1="159.733" x2="210.486" y2="159.733" stroke="rgb(255,0,0)" stroke-width="0.705556"/>
		<line x1="210.486" y1="126.4" x2="210.486" y2="126.4" stroke="rgb(255,0,0)" stroke-width="0.705556"/>
		<line x1="210.486" y1="159.733" x2="210.486" y2="159.733" stroke="rgb(255,0,0)" stroke-width="0.705556"/>
		<line x1="210.486" y1="126.4" x2="210.486" y2="126.4" stroke="rgb(255,0,0)" stroke-width="0.705556"/>
		<line x1="210.486" y1="159.733" x2="210.486" y2="159.733" stroke="rgb(255,0,0)" stroke-width="0.705556"/>
		<line x1="210.486" y1="126.4" x2="210.486" y2="126.4" stroke="rgb(255,0,0)" stroke-width="0.705556"/>
		<line x1="210.486" y1="159.733" x2="210.486" y2="159.733" stroke="rgb(255,0,0)" stroke-width="0.705556"/>
		<line x1="210.486" y1="126.4" x2="210.486" y2="126.4" stroke="rgb(255,0,0)" stroke-width="0.705556"/>
		<line x1="210.486" y1="159.733" x2="210.486" y2="159.733" stroke="rgb(255,0,0)" stroke-width="0.705556"/>
		<line x1="210.486" y1="126.4" x2="210.486" y2="126.4" stroke="rgb(255,0,0)" stroke-width="0.705556"/>
		<line x1="210.486" y1="159.733" x2="210.486" y2="159.733" stroke="rgb(255,0,0)" stroke-width="0.705556"/>
		<line x1="210.486" y1="126.4" x2="210.486" y2="126.4" stroke="rgb(255,0,0)" stroke-width="0.705556"/>
		<line x1="210.486" y1="159.733" x2="210.486" y2="159.733" stroke="rgb(255,0,0)" stroke-width="0.705556"/>
		<line x1="210.486" y1="126.4" x2="210.486" y2="126.4" stroke="rgb(255,0,0)" stroke-width="0.705556"/>
		<line x1="210.486" y1="159.733" x2="210.486" y2="159.733" stroke="rgb(255,0,0)" stroke-width="0.705556"/>
		<line x1="210.486" y1="126.4" x2="210.486" y2="126.4" stroke="rgb(255,0,0)" stroke-width="0.705556"/>
		<line x1="210.486" y1="159.733" x2="210.486" y2="159.733" stroke="rgb(255,0,0)" stroke-width="0.705556"/>
		<line x1="210.486" y1="126.4" x2="210.486" y2="126.4" stroke="rgb(255,0,0)" stroke-width="0.705556"/>
		<line x1="210.486" y1="159.733" x2="210.486" y2="159.733" stroke="rgb(255,0,0)" stroke-width="0.705556"/>
		<line x1="210.486" y1="126.4" x2="210.486" y2="126.4" stroke="rgb(255,0,0)" stroke-width="0.705556"/>
		<line x1="210.486" y1="159.733" x2="210.486" y2="159.733" stroke="rgb(255,0,0)" stroke-width="0.705556"/>
		<line x1="210.486" y1="126.4" x2="210.486" y2="126.4" stroke="rgb(255,0,0)" stroke-width="0.705556"/>
		<line x1="210.486" y1="159.733" x2="210.486" y2="159.733" stroke="rgb(255,0,0)" stroke-width="0.705556"/>
		<line x1="210.486" y1="126.4" x2="210.486" y2="126.4" stroke="rgb(255,0,0)" stroke-width="0.705556"/>
		<line x1="210.486" y1="159.733" x2="210.486" y2="159.733" stroke="rgb(255,0,0)" stroke-width="0.705556"/>
		<line x1="210.486" y1="126.4" x2="210.486" y2="126.4" stroke="rgb(255,0,0)" stroke-width="0.705556"/>
		<line x1="210.486" y1="159.733" x2="210.486" y2="159.733" stroke="rgb(255,0,0)" stroke-width="0.705556"/>
		<line x1="210.486" y1="126.4" x2="210.486" y2="126.4" stroke="rgb(255,0,0)" stroke-width="0.705556"/>
		<line x1="210.486" y1="159.733" x2="210.486" y2="159.733" stroke="rgb(255,0,0)" stroke-width="0.705556"/>
		<line x1="210.486" y1="126.4" x2="207.236" y2="126.4" stroke="rgb(255,0,0)" stroke-width="0.705556"/>
		<line x1="207.236" y1="126.4" x2="207.236" y2="159.733" stroke="rgb(255,0,0)" stroke-width="0.705556"/>
		<line x1="207.236" y1="159.733" x2="210.486" y2="159.733" stroke="rgb(255,0,0)" stroke-width="0.705556"/>
		<line x1="210.486" y1="159.733" x2="210.486" y2="126.4" stroke="rgb(255,0,0)" stroke-width="0.705556"/>
		<line x1="210.486" y1="126.4" x2="210.486" y2="126.4" stroke="rgb(255,0,0)" stroke-width="0.705556"/>
		<line x1="210.486" y1="159.733" x2="210.486" y2="159.733" stroke="rgb(255,0,0)" stroke-width="0.705556"/>
		<line x1="598.586" y1="277.7" x2="600.536" y2="276.7" stroke="rgb(255,0,0)" stroke-width="0.705556"/>
		<line x1="600.536" y1="276.7" x2="600.536" y2="245.367" stroke="rgb(255,0,0)" stroke-width="0.705556"/>
		<line x1="600.536" y1="245.367" x2="598.586" y2="244.367" stroke="rgb(255,0,0)" stroke-width="0.705556"/>
		<line x1="598.586" y1="159.733" x2="600.536" y2="158.733" stroke="rgb(255,0,0)" stroke-width="0.705556"/>
		<line x1="600.536" y1="158.733" x2="600.536" y2="127.4" stroke="rgb(255,0,0)" stroke-width="0.705556"/>
		<line x1="600.536" y1="127.4" x2="598.586" y2="126.4" stroke="rgb(255,0,0)" stroke-width="0.705556"/>
		<line x1="598.586" y1="159.733" x2="600.536" y2="158.733" stroke="rgb(255,0,0)" stroke-width="0.705556"/>
		<line x1="600.536" y1="158.733" x2="600.536" y2="127.4" stroke="rgb(255,0,0)" stroke-width="0.705556"/>
		<line x1="600.536" y1="127.4" x2="598.586" y2="126.4" stroke="rgb(255,0,0)" stroke-width="0.705556"/>
		<line x1="598.586" y1="159.733" x2="600.536" y2="158.733" stroke="rgb(255,0,0)" stroke-width="0.705556"/>
		<line x1="600.536" y1="158.733" x2="600.536" y2="127.4" stroke="rgb(255,0,0)" stroke-width="0.705556"/>
		<line x1="600.536" y1="127.4" x2="598.586" y2="126.4" stroke="rgb(255,0,0)" stroke-width="0.705556"/>
		<line x1="598.586" y1="159.733" x2="600.536" y2="158.733" stroke="rgb(255,0,0)" stroke-width="0.705556"/>
		<line x1="600.536" y1="158.733" x2="600.536" y2="127.4" stroke="rgb(255,0,0)" stroke-width="0.705556"/>
		<line x1="600.536" y1="127.4" x2="598.586" y2="126.4" stroke="rgb(255,0,0)" stroke-width="0.705556"/>
		<line x1="598.586" y1="159.733" x2="600.536" y2="158.733" stroke="rgb(255,0,0)" stroke-width="0.705556"/>
		<line x1="600.536" y1="158.733" x2="600.536" y2="127.4" stroke="rgb(255,0,0)" stroke-width="0.705556"/>
		<line x1="600.536" y1="127.4" x2="598.586" y2="126.4" stroke="rgb(255,0,0)" stroke-width="0.705556"/>
		<line x1="598.586" y1="159.733" x2="600.536" y2="158.733" stroke="rgb(255,0,0)" stroke-width="0.705556"/>
		<line x1="600.536" y1="158.733" x2="600.536" y2="127.4" stroke="rgb(255,0,0)" stroke-width="0.705556"/>
		<line x1="600.536" y1="127.4" x2="598.586" y2="126.4" stroke="rgb(255,0,0)" stroke-width="0.705556"/>
		<line x1="598.586" y1="159.733" x2="600.536" y2="158.733" stroke="rgb(255,0,0)" stroke-width="0.705556"/>
		<line x1="600.536" y1="158.733" x2="600.536" y2="127.4" stroke="rgb(255,0,0)" stroke-width="0.705556"/>
		<line x1="600.536" y1="127.4" x2="598.586" y2="126.4" stroke="rgb(255,0,0)" stroke-width="0.705556"/>
		<line x1="598.586" y1="159.733" x2="600.536" y2="158.733" stroke="rgb(255,0,0)" stroke-width="0.705556"/>
		<line x1="600.536" y1="158.733" x2="600.536" y2="127.4" stroke="rgb(255,0,0)" stroke-width="0.705556"/>
		<line x1="600.536" y1="127.4" x2="598.586" y2="126.4" stroke="rgb(255,0,0)" stroke-width="0.705556"/>
		<line x1="598.586" y1="159.733" x2="600.536" y2="158.733" stroke="rgb(255,0,0)" stroke-width="0.705556"/>
		<line x1="600.536" y1="158.733" x2="600.536" y2="127.4" stroke="rgb(255,0,0)" stroke-width="0.705556"/>
		<line x1="600.536" y1="127.4" x2="598.586" y2="126.4" stroke="rgb(255,0,0)" stroke-width="0.705556"/>
		<line x1="598.586" y1="159.733" x2="600.536" y2="158.733" stroke="rgb(255,0,0)" stroke-width="0.705556"/>
		<line x1="600.536" y1="158.733" x2="600.536" y2="127.4" stroke="rgb(255,0,0)" stroke-width="0.705556"/>
		<line x1="600.536" y1="127.4" x2="598.586" y2="126.4" stroke="rgb(255,0,0)" stroke-width="0.705556"/>
		<line x1="598.586" y1="159.733" x2="600.536" y2="158.733" stroke="rgb(255,0,0)" stroke-width="0.705556"/>
		<line x1="600.536" y1="158.733" x2="600.536" y2="127.4" stroke="rgb(255,0,0)" stroke-width="0.705556"/>
		<line x1="600.536" y1="127.4" x2="598.586" y2="126.4" stroke="rgb(255,0,0)" stroke-width="0.705556"/>
		<line x1="598.586" y1="159.733" x2="600.536" y2="158.733" stroke="rgb(255,0,0)" stroke-width="0.705556"/>
		<line x1="600.536" y1="158.733" x2="600.536" y2="127.4" stroke="rgb(255,0,0)" stroke-width="0.705556"/>
		<line x1="600.536" y1="127.4" x2="598.586" y2="126.4" stroke="rgb(255,0,0)" stroke-width="0.705556"/>
		<line x1="598.586" y1="159.733" x2="600.536" y2="158.733" stroke="rgb(255,0,0)" stroke-width="0.705556"/>
		<line x1="600.536" y1="158.733" x2="600.536" y2="127.4" stroke="rgb(255,0,0)" stroke-width="0.705556"/>
		<line x1="600.536" y1="127.4" x2="598.586" y2="126.4" stroke="rgb(255,0,0)" stroke-width="0.705556"/>
		<line x1="598.586" y1="159.733" x2="600.536" y2="158.733" stroke="rgb(255,0,0)" stroke-width="0.705556"/>
		<line x1="600.536" y1="158.733" x2="600.536" y2="127.4" stroke="rgb(255,0,0)" stroke-width="0.705556"/>
		<line x1="600.536" y1="127.4" x2="598.586" y2="126.4" stroke="rgb(255,0,0)" stroke-width="0.705556"/>
		<line x1="598.586" y1="159.733" x2="600.536" y2="158.733" stroke="rgb(255,0,0)" stroke-width="0.705556"/>
		<line x1="600.536" y1="158.733" x2="600.536" y2="127.4" stroke="rgb(255,0,0)" stroke-width="0.705556"/>
		<line x1="600.536" y1="127.4" x2="598.586" y2="126.4" stroke="rgb(255,0,0)" stroke-width="0.705556"/>
		<line x1="598.586" y1="159.733" x2="600.536" y2="158.733" stroke="rgb(255,0,0)" stroke-width="0.705556"/>
		<line x1="600.536" y1="158.733" x2="600.536" y2="127.4" stroke="rgb(255,0,0)" stroke-width="0.705556"/>
		<line x1="600.536" y1="127.4" x2="598.586" y2="126.4" stroke="rgb(255,0,0)" stroke-width="0.705556"/>
		<line x1="598.586" y1="159.733" x2="600.536" y2="158.733" stroke="rgb(255,0,0)" stroke-width="0.705556"/>
		<line x1="600.536" y1="158.733" x2="600.536" y2="127.4" stroke="rgb(255,0,0)" stroke-width="0.705556"/>
		<line x1="600.536" y1="127.4" x2="598.586" y2="126.4" stroke="rgb(255,0,0)" stroke-width="0.705556"/>
		<line x1="598.586" y1="159.733" x2="600.536" y2="158.733" stroke="rgb(255,0,0)" stroke-width="0.705556"/>
		<line x1="600.536" y1="158.733" x2="600.536" y2="127.4" stroke="rgb(255,0,0)" stroke-width="0.705556"/>
		<line x1="600.536" y1="127.4" x2="598.586" y2="126.4" stroke="rgb(255,0,0)" stroke-width="0.705556"/>
		<line x1="493.086" y1="277.7" x2="493.086" y2="277.7" stroke="rgb(255,0,0)" stroke-width="0.705556"/>
		<line x1="493.086" y1="244.367" x2="493.086" y2="244.367" stroke="rgb(255,0,0)" stroke-width="0.705556"/>
		<line x1="493.086" y1="159.733" x2="496.336" y2="159.733" stroke="rgb(255,0,0)" stroke-width="0.705556"/>
		<line x1="496.336" y1="159.733" x2="496.336" y2="126.4" stroke="rgb(255,0,0)" stroke-width="0.705556"/>
		<line x1="496.336" y1="126.4" x2="493.086" y2="126.4" stroke="rgb(255,0,0)" stroke-width="0.705556"/>
		<line x1="493.086" y1="126.4" x2="493.086" y2="159.733" stroke="rgb(255,0,0)" stroke-width="0.705556"/>
		<line x1="493.086" y1="159.733" x2="493.086" y2="159.733" stroke="rgb(255,0,0)" stroke-width="0.705556"/>
		<line x1="493.086" y1="126.4" x2="493.086" y2="126.4" stroke="rgb(255,0,0)" stroke-width="0.705556"/>
		<line x1="493.086" y1="277.7" x2="493.086" y2="277.7" stroke="rgb(255,0,0)" stroke-width="0.705556"/>
		<line x1="493.086" y1="244.367" x2="493.086" y2="244.367" stroke="rgb(255,0,0)" stroke-width="0.705556"/>
		<line x1="493.086" y1="277.7" x2="493.086" y2="277.7" stroke="rgb(255,0,0)" stroke-width="0.705556"/>
		<line x1="493.086" y1="244.367" x2="493.086" y2="244.367" stroke="rgb(255,0,0)" stroke-width="0.705556"/>
		<line x1="493.086" y1="277.7" x2="493.086" y2="277.7" stroke="rgb(255,0,0)" stroke-width="0.705556"/>
		<line x1="493.086" y1="244.367" x2="493.086" y2="244.367" stroke="rgb(255,0,0)" stroke-width="0.705556"/>
		<line x1="493.086" y1="277.7" x2="493.086" y2="277.7" stroke="rgb(255,0,0)" stroke-width="0.705556"/>
		<line x1="493.086" y1="244.367" x2="493.086" y2="244.367" stroke="rgb(255,0,0)" stroke-width="0.705556"/>
		<line x1="493.086" y1="277.7" x2="493.086" y2="277.7" stroke="rgb(255,0,0)" stroke-width="0.705556"/>
		<line x1="493.086" y1="244.367" x2="493.086" y2="244.367" stroke="rgb(255,0,0)" stroke-width="0.705556"/>
		<line x1="493.086" y1="277.7" x2="493.086" y2="277.7" stroke="rgb(255,0,0)" stroke-width="0.705556"/>
		<line x1="493.086" y1="244.367" x2="493.086" y2="244.367" stroke="rgb(255,0,0)" stroke-width="0.705556"/>
		<line x1="493.086" y1="277.7" x2="493.086" y2="277.7" stroke="rgb(255,0,0)" stroke-width="0.705556"/>
		<line x1="493.086" y1="244.367" x2="493.086" y2="244.367" stroke="rgb(255,0,0)" stroke-width="0.705556"/>
		<line x1="493.086" y1="277.7" x2="493.086" y2="277.7" stroke="rgb(255,0,0)" stroke-width="0.705556"/>
		<line x1="493.086" y1="244.367" x2="493.086" y2="244.367" stroke="rgb(255,0,0)" stroke-width="0.705556"/>
		<line x1="493.086" y1="277.7" x2="493.086" y2="277.7" stroke="rgb(255,0,0)" stroke-width="0.705556"/>
		<line x1="493.086" y1="244.367" x2="493.086" y2="244.367" stroke="rgb(255,0,0)" stroke-width="0.705556"/>
		<line x1="493.086" y1="277.7" x2="493.086" y2="277.7" stroke="rgb(255,0,0)" stroke-width="0.705556"/>
		<line x1="493.086" y1="244.367" x2="493.086" y2="244.367" stroke="rgb(255,0,0)" stroke-width="0.705556"/>
		<line x1="493.086" y1="277.7" x2="493.086" y2="277.7" stroke="rgb(255,0,0)" stroke-width="0.705556"/>
		<line x1="493.086" y1="244.367" x2="493.086" y2="244.367" stroke="rgb(255,0,0)" stroke-width="0.705556"/>
		<line x1="493.086" y1="277.7" x2="493.086" y2="277.7" stroke="rgb(255,0,0)" stroke-width="0.705556"/>
		<line x1="493.086" y1="244.367" x2="493.086" y2="244.367" stroke="rgb(255,0,0)" stroke-width="0.705556"/>
		<line x1="493.086" y1="277.7" x2="493.086" y2="277.7" stroke="rgb(255,0,0)" stroke-width="0.705556"/>
		<line x1="493.086" y1="244.367" x2="493.086" y2="244.367" stroke="rgb(255,0,0)" stroke-width="0.705556"/>
		<line x1="493.086" y1="277.7" x2="493.086" y2="277.7" stroke="rgb(255,0,0)" stroke-width="0.705556"/>
		<line x1="493.086" y1="244.367" x2="493.086" y2="244.367" stroke="rgb(255,0,0)" stroke-width="0.705556"/>
		<line x1="493.086" y1="277.7" x2="493.086" y2="277.7" stroke="rgb(255,0,0)" stroke-width="0.705556"/>
		<line x1="493.086" y1="244.367" x2="493.086" y2="244.367" stroke="rgb(255,0,0)" stroke-width="0.705556"/>
		<line x1="493.086" y1="277.7" x2="493.086" y2="277.7" stroke="rgb(255,0,0)" stroke-width="0.705556"/>
		<line x1="493.086" y1="244.367" x2="493.086" y2="244.367" stroke="rgb(255,0,0)" stroke-width="0.705556"/>
		<line x1="493.086" y1="277.7" x2="496.336" y2="277.7" stroke="rgb(255,0,0)" stroke-width="0.705556"/>
		<line x1="496.336" y1="277.7" x2="496.336" y2="244.367" stroke="rgb(255,0,0)" stroke-width="0.705556"/>
		<line x1="496.336" y1="244.367" x2="493.086" y2="244.367" stroke="rgb(255,0,0)" stroke-width="0.705556"/>
		<line x1="493.086" y1="244.367" x2="493.086" y2="277.7" stroke="rgb(255,0,0)" stroke-width="0.705556"/>
		<line x1="493.086" y1="277.7" x2="493.086" y2="277.7" stroke="rgb(255,0,0)" stroke-width="0.705556"/>
		<line x1="493.086" y1="244.367" x2="493.086" y2="244.367" stroke="rgb(255,0,0)" stroke-width="0.705556"/>
	</g>
</svg>