<svg version = "1.1" xmlns = "http://www.w3.org/2000/svg" xmlns:xlink="http://www.w3.org/1999/xlink" width="543.106" height="462.706" viewbox = "0 0 543.106 462.706">
	<g transform="translate(-3.37265,468.753) scale(1,-1) ">
		<line x1="134.925" y1="340.65" x2="134.925" y2="440.8" stroke="rgb(255,0,0)" stroke-width="0.705556"/>
		<line x1="414.925" y1="440.8" x2="414.925" y2="340.65" stroke="rgb(255,0,0)" stroke-width="0.705556"/>
		<line x1="414.925" y1="134.15" x2="414.925" y2="34" stroke="rgb(255,0,0)" stroke-width="0.705556"/>
		<line x1="134.925" y1="34" x2="134.925" y2="134.15" stroke="rgb(255,0,0)" stroke-width="0.705556"/>
		<line x1="414.925" y1="340.65" x2="134.925" y2="340.65" stroke="rgb(255,255,0)" stroke-width="0.705556"/>
		<line x1="131.675" y1="339.35" x2="131.675" y2="135.45" stroke="rgb(255,255,0)" stroke-width="0.705556"/>
		<line x1="134.925" y1="134.15" x2="414.925" y2="134.15" stroke="rgb(255,255,0)" stroke-width="0.705556"/>
		<line x1="418.175" y1="135.45" x2="418.175" y2="339.35" stroke="rgb(255,255,0)" stroke-width="0.705556"/>
		<line x1="131.675" y1="339.35" x2="134.925" y2="339.35" stroke="rgb(255,0,0)" stroke-width="0.705556"/>
		<line x1="134.925" y1="339.35" x2="134.925" y2="340.65" stroke="rgb(255,0,0)" stroke-width="0.705556"/>
		<line x1="414.925" y1="340.65" x2="414.925" y2="339.35" stroke="rgb(255,0,0)" stroke-width="0.705556"/>
		<line x1="414.925" y1="339.35" x2="418.175" y2="339.35" stroke="rgb(255,0,0)" stroke-width="0.705556"/>
		<line x1="414.925" y1="134.15" x2="414.925" y2="135.45" stroke="rgb(255,0,0)" stroke-width="0.705556"/>
		<line x1="414.925" y1="135.45" x2="418.175" y2="135.45" stroke="rgb(255,0,0)" stroke-width="0.705556"/>
		<line x1="131.675" y1="135.45" x2="134.925" y2="135.45" stroke="rgb(255,0,0)" stroke-width="0.705556"/>
		<line x1="134.925" y1="135.45" x2="134.925" y2="134.15" stroke="rgb(255,0,0)" stroke-width="0.705556"/>
		<line x1="468.175" y1="260.083" x2="468.175" y2="213.417" stroke="rgb(255,0,0)" stroke-width="0.705556"/>
		<line x1="478.175" y1="203.417" x2="478.175" y2="203.417" stroke="rgb(255,0,0)" stroke-width="0.705556"/>
		<line x1="488.175" y1="213.417" x2="488.175" y2="260.083" stroke="rgb(255,0,0)" stroke-width="0.705556"/>
		<line x1="478.175" y1="270.083" x2="478.175" y2="270.083" stroke="rgb(255,0,0)" stroke-width="0.705556"/>
		<path d="M488.175,260.083 a10 10 0 0 1 -10,10" fill="none" stroke="rgb(255,0,0)" stroke-width="0.705556"/>
		<path d="M478.175,203.417 a10 10 0 0 1 10,10" fill="none" stroke="rgb(255,0,0)" stroke-width="0.705556"/>
		<path d="M468.175,213.417 a10 10 0 0 1 10,-10" fill="none" stroke="rgb(255,0,0)" stroke-width="0.705556"/>
		<path d="M468.175,260.083 a10 10 0 0 0 10,10" fill="none" stroke="rgb(255,0,0)" stroke-width="0.705556"/>
		<line x1="81.6754" y1="260.083" x2="81.6754" y2="213.417" stroke="rgb(255,0,0)" stroke-width="0.705556"/>
		<line x1="71.6754" y1="203.417" x2="71.6754" y2="203.417" stroke="rgb(255,0,0)" stroke-width="0.705556"/>
		<line x1="61.6754" y1="213.417" x2="61.6754" y2="260.083" stroke="rgb(255,0,0)" stroke-width="0.705556"/>
		<line x1="71.6754" y1="270.083" x2="71.6754" y2="270.083" stroke="rgb(255,0,0)" stroke-width="0.705556"/>
		<path d="M61.6754,260.083 a10 10 0 0 0 10,10" fill="none" stroke="rgb(255,0,0)" stroke-width="0.705556"/>
		<path d="M71.6754,203.417 a10 10 0 0 0 -10,10" fill="none" stroke="rgb(255,0,0)" stroke-width="0.705556"/>
		<path d="M81.6754,213.417 a10 10 0 0 0 -10,-10" fill="none" stroke="rgb(255,0,0)" stroke-width="0.705556"/>
		<path d="M81.6754,260.083 a10 10 0 0 1 -10,10" fill="none" stroke="rgb(255,0,0)" stroke-width="0.705556"/>
		<line x1="134.925" y1="440.8" x2="414.925" y2="440.8" stroke="rgb(255,255,0)" stroke-width="0.705556"/>
		<line x1="414.925" y1="440.8" x2="414.925" y2="443.4" stroke="rgb(255,0,0)" stroke-width="0.705556"/>
		<line x1="134.925" y1="443.4" x2="134.925" y2="440.8" stroke="rgb(255,0,0)" stroke-width="0.705556"/>
		<line x1="414.925" y1="34" x2="134.925" y2="34" stroke="rgb(255,255,0)" stroke-width="0.705556"/>
		<line x1="134.925" y1="34" x2="134.925" y2="31.4" stroke="rgb(255,0,0)" stroke-width="0.705556"/>
		<line x1="414.925" y1="31.4" x2="414.925" y2="34" stroke="rgb(255,0,0)" stroke-width="0.705556"/>
		<line x1="518.525" y1="339.35" x2="518.525" y2="135.45" stroke="rgb(255,255,0)" stroke-width="0.705556"/>
		<line x1="518.525" y1="135.45" x2="521.125" y2="135.45" stroke="rgb(255,0,0)" stroke-width="0.705556"/>
		<line x1="521.125" y1="339.35" x2="518.525" y2="339.35" stroke="rgb(255,0,0)" stroke-width="0.705556"/>
		<line x1="31.3254" y1="135.45" x2="31.3254" y2="339.35" stroke="rgb(255,255,0)" stroke-width="0.705556"/>
		<line x1="31.3254" y1="339.35" x2="28.7254" y2="339.35" stroke="rgb(255,0,0)" stroke-width="0.705556"/>
		<line x1="28.7254" y1="135.45" x2="31.3254" y2="135.45" stroke="rgb(255,0,0)" stroke-width="0.705556"/>
		<line x1="134.925" y1="443.4" x2="134.925" y2="468.4" stroke="rgb(255,0,0)" stroke-width="0.705556"/>
		<line x1="134.925" y1="468.4" x2="414.925" y2="468.4" stroke="rgb(255,0,0)" stroke-width="0.705556"/>
		<line x1="414.925" y1="468.4" x2="414.925" y2="443.4" stroke="rgb(255,0,0)" stroke-width="0.705556"/>
		<line x1="414.925" y1="443.4" x2="134.925" y2="443.4" stroke="rgb(255,255,0)" stroke-width="0.705556"/>
		<line x1="414.925" y1="31.4" x2="414.925" y2="6.4" stroke="rgb(255,0,0)" stroke-width="0.705556"/>
		<line x1="414.925" y1="6.4" x2="134.925" y2="6.4" stroke="rgb(255,0,0)" stroke-width="0.705556"/>
		<line x1="134.925" y1="6.4" x2="134.925" y2="31.4" stroke="rgb(255,0,0)" stroke-width="0.705556"/>
		<line x1="134.925" y1="31.4" x2="414.925" y2="31.4" stroke="rgb(255,255,0)" stroke-width="0.705556"/>
		<line x1="521.125" y1="339.35" x2="546.125" y2="339.35" stroke="rgb(255,0,0)" stroke-width="0.705556"/>
		<line x1="546.125" y1="339.35" x2="546.125" y2="135.45" stroke="rgb(255,0,0)" stroke-width="0.705556"/>
		<line x1="546.125" y1="135.45" x2="521.125" y2="135.45" stroke="rgb(255,0,0)" stroke-width="0.705556"/>
		<line x1="521.125" y1="135.45" x2="521.125" y2="339.35" stroke="rgb(255,255,0)" stroke-width="0.705556"/>
		<line x1="28.7254" y1="135.45" x2="3.72543" y2="135.45" stroke="rgb(255,0,0)" stroke-width="0.705556"/>
		<line x1="3.72543" y1="135.45" x2="3.72543" y2="339.35" stroke="rgb(255,0,0)" stroke-width="0.705556"/>
		<line x1="3.72543" y1="339.35" x2="28.7254" y2="339.35" stroke="rgb(255,0,0)" stroke-width="0.705556"/>
		<line x1="28.7254" y1="339.35" x2="28.7254" y2="135.45" stroke="rgb(255,255,0)" stroke-width="0.705556"/>
		<line x1="274.925" y1="188.065" x2="274.925" y2="160.45" stroke="rgb(64,128,128)" stroke-width="0"/>
		<line x1="283.409" y1="169.655" x2="283.409" y2="160.45" stroke="rgb(64,128,128)" stroke-width="0"/>
		<line x1="279.167" y1="178.86" x2="279.167" y2="160.45" stroke="rgb(64,128,128)" stroke-width="0"/>
		<line x1="270.683" y1="197.27" x2="270.683" y2="160.45" stroke="rgb(64,128,128)" stroke-width="0"/>
		<line x1="266.441" y1="206.475" x2="266.441" y2="160.45" stroke="rgb(64,128,128)" stroke-width="0"/>
		<line x1="262.199" y1="215.68" x2="262.199" y2="160.45" stroke="rgb(64,128,128)" stroke-width="0"/>
		<line x1="287.651" y1="160.45" x2="262.199" y2="160.45" stroke="rgb(64,128,128)" stroke-width="0"/>
		<line x1="262.199" y1="215.68" x2="290.474" y2="187.362" stroke="rgb(64,128,128)" stroke-width="0"/>
		<path d="M290.474,187.362 a26.6045 26.6045 0 0 1 -2.82257,-26.9118" fill="none" stroke="rgb(64,128,128)" stroke-width="0"/>
		<line x1="287.651" y1="160.45" x2="262.199" y2="215.68" stroke="rgb(64,128,128)" stroke-width="0"/>
		<line x1="418.175" y1="339.35" x2="418.825" y2="339.35" stroke="rgb(255,0,0)" stroke-width="0.705556"/>
		<line x1="418.825" y1="339.35" x2="418.825" y2="440" stroke="rgb(255,0,0)" stroke-width="0.705556"/>
		<line x1="418.825" y1="440" x2="517.225" y2="440" stroke="rgb(255,0,0)" stroke-width="0.705556"/>
		<line x1="517.225" y1="440" x2="517.225" y2="339.35" stroke="rgb(255,0,0)" stroke-width="0.705556"/>
		<line x1="517.225" y1="339.35" x2="518.525" y2="339.35" stroke="rgb(255,0,0)" stroke-width="0.705556"/>
		<line x1="418.825" y1="339.35" x2="517.225" y2="339.35" stroke="rgb(255,255,0)" stroke-width="0.705556"/>
		<line x1="418.175" y1="135.45" x2="418.825" y2="135.45" stroke="rgb(255,0,0)" stroke-width="0.705556"/>
		<line x1="418.825" y1="135.45" x2="418.825" y2="34.8" stroke="rgb(255,0,0)" stroke-width="0.705556"/>
		<line x1="418.825" y1="34.8" x2="517.225" y2="34.8" stroke="rgb(255,0,0)" stroke-width="0.705556"/>
		<line x1="517.225" y1="34.8" x2="517.225" y2="135.45" stroke="rgb(255,0,0)" stroke-width="0.705556"/>
		<line x1="517.225" y1="135.45" x2="518.525" y2="135.45" stroke="rgb(255,0,0)" stroke-width="0.705556"/>
		<line x1="418.825" y1="135.45" x2="517.225" y2="135.45" stroke="rgb(255,255,0)" stroke-width="0.705556"/>
		<line x1="131.675" y1="135.45" x2="131.025" y2="135.45" stroke="rgb(255,0,0)" stroke-width="0.705556"/>
		<line x1="131.025" y1="135.45" x2="131.025" y2="34.8" stroke="rgb(255,0,0)" stroke-width="0.705556"/>
		<line x1="131.025" y1="34.8" x2="32.6254" y2="34.8" stroke="rgb(255,0,0)" stroke-width="0.705556"/>
		<line x1="32.6254" y1="34.8" x2="32.6254" y2="135.45" stroke="rgb(255,0,0)" stroke-width="0.705556"/>
		<line x1="32.6254" y1="135.45" x2="31.3254" y2="135.45" stroke="rgb(255,0,0)" stroke-width="0.705556"/>
		<line x1="131.025" y1="135.45" x2="32.6254" y2="135.45" stroke="rgb(255,255,0)" stroke-width="0.705556"/>
		<line x1="131.675" y1="339.35" x2="131.025" y2="339.35" stroke="rgb(255,0,0)" stroke-width="0.705556"/>
		<line x1="131.025" y1="339.35" x2="131.025" y2="440" stroke="rgb(255,0,0)" stroke-width="0.705556"/>
		<line x1="131.025" y1="440" x2="32.6254" y2="440" stroke="rgb(255,0,0)" stroke-width="0.705556"/>
		<line x1="32.6254" y1="440" x2="32.6254" y2="339.35" stroke="rgb(255,0,0)" stroke-width="0.705556"/>
		<line x1="32.6254" y1="339.35" x2="31.3254" y2="339.35" stroke="rgb(255,0,0)" stroke-width="0.705556"/>
		<line x1="131.025" y1="339.35" x2="32.6254" y2="339.35" stroke="rgb(255,255,0)" stroke-width="0.705556"/>
	</g>
</svg>