<svg version = "1.1" xmlns = "http://www.w3.org/2000/svg" xmlns:xlink="http://www.w3.org/1999/xlink" width="571.106" height="511.106" viewbox = "0 0 571.106 511.106">
	<g transform="translate(-35.5492,527.49) scale(1,-1) ">
		<line x1="463.052" y1="371.287" x2="565.652" y2="371.287" stroke="rgb(255,0,0)" stroke-width="0.705556"/>
		<line x1="565.652" y1="172.587" x2="463.052" y2="172.587" stroke="rgb(255,0,0)" stroke-width="0.705556"/>
		<line x1="179.152" y1="371.287" x2="76.552" y2="371.287" stroke="rgb(255,0,0)" stroke-width="0.705556"/>
		<line x1="76.552" y1="172.587" x2="179.152" y2="172.587" stroke="rgb(255,0,0)" stroke-width="0.705556"/>
		<line x1="461.752" y1="372.587" x2="180.452" y2="372.587" stroke="rgb(255,255,0)" stroke-width="0.705556"/>
		<line x1="179.152" y1="371.287" x2="179.152" y2="360.924" stroke="rgb(255,255,0)" stroke-width="0.705556"/>
		<line x1="179.152" y1="320.937" x2="179.152" y2="222.937" stroke="rgb(255,255,0)" stroke-width="0.705556"/>
		<line x1="179.152" y1="182.949" x2="179.152" y2="172.587" stroke="rgb(255,255,0)" stroke-width="0.705556"/>
		<line x1="180.452" y1="171.287" x2="461.752" y2="171.287" stroke="rgb(255,255,0)" stroke-width="0.705556"/>
		<line x1="463.052" y1="172.587" x2="463.052" y2="182.949" stroke="rgb(255,255,0)" stroke-width="0.705556"/>
		<line x1="463.052" y1="222.937" x2="463.052" y2="320.937" stroke="rgb(255,255,0)" stroke-width="0.705556"/>
		<line x1="463.052" y1="360.924" x2="463.052" y2="371.287" stroke="rgb(255,255,0)" stroke-width="0.705556"/>
		<line x1="179.152" y1="371.287" x2="180.452" y2="371.287" stroke="rgb(255,0,0)" stroke-width="0.705556"/>
		<line x1="180.452" y1="371.287" x2="180.452" y2="372.587" stroke="rgb(255,0,0)" stroke-width="0.705556"/>
		<line x1="461.752" y1="372.587" x2="461.752" y2="371.287" stroke="rgb(255,0,0)" stroke-width="0.705556"/>
		<line x1="461.752" y1="371.287" x2="463.052" y2="371.287" stroke="rgb(255,0,0)" stroke-width="0.705556"/>
		<line x1="461.752" y1="171.287" x2="461.752" y2="172.587" stroke="rgb(255,0,0)" stroke-width="0.705556"/>
		<line x1="461.752" y1="172.587" x2="463.052" y2="172.587" stroke="rgb(255,0,0)" stroke-width="0.705556"/>
		<line x1="179.152" y1="172.587" x2="180.452" y2="172.587" stroke="rgb(255,0,0)" stroke-width="0.705556"/>
		<line x1="180.452" y1="172.587" x2="180.452" y2="171.287" stroke="rgb(255,0,0)" stroke-width="0.705556"/>
		<line x1="463.052" y1="320.937" x2="465.002" y2="320.937" stroke="rgb(255,0,0)" stroke-width="0.705556"/>
		<line x1="465.002" y1="320.937" x2="465.002" y2="360.924" stroke="rgb(255,0,0)" stroke-width="0.705556"/>
		<line x1="465.002" y1="360.924" x2="463.052" y2="360.924" stroke="rgb(255,0,0)" stroke-width="0.705556"/>
		<line x1="463.052" y1="222.937" x2="465.002" y2="222.937" stroke="rgb(255,0,0)" stroke-width="0.705556"/>
		<line x1="465.002" y1="222.937" x2="465.002" y2="182.949" stroke="rgb(255,0,0)" stroke-width="0.705556"/>
		<line x1="465.002" y1="182.949" x2="463.052" y2="182.949" stroke="rgb(255,0,0)" stroke-width="0.705556"/>
		<line x1="179.152" y1="222.937" x2="177.202" y2="222.937" stroke="rgb(255,0,0)" stroke-width="0.705556"/>
		<line x1="177.202" y1="222.937" x2="177.202" y2="182.949" stroke="rgb(255,0,0)" stroke-width="0.705556"/>
		<line x1="177.202" y1="182.949" x2="179.152" y2="182.949" stroke="rgb(255,0,0)" stroke-width="0.705556"/>
		<line x1="179.152" y1="320.937" x2="177.202" y2="320.937" stroke="rgb(255,0,0)" stroke-width="0.705556"/>
		<line x1="177.202" y1="320.937" x2="177.202" y2="360.924" stroke="rgb(255,0,0)" stroke-width="0.705556"/>
		<line x1="177.202" y1="360.924" x2="179.152" y2="360.924" stroke="rgb(255,0,0)" stroke-width="0.705556"/>
		<line x1="180.452" y1="527.137" x2="461.752" y2="527.137" stroke="rgb(255,0,0)" stroke-width="0.705556"/>
		<line x1="461.752" y1="476.487" x2="180.452" y2="476.487" stroke="rgb(255,255,0)" stroke-width="0.705556"/>
		<line x1="461.752" y1="16.7369" x2="180.452" y2="16.7369" stroke="rgb(255,0,0)" stroke-width="0.705556"/>
		<line x1="180.452" y1="67.3869" x2="461.752" y2="67.3869" stroke="rgb(255,255,0)" stroke-width="0.705556"/>
		<line x1="461.752" y1="476.487" x2="461.752" y2="489.149" stroke="rgb(255,0,0)" stroke-width="0.705556"/>
		<line x1="461.752" y1="489.149" x2="566.952" y2="489.149" stroke="rgb(255,0,0)" stroke-width="0.705556"/>
		<line x1="566.952" y1="527.137" x2="461.752" y2="527.137" stroke="rgb(255,0,0)" stroke-width="0.705556"/>
		<line x1="461.752" y1="527.137" x2="461.752" y2="527.137" stroke="rgb(255,0,0)" stroke-width="0.705556"/>
		<line x1="464.352" y1="489.149" x2="464.352" y2="527.137" stroke="rgb(255,255,0)" stroke-width="0.705556"/>
		<line x1="180.452" y1="476.487" x2="180.452" y2="489.149" stroke="rgb(255,0,0)" stroke-width="0.705556"/>
		<line x1="180.452" y1="489.149" x2="75.252" y2="489.149" stroke="rgb(255,0,0)" stroke-width="0.705556"/>
		<line x1="75.252" y1="527.137" x2="180.452" y2="527.137" stroke="rgb(255,0,0)" stroke-width="0.705556"/>
		<line x1="180.452" y1="527.137" x2="180.452" y2="527.137" stroke="rgb(255,0,0)" stroke-width="0.705556"/>
		<line x1="177.852" y1="489.149" x2="177.852" y2="527.137" stroke="rgb(255,255,0)" stroke-width="0.705556"/>
		<line x1="461.752" y1="67.3869" x2="461.752" y2="54.7244" stroke="rgb(255,0,0)" stroke-width="0.705556"/>
		<line x1="461.752" y1="54.7244" x2="566.952" y2="54.7244" stroke="rgb(255,0,0)" stroke-width="0.705556"/>
		<line x1="566.952" y1="16.7369" x2="461.752" y2="16.7369" stroke="rgb(255,0,0)" stroke-width="0.705556"/>
		<line x1="461.752" y1="16.7369" x2="461.752" y2="16.7369" stroke="rgb(255,0,0)" stroke-width="0.705556"/>
		<line x1="464.352" y1="54.7244" x2="464.352" y2="16.7369" stroke="rgb(255,255,0)" stroke-width="0.705556"/>
		<line x1="180.452" y1="67.3869" x2="180.452" y2="54.7244" stroke="rgb(255,0,0)" stroke-width="0.705556"/>
		<line x1="180.452" y1="54.7244" x2="75.252" y2="54.7244" stroke="rgb(255,0,0)" stroke-width="0.705556"/>
		<line x1="75.252" y1="16.7369" x2="180.452" y2="16.7369" stroke="rgb(255,0,0)" stroke-width="0.705556"/>
		<line x1="180.452" y1="16.7369" x2="180.452" y2="16.7369" stroke="rgb(255,0,0)" stroke-width="0.705556"/>
		<line x1="177.852" y1="54.7244" x2="177.852" y2="16.7369" stroke="rgb(255,255,0)" stroke-width="0.705556"/>
		<line x1="566.952" y1="489.149" x2="585.455" y2="489.149" stroke="rgb(255,0,0)" stroke-width="0.705556"/>
		<line x1="594.952" y1="498.646" x2="594.952" y2="517.64" stroke="rgb(255,0,0)" stroke-width="0.705556"/>
		<line x1="585.455" y1="527.137" x2="566.952" y2="527.137" stroke="rgb(255,0,0)" stroke-width="0.705556"/>
		<line x1="566.952" y1="527.137" x2="566.952" y2="527.137" stroke="rgb(255,0,0)" stroke-width="0.705556"/>
		<line x1="566.952" y1="527.137" x2="566.952" y2="489.149" stroke="rgb(255,255,0)" stroke-width="0.705556"/>
		<line x1="566.952" y1="489.149" x2="566.952" y2="489.149" stroke="rgb(255,0,0)" stroke-width="0.705556"/>
		<path d="M594.952,498.646 a9.49687 9.49687 0 0 0 -9.49687,-9.49687" fill="none" stroke="rgb(255,0,0)" stroke-width="0.705556"/>
		<path d="M594.952,517.64 a9.49687 9.49687 0 0 1 -9.49687,9.49687" fill="none" stroke="rgb(255,0,0)" stroke-width="0.705556"/>
		<line x1="566.952" y1="16.7369" x2="585.455" y2="16.7369" stroke="rgb(255,0,0)" stroke-width="0.705556"/>
		<line x1="594.952" y1="26.2338" x2="594.952" y2="45.2276" stroke="rgb(255,0,0)" stroke-width="0.705556"/>
		<line x1="585.455" y1="54.7244" x2="566.952" y2="54.7244" stroke="rgb(255,0,0)" stroke-width="0.705556"/>
		<line x1="566.952" y1="54.7244" x2="566.952" y2="54.7244" stroke="rgb(255,0,0)" stroke-width="0.705556"/>
		<line x1="566.952" y1="54.7244" x2="566.952" y2="16.7369" stroke="rgb(255,255,0)" stroke-width="0.705556"/>
		<line x1="566.952" y1="16.7369" x2="566.952" y2="16.7369" stroke="rgb(255,0,0)" stroke-width="0.705556"/>
		<path d="M594.952,26.2338 a9.49687 9.49687 0 0 0 -9.49687,-9.49687" fill="none" stroke="rgb(255,0,0)" stroke-width="0.705556"/>
		<path d="M594.952,45.2276 a9.49687 9.49687 0 0 1 -9.49687,9.49687" fill="none" stroke="rgb(255,0,0)" stroke-width="0.705556"/>
		<line x1="75.252" y1="54.7244" x2="56.7489" y2="54.7244" stroke="rgb(255,0,0)" stroke-width="0.705556"/>
		<line x1="47.252" y1="45.2276" x2="47.252" y2="26.2338" stroke="rgb(255,0,0)" stroke-width="0.705556"/>
		<line x1="56.7489" y1="16.7369" x2="75.252" y2="16.7369" stroke="rgb(255,0,0)" stroke-width="0.705556"/>
		<line x1="75.252" y1="16.7369" x2="75.252" y2="16.7369" stroke="rgb(255,0,0)" stroke-width="0.705556"/>
		<line x1="75.252" y1="16.7369" x2="75.252" y2="54.7244" stroke="rgb(255,255,0)" stroke-width="0.705556"/>
		<line x1="75.252" y1="54.7244" x2="75.252" y2="54.7244" stroke="rgb(255,0,0)" stroke-width="0.705556"/>
		<path d="M47.252,45.2276 a9.49687 9.49687 0 0 0 9.49687,9.49687" fill="none" stroke="rgb(255,0,0)" stroke-width="0.705556"/>
		<path d="M47.252,26.2338 a9.49687 9.49687 0 0 1 9.49687,-9.49687" fill="none" stroke="rgb(255,0,0)" stroke-width="0.705556"/>
		<line x1="75.252" y1="527.137" x2="56.7489" y2="527.137" stroke="rgb(255,0,0)" stroke-width="0.705556"/>
		<line x1="47.252" y1="517.64" x2="47.252" y2="498.646" stroke="rgb(255,0,0)" stroke-width="0.705556"/>
		<line x1="56.7489" y1="489.149" x2="75.252" y2="489.149" stroke="rgb(255,0,0)" stroke-width="0.705556"/>
		<line x1="75.252" y1="489.149" x2="75.252" y2="489.149" stroke="rgb(255,0,0)" stroke-width="0.705556"/>
		<line x1="75.252" y1="489.149" x2="75.252" y2="527.137" stroke="rgb(255,255,0)" stroke-width="0.705556"/>
		<line x1="75.252" y1="527.137" x2="75.252" y2="527.137" stroke="rgb(255,0,0)" stroke-width="0.705556"/>
		<path d="M47.252,517.64 a9.49687 9.49687 0 0 0 9.49687,9.49687" fill="none" stroke="rgb(255,0,0)" stroke-width="0.705556"/>
		<path d="M47.252,498.646 a9.49687 9.49687 0 0 1 9.49687,-9.49687" fill="none" stroke="rgb(255,0,0)" stroke-width="0.705556"/>
		<line x1="321.102" y1="225.202" x2="321.102" y2="197.587" stroke="rgb(64,128,128)" stroke-width="0"/>
		<line x1="329.586" y1="206.792" x2="329.586" y2="197.587" stroke="rgb(64,128,128)" stroke-width="0"/>
		<line x1="325.344" y1="215.997" x2="325.344" y2="197.587" stroke="rgb(64,128,128)" stroke-width="0"/>
		<line x1="316.86" y1="234.407" x2="316.86" y2="197.587" stroke="rgb(64,128,128)" stroke-width="0"/>
		<line x1="312.618" y1="243.612" x2="312.618" y2="197.587" stroke="rgb(64,128,128)" stroke-width="0"/>
		<line x1="308.376" y1="252.817" x2="308.376" y2="197.587" stroke="rgb(64,128,128)" stroke-width="0"/>
		<line x1="333.828" y1="197.587" x2="308.376" y2="197.587" stroke="rgb(64,128,128)" stroke-width="0"/>
		<line x1="308.376" y1="252.817" x2="336.651" y2="224.499" stroke="rgb(64,128,128)" stroke-width="0"/>
		<path d="M336.651,224.499 a26.6045 26.6045 0 0 1 -2.82257,-26.9118" fill="none" stroke="rgb(64,128,128)" stroke-width="0"/>
		<line x1="333.828" y1="197.587" x2="308.376" y2="252.817" stroke="rgb(64,128,128)" stroke-width="0"/>
		<line x1="461.752" y1="476.487" x2="461.752" y2="474.537" stroke="rgb(255,0,0)" stroke-width="0.705556"/>
		<line x1="461.752" y1="474.537" x2="562.402" y2="474.537" stroke="rgb(255,0,0)" stroke-width="0.705556"/>
		<line x1="562.402" y1="474.537" x2="562.402" y2="374.537" stroke="rgb(255,0,0)" stroke-width="0.705556"/>
		<line x1="562.402" y1="374.537" x2="461.752" y2="374.537" stroke="rgb(255,0,0)" stroke-width="0.705556"/>
		<line x1="461.752" y1="374.537" x2="461.752" y2="372.587" stroke="rgb(255,0,0)" stroke-width="0.705556"/>
		<line x1="461.752" y1="474.537" x2="461.752" y2="374.537" stroke="rgb(255,255,0)" stroke-width="0.705556"/>
		<line x1="461.752" y1="67.3869" x2="461.752" y2="69.3369" stroke="rgb(255,0,0)" stroke-width="0.705556"/>
		<line x1="461.752" y1="69.3369" x2="562.402" y2="69.3369" stroke="rgb(255,0,0)" stroke-width="0.705556"/>
		<line x1="562.402" y1="69.3369" x2="562.402" y2="169.337" stroke="rgb(255,0,0)" stroke-width="0.705556"/>
		<line x1="562.402" y1="169.337" x2="461.752" y2="169.337" stroke="rgb(255,0,0)" stroke-width="0.705556"/>
		<line x1="461.752" y1="169.337" x2="461.752" y2="171.287" stroke="rgb(255,0,0)" stroke-width="0.705556"/>
		<line x1="461.752" y1="69.3369" x2="461.752" y2="169.337" stroke="rgb(255,255,0)" stroke-width="0.705556"/>
		<line x1="180.452" y1="67.3869" x2="180.452" y2="69.3369" stroke="rgb(255,0,0)" stroke-width="0.705556"/>
		<line x1="180.452" y1="69.3369" x2="79.802" y2="69.3369" stroke="rgb(255,0,0)" stroke-width="0.705556"/>
		<line x1="79.802" y1="69.3369" x2="79.802" y2="169.337" stroke="rgb(255,0,0)" stroke-width="0.705556"/>
		<line x1="79.802" y1="169.337" x2="180.452" y2="169.337" stroke="rgb(255,0,0)" stroke-width="0.705556"/>
		<line x1="180.452" y1="169.337" x2="180.452" y2="171.287" stroke="rgb(255,0,0)" stroke-width="0.705556"/>
		<line x1="180.452" y1="69.3369" x2="180.452" y2="169.337" stroke="rgb(255,255,0)" stroke-width="0.705556"/>
		<line x1="180.452" y1="476.487" x2="180.452" y2="474.537" stroke="rgb(255,0,0)" stroke-width="0.705556"/>
		<line x1="180.452" y1="474.537" x2="79.802" y2="474.537" stroke="rgb(255,0,0)" stroke-width="0.705556"/>
		<line x1="79.802" y1="474.537" x2="79.802" y2="374.537" stroke="rgb(255,0,0)" stroke-width="0.705556"/>
		<line x1="79.802" y1="374.537" x2="180.452" y2="374.537" stroke="rgb(255,0,0)" stroke-width="0.705556"/>
		<line x1="180.452" y1="374.537" x2="180.452" y2="372.587" stroke="rgb(255,0,0)" stroke-width="0.705556"/>
		<line x1="180.452" y1="474.537" x2="180.452" y2="374.537" stroke="rgb(255,255,0)" stroke-width="0.705556"/>
		<line x1="565.652" y1="371.287" x2="606.302" y2="371.287" stroke="rgb(255,0,0)" stroke-width="0.705556"/>
		<line x1="606.302" y1="371.287" x2="606.302" y2="172.587" stroke="rgb(255,0,0)" stroke-width="0.705556"/>
		<line x1="606.302" y1="172.587" x2="565.652" y2="172.587" stroke="rgb(255,0,0)" stroke-width="0.705556"/>
		<line x1="565.652" y1="172.587" x2="565.652" y2="371.287" stroke="rgb(255,255,0)" stroke-width="0.705556"/>
		<line x1="76.552" y1="172.587" x2="35.902" y2="172.587" stroke="rgb(255,0,0)" stroke-width="0.705556"/>
		<line x1="35.902" y1="172.587" x2="35.902" y2="371.287" stroke="rgb(255,0,0)" stroke-width="0.705556"/>
		<line x1="35.902" y1="371.287" x2="76.552" y2="371.287" stroke="rgb(255,0,0)" stroke-width="0.705556"/>
		<line x1="76.552" y1="371.287" x2="76.552" y2="172.587" stroke="rgb(255,255,0)" stroke-width="0.705556"/>
	</g>
</svg>