<svg version = "1.1" xmlns = "http://www.w3.org/2000/svg" xmlns:xlink="http://www.w3.org/1999/xlink" width="700.806" height="487.506" viewbox = "0 0 700.806 487.506">
	<g transform="translate(-199.554,654.695) scale(1,-1) ">
		<line x1="406.707" y1="512.892" x2="693.207" y2="512.892" stroke="rgb(255,255,0)" stroke-width="0.705556"/>
		<line x1="693.207" y1="308.992" x2="406.707" y2="308.992" stroke="rgb(255,255,0)" stroke-width="0.705556"/>
		<line x1="694.507" y1="308.992" x2="694.507" y2="334.292" stroke="rgb(255,255,0)" stroke-width="0.705556"/>
		<line x1="694.507" y1="369.625" x2="694.507" y2="452.259" stroke="rgb(255,255,0)" stroke-width="0.705556"/>
		<line x1="694.507" y1="487.592" x2="694.507" y2="512.892" stroke="rgb(255,255,0)" stroke-width="0.705556"/>
		<line x1="405.407" y1="512.892" x2="405.407" y2="487.592" stroke="rgb(255,255,0)" stroke-width="0.705556"/>
		<line x1="405.407" y1="452.259" x2="405.407" y2="369.625" stroke="rgb(255,255,0)" stroke-width="0.705556"/>
		<line x1="405.407" y1="334.292" x2="405.407" y2="308.992" stroke="rgb(255,255,0)" stroke-width="0.705556"/>
		<line x1="301.357" y1="612.342" x2="401.707" y2="612.342" stroke="rgb(255,0,0)" stroke-width="0.705556"/>
		<line x1="401.707" y1="612.342" x2="406.707" y2="612.342" stroke="rgb(255,0,0)" stroke-width="0.705556"/>
		<line x1="406.707" y1="512.892" x2="406.707" y2="612.342" stroke="rgb(255,255,0)" stroke-width="0.705556"/>
		<line x1="798.557" y1="612.342" x2="698.207" y2="612.342" stroke="rgb(255,0,0)" stroke-width="0.705556"/>
		<line x1="698.207" y1="612.342" x2="693.207" y2="612.342" stroke="rgb(255,0,0)" stroke-width="0.705556"/>
		<line x1="693.207" y1="512.892" x2="693.207" y2="612.342" stroke="rgb(255,255,0)" stroke-width="0.705556"/>
		<line x1="301.357" y1="209.542" x2="401.707" y2="209.542" stroke="rgb(255,0,0)" stroke-width="0.705556"/>
		<line x1="401.707" y1="209.542" x2="406.707" y2="209.542" stroke="rgb(255,0,0)" stroke-width="0.705556"/>
		<line x1="406.707" y1="308.992" x2="406.707" y2="209.542" stroke="rgb(255,255,0)" stroke-width="0.705556"/>
		<line x1="798.557" y1="209.542" x2="698.207" y2="209.542" stroke="rgb(255,0,0)" stroke-width="0.705556"/>
		<line x1="698.207" y1="209.542" x2="693.207" y2="209.542" stroke="rgb(255,0,0)" stroke-width="0.705556"/>
		<line x1="693.207" y1="308.992" x2="693.207" y2="209.542" stroke="rgb(255,255,0)" stroke-width="0.705556"/>
		<line x1="406.707" y1="512.892" x2="405.407" y2="513.542" stroke="rgb(255,0,0)" stroke-width="0.705556"/>
		<line x1="405.407" y1="513.542" x2="305.257" y2="513.542" stroke="rgb(255,0,0)" stroke-width="0.705556"/>
		<line x1="405.407" y1="512.892" x2="405.407" y2="513.542" stroke="rgb(255,255,0)" stroke-width="0.705556"/>
		<line x1="693.207" y1="512.892" x2="694.507" y2="513.542" stroke="rgb(255,0,0)" stroke-width="0.705556"/>
		<line x1="694.507" y1="513.542" x2="794.657" y2="513.542" stroke="rgb(255,0,0)" stroke-width="0.705556"/>
		<line x1="694.507" y1="512.892" x2="694.507" y2="513.542" stroke="rgb(255,255,0)" stroke-width="0.705556"/>
		<line x1="693.207" y1="308.992" x2="694.507" y2="308.342" stroke="rgb(255,0,0)" stroke-width="0.705556"/>
		<line x1="694.507" y1="308.342" x2="794.657" y2="308.342" stroke="rgb(255,0,0)" stroke-width="0.705556"/>
		<line x1="694.507" y1="308.992" x2="694.507" y2="308.342" stroke="rgb(255,255,0)" stroke-width="0.705556"/>
		<line x1="406.707" y1="308.992" x2="405.407" y2="308.342" stroke="rgb(255,0,0)" stroke-width="0.705556"/>
		<line x1="405.407" y1="308.342" x2="305.257" y2="308.342" stroke="rgb(255,0,0)" stroke-width="0.705556"/>
		<line x1="405.407" y1="308.992" x2="405.407" y2="308.342" stroke="rgb(255,255,0)" stroke-width="0.705556"/>
		<line x1="794.657" y1="513.542" x2="794.657" y2="492.892" stroke="rgb(255,255,0)" stroke-width="0.705556"/>
		<line x1="794.657" y1="472.892" x2="794.657" y2="348.992" stroke="rgb(255,255,0)" stroke-width="0.705556"/>
		<line x1="794.657" y1="328.992" x2="794.657" y2="308.342" stroke="rgb(255,255,0)" stroke-width="0.705556"/>
		<line x1="794.657" y1="308.342" x2="798.557" y2="310.292" stroke="rgb(255,0,0)" stroke-width="0.705556"/>
		<line x1="798.557" y1="511.592" x2="794.657" y2="513.542" stroke="rgb(255,0,0)" stroke-width="0.705556"/>
		<line x1="305.257" y1="308.342" x2="305.257" y2="328.992" stroke="rgb(255,255,0)" stroke-width="0.705556"/>
		<line x1="305.257" y1="348.992" x2="305.257" y2="472.892" stroke="rgb(255,255,0)" stroke-width="0.705556"/>
		<line x1="305.257" y1="492.892" x2="305.257" y2="513.542" stroke="rgb(255,255,0)" stroke-width="0.705556"/>
		<line x1="305.257" y1="513.542" x2="301.357" y2="511.592" stroke="rgb(255,0,0)" stroke-width="0.705556"/>
		<line x1="301.357" y1="310.292" x2="305.257" y2="308.342" stroke="rgb(255,0,0)" stroke-width="0.705556"/>
		<line x1="898.057" y1="511.592" x2="898.057" y2="486.592" stroke="rgb(255,0,0)" stroke-width="0.705556"/>
		<line x1="898.057" y1="453.259" x2="898.057" y2="368.625" stroke="rgb(255,0,0)" stroke-width="0.705556"/>
		<line x1="898.057" y1="335.292" x2="898.057" y2="310.292" stroke="rgb(255,0,0)" stroke-width="0.705556"/>
		<line x1="798.557" y1="310.292" x2="798.557" y2="328.992" stroke="rgb(255,255,0)" stroke-width="0.705556"/>
		<line x1="798.557" y1="348.992" x2="798.557" y2="472.892" stroke="rgb(255,255,0)" stroke-width="0.705556"/>
		<line x1="798.557" y1="492.892" x2="798.557" y2="511.592" stroke="rgb(255,255,0)" stroke-width="0.705556"/>
		<line x1="201.857" y1="310.292" x2="201.857" y2="335.292" stroke="rgb(255,0,0)" stroke-width="0.705556"/>
		<line x1="201.857" y1="368.625" x2="201.857" y2="453.259" stroke="rgb(255,0,0)" stroke-width="0.705556"/>
		<line x1="201.857" y1="486.592" x2="201.857" y2="511.592" stroke="rgb(255,0,0)" stroke-width="0.705556"/>
		<line x1="301.357" y1="511.592" x2="301.357" y2="492.892" stroke="rgb(255,255,0)" stroke-width="0.705556"/>
		<line x1="301.357" y1="472.892" x2="301.357" y2="348.992" stroke="rgb(255,255,0)" stroke-width="0.705556"/>
		<line x1="301.357" y1="328.992" x2="301.357" y2="310.292" stroke="rgb(255,255,0)" stroke-width="0.705556"/>
		<line x1="798.557" y1="511.592" x2="798.557" y2="612.342" stroke="rgb(255,0,0)" stroke-width="0.705556"/>
		<line x1="798.557" y1="612.342" x2="898.057" y2="612.342" stroke="rgb(255,0,0)" stroke-width="0.705556"/>
		<line x1="898.057" y1="612.342" x2="898.057" y2="511.592" stroke="rgb(255,0,0)" stroke-width="0.705556"/>
		<line x1="898.057" y1="511.592" x2="798.557" y2="511.592" stroke="rgb(255,255,0)" stroke-width="0.705556"/>
		<line x1="898.057" y1="310.292" x2="898.057" y2="209.542" stroke="rgb(255,0,0)" stroke-width="0.705556"/>
		<line x1="898.057" y1="209.542" x2="798.557" y2="209.542" stroke="rgb(255,0,0)" stroke-width="0.705556"/>
		<line x1="798.557" y1="209.542" x2="798.557" y2="310.292" stroke="rgb(255,0,0)" stroke-width="0.705556"/>
		<line x1="798.557" y1="310.292" x2="898.057" y2="310.292" stroke="rgb(255,255,0)" stroke-width="0.705556"/>
		<line x1="201.857" y1="511.592" x2="201.857" y2="612.342" stroke="rgb(255,0,0)" stroke-width="0.705556"/>
		<line x1="201.857" y1="612.342" x2="301.357" y2="612.342" stroke="rgb(255,0,0)" stroke-width="0.705556"/>
		<line x1="301.357" y1="612.342" x2="301.357" y2="511.592" stroke="rgb(255,0,0)" stroke-width="0.705556"/>
		<line x1="301.357" y1="511.592" x2="201.857" y2="511.592" stroke="rgb(255,255,0)" stroke-width="0.705556"/>
		<line x1="301.357" y1="310.292" x2="301.357" y2="209.542" stroke="rgb(255,0,0)" stroke-width="0.705556"/>
		<line x1="301.357" y1="209.542" x2="201.857" y2="209.542" stroke="rgb(255,0,0)" stroke-width="0.705556"/>
		<line x1="201.857" y1="209.542" x2="201.857" y2="310.292" stroke="rgb(255,0,0)" stroke-width="0.705556"/>
		<line x1="201.857" y1="310.292" x2="301.357" y2="310.292" stroke="rgb(255,255,0)" stroke-width="0.705556"/>
		<line x1="305.257" y1="492.892" x2="301.357" y2="492.892" stroke="rgb(255,0,0)" stroke-width="0.705556"/>
		<line x1="301.357" y1="492.892" x2="301.357" y2="472.892" stroke="rgb(255,0,0)" stroke-width="0.705556"/>
		<line x1="301.357" y1="472.892" x2="305.257" y2="472.892" stroke="rgb(255,0,0)" stroke-width="0.705556"/>
		<line x1="305.257" y1="492.892" x2="305.257" y2="472.892" stroke="rgb(255,0,0)" stroke-width="0.705556"/>
		<line x1="305.257" y1="328.992" x2="301.357" y2="328.992" stroke="rgb(255,0,0)" stroke-width="0.705556"/>
		<line x1="301.357" y1="328.992" x2="301.357" y2="348.992" stroke="rgb(255,0,0)" stroke-width="0.705556"/>
		<line x1="301.357" y1="348.992" x2="305.257" y2="348.992" stroke="rgb(255,0,0)" stroke-width="0.705556"/>
		<line x1="305.257" y1="328.992" x2="305.257" y2="348.992" stroke="rgb(255,0,0)" stroke-width="0.705556"/>
		<line x1="794.657" y1="328.992" x2="798.557" y2="328.992" stroke="rgb(255,0,0)" stroke-width="0.705556"/>
		<line x1="798.557" y1="328.992" x2="798.557" y2="348.992" stroke="rgb(255,0,0)" stroke-width="0.705556"/>
		<line x1="798.557" y1="348.992" x2="794.657" y2="348.992" stroke="rgb(255,0,0)" stroke-width="0.705556"/>
		<line x1="794.657" y1="328.992" x2="794.657" y2="348.992" stroke="rgb(255,0,0)" stroke-width="0.705556"/>
		<line x1="794.657" y1="492.892" x2="798.557" y2="492.892" stroke="rgb(255,0,0)" stroke-width="0.705556"/>
		<line x1="798.557" y1="492.892" x2="798.557" y2="472.892" stroke="rgb(255,0,0)" stroke-width="0.705556"/>
		<line x1="798.557" y1="472.892" x2="794.657" y2="472.892" stroke="rgb(255,0,0)" stroke-width="0.705556"/>
		<line x1="794.657" y1="492.892" x2="794.657" y2="472.892" stroke="rgb(255,0,0)" stroke-width="0.705556"/>
		<line x1="693.207" y1="612.342" x2="695.157" y2="614.342" stroke="rgb(255,0,0)" stroke-width="0.705556"/>
		<line x1="695.157" y1="614.342" x2="695.157" y2="634.342" stroke="rgb(255,0,0)" stroke-width="0.705556"/>
		<line x1="695.157" y1="654.342" x2="404.757" y2="654.342" stroke="rgb(255,0,0)" stroke-width="0.705556"/>
		<line x1="404.757" y1="634.342" x2="404.757" y2="614.342" stroke="rgb(255,0,0)" stroke-width="0.705556"/>
		<line x1="404.757" y1="614.342" x2="406.707" y2="612.342" stroke="rgb(255,0,0)" stroke-width="0.705556"/>
		<line x1="695.157" y1="614.342" x2="404.757" y2="614.342" stroke="rgb(255,255,0)" stroke-width="0.705556"/>
		<line x1="693.207" y1="209.542" x2="695.157" y2="207.542" stroke="rgb(255,0,0)" stroke-width="0.705556"/>
		<line x1="695.157" y1="207.542" x2="695.157" y2="187.542" stroke="rgb(255,0,0)" stroke-width="0.705556"/>
		<line x1="695.157" y1="167.542" x2="404.757" y2="167.542" stroke="rgb(255,0,0)" stroke-width="0.705556"/>
		<line x1="404.757" y1="187.542" x2="404.757" y2="207.542" stroke="rgb(255,0,0)" stroke-width="0.705556"/>
		<line x1="404.757" y1="207.542" x2="406.707" y2="209.542" stroke="rgb(255,0,0)" stroke-width="0.705556"/>
		<line x1="695.157" y1="207.542" x2="404.757" y2="207.542" stroke="rgb(255,255,0)" stroke-width="0.705556"/>
		<path d="M695.157,654.342 a40 40 0 0 0 20.7894,-8.02976" fill="none" stroke="rgb(255,0,0)" stroke-width="0.705556"/>
		<line x1="691.907" y1="634.342" x2="711.907" y2="634.342" stroke="rgb(255,0,0)" stroke-width="0.705556"/>
		<path d="M715.947,646.312 a6.66667 6.66667 0 0 0 -4.03937,-11.9702" fill="none" stroke="rgb(255,0,0)" stroke-width="0.705556"/>
		<line x1="695.157" y1="654.342" x2="691.907" y2="654.342" stroke="rgb(255,0,0)" stroke-width="0.705556"/>
		<line x1="691.907" y1="654.342" x2="691.907" y2="634.342" stroke="rgb(255,255,0)" stroke-width="0.705556"/>
		<path d="M404.757,654.342 a40 40 0 0 1 -20.7894,-8.02976" fill="none" stroke="rgb(255,0,0)" stroke-width="0.705556"/>
		<line x1="408.007" y1="634.342" x2="388.007" y2="634.342" stroke="rgb(255,0,0)" stroke-width="0.705556"/>
		<path d="M383.968,646.312 a6.66667 6.66667 0 0 1 4.03937,-11.9702" fill="none" stroke="rgb(255,0,0)" stroke-width="0.705556"/>
		<line x1="404.757" y1="654.342" x2="408.007" y2="654.342" stroke="rgb(255,0,0)" stroke-width="0.705556"/>
		<line x1="408.007" y1="654.342" x2="408.007" y2="634.342" stroke="rgb(255,255,0)" stroke-width="0.705556"/>
		<path d="M695.157,167.542 a40 40 0 0 1 20.7894,8.02976" fill="none" stroke="rgb(255,0,0)" stroke-width="0.705556"/>
		<line x1="691.907" y1="187.542" x2="711.907" y2="187.542" stroke="rgb(255,0,0)" stroke-width="0.705556"/>
		<path d="M715.947,175.572 a6.66667 6.66667 0 0 1 -4.03937,11.9702" fill="none" stroke="rgb(255,0,0)" stroke-width="0.705556"/>
		<line x1="695.157" y1="167.542" x2="691.907" y2="167.542" stroke="rgb(255,0,0)" stroke-width="0.705556"/>
		<line x1="691.907" y1="167.542" x2="691.907" y2="187.542" stroke="rgb(255,255,0)" stroke-width="0.705556"/>
		<path d="M404.757,167.542 a40 40 0 0 0 -20.7894,8.02976" fill="none" stroke="rgb(255,0,0)" stroke-width="0.705556"/>
		<line x1="408.007" y1="187.542" x2="388.007" y2="187.542" stroke="rgb(255,0,0)" stroke-width="0.705556"/>
		<path d="M383.968,175.572 a6.66667 6.66667 0 0 0 4.03937,11.9702" fill="none" stroke="rgb(255,0,0)" stroke-width="0.705556"/>
		<line x1="404.757" y1="167.542" x2="408.007" y2="167.542" stroke="rgb(255,0,0)" stroke-width="0.705556"/>
		<line x1="408.007" y1="167.542" x2="408.007" y2="187.542" stroke="rgb(255,255,0)" stroke-width="0.705556"/>
		<line x1="556.33" y1="349.218" x2="528.715" y2="349.218" stroke="rgb(64,128,128)" stroke-width="0"/>
		<line x1="537.92" y1="357.702" x2="528.715" y2="357.702" stroke="rgb(64,128,128)" stroke-width="0"/>
		<line x1="547.125" y1="353.46" x2="528.715" y2="353.46" stroke="rgb(64,128,128)" stroke-width="0"/>
		<line x1="565.535" y1="344.976" x2="528.715" y2="344.976" stroke="rgb(64,128,128)" stroke-width="0"/>
		<line x1="574.74" y1="340.734" x2="528.715" y2="340.734" stroke="rgb(64,128,128)" stroke-width="0"/>
		<line x1="583.945" y1="336.492" x2="528.715" y2="336.492" stroke="rgb(64,128,128)" stroke-width="0"/>
		<line x1="528.715" y1="361.944" x2="528.715" y2="336.492" stroke="rgb(64,128,128)" stroke-width="0"/>
		<line x1="583.945" y1="336.492" x2="555.627" y2="364.766" stroke="rgb(64,128,128)" stroke-width="0"/>
		<path d="M555.627,364.766 a26.6045 26.6045 0 0 0 -26.9118,-2.82257" fill="none" stroke="rgb(64,128,128)" stroke-width="0"/>
		<line x1="528.715" y1="361.944" x2="583.945" y2="336.492" stroke="rgb(64,128,128)" stroke-width="0"/>
		<line x1="201.857" y1="335.292" x2="199.907" y2="337.292" stroke="rgb(255,0,0)" stroke-width="0.705556"/>
		<line x1="199.907" y1="337.292" x2="199.907" y2="366.625" stroke="rgb(255,0,0)" stroke-width="0.705556"/>
		<line x1="199.907" y1="366.625" x2="201.857" y2="368.625" stroke="rgb(255,0,0)" stroke-width="0.705556"/>
		<line x1="201.857" y1="453.259" x2="199.907" y2="455.259" stroke="rgb(255,0,0)" stroke-width="0.705556"/>
		<line x1="199.907" y1="455.259" x2="199.907" y2="484.592" stroke="rgb(255,0,0)" stroke-width="0.705556"/>
		<line x1="199.907" y1="484.592" x2="201.857" y2="486.592" stroke="rgb(255,0,0)" stroke-width="0.705556"/>
		<line x1="201.857" y1="453.259" x2="199.907" y2="455.259" stroke="rgb(255,0,0)" stroke-width="0.705556"/>
		<line x1="199.907" y1="455.259" x2="199.907" y2="484.592" stroke="rgb(255,0,0)" stroke-width="0.705556"/>
		<line x1="199.907" y1="484.592" x2="201.857" y2="486.592" stroke="rgb(255,0,0)" stroke-width="0.705556"/>
		<line x1="201.857" y1="453.259" x2="199.907" y2="455.259" stroke="rgb(255,0,0)" stroke-width="0.705556"/>
		<line x1="199.907" y1="455.259" x2="199.907" y2="484.592" stroke="rgb(255,0,0)" stroke-width="0.705556"/>
		<line x1="199.907" y1="484.592" x2="201.857" y2="486.592" stroke="rgb(255,0,0)" stroke-width="0.705556"/>
		<line x1="201.857" y1="453.259" x2="199.907" y2="455.259" stroke="rgb(255,0,0)" stroke-width="0.705556"/>
		<line x1="199.907" y1="455.259" x2="199.907" y2="484.592" stroke="rgb(255,0,0)" stroke-width="0.705556"/>
		<line x1="199.907" y1="484.592" x2="201.857" y2="486.592" stroke="rgb(255,0,0)" stroke-width="0.705556"/>
		<line x1="201.857" y1="453.259" x2="199.907" y2="455.259" stroke="rgb(255,0,0)" stroke-width="0.705556"/>
		<line x1="199.907" y1="455.259" x2="199.907" y2="484.592" stroke="rgb(255,0,0)" stroke-width="0.705556"/>
		<line x1="199.907" y1="484.592" x2="201.857" y2="486.592" stroke="rgb(255,0,0)" stroke-width="0.705556"/>
		<line x1="201.857" y1="453.259" x2="199.907" y2="455.259" stroke="rgb(255,0,0)" stroke-width="0.705556"/>
		<line x1="199.907" y1="455.259" x2="199.907" y2="484.592" stroke="rgb(255,0,0)" stroke-width="0.705556"/>
		<line x1="199.907" y1="484.592" x2="201.857" y2="486.592" stroke="rgb(255,0,0)" stroke-width="0.705556"/>
		<line x1="201.857" y1="453.259" x2="199.907" y2="455.259" stroke="rgb(255,0,0)" stroke-width="0.705556"/>
		<line x1="199.907" y1="455.259" x2="199.907" y2="484.592" stroke="rgb(255,0,0)" stroke-width="0.705556"/>
		<line x1="199.907" y1="484.592" x2="201.857" y2="486.592" stroke="rgb(255,0,0)" stroke-width="0.705556"/>
		<line x1="201.857" y1="453.259" x2="199.907" y2="455.259" stroke="rgb(255,0,0)" stroke-width="0.705556"/>
		<line x1="199.907" y1="455.259" x2="199.907" y2="484.592" stroke="rgb(255,0,0)" stroke-width="0.705556"/>
		<line x1="199.907" y1="484.592" x2="201.857" y2="486.592" stroke="rgb(255,0,0)" stroke-width="0.705556"/>
		<line x1="201.857" y1="453.259" x2="199.907" y2="455.259" stroke="rgb(255,0,0)" stroke-width="0.705556"/>
		<line x1="199.907" y1="455.259" x2="199.907" y2="484.592" stroke="rgb(255,0,0)" stroke-width="0.705556"/>
		<line x1="199.907" y1="484.592" x2="201.857" y2="486.592" stroke="rgb(255,0,0)" stroke-width="0.705556"/>
		<line x1="201.857" y1="453.259" x2="199.907" y2="455.259" stroke="rgb(255,0,0)" stroke-width="0.705556"/>
		<line x1="199.907" y1="455.259" x2="199.907" y2="484.592" stroke="rgb(255,0,0)" stroke-width="0.705556"/>
		<line x1="199.907" y1="484.592" x2="201.857" y2="486.592" stroke="rgb(255,0,0)" stroke-width="0.705556"/>
		<line x1="201.857" y1="453.259" x2="199.907" y2="455.259" stroke="rgb(255,0,0)" stroke-width="0.705556"/>
		<line x1="199.907" y1="455.259" x2="199.907" y2="484.592" stroke="rgb(255,0,0)" stroke-width="0.705556"/>
		<line x1="199.907" y1="484.592" x2="201.857" y2="486.592" stroke="rgb(255,0,0)" stroke-width="0.705556"/>
		<line x1="201.857" y1="453.259" x2="199.907" y2="455.259" stroke="rgb(255,0,0)" stroke-width="0.705556"/>
		<line x1="199.907" y1="455.259" x2="199.907" y2="484.592" stroke="rgb(255,0,0)" stroke-width="0.705556"/>
		<line x1="199.907" y1="484.592" x2="201.857" y2="486.592" stroke="rgb(255,0,0)" stroke-width="0.705556"/>
		<line x1="201.857" y1="453.259" x2="199.907" y2="455.259" stroke="rgb(255,0,0)" stroke-width="0.705556"/>
		<line x1="199.907" y1="455.259" x2="199.907" y2="484.592" stroke="rgb(255,0,0)" stroke-width="0.705556"/>
		<line x1="199.907" y1="484.592" x2="201.857" y2="486.592" stroke="rgb(255,0,0)" stroke-width="0.705556"/>
		<line x1="201.857" y1="453.259" x2="199.907" y2="455.259" stroke="rgb(255,0,0)" stroke-width="0.705556"/>
		<line x1="199.907" y1="455.259" x2="199.907" y2="484.592" stroke="rgb(255,0,0)" stroke-width="0.705556"/>
		<line x1="199.907" y1="484.592" x2="201.857" y2="486.592" stroke="rgb(255,0,0)" stroke-width="0.705556"/>
		<line x1="201.857" y1="453.259" x2="199.907" y2="455.259" stroke="rgb(255,0,0)" stroke-width="0.705556"/>
		<line x1="199.907" y1="455.259" x2="199.907" y2="484.592" stroke="rgb(255,0,0)" stroke-width="0.705556"/>
		<line x1="199.907" y1="484.592" x2="201.857" y2="486.592" stroke="rgb(255,0,0)" stroke-width="0.705556"/>
		<line x1="201.857" y1="453.259" x2="199.907" y2="455.259" stroke="rgb(255,0,0)" stroke-width="0.705556"/>
		<line x1="199.907" y1="455.259" x2="199.907" y2="484.592" stroke="rgb(255,0,0)" stroke-width="0.705556"/>
		<line x1="199.907" y1="484.592" x2="201.857" y2="486.592" stroke="rgb(255,0,0)" stroke-width="0.705556"/>
		<line x1="201.857" y1="453.259" x2="199.907" y2="455.259" stroke="rgb(255,0,0)" stroke-width="0.705556"/>
		<line x1="199.907" y1="455.259" x2="199.907" y2="484.592" stroke="rgb(255,0,0)" stroke-width="0.705556"/>
		<line x1="199.907" y1="484.592" x2="201.857" y2="486.592" stroke="rgb(255,0,0)" stroke-width="0.705556"/>
		<line x1="201.857" y1="453.259" x2="199.907" y2="455.259" stroke="rgb(255,0,0)" stroke-width="0.705556"/>
		<line x1="199.907" y1="455.259" x2="199.907" y2="484.592" stroke="rgb(255,0,0)" stroke-width="0.705556"/>
		<line x1="199.907" y1="484.592" x2="201.857" y2="486.592" stroke="rgb(255,0,0)" stroke-width="0.705556"/>
		<line x1="408.657" y1="334.292" x2="408.657" y2="334.292" stroke="rgb(255,0,0)" stroke-width="0.705556"/>
		<line x1="408.657" y1="369.625" x2="408.657" y2="369.625" stroke="rgb(255,0,0)" stroke-width="0.705556"/>
		<line x1="408.657" y1="452.259" x2="405.407" y2="452.259" stroke="rgb(255,0,0)" stroke-width="0.705556"/>
		<line x1="405.407" y1="452.259" x2="405.407" y2="487.592" stroke="rgb(255,0,0)" stroke-width="0.705556"/>
		<line x1="405.407" y1="487.592" x2="408.657" y2="487.592" stroke="rgb(255,0,0)" stroke-width="0.705556"/>
		<line x1="408.657" y1="487.592" x2="408.657" y2="452.259" stroke="rgb(255,0,0)" stroke-width="0.705556"/>
		<line x1="408.657" y1="452.259" x2="408.657" y2="452.259" stroke="rgb(255,0,0)" stroke-width="0.705556"/>
		<line x1="408.657" y1="487.592" x2="408.657" y2="487.592" stroke="rgb(255,0,0)" stroke-width="0.705556"/>
		<line x1="408.657" y1="334.292" x2="408.657" y2="334.292" stroke="rgb(255,0,0)" stroke-width="0.705556"/>
		<line x1="408.657" y1="369.625" x2="408.657" y2="369.625" stroke="rgb(255,0,0)" stroke-width="0.705556"/>
		<line x1="408.657" y1="334.292" x2="408.657" y2="334.292" stroke="rgb(255,0,0)" stroke-width="0.705556"/>
		<line x1="408.657" y1="369.625" x2="408.657" y2="369.625" stroke="rgb(255,0,0)" stroke-width="0.705556"/>
		<line x1="408.657" y1="334.292" x2="408.657" y2="334.292" stroke="rgb(255,0,0)" stroke-width="0.705556"/>
		<line x1="408.657" y1="369.625" x2="408.657" y2="369.625" stroke="rgb(255,0,0)" stroke-width="0.705556"/>
		<line x1="408.657" y1="334.292" x2="408.657" y2="334.292" stroke="rgb(255,0,0)" stroke-width="0.705556"/>
		<line x1="408.657" y1="369.625" x2="408.657" y2="369.625" stroke="rgb(255,0,0)" stroke-width="0.705556"/>
		<line x1="408.657" y1="334.292" x2="408.657" y2="334.292" stroke="rgb(255,0,0)" stroke-width="0.705556"/>
		<line x1="408.657" y1="369.625" x2="408.657" y2="369.625" stroke="rgb(255,0,0)" stroke-width="0.705556"/>
		<line x1="408.657" y1="334.292" x2="408.657" y2="334.292" stroke="rgb(255,0,0)" stroke-width="0.705556"/>
		<line x1="408.657" y1="369.625" x2="408.657" y2="369.625" stroke="rgb(255,0,0)" stroke-width="0.705556"/>
		<line x1="408.657" y1="334.292" x2="408.657" y2="334.292" stroke="rgb(255,0,0)" stroke-width="0.705556"/>
		<line x1="408.657" y1="369.625" x2="408.657" y2="369.625" stroke="rgb(255,0,0)" stroke-width="0.705556"/>
		<line x1="408.657" y1="334.292" x2="408.657" y2="334.292" stroke="rgb(255,0,0)" stroke-width="0.705556"/>
		<line x1="408.657" y1="369.625" x2="408.657" y2="369.625" stroke="rgb(255,0,0)" stroke-width="0.705556"/>
		<line x1="408.657" y1="334.292" x2="408.657" y2="334.292" stroke="rgb(255,0,0)" stroke-width="0.705556"/>
		<line x1="408.657" y1="369.625" x2="408.657" y2="369.625" stroke="rgb(255,0,0)" stroke-width="0.705556"/>
		<line x1="408.657" y1="334.292" x2="408.657" y2="334.292" stroke="rgb(255,0,0)" stroke-width="0.705556"/>
		<line x1="408.657" y1="369.625" x2="408.657" y2="369.625" stroke="rgb(255,0,0)" stroke-width="0.705556"/>
		<line x1="408.657" y1="334.292" x2="408.657" y2="334.292" stroke="rgb(255,0,0)" stroke-width="0.705556"/>
		<line x1="408.657" y1="369.625" x2="408.657" y2="369.625" stroke="rgb(255,0,0)" stroke-width="0.705556"/>
		<line x1="408.657" y1="334.292" x2="408.657" y2="334.292" stroke="rgb(255,0,0)" stroke-width="0.705556"/>
		<line x1="408.657" y1="369.625" x2="408.657" y2="369.625" stroke="rgb(255,0,0)" stroke-width="0.705556"/>
		<line x1="408.657" y1="334.292" x2="408.657" y2="334.292" stroke="rgb(255,0,0)" stroke-width="0.705556"/>
		<line x1="408.657" y1="369.625" x2="408.657" y2="369.625" stroke="rgb(255,0,0)" stroke-width="0.705556"/>
		<line x1="408.657" y1="334.292" x2="408.657" y2="334.292" stroke="rgb(255,0,0)" stroke-width="0.705556"/>
		<line x1="408.657" y1="369.625" x2="408.657" y2="369.625" stroke="rgb(255,0,0)" stroke-width="0.705556"/>
		<line x1="408.657" y1="334.292" x2="408.657" y2="334.292" stroke="rgb(255,0,0)" stroke-width="0.705556"/>
		<line x1="408.657" y1="369.625" x2="408.657" y2="369.625" stroke="rgb(255,0,0)" stroke-width="0.705556"/>
		<line x1="408.657" y1="334.292" x2="408.657" y2="334.292" stroke="rgb(255,0,0)" stroke-width="0.705556"/>
		<line x1="408.657" y1="369.625" x2="408.657" y2="369.625" stroke="rgb(255,0,0)" stroke-width="0.705556"/>
		<line x1="408.657" y1="334.292" x2="405.407" y2="334.292" stroke="rgb(255,0,0)" stroke-width="0.705556"/>
		<line x1="405.407" y1="334.292" x2="405.407" y2="369.625" stroke="rgb(255,0,0)" stroke-width="0.705556"/>
		<line x1="405.407" y1="369.625" x2="408.657" y2="369.625" stroke="rgb(255,0,0)" stroke-width="0.705556"/>
		<line x1="408.657" y1="369.625" x2="408.657" y2="334.292" stroke="rgb(255,0,0)" stroke-width="0.705556"/>
		<line x1="408.657" y1="334.292" x2="408.657" y2="334.292" stroke="rgb(255,0,0)" stroke-width="0.705556"/>
		<line x1="408.657" y1="369.625" x2="408.657" y2="369.625" stroke="rgb(255,0,0)" stroke-width="0.705556"/>
		<line x1="898.057" y1="486.592" x2="900.007" y2="484.592" stroke="rgb(255,0,0)" stroke-width="0.705556"/>
		<line x1="900.007" y1="484.592" x2="900.007" y2="455.259" stroke="rgb(255,0,0)" stroke-width="0.705556"/>
		<line x1="900.007" y1="455.259" x2="898.057" y2="453.259" stroke="rgb(255,0,0)" stroke-width="0.705556"/>
		<line x1="898.057" y1="368.625" x2="900.007" y2="366.625" stroke="rgb(255,0,0)" stroke-width="0.705556"/>
		<line x1="900.007" y1="366.625" x2="900.007" y2="337.292" stroke="rgb(255,0,0)" stroke-width="0.705556"/>
		<line x1="900.007" y1="337.292" x2="898.057" y2="335.292" stroke="rgb(255,0,0)" stroke-width="0.705556"/>
		<line x1="898.057" y1="368.625" x2="900.007" y2="366.625" stroke="rgb(255,0,0)" stroke-width="0.705556"/>
		<line x1="900.007" y1="366.625" x2="900.007" y2="337.292" stroke="rgb(255,0,0)" stroke-width="0.705556"/>
		<line x1="900.007" y1="337.292" x2="898.057" y2="335.292" stroke="rgb(255,0,0)" stroke-width="0.705556"/>
		<line x1="898.057" y1="368.625" x2="900.007" y2="366.625" stroke="rgb(255,0,0)" stroke-width="0.705556"/>
		<line x1="900.007" y1="366.625" x2="900.007" y2="337.292" stroke="rgb(255,0,0)" stroke-width="0.705556"/>
		<line x1="900.007" y1="337.292" x2="898.057" y2="335.292" stroke="rgb(255,0,0)" stroke-width="0.705556"/>
		<line x1="898.057" y1="368.625" x2="900.007" y2="366.625" stroke="rgb(255,0,0)" stroke-width="0.705556"/>
		<line x1="900.007" y1="366.625" x2="900.007" y2="337.292" stroke="rgb(255,0,0)" stroke-width="0.705556"/>
		<line x1="900.007" y1="337.292" x2="898.057" y2="335.292" stroke="rgb(255,0,0)" stroke-width="0.705556"/>
		<line x1="898.057" y1="368.625" x2="900.007" y2="366.625" stroke="rgb(255,0,0)" stroke-width="0.705556"/>
		<line x1="900.007" y1="366.625" x2="900.007" y2="337.292" stroke="rgb(255,0,0)" stroke-width="0.705556"/>
		<line x1="900.007" y1="337.292" x2="898.057" y2="335.292" stroke="rgb(255,0,0)" stroke-width="0.705556"/>
		<line x1="898.057" y1="368.625" x2="900.007" y2="366.625" stroke="rgb(255,0,0)" stroke-width="0.705556"/>
		<line x1="900.007" y1="366.625" x2="900.007" y2="337.292" stroke="rgb(255,0,0)" stroke-width="0.705556"/>
		<line x1="900.007" y1="337.292" x2="898.057" y2="335.292" stroke="rgb(255,0,0)" stroke-width="0.705556"/>
		<line x1="898.057" y1="368.625" x2="900.007" y2="366.625" stroke="rgb(255,0,0)" stroke-width="0.705556"/>
		<line x1="900.007" y1="366.625" x2="900.007" y2="337.292" stroke="rgb(255,0,0)" stroke-width="0.705556"/>
		<line x1="900.007" y1="337.292" x2="898.057" y2="335.292" stroke="rgb(255,0,0)" stroke-width="0.705556"/>
		<line x1="898.057" y1="368.625" x2="900.007" y2="366.625" stroke="rgb(255,0,0)" stroke-width="0.705556"/>
		<line x1="900.007" y1="366.625" x2="900.007" y2="337.292" stroke="rgb(255,0,0)" stroke-width="0.705556"/>
		<line x1="900.007" y1="337.292" x2="898.057" y2="335.292" stroke="rgb(255,0,0)" stroke-width="0.705556"/>
		<line x1="898.057" y1="368.625" x2="900.007" y2="366.625" stroke="rgb(255,0,0)" stroke-width="0.705556"/>
		<line x1="900.007" y1="366.625" x2="900.007" y2="337.292" stroke="rgb(255,0,0)" stroke-width="0.705556"/>
		<line x1="900.007" y1="337.292" x2="898.057" y2="335.292" stroke="rgb(255,0,0)" stroke-width="0.705556"/>
		<line x1="898.057" y1="368.625" x2="900.007" y2="366.625" stroke="rgb(255,0,0)" stroke-width="0.705556"/>
		<line x1="900.007" y1="366.625" x2="900.007" y2="337.292" stroke="rgb(255,0,0)" stroke-width="0.705556"/>
		<line x1="900.007" y1="337.292" x2="898.057" y2="335.292" stroke="rgb(255,0,0)" stroke-width="0.705556"/>
		<line x1="898.057" y1="368.625" x2="900.007" y2="366.625" stroke="rgb(255,0,0)" stroke-width="0.705556"/>
		<line x1="900.007" y1="366.625" x2="900.007" y2="337.292" stroke="rgb(255,0,0)" stroke-width="0.705556"/>
		<line x1="900.007" y1="337.292" x2="898.057" y2="335.292" stroke="rgb(255,0,0)" stroke-width="0.705556"/>
		<line x1="898.057" y1="368.625" x2="900.007" y2="366.625" stroke="rgb(255,0,0)" stroke-width="0.705556"/>
		<line x1="900.007" y1="366.625" x2="900.007" y2="337.292" stroke="rgb(255,0,0)" stroke-width="0.705556"/>
		<line x1="900.007" y1="337.292" x2="898.057" y2="335.292" stroke="rgb(255,0,0)" stroke-width="0.705556"/>
		<line x1="898.057" y1="368.625" x2="900.007" y2="366.625" stroke="rgb(255,0,0)" stroke-width="0.705556"/>
		<line x1="900.007" y1="366.625" x2="900.007" y2="337.292" stroke="rgb(255,0,0)" stroke-width="0.705556"/>
		<line x1="900.007" y1="337.292" x2="898.057" y2="335.292" stroke="rgb(255,0,0)" stroke-width="0.705556"/>
		<line x1="898.057" y1="368.625" x2="900.007" y2="366.625" stroke="rgb(255,0,0)" stroke-width="0.705556"/>
		<line x1="900.007" y1="366.625" x2="900.007" y2="337.292" stroke="rgb(255,0,0)" stroke-width="0.705556"/>
		<line x1="900.007" y1="337.292" x2="898.057" y2="335.292" stroke="rgb(255,0,0)" stroke-width="0.705556"/>
		<line x1="898.057" y1="368.625" x2="900.007" y2="366.625" stroke="rgb(255,0,0)" stroke-width="0.705556"/>
		<line x1="900.007" y1="366.625" x2="900.007" y2="337.292" stroke="rgb(255,0,0)" stroke-width="0.705556"/>
		<line x1="900.007" y1="337.292" x2="898.057" y2="335.292" stroke="rgb(255,0,0)" stroke-width="0.705556"/>
		<line x1="898.057" y1="368.625" x2="900.007" y2="366.625" stroke="rgb(255,0,0)" stroke-width="0.705556"/>
		<line x1="900.007" y1="366.625" x2="900.007" y2="337.292" stroke="rgb(255,0,0)" stroke-width="0.705556"/>
		<line x1="900.007" y1="337.292" x2="898.057" y2="335.292" stroke="rgb(255,0,0)" stroke-width="0.705556"/>
		<line x1="898.057" y1="368.625" x2="900.007" y2="366.625" stroke="rgb(255,0,0)" stroke-width="0.705556"/>
		<line x1="900.007" y1="366.625" x2="900.007" y2="337.292" stroke="rgb(255,0,0)" stroke-width="0.705556"/>
		<line x1="900.007" y1="337.292" x2="898.057" y2="335.292" stroke="rgb(255,0,0)" stroke-width="0.705556"/>
		<line x1="898.057" y1="368.625" x2="900.007" y2="366.625" stroke="rgb(255,0,0)" stroke-width="0.705556"/>
		<line x1="900.007" y1="366.625" x2="900.007" y2="337.292" stroke="rgb(255,0,0)" stroke-width="0.705556"/>
		<line x1="900.007" y1="337.292" x2="898.057" y2="335.292" stroke="rgb(255,0,0)" stroke-width="0.705556"/>
		<line x1="691.257" y1="487.592" x2="691.257" y2="487.592" stroke="rgb(255,0,0)" stroke-width="0.705556"/>
		<line x1="691.257" y1="452.259" x2="691.257" y2="452.259" stroke="rgb(255,0,0)" stroke-width="0.705556"/>
		<line x1="691.257" y1="369.625" x2="694.507" y2="369.625" stroke="rgb(255,0,0)" stroke-width="0.705556"/>
		<line x1="694.507" y1="369.625" x2="694.507" y2="334.292" stroke="rgb(255,0,0)" stroke-width="0.705556"/>
		<line x1="694.507" y1="334.292" x2="691.257" y2="334.292" stroke="rgb(255,0,0)" stroke-width="0.705556"/>
		<line x1="691.257" y1="334.292" x2="691.257" y2="369.625" stroke="rgb(255,0,0)" stroke-width="0.705556"/>
		<line x1="691.257" y1="369.625" x2="691.257" y2="369.625" stroke="rgb(255,0,0)" stroke-width="0.705556"/>
		<line x1="691.257" y1="334.292" x2="691.257" y2="334.292" stroke="rgb(255,0,0)" stroke-width="0.705556"/>
		<line x1="691.257" y1="487.592" x2="691.257" y2="487.592" stroke="rgb(255,0,0)" stroke-width="0.705556"/>
		<line x1="691.257" y1="452.259" x2="691.257" y2="452.259" stroke="rgb(255,0,0)" stroke-width="0.705556"/>
		<line x1="691.257" y1="487.592" x2="691.257" y2="487.592" stroke="rgb(255,0,0)" stroke-width="0.705556"/>
		<line x1="691.257" y1="452.259" x2="691.257" y2="452.259" stroke="rgb(255,0,0)" stroke-width="0.705556"/>
		<line x1="691.257" y1="487.592" x2="691.257" y2="487.592" stroke="rgb(255,0,0)" stroke-width="0.705556"/>
		<line x1="691.257" y1="452.259" x2="691.257" y2="452.259" stroke="rgb(255,0,0)" stroke-width="0.705556"/>
		<line x1="691.257" y1="487.592" x2="691.257" y2="487.592" stroke="rgb(255,0,0)" stroke-width="0.705556"/>
		<line x1="691.257" y1="452.259" x2="691.257" y2="452.259" stroke="rgb(255,0,0)" stroke-width="0.705556"/>
		<line x1="691.257" y1="487.592" x2="691.257" y2="487.592" stroke="rgb(255,0,0)" stroke-width="0.705556"/>
		<line x1="691.257" y1="452.259" x2="691.257" y2="452.259" stroke="rgb(255,0,0)" stroke-width="0.705556"/>
		<line x1="691.257" y1="487.592" x2="691.257" y2="487.592" stroke="rgb(255,0,0)" stroke-width="0.705556"/>
		<line x1="691.257" y1="452.259" x2="691.257" y2="452.259" stroke="rgb(255,0,0)" stroke-width="0.705556"/>
		<line x1="691.257" y1="487.592" x2="691.257" y2="487.592" stroke="rgb(255,0,0)" stroke-width="0.705556"/>
		<line x1="691.257" y1="452.259" x2="691.257" y2="452.259" stroke="rgb(255,0,0)" stroke-width="0.705556"/>
		<line x1="691.257" y1="487.592" x2="691.257" y2="487.592" stroke="rgb(255,0,0)" stroke-width="0.705556"/>
		<line x1="691.257" y1="452.259" x2="691.257" y2="452.259" stroke="rgb(255,0,0)" stroke-width="0.705556"/>
		<line x1="691.257" y1="487.592" x2="691.257" y2="487.592" stroke="rgb(255,0,0)" stroke-width="0.705556"/>
		<line x1="691.257" y1="452.259" x2="691.257" y2="452.259" stroke="rgb(255,0,0)" stroke-width="0.705556"/>
		<line x1="691.257" y1="487.592" x2="691.257" y2="487.592" stroke="rgb(255,0,0)" stroke-width="0.705556"/>
		<line x1="691.257" y1="452.259" x2="691.257" y2="452.259" stroke="rgb(255,0,0)" stroke-width="0.705556"/>
		<line x1="691.257" y1="487.592" x2="691.257" y2="487.592" stroke="rgb(255,0,0)" stroke-width="0.705556"/>
		<line x1="691.257" y1="452.259" x2="691.257" y2="452.259" stroke="rgb(255,0,0)" stroke-width="0.705556"/>
		<line x1="691.257" y1="487.592" x2="691.257" y2="487.592" stroke="rgb(255,0,0)" stroke-width="0.705556"/>
		<line x1="691.257" y1="452.259" x2="691.257" y2="452.259" stroke="rgb(255,0,0)" stroke-width="0.705556"/>
		<line x1="691.257" y1="487.592" x2="691.257" y2="487.592" stroke="rgb(255,0,0)" stroke-width="0.705556"/>
		<line x1="691.257" y1="452.259" x2="691.257" y2="452.259" stroke="rgb(255,0,0)" stroke-width="0.705556"/>
		<line x1="691.257" y1="487.592" x2="691.257" y2="487.592" stroke="rgb(255,0,0)" stroke-width="0.705556"/>
		<line x1="691.257" y1="452.259" x2="691.257" y2="452.259" stroke="rgb(255,0,0)" stroke-width="0.705556"/>
		<line x1="691.257" y1="487.592" x2="691.257" y2="487.592" stroke="rgb(255,0,0)" stroke-width="0.705556"/>
		<line x1="691.257" y1="452.259" x2="691.257" y2="452.259" stroke="rgb(255,0,0)" stroke-width="0.705556"/>
		<line x1="691.257" y1="487.592" x2="691.257" y2="487.592" stroke="rgb(255,0,0)" stroke-width="0.705556"/>
		<line x1="691.257" y1="452.259" x2="691.257" y2="452.259" stroke="rgb(255,0,0)" stroke-width="0.705556"/>
		<line x1="691.257" y1="487.592" x2="694.507" y2="487.592" stroke="rgb(255,0,0)" stroke-width="0.705556"/>
		<line x1="694.507" y1="487.592" x2="694.507" y2="452.259" stroke="rgb(255,0,0)" stroke-width="0.705556"/>
		<line x1="694.507" y1="452.259" x2="691.257" y2="452.259" stroke="rgb(255,0,0)" stroke-width="0.705556"/>
		<line x1="691.257" y1="452.259" x2="691.257" y2="487.592" stroke="rgb(255,0,0)" stroke-width="0.705556"/>
		<line x1="691.257" y1="487.592" x2="691.257" y2="487.592" stroke="rgb(255,0,0)" stroke-width="0.705556"/>
		<line x1="691.257" y1="452.259" x2="691.257" y2="452.259" stroke="rgb(255,0,0)" stroke-width="0.705556"/>
	</g>
</svg>