<svg version = "1.1" xmlns = "http://www.w3.org/2000/svg" xmlns:xlink="http://www.w3.org/1999/xlink" width="691.706" height="461.824" viewbox = "0 0 691.706 461.824">
	<g transform="translate(24.1253,487.464) scale(1,-1) ">
		<line x1="464.977" y1="357.002" x2="565.127" y2="357.002" stroke="rgb(255,0,0)" stroke-width="0.705556"/>
		<line x1="565.127" y1="357.002" x2="565.127" y2="337.852" stroke="rgb(255,0,0)" stroke-width="0.705556"/>
		<line x1="565.127" y1="175.252" x2="565.127" y2="156.102" stroke="rgb(255,0,0)" stroke-width="0.705556"/>
		<line x1="565.127" y1="156.102" x2="464.977" y2="156.102" stroke="rgb(255,0,0)" stroke-width="0.705556"/>
		<line x1="178.477" y1="357.002" x2="78.3275" y2="357.002" stroke="rgb(255,0,0)" stroke-width="0.705556"/>
		<line x1="78.3275" y1="357.002" x2="78.3275" y2="337.852" stroke="rgb(255,0,0)" stroke-width="0.705556"/>
		<line x1="78.3275" y1="175.252" x2="78.3275" y2="156.102" stroke="rgb(255,0,0)" stroke-width="0.705556"/>
		<line x1="78.3275" y1="156.102" x2="178.477" y2="156.102" stroke="rgb(255,0,0)" stroke-width="0.705556"/>
		<line x1="463.677" y1="358.502" x2="179.777" y2="358.502" stroke="rgb(255,255,0)" stroke-width="0.705556"/>
		<line x1="178.477" y1="357.002" x2="178.477" y2="156.102" stroke="rgb(255,255,0)" stroke-width="0.705556"/>
		<line x1="179.777" y1="154.602" x2="463.677" y2="154.602" stroke="rgb(255,255,0)" stroke-width="0.705556"/>
		<line x1="464.977" y1="156.102" x2="464.977" y2="357.002" stroke="rgb(255,255,0)" stroke-width="0.705556"/>
		<line x1="178.477" y1="357.002" x2="179.777" y2="357.002" stroke="rgb(255,0,0)" stroke-width="0.705556"/>
		<line x1="179.777" y1="357.002" x2="179.777" y2="358.502" stroke="rgb(255,0,0)" stroke-width="0.705556"/>
		<line x1="463.677" y1="358.502" x2="463.677" y2="357.002" stroke="rgb(255,0,0)" stroke-width="0.705556"/>
		<line x1="463.677" y1="357.002" x2="464.977" y2="357.002" stroke="rgb(255,0,0)" stroke-width="0.705556"/>
		<line x1="463.677" y1="154.602" x2="463.677" y2="156.102" stroke="rgb(255,0,0)" stroke-width="0.705556"/>
		<line x1="463.677" y1="156.102" x2="464.977" y2="156.102" stroke="rgb(255,0,0)" stroke-width="0.705556"/>
		<line x1="178.477" y1="156.102" x2="179.777" y2="156.102" stroke="rgb(255,0,0)" stroke-width="0.705556"/>
		<line x1="179.777" y1="156.102" x2="179.777" y2="154.602" stroke="rgb(255,0,0)" stroke-width="0.705556"/>
		<line x1="179.777" y1="358.502" x2="179.777" y2="360.002" stroke="rgb(255,0,0)" stroke-width="0.705556"/>
		<line x1="179.777" y1="360.002" x2="79.8275" y2="360.002" stroke="rgb(255,0,0)" stroke-width="0.705556"/>
		<line x1="79.8275" y1="360.002" x2="79.8275" y2="458.302" stroke="rgb(255,0,0)" stroke-width="0.705556"/>
		<line x1="79.8275" y1="458.302" x2="179.777" y2="458.302" stroke="rgb(255,0,0)" stroke-width="0.705556"/>
		<line x1="179.777" y1="360.002" x2="179.777" y2="458.302" stroke="rgb(255,255,0)" stroke-width="0.705556"/>
		<line x1="463.677" y1="358.502" x2="463.677" y2="360.002" stroke="rgb(255,0,0)" stroke-width="0.705556"/>
		<line x1="463.677" y1="360.002" x2="563.627" y2="360.002" stroke="rgb(255,0,0)" stroke-width="0.705556"/>
		<line x1="563.627" y1="360.002" x2="563.627" y2="458.302" stroke="rgb(255,0,0)" stroke-width="0.705556"/>
		<line x1="563.627" y1="458.302" x2="463.677" y2="458.302" stroke="rgb(255,0,0)" stroke-width="0.705556"/>
		<line x1="463.677" y1="360.002" x2="463.677" y2="458.302" stroke="rgb(255,255,0)" stroke-width="0.705556"/>
		<line x1="463.677" y1="154.602" x2="463.677" y2="153.102" stroke="rgb(255,0,0)" stroke-width="0.705556"/>
		<line x1="463.677" y1="153.102" x2="563.627" y2="153.102" stroke="rgb(255,0,0)" stroke-width="0.705556"/>
		<line x1="563.627" y1="153.102" x2="563.627" y2="54.8018" stroke="rgb(255,0,0)" stroke-width="0.705556"/>
		<line x1="563.627" y1="54.8018" x2="463.677" y2="54.8018" stroke="rgb(255,0,0)" stroke-width="0.705556"/>
		<line x1="463.677" y1="153.102" x2="463.677" y2="54.8018" stroke="rgb(255,255,0)" stroke-width="0.705556"/>
		<line x1="179.777" y1="154.602" x2="179.777" y2="153.102" stroke="rgb(255,0,0)" stroke-width="0.705556"/>
		<line x1="179.777" y1="153.102" x2="79.8275" y2="153.102" stroke="rgb(255,0,0)" stroke-width="0.705556"/>
		<line x1="79.8275" y1="153.102" x2="79.8275" y2="54.8018" stroke="rgb(255,0,0)" stroke-width="0.705556"/>
		<line x1="79.8275" y1="54.8018" x2="179.777" y2="54.8018" stroke="rgb(255,0,0)" stroke-width="0.705556"/>
		<line x1="179.777" y1="153.102" x2="179.777" y2="54.8018" stroke="rgb(255,255,0)" stroke-width="0.705556"/>
		<line x1="179.777" y1="479.802" x2="463.677" y2="479.802" stroke="rgb(255,0,0)" stroke-width="0.705556"/>
		<line x1="462.377" y1="459.802" x2="181.077" y2="459.802" stroke="rgb(255,255,0)" stroke-width="0.705556"/>
		<line x1="463.677" y1="33.3018" x2="179.777" y2="33.3018" stroke="rgb(255,0,0)" stroke-width="0.705556"/>
		<line x1="181.077" y1="53.3018" x2="462.377" y2="53.3018" stroke="rgb(255,255,0)" stroke-width="0.705556"/>
		<line x1="179.777" y1="458.302" x2="181.077" y2="458.302" stroke="rgb(255,0,0)" stroke-width="0.705556"/>
		<line x1="181.077" y1="458.302" x2="181.077" y2="461.302" stroke="rgb(255,0,0)" stroke-width="0.705556"/>
		<line x1="181.077" y1="461.302" x2="80.4275" y2="461.302" stroke="rgb(255,0,0)" stroke-width="0.705556"/>
		<line x1="80.4275" y1="461.302" x2="80.4275" y2="479.802" stroke="rgb(255,0,0)" stroke-width="0.705556"/>
		<line x1="80.4275" y1="479.802" x2="181.077" y2="479.802" stroke="rgb(255,0,0)" stroke-width="0.705556"/>
		<line x1="181.077" y1="479.802" x2="181.077" y2="479.802" stroke="rgb(255,0,0)" stroke-width="0.705556"/>
		<line x1="181.077" y1="461.302" x2="181.077" y2="479.802" stroke="rgb(255,255,0)" stroke-width="0.705556"/>
		<line x1="181.077" y1="479.802" x2="179.777" y2="479.802" stroke="rgb(255,0,0)" stroke-width="0.705556"/>
		<line x1="463.677" y1="458.302" x2="462.377" y2="458.302" stroke="rgb(255,0,0)" stroke-width="0.705556"/>
		<line x1="462.377" y1="458.302" x2="462.377" y2="461.302" stroke="rgb(255,0,0)" stroke-width="0.705556"/>
		<line x1="462.377" y1="461.302" x2="563.027" y2="461.302" stroke="rgb(255,0,0)" stroke-width="0.705556"/>
		<line x1="563.027" y1="461.302" x2="563.027" y2="479.802" stroke="rgb(255,0,0)" stroke-width="0.705556"/>
		<line x1="563.027" y1="479.802" x2="462.377" y2="479.802" stroke="rgb(255,0,0)" stroke-width="0.705556"/>
		<line x1="462.377" y1="479.802" x2="462.377" y2="479.802" stroke="rgb(255,0,0)" stroke-width="0.705556"/>
		<line x1="462.377" y1="461.302" x2="462.377" y2="479.802" stroke="rgb(255,255,0)" stroke-width="0.705556"/>
		<line x1="462.377" y1="479.802" x2="463.677" y2="479.802" stroke="rgb(255,0,0)" stroke-width="0.705556"/>
		<line x1="179.777" y1="54.8018" x2="181.077" y2="54.8018" stroke="rgb(255,0,0)" stroke-width="0.705556"/>
		<line x1="181.077" y1="54.8018" x2="181.077" y2="51.8018" stroke="rgb(255,0,0)" stroke-width="0.705556"/>
		<line x1="181.077" y1="51.8018" x2="80.4275" y2="51.8018" stroke="rgb(255,0,0)" stroke-width="0.705556"/>
		<line x1="80.4275" y1="51.8018" x2="80.4275" y2="33.3018" stroke="rgb(255,0,0)" stroke-width="0.705556"/>
		<line x1="80.4275" y1="33.3018" x2="181.077" y2="33.3018" stroke="rgb(255,0,0)" stroke-width="0.705556"/>
		<line x1="181.077" y1="33.3018" x2="181.077" y2="33.3018" stroke="rgb(255,0,0)" stroke-width="0.705556"/>
		<line x1="181.077" y1="51.8018" x2="181.077" y2="33.3018" stroke="rgb(255,255,0)" stroke-width="0.705556"/>
		<line x1="181.077" y1="33.3018" x2="179.777" y2="33.3018" stroke="rgb(255,0,0)" stroke-width="0.705556"/>
		<line x1="463.677" y1="54.8018" x2="462.377" y2="54.8018" stroke="rgb(255,0,0)" stroke-width="0.705556"/>
		<line x1="462.377" y1="54.8018" x2="462.377" y2="51.8018" stroke="rgb(255,0,0)" stroke-width="0.705556"/>
		<line x1="462.377" y1="51.8018" x2="563.027" y2="51.8018" stroke="rgb(255,0,0)" stroke-width="0.705556"/>
		<line x1="563.027" y1="51.8018" x2="563.027" y2="33.3018" stroke="rgb(255,0,0)" stroke-width="0.705556"/>
		<line x1="563.027" y1="33.3018" x2="462.377" y2="33.3018" stroke="rgb(255,0,0)" stroke-width="0.705556"/>
		<line x1="462.377" y1="33.3018" x2="462.377" y2="33.3018" stroke="rgb(255,0,0)" stroke-width="0.705556"/>
		<line x1="462.377" y1="51.8018" x2="462.377" y2="33.3018" stroke="rgb(255,255,0)" stroke-width="0.705556"/>
		<line x1="462.377" y1="33.3018" x2="463.677" y2="33.3018" stroke="rgb(255,0,0)" stroke-width="0.705556"/>
		<line x1="565.127" y1="175.252" x2="567.727" y2="175.252" stroke="rgb(255,0,0)" stroke-width="0.705556"/>
		<line x1="567.727" y1="337.852" x2="565.127" y2="337.852" stroke="rgb(255,0,0)" stroke-width="0.705556"/>
		<line x1="78.3275" y1="337.852" x2="75.7275" y2="337.852" stroke="rgb(255,0,0)" stroke-width="0.705556"/>
		<line x1="75.7275" y1="175.252" x2="78.3275" y2="175.252" stroke="rgb(255,0,0)" stroke-width="0.705556"/>
		<line x1="565.127" y1="337.852" x2="565.127" y2="175.252" stroke="rgb(255,255,0)" stroke-width="0.705556"/>
		<line x1="78.3275" y1="337.852" x2="78.3275" y2="175.252" stroke="rgb(255,255,0)" stroke-width="0.705556"/>
		<line x1="667.227" y1="337.852" x2="667.227" y2="175.252" stroke="rgb(255,0,0)" stroke-width="0.705556"/>
		<line x1="567.727" y1="175.252" x2="567.727" y2="337.852" stroke="rgb(255,255,0)" stroke-width="0.705556"/>
		<line x1="-23.7725" y1="175.252" x2="-23.7725" y2="337.852" stroke="rgb(255,0,0)" stroke-width="0.705556"/>
		<line x1="75.7275" y1="337.852" x2="75.7275" y2="175.252" stroke="rgb(255,255,0)" stroke-width="0.705556"/>
		<line x1="567.727" y1="337.852" x2="569.027" y2="337.852" stroke="rgb(255,0,0)" stroke-width="0.705556"/>
		<line x1="569.027" y1="337.852" x2="569.027" y2="366.136" stroke="rgb(255,0,0)" stroke-width="0.705556"/>
		<line x1="667.227" y1="366.136" x2="667.227" y2="337.852" stroke="rgb(255,0,0)" stroke-width="0.705556"/>
		<line x1="667.227" y1="337.852" x2="667.227" y2="337.852" stroke="rgb(255,0,0)" stroke-width="0.705556"/>
		<line x1="569.027" y1="337.852" x2="667.227" y2="337.852" stroke="rgb(255,255,0)" stroke-width="0.705556"/>
		<line x1="567.727" y1="175.252" x2="569.027" y2="175.252" stroke="rgb(255,0,0)" stroke-width="0.705556"/>
		<line x1="569.027" y1="175.252" x2="569.027" y2="146.967" stroke="rgb(255,0,0)" stroke-width="0.705556"/>
		<line x1="667.227" y1="146.967" x2="667.227" y2="175.252" stroke="rgb(255,0,0)" stroke-width="0.705556"/>
		<line x1="667.227" y1="175.252" x2="667.227" y2="175.252" stroke="rgb(255,0,0)" stroke-width="0.705556"/>
		<line x1="569.027" y1="175.252" x2="667.227" y2="175.252" stroke="rgb(255,255,0)" stroke-width="0.705556"/>
		<line x1="75.7275" y1="337.852" x2="74.4275" y2="337.852" stroke="rgb(255,0,0)" stroke-width="0.705556"/>
		<line x1="74.4275" y1="337.852" x2="74.4275" y2="366.136" stroke="rgb(255,0,0)" stroke-width="0.705556"/>
		<line x1="-23.7725" y1="366.136" x2="-23.7725" y2="337.852" stroke="rgb(255,0,0)" stroke-width="0.705556"/>
		<line x1="-23.7725" y1="337.852" x2="-23.7725" y2="337.852" stroke="rgb(255,0,0)" stroke-width="0.705556"/>
		<line x1="74.4275" y1="337.852" x2="-23.7725" y2="337.852" stroke="rgb(255,255,0)" stroke-width="0.705556"/>
		<line x1="75.7275" y1="175.252" x2="74.4275" y2="175.252" stroke="rgb(255,0,0)" stroke-width="0.705556"/>
		<line x1="74.4275" y1="175.252" x2="74.4275" y2="146.967" stroke="rgb(255,0,0)" stroke-width="0.705556"/>
		<line x1="-23.7725" y1="146.967" x2="-23.7725" y2="175.252" stroke="rgb(255,0,0)" stroke-width="0.705556"/>
		<line x1="-23.7725" y1="175.252" x2="-23.7725" y2="175.252" stroke="rgb(255,0,0)" stroke-width="0.705556"/>
		<line x1="74.4275" y1="175.252" x2="-23.7725" y2="175.252" stroke="rgb(255,255,0)" stroke-width="0.705556"/>
		<line x1="569.027" y1="366.136" x2="569.027" y2="487.111" stroke="rgb(255,0,0)" stroke-width="0.705556"/>
		<line x1="569.027" y1="487.111" x2="667.227" y2="487.111" stroke="rgb(255,0,0)" stroke-width="0.705556"/>
		<line x1="667.227" y1="487.111" x2="667.227" y2="366.136" stroke="rgb(255,0,0)" stroke-width="0.705556"/>
		<line x1="667.227" y1="366.136" x2="569.027" y2="366.136" stroke="rgb(255,255,0)" stroke-width="0.705556"/>
		<line x1="667.227" y1="146.967" x2="667.227" y2="25.9925" stroke="rgb(255,0,0)" stroke-width="0.705556"/>
		<line x1="667.227" y1="25.9925" x2="569.027" y2="25.9925" stroke="rgb(255,0,0)" stroke-width="0.705556"/>
		<line x1="569.027" y1="25.9925" x2="569.027" y2="146.967" stroke="rgb(255,0,0)" stroke-width="0.705556"/>
		<line x1="569.027" y1="146.967" x2="667.227" y2="146.967" stroke="rgb(255,255,0)" stroke-width="0.705556"/>
		<line x1="74.4275" y1="146.967" x2="74.4275" y2="25.9925" stroke="rgb(255,0,0)" stroke-width="0.705556"/>
		<line x1="74.4275" y1="25.9925" x2="-23.7725" y2="25.9925" stroke="rgb(255,0,0)" stroke-width="0.705556"/>
		<line x1="-23.7725" y1="25.9925" x2="-23.7725" y2="146.967" stroke="rgb(255,0,0)" stroke-width="0.705556"/>
		<line x1="-23.7725" y1="146.967" x2="74.4275" y2="146.967" stroke="rgb(255,255,0)" stroke-width="0.705556"/>
		<line x1="-23.7725" y1="366.136" x2="-23.7725" y2="487.111" stroke="rgb(255,0,0)" stroke-width="0.705556"/>
		<line x1="-23.7725" y1="487.111" x2="74.4275" y2="487.111" stroke="rgb(255,0,0)" stroke-width="0.705556"/>
		<line x1="74.4275" y1="487.111" x2="74.4275" y2="366.136" stroke="rgb(255,0,0)" stroke-width="0.705556"/>
		<line x1="74.4275" y1="366.136" x2="-23.7725" y2="366.136" stroke="rgb(255,255,0)" stroke-width="0.705556"/>
		<line x1="328.1" y1="193.828" x2="300.485" y2="193.828" stroke="rgb(64,128,128)" stroke-width="0"/>
		<line x1="309.69" y1="202.312" x2="300.485" y2="202.312" stroke="rgb(64,128,128)" stroke-width="0"/>
		<line x1="318.895" y1="198.07" x2="300.485" y2="198.07" stroke="rgb(64,128,128)" stroke-width="0"/>
		<line x1="337.305" y1="189.586" x2="300.485" y2="189.586" stroke="rgb(64,128,128)" stroke-width="0"/>
		<line x1="346.51" y1="185.344" x2="300.485" y2="185.344" stroke="rgb(64,128,128)" stroke-width="0"/>
		<line x1="355.715" y1="181.102" x2="300.485" y2="181.102" stroke="rgb(64,128,128)" stroke-width="0"/>
		<line x1="300.485" y1="206.554" x2="300.485" y2="181.102" stroke="rgb(64,128,128)" stroke-width="0"/>
		<line x1="355.715" y1="181.102" x2="327.397" y2="209.376" stroke="rgb(64,128,128)" stroke-width="0"/>
		<path d="M327.397,209.376 a26.6045 26.6045 0 0 0 -26.9118,-2.82257" fill="none" stroke="rgb(64,128,128)" stroke-width="0"/>
		<line x1="300.485" y1="206.554" x2="355.715" y2="181.102" stroke="rgb(64,128,128)" stroke-width="0"/>
	</g>
</svg>