<svg version = "1.1" xmlns = "http://www.w3.org/2000/svg" xmlns:xlink="http://www.w3.org/1999/xlink" width="485.906" height="457.206" viewbox = "0 0 485.906 457.206">
	<g transform="translate(-10.4798,468.693) scale(1,-1) ">
		<line x1="395.383" y1="339.24" x2="496.033" y2="339.24" stroke="rgb(255,0,0)" stroke-width="0.705556"/>
		<line x1="496.033" y1="339.24" x2="496.033" y2="140.94" stroke="rgb(255,0,0)" stroke-width="0.705556"/>
		<line x1="496.033" y1="140.94" x2="395.383" y2="140.94" stroke="rgb(255,0,0)" stroke-width="0.705556"/>
		<line x1="111.483" y1="339.24" x2="10.8326" y2="339.24" stroke="rgb(255,0,0)" stroke-width="0.705556"/>
		<line x1="10.8326" y1="339.24" x2="10.8326" y2="140.94" stroke="rgb(255,0,0)" stroke-width="0.705556"/>
		<line x1="10.8326" y1="140.94" x2="111.483" y2="140.94" stroke="rgb(255,0,0)" stroke-width="0.705556"/>
		<line x1="394.083" y1="340.74" x2="112.783" y2="340.74" stroke="rgb(255,255,0)" stroke-width="0.705556"/>
		<line x1="111.483" y1="339.24" x2="111.483" y2="140.94" stroke="rgb(255,255,0)" stroke-width="0.705556"/>
		<line x1="112.783" y1="139.44" x2="394.083" y2="139.44" stroke="rgb(255,255,0)" stroke-width="0.705556"/>
		<line x1="395.383" y1="140.94" x2="395.383" y2="339.24" stroke="rgb(255,255,0)" stroke-width="0.705556"/>
		<line x1="111.483" y1="339.24" x2="112.783" y2="339.24" stroke="rgb(255,0,0)" stroke-width="0.705556"/>
		<line x1="112.783" y1="339.24" x2="112.783" y2="340.74" stroke="rgb(255,0,0)" stroke-width="0.705556"/>
		<line x1="394.083" y1="340.74" x2="394.083" y2="339.24" stroke="rgb(255,0,0)" stroke-width="0.705556"/>
		<line x1="394.083" y1="339.24" x2="395.383" y2="339.24" stroke="rgb(255,0,0)" stroke-width="0.705556"/>
		<line x1="394.083" y1="139.44" x2="394.083" y2="140.94" stroke="rgb(255,0,0)" stroke-width="0.705556"/>
		<line x1="394.083" y1="140.94" x2="395.383" y2="140.94" stroke="rgb(255,0,0)" stroke-width="0.705556"/>
		<line x1="111.483" y1="140.94" x2="112.783" y2="140.94" stroke="rgb(255,0,0)" stroke-width="0.705556"/>
		<line x1="112.783" y1="140.94" x2="112.783" y2="139.44" stroke="rgb(255,0,0)" stroke-width="0.705556"/>
		<line x1="492.733" y1="90.7899" x2="473.899" y2="90.7899" stroke="rgb(255,0,0)" stroke-width="0.705556"/>
		<line x1="459.399" y1="76.2899" x2="459.399" y2="76.2899" stroke="rgb(255,0,0)" stroke-width="0.705556"/>
		<line x1="473.899" y1="61.7899" x2="492.733" y2="61.7899" stroke="rgb(255,0,0)" stroke-width="0.705556"/>
		<path d="M473.899,90.7899 a14.5 14.5 0 0 1 -14.5,-14.5" fill="none" stroke="rgb(255,0,0)" stroke-width="0.705556"/>
		<path d="M459.399,76.2899 a14.5 14.5 0 0 1 14.5,-14.5" fill="none" stroke="rgb(255,0,0)" stroke-width="0.705556"/>
		<line x1="14.1326" y1="90.7899" x2="32.9659" y2="90.7899" stroke="rgb(255,0,0)" stroke-width="0.705556"/>
		<line x1="47.4659" y1="76.2899" x2="47.4659" y2="76.2899" stroke="rgb(255,0,0)" stroke-width="0.705556"/>
		<line x1="32.9659" y1="61.7899" x2="14.1326" y2="61.7899" stroke="rgb(255,0,0)" stroke-width="0.705556"/>
		<path d="M32.9659,90.7899 a14.5 14.5 0 0 0 14.5,-14.5" fill="none" stroke="rgb(255,0,0)" stroke-width="0.705556"/>
		<path d="M47.4659,76.2899 a14.5 14.5 0 0 0 -14.5,-14.5" fill="none" stroke="rgb(255,0,0)" stroke-width="0.705556"/>
		<line x1="14.1326" y1="389.39" x2="32.9659" y2="389.39" stroke="rgb(255,0,0)" stroke-width="0.705556"/>
		<line x1="47.4659" y1="403.89" x2="47.4659" y2="403.89" stroke="rgb(255,0,0)" stroke-width="0.705556"/>
		<line x1="32.9659" y1="418.39" x2="14.1326" y2="418.39" stroke="rgb(255,0,0)" stroke-width="0.705556"/>
		<path d="M32.9659,389.39 a14.5 14.5 0 0 1 14.5,14.5" fill="none" stroke="rgb(255,0,0)" stroke-width="0.705556"/>
		<path d="M47.4659,403.89 a14.5 14.5 0 0 1 -14.5,14.5" fill="none" stroke="rgb(255,0,0)" stroke-width="0.705556"/>
		<line x1="492.733" y1="389.39" x2="473.899" y2="389.39" stroke="rgb(255,0,0)" stroke-width="0.705556"/>
		<line x1="459.399" y1="403.89" x2="459.399" y2="403.89" stroke="rgb(255,0,0)" stroke-width="0.705556"/>
		<line x1="473.899" y1="418.39" x2="492.733" y2="418.39" stroke="rgb(255,0,0)" stroke-width="0.705556"/>
		<path d="M473.899,389.39 a14.5 14.5 0 0 0 -14.5,14.5" fill="none" stroke="rgb(255,0,0)" stroke-width="0.705556"/>
		<path d="M459.399,403.89 a14.5 14.5 0 0 0 14.5,14.5" fill="none" stroke="rgb(255,0,0)" stroke-width="0.705556"/>
		<line x1="112.783" y1="442.69" x2="112.783" y2="442.69" stroke="rgb(255,0,0)" stroke-width="0.705556"/>
		<line x1="112.783" y1="468.34" x2="394.083" y2="468.34" stroke="rgb(255,0,0)" stroke-width="0.705556"/>
		<line x1="394.083" y1="442.69" x2="394.083" y2="442.69" stroke="rgb(255,0,0)" stroke-width="0.705556"/>
		<line x1="394.083" y1="442.69" x2="112.783" y2="442.69" stroke="rgb(255,255,0)" stroke-width="0.705556"/>
		<line x1="394.083" y1="442.69" x2="419.733" y2="468.34" stroke="rgb(255,255,0)" stroke-width="0.705556"/>
		<line x1="112.783" y1="442.69" x2="87.1326" y2="468.34" stroke="rgb(255,255,0)" stroke-width="0.705556"/>
		<line x1="112.783" y1="37.4899" x2="112.783" y2="37.4899" stroke="rgb(255,0,0)" stroke-width="0.705556"/>
		<line x1="112.783" y1="11.8399" x2="394.083" y2="11.8399" stroke="rgb(255,0,0)" stroke-width="0.705556"/>
		<line x1="394.083" y1="37.4899" x2="394.083" y2="37.4899" stroke="rgb(255,0,0)" stroke-width="0.705556"/>
		<line x1="394.083" y1="37.4899" x2="112.783" y2="37.4899" stroke="rgb(255,255,0)" stroke-width="0.705556"/>
		<line x1="394.083" y1="37.4899" x2="419.733" y2="11.8399" stroke="rgb(255,255,0)" stroke-width="0.705556"/>
		<line x1="112.783" y1="37.4899" x2="87.1326" y2="11.8399" stroke="rgb(255,255,0)" stroke-width="0.705556"/>
		<line x1="471.033" y1="219.257" x2="471.033" y2="260.923" stroke="rgb(255,0,0)" stroke-width="0.705556"/>
		<line x1="458.533" y1="273.423" x2="458.533" y2="273.423" stroke="rgb(255,0,0)" stroke-width="0.705556"/>
		<line x1="446.033" y1="260.923" x2="446.033" y2="219.257" stroke="rgb(255,0,0)" stroke-width="0.705556"/>
		<line x1="458.533" y1="206.757" x2="458.533" y2="206.757" stroke="rgb(255,0,0)" stroke-width="0.705556"/>
		<path d="M446.033,219.257 a12.5 12.5 0 0 1 12.5,-12.5" fill="none" stroke="rgb(255,0,0)" stroke-width="0.705556"/>
		<path d="M458.533,273.423 a12.5 12.5 0 0 1 -12.5,-12.5" fill="none" stroke="rgb(255,0,0)" stroke-width="0.705556"/>
		<path d="M471.033,260.923 a12.5 12.5 0 0 1 -12.5,12.5" fill="none" stroke="rgb(255,0,0)" stroke-width="0.705556"/>
		<path d="M471.033,219.257 a12.5 12.5 0 0 0 -12.5,-12.5" fill="none" stroke="rgb(255,0,0)" stroke-width="0.705556"/>
		<line x1="35.8326" y1="260.923" x2="35.8326" y2="219.257" stroke="rgb(255,0,0)" stroke-width="0.705556"/>
		<line x1="48.3326" y1="206.757" x2="48.3326" y2="206.757" stroke="rgb(255,0,0)" stroke-width="0.705556"/>
		<line x1="60.8326" y1="219.257" x2="60.8326" y2="260.923" stroke="rgb(255,0,0)" stroke-width="0.705556"/>
		<line x1="48.3326" y1="273.423" x2="48.3326" y2="273.423" stroke="rgb(255,0,0)" stroke-width="0.705556"/>
		<path d="M60.8326,260.923 a12.5 12.5 0 0 1 -12.5,12.5" fill="none" stroke="rgb(255,0,0)" stroke-width="0.705556"/>
		<path d="M48.3326,206.757 a12.5 12.5 0 0 1 12.5,12.5" fill="none" stroke="rgb(255,0,0)" stroke-width="0.705556"/>
		<path d="M35.8326,219.257 a12.5 12.5 0 0 1 12.5,-12.5" fill="none" stroke="rgb(255,0,0)" stroke-width="0.705556"/>
		<path d="M35.8326,260.923 a12.5 12.5 0 0 0 12.5,12.5" fill="none" stroke="rgb(255,0,0)" stroke-width="0.705556"/>
		<line x1="253.433" y1="192.055" x2="253.433" y2="164.44" stroke="rgb(64,128,128)" stroke-width="0"/>
		<line x1="261.917" y1="173.645" x2="261.917" y2="164.44" stroke="rgb(64,128,128)" stroke-width="0"/>
		<line x1="257.675" y1="182.85" x2="257.675" y2="164.44" stroke="rgb(64,128,128)" stroke-width="0"/>
		<line x1="249.191" y1="201.26" x2="249.191" y2="164.44" stroke="rgb(64,128,128)" stroke-width="0"/>
		<line x1="244.949" y1="210.465" x2="244.949" y2="164.44" stroke="rgb(64,128,128)" stroke-width="0"/>
		<line x1="240.707" y1="219.669" x2="240.707" y2="164.44" stroke="rgb(64,128,128)" stroke-width="0"/>
		<line x1="266.159" y1="164.44" x2="240.707" y2="164.44" stroke="rgb(64,128,128)" stroke-width="0"/>
		<line x1="240.707" y1="219.669" x2="268.981" y2="191.352" stroke="rgb(64,128,128)" stroke-width="0"/>
		<path d="M268.981,191.352 a26.6045 26.6045 0 0 1 -2.82257,-26.9118" fill="none" stroke="rgb(64,128,128)" stroke-width="0"/>
		<line x1="266.159" y1="164.44" x2="240.707" y2="219.669" stroke="rgb(64,128,128)" stroke-width="0"/>
		<line x1="112.783" y1="340.74" x2="112.783" y2="342.24" stroke="rgb(255,0,0)" stroke-width="0.705556"/>
		<line x1="112.783" y1="342.24" x2="14.1326" y2="342.24" stroke="rgb(255,0,0)" stroke-width="0.705556"/>
		<line x1="14.1326" y1="342.24" x2="14.1326" y2="389.39" stroke="rgb(255,0,0)" stroke-width="0.705556"/>
		<line x1="14.1326" y1="418.39" x2="14.1326" y2="442.69" stroke="rgb(255,0,0)" stroke-width="0.705556"/>
		<line x1="112.783" y1="442.69" x2="112.783" y2="442.69" stroke="rgb(255,0,0)" stroke-width="0.705556"/>
		<line x1="112.783" y1="342.24" x2="112.783" y2="442.69" stroke="rgb(255,255,0)" stroke-width="0.705556"/>
		<line x1="394.083" y1="340.74" x2="394.083" y2="342.24" stroke="rgb(255,0,0)" stroke-width="0.705556"/>
		<line x1="394.083" y1="342.24" x2="492.733" y2="342.24" stroke="rgb(255,0,0)" stroke-width="0.705556"/>
		<line x1="492.733" y1="342.24" x2="492.733" y2="389.39" stroke="rgb(255,0,0)" stroke-width="0.705556"/>
		<line x1="492.733" y1="418.39" x2="492.733" y2="442.69" stroke="rgb(255,0,0)" stroke-width="0.705556"/>
		<line x1="394.083" y1="442.69" x2="394.083" y2="442.69" stroke="rgb(255,0,0)" stroke-width="0.705556"/>
		<line x1="394.083" y1="342.24" x2="394.083" y2="442.69" stroke="rgb(255,255,0)" stroke-width="0.705556"/>
		<line x1="394.083" y1="468.34" x2="492.733" y2="468.34" stroke="rgb(255,0,0)" stroke-width="0.705556"/>
		<line x1="492.733" y1="468.34" x2="492.733" y2="442.69" stroke="rgb(255,0,0)" stroke-width="0.705556"/>
		<line x1="492.733" y1="442.69" x2="394.083" y2="442.69" stroke="rgb(255,255,0)" stroke-width="0.705556"/>
		<line x1="394.083" y1="442.69" x2="394.083" y2="468.34" stroke="rgb(255,255,0)" stroke-width="0.705556"/>
		<line x1="112.783" y1="442.69" x2="14.1326" y2="442.69" stroke="rgb(255,255,0)" stroke-width="0.705556"/>
		<line x1="14.1326" y1="442.69" x2="14.1326" y2="468.34" stroke="rgb(255,0,0)" stroke-width="0.705556"/>
		<line x1="14.1326" y1="468.34" x2="112.783" y2="468.34" stroke="rgb(255,0,0)" stroke-width="0.705556"/>
		<line x1="112.783" y1="468.34" x2="112.783" y2="442.69" stroke="rgb(255,255,0)" stroke-width="0.705556"/>
		<line x1="394.083" y1="139.44" x2="394.083" y2="137.94" stroke="rgb(255,0,0)" stroke-width="0.705556"/>
		<line x1="394.083" y1="137.94" x2="492.733" y2="137.94" stroke="rgb(255,0,0)" stroke-width="0.705556"/>
		<line x1="492.733" y1="137.94" x2="492.733" y2="90.7899" stroke="rgb(255,0,0)" stroke-width="0.705556"/>
		<line x1="492.733" y1="61.7899" x2="492.733" y2="37.4899" stroke="rgb(255,0,0)" stroke-width="0.705556"/>
		<line x1="394.083" y1="37.4899" x2="394.083" y2="37.4899" stroke="rgb(255,0,0)" stroke-width="0.705556"/>
		<line x1="394.083" y1="137.94" x2="394.083" y2="37.4899" stroke="rgb(255,255,0)" stroke-width="0.705556"/>
		<line x1="112.783" y1="139.44" x2="112.783" y2="137.94" stroke="rgb(255,0,0)" stroke-width="0.705556"/>
		<line x1="112.783" y1="137.94" x2="14.1326" y2="137.94" stroke="rgb(255,0,0)" stroke-width="0.705556"/>
		<line x1="14.1326" y1="137.94" x2="14.1326" y2="90.7899" stroke="rgb(255,0,0)" stroke-width="0.705556"/>
		<line x1="14.1326" y1="61.7899" x2="14.1326" y2="37.4899" stroke="rgb(255,0,0)" stroke-width="0.705556"/>
		<line x1="112.783" y1="37.4899" x2="112.783" y2="37.4899" stroke="rgb(255,0,0)" stroke-width="0.705556"/>
		<line x1="112.783" y1="137.94" x2="112.783" y2="37.4899" stroke="rgb(255,255,0)" stroke-width="0.705556"/>
		<line x1="394.083" y1="37.4899" x2="492.733" y2="37.4899" stroke="rgb(255,255,0)" stroke-width="0.705556"/>
		<line x1="492.733" y1="37.4899" x2="492.733" y2="11.8399" stroke="rgb(255,0,0)" stroke-width="0.705556"/>
		<line x1="492.733" y1="11.8399" x2="394.083" y2="11.8399" stroke="rgb(255,0,0)" stroke-width="0.705556"/>
		<line x1="394.083" y1="11.8399" x2="394.083" y2="37.4899" stroke="rgb(255,255,0)" stroke-width="0.705556"/>
		<line x1="112.783" y1="11.8399" x2="14.1326" y2="11.8399" stroke="rgb(255,0,0)" stroke-width="0.705556"/>
		<line x1="14.1326" y1="11.8399" x2="14.1326" y2="37.4899" stroke="rgb(255,0,0)" stroke-width="0.705556"/>
		<line x1="14.1326" y1="37.4899" x2="112.783" y2="37.4899" stroke="rgb(255,255,0)" stroke-width="0.705556"/>
		<line x1="112.783" y1="37.4899" x2="112.783" y2="11.8399" stroke="rgb(255,255,0)" stroke-width="0.705556"/>
	</g>
</svg>