<svg version = "1.1" xmlns = "http://www.w3.org/2000/svg" xmlns:xlink="http://www.w3.org/1999/xlink" width="535.606" height="323.306" viewbox = "0 0 535.606 323.306">
	<g transform="translate(-42.2082,378.966) scale(1,-1) ">
		<line x1="168.061" y1="378.614" x2="451.961" y2="378.614" stroke="rgb(255,0,0)" stroke-width="0.705556"/>
		<line x1="451.961" y1="56.0136" x2="168.061" y2="56.0136" stroke="rgb(255,0,0)" stroke-width="0.705556"/>
		<line x1="451.961" y1="317.964" x2="168.061" y2="317.964" stroke="rgb(255,255,0)" stroke-width="0.705556"/>
		<line x1="166.761" y1="317.964" x2="166.761" y2="237.314" stroke="rgb(255,255,0)" stroke-width="0.705556"/>
		<line x1="166.761" y1="197.314" x2="166.761" y2="116.664" stroke="rgb(255,255,0)" stroke-width="0.705556"/>
		<line x1="168.061" y1="116.664" x2="451.961" y2="116.664" stroke="rgb(255,255,0)" stroke-width="0.705556"/>
		<line x1="453.261" y1="116.664" x2="453.261" y2="197.314" stroke="rgb(255,255,0)" stroke-width="0.705556"/>
		<line x1="453.261" y1="237.314" x2="453.261" y2="317.964" stroke="rgb(255,255,0)" stroke-width="0.705556"/>
		<line x1="168.061" y1="317.964" x2="168.061" y2="317.964" stroke="rgb(255,0,0)" stroke-width="0.705556"/>
		<line x1="451.961" y1="317.964" x2="451.961" y2="317.964" stroke="rgb(255,0,0)" stroke-width="0.705556"/>
		<line x1="451.961" y1="116.664" x2="451.961" y2="116.664" stroke="rgb(255,0,0)" stroke-width="0.705556"/>
		<line x1="168.061" y1="116.664" x2="168.061" y2="116.664" stroke="rgb(255,0,0)" stroke-width="0.705556"/>
		<line x1="453.261" y1="116.664" x2="453.261" y2="116.014" stroke="rgb(255,255,0)" stroke-width="0.705556"/>
		<line x1="166.761" y1="317.964" x2="166.761" y2="318.614" stroke="rgb(255,255,0)" stroke-width="0.705556"/>
		<line x1="453.261" y1="317.964" x2="453.261" y2="318.614" stroke="rgb(255,255,0)" stroke-width="0.705556"/>
		<line x1="166.761" y1="116.664" x2="166.761" y2="116.014" stroke="rgb(255,255,0)" stroke-width="0.705556"/>
		<line x1="575.511" y1="197.314" x2="577.461" y2="198.314" stroke="rgb(255,0,0)" stroke-width="0.705556"/>
		<line x1="577.461" y1="198.314" x2="577.461" y2="236.314" stroke="rgb(255,0,0)" stroke-width="0.705556"/>
		<line x1="577.461" y1="236.314" x2="575.511" y2="237.314" stroke="rgb(255,0,0)" stroke-width="0.705556"/>
		<line x1="44.511" y1="237.314" x2="42.561" y2="236.314" stroke="rgb(255,0,0)" stroke-width="0.705556"/>
		<line x1="42.561" y1="236.314" x2="42.561" y2="198.314" stroke="rgb(255,0,0)" stroke-width="0.705556"/>
		<line x1="42.561" y1="198.314" x2="44.511" y2="197.314" stroke="rgb(255,0,0)" stroke-width="0.705556"/>
		<line x1="316.384" y1="154.39" x2="288.769" y2="154.39" stroke="rgb(64,128,128)" stroke-width="0"/>
		<line x1="297.974" y1="162.874" x2="288.769" y2="162.874" stroke="rgb(64,128,128)" stroke-width="0"/>
		<line x1="307.179" y1="158.632" x2="288.769" y2="158.632" stroke="rgb(64,128,128)" stroke-width="0"/>
		<line x1="325.589" y1="150.148" x2="288.769" y2="150.148" stroke="rgb(64,128,128)" stroke-width="0"/>
		<line x1="334.794" y1="145.906" x2="288.769" y2="145.906" stroke="rgb(64,128,128)" stroke-width="0"/>
		<line x1="343.999" y1="141.664" x2="288.769" y2="141.664" stroke="rgb(64,128,128)" stroke-width="0"/>
		<line x1="288.769" y1="167.116" x2="288.769" y2="141.664" stroke="rgb(64,128,128)" stroke-width="0"/>
		<line x1="343.999" y1="141.664" x2="315.681" y2="169.938" stroke="rgb(64,128,128)" stroke-width="0"/>
		<path d="M315.681,169.938 a26.6045 26.6045 0 0 0 -26.9118,-2.82257" fill="none" stroke="rgb(64,128,128)" stroke-width="0"/>
		<line x1="288.769" y1="167.116" x2="343.999" y2="141.664" stroke="rgb(64,128,128)" stroke-width="0"/>
		<line x1="451.961" y1="378.614" x2="453.261" y2="377.314" stroke="rgb(255,0,0)" stroke-width="0.705556"/>
		<line x1="453.261" y1="377.314" x2="550.611" y2="377.314" stroke="rgb(255,0,0)" stroke-width="0.705556"/>
		<line x1="550.611" y1="377.314" x2="550.611" y2="333.614" stroke="rgb(255,0,0)" stroke-width="0.705556"/>
		<line x1="550.611" y1="333.614" x2="517.411" y2="333.614" stroke="rgb(255,0,0)" stroke-width="0.705556"/>
		<line x1="517.411" y1="333.614" x2="513.411" y2="318.614" stroke="rgb(255,0,0)" stroke-width="0.705556"/>
		<line x1="513.411" y1="318.614" x2="453.261" y2="318.614" stroke="rgb(255,0,0)" stroke-width="0.705556"/>
		<line x1="453.261" y1="318.614" x2="451.961" y2="317.964" stroke="rgb(255,0,0)" stroke-width="0.705556"/>
		<line x1="451.961" y1="378.614" x2="451.961" y2="317.964" stroke="rgb(255,255,0)" stroke-width="0.705556"/>
		<line x1="451.961" y1="56.0136" x2="453.261" y2="57.3136" stroke="rgb(255,0,0)" stroke-width="0.705556"/>
		<line x1="453.261" y1="57.3136" x2="550.611" y2="57.3136" stroke="rgb(255,0,0)" stroke-width="0.705556"/>
		<line x1="550.611" y1="57.3136" x2="550.611" y2="101.014" stroke="rgb(255,0,0)" stroke-width="0.705556"/>
		<line x1="550.611" y1="101.014" x2="517.411" y2="101.014" stroke="rgb(255,0,0)" stroke-width="0.705556"/>
		<line x1="517.411" y1="101.014" x2="513.411" y2="116.014" stroke="rgb(255,0,0)" stroke-width="0.705556"/>
		<line x1="513.411" y1="116.014" x2="453.261" y2="116.014" stroke="rgb(255,0,0)" stroke-width="0.705556"/>
		<line x1="453.261" y1="116.014" x2="451.961" y2="116.664" stroke="rgb(255,0,0)" stroke-width="0.705556"/>
		<line x1="451.961" y1="56.0136" x2="451.961" y2="116.664" stroke="rgb(255,255,0)" stroke-width="0.705556"/>
		<line x1="168.061" y1="56.0136" x2="166.761" y2="57.3136" stroke="rgb(255,0,0)" stroke-width="0.705556"/>
		<line x1="166.761" y1="57.3136" x2="69.411" y2="57.3136" stroke="rgb(255,0,0)" stroke-width="0.705556"/>
		<line x1="69.411" y1="57.3136" x2="69.411" y2="101.014" stroke="rgb(255,0,0)" stroke-width="0.705556"/>
		<line x1="69.411" y1="101.014" x2="102.611" y2="101.014" stroke="rgb(255,0,0)" stroke-width="0.705556"/>
		<line x1="102.611" y1="101.014" x2="106.611" y2="116.014" stroke="rgb(255,0,0)" stroke-width="0.705556"/>
		<line x1="106.611" y1="116.014" x2="166.761" y2="116.014" stroke="rgb(255,0,0)" stroke-width="0.705556"/>
		<line x1="166.761" y1="116.014" x2="168.061" y2="116.664" stroke="rgb(255,0,0)" stroke-width="0.705556"/>
		<line x1="168.061" y1="56.0136" x2="168.061" y2="116.664" stroke="rgb(255,255,0)" stroke-width="0.705556"/>
		<line x1="168.061" y1="378.614" x2="166.761" y2="377.314" stroke="rgb(255,0,0)" stroke-width="0.705556"/>
		<line x1="166.761" y1="377.314" x2="69.411" y2="377.314" stroke="rgb(255,0,0)" stroke-width="0.705556"/>
		<line x1="69.411" y1="377.314" x2="69.411" y2="333.614" stroke="rgb(255,0,0)" stroke-width="0.705556"/>
		<line x1="69.411" y1="333.614" x2="102.611" y2="333.614" stroke="rgb(255,0,0)" stroke-width="0.705556"/>
		<line x1="102.611" y1="333.614" x2="106.611" y2="318.614" stroke="rgb(255,0,0)" stroke-width="0.705556"/>
		<line x1="106.611" y1="318.614" x2="166.761" y2="318.614" stroke="rgb(255,0,0)" stroke-width="0.705556"/>
		<line x1="166.761" y1="318.614" x2="168.061" y2="317.964" stroke="rgb(255,0,0)" stroke-width="0.705556"/>
		<line x1="168.061" y1="378.614" x2="168.061" y2="317.964" stroke="rgb(255,255,0)" stroke-width="0.705556"/>
		<line x1="513.411" y1="318.614" x2="513.411" y2="237.314" stroke="rgb(255,255,0)" stroke-width="0.705556"/>
		<line x1="513.411" y1="197.314" x2="513.411" y2="116.014" stroke="rgb(255,255,0)" stroke-width="0.705556"/>
		<line x1="513.411" y1="116.014" x2="516.011" y2="117.964" stroke="rgb(255,0,0)" stroke-width="0.705556"/>
		<line x1="516.011" y1="316.664" x2="513.411" y2="318.614" stroke="rgb(255,0,0)" stroke-width="0.705556"/>
		<line x1="516.011" y1="316.664" x2="575.511" y2="316.664" stroke="rgb(255,0,0)" stroke-width="0.705556"/>
		<line x1="575.511" y1="316.664" x2="575.511" y2="237.314" stroke="rgb(255,0,0)" stroke-width="0.705556"/>
		<line x1="575.511" y1="197.314" x2="575.511" y2="117.964" stroke="rgb(255,0,0)" stroke-width="0.705556"/>
		<line x1="575.511" y1="117.964" x2="516.011" y2="117.964" stroke="rgb(255,0,0)" stroke-width="0.705556"/>
		<line x1="516.011" y1="117.964" x2="516.011" y2="198.007" stroke="rgb(255,255,0)" stroke-width="0.705556"/>
		<line x1="516.011" y1="236.62" x2="516.011" y2="316.664" stroke="rgb(255,255,0)" stroke-width="0.705556"/>
		<line x1="513.411" y1="237.314" x2="524.699" y2="234.303" stroke="rgb(255,0,0)" stroke-width="0.705556"/>
		<line x1="528.411" y1="229.472" x2="528.411" y2="205.155" stroke="rgb(255,0,0)" stroke-width="0.705556"/>
		<line x1="524.699" y1="200.324" x2="513.411" y2="197.314" stroke="rgb(255,0,0)" stroke-width="0.705556"/>
		<path d="M524.699,234.303 a5 5 0 0 0 3.71169,-4.83117" fill="none" stroke="rgb(255,0,0)" stroke-width="0.705556"/>
		<path d="M524.699,200.324 a5 5 0 0 1 3.71169,4.83117" fill="none" stroke="rgb(255,0,0)" stroke-width="0.705556"/>
		<line x1="106.611" y1="116.014" x2="106.611" y2="197.314" stroke="rgb(255,255,0)" stroke-width="0.705556"/>
		<line x1="106.611" y1="237.314" x2="106.611" y2="318.614" stroke="rgb(255,255,0)" stroke-width="0.705556"/>
		<line x1="106.611" y1="318.614" x2="104.011" y2="316.664" stroke="rgb(255,0,0)" stroke-width="0.705556"/>
		<line x1="104.011" y1="117.964" x2="106.611" y2="116.014" stroke="rgb(255,0,0)" stroke-width="0.705556"/>
		<line x1="104.011" y1="117.964" x2="44.511" y2="117.964" stroke="rgb(255,0,0)" stroke-width="0.705556"/>
		<line x1="44.511" y1="117.964" x2="44.511" y2="197.314" stroke="rgb(255,0,0)" stroke-width="0.705556"/>
		<line x1="44.511" y1="237.314" x2="44.511" y2="316.664" stroke="rgb(255,0,0)" stroke-width="0.705556"/>
		<line x1="44.511" y1="316.664" x2="104.011" y2="316.664" stroke="rgb(255,0,0)" stroke-width="0.705556"/>
		<line x1="104.011" y1="316.664" x2="104.011" y2="236.62" stroke="rgb(255,255,0)" stroke-width="0.705556"/>
		<line x1="104.011" y1="198.007" x2="104.011" y2="117.964" stroke="rgb(255,255,0)" stroke-width="0.705556"/>
		<line x1="106.611" y1="197.314" x2="95.3227" y2="200.324" stroke="rgb(255,0,0)" stroke-width="0.705556"/>
		<line x1="91.611" y1="205.155" x2="91.611" y2="229.472" stroke="rgb(255,0,0)" stroke-width="0.705556"/>
		<line x1="95.3227" y1="234.303" x2="106.611" y2="237.314" stroke="rgb(255,0,0)" stroke-width="0.705556"/>
		<path d="M95.3227,200.324 a5 5 0 0 0 -3.71169,4.83117" fill="none" stroke="rgb(255,0,0)" stroke-width="0.705556"/>
		<path d="M95.3227,234.303 a5 5 0 0 1 -3.71169,-4.83117" fill="none" stroke="rgb(255,0,0)" stroke-width="0.705556"/>
		<line x1="166.761" y1="237.314" x2="170.011" y2="237.314" stroke="rgb(255,0,0)" stroke-width="0.705556"/>
		<line x1="170.011" y1="237.314" x2="170.011" y2="197.314" stroke="rgb(255,0,0)" stroke-width="0.705556"/>
		<line x1="170.011" y1="197.314" x2="166.761" y2="197.314" stroke="rgb(255,0,0)" stroke-width="0.705556"/>
		<line x1="166.761" y1="237.314" x2="166.761" y2="197.314" stroke="rgb(255,0,0)" stroke-width="0.705556"/>
		<line x1="453.261" y1="197.314" x2="450.011" y2="197.314" stroke="rgb(255,0,0)" stroke-width="0.705556"/>
		<line x1="450.011" y1="197.314" x2="450.011" y2="237.314" stroke="rgb(255,0,0)" stroke-width="0.705556"/>
		<line x1="450.011" y1="237.314" x2="453.261" y2="237.314" stroke="rgb(255,0,0)" stroke-width="0.705556"/>
		<line x1="453.261" y1="197.314" x2="453.261" y2="237.314" stroke="rgb(255,0,0)" stroke-width="0.705556"/>
	</g>
</svg>