<svg version = "1.1" xmlns = "http://www.w3.org/2000/svg" xmlns:xlink="http://www.w3.org/1999/xlink" width="544.606" height="542.311" viewbox = "0 0 544.606 542.311">
	<g transform="translate(-62.1436,611.956) scale(1,-1) ">
		<line x1="476.396" y1="442.101" x2="192.496" y2="442.101" stroke="rgb(255,255,0)" stroke-width="0.705556"/>
		<line x1="192.496" y1="239.501" x2="476.396" y2="239.501" stroke="rgb(255,255,0)" stroke-width="0.705556"/>
		<line x1="476.396" y1="440.801" x2="476.396" y2="361.931" stroke="rgb(255,255,0)" stroke-width="0.705556"/>
		<line x1="476.396" y1="319.671" x2="476.396" y2="240.801" stroke="rgb(255,255,0)" stroke-width="0.705556"/>
		<line x1="192.496" y1="240.801" x2="192.496" y2="319.671" stroke="rgb(255,255,0)" stroke-width="0.705556"/>
		<line x1="192.496" y1="361.931" x2="192.496" y2="440.801" stroke="rgb(255,255,0)" stroke-width="0.705556"/>
		<line x1="576.396" y1="440.801" x2="576.396" y2="440.801" stroke="rgb(255,0,0)" stroke-width="0.705556"/>
		<line x1="576.396" y1="440.801" x2="576.396" y2="543.401" stroke="rgb(255,0,0)" stroke-width="0.705556"/>
		<line x1="576.396" y1="543.401" x2="477.046" y2="543.401" stroke="rgb(255,0,0)" stroke-width="0.705556"/>
		<line x1="576.396" y1="440.801" x2="476.396" y2="440.801" stroke="rgb(255,255,0)" stroke-width="0.705556"/>
		<line x1="476.396" y1="440.801" x2="477.046" y2="442.101" stroke="rgb(255,0,0)" stroke-width="0.705556"/>
		<line x1="477.046" y1="442.101" x2="477.046" y2="543.401" stroke="rgb(255,0,0)" stroke-width="0.705556"/>
		<line x1="476.396" y1="442.101" x2="477.046" y2="442.101" stroke="rgb(255,255,0)" stroke-width="0.705556"/>
		<line x1="92.4964" y1="440.801" x2="92.4964" y2="440.801" stroke="rgb(255,0,0)" stroke-width="0.705556"/>
		<line x1="92.4964" y1="440.801" x2="92.4964" y2="543.401" stroke="rgb(255,0,0)" stroke-width="0.705556"/>
		<line x1="92.4964" y1="543.401" x2="191.846" y2="543.401" stroke="rgb(255,0,0)" stroke-width="0.705556"/>
		<line x1="92.4964" y1="440.801" x2="192.496" y2="440.801" stroke="rgb(255,255,0)" stroke-width="0.705556"/>
		<line x1="92.4964" y1="240.801" x2="92.4964" y2="240.801" stroke="rgb(255,0,0)" stroke-width="0.705556"/>
		<line x1="92.4964" y1="240.801" x2="92.4964" y2="138.201" stroke="rgb(255,0,0)" stroke-width="0.705556"/>
		<line x1="92.4964" y1="138.201" x2="191.846" y2="138.201" stroke="rgb(255,0,0)" stroke-width="0.705556"/>
		<line x1="92.4964" y1="240.801" x2="192.496" y2="240.801" stroke="rgb(255,255,0)" stroke-width="0.705556"/>
		<line x1="576.396" y1="240.801" x2="576.396" y2="240.801" stroke="rgb(255,0,0)" stroke-width="0.705556"/>
		<line x1="576.396" y1="240.801" x2="576.396" y2="138.201" stroke="rgb(255,0,0)" stroke-width="0.705556"/>
		<line x1="576.396" y1="138.201" x2="477.046" y2="138.201" stroke="rgb(255,0,0)" stroke-width="0.705556"/>
		<line x1="576.396" y1="240.801" x2="476.396" y2="240.801" stroke="rgb(255,255,0)" stroke-width="0.705556"/>
		<line x1="192.496" y1="440.801" x2="191.846" y2="442.101" stroke="rgb(255,0,0)" stroke-width="0.705556"/>
		<line x1="191.846" y1="442.101" x2="191.846" y2="543.401" stroke="rgb(255,0,0)" stroke-width="0.705556"/>
		<line x1="192.496" y1="442.101" x2="191.846" y2="442.101" stroke="rgb(255,255,0)" stroke-width="0.705556"/>
		<line x1="476.396" y1="240.801" x2="477.046" y2="239.501" stroke="rgb(255,0,0)" stroke-width="0.705556"/>
		<line x1="477.046" y1="239.501" x2="477.046" y2="138.201" stroke="rgb(255,0,0)" stroke-width="0.705556"/>
		<line x1="476.396" y1="239.501" x2="477.046" y2="239.501" stroke="rgb(255,255,0)" stroke-width="0.705556"/>
		<line x1="192.496" y1="240.801" x2="191.846" y2="239.501" stroke="rgb(255,0,0)" stroke-width="0.705556"/>
		<line x1="191.846" y1="239.501" x2="191.846" y2="138.201" stroke="rgb(255,0,0)" stroke-width="0.705556"/>
		<line x1="192.496" y1="239.501" x2="191.846" y2="239.501" stroke="rgb(255,255,0)" stroke-width="0.705556"/>
		<line x1="576.396" y1="320.671" x2="596.396" y2="321.671" stroke="rgb(255,0,0)" stroke-width="0.705556"/>
		<line x1="596.396" y1="321.671" x2="596.396" y2="359.931" stroke="rgb(255,0,0)" stroke-width="0.705556"/>
		<line x1="596.396" y1="359.931" x2="576.396" y2="360.931" stroke="rgb(255,0,0)" stroke-width="0.705556"/>
		<line x1="92.4964" y1="360.931" x2="72.4964" y2="359.931" stroke="rgb(255,0,0)" stroke-width="0.705556"/>
		<line x1="72.4964" y1="359.931" x2="72.4964" y2="321.671" stroke="rgb(255,0,0)" stroke-width="0.705556"/>
		<line x1="72.4964" y1="321.671" x2="92.4964" y2="320.671" stroke="rgb(255,0,0)" stroke-width="0.705556"/>
		<line x1="576.396" y1="440.801" x2="606.396" y2="430.801" stroke="rgb(255,0,0)" stroke-width="0.705556"/>
		<line x1="606.396" y1="430.801" x2="606.396" y2="370.931" stroke="rgb(255,0,0)" stroke-width="0.705556"/>
		<line x1="606.396" y1="370.931" x2="576.396" y2="360.931" stroke="rgb(255,0,0)" stroke-width="0.705556"/>
		<line x1="576.396" y1="440.801" x2="576.396" y2="420.834" stroke="rgb(255,255,0)" stroke-width="0.705556"/>
		<line x1="576.396" y1="380.899" x2="576.396" y2="360.931" stroke="rgb(255,255,0)" stroke-width="0.705556"/>
		<line x1="576.396" y1="320.671" x2="606.396" y2="310.671" stroke="rgb(255,0,0)" stroke-width="0.705556"/>
		<line x1="606.396" y1="310.671" x2="606.396" y2="250.801" stroke="rgb(255,0,0)" stroke-width="0.705556"/>
		<line x1="606.396" y1="250.801" x2="576.396" y2="240.801" stroke="rgb(255,0,0)" stroke-width="0.705556"/>
		<line x1="576.396" y1="320.671" x2="576.396" y2="300.704" stroke="rgb(255,255,0)" stroke-width="0.705556"/>
		<line x1="576.396" y1="260.769" x2="576.396" y2="240.801" stroke="rgb(255,255,0)" stroke-width="0.705556"/>
		<line x1="92.4964" y1="240.801" x2="62.4964" y2="250.801" stroke="rgb(255,0,0)" stroke-width="0.705556"/>
		<line x1="62.4964" y1="250.801" x2="62.4964" y2="310.671" stroke="rgb(255,0,0)" stroke-width="0.705556"/>
		<line x1="62.4964" y1="310.671" x2="92.4964" y2="320.671" stroke="rgb(255,0,0)" stroke-width="0.705556"/>
		<line x1="92.4964" y1="240.801" x2="92.4964" y2="260.769" stroke="rgb(255,255,0)" stroke-width="0.705556"/>
		<line x1="92.4964" y1="300.704" x2="92.4964" y2="320.671" stroke="rgb(255,255,0)" stroke-width="0.705556"/>
		<line x1="92.4964" y1="360.931" x2="62.4964" y2="370.931" stroke="rgb(255,0,0)" stroke-width="0.705556"/>
		<line x1="62.4964" y1="370.931" x2="62.4964" y2="430.801" stroke="rgb(255,0,0)" stroke-width="0.705556"/>
		<line x1="62.4964" y1="430.801" x2="92.4964" y2="440.801" stroke="rgb(255,0,0)" stroke-width="0.705556"/>
		<line x1="92.4964" y1="360.931" x2="92.4964" y2="380.899" stroke="rgb(255,255,0)" stroke-width="0.705556"/>
		<line x1="92.4964" y1="420.834" x2="92.4964" y2="440.801" stroke="rgb(255,255,0)" stroke-width="0.705556"/>
		<line x1="191.846" y1="543.401" x2="191.846" y2="565.669" stroke="rgb(255,0,0)" stroke-width="0.705556"/>
		<line x1="191.846" y1="603.554" x2="191.846" y2="611.604" stroke="rgb(255,0,0)" stroke-width="0.705556"/>
		<line x1="191.846" y1="611.604" x2="477.046" y2="611.604" stroke="rgb(255,0,0)" stroke-width="0.705556"/>
		<line x1="477.046" y1="611.604" x2="477.046" y2="603.554" stroke="rgb(255,0,0)" stroke-width="0.705556"/>
		<line x1="477.046" y1="565.669" x2="477.046" y2="543.401" stroke="rgb(255,0,0)" stroke-width="0.705556"/>
		<line x1="477.046" y1="543.401" x2="191.846" y2="543.401" stroke="rgb(255,255,0)" stroke-width="0.705556"/>
		<line x1="477.046" y1="138.201" x2="477.046" y2="115.934" stroke="rgb(255,0,0)" stroke-width="0.705556"/>
		<line x1="477.046" y1="78.0487" x2="477.046" y2="69.9987" stroke="rgb(255,0,0)" stroke-width="0.705556"/>
		<line x1="477.046" y1="69.9987" x2="191.846" y2="69.9987" stroke="rgb(255,0,0)" stroke-width="0.705556"/>
		<line x1="191.846" y1="69.9987" x2="191.846" y2="78.0487" stroke="rgb(255,0,0)" stroke-width="0.705556"/>
		<line x1="191.846" y1="115.934" x2="191.846" y2="138.201" stroke="rgb(255,0,0)" stroke-width="0.705556"/>
		<line x1="191.846" y1="138.201" x2="477.046" y2="138.201" stroke="rgb(255,255,0)" stroke-width="0.705556"/>
		<line x1="576.396" y1="420.834" x2="578.996" y2="420.834" stroke="rgb(255,0,0)" stroke-width="0.705556"/>
		<line x1="578.996" y1="420.834" x2="578.996" y2="380.899" stroke="rgb(255,0,0)" stroke-width="0.705556"/>
		<line x1="578.996" y1="380.899" x2="576.396" y2="380.899" stroke="rgb(255,0,0)" stroke-width="0.705556"/>
		<line x1="576.396" y1="420.834" x2="576.396" y2="380.899" stroke="rgb(255,0,0)" stroke-width="0.705556"/>
		<line x1="576.396" y1="300.704" x2="578.996" y2="300.704" stroke="rgb(255,0,0)" stroke-width="0.705556"/>
		<line x1="578.996" y1="300.704" x2="578.996" y2="260.769" stroke="rgb(255,0,0)" stroke-width="0.705556"/>
		<line x1="578.996" y1="260.769" x2="576.396" y2="260.769" stroke="rgb(255,0,0)" stroke-width="0.705556"/>
		<line x1="576.396" y1="300.704" x2="576.396" y2="260.769" stroke="rgb(255,0,0)" stroke-width="0.705556"/>
		<line x1="92.4964" y1="260.769" x2="89.8964" y2="260.769" stroke="rgb(255,0,0)" stroke-width="0.705556"/>
		<line x1="89.8964" y1="260.769" x2="89.8964" y2="300.704" stroke="rgb(255,0,0)" stroke-width="0.705556"/>
		<line x1="89.8964" y1="300.704" x2="92.4964" y2="300.704" stroke="rgb(255,0,0)" stroke-width="0.705556"/>
		<line x1="92.4964" y1="260.769" x2="92.4964" y2="300.704" stroke="rgb(255,0,0)" stroke-width="0.705556"/>
		<line x1="92.4964" y1="380.899" x2="89.8964" y2="380.899" stroke="rgb(255,0,0)" stroke-width="0.705556"/>
		<line x1="89.8964" y1="380.899" x2="89.8964" y2="420.834" stroke="rgb(255,0,0)" stroke-width="0.705556"/>
		<line x1="89.8964" y1="420.834" x2="92.4964" y2="420.834" stroke="rgb(255,0,0)" stroke-width="0.705556"/>
		<line x1="92.4964" y1="380.899" x2="92.4964" y2="420.834" stroke="rgb(255,0,0)" stroke-width="0.705556"/>
		<line x1="496.396" y1="361.931" x2="472.496" y2="361.931" stroke="rgb(255,0,0)" stroke-width="0.705556"/>
		<line x1="472.496" y1="361.931" x2="472.496" y2="319.671" stroke="rgb(255,0,0)" stroke-width="0.705556"/>
		<line x1="472.496" y1="319.671" x2="496.396" y2="319.671" stroke="rgb(255,0,0)" stroke-width="0.705556"/>
		<line x1="496.396" y1="319.671" x2="496.396" y2="361.931" stroke="rgb(255,0,0)" stroke-width="0.705556"/>
		<line x1="172.496" y1="319.671" x2="196.396" y2="319.671" stroke="rgb(255,0,0)" stroke-width="0.705556"/>
		<line x1="196.396" y1="319.671" x2="196.396" y2="361.931" stroke="rgb(255,0,0)" stroke-width="0.705556"/>
		<line x1="196.396" y1="361.931" x2="172.496" y2="361.931" stroke="rgb(255,0,0)" stroke-width="0.705556"/>
		<line x1="172.496" y1="361.931" x2="172.496" y2="319.671" stroke="rgb(255,0,0)" stroke-width="0.705556"/>
		<line x1="334.446" y1="303.416" x2="334.446" y2="275.801" stroke="rgb(64,128,128)" stroke-width="0"/>
		<line x1="342.93" y1="285.006" x2="342.93" y2="275.801" stroke="rgb(64,128,128)" stroke-width="0"/>
		<line x1="338.688" y1="294.211" x2="338.688" y2="275.801" stroke="rgb(64,128,128)" stroke-width="0"/>
		<line x1="330.204" y1="312.621" x2="330.204" y2="275.801" stroke="rgb(64,128,128)" stroke-width="0"/>
		<line x1="325.962" y1="321.826" x2="325.962" y2="275.801" stroke="rgb(64,128,128)" stroke-width="0"/>
		<line x1="321.72" y1="331.031" x2="321.72" y2="275.801" stroke="rgb(64,128,128)" stroke-width="0"/>
		<line x1="347.172" y1="275.801" x2="321.72" y2="275.801" stroke="rgb(64,128,128)" stroke-width="0"/>
		<line x1="321.72" y1="331.031" x2="349.995" y2="302.713" stroke="rgb(64,128,128)" stroke-width="0"/>
		<path d="M349.995,302.713 a26.6045 26.6045 0 0 1 -2.82257,-26.9118" fill="none" stroke="rgb(64,128,128)" stroke-width="0"/>
		<line x1="347.172" y1="275.801" x2="321.72" y2="331.031" stroke="rgb(64,128,128)" stroke-width="0"/>
		<line x1="193.796" y1="565.669" x2="157.861" y2="565.669" stroke="rgb(255,0,0)" stroke-width="0.705556"/>
		<line x1="193.796" y1="565.669" x2="193.796" y2="601.604" stroke="rgb(255,255,0)" stroke-width="0.705556"/>
		<line x1="193.796" y1="601.604" x2="188.796" y2="606.604" stroke="rgb(255,0,0)" stroke-width="0.705556"/>
		<path d="M157.861,565.669 a39.5285 39.5285 0 0 0 30.935,40.935" fill="none" stroke="rgb(255,0,0)" stroke-width="0.705556"/>
		<line x1="475.096" y1="565.669" x2="511.031" y2="565.669" stroke="rgb(255,0,0)" stroke-width="0.705556"/>
		<line x1="475.096" y1="565.669" x2="475.096" y2="601.604" stroke="rgb(255,255,0)" stroke-width="0.705556"/>
		<line x1="475.096" y1="601.604" x2="480.096" y2="606.604" stroke="rgb(255,0,0)" stroke-width="0.705556"/>
		<path d="M511.031,565.669 a39.5285 39.5285 0 0 1 -30.935,40.935" fill="none" stroke="rgb(255,0,0)" stroke-width="0.705556"/>
		<line x1="475.096" y1="115.934" x2="511.031" y2="115.934" stroke="rgb(255,0,0)" stroke-width="0.705556"/>
		<line x1="475.096" y1="115.934" x2="475.096" y2="79.9987" stroke="rgb(255,255,0)" stroke-width="0.705556"/>
		<line x1="475.096" y1="79.9987" x2="480.096" y2="74.9987" stroke="rgb(255,0,0)" stroke-width="0.705556"/>
		<path d="M511.031,115.934 a39.5285 39.5285 0 0 0 -30.935,-40.935" fill="none" stroke="rgb(255,0,0)" stroke-width="0.705556"/>
		<line x1="193.796" y1="115.934" x2="157.861" y2="115.934" stroke="rgb(255,0,0)" stroke-width="0.705556"/>
		<line x1="193.796" y1="115.934" x2="193.796" y2="79.9987" stroke="rgb(255,255,0)" stroke-width="0.705556"/>
		<line x1="193.796" y1="79.9987" x2="188.796" y2="74.9987" stroke="rgb(255,0,0)" stroke-width="0.705556"/>
		<path d="M157.861,115.934 a39.5285 39.5285 0 0 1 30.935,-40.935" fill="none" stroke="rgb(255,0,0)" stroke-width="0.705556"/>
	</g>
</svg>