<svg version = "1.1" xmlns = "http://www.w3.org/2000/svg" xmlns:xlink="http://www.w3.org/1999/xlink" width="451.106" height="575.006" viewbox = "0 0 451.106 575.006">
	<g transform="translate(-62.8118,618.389) scale(1,-1) ">
		<line x1="510.965" y1="431.536" x2="510.965" y2="230.236" stroke="rgb(255,0,0)" stroke-width="0.705556"/>
		<line x1="430.315" y1="431.536" x2="430.315" y2="403.519" stroke="rgb(255,255,0)" stroke-width="0.705556"/>
		<line x1="430.315" y1="377.203" x2="430.315" y2="284.569" stroke="rgb(255,255,0)" stroke-width="0.705556"/>
		<line x1="430.315" y1="258.253" x2="430.315" y2="230.236" stroke="rgb(255,255,0)" stroke-width="0.705556"/>
		<line x1="65.7646" y1="230.236" x2="65.7646" y2="431.536" stroke="rgb(255,0,0)" stroke-width="0.705556"/>
		<line x1="146.415" y1="230.236" x2="146.415" y2="258.253" stroke="rgb(255,255,0)" stroke-width="0.705556"/>
		<line x1="146.415" y1="284.569" x2="146.415" y2="377.203" stroke="rgb(255,255,0)" stroke-width="0.705556"/>
		<line x1="146.415" y1="403.519" x2="146.415" y2="431.536" stroke="rgb(255,255,0)" stroke-width="0.705556"/>
		<line x1="430.315" y1="432.836" x2="146.415" y2="432.836" stroke="rgb(255,255,0)" stroke-width="0.705556"/>
		<line x1="146.415" y1="228.936" x2="430.315" y2="228.936" stroke="rgb(255,255,0)" stroke-width="0.705556"/>
		<line x1="456.981" y1="458.203" x2="513.565" y2="514.786" stroke="rgb(255,0,0)" stroke-width="0.705556"/>
		<line x1="513.565" y1="514.786" x2="513.565" y2="514.786" stroke="rgb(255,0,0)" stroke-width="0.705556"/>
		<line x1="431.615" y1="432.836" x2="431.615" y2="514.786" stroke="rgb(255,255,0)" stroke-width="0.705556"/>
		<line x1="430.315" y1="432.836" x2="431.615" y2="432.836" stroke="rgb(255,255,0)" stroke-width="0.705556"/>
		<line x1="119.748" y1="458.203" x2="63.1646" y2="514.786" stroke="rgb(255,0,0)" stroke-width="0.705556"/>
		<line x1="63.1646" y1="514.786" x2="63.1646" y2="514.786" stroke="rgb(255,0,0)" stroke-width="0.705556"/>
		<line x1="145.115" y1="432.836" x2="145.115" y2="514.786" stroke="rgb(255,255,0)" stroke-width="0.705556"/>
		<line x1="119.748" y1="203.569" x2="63.1646" y2="146.986" stroke="rgb(255,0,0)" stroke-width="0.705556"/>
		<line x1="63.1646" y1="146.986" x2="63.1646" y2="146.986" stroke="rgb(255,0,0)" stroke-width="0.705556"/>
		<line x1="145.115" y1="228.936" x2="145.115" y2="146.986" stroke="rgb(255,255,0)" stroke-width="0.705556"/>
		<line x1="456.981" y1="203.569" x2="513.565" y2="146.986" stroke="rgb(255,0,0)" stroke-width="0.705556"/>
		<line x1="513.565" y1="146.986" x2="513.565" y2="146.986" stroke="rgb(255,0,0)" stroke-width="0.705556"/>
		<line x1="431.615" y1="228.936" x2="431.615" y2="146.986" stroke="rgb(255,255,0)" stroke-width="0.705556"/>
		<line x1="430.315" y1="431.536" x2="510.965" y2="431.536" stroke="rgb(255,255,0)" stroke-width="0.705556"/>
		<line x1="510.965" y1="431.536" x2="510.965" y2="458.203" stroke="rgb(255,0,0)" stroke-width="0.705556"/>
		<line x1="510.965" y1="458.203" x2="456.981" y2="458.203" stroke="rgb(255,0,0)" stroke-width="0.705556"/>
		<line x1="456.981" y1="458.203" x2="430.315" y2="431.536" stroke="rgb(255,0,0)" stroke-width="0.705556"/>
		<line x1="146.415" y1="431.536" x2="65.7646" y2="431.536" stroke="rgb(255,255,0)" stroke-width="0.705556"/>
		<line x1="65.7646" y1="431.536" x2="65.7646" y2="458.203" stroke="rgb(255,0,0)" stroke-width="0.705556"/>
		<line x1="65.7646" y1="458.203" x2="119.748" y2="458.203" stroke="rgb(255,0,0)" stroke-width="0.705556"/>
		<line x1="119.748" y1="458.203" x2="146.415" y2="431.536" stroke="rgb(255,0,0)" stroke-width="0.705556"/>
		<line x1="430.315" y1="230.236" x2="510.965" y2="230.236" stroke="rgb(255,255,0)" stroke-width="0.705556"/>
		<line x1="510.965" y1="230.236" x2="510.965" y2="203.569" stroke="rgb(255,0,0)" stroke-width="0.705556"/>
		<line x1="510.965" y1="203.569" x2="456.981" y2="203.569" stroke="rgb(255,0,0)" stroke-width="0.705556"/>
		<line x1="456.981" y1="203.569" x2="430.315" y2="230.236" stroke="rgb(255,0,0)" stroke-width="0.705556"/>
		<line x1="146.415" y1="230.236" x2="65.7646" y2="230.236" stroke="rgb(255,255,0)" stroke-width="0.705556"/>
		<line x1="65.7646" y1="230.236" x2="65.7646" y2="203.569" stroke="rgb(255,0,0)" stroke-width="0.705556"/>
		<line x1="65.7646" y1="203.569" x2="119.748" y2="203.569" stroke="rgb(255,0,0)" stroke-width="0.705556"/>
		<line x1="119.748" y1="203.569" x2="146.415" y2="230.236" stroke="rgb(255,0,0)" stroke-width="0.705556"/>
		<line x1="145.115" y1="432.836" x2="146.415" y2="432.836" stroke="rgb(255,255,0)" stroke-width="0.705556"/>
		<line x1="145.115" y1="228.936" x2="146.415" y2="228.936" stroke="rgb(255,255,0)" stroke-width="0.705556"/>
		<line x1="430.315" y1="228.936" x2="431.615" y2="228.936" stroke="rgb(255,255,0)" stroke-width="0.705556"/>
		<line x1="431.615" y1="514.786" x2="434.615" y2="514.786" stroke="rgb(255,0,0)" stroke-width="0.705556"/>
		<line x1="434.615" y1="514.786" x2="434.615" y2="596.086" stroke="rgb(255,0,0)" stroke-width="0.705556"/>
		<line x1="434.615" y1="596.086" x2="460.931" y2="596.086" stroke="rgb(255,0,0)" stroke-width="0.705556"/>
		<line x1="487.248" y1="596.086" x2="513.565" y2="596.086" stroke="rgb(255,0,0)" stroke-width="0.705556"/>
		<line x1="513.565" y1="596.086" x2="513.565" y2="514.786" stroke="rgb(255,0,0)" stroke-width="0.705556"/>
		<line x1="513.565" y1="514.786" x2="513.565" y2="514.786" stroke="rgb(255,0,0)" stroke-width="0.705556"/>
		<line x1="434.615" y1="514.786" x2="513.565" y2="514.786" stroke="rgb(255,255,0)" stroke-width="0.705556"/>
		<line x1="431.615" y1="146.986" x2="434.615" y2="146.986" stroke="rgb(255,0,0)" stroke-width="0.705556"/>
		<line x1="434.615" y1="146.986" x2="434.615" y2="65.6862" stroke="rgb(255,0,0)" stroke-width="0.705556"/>
		<line x1="434.615" y1="65.6862" x2="460.931" y2="65.6862" stroke="rgb(255,0,0)" stroke-width="0.705556"/>
		<line x1="487.248" y1="65.6862" x2="513.565" y2="65.6862" stroke="rgb(255,0,0)" stroke-width="0.705556"/>
		<line x1="513.565" y1="65.6862" x2="513.565" y2="146.986" stroke="rgb(255,0,0)" stroke-width="0.705556"/>
		<line x1="513.565" y1="146.986" x2="513.565" y2="146.986" stroke="rgb(255,0,0)" stroke-width="0.705556"/>
		<line x1="434.615" y1="146.986" x2="513.565" y2="146.986" stroke="rgb(255,255,0)" stroke-width="0.705556"/>
		<line x1="487.248" y1="596.086" x2="486.248" y2="598.036" stroke="rgb(255,0,0)" stroke-width="0.705556"/>
		<line x1="486.248" y1="598.036" x2="461.931" y2="598.036" stroke="rgb(255,0,0)" stroke-width="0.705556"/>
		<line x1="461.931" y1="598.036" x2="460.931" y2="596.086" stroke="rgb(255,0,0)" stroke-width="0.705556"/>
		<line x1="460.931" y1="65.6862" x2="461.931" y2="63.7362" stroke="rgb(255,0,0)" stroke-width="0.705556"/>
		<line x1="461.931" y1="63.7362" x2="486.248" y2="63.7362" stroke="rgb(255,0,0)" stroke-width="0.705556"/>
		<line x1="486.248" y1="63.7362" x2="487.248" y2="65.6862" stroke="rgb(255,0,0)" stroke-width="0.705556"/>
		<line x1="145.115" y1="514.786" x2="142.115" y2="514.786" stroke="rgb(255,0,0)" stroke-width="0.705556"/>
		<line x1="142.115" y1="514.786" x2="142.115" y2="596.086" stroke="rgb(255,0,0)" stroke-width="0.705556"/>
		<line x1="142.115" y1="596.086" x2="115.798" y2="596.086" stroke="rgb(255,0,0)" stroke-width="0.705556"/>
		<line x1="89.4812" y1="596.086" x2="63.1646" y2="596.086" stroke="rgb(255,0,0)" stroke-width="0.705556"/>
		<line x1="63.1646" y1="596.086" x2="63.1646" y2="514.786" stroke="rgb(255,0,0)" stroke-width="0.705556"/>
		<line x1="63.1646" y1="514.786" x2="63.1646" y2="514.786" stroke="rgb(255,0,0)" stroke-width="0.705556"/>
		<line x1="142.115" y1="514.786" x2="63.1646" y2="514.786" stroke="rgb(255,255,0)" stroke-width="0.705556"/>
		<line x1="145.115" y1="514.786" x2="145.115" y2="514.786" stroke="rgb(255,0,0)" stroke-width="0.705556"/>
		<line x1="145.115" y1="514.786" x2="145.115" y2="618.036" stroke="rgb(255,0,0)" stroke-width="0.705556"/>
		<line x1="145.115" y1="618.036" x2="431.615" y2="618.036" stroke="rgb(255,0,0)" stroke-width="0.705556"/>
		<line x1="431.615" y1="618.036" x2="431.615" y2="514.786" stroke="rgb(255,0,0)" stroke-width="0.705556"/>
		<line x1="431.615" y1="514.786" x2="431.615" y2="514.786" stroke="rgb(255,0,0)" stroke-width="0.705556"/>
		<line x1="145.115" y1="516.086" x2="431.615" y2="516.086" stroke="rgb(255,255,0)" stroke-width="0.705556"/>
		<line x1="431.615" y1="146.986" x2="431.615" y2="146.986" stroke="rgb(255,0,0)" stroke-width="0.705556"/>
		<line x1="431.615" y1="146.986" x2="431.615" y2="43.7362" stroke="rgb(255,0,0)" stroke-width="0.705556"/>
		<line x1="431.615" y1="43.7362" x2="145.115" y2="43.7362" stroke="rgb(255,0,0)" stroke-width="0.705556"/>
		<line x1="145.115" y1="43.7362" x2="145.115" y2="146.986" stroke="rgb(255,0,0)" stroke-width="0.705556"/>
		<line x1="145.115" y1="146.986" x2="145.115" y2="146.986" stroke="rgb(255,0,0)" stroke-width="0.705556"/>
		<line x1="431.615" y1="145.686" x2="145.115" y2="145.686" stroke="rgb(255,255,0)" stroke-width="0.705556"/>
		<line x1="115.798" y1="596.086" x2="114.798" y2="598.036" stroke="rgb(255,0,0)" stroke-width="0.705556"/>
		<line x1="114.798" y1="598.036" x2="90.4812" y2="598.036" stroke="rgb(255,0,0)" stroke-width="0.705556"/>
		<line x1="90.4812" y1="598.036" x2="89.4812" y2="596.086" stroke="rgb(255,0,0)" stroke-width="0.705556"/>
		<line x1="430.315" y1="403.519" x2="428.365" y2="403.519" stroke="rgb(255,0,0)" stroke-width="0.705556"/>
		<line x1="428.365" y1="403.519" x2="428.365" y2="377.203" stroke="rgb(255,0,0)" stroke-width="0.705556"/>
		<line x1="428.365" y1="377.203" x2="430.315" y2="377.203" stroke="rgb(255,0,0)" stroke-width="0.705556"/>
		<line x1="430.315" y1="403.519" x2="430.315" y2="377.203" stroke="rgb(255,0,0)" stroke-width="0.705556"/>
		<line x1="430.315" y1="258.253" x2="428.365" y2="258.253" stroke="rgb(255,0,0)" stroke-width="0.705556"/>
		<line x1="428.365" y1="258.253" x2="428.365" y2="284.569" stroke="rgb(255,0,0)" stroke-width="0.705556"/>
		<line x1="428.365" y1="284.569" x2="430.315" y2="284.569" stroke="rgb(255,0,0)" stroke-width="0.705556"/>
		<line x1="430.315" y1="258.253" x2="430.315" y2="284.569" stroke="rgb(255,0,0)" stroke-width="0.705556"/>
		<line x1="146.415" y1="403.519" x2="148.365" y2="403.519" stroke="rgb(255,0,0)" stroke-width="0.705556"/>
		<line x1="148.365" y1="403.519" x2="148.365" y2="377.203" stroke="rgb(255,0,0)" stroke-width="0.705556"/>
		<line x1="148.365" y1="377.203" x2="146.415" y2="377.203" stroke="rgb(255,0,0)" stroke-width="0.705556"/>
		<line x1="146.415" y1="403.519" x2="146.415" y2="377.203" stroke="rgb(255,0,0)" stroke-width="0.705556"/>
		<line x1="146.415" y1="258.253" x2="148.365" y2="258.253" stroke="rgb(255,0,0)" stroke-width="0.705556"/>
		<line x1="148.365" y1="258.253" x2="148.365" y2="284.569" stroke="rgb(255,0,0)" stroke-width="0.705556"/>
		<line x1="148.365" y1="284.569" x2="146.415" y2="284.569" stroke="rgb(255,0,0)" stroke-width="0.705556"/>
		<line x1="146.415" y1="258.253" x2="146.415" y2="284.569" stroke="rgb(255,0,0)" stroke-width="0.705556"/>
		<line x1="145.115" y1="146.986" x2="142.115" y2="146.986" stroke="rgb(255,0,0)" stroke-width="0.705556"/>
		<line x1="142.115" y1="146.986" x2="142.115" y2="65.6862" stroke="rgb(255,0,0)" stroke-width="0.705556"/>
		<line x1="142.115" y1="65.6862" x2="115.798" y2="65.6862" stroke="rgb(255,0,0)" stroke-width="0.705556"/>
		<line x1="89.4812" y1="65.6862" x2="63.1646" y2="65.6862" stroke="rgb(255,0,0)" stroke-width="0.705556"/>
		<line x1="63.1646" y1="65.6862" x2="63.1646" y2="146.986" stroke="rgb(255,0,0)" stroke-width="0.705556"/>
		<line x1="63.1646" y1="146.986" x2="63.1646" y2="146.986" stroke="rgb(255,0,0)" stroke-width="0.705556"/>
		<line x1="142.115" y1="146.986" x2="63.1646" y2="146.986" stroke="rgb(255,255,0)" stroke-width="0.705556"/>
		<line x1="89.4812" y1="65.6862" x2="90.4812" y2="63.7362" stroke="rgb(255,0,0)" stroke-width="0.705556"/>
		<line x1="90.4812" y1="63.7362" x2="114.798" y2="63.7362" stroke="rgb(255,0,0)" stroke-width="0.705556"/>
		<line x1="114.798" y1="63.7362" x2="115.798" y2="65.6862" stroke="rgb(255,0,0)" stroke-width="0.705556"/>
		<line x1="288.365" y1="306.551" x2="288.365" y2="278.936" stroke="rgb(64,128,128)" stroke-width="0"/>
		<line x1="296.849" y1="288.141" x2="296.849" y2="278.936" stroke="rgb(64,128,128)" stroke-width="0"/>
		<line x1="292.607" y1="297.346" x2="292.607" y2="278.936" stroke="rgb(64,128,128)" stroke-width="0"/>
		<line x1="284.123" y1="315.756" x2="284.123" y2="278.936" stroke="rgb(64,128,128)" stroke-width="0"/>
		<line x1="279.881" y1="324.961" x2="279.881" y2="278.936" stroke="rgb(64,128,128)" stroke-width="0"/>
		<line x1="275.639" y1="334.166" x2="275.639" y2="278.936" stroke="rgb(64,128,128)" stroke-width="0"/>
		<line x1="301.091" y1="278.936" x2="275.639" y2="278.936" stroke="rgb(64,128,128)" stroke-width="0"/>
		<line x1="275.639" y1="334.166" x2="303.913" y2="305.848" stroke="rgb(64,128,128)" stroke-width="0"/>
		<path d="M303.913,305.848 a26.6045 26.6045 0 0 1 -2.82257,-26.9118" fill="none" stroke="rgb(64,128,128)" stroke-width="0"/>
		<line x1="301.091" y1="278.936" x2="275.639" y2="334.166" stroke="rgb(64,128,128)" stroke-width="0"/>
	</g>
</svg>