<svg version = "1.1" xmlns = "http://www.w3.org/2000/svg" xmlns:xlink="http://www.w3.org/1999/xlink" width="761.406" height="688.506" viewbox = "0 0 761.406 688.506">
	<g transform="translate(-50.1721,767.374) scale(1,-1) ">
		<line x1="456.875" y1="279.872" x2="456.875" y2="566.372" stroke="rgb(255,255,0)" stroke-width="0.705556"/>
		<line x1="659.475" y1="565.072" x2="659.475" y2="281.172" stroke="rgb(255,255,0)" stroke-width="0.705556"/>
		<line x1="811.225" y1="281.172" x2="811.225" y2="565.072" stroke="rgb(255,0,0)" stroke-width="0.705556"/>
		<line x1="304.425" y1="279.872" x2="301.825" y2="279.222" stroke="rgb(255,0,0)" stroke-width="0.705556"/>
		<line x1="151.325" y1="279.222" x2="100.525" y2="279.222" stroke="rgb(255,0,0)" stroke-width="0.705556"/>
		<line x1="100.525" y1="567.022" x2="151.325" y2="567.022" stroke="rgb(255,0,0)" stroke-width="0.705556"/>
		<line x1="301.825" y1="567.022" x2="304.425" y2="566.372" stroke="rgb(255,0,0)" stroke-width="0.705556"/>
		<line x1="301.825" y1="279.222" x2="301.825" y2="567.022" stroke="rgb(255,255,0)" stroke-width="0.705556"/>
		<line x1="304.425" y1="566.372" x2="304.425" y2="566.372" stroke="rgb(255,0,0)" stroke-width="0.705556"/>
		<line x1="304.425" y1="767.022" x2="455.575" y2="767.022" stroke="rgb(255,0,0)" stroke-width="0.705556"/>
		<line x1="304.425" y1="566.372" x2="455.575" y2="566.372" stroke="rgb(255,255,0)" stroke-width="0.705556"/>
		<line x1="304.425" y1="279.872" x2="304.425" y2="279.872" stroke="rgb(255,0,0)" stroke-width="0.705556"/>
		<line x1="304.425" y1="79.2215" x2="455.575" y2="79.2215" stroke="rgb(255,0,0)" stroke-width="0.705556"/>
		<line x1="304.425" y1="279.872" x2="455.575" y2="279.872" stroke="rgb(255,255,0)" stroke-width="0.705556"/>
		<line x1="304.425" y1="566.372" x2="304.425" y2="767.022" stroke="rgb(255,255,0)" stroke-width="0.705556"/>
		<line x1="304.425" y1="767.022" x2="301.825" y2="766.372" stroke="rgb(255,0,0)" stroke-width="0.705556"/>
		<line x1="301.825" y1="567.022" x2="304.425" y2="566.372" stroke="rgb(255,0,0)" stroke-width="0.705556"/>
		<line x1="304.425" y1="79.2215" x2="304.425" y2="279.872" stroke="rgb(255,255,0)" stroke-width="0.705556"/>
		<line x1="304.425" y1="279.872" x2="301.825" y2="279.222" stroke="rgb(255,0,0)" stroke-width="0.705556"/>
		<line x1="301.825" y1="79.8715" x2="304.425" y2="79.2215" stroke="rgb(255,0,0)" stroke-width="0.705556"/>
		<line x1="301.825" y1="567.022" x2="151.325" y2="567.022" stroke="rgb(255,0,0)" stroke-width="0.705556"/>
		<line x1="151.325" y1="567.022" x2="151.325" y2="592.022" stroke="rgb(255,0,0)" stroke-width="0.705556"/>
		<line x1="151.325" y1="625.355" x2="151.325" y2="708.038" stroke="rgb(255,0,0)" stroke-width="0.705556"/>
		<line x1="151.325" y1="741.372" x2="151.325" y2="766.372" stroke="rgb(255,0,0)" stroke-width="0.705556"/>
		<line x1="151.325" y1="766.372" x2="301.825" y2="766.372" stroke="rgb(255,0,0)" stroke-width="0.705556"/>
		<line x1="301.825" y1="766.372" x2="301.825" y2="567.022" stroke="rgb(255,255,0)" stroke-width="0.705556"/>
		<line x1="301.825" y1="79.8715" x2="151.325" y2="79.8715" stroke="rgb(255,0,0)" stroke-width="0.705556"/>
		<line x1="151.325" y1="79.8715" x2="151.325" y2="104.872" stroke="rgb(255,0,0)" stroke-width="0.705556"/>
		<line x1="151.325" y1="138.205" x2="151.325" y2="220.888" stroke="rgb(255,0,0)" stroke-width="0.705556"/>
		<line x1="151.325" y1="254.222" x2="151.325" y2="279.222" stroke="rgb(255,0,0)" stroke-width="0.705556"/>
		<line x1="151.325" y1="279.222" x2="301.825" y2="279.222" stroke="rgb(255,0,0)" stroke-width="0.705556"/>
		<line x1="301.825" y1="279.222" x2="301.825" y2="79.8715" stroke="rgb(255,255,0)" stroke-width="0.705556"/>
		<line x1="455.575" y1="566.372" x2="456.875" y2="567.022" stroke="rgb(255,0,0)" stroke-width="0.705556"/>
		<line x1="456.875" y1="567.022" x2="659.475" y2="567.022" stroke="rgb(255,0,0)" stroke-width="0.705556"/>
		<line x1="456.875" y1="566.372" x2="456.875" y2="567.022" stroke="rgb(255,255,0)" stroke-width="0.705556"/>
		<line x1="455.575" y1="279.872" x2="456.875" y2="279.222" stroke="rgb(255,0,0)" stroke-width="0.705556"/>
		<line x1="456.875" y1="279.222" x2="659.475" y2="279.222" stroke="rgb(255,0,0)" stroke-width="0.705556"/>
		<line x1="456.875" y1="279.872" x2="456.875" y2="279.222" stroke="rgb(255,255,0)" stroke-width="0.705556"/>
		<line x1="455.575" y1="767.022" x2="596.225" y2="767.022" stroke="rgb(255,0,0)" stroke-width="0.705556"/>
		<line x1="596.225" y1="767.022" x2="596.225" y2="567.022" stroke="rgb(255,0,0)" stroke-width="0.705556"/>
		<line x1="455.575" y1="79.2215" x2="596.225" y2="79.2215" stroke="rgb(255,0,0)" stroke-width="0.705556"/>
		<line x1="596.225" y1="79.2215" x2="596.225" y2="279.222" stroke="rgb(255,0,0)" stroke-width="0.705556"/>
		<line x1="455.575" y1="566.372" x2="455.575" y2="592.022" stroke="rgb(255,255,0)" stroke-width="0.705556"/>
		<line x1="455.575" y1="625.355" x2="455.575" y2="708.038" stroke="rgb(255,255,0)" stroke-width="0.705556"/>
		<line x1="455.575" y1="741.372" x2="455.575" y2="767.022" stroke="rgb(255,255,0)" stroke-width="0.705556"/>
		<line x1="455.575" y1="279.872" x2="455.575" y2="254.222" stroke="rgb(255,255,0)" stroke-width="0.705556"/>
		<line x1="455.575" y1="220.888" x2="455.575" y2="138.205" stroke="rgb(255,255,0)" stroke-width="0.705556"/>
		<line x1="455.575" y1="104.872" x2="455.575" y2="79.2215" stroke="rgb(255,255,0)" stroke-width="0.705556"/>
		<line x1="100.525" y1="563.772" x2="75.5248" y2="563.772" stroke="rgb(255,0,0)" stroke-width="0.705556"/>
		<line x1="50.5248" y1="538.772" x2="50.5248" y2="307.472" stroke="rgb(255,0,0)" stroke-width="0.705556"/>
		<line x1="75.5248" y1="282.472" x2="100.525" y2="282.472" stroke="rgb(255,0,0)" stroke-width="0.705556"/>
		<line x1="100.525" y1="279.222" x2="100.525" y2="282.472" stroke="rgb(255,0,0)" stroke-width="0.705556"/>
		<line x1="100.525" y1="282.472" x2="100.525" y2="563.772" stroke="rgb(255,255,0)" stroke-width="0.705556"/>
		<line x1="100.525" y1="563.772" x2="100.525" y2="567.022" stroke="rgb(255,0,0)" stroke-width="0.705556"/>
		<path d="M50.5248,538.772 a25 25 0 0 0 25,25" fill="none" stroke="rgb(255,0,0)" stroke-width="0.705556"/>
		<path d="M50.5248,307.472 a25 25 0 0 1 25,-25" fill="none" stroke="rgb(255,0,0)" stroke-width="0.705556"/>
		<line x1="811.225" y1="565.072" x2="811.225" y2="765.722" stroke="rgb(255,0,0)" stroke-width="0.705556"/>
		<line x1="811.225" y1="765.722" x2="661.425" y2="765.722" stroke="rgb(255,0,0)" stroke-width="0.705556"/>
		<line x1="661.425" y1="765.722" x2="661.425" y2="565.072" stroke="rgb(255,0,0)" stroke-width="0.705556"/>
		<line x1="811.225" y1="565.072" x2="661.425" y2="565.072" stroke="rgb(255,255,0)" stroke-width="0.705556"/>
		<line x1="811.225" y1="565.072" x2="811.225" y2="565.072" stroke="rgb(255,0,0)" stroke-width="0.705556"/>
		<line x1="811.225" y1="281.172" x2="811.225" y2="80.5215" stroke="rgb(255,0,0)" stroke-width="0.705556"/>
		<line x1="811.225" y1="80.5215" x2="661.425" y2="80.5215" stroke="rgb(255,0,0)" stroke-width="0.705556"/>
		<line x1="661.425" y1="80.5215" x2="661.425" y2="281.172" stroke="rgb(255,0,0)" stroke-width="0.705556"/>
		<line x1="811.225" y1="281.172" x2="661.425" y2="281.172" stroke="rgb(255,255,0)" stroke-width="0.705556"/>
		<line x1="811.225" y1="281.172" x2="811.225" y2="281.172" stroke="rgb(255,0,0)" stroke-width="0.705556"/>
		<line x1="659.475" y1="567.022" x2="661.425" y2="565.072" stroke="rgb(255,0,0)" stroke-width="0.705556"/>
		<line x1="659.475" y1="565.072" x2="659.475" y2="567.022" stroke="rgb(255,255,0)" stroke-width="0.705556"/>
		<line x1="659.475" y1="279.222" x2="661.425" y2="281.172" stroke="rgb(255,0,0)" stroke-width="0.705556"/>
		<line x1="659.475" y1="281.172" x2="659.475" y2="279.222" stroke="rgb(255,255,0)" stroke-width="0.705556"/>
		<line x1="564.628" y1="317.272" x2="537.013" y2="317.272" stroke="rgb(64,128,128)" stroke-width="0"/>
		<line x1="546.218" y1="325.756" x2="537.013" y2="325.756" stroke="rgb(64,128,128)" stroke-width="0"/>
		<line x1="555.423" y1="321.514" x2="537.013" y2="321.514" stroke="rgb(64,128,128)" stroke-width="0"/>
		<line x1="573.833" y1="313.03" x2="537.013" y2="313.03" stroke="rgb(64,128,128)" stroke-width="0"/>
		<line x1="583.038" y1="308.788" x2="537.013" y2="308.788" stroke="rgb(64,128,128)" stroke-width="0"/>
		<line x1="592.243" y1="304.546" x2="537.013" y2="304.546" stroke="rgb(64,128,128)" stroke-width="0"/>
		<line x1="537.013" y1="329.998" x2="537.013" y2="304.546" stroke="rgb(64,128,128)" stroke-width="0"/>
		<line x1="592.243" y1="304.546" x2="563.925" y2="332.821" stroke="rgb(64,128,128)" stroke-width="0"/>
		<path d="M563.925,332.821 a26.6045 26.6045 0 0 0 -26.9118,-2.82257" fill="none" stroke="rgb(64,128,128)" stroke-width="0"/>
		<line x1="537.013" y1="329.998" x2="592.243" y2="304.546" stroke="rgb(64,128,128)" stroke-width="0"/>
		<line x1="151.325" y1="254.222" x2="149.375" y2="253.222" stroke="rgb(255,0,0)" stroke-width="0.705556"/>
		<line x1="149.375" y1="253.222" x2="149.375" y2="221.888" stroke="rgb(255,0,0)" stroke-width="0.705556"/>
		<line x1="149.375" y1="221.888" x2="151.325" y2="220.888" stroke="rgb(255,0,0)" stroke-width="0.705556"/>
		<line x1="151.325" y1="138.205" x2="149.375" y2="137.205" stroke="rgb(255,0,0)" stroke-width="0.705556"/>
		<line x1="149.375" y1="137.205" x2="149.375" y2="105.872" stroke="rgb(255,0,0)" stroke-width="0.705556"/>
		<line x1="149.375" y1="105.872" x2="151.325" y2="104.872" stroke="rgb(255,0,0)" stroke-width="0.705556"/>
		<line x1="151.325" y1="138.205" x2="149.375" y2="137.205" stroke="rgb(255,0,0)" stroke-width="0.705556"/>
		<line x1="149.375" y1="137.205" x2="149.375" y2="105.872" stroke="rgb(255,0,0)" stroke-width="0.705556"/>
		<line x1="149.375" y1="105.872" x2="151.325" y2="104.872" stroke="rgb(255,0,0)" stroke-width="0.705556"/>
		<line x1="151.325" y1="138.205" x2="149.375" y2="137.205" stroke="rgb(255,0,0)" stroke-width="0.705556"/>
		<line x1="149.375" y1="137.205" x2="149.375" y2="105.872" stroke="rgb(255,0,0)" stroke-width="0.705556"/>
		<line x1="149.375" y1="105.872" x2="151.325" y2="104.872" stroke="rgb(255,0,0)" stroke-width="0.705556"/>
		<line x1="151.325" y1="138.205" x2="149.375" y2="137.205" stroke="rgb(255,0,0)" stroke-width="0.705556"/>
		<line x1="149.375" y1="137.205" x2="149.375" y2="105.872" stroke="rgb(255,0,0)" stroke-width="0.705556"/>
		<line x1="149.375" y1="105.872" x2="151.325" y2="104.872" stroke="rgb(255,0,0)" stroke-width="0.705556"/>
		<line x1="151.325" y1="138.205" x2="149.375" y2="137.205" stroke="rgb(255,0,0)" stroke-width="0.705556"/>
		<line x1="149.375" y1="137.205" x2="149.375" y2="105.872" stroke="rgb(255,0,0)" stroke-width="0.705556"/>
		<line x1="149.375" y1="105.872" x2="151.325" y2="104.872" stroke="rgb(255,0,0)" stroke-width="0.705556"/>
		<line x1="151.325" y1="138.205" x2="149.375" y2="137.205" stroke="rgb(255,0,0)" stroke-width="0.705556"/>
		<line x1="149.375" y1="137.205" x2="149.375" y2="105.872" stroke="rgb(255,0,0)" stroke-width="0.705556"/>
		<line x1="149.375" y1="105.872" x2="151.325" y2="104.872" stroke="rgb(255,0,0)" stroke-width="0.705556"/>
		<line x1="151.325" y1="138.205" x2="149.375" y2="137.205" stroke="rgb(255,0,0)" stroke-width="0.705556"/>
		<line x1="149.375" y1="137.205" x2="149.375" y2="105.872" stroke="rgb(255,0,0)" stroke-width="0.705556"/>
		<line x1="149.375" y1="105.872" x2="151.325" y2="104.872" stroke="rgb(255,0,0)" stroke-width="0.705556"/>
		<line x1="151.325" y1="138.205" x2="149.375" y2="137.205" stroke="rgb(255,0,0)" stroke-width="0.705556"/>
		<line x1="149.375" y1="137.205" x2="149.375" y2="105.872" stroke="rgb(255,0,0)" stroke-width="0.705556"/>
		<line x1="149.375" y1="105.872" x2="151.325" y2="104.872" stroke="rgb(255,0,0)" stroke-width="0.705556"/>
		<line x1="151.325" y1="138.205" x2="149.375" y2="137.205" stroke="rgb(255,0,0)" stroke-width="0.705556"/>
		<line x1="149.375" y1="137.205" x2="149.375" y2="105.872" stroke="rgb(255,0,0)" stroke-width="0.705556"/>
		<line x1="149.375" y1="105.872" x2="151.325" y2="104.872" stroke="rgb(255,0,0)" stroke-width="0.705556"/>
		<line x1="151.325" y1="138.205" x2="149.375" y2="137.205" stroke="rgb(255,0,0)" stroke-width="0.705556"/>
		<line x1="149.375" y1="137.205" x2="149.375" y2="105.872" stroke="rgb(255,0,0)" stroke-width="0.705556"/>
		<line x1="149.375" y1="105.872" x2="151.325" y2="104.872" stroke="rgb(255,0,0)" stroke-width="0.705556"/>
		<line x1="151.325" y1="138.205" x2="149.375" y2="137.205" stroke="rgb(255,0,0)" stroke-width="0.705556"/>
		<line x1="149.375" y1="137.205" x2="149.375" y2="105.872" stroke="rgb(255,0,0)" stroke-width="0.705556"/>
		<line x1="149.375" y1="105.872" x2="151.325" y2="104.872" stroke="rgb(255,0,0)" stroke-width="0.705556"/>
		<line x1="151.325" y1="138.205" x2="149.375" y2="137.205" stroke="rgb(255,0,0)" stroke-width="0.705556"/>
		<line x1="149.375" y1="137.205" x2="149.375" y2="105.872" stroke="rgb(255,0,0)" stroke-width="0.705556"/>
		<line x1="149.375" y1="105.872" x2="151.325" y2="104.872" stroke="rgb(255,0,0)" stroke-width="0.705556"/>
		<line x1="151.325" y1="138.205" x2="149.375" y2="137.205" stroke="rgb(255,0,0)" stroke-width="0.705556"/>
		<line x1="149.375" y1="137.205" x2="149.375" y2="105.872" stroke="rgb(255,0,0)" stroke-width="0.705556"/>
		<line x1="149.375" y1="105.872" x2="151.325" y2="104.872" stroke="rgb(255,0,0)" stroke-width="0.705556"/>
		<line x1="151.325" y1="138.205" x2="149.375" y2="137.205" stroke="rgb(255,0,0)" stroke-width="0.705556"/>
		<line x1="149.375" y1="137.205" x2="149.375" y2="105.872" stroke="rgb(255,0,0)" stroke-width="0.705556"/>
		<line x1="149.375" y1="105.872" x2="151.325" y2="104.872" stroke="rgb(255,0,0)" stroke-width="0.705556"/>
		<line x1="151.325" y1="138.205" x2="149.375" y2="137.205" stroke="rgb(255,0,0)" stroke-width="0.705556"/>
		<line x1="149.375" y1="137.205" x2="149.375" y2="105.872" stroke="rgb(255,0,0)" stroke-width="0.705556"/>
		<line x1="149.375" y1="105.872" x2="151.325" y2="104.872" stroke="rgb(255,0,0)" stroke-width="0.705556"/>
		<line x1="151.325" y1="138.205" x2="149.375" y2="137.205" stroke="rgb(255,0,0)" stroke-width="0.705556"/>
		<line x1="149.375" y1="137.205" x2="149.375" y2="105.872" stroke="rgb(255,0,0)" stroke-width="0.705556"/>
		<line x1="149.375" y1="105.872" x2="151.325" y2="104.872" stroke="rgb(255,0,0)" stroke-width="0.705556"/>
		<line x1="151.325" y1="138.205" x2="149.375" y2="137.205" stroke="rgb(255,0,0)" stroke-width="0.705556"/>
		<line x1="149.375" y1="137.205" x2="149.375" y2="105.872" stroke="rgb(255,0,0)" stroke-width="0.705556"/>
		<line x1="149.375" y1="105.872" x2="151.325" y2="104.872" stroke="rgb(255,0,0)" stroke-width="0.705556"/>
		<line x1="151.325" y1="138.205" x2="149.375" y2="137.205" stroke="rgb(255,0,0)" stroke-width="0.705556"/>
		<line x1="149.375" y1="137.205" x2="149.375" y2="105.872" stroke="rgb(255,0,0)" stroke-width="0.705556"/>
		<line x1="149.375" y1="105.872" x2="151.325" y2="104.872" stroke="rgb(255,0,0)" stroke-width="0.705556"/>
		<line x1="458.825" y1="254.222" x2="458.825" y2="254.222" stroke="rgb(255,0,0)" stroke-width="0.705556"/>
		<line x1="458.825" y1="220.888" x2="458.825" y2="220.888" stroke="rgb(255,0,0)" stroke-width="0.705556"/>
		<line x1="458.825" y1="138.205" x2="455.575" y2="138.205" stroke="rgb(255,0,0)" stroke-width="0.705556"/>
		<line x1="455.575" y1="138.205" x2="455.575" y2="104.872" stroke="rgb(255,0,0)" stroke-width="0.705556"/>
		<line x1="455.575" y1="104.872" x2="458.825" y2="104.872" stroke="rgb(255,0,0)" stroke-width="0.705556"/>
		<line x1="458.825" y1="104.872" x2="458.825" y2="138.205" stroke="rgb(255,0,0)" stroke-width="0.705556"/>
		<line x1="458.825" y1="138.205" x2="458.825" y2="138.205" stroke="rgb(255,0,0)" stroke-width="0.705556"/>
		<line x1="458.825" y1="104.872" x2="458.825" y2="104.872" stroke="rgb(255,0,0)" stroke-width="0.705556"/>
		<line x1="458.825" y1="254.222" x2="458.825" y2="254.222" stroke="rgb(255,0,0)" stroke-width="0.705556"/>
		<line x1="458.825" y1="220.888" x2="458.825" y2="220.888" stroke="rgb(255,0,0)" stroke-width="0.705556"/>
		<line x1="458.825" y1="254.222" x2="458.825" y2="254.222" stroke="rgb(255,0,0)" stroke-width="0.705556"/>
		<line x1="458.825" y1="220.888" x2="458.825" y2="220.888" stroke="rgb(255,0,0)" stroke-width="0.705556"/>
		<line x1="458.825" y1="254.222" x2="458.825" y2="254.222" stroke="rgb(255,0,0)" stroke-width="0.705556"/>
		<line x1="458.825" y1="220.888" x2="458.825" y2="220.888" stroke="rgb(255,0,0)" stroke-width="0.705556"/>
		<line x1="458.825" y1="254.222" x2="458.825" y2="254.222" stroke="rgb(255,0,0)" stroke-width="0.705556"/>
		<line x1="458.825" y1="220.888" x2="458.825" y2="220.888" stroke="rgb(255,0,0)" stroke-width="0.705556"/>
		<line x1="458.825" y1="254.222" x2="458.825" y2="254.222" stroke="rgb(255,0,0)" stroke-width="0.705556"/>
		<line x1="458.825" y1="220.888" x2="458.825" y2="220.888" stroke="rgb(255,0,0)" stroke-width="0.705556"/>
		<line x1="458.825" y1="254.222" x2="458.825" y2="254.222" stroke="rgb(255,0,0)" stroke-width="0.705556"/>
		<line x1="458.825" y1="220.888" x2="458.825" y2="220.888" stroke="rgb(255,0,0)" stroke-width="0.705556"/>
		<line x1="458.825" y1="254.222" x2="458.825" y2="254.222" stroke="rgb(255,0,0)" stroke-width="0.705556"/>
		<line x1="458.825" y1="220.888" x2="458.825" y2="220.888" stroke="rgb(255,0,0)" stroke-width="0.705556"/>
		<line x1="458.825" y1="254.222" x2="458.825" y2="254.222" stroke="rgb(255,0,0)" stroke-width="0.705556"/>
		<line x1="458.825" y1="220.888" x2="458.825" y2="220.888" stroke="rgb(255,0,0)" stroke-width="0.705556"/>
		<line x1="458.825" y1="254.222" x2="458.825" y2="254.222" stroke="rgb(255,0,0)" stroke-width="0.705556"/>
		<line x1="458.825" y1="220.888" x2="458.825" y2="220.888" stroke="rgb(255,0,0)" stroke-width="0.705556"/>
		<line x1="458.825" y1="254.222" x2="458.825" y2="254.222" stroke="rgb(255,0,0)" stroke-width="0.705556"/>
		<line x1="458.825" y1="220.888" x2="458.825" y2="220.888" stroke="rgb(255,0,0)" stroke-width="0.705556"/>
		<line x1="458.825" y1="254.222" x2="458.825" y2="254.222" stroke="rgb(255,0,0)" stroke-width="0.705556"/>
		<line x1="458.825" y1="220.888" x2="458.825" y2="220.888" stroke="rgb(255,0,0)" stroke-width="0.705556"/>
		<line x1="458.825" y1="254.222" x2="458.825" y2="254.222" stroke="rgb(255,0,0)" stroke-width="0.705556"/>
		<line x1="458.825" y1="220.888" x2="458.825" y2="220.888" stroke="rgb(255,0,0)" stroke-width="0.705556"/>
		<line x1="458.825" y1="254.222" x2="458.825" y2="254.222" stroke="rgb(255,0,0)" stroke-width="0.705556"/>
		<line x1="458.825" y1="220.888" x2="458.825" y2="220.888" stroke="rgb(255,0,0)" stroke-width="0.705556"/>
		<line x1="458.825" y1="254.222" x2="458.825" y2="254.222" stroke="rgb(255,0,0)" stroke-width="0.705556"/>
		<line x1="458.825" y1="220.888" x2="458.825" y2="220.888" stroke="rgb(255,0,0)" stroke-width="0.705556"/>
		<line x1="458.825" y1="254.222" x2="458.825" y2="254.222" stroke="rgb(255,0,0)" stroke-width="0.705556"/>
		<line x1="458.825" y1="220.888" x2="458.825" y2="220.888" stroke="rgb(255,0,0)" stroke-width="0.705556"/>
		<line x1="458.825" y1="254.222" x2="458.825" y2="254.222" stroke="rgb(255,0,0)" stroke-width="0.705556"/>
		<line x1="458.825" y1="220.888" x2="458.825" y2="220.888" stroke="rgb(255,0,0)" stroke-width="0.705556"/>
		<line x1="458.825" y1="254.222" x2="455.575" y2="254.222" stroke="rgb(255,0,0)" stroke-width="0.705556"/>
		<line x1="455.575" y1="254.222" x2="455.575" y2="220.888" stroke="rgb(255,0,0)" stroke-width="0.705556"/>
		<line x1="455.575" y1="220.888" x2="458.825" y2="220.888" stroke="rgb(255,0,0)" stroke-width="0.705556"/>
		<line x1="458.825" y1="220.888" x2="458.825" y2="254.222" stroke="rgb(255,0,0)" stroke-width="0.705556"/>
		<line x1="458.825" y1="254.222" x2="458.825" y2="254.222" stroke="rgb(255,0,0)" stroke-width="0.705556"/>
		<line x1="458.825" y1="220.888" x2="458.825" y2="220.888" stroke="rgb(255,0,0)" stroke-width="0.705556"/>
		<line x1="151.325" y1="592.022" x2="149.375" y2="593.022" stroke="rgb(255,0,0)" stroke-width="0.705556"/>
		<line x1="149.375" y1="593.022" x2="149.375" y2="624.355" stroke="rgb(255,0,0)" stroke-width="0.705556"/>
		<line x1="149.375" y1="624.355" x2="151.325" y2="625.355" stroke="rgb(255,0,0)" stroke-width="0.705556"/>
		<line x1="151.325" y1="708.038" x2="149.375" y2="709.038" stroke="rgb(255,0,0)" stroke-width="0.705556"/>
		<line x1="149.375" y1="709.038" x2="149.375" y2="740.372" stroke="rgb(255,0,0)" stroke-width="0.705556"/>
		<line x1="149.375" y1="740.372" x2="151.325" y2="741.372" stroke="rgb(255,0,0)" stroke-width="0.705556"/>
		<line x1="151.325" y1="708.038" x2="149.375" y2="709.038" stroke="rgb(255,0,0)" stroke-width="0.705556"/>
		<line x1="149.375" y1="709.038" x2="149.375" y2="740.372" stroke="rgb(255,0,0)" stroke-width="0.705556"/>
		<line x1="149.375" y1="740.372" x2="151.325" y2="741.372" stroke="rgb(255,0,0)" stroke-width="0.705556"/>
		<line x1="151.325" y1="708.038" x2="149.375" y2="709.038" stroke="rgb(255,0,0)" stroke-width="0.705556"/>
		<line x1="149.375" y1="709.038" x2="149.375" y2="740.372" stroke="rgb(255,0,0)" stroke-width="0.705556"/>
		<line x1="149.375" y1="740.372" x2="151.325" y2="741.372" stroke="rgb(255,0,0)" stroke-width="0.705556"/>
		<line x1="151.325" y1="708.038" x2="149.375" y2="709.038" stroke="rgb(255,0,0)" stroke-width="0.705556"/>
		<line x1="149.375" y1="709.038" x2="149.375" y2="740.372" stroke="rgb(255,0,0)" stroke-width="0.705556"/>
		<line x1="149.375" y1="740.372" x2="151.325" y2="741.372" stroke="rgb(255,0,0)" stroke-width="0.705556"/>
		<line x1="151.325" y1="708.038" x2="149.375" y2="709.038" stroke="rgb(255,0,0)" stroke-width="0.705556"/>
		<line x1="149.375" y1="709.038" x2="149.375" y2="740.372" stroke="rgb(255,0,0)" stroke-width="0.705556"/>
		<line x1="149.375" y1="740.372" x2="151.325" y2="741.372" stroke="rgb(255,0,0)" stroke-width="0.705556"/>
		<line x1="151.325" y1="708.038" x2="149.375" y2="709.038" stroke="rgb(255,0,0)" stroke-width="0.705556"/>
		<line x1="149.375" y1="709.038" x2="149.375" y2="740.372" stroke="rgb(255,0,0)" stroke-width="0.705556"/>
		<line x1="149.375" y1="740.372" x2="151.325" y2="741.372" stroke="rgb(255,0,0)" stroke-width="0.705556"/>
		<line x1="151.325" y1="708.038" x2="149.375" y2="709.038" stroke="rgb(255,0,0)" stroke-width="0.705556"/>
		<line x1="149.375" y1="709.038" x2="149.375" y2="740.372" stroke="rgb(255,0,0)" stroke-width="0.705556"/>
		<line x1="149.375" y1="740.372" x2="151.325" y2="741.372" stroke="rgb(255,0,0)" stroke-width="0.705556"/>
		<line x1="151.325" y1="708.038" x2="149.375" y2="709.038" stroke="rgb(255,0,0)" stroke-width="0.705556"/>
		<line x1="149.375" y1="709.038" x2="149.375" y2="740.372" stroke="rgb(255,0,0)" stroke-width="0.705556"/>
		<line x1="149.375" y1="740.372" x2="151.325" y2="741.372" stroke="rgb(255,0,0)" stroke-width="0.705556"/>
		<line x1="151.325" y1="708.038" x2="149.375" y2="709.038" stroke="rgb(255,0,0)" stroke-width="0.705556"/>
		<line x1="149.375" y1="709.038" x2="149.375" y2="740.372" stroke="rgb(255,0,0)" stroke-width="0.705556"/>
		<line x1="149.375" y1="740.372" x2="151.325" y2="741.372" stroke="rgb(255,0,0)" stroke-width="0.705556"/>
		<line x1="151.325" y1="708.038" x2="149.375" y2="709.038" stroke="rgb(255,0,0)" stroke-width="0.705556"/>
		<line x1="149.375" y1="709.038" x2="149.375" y2="740.372" stroke="rgb(255,0,0)" stroke-width="0.705556"/>
		<line x1="149.375" y1="740.372" x2="151.325" y2="741.372" stroke="rgb(255,0,0)" stroke-width="0.705556"/>
		<line x1="151.325" y1="708.038" x2="149.375" y2="709.038" stroke="rgb(255,0,0)" stroke-width="0.705556"/>
		<line x1="149.375" y1="709.038" x2="149.375" y2="740.372" stroke="rgb(255,0,0)" stroke-width="0.705556"/>
		<line x1="149.375" y1="740.372" x2="151.325" y2="741.372" stroke="rgb(255,0,0)" stroke-width="0.705556"/>
		<line x1="151.325" y1="708.038" x2="149.375" y2="709.038" stroke="rgb(255,0,0)" stroke-width="0.705556"/>
		<line x1="149.375" y1="709.038" x2="149.375" y2="740.372" stroke="rgb(255,0,0)" stroke-width="0.705556"/>
		<line x1="149.375" y1="740.372" x2="151.325" y2="741.372" stroke="rgb(255,0,0)" stroke-width="0.705556"/>
		<line x1="151.325" y1="708.038" x2="149.375" y2="709.038" stroke="rgb(255,0,0)" stroke-width="0.705556"/>
		<line x1="149.375" y1="709.038" x2="149.375" y2="740.372" stroke="rgb(255,0,0)" stroke-width="0.705556"/>
		<line x1="149.375" y1="740.372" x2="151.325" y2="741.372" stroke="rgb(255,0,0)" stroke-width="0.705556"/>
		<line x1="151.325" y1="708.038" x2="149.375" y2="709.038" stroke="rgb(255,0,0)" stroke-width="0.705556"/>
		<line x1="149.375" y1="709.038" x2="149.375" y2="740.372" stroke="rgb(255,0,0)" stroke-width="0.705556"/>
		<line x1="149.375" y1="740.372" x2="151.325" y2="741.372" stroke="rgb(255,0,0)" stroke-width="0.705556"/>
		<line x1="151.325" y1="708.038" x2="149.375" y2="709.038" stroke="rgb(255,0,0)" stroke-width="0.705556"/>
		<line x1="149.375" y1="709.038" x2="149.375" y2="740.372" stroke="rgb(255,0,0)" stroke-width="0.705556"/>
		<line x1="149.375" y1="740.372" x2="151.325" y2="741.372" stroke="rgb(255,0,0)" stroke-width="0.705556"/>
		<line x1="151.325" y1="708.038" x2="149.375" y2="709.038" stroke="rgb(255,0,0)" stroke-width="0.705556"/>
		<line x1="149.375" y1="709.038" x2="149.375" y2="740.372" stroke="rgb(255,0,0)" stroke-width="0.705556"/>
		<line x1="149.375" y1="740.372" x2="151.325" y2="741.372" stroke="rgb(255,0,0)" stroke-width="0.705556"/>
		<line x1="151.325" y1="708.038" x2="149.375" y2="709.038" stroke="rgb(255,0,0)" stroke-width="0.705556"/>
		<line x1="149.375" y1="709.038" x2="149.375" y2="740.372" stroke="rgb(255,0,0)" stroke-width="0.705556"/>
		<line x1="149.375" y1="740.372" x2="151.325" y2="741.372" stroke="rgb(255,0,0)" stroke-width="0.705556"/>
		<line x1="151.325" y1="708.038" x2="149.375" y2="709.038" stroke="rgb(255,0,0)" stroke-width="0.705556"/>
		<line x1="149.375" y1="709.038" x2="149.375" y2="740.372" stroke="rgb(255,0,0)" stroke-width="0.705556"/>
		<line x1="149.375" y1="740.372" x2="151.325" y2="741.372" stroke="rgb(255,0,0)" stroke-width="0.705556"/>
		<line x1="458.825" y1="592.022" x2="458.825" y2="592.022" stroke="rgb(255,0,0)" stroke-width="0.705556"/>
		<line x1="458.825" y1="625.355" x2="458.825" y2="625.355" stroke="rgb(255,0,0)" stroke-width="0.705556"/>
		<line x1="458.825" y1="708.038" x2="455.575" y2="708.038" stroke="rgb(255,0,0)" stroke-width="0.705556"/>
		<line x1="455.575" y1="708.038" x2="455.575" y2="741.372" stroke="rgb(255,0,0)" stroke-width="0.705556"/>
		<line x1="455.575" y1="741.372" x2="458.825" y2="741.372" stroke="rgb(255,0,0)" stroke-width="0.705556"/>
		<line x1="458.825" y1="741.372" x2="458.825" y2="708.038" stroke="rgb(255,0,0)" stroke-width="0.705556"/>
		<line x1="458.825" y1="708.038" x2="458.825" y2="708.038" stroke="rgb(255,0,0)" stroke-width="0.705556"/>
		<line x1="458.825" y1="741.372" x2="458.825" y2="741.372" stroke="rgb(255,0,0)" stroke-width="0.705556"/>
		<line x1="458.825" y1="592.022" x2="458.825" y2="592.022" stroke="rgb(255,0,0)" stroke-width="0.705556"/>
		<line x1="458.825" y1="625.355" x2="458.825" y2="625.355" stroke="rgb(255,0,0)" stroke-width="0.705556"/>
		<line x1="458.825" y1="592.022" x2="458.825" y2="592.022" stroke="rgb(255,0,0)" stroke-width="0.705556"/>
		<line x1="458.825" y1="625.355" x2="458.825" y2="625.355" stroke="rgb(255,0,0)" stroke-width="0.705556"/>
		<line x1="458.825" y1="592.022" x2="458.825" y2="592.022" stroke="rgb(255,0,0)" stroke-width="0.705556"/>
		<line x1="458.825" y1="625.355" x2="458.825" y2="625.355" stroke="rgb(255,0,0)" stroke-width="0.705556"/>
		<line x1="458.825" y1="592.022" x2="458.825" y2="592.022" stroke="rgb(255,0,0)" stroke-width="0.705556"/>
		<line x1="458.825" y1="625.355" x2="458.825" y2="625.355" stroke="rgb(255,0,0)" stroke-width="0.705556"/>
		<line x1="458.825" y1="592.022" x2="458.825" y2="592.022" stroke="rgb(255,0,0)" stroke-width="0.705556"/>
		<line x1="458.825" y1="625.355" x2="458.825" y2="625.355" stroke="rgb(255,0,0)" stroke-width="0.705556"/>
		<line x1="458.825" y1="592.022" x2="458.825" y2="592.022" stroke="rgb(255,0,0)" stroke-width="0.705556"/>
		<line x1="458.825" y1="625.355" x2="458.825" y2="625.355" stroke="rgb(255,0,0)" stroke-width="0.705556"/>
		<line x1="458.825" y1="592.022" x2="458.825" y2="592.022" stroke="rgb(255,0,0)" stroke-width="0.705556"/>
		<line x1="458.825" y1="625.355" x2="458.825" y2="625.355" stroke="rgb(255,0,0)" stroke-width="0.705556"/>
		<line x1="458.825" y1="592.022" x2="458.825" y2="592.022" stroke="rgb(255,0,0)" stroke-width="0.705556"/>
		<line x1="458.825" y1="625.355" x2="458.825" y2="625.355" stroke="rgb(255,0,0)" stroke-width="0.705556"/>
		<line x1="458.825" y1="592.022" x2="458.825" y2="592.022" stroke="rgb(255,0,0)" stroke-width="0.705556"/>
		<line x1="458.825" y1="625.355" x2="458.825" y2="625.355" stroke="rgb(255,0,0)" stroke-width="0.705556"/>
		<line x1="458.825" y1="592.022" x2="458.825" y2="592.022" stroke="rgb(255,0,0)" stroke-width="0.705556"/>
		<line x1="458.825" y1="625.355" x2="458.825" y2="625.355" stroke="rgb(255,0,0)" stroke-width="0.705556"/>
		<line x1="458.825" y1="592.022" x2="458.825" y2="592.022" stroke="rgb(255,0,0)" stroke-width="0.705556"/>
		<line x1="458.825" y1="625.355" x2="458.825" y2="625.355" stroke="rgb(255,0,0)" stroke-width="0.705556"/>
		<line x1="458.825" y1="592.022" x2="458.825" y2="592.022" stroke="rgb(255,0,0)" stroke-width="0.705556"/>
		<line x1="458.825" y1="625.355" x2="458.825" y2="625.355" stroke="rgb(255,0,0)" stroke-width="0.705556"/>
		<line x1="458.825" y1="592.022" x2="458.825" y2="592.022" stroke="rgb(255,0,0)" stroke-width="0.705556"/>
		<line x1="458.825" y1="625.355" x2="458.825" y2="625.355" stroke="rgb(255,0,0)" stroke-width="0.705556"/>
		<line x1="458.825" y1="592.022" x2="458.825" y2="592.022" stroke="rgb(255,0,0)" stroke-width="0.705556"/>
		<line x1="458.825" y1="625.355" x2="458.825" y2="625.355" stroke="rgb(255,0,0)" stroke-width="0.705556"/>
		<line x1="458.825" y1="592.022" x2="458.825" y2="592.022" stroke="rgb(255,0,0)" stroke-width="0.705556"/>
		<line x1="458.825" y1="625.355" x2="458.825" y2="625.355" stroke="rgb(255,0,0)" stroke-width="0.705556"/>
		<line x1="458.825" y1="592.022" x2="458.825" y2="592.022" stroke="rgb(255,0,0)" stroke-width="0.705556"/>
		<line x1="458.825" y1="625.355" x2="458.825" y2="625.355" stroke="rgb(255,0,0)" stroke-width="0.705556"/>
		<line x1="458.825" y1="592.022" x2="455.575" y2="592.022" stroke="rgb(255,0,0)" stroke-width="0.705556"/>
		<line x1="455.575" y1="592.022" x2="455.575" y2="625.355" stroke="rgb(255,0,0)" stroke-width="0.705556"/>
		<line x1="455.575" y1="625.355" x2="458.825" y2="625.355" stroke="rgb(255,0,0)" stroke-width="0.705556"/>
		<line x1="458.825" y1="625.355" x2="458.825" y2="592.022" stroke="rgb(255,0,0)" stroke-width="0.705556"/>
		<line x1="458.825" y1="592.022" x2="458.825" y2="592.022" stroke="rgb(255,0,0)" stroke-width="0.705556"/>
		<line x1="458.825" y1="625.355" x2="458.825" y2="625.355" stroke="rgb(255,0,0)" stroke-width="0.705556"/>
	</g>
</svg>