<svg version = "1.1" xmlns = "http://www.w3.org/2000/svg" xmlns:xlink="http://www.w3.org/1999/xlink" width="827.206" height="408.506" viewbox = "0 0 827.206 408.506">
	<g transform="translate(-16.5719,426.838) scale(1,-1) ">
		<line x1="149.725" y1="325.835" x2="149.725" y2="426.485" stroke="rgb(255,0,0)" stroke-width="0.705556"/>
		<line x1="149.725" y1="426.485" x2="428.025" y2="426.485" stroke="rgb(255,0,0)" stroke-width="0.705556"/>
		<line x1="428.025" y1="426.485" x2="428.025" y2="325.835" stroke="rgb(255,0,0)" stroke-width="0.705556"/>
		<line x1="428.025" y1="119.335" x2="428.025" y2="18.6851" stroke="rgb(255,0,0)" stroke-width="0.705556"/>
		<line x1="428.025" y1="18.6851" x2="149.725" y2="18.6851" stroke="rgb(255,0,0)" stroke-width="0.705556"/>
		<line x1="149.725" y1="18.6851" x2="149.725" y2="119.335" stroke="rgb(255,0,0)" stroke-width="0.705556"/>
		<line x1="428.025" y1="325.835" x2="149.725" y2="325.835" stroke="rgb(255,255,0)" stroke-width="0.705556"/>
		<line x1="148.225" y1="324.535" x2="148.225" y2="120.635" stroke="rgb(255,255,0)" stroke-width="0.705556"/>
		<line x1="149.725" y1="119.335" x2="428.025" y2="119.335" stroke="rgb(255,255,0)" stroke-width="0.705556"/>
		<line x1="429.525" y1="120.635" x2="429.525" y2="324.535" stroke="rgb(255,255,0)" stroke-width="0.705556"/>
		<line x1="148.225" y1="324.535" x2="149.725" y2="324.535" stroke="rgb(255,0,0)" stroke-width="0.705556"/>
		<line x1="149.725" y1="324.535" x2="149.725" y2="325.835" stroke="rgb(255,0,0)" stroke-width="0.705556"/>
		<line x1="428.025" y1="325.835" x2="428.025" y2="324.535" stroke="rgb(255,0,0)" stroke-width="0.705556"/>
		<line x1="428.025" y1="324.535" x2="429.525" y2="324.535" stroke="rgb(255,0,0)" stroke-width="0.705556"/>
		<line x1="428.025" y1="119.335" x2="428.025" y2="120.635" stroke="rgb(255,0,0)" stroke-width="0.705556"/>
		<line x1="428.025" y1="120.635" x2="429.525" y2="120.635" stroke="rgb(255,0,0)" stroke-width="0.705556"/>
		<line x1="148.225" y1="120.635" x2="149.725" y2="120.635" stroke="rgb(255,0,0)" stroke-width="0.705556"/>
		<line x1="149.725" y1="120.635" x2="149.725" y2="119.335" stroke="rgb(255,0,0)" stroke-width="0.705556"/>
		<line x1="47.5747" y1="324.535" x2="47.5747" y2="324.535" stroke="rgb(255,0,0)" stroke-width="0.705556"/>
		<line x1="47.5747" y1="324.535" x2="47.5747" y2="426.485" stroke="rgb(255,0,0)" stroke-width="0.705556"/>
		<line x1="47.5747" y1="426.485" x2="146.725" y2="426.485" stroke="rgb(255,0,0)" stroke-width="0.705556"/>
		<line x1="146.725" y1="426.485" x2="146.725" y2="324.535" stroke="rgb(255,0,0)" stroke-width="0.705556"/>
		<line x1="146.725" y1="324.535" x2="148.225" y2="324.535" stroke="rgb(255,0,0)" stroke-width="0.705556"/>
		<line x1="47.5747" y1="324.535" x2="146.725" y2="324.535" stroke="rgb(255,255,0)" stroke-width="0.705556"/>
		<line x1="530.175" y1="324.535" x2="530.175" y2="324.535" stroke="rgb(255,0,0)" stroke-width="0.705556"/>
		<line x1="530.175" y1="324.535" x2="530.175" y2="426.485" stroke="rgb(255,0,0)" stroke-width="0.705556"/>
		<line x1="530.175" y1="426.485" x2="431.025" y2="426.485" stroke="rgb(255,0,0)" stroke-width="0.705556"/>
		<line x1="431.025" y1="426.485" x2="431.025" y2="324.535" stroke="rgb(255,0,0)" stroke-width="0.705556"/>
		<line x1="431.025" y1="324.535" x2="429.525" y2="324.535" stroke="rgb(255,0,0)" stroke-width="0.705556"/>
		<line x1="530.175" y1="324.535" x2="431.025" y2="324.535" stroke="rgb(255,255,0)" stroke-width="0.705556"/>
		<line x1="530.175" y1="120.635" x2="530.175" y2="120.635" stroke="rgb(255,0,0)" stroke-width="0.705556"/>
		<line x1="530.175" y1="120.635" x2="530.175" y2="18.6851" stroke="rgb(255,0,0)" stroke-width="0.705556"/>
		<line x1="530.175" y1="18.6851" x2="431.025" y2="18.6851" stroke="rgb(255,0,0)" stroke-width="0.705556"/>
		<line x1="431.025" y1="18.6851" x2="431.025" y2="120.635" stroke="rgb(255,0,0)" stroke-width="0.705556"/>
		<line x1="431.025" y1="120.635" x2="429.525" y2="120.635" stroke="rgb(255,0,0)" stroke-width="0.705556"/>
		<line x1="530.175" y1="120.635" x2="431.025" y2="120.635" stroke="rgb(255,255,0)" stroke-width="0.705556"/>
		<line x1="47.5747" y1="120.635" x2="47.5747" y2="120.635" stroke="rgb(255,0,0)" stroke-width="0.705556"/>
		<line x1="47.5747" y1="120.635" x2="47.5747" y2="18.6851" stroke="rgb(255,0,0)" stroke-width="0.705556"/>
		<line x1="47.5747" y1="18.6851" x2="146.725" y2="18.6851" stroke="rgb(255,0,0)" stroke-width="0.705556"/>
		<line x1="146.725" y1="18.6851" x2="146.725" y2="120.635" stroke="rgb(255,0,0)" stroke-width="0.705556"/>
		<line x1="146.725" y1="120.635" x2="148.225" y2="120.635" stroke="rgb(255,0,0)" stroke-width="0.705556"/>
		<line x1="47.5747" y1="120.635" x2="146.725" y2="120.635" stroke="rgb(255,255,0)" stroke-width="0.705556"/>
		<line x1="530.175" y1="324.535" x2="530.175" y2="323.235" stroke="rgb(255,0,0)" stroke-width="0.705556"/>
		<line x1="530.175" y1="323.235" x2="531.475" y2="323.235" stroke="rgb(255,0,0)" stroke-width="0.705556"/>
		<line x1="531.475" y1="121.935" x2="530.175" y2="121.935" stroke="rgb(255,0,0)" stroke-width="0.705556"/>
		<line x1="530.175" y1="121.935" x2="530.175" y2="120.635" stroke="rgb(255,0,0)" stroke-width="0.705556"/>
		<line x1="531.475" y1="323.235" x2="531.475" y2="121.935" stroke="rgb(255,255,0)" stroke-width="0.705556"/>
		<line x1="531.475" y1="323.235" x2="532.125" y2="323.235" stroke="rgb(255,0,0)" stroke-width="0.705556"/>
		<line x1="532.125" y1="323.235" x2="532.125" y2="373.885" stroke="rgb(255,0,0)" stroke-width="0.705556"/>
		<line x1="532.125" y1="373.885" x2="801.475" y2="373.885" stroke="rgb(255,0,0)" stroke-width="0.705556"/>
		<line x1="801.475" y1="373.885" x2="811.475" y2="323.235" stroke="rgb(255,0,0)" stroke-width="0.705556"/>
		<line x1="811.475" y1="323.235" x2="812.775" y2="323.235" stroke="rgb(255,0,0)" stroke-width="0.705556"/>
		<line x1="532.125" y1="323.235" x2="811.475" y2="323.235" stroke="rgb(255,255,0)" stroke-width="0.705556"/>
		<line x1="531.475" y1="121.935" x2="532.125" y2="121.935" stroke="rgb(255,0,0)" stroke-width="0.705556"/>
		<line x1="532.125" y1="121.935" x2="532.125" y2="71.2851" stroke="rgb(255,0,0)" stroke-width="0.705556"/>
		<line x1="532.125" y1="71.2851" x2="801.475" y2="71.2851" stroke="rgb(255,0,0)" stroke-width="0.705556"/>
		<line x1="801.475" y1="71.2851" x2="811.475" y2="121.935" stroke="rgb(255,0,0)" stroke-width="0.705556"/>
		<line x1="811.475" y1="121.935" x2="812.775" y2="121.935" stroke="rgb(255,0,0)" stroke-width="0.705556"/>
		<line x1="532.125" y1="121.935" x2="811.475" y2="121.935" stroke="rgb(255,255,0)" stroke-width="0.705556"/>
		<line x1="812.775" y1="323.235" x2="843.425" y2="323.235" stroke="rgb(255,0,0)" stroke-width="0.705556"/>
		<line x1="843.425" y1="323.235" x2="843.425" y2="121.935" stroke="rgb(255,0,0)" stroke-width="0.705556"/>
		<line x1="843.425" y1="121.935" x2="812.775" y2="121.935" stroke="rgb(255,0,0)" stroke-width="0.705556"/>
		<line x1="812.775" y1="121.935" x2="812.775" y2="323.235" stroke="rgb(255,255,0)" stroke-width="0.705556"/>
		<line x1="47.5747" y1="120.635" x2="47.5747" y2="121.285" stroke="rgb(255,0,0)" stroke-width="0.705556"/>
		<line x1="47.5747" y1="121.285" x2="16.9247" y2="121.285" stroke="rgb(255,0,0)" stroke-width="0.705556"/>
		<line x1="16.9247" y1="121.285" x2="16.9247" y2="323.885" stroke="rgb(255,0,0)" stroke-width="0.705556"/>
		<line x1="16.9247" y1="323.885" x2="47.5747" y2="323.885" stroke="rgb(255,0,0)" stroke-width="0.705556"/>
		<line x1="47.5747" y1="323.885" x2="47.5747" y2="324.535" stroke="rgb(255,0,0)" stroke-width="0.705556"/>
		<line x1="47.5747" y1="121.285" x2="47.5747" y2="323.885" stroke="rgb(255,255,0)" stroke-width="0.705556"/>
		<line x1="288.875" y1="173.25" x2="288.875" y2="145.635" stroke="rgb(64,128,128)" stroke-width="0"/>
		<line x1="297.359" y1="154.84" x2="297.359" y2="145.635" stroke="rgb(64,128,128)" stroke-width="0"/>
		<line x1="293.117" y1="164.045" x2="293.117" y2="145.635" stroke="rgb(64,128,128)" stroke-width="0"/>
		<line x1="284.633" y1="182.455" x2="284.633" y2="145.635" stroke="rgb(64,128,128)" stroke-width="0"/>
		<line x1="280.391" y1="191.66" x2="280.391" y2="145.635" stroke="rgb(64,128,128)" stroke-width="0"/>
		<line x1="276.149" y1="200.865" x2="276.149" y2="145.635" stroke="rgb(64,128,128)" stroke-width="0"/>
		<line x1="301.601" y1="145.635" x2="276.149" y2="145.635" stroke="rgb(64,128,128)" stroke-width="0"/>
		<line x1="276.149" y1="200.865" x2="304.423" y2="172.547" stroke="rgb(64,128,128)" stroke-width="0"/>
		<path d="M304.423,172.547 a26.6045 26.6045 0 0 1 -2.82257,-26.9118" fill="none" stroke="rgb(64,128,128)" stroke-width="0"/>
		<line x1="301.601" y1="145.635" x2="276.149" y2="200.865" stroke="rgb(64,128,128)" stroke-width="0"/>
	</g>
</svg>