<svg version = "1.1" xmlns = "http://www.w3.org/2000/svg" xmlns:xlink="http://www.w3.org/1999/xlink" width="465.906" height="632.206" viewbox = "0 0 465.906 632.206">
	<g transform="translate(-0.227305,632.153) scale(1,-1) ">
		<line x1="375.13" y1="290.75" x2="465.78" y2="290.75" stroke="rgb(255,0,0)" stroke-width="0.705556"/>
		<line x1="465.78" y1="290.75" x2="465.78" y2="92.45" stroke="rgb(255,0,0)" stroke-width="0.705556"/>
		<line x1="465.78" y1="92.45" x2="375.13" y2="92.45" stroke="rgb(255,0,0)" stroke-width="0.705556"/>
		<line x1="375.13" y1="0.3" x2="91.2301" y2="0.3" stroke="rgb(255,0,0)" stroke-width="0.705556"/>
		<line x1="91.2301" y1="290.75" x2="0.580083" y2="290.75" stroke="rgb(255,0,0)" stroke-width="0.705556"/>
		<line x1="0.580083" y1="290.75" x2="0.580083" y2="92.45" stroke="rgb(255,0,0)" stroke-width="0.705556"/>
		<line x1="0.580083" y1="92.45" x2="91.2301" y2="92.45" stroke="rgb(255,0,0)" stroke-width="0.705556"/>
		<line x1="375.13" y1="292.25" x2="91.2301" y2="292.25" stroke="rgb(255,255,0)" stroke-width="0.705556"/>
		<line x1="91.2301" y1="290.75" x2="91.2301" y2="92.45" stroke="rgb(255,255,0)" stroke-width="0.705556"/>
		<line x1="91.2301" y1="90.95" x2="375.13" y2="90.95" stroke="rgb(255,255,0)" stroke-width="0.705556"/>
		<line x1="375.13" y1="92.45" x2="375.13" y2="290.75" stroke="rgb(255,255,0)" stroke-width="0.705556"/>
		<line x1="91.2301" y1="290.75" x2="91.2301" y2="290.75" stroke="rgb(255,0,0)" stroke-width="0.705556"/>
		<line x1="91.2301" y1="290.75" x2="91.2301" y2="292.25" stroke="rgb(255,0,0)" stroke-width="0.705556"/>
		<line x1="375.13" y1="292.25" x2="375.13" y2="290.75" stroke="rgb(255,0,0)" stroke-width="0.705556"/>
		<line x1="375.13" y1="290.75" x2="375.13" y2="290.75" stroke="rgb(255,0,0)" stroke-width="0.705556"/>
		<line x1="375.13" y1="90.95" x2="375.13" y2="92.45" stroke="rgb(255,0,0)" stroke-width="0.705556"/>
		<line x1="375.13" y1="92.45" x2="375.13" y2="92.45" stroke="rgb(255,0,0)" stroke-width="0.705556"/>
		<line x1="91.2301" y1="92.45" x2="91.2301" y2="92.45" stroke="rgb(255,0,0)" stroke-width="0.705556"/>
		<line x1="91.2301" y1="92.45" x2="91.2301" y2="90.95" stroke="rgb(255,0,0)" stroke-width="0.705556"/>
		<line x1="375.13" y1="382.9" x2="375.13" y2="382.9" stroke="rgb(255,0,0)" stroke-width="0.705556"/>
		<line x1="376.43" y1="382.9" x2="465.78" y2="382.9" stroke="rgb(255,0,0)" stroke-width="0.705556"/>
		<line x1="465.78" y1="382.9" x2="465.78" y2="293.75" stroke="rgb(255,0,0)" stroke-width="0.705556"/>
		<line x1="465.78" y1="293.75" x2="375.13" y2="293.75" stroke="rgb(255,0,0)" stroke-width="0.705556"/>
		<line x1="375.13" y1="293.75" x2="375.13" y2="292.25" stroke="rgb(255,0,0)" stroke-width="0.705556"/>
		<line x1="376.43" y1="382.9" x2="376.43" y2="293.75" stroke="rgb(255,255,0)" stroke-width="0.705556"/>
		<line x1="375.13" y1="0.3" x2="375.13" y2="0.3" stroke="rgb(255,0,0)" stroke-width="0.705556"/>
		<line x1="375.13" y1="0.3" x2="465.78" y2="0.3" stroke="rgb(255,0,0)" stroke-width="0.705556"/>
		<line x1="465.78" y1="0.3" x2="465.78" y2="89.45" stroke="rgb(255,0,0)" stroke-width="0.705556"/>
		<line x1="465.78" y1="89.45" x2="375.13" y2="89.45" stroke="rgb(255,0,0)" stroke-width="0.705556"/>
		<line x1="375.13" y1="89.45" x2="375.13" y2="90.95" stroke="rgb(255,0,0)" stroke-width="0.705556"/>
		<line x1="376.43" y1="0.3" x2="376.43" y2="89.45" stroke="rgb(255,255,0)" stroke-width="0.705556"/>
		<line x1="421.105" y1="332.9" x2="465.78" y2="337.9" stroke="rgb(255,0,0)" stroke-width="0.705556"/>
		<line x1="375.13" y1="246.075" x2="414.48" y2="246.075" stroke="rgb(255,0,0)" stroke-width="0.705556"/>
		<line x1="414.48" y1="246.075" x2="419.48" y2="201.4" stroke="rgb(255,0,0)" stroke-width="0.705556"/>
		<line x1="375.13" y1="137.125" x2="414.48" y2="137.125" stroke="rgb(255,0,0)" stroke-width="0.705556"/>
		<line x1="414.48" y1="137.125" x2="419.48" y2="181.8" stroke="rgb(255,0,0)" stroke-width="0.705556"/>
		<line x1="421.105" y1="50.3" x2="465.78" y2="45.3" stroke="rgb(255,0,0)" stroke-width="0.705556"/>
		<line x1="91.2301" y1="0.3" x2="91.2301" y2="0.3" stroke="rgb(255,0,0)" stroke-width="0.705556"/>
		<line x1="91.2301" y1="0.3" x2="0.580083" y2="0.3" stroke="rgb(255,0,0)" stroke-width="0.705556"/>
		<line x1="0.580083" y1="0.3" x2="0.580083" y2="89.45" stroke="rgb(255,0,0)" stroke-width="0.705556"/>
		<line x1="0.580083" y1="89.45" x2="91.2301" y2="89.45" stroke="rgb(255,0,0)" stroke-width="0.705556"/>
		<line x1="91.2301" y1="89.45" x2="91.2301" y2="90.95" stroke="rgb(255,0,0)" stroke-width="0.705556"/>
		<line x1="89.9301" y1="0.3" x2="89.9301" y2="89.45" stroke="rgb(255,255,0)" stroke-width="0.705556"/>
		<line x1="91.2301" y1="382.9" x2="91.2301" y2="382.9" stroke="rgb(255,0,0)" stroke-width="0.705556"/>
		<line x1="89.9301" y1="382.9" x2="0.580083" y2="382.9" stroke="rgb(255,0,0)" stroke-width="0.705556"/>
		<line x1="0.580083" y1="382.9" x2="0.580083" y2="293.75" stroke="rgb(255,0,0)" stroke-width="0.705556"/>
		<line x1="0.580083" y1="293.75" x2="91.2301" y2="293.75" stroke="rgb(255,0,0)" stroke-width="0.705556"/>
		<line x1="91.2301" y1="293.75" x2="91.2301" y2="292.25" stroke="rgb(255,0,0)" stroke-width="0.705556"/>
		<line x1="89.9301" y1="382.9" x2="89.9301" y2="293.75" stroke="rgb(255,255,0)" stroke-width="0.705556"/>
		<line x1="45.2551" y1="50.3" x2="0.580083" y2="45.3" stroke="rgb(255,0,0)" stroke-width="0.705556"/>
		<line x1="91.2301" y1="137.125" x2="51.8801" y2="137.125" stroke="rgb(255,0,0)" stroke-width="0.705556"/>
		<line x1="51.8801" y1="137.125" x2="46.8801" y2="181.8" stroke="rgb(255,0,0)" stroke-width="0.705556"/>
		<line x1="91.2301" y1="246.075" x2="51.8801" y2="246.075" stroke="rgb(255,0,0)" stroke-width="0.705556"/>
		<line x1="51.8801" y1="246.075" x2="46.8801" y2="201.4" stroke="rgb(255,0,0)" stroke-width="0.705556"/>
		<line x1="45.2551" y1="332.9" x2="0.580083" y2="337.9" stroke="rgb(255,0,0)" stroke-width="0.705556"/>
		<line x1="89.9301" y1="382.9" x2="92.5301" y2="382.9" stroke="rgb(255,0,0)" stroke-width="0.705556"/>
		<line x1="92.5301" y1="382.9" x2="92.5301" y2="384.2" stroke="rgb(255,0,0)" stroke-width="0.705556"/>
		<line x1="373.83" y1="384.2" x2="373.83" y2="382.9" stroke="rgb(255,0,0)" stroke-width="0.705556"/>
		<line x1="373.83" y1="382.9" x2="376.43" y2="382.9" stroke="rgb(255,0,0)" stroke-width="0.705556"/>
		<line x1="92.5301" y1="384.2" x2="373.83" y2="384.2" stroke="rgb(255,255,0)" stroke-width="0.705556"/>
		<line x1="373.83" y1="586.8" x2="373.83" y2="584.85" stroke="rgb(255,0,0)" stroke-width="0.705556"/>
		<line x1="373.83" y1="584.85" x2="418.83" y2="569.85" stroke="rgb(255,0,0)" stroke-width="0.705556"/>
		<line x1="418.83" y1="569.85" x2="418.83" y2="399.85" stroke="rgb(255,0,0)" stroke-width="0.705556"/>
		<line x1="418.83" y1="399.85" x2="373.83" y2="384.85" stroke="rgb(255,0,0)" stroke-width="0.705556"/>
		<line x1="373.83" y1="384.85" x2="373.83" y2="384.2" stroke="rgb(255,0,0)" stroke-width="0.705556"/>
		<line x1="373.83" y1="584.85" x2="373.83" y2="384.85" stroke="rgb(255,255,0)" stroke-width="0.705556"/>
		<line x1="92.5301" y1="586.8" x2="92.5301" y2="584.85" stroke="rgb(255,0,0)" stroke-width="0.705556"/>
		<line x1="92.5301" y1="584.85" x2="47.5301" y2="569.85" stroke="rgb(255,0,0)" stroke-width="0.705556"/>
		<line x1="47.5301" y1="569.85" x2="47.5301" y2="399.85" stroke="rgb(255,0,0)" stroke-width="0.705556"/>
		<line x1="47.5301" y1="399.85" x2="92.5301" y2="384.85" stroke="rgb(255,0,0)" stroke-width="0.705556"/>
		<line x1="92.5301" y1="384.85" x2="92.5301" y2="384.2" stroke="rgb(255,0,0)" stroke-width="0.705556"/>
		<line x1="92.5301" y1="584.85" x2="92.5301" y2="384.85" stroke="rgb(255,255,0)" stroke-width="0.705556"/>
		<line x1="92.5301" y1="586.8" x2="92.5301" y2="609.3" stroke="rgb(255,0,0)" stroke-width="0.705556"/>
		<line x1="115.03" y1="631.8" x2="351.33" y2="631.8" stroke="rgb(255,0,0)" stroke-width="0.705556"/>
		<line x1="373.83" y1="609.3" x2="373.83" y2="586.8" stroke="rgb(255,0,0)" stroke-width="0.705556"/>
		<line x1="373.83" y1="586.8" x2="92.5301" y2="586.8" stroke="rgb(255,255,0)" stroke-width="0.705556"/>
		<path d="M92.5301,609.3 a22.5 22.5 0 0 0 22.5,22.5" fill="none" stroke="rgb(255,0,0)" stroke-width="0.705556"/>
		<path d="M351.33,631.8 a22.5 22.5 0 0 0 22.5,-22.5" fill="none" stroke="rgb(255,0,0)" stroke-width="0.705556"/>
		<line x1="239.553" y1="128.676" x2="211.938" y2="128.676" stroke="rgb(64,128,128)" stroke-width="0"/>
		<line x1="221.143" y1="137.16" x2="211.938" y2="137.16" stroke="rgb(64,128,128)" stroke-width="0"/>
		<line x1="230.348" y1="132.918" x2="211.938" y2="132.918" stroke="rgb(64,128,128)" stroke-width="0"/>
		<line x1="248.758" y1="124.434" x2="211.938" y2="124.434" stroke="rgb(64,128,128)" stroke-width="0"/>
		<line x1="257.963" y1="120.192" x2="211.938" y2="120.192" stroke="rgb(64,128,128)" stroke-width="0"/>
		<line x1="267.168" y1="115.95" x2="211.938" y2="115.95" stroke="rgb(64,128,128)" stroke-width="0"/>
		<line x1="211.938" y1="141.402" x2="211.938" y2="115.95" stroke="rgb(64,128,128)" stroke-width="0"/>
		<line x1="267.168" y1="115.95" x2="238.85" y2="144.225" stroke="rgb(64,128,128)" stroke-width="0"/>
		<path d="M238.85,144.225 a26.6045 26.6045 0 0 0 -26.9118,-2.82257" fill="none" stroke="rgb(64,128,128)" stroke-width="0"/>
		<line x1="211.938" y1="141.402" x2="267.168" y2="115.95" stroke="rgb(64,128,128)" stroke-width="0"/>
	</g>
</svg>