<svg version = "1.1" xmlns = "http://www.w3.org/2000/svg" xmlns:xlink="http://www.w3.org/1999/xlink" width="557.206" height="483.306" viewbox = "0 0 557.206 483.306">
	<g transform="translate(-30.1352,609.773) scale(1,-1) ">
		<line x1="182.438" y1="227.47" x2="182.438" y2="508.77" stroke="rgb(255,255,0)" stroke-width="0.705556"/>
		<line x1="30.488" y1="508.77" x2="30.488" y2="227.47" stroke="rgb(255,0,0)" stroke-width="0.705556"/>
		<line x1="283.738" y1="510.07" x2="283.738" y2="226.17" stroke="rgb(255,255,0)" stroke-width="0.705556"/>
		<line x1="285.038" y1="609.42" x2="430.688" y2="609.42" stroke="rgb(255,0,0)" stroke-width="0.705556"/>
		<line x1="435.688" y1="510.07" x2="435.688" y2="510.07" stroke="rgb(255,0,0)" stroke-width="0.705556"/>
		<line x1="285.038" y1="510.07" x2="435.688" y2="510.07" stroke="rgb(255,255,0)" stroke-width="0.705556"/>
		<line x1="285.038" y1="126.82" x2="430.688" y2="126.82" stroke="rgb(255,0,0)" stroke-width="0.705556"/>
		<line x1="435.688" y1="226.17" x2="435.688" y2="226.17" stroke="rgb(255,0,0)" stroke-width="0.705556"/>
		<line x1="285.038" y1="226.17" x2="435.688" y2="226.17" stroke="rgb(255,255,0)" stroke-width="0.705556"/>
		<line x1="285.038" y1="510.07" x2="283.738" y2="510.72" stroke="rgb(255,0,0)" stroke-width="0.705556"/>
		<line x1="283.738" y1="510.72" x2="182.438" y2="510.72" stroke="rgb(255,0,0)" stroke-width="0.705556"/>
		<line x1="283.738" y1="510.07" x2="283.738" y2="510.72" stroke="rgb(255,255,0)" stroke-width="0.705556"/>
		<line x1="285.038" y1="226.17" x2="283.738" y2="225.52" stroke="rgb(255,0,0)" stroke-width="0.705556"/>
		<line x1="283.738" y1="225.52" x2="182.438" y2="225.52" stroke="rgb(255,0,0)" stroke-width="0.705556"/>
		<line x1="283.738" y1="226.17" x2="283.738" y2="225.52" stroke="rgb(255,255,0)" stroke-width="0.705556"/>
		<line x1="31.138" y1="511.77" x2="31.138" y2="609.42" stroke="rgb(255,0,0)" stroke-width="0.705556"/>
		<line x1="31.138" y1="609.42" x2="180.488" y2="609.42" stroke="rgb(255,0,0)" stroke-width="0.705556"/>
		<line x1="180.488" y1="510.72" x2="180.488" y2="508.77" stroke="rgb(255,0,0)" stroke-width="0.705556"/>
		<line x1="31.138" y1="508.77" x2="180.488" y2="508.77" stroke="rgb(255,255,0)" stroke-width="0.705556"/>
		<line x1="31.138" y1="224.47" x2="31.138" y2="126.82" stroke="rgb(255,0,0)" stroke-width="0.705556"/>
		<line x1="31.138" y1="126.82" x2="180.488" y2="126.82" stroke="rgb(255,0,0)" stroke-width="0.705556"/>
		<line x1="180.488" y1="225.52" x2="180.488" y2="227.47" stroke="rgb(255,0,0)" stroke-width="0.705556"/>
		<line x1="31.138" y1="227.47" x2="180.488" y2="227.47" stroke="rgb(255,255,0)" stroke-width="0.705556"/>
		<line x1="285.038" y1="609.42" x2="180.488" y2="609.42" stroke="rgb(255,0,0)" stroke-width="0.705556"/>
		<line x1="180.488" y1="609.42" x2="180.488" y2="508.77" stroke="rgb(255,0,0)" stroke-width="0.705556"/>
		<line x1="285.038" y1="126.82" x2="180.488" y2="126.82" stroke="rgb(255,0,0)" stroke-width="0.705556"/>
		<line x1="180.488" y1="126.82" x2="180.488" y2="227.47" stroke="rgb(255,0,0)" stroke-width="0.705556"/>
		<line x1="285.038" y1="510.07" x2="285.038" y2="609.42" stroke="rgb(255,255,0)" stroke-width="0.705556"/>
		<line x1="285.038" y1="226.17" x2="285.038" y2="126.82" stroke="rgb(255,255,0)" stroke-width="0.705556"/>
		<line x1="182.438" y1="510.72" x2="180.488" y2="508.77" stroke="rgb(255,0,0)" stroke-width="0.705556"/>
		<line x1="182.438" y1="508.77" x2="182.438" y2="510.72" stroke="rgb(255,255,0)" stroke-width="0.705556"/>
		<line x1="182.438" y1="225.52" x2="180.488" y2="227.47" stroke="rgb(255,0,0)" stroke-width="0.705556"/>
		<line x1="182.438" y1="227.47" x2="182.438" y2="225.52" stroke="rgb(255,255,0)" stroke-width="0.705556"/>
		<line x1="436.988" y1="510.72" x2="436.988" y2="225.52" stroke="rgb(255,255,0)" stroke-width="0.705556"/>
		<line x1="435.688" y1="609.42" x2="430.688" y2="609.42" stroke="rgb(255,0,0)" stroke-width="0.705556"/>
		<line x1="430.688" y1="609.42" x2="536.988" y2="609.42" stroke="rgb(255,0,0)" stroke-width="0.705556"/>
		<line x1="536.988" y1="510.72" x2="436.988" y2="510.72" stroke="rgb(255,0,0)" stroke-width="0.705556"/>
		<line x1="436.988" y1="510.72" x2="435.688" y2="510.07" stroke="rgb(255,0,0)" stroke-width="0.705556"/>
		<line x1="435.688" y1="609.42" x2="435.688" y2="510.07" stroke="rgb(255,255,0)" stroke-width="0.705556"/>
		<line x1="536.988" y1="510.72" x2="536.988" y2="609.42" stroke="rgb(255,0,0)" stroke-width="0.705556"/>
		<line x1="435.688" y1="126.82" x2="430.688" y2="126.82" stroke="rgb(255,0,0)" stroke-width="0.705556"/>
		<line x1="430.688" y1="126.82" x2="536.988" y2="126.82" stroke="rgb(255,0,0)" stroke-width="0.705556"/>
		<line x1="536.988" y1="225.52" x2="436.988" y2="225.52" stroke="rgb(255,0,0)" stroke-width="0.705556"/>
		<line x1="436.988" y1="225.52" x2="435.688" y2="226.17" stroke="rgb(255,0,0)" stroke-width="0.705556"/>
		<line x1="435.688" y1="126.82" x2="435.688" y2="226.17" stroke="rgb(255,255,0)" stroke-width="0.705556"/>
		<line x1="536.988" y1="225.52" x2="536.988" y2="126.82" stroke="rgb(255,0,0)" stroke-width="0.705556"/>
		<line x1="536.988" y1="228.12" x2="561.988" y2="228.12" stroke="rgb(255,0,0)" stroke-width="0.705556"/>
		<line x1="586.988" y1="253.12" x2="586.988" y2="483.12" stroke="rgb(255,0,0)" stroke-width="0.705556"/>
		<line x1="561.988" y1="508.12" x2="536.988" y2="508.12" stroke="rgb(255,0,0)" stroke-width="0.705556"/>
		<line x1="536.988" y1="510.72" x2="536.988" y2="508.12" stroke="rgb(255,0,0)" stroke-width="0.705556"/>
		<line x1="536.988" y1="508.12" x2="536.988" y2="228.12" stroke="rgb(255,255,0)" stroke-width="0.705556"/>
		<line x1="536.988" y1="228.12" x2="536.988" y2="225.52" stroke="rgb(255,0,0)" stroke-width="0.705556"/>
		<path d="M586.988,253.12 a25 25 0 0 0 -25,-25" fill="none" stroke="rgb(255,0,0)" stroke-width="0.705556"/>
		<path d="M586.988,483.12 a25 25 0 0 1 -25,25" fill="none" stroke="rgb(255,0,0)" stroke-width="0.705556"/>
		<line x1="30.488" y1="508.77" x2="31.138" y2="511.77" stroke="rgb(255,0,0)" stroke-width="0.705556"/>
		<line x1="31.138" y1="508.77" x2="30.488" y2="508.77" stroke="rgb(255,255,0)" stroke-width="0.705556"/>
		<line x1="30.488" y1="227.47" x2="31.138" y2="224.47" stroke="rgb(255,0,0)" stroke-width="0.705556"/>
		<line x1="31.138" y1="227.47" x2="30.488" y2="227.47" stroke="rgb(255,255,0)" stroke-width="0.705556"/>
		<line x1="239.461" y1="263.896" x2="211.846" y2="263.896" stroke="rgb(64,128,128)" stroke-width="0"/>
		<line x1="221.051" y1="272.38" x2="211.846" y2="272.38" stroke="rgb(64,128,128)" stroke-width="0"/>
		<line x1="230.256" y1="268.138" x2="211.846" y2="268.138" stroke="rgb(64,128,128)" stroke-width="0"/>
		<line x1="248.666" y1="259.654" x2="211.846" y2="259.654" stroke="rgb(64,128,128)" stroke-width="0"/>
		<line x1="257.871" y1="255.412" x2="211.846" y2="255.412" stroke="rgb(64,128,128)" stroke-width="0"/>
		<line x1="267.076" y1="251.17" x2="211.846" y2="251.17" stroke="rgb(64,128,128)" stroke-width="0"/>
		<line x1="211.846" y1="276.622" x2="211.846" y2="251.17" stroke="rgb(64,128,128)" stroke-width="0"/>
		<line x1="267.076" y1="251.17" x2="238.758" y2="279.444" stroke="rgb(64,128,128)" stroke-width="0"/>
		<path d="M238.758,279.444 a26.6045 26.6045 0 0 0 -26.9118,-2.82257" fill="none" stroke="rgb(64,128,128)" stroke-width="0"/>
		<line x1="211.846" y1="276.622" x2="267.076" y2="251.17" stroke="rgb(64,128,128)" stroke-width="0"/>
	</g>
</svg>