<svg version = "1.1" xmlns = "http://www.w3.org/2000/svg" xmlns:xlink="http://www.w3.org/1999/xlink" width="654.456" height="485.906" viewbox = "0 0 654.456 485.906">
	<g transform="translate(-60.8967,509.495) scale(1,-1) ">
		<line x1="167.099" y1="124.592" x2="167.099" y2="408.492" stroke="rgb(255,0,0)" stroke-width="0.705556"/>
		<line x1="319.699" y1="408.492" x2="319.699" y2="124.592" stroke="rgb(255,255,0)" stroke-width="0.705556"/>
		<line x1="422.299" y1="407.192" x2="422.299" y2="125.892" stroke="rgb(255,255,0)" stroke-width="0.705556"/>
		<line x1="424.249" y1="407.192" x2="424.249" y2="409.792" stroke="rgb(255,0,0)" stroke-width="0.705556"/>
		<line x1="424.249" y1="507.842" x2="574.249" y2="507.842" stroke="rgb(255,0,0)" stroke-width="0.705556"/>
		<line x1="574.249" y1="507.842" x2="574.249" y2="407.192" stroke="rgb(255,0,0)" stroke-width="0.705556"/>
		<line x1="574.249" y1="407.192" x2="574.249" y2="407.192" stroke="rgb(255,0,0)" stroke-width="0.705556"/>
		<line x1="424.249" y1="407.192" x2="574.249" y2="407.192" stroke="rgb(255,255,0)" stroke-width="0.705556"/>
		<line x1="424.249" y1="125.892" x2="424.249" y2="123.942" stroke="rgb(255,0,0)" stroke-width="0.705556"/>
		<line x1="424.249" y1="25.2424" x2="574.249" y2="25.2424" stroke="rgb(255,0,0)" stroke-width="0.705556"/>
		<line x1="574.249" y1="25.2424" x2="574.249" y2="125.892" stroke="rgb(255,0,0)" stroke-width="0.705556"/>
		<line x1="574.249" y1="125.892" x2="574.249" y2="125.892" stroke="rgb(255,0,0)" stroke-width="0.705556"/>
		<line x1="424.249" y1="125.892" x2="574.249" y2="125.892" stroke="rgb(255,255,0)" stroke-width="0.705556"/>
		<line x1="167.099" y1="408.492" x2="167.099" y2="408.492" stroke="rgb(255,0,0)" stroke-width="0.705556"/>
		<line x1="167.099" y1="509.142" x2="318.399" y2="509.142" stroke="rgb(255,0,0)" stroke-width="0.705556"/>
		<line x1="167.099" y1="408.492" x2="318.399" y2="408.492" stroke="rgb(255,255,0)" stroke-width="0.705556"/>
		<line x1="167.099" y1="124.592" x2="167.099" y2="124.592" stroke="rgb(255,0,0)" stroke-width="0.705556"/>
		<line x1="167.099" y1="23.9424" x2="318.399" y2="23.9424" stroke="rgb(255,0,0)" stroke-width="0.705556"/>
		<line x1="167.099" y1="124.592" x2="318.399" y2="124.592" stroke="rgb(255,255,0)" stroke-width="0.705556"/>
		<line x1="318.399" y1="408.492" x2="319.699" y2="409.142" stroke="rgb(255,0,0)" stroke-width="0.705556"/>
		<line x1="319.699" y1="409.142" x2="422.299" y2="409.142" stroke="rgb(255,0,0)" stroke-width="0.705556"/>
		<line x1="319.699" y1="408.492" x2="319.699" y2="409.142" stroke="rgb(255,255,0)" stroke-width="0.705556"/>
		<line x1="318.399" y1="124.592" x2="319.699" y2="123.942" stroke="rgb(255,0,0)" stroke-width="0.705556"/>
		<line x1="319.699" y1="123.942" x2="422.299" y2="123.942" stroke="rgb(255,0,0)" stroke-width="0.705556"/>
		<line x1="319.699" y1="124.592" x2="319.699" y2="123.942" stroke="rgb(255,255,0)" stroke-width="0.705556"/>
		<line x1="318.399" y1="509.142" x2="424.249" y2="509.142" stroke="rgb(255,0,0)" stroke-width="0.705556"/>
		<line x1="424.249" y1="509.142" x2="424.249" y2="409.792" stroke="rgb(255,0,0)" stroke-width="0.705556"/>
		<line x1="318.399" y1="23.9424" x2="424.249" y2="23.9424" stroke="rgb(255,0,0)" stroke-width="0.705556"/>
		<line x1="424.249" y1="23.9424" x2="424.249" y2="123.942" stroke="rgb(255,0,0)" stroke-width="0.705556"/>
		<line x1="318.399" y1="408.492" x2="318.399" y2="509.142" stroke="rgb(255,255,0)" stroke-width="0.705556"/>
		<line x1="318.399" y1="23.9424" x2="318.399" y2="124.592" stroke="rgb(255,255,0)" stroke-width="0.705556"/>
		<line x1="422.299" y1="409.142" x2="424.249" y2="407.192" stroke="rgb(255,0,0)" stroke-width="0.705556"/>
		<line x1="422.299" y1="407.192" x2="422.299" y2="409.142" stroke="rgb(255,255,0)" stroke-width="0.705556"/>
		<line x1="422.299" y1="123.942" x2="424.249" y2="125.892" stroke="rgb(255,0,0)" stroke-width="0.705556"/>
		<line x1="422.299" y1="125.892" x2="422.299" y2="123.942" stroke="rgb(255,255,0)" stroke-width="0.705556"/>
		<line x1="167.099" y1="509.142" x2="61.2495" y2="509.142" stroke="rgb(255,0,0)" stroke-width="0.705556"/>
		<line x1="61.2495" y1="509.142" x2="61.2495" y2="428.084" stroke="rgb(255,0,0)" stroke-width="0.705556"/>
		<line x1="61.2495" y1="428.084" x2="61.2495" y2="428.084" stroke="rgb(255,0,0)" stroke-width="0.705556"/>
		<line x1="61.2495" y1="428.084" x2="96.5328" y2="410.442" stroke="rgb(255,0,0)" stroke-width="0.705556"/>
		<line x1="96.5328" y1="410.442" x2="167.099" y2="410.442" stroke="rgb(255,0,0)" stroke-width="0.705556"/>
		<line x1="167.099" y1="509.142" x2="167.099" y2="410.442" stroke="rgb(255,255,0)" stroke-width="0.705556"/>
		<line x1="167.099" y1="410.442" x2="167.099" y2="408.492" stroke="rgb(255,0,0)" stroke-width="0.705556"/>
		<line x1="167.099" y1="509.142" x2="167.099" y2="509.142" stroke="rgb(255,0,0)" stroke-width="0.705556"/>
		<line x1="167.099" y1="23.9424" x2="61.2495" y2="23.9424" stroke="rgb(255,0,0)" stroke-width="0.705556"/>
		<line x1="61.2495" y1="23.9424" x2="61.2495" y2="105.001" stroke="rgb(255,0,0)" stroke-width="0.705556"/>
		<line x1="61.2495" y1="105.001" x2="61.2495" y2="105.001" stroke="rgb(255,0,0)" stroke-width="0.705556"/>
		<line x1="61.2495" y1="105.001" x2="96.5328" y2="122.642" stroke="rgb(255,0,0)" stroke-width="0.705556"/>
		<line x1="96.5328" y1="122.642" x2="167.099" y2="122.642" stroke="rgb(255,0,0)" stroke-width="0.705556"/>
		<line x1="167.099" y1="23.9424" x2="167.099" y2="122.642" stroke="rgb(255,255,0)" stroke-width="0.705556"/>
		<line x1="167.099" y1="122.642" x2="167.099" y2="124.592" stroke="rgb(255,0,0)" stroke-width="0.705556"/>
		<line x1="167.099" y1="23.9424" x2="167.099" y2="23.9424" stroke="rgb(255,0,0)" stroke-width="0.705556"/>
		<line x1="574.249" y1="125.892" x2="576.199" y2="123.942" stroke="rgb(255,0,0)" stroke-width="0.705556"/>
		<line x1="576.199" y1="123.942" x2="677.499" y2="123.942" stroke="rgb(255,0,0)" stroke-width="0.705556"/>
		<line x1="677.499" y1="409.142" x2="576.199" y2="409.142" stroke="rgb(255,0,0)" stroke-width="0.705556"/>
		<line x1="576.199" y1="409.142" x2="574.249" y2="407.192" stroke="rgb(255,0,0)" stroke-width="0.705556"/>
		<line x1="576.199" y1="123.942" x2="576.199" y2="409.142" stroke="rgb(255,255,0)" stroke-width="0.705556"/>
		<line x1="677.499" y1="126.542" x2="696.249" y2="126.542" stroke="rgb(255,0,0)" stroke-width="0.705556"/>
		<line x1="714.999" y1="145.292" x2="714.999" y2="387.792" stroke="rgb(255,0,0)" stroke-width="0.705556"/>
		<line x1="696.249" y1="406.542" x2="677.499" y2="406.542" stroke="rgb(255,0,0)" stroke-width="0.705556"/>
		<line x1="677.499" y1="409.142" x2="677.499" y2="406.542" stroke="rgb(255,0,0)" stroke-width="0.705556"/>
		<line x1="677.499" y1="406.542" x2="677.499" y2="126.542" stroke="rgb(255,255,0)" stroke-width="0.705556"/>
		<line x1="677.499" y1="126.542" x2="677.499" y2="123.942" stroke="rgb(255,0,0)" stroke-width="0.705556"/>
		<path d="M714.999,145.292 a18.75 18.75 0 0 0 -18.75,-18.75" fill="none" stroke="rgb(255,0,0)" stroke-width="0.705556"/>
		<path d="M714.999,387.792 a18.75 18.75 0 0 1 -18.75,18.75" fill="none" stroke="rgb(255,0,0)" stroke-width="0.705556"/>
		<line x1="504.198" y1="162.542" x2="476.583" y2="162.542" stroke="rgb(64,128,128)" stroke-width="0"/>
		<line x1="485.788" y1="171.026" x2="476.583" y2="171.026" stroke="rgb(64,128,128)" stroke-width="0"/>
		<line x1="494.993" y1="166.784" x2="476.583" y2="166.784" stroke="rgb(64,128,128)" stroke-width="0"/>
		<line x1="513.403" y1="158.3" x2="476.583" y2="158.3" stroke="rgb(64,128,128)" stroke-width="0"/>
		<line x1="522.608" y1="154.058" x2="476.583" y2="154.058" stroke="rgb(64,128,128)" stroke-width="0"/>
		<line x1="531.813" y1="149.816" x2="476.583" y2="149.816" stroke="rgb(64,128,128)" stroke-width="0"/>
		<line x1="476.583" y1="175.268" x2="476.583" y2="149.816" stroke="rgb(64,128,128)" stroke-width="0"/>
		<line x1="531.813" y1="149.816" x2="503.495" y2="178.091" stroke="rgb(64,128,128)" stroke-width="0"/>
		<path d="M503.495,178.091 a26.6045 26.6045 0 0 0 -26.9118,-2.82257" fill="none" stroke="rgb(64,128,128)" stroke-width="0"/>
		<line x1="476.583" y1="175.268" x2="531.813" y2="149.816" stroke="rgb(64,128,128)" stroke-width="0"/>
	</g>
</svg>