<svg version = "1.1" xmlns = "http://www.w3.org/2000/svg" xmlns:xlink="http://www.w3.org/1999/xlink" width="585.906" height="636.556" viewbox = "0 0 585.906 636.556">
	<g transform="translate(-50.938,669.652) scale(1,-1) ">
		<line x1="484.541" y1="336.699" x2="585.841" y2="336.699" stroke="rgb(255,0,0)" stroke-width="0.705556"/>
		<line x1="585.841" y1="135.399" x2="484.541" y2="135.399" stroke="rgb(255,0,0)" stroke-width="0.705556"/>
		<line x1="484.541" y1="34.7494" x2="203.241" y2="34.7494" stroke="rgb(255,0,0)" stroke-width="0.705556"/>
		<line x1="203.241" y1="336.699" x2="101.941" y2="336.699" stroke="rgb(255,0,0)" stroke-width="0.705556"/>
		<line x1="101.941" y1="135.399" x2="203.241" y2="135.399" stroke="rgb(255,0,0)" stroke-width="0.705556"/>
		<line x1="484.541" y1="336.699" x2="203.241" y2="336.699" stroke="rgb(255,255,0)" stroke-width="0.705556"/>
		<line x1="203.241" y1="336.699" x2="203.241" y2="270.033" stroke="rgb(255,255,0)" stroke-width="0.705556"/>
		<line x1="203.241" y1="268.083" x2="203.241" y2="204.016" stroke="rgb(255,255,0)" stroke-width="0.705556"/>
		<line x1="203.241" y1="202.066" x2="203.241" y2="135.399" stroke="rgb(255,255,0)" stroke-width="0.705556"/>
		<line x1="203.241" y1="135.399" x2="484.541" y2="135.399" stroke="rgb(255,255,0)" stroke-width="0.705556"/>
		<line x1="484.541" y1="135.399" x2="484.541" y2="202.066" stroke="rgb(255,255,0)" stroke-width="0.705556"/>
		<line x1="484.541" y1="204.016" x2="484.541" y2="268.083" stroke="rgb(255,255,0)" stroke-width="0.705556"/>
		<line x1="484.541" y1="270.033" x2="484.541" y2="336.699" stroke="rgb(255,255,0)" stroke-width="0.705556"/>
		<line x1="203.241" y1="336.699" x2="203.241" y2="336.699" stroke="rgb(255,0,0)" stroke-width="0.705556"/>
		<line x1="203.241" y1="336.699" x2="203.241" y2="336.699" stroke="rgb(255,0,0)" stroke-width="0.705556"/>
		<line x1="484.541" y1="336.699" x2="484.541" y2="336.699" stroke="rgb(255,0,0)" stroke-width="0.705556"/>
		<line x1="484.541" y1="336.699" x2="484.541" y2="336.699" stroke="rgb(255,0,0)" stroke-width="0.705556"/>
		<line x1="484.541" y1="135.399" x2="484.541" y2="135.399" stroke="rgb(255,0,0)" stroke-width="0.705556"/>
		<line x1="484.541" y1="135.399" x2="484.541" y2="135.399" stroke="rgb(255,0,0)" stroke-width="0.705556"/>
		<line x1="203.241" y1="135.399" x2="203.241" y2="135.399" stroke="rgb(255,0,0)" stroke-width="0.705556"/>
		<line x1="203.241" y1="135.399" x2="203.241" y2="135.399" stroke="rgb(255,0,0)" stroke-width="0.705556"/>
		<line x1="485.841" y1="437.349" x2="486.491" y2="439.299" stroke="rgb(255,0,0)" stroke-width="0.705556"/>
		<line x1="486.491" y1="439.299" x2="486.491" y2="639.299" stroke="rgb(255,0,0)" stroke-width="0.705556"/>
		<line x1="202.591" y1="639.299" x2="202.591" y2="439.299" stroke="rgb(255,0,0)" stroke-width="0.705556"/>
		<line x1="202.591" y1="439.299" x2="203.241" y2="437.349" stroke="rgb(255,0,0)" stroke-width="0.705556"/>
		<line x1="486.491" y1="439.299" x2="202.591" y2="439.299" stroke="rgb(255,255,0)" stroke-width="0.705556"/>
		<line x1="202.591" y1="639.299" x2="205.191" y2="639.299" stroke="rgb(255,0,0)" stroke-width="0.705556"/>
		<line x1="205.191" y1="639.299" x2="210.191" y2="669.299" stroke="rgb(255,0,0)" stroke-width="0.705556"/>
		<line x1="210.191" y1="669.299" x2="478.891" y2="669.299" stroke="rgb(255,0,0)" stroke-width="0.705556"/>
		<line x1="478.891" y1="669.299" x2="483.891" y2="639.299" stroke="rgb(255,0,0)" stroke-width="0.705556"/>
		<line x1="483.891" y1="639.299" x2="486.491" y2="639.299" stroke="rgb(255,0,0)" stroke-width="0.705556"/>
		<line x1="205.191" y1="639.299" x2="483.891" y2="639.299" stroke="rgb(255,255,0)" stroke-width="0.705556"/>
		<line x1="350.264" y1="173.125" x2="322.649" y2="173.125" stroke="rgb(64,128,128)" stroke-width="0"/>
		<line x1="331.854" y1="181.609" x2="322.649" y2="181.609" stroke="rgb(64,128,128)" stroke-width="0"/>
		<line x1="341.059" y1="177.367" x2="322.649" y2="177.367" stroke="rgb(64,128,128)" stroke-width="0"/>
		<line x1="359.468" y1="168.883" x2="322.649" y2="168.883" stroke="rgb(64,128,128)" stroke-width="0"/>
		<line x1="368.673" y1="164.641" x2="322.649" y2="164.641" stroke="rgb(64,128,128)" stroke-width="0"/>
		<line x1="377.878" y1="160.399" x2="322.649" y2="160.399" stroke="rgb(64,128,128)" stroke-width="0"/>
		<line x1="322.649" y1="185.851" x2="322.649" y2="160.399" stroke="rgb(64,128,128)" stroke-width="0"/>
		<line x1="377.878" y1="160.399" x2="349.561" y2="188.674" stroke="rgb(64,128,128)" stroke-width="0"/>
		<path d="M349.561,188.674 a26.6045 26.6045 0 0 0 -26.9118,-2.82257" fill="none" stroke="rgb(64,128,128)" stroke-width="0"/>
		<line x1="322.649" y1="185.851" x2="377.878" y2="160.399" stroke="rgb(64,128,128)" stroke-width="0"/>
		<line x1="574.132" y1="437.349" x2="574.132" y2="339.699" stroke="rgb(255,0,0)" stroke-width="0.705556"/>
		<line x1="554.132" y1="437.349" x2="485.841" y2="437.349" stroke="rgb(255,0,0)" stroke-width="0.705556"/>
		<line x1="574.132" y1="339.699" x2="485.841" y2="339.699" stroke="rgb(255,0,0)" stroke-width="0.705556"/>
		<line x1="485.841" y1="339.699" x2="484.541" y2="336.699" stroke="rgb(255,0,0)" stroke-width="0.705556"/>
		<line x1="485.841" y1="437.349" x2="485.841" y2="339.699" stroke="rgb(255,255,0)" stroke-width="0.705556"/>
		<line x1="113.649" y1="437.349" x2="113.649" y2="339.699" stroke="rgb(255,0,0)" stroke-width="0.705556"/>
		<line x1="133.649" y1="437.349" x2="201.941" y2="437.349" stroke="rgb(255,0,0)" stroke-width="0.705556"/>
		<line x1="113.649" y1="339.699" x2="201.941" y2="339.699" stroke="rgb(255,0,0)" stroke-width="0.705556"/>
		<line x1="201.941" y1="339.699" x2="203.241" y2="336.699" stroke="rgb(255,0,0)" stroke-width="0.705556"/>
		<line x1="201.941" y1="437.349" x2="203.241" y2="437.349" stroke="rgb(255,0,0)" stroke-width="0.705556"/>
		<line x1="201.941" y1="437.349" x2="201.941" y2="339.699" stroke="rgb(255,255,0)" stroke-width="0.705556"/>
		<line x1="554.132" y1="437.349" x2="554.132" y2="438.649" stroke="rgb(255,0,0)" stroke-width="0.705556"/>
		<line x1="554.132" y1="438.649" x2="574.132" y2="438.649" stroke="rgb(255,0,0)" stroke-width="0.705556"/>
		<line x1="574.132" y1="438.649" x2="574.132" y2="437.349" stroke="rgb(255,0,0)" stroke-width="0.705556"/>
		<line x1="133.649" y1="437.349" x2="133.649" y2="438.649" stroke="rgb(255,0,0)" stroke-width="0.705556"/>
		<line x1="133.649" y1="438.649" x2="113.649" y2="438.649" stroke="rgb(255,0,0)" stroke-width="0.705556"/>
		<line x1="113.649" y1="438.649" x2="113.649" y2="437.349" stroke="rgb(255,0,0)" stroke-width="0.705556"/>
		<line x1="574.132" y1="34.7494" x2="574.132" y2="132.399" stroke="rgb(255,0,0)" stroke-width="0.705556"/>
		<line x1="554.132" y1="34.7494" x2="485.841" y2="34.7494" stroke="rgb(255,0,0)" stroke-width="0.705556"/>
		<line x1="574.132" y1="132.399" x2="485.841" y2="132.399" stroke="rgb(255,0,0)" stroke-width="0.705556"/>
		<line x1="485.841" y1="132.399" x2="484.541" y2="135.399" stroke="rgb(255,0,0)" stroke-width="0.705556"/>
		<line x1="485.841" y1="34.7494" x2="484.541" y2="34.7494" stroke="rgb(255,0,0)" stroke-width="0.705556"/>
		<line x1="485.841" y1="34.7494" x2="485.841" y2="132.399" stroke="rgb(255,255,0)" stroke-width="0.705556"/>
		<line x1="113.649" y1="34.7494" x2="113.649" y2="132.399" stroke="rgb(255,0,0)" stroke-width="0.705556"/>
		<line x1="133.649" y1="34.7494" x2="201.941" y2="34.7494" stroke="rgb(255,0,0)" stroke-width="0.705556"/>
		<line x1="113.649" y1="132.399" x2="201.941" y2="132.399" stroke="rgb(255,0,0)" stroke-width="0.705556"/>
		<line x1="201.941" y1="132.399" x2="203.241" y2="135.399" stroke="rgb(255,0,0)" stroke-width="0.705556"/>
		<line x1="201.941" y1="34.7494" x2="203.241" y2="34.7494" stroke="rgb(255,0,0)" stroke-width="0.705556"/>
		<line x1="201.941" y1="34.7494" x2="201.941" y2="132.399" stroke="rgb(255,255,0)" stroke-width="0.705556"/>
		<line x1="554.132" y1="34.7494" x2="554.132" y2="33.4494" stroke="rgb(255,0,0)" stroke-width="0.705556"/>
		<line x1="554.132" y1="33.4494" x2="574.132" y2="33.4494" stroke="rgb(255,0,0)" stroke-width="0.705556"/>
		<line x1="574.132" y1="33.4494" x2="574.132" y2="34.7494" stroke="rgb(255,0,0)" stroke-width="0.705556"/>
		<line x1="133.649" y1="34.7494" x2="133.649" y2="33.4494" stroke="rgb(255,0,0)" stroke-width="0.705556"/>
		<line x1="133.649" y1="33.4494" x2="113.649" y2="33.4494" stroke="rgb(255,0,0)" stroke-width="0.705556"/>
		<line x1="113.649" y1="33.4494" x2="113.649" y2="34.7494" stroke="rgb(255,0,0)" stroke-width="0.705556"/>
		<line x1="585.841" y1="336.699" x2="636.491" y2="331.699" stroke="rgb(255,0,0)" stroke-width="0.705556"/>
		<line x1="636.491" y1="331.699" x2="636.491" y2="140.399" stroke="rgb(255,0,0)" stroke-width="0.705556"/>
		<line x1="636.491" y1="140.399" x2="585.841" y2="135.399" stroke="rgb(255,0,0)" stroke-width="0.705556"/>
		<line x1="585.841" y1="336.699" x2="585.841" y2="270.033" stroke="rgb(255,255,0)" stroke-width="0.705556"/>
		<line x1="585.841" y1="268.083" x2="585.841" y2="204.016" stroke="rgb(255,255,0)" stroke-width="0.705556"/>
		<line x1="585.841" y1="202.066" x2="585.841" y2="135.399" stroke="rgb(255,255,0)" stroke-width="0.705556"/>
		<line x1="101.941" y1="336.699" x2="51.2908" y2="331.699" stroke="rgb(255,0,0)" stroke-width="0.705556"/>
		<line x1="51.2908" y1="331.699" x2="51.2908" y2="140.399" stroke="rgb(255,0,0)" stroke-width="0.705556"/>
		<line x1="51.2908" y1="140.399" x2="101.941" y2="135.399" stroke="rgb(255,0,0)" stroke-width="0.705556"/>
		<line x1="101.941" y1="336.699" x2="101.941" y2="270.033" stroke="rgb(255,255,0)" stroke-width="0.705556"/>
		<line x1="101.941" y1="268.083" x2="101.941" y2="204.016" stroke="rgb(255,255,0)" stroke-width="0.705556"/>
		<line x1="101.941" y1="202.066" x2="101.941" y2="135.399" stroke="rgb(255,255,0)" stroke-width="0.705556"/>
		<line x1="484.541" y1="270.033" x2="484.541" y2="268.083" stroke="rgb(255,0,0)" stroke-width="0.705556"/>
		<line x1="484.541" y1="268.083" x2="585.841" y2="268.083" stroke="rgb(255,0,0)" stroke-width="0.705556"/>
		<line x1="585.841" y1="268.083" x2="585.841" y2="270.033" stroke="rgb(255,0,0)" stroke-width="0.705556"/>
		<line x1="585.841" y1="270.033" x2="484.541" y2="270.033" stroke="rgb(255,0,0)" stroke-width="0.705556"/>
		<line x1="484.541" y1="202.066" x2="484.541" y2="204.016" stroke="rgb(255,0,0)" stroke-width="0.705556"/>
		<line x1="484.541" y1="204.016" x2="585.841" y2="204.016" stroke="rgb(255,0,0)" stroke-width="0.705556"/>
		<line x1="585.841" y1="204.016" x2="585.841" y2="202.066" stroke="rgb(255,0,0)" stroke-width="0.705556"/>
		<line x1="585.841" y1="202.066" x2="484.541" y2="202.066" stroke="rgb(255,0,0)" stroke-width="0.705556"/>
		<line x1="203.241" y1="270.033" x2="203.241" y2="268.083" stroke="rgb(255,0,0)" stroke-width="0.705556"/>
		<line x1="203.241" y1="268.083" x2="101.941" y2="268.083" stroke="rgb(255,0,0)" stroke-width="0.705556"/>
		<line x1="101.941" y1="268.083" x2="101.941" y2="270.033" stroke="rgb(255,0,0)" stroke-width="0.705556"/>
		<line x1="101.941" y1="270.033" x2="203.241" y2="270.033" stroke="rgb(255,0,0)" stroke-width="0.705556"/>
		<line x1="203.241" y1="202.066" x2="203.241" y2="204.016" stroke="rgb(255,0,0)" stroke-width="0.705556"/>
		<line x1="203.241" y1="204.016" x2="101.941" y2="204.016" stroke="rgb(255,0,0)" stroke-width="0.705556"/>
		<line x1="101.941" y1="204.016" x2="101.941" y2="202.066" stroke="rgb(255,0,0)" stroke-width="0.705556"/>
		<line x1="101.941" y1="202.066" x2="203.241" y2="202.066" stroke="rgb(255,0,0)" stroke-width="0.705556"/>
	</g>
</svg>