<svg version = "1.1" xmlns = "http://www.w3.org/2000/svg" xmlns:xlink="http://www.w3.org/1999/xlink" width="654.606" height="433.506" viewbox = "0 0 654.606 433.506">
	<g transform="translate(-47.3684,508.022) scale(1,-1) ">
		<line x1="515.321" y1="460.719" x2="515.321" y2="460.719" stroke="rgb(255,0,0)" stroke-width="0.705556"/>
		<line x1="515.321" y1="121.819" x2="515.321" y2="121.819" stroke="rgb(255,0,0)" stroke-width="0.705556"/>
		<line x1="515.321" y1="460.719" x2="515.321" y2="121.819" stroke="rgb(255,255,0)" stroke-width="0.705556"/>
		<line x1="234.021" y1="121.819" x2="234.021" y2="121.819" stroke="rgb(255,0,0)" stroke-width="0.705556"/>
		<line x1="234.021" y1="460.719" x2="234.021" y2="460.719" stroke="rgb(255,0,0)" stroke-width="0.705556"/>
		<line x1="234.021" y1="121.819" x2="234.021" y2="460.719" stroke="rgb(255,255,0)" stroke-width="0.705556"/>
		<line x1="586.621" y1="423.219" x2="617.871" y2="423.219" stroke="rgb(255,0,0)" stroke-width="0.705556"/>
		<line x1="586.621" y1="159.319" x2="617.871" y2="159.319" stroke="rgb(255,0,0)" stroke-width="0.705556"/>
		<line x1="162.721" y1="423.219" x2="131.471" y2="423.219" stroke="rgb(255,0,0)" stroke-width="0.705556"/>
		<line x1="162.721" y1="159.319" x2="131.471" y2="159.319" stroke="rgb(255,0,0)" stroke-width="0.705556"/>
		<line x1="234.021" y1="460.719" x2="237.021" y2="460.719" stroke="rgb(255,0,0)" stroke-width="0.705556"/>
		<line x1="237.021" y1="460.719" x2="245.3" y2="507.669" stroke="rgb(255,0,0)" stroke-width="0.705556"/>
		<line x1="245.3" y1="507.669" x2="504.043" y2="507.669" stroke="rgb(255,0,0)" stroke-width="0.705556"/>
		<line x1="504.043" y1="507.669" x2="512.321" y2="460.719" stroke="rgb(255,0,0)" stroke-width="0.705556"/>
		<line x1="512.321" y1="460.719" x2="515.321" y2="460.719" stroke="rgb(255,0,0)" stroke-width="0.705556"/>
		<line x1="237.25" y1="462.019" x2="512.092" y2="462.019" stroke="rgb(255,255,0)" stroke-width="0.705556"/>
		<line x1="515.321" y1="121.819" x2="512.321" y2="121.819" stroke="rgb(255,0,0)" stroke-width="0.705556"/>
		<line x1="512.321" y1="121.819" x2="504.043" y2="74.8687" stroke="rgb(255,0,0)" stroke-width="0.705556"/>
		<line x1="504.043" y1="74.8687" x2="245.3" y2="74.8687" stroke="rgb(255,0,0)" stroke-width="0.705556"/>
		<line x1="245.3" y1="74.8687" x2="237.021" y2="121.819" stroke="rgb(255,0,0)" stroke-width="0.705556"/>
		<line x1="237.021" y1="121.819" x2="234.021" y2="121.819" stroke="rgb(255,0,0)" stroke-width="0.705556"/>
		<line x1="512.092" y1="120.519" x2="237.25" y2="120.519" stroke="rgb(255,255,0)" stroke-width="0.705556"/>
		<line x1="617.871" y1="498.219" x2="524.933" y2="498.219" stroke="rgb(255,0,0)" stroke-width="0.705556"/>
		<line x1="518.321" y1="460.719" x2="524.933" y2="498.219" stroke="rgb(255,0,0)" stroke-width="0.705556"/>
		<line x1="515.321" y1="460.719" x2="518.321" y2="460.719" stroke="rgb(255,0,0)" stroke-width="0.705556"/>
		<line x1="518.321" y1="460.719" x2="617.871" y2="460.719" stroke="rgb(255,255,0)" stroke-width="0.705556"/>
		<line x1="617.871" y1="460.719" x2="617.871" y2="460.719" stroke="rgb(255,0,0)" stroke-width="0.705556"/>
		<line x1="131.471" y1="84.3187" x2="224.409" y2="84.3187" stroke="rgb(255,0,0)" stroke-width="0.705556"/>
		<line x1="231.021" y1="121.819" x2="224.409" y2="84.3187" stroke="rgb(255,0,0)" stroke-width="0.705556"/>
		<line x1="234.021" y1="121.819" x2="231.021" y2="121.819" stroke="rgb(255,0,0)" stroke-width="0.705556"/>
		<line x1="231.021" y1="121.819" x2="131.471" y2="121.819" stroke="rgb(255,255,0)" stroke-width="0.705556"/>
		<line x1="131.471" y1="121.819" x2="131.471" y2="121.819" stroke="rgb(255,0,0)" stroke-width="0.705556"/>
		<line x1="131.471" y1="498.219" x2="224.409" y2="498.219" stroke="rgb(255,0,0)" stroke-width="0.705556"/>
		<line x1="231.021" y1="460.719" x2="224.409" y2="498.219" stroke="rgb(255,0,0)" stroke-width="0.705556"/>
		<line x1="234.021" y1="460.719" x2="231.021" y2="460.719" stroke="rgb(255,0,0)" stroke-width="0.705556"/>
		<line x1="231.021" y1="460.719" x2="131.471" y2="460.719" stroke="rgb(255,255,0)" stroke-width="0.705556"/>
		<line x1="131.471" y1="460.719" x2="131.471" y2="460.719" stroke="rgb(255,0,0)" stroke-width="0.705556"/>
		<line x1="617.871" y1="84.3187" x2="524.933" y2="84.3187" stroke="rgb(255,0,0)" stroke-width="0.705556"/>
		<line x1="518.321" y1="121.819" x2="524.933" y2="84.3187" stroke="rgb(255,0,0)" stroke-width="0.705556"/>
		<line x1="515.321" y1="121.819" x2="518.321" y2="121.819" stroke="rgb(255,0,0)" stroke-width="0.705556"/>
		<line x1="518.321" y1="121.819" x2="617.871" y2="121.819" stroke="rgb(255,255,0)" stroke-width="0.705556"/>
		<line x1="617.871" y1="121.819" x2="617.871" y2="121.819" stroke="rgb(255,0,0)" stroke-width="0.705556"/>
		<path d="M617.871,498.219 a62.5 62.5 0 0 0 0,-75" fill="none" stroke="rgb(255,0,0)" stroke-width="0.705556"/>
		<path d="M617.871,159.319 a62.5 62.5 0 0 0 0,-75" fill="none" stroke="rgb(255,0,0)" stroke-width="0.705556"/>
		<path d="M131.471,84.3187 a62.5 62.5 0 0 0 0,75" fill="none" stroke="rgb(255,0,0)" stroke-width="0.705556"/>
		<path d="M131.471,423.219 a62.5 62.5 0 0 0 0,75" fill="none" stroke="rgb(255,0,0)" stroke-width="0.705556"/>
		<line x1="617.871" y1="460.719" x2="630.371" y2="460.719" stroke="rgb(255,255,0)" stroke-width="0.705556"/>
		<line x1="617.871" y1="121.819" x2="630.371" y2="121.819" stroke="rgb(255,255,0)" stroke-width="0.705556"/>
		<line x1="131.471" y1="121.819" x2="118.971" y2="121.819" stroke="rgb(255,255,0)" stroke-width="0.705556"/>
		<line x1="131.471" y1="460.719" x2="118.971" y2="460.719" stroke="rgb(255,255,0)" stroke-width="0.705556"/>
		<line x1="561.621" y1="398.219" x2="586.621" y2="423.219" stroke="rgb(255,0,0)" stroke-width="0.705556"/>
		<line x1="561.621" y1="184.319" x2="586.621" y2="159.319" stroke="rgb(255,0,0)" stroke-width="0.705556"/>
		<line x1="561.621" y1="398.219" x2="561.621" y2="184.319" stroke="rgb(255,255,0)" stroke-width="0.705556"/>
		<circle cx="599.121" cy="356.269" r="25" fill="none" stroke="rgb(255,0,0)" stroke-width="0.705556"/>
		<circle cx="599.121" cy="291.269" r="25" fill="none" stroke="rgb(255,0,0)" stroke-width="0.705556"/>
		<circle cx="599.121" cy="226.269" r="25" fill="none" stroke="rgb(255,0,0)" stroke-width="0.705556"/>
		<path d="M624.121,161.269 a25 25 0 0 1 -48.3588,8.9088" fill="none" stroke="rgb(255,0,0)" stroke-width="0.705556"/>
		<path d="M575.762,412.36 a25 25 0 0 1 48.3588,8.9088" fill="none" stroke="rgb(255,0,0)" stroke-width="0.705556"/>
		<circle cx="664.121" cy="421.269" r="25" fill="none" stroke="rgb(255,0,0)" stroke-width="0.705556"/>
		<path d="M685.772,368.769 a25 25 0 1 1 0,-25" fill="none" stroke="rgb(255,0,0)" stroke-width="0.705556"/>
		<path d="M685.772,238.769 a25 25 0 1 1 0,-25" fill="none" stroke="rgb(255,0,0)" stroke-width="0.705556"/>
		<circle cx="664.121" cy="161.269" r="25" fill="none" stroke="rgb(255,0,0)" stroke-width="0.705556"/>
		<line x1="701.621" y1="446.269" x2="701.621" y2="136.269" stroke="rgb(255,0,0)" stroke-width="0.705556"/>
		<path d="M636.621,123.769 a62.5 62.5 0 0 1 -12.5,37.5" fill="none" stroke="rgb(255,0,0)" stroke-width="0.705556"/>
		<path d="M624.121,421.269 a62.5 62.5 0 0 1 12.5,37.5" fill="none" stroke="rgb(255,0,0)" stroke-width="0.705556"/>
		<path d="M685.772,303.769 a25 25 0 1 1 0,-25" fill="none" stroke="rgb(255,0,0)" stroke-width="0.705556"/>
		<line x1="685.772" y1="303.769" x2="695.371" y2="303.769" stroke="rgb(255,0,0)" stroke-width="0.705556"/>
		<line x1="695.371" y1="303.769" x2="695.371" y2="278.769" stroke="rgb(255,255,0)" stroke-width="0.705556"/>
		<line x1="695.371" y1="278.769" x2="685.772" y2="278.769" stroke="rgb(255,0,0)" stroke-width="0.705556"/>
		<line x1="685.772" y1="238.769" x2="695.371" y2="238.769" stroke="rgb(255,0,0)" stroke-width="0.705556"/>
		<line x1="695.371" y1="238.769" x2="695.371" y2="213.769" stroke="rgb(255,255,0)" stroke-width="0.705556"/>
		<line x1="695.371" y1="213.769" x2="685.772" y2="213.769" stroke="rgb(255,0,0)" stroke-width="0.705556"/>
		<line x1="685.772" y1="368.769" x2="695.371" y2="368.769" stroke="rgb(255,0,0)" stroke-width="0.705556"/>
		<line x1="695.371" y1="368.769" x2="695.371" y2="343.769" stroke="rgb(255,255,0)" stroke-width="0.705556"/>
		<line x1="695.371" y1="343.769" x2="685.772" y2="343.769" stroke="rgb(255,0,0)" stroke-width="0.705556"/>
		<line x1="649.721" y1="376.705" x2="649.721" y2="335.832" stroke="rgb(255,0,0)" stroke-width="0.705556"/>
		<line x1="649.721" y1="311.705" x2="649.721" y2="270.832" stroke="rgb(255,0,0)" stroke-width="0.705556"/>
		<line x1="649.721" y1="246.705" x2="649.721" y2="205.832" stroke="rgb(255,0,0)" stroke-width="0.705556"/>
		<line x1="187.721" y1="184.319" x2="162.721" y2="159.319" stroke="rgb(255,0,0)" stroke-width="0.705556"/>
		<line x1="187.721" y1="398.219" x2="162.721" y2="423.219" stroke="rgb(255,0,0)" stroke-width="0.705556"/>
		<line x1="187.721" y1="184.319" x2="187.721" y2="398.219" stroke="rgb(255,255,0)" stroke-width="0.705556"/>
		<circle cx="150.221" cy="226.269" r="25" fill="none" stroke="rgb(255,0,0)" stroke-width="0.705556"/>
		<circle cx="150.221" cy="291.269" r="25" fill="none" stroke="rgb(255,0,0)" stroke-width="0.705556"/>
		<circle cx="150.221" cy="356.269" r="25" fill="none" stroke="rgb(255,0,0)" stroke-width="0.705556"/>
		<path d="M125.221,421.269 a25 25 0 0 1 48.3588,-8.9088" fill="none" stroke="rgb(255,0,0)" stroke-width="0.705556"/>
		<path d="M173.58,170.178 a25 25 0 0 1 -48.3588,-8.9088" fill="none" stroke="rgb(255,0,0)" stroke-width="0.705556"/>
		<circle cx="85.2211" cy="161.269" r="25" fill="none" stroke="rgb(255,0,0)" stroke-width="0.705556"/>
		<path d="M63.5705,213.769 a25 25 0 1 1 0,25" fill="none" stroke="rgb(255,0,0)" stroke-width="0.705556"/>
		<path d="M63.5705,343.769 a25 25 0 1 1 0,25" fill="none" stroke="rgb(255,0,0)" stroke-width="0.705556"/>
		<circle cx="85.2211" cy="421.269" r="25" fill="none" stroke="rgb(255,0,0)" stroke-width="0.705556"/>
		<line x1="47.7211" y1="136.269" x2="47.7211" y2="446.269" stroke="rgb(255,0,0)" stroke-width="0.705556"/>
		<path d="M112.721,458.769 a62.5 62.5 0 0 1 12.5,-37.5" fill="none" stroke="rgb(255,0,0)" stroke-width="0.705556"/>
		<path d="M125.221,161.269 a62.5 62.5 0 0 1 -12.5,-37.5" fill="none" stroke="rgb(255,0,0)" stroke-width="0.705556"/>
		<path d="M63.5705,278.769 a25 25 0 1 1 0,25" fill="none" stroke="rgb(255,0,0)" stroke-width="0.705556"/>
		<line x1="63.5705" y1="278.769" x2="53.9711" y2="278.769" stroke="rgb(255,0,0)" stroke-width="0.705556"/>
		<line x1="53.9711" y1="278.769" x2="53.9711" y2="303.769" stroke="rgb(255,255,0)" stroke-width="0.705556"/>
		<line x1="53.9711" y1="303.769" x2="63.5705" y2="303.769" stroke="rgb(255,0,0)" stroke-width="0.705556"/>
		<line x1="63.5705" y1="343.769" x2="53.9711" y2="343.769" stroke="rgb(255,0,0)" stroke-width="0.705556"/>
		<line x1="53.9711" y1="343.769" x2="53.9711" y2="368.769" stroke="rgb(255,255,0)" stroke-width="0.705556"/>
		<line x1="53.9711" y1="368.769" x2="63.5705" y2="368.769" stroke="rgb(255,0,0)" stroke-width="0.705556"/>
		<line x1="63.5705" y1="213.769" x2="53.9711" y2="213.769" stroke="rgb(255,0,0)" stroke-width="0.705556"/>
		<line x1="53.9711" y1="213.769" x2="53.9711" y2="238.769" stroke="rgb(255,255,0)" stroke-width="0.705556"/>
		<line x1="53.9711" y1="238.769" x2="63.5705" y2="238.769" stroke="rgb(255,0,0)" stroke-width="0.705556"/>
		<line x1="99.6211" y1="205.832" x2="99.6211" y2="246.705" stroke="rgb(255,0,0)" stroke-width="0.705556"/>
		<line x1="99.6211" y1="270.832" x2="99.6211" y2="311.705" stroke="rgb(255,0,0)" stroke-width="0.705556"/>
		<line x1="99.6211" y1="335.832" x2="99.6211" y2="376.705" stroke="rgb(255,0,0)" stroke-width="0.705556"/>
		<line x1="701.621" y1="446.269" x2="689.121" y2="458.769" stroke="rgb(255,0,0)" stroke-width="0.705556"/>
		<line x1="701.621" y1="136.269" x2="689.121" y2="123.769" stroke="rgb(255,0,0)" stroke-width="0.705556"/>
		<line x1="47.7211" y1="446.269" x2="60.2211" y2="458.769" stroke="rgb(255,0,0)" stroke-width="0.705556"/>
		<line x1="47.7211" y1="136.269" x2="60.2211" y2="123.769" stroke="rgb(255,0,0)" stroke-width="0.705556"/>
		<line x1="636.621" y1="458.769" x2="636.621" y2="458.769" stroke="rgb(255,0,0)" stroke-width="0.705556"/>
		<line x1="636.621" y1="458.769" x2="636.621" y2="506.369" stroke="rgb(255,0,0)" stroke-width="0.705556"/>
		<line x1="636.621" y1="506.369" x2="689.121" y2="506.369" stroke="rgb(255,0,0)" stroke-width="0.705556"/>
		<line x1="689.121" y1="506.369" x2="689.121" y2="458.769" stroke="rgb(255,0,0)" stroke-width="0.705556"/>
		<line x1="689.121" y1="458.769" x2="689.121" y2="458.769" stroke="rgb(255,0,0)" stroke-width="0.705556"/>
		<line x1="636.621" y1="460.719" x2="689.121" y2="460.719" stroke="rgb(255,255,0)" stroke-width="0.705556"/>
		<line x1="689.121" y1="123.769" x2="689.121" y2="123.769" stroke="rgb(255,0,0)" stroke-width="0.705556"/>
		<line x1="689.121" y1="123.769" x2="689.121" y2="76.1687" stroke="rgb(255,0,0)" stroke-width="0.705556"/>
		<line x1="689.121" y1="76.1687" x2="636.621" y2="76.1687" stroke="rgb(255,0,0)" stroke-width="0.705556"/>
		<line x1="636.621" y1="76.1687" x2="636.621" y2="123.769" stroke="rgb(255,0,0)" stroke-width="0.705556"/>
		<line x1="636.621" y1="123.769" x2="636.621" y2="123.769" stroke="rgb(255,0,0)" stroke-width="0.705556"/>
		<line x1="689.121" y1="121.819" x2="636.621" y2="121.819" stroke="rgb(255,255,0)" stroke-width="0.705556"/>
		<line x1="60.2211" y1="458.769" x2="60.2211" y2="458.769" stroke="rgb(255,0,0)" stroke-width="0.705556"/>
		<line x1="60.2211" y1="458.769" x2="60.2211" y2="506.369" stroke="rgb(255,0,0)" stroke-width="0.705556"/>
		<line x1="60.2211" y1="506.369" x2="112.721" y2="506.369" stroke="rgb(255,0,0)" stroke-width="0.705556"/>
		<line x1="112.721" y1="506.369" x2="112.721" y2="458.769" stroke="rgb(255,0,0)" stroke-width="0.705556"/>
		<line x1="112.721" y1="458.769" x2="112.721" y2="458.769" stroke="rgb(255,0,0)" stroke-width="0.705556"/>
		<line x1="60.2211" y1="460.719" x2="112.721" y2="460.719" stroke="rgb(255,255,0)" stroke-width="0.705556"/>
		<line x1="112.721" y1="123.769" x2="112.721" y2="123.769" stroke="rgb(255,0,0)" stroke-width="0.705556"/>
		<line x1="112.721" y1="123.769" x2="112.721" y2="76.1687" stroke="rgb(255,0,0)" stroke-width="0.705556"/>
		<line x1="112.721" y1="76.1687" x2="60.2211" y2="76.1687" stroke="rgb(255,0,0)" stroke-width="0.705556"/>
		<line x1="60.2211" y1="76.1687" x2="60.2211" y2="123.769" stroke="rgb(255,0,0)" stroke-width="0.705556"/>
		<line x1="60.2211" y1="123.769" x2="60.2211" y2="123.769" stroke="rgb(255,0,0)" stroke-width="0.705556"/>
		<line x1="112.721" y1="121.819" x2="60.2211" y2="121.819" stroke="rgb(255,255,0)" stroke-width="0.705556"/>
		<line x1="624.121" y1="389.419" x2="624.121" y2="389.419" stroke="rgb(255,0,0)" stroke-width="0.705556"/>
		<line x1="625.421" y1="388.119" x2="637.821" y2="388.119" stroke="rgb(255,0,0)" stroke-width="0.705556"/>
		<line x1="639.121" y1="389.419" x2="639.121" y2="389.419" stroke="rgb(255,0,0)" stroke-width="0.705556"/>
		<line x1="637.821" y1="390.719" x2="625.421" y2="390.719" stroke="rgb(255,0,0)" stroke-width="0.705556"/>
		<path d="M639.121,389.419 a1.3 1.3 0 0 1 -1.3,1.3" fill="none" stroke="rgb(255,0,0)" stroke-width="0.705556"/>
		<path d="M637.821,388.119 a1.3 1.3 0 0 1 1.3,1.3" fill="none" stroke="rgb(255,0,0)" stroke-width="0.705556"/>
		<path d="M624.121,389.419 a1.3 1.3 0 0 1 1.3,-1.3" fill="none" stroke="rgb(255,0,0)" stroke-width="0.705556"/>
		<path d="M624.121,389.419 a1.3 1.3 0 0 0 1.3,1.3" fill="none" stroke="rgb(255,0,0)" stroke-width="0.705556"/>
		<line x1="624.121" y1="193.119" x2="624.121" y2="193.119" stroke="rgb(255,0,0)" stroke-width="0.705556"/>
		<line x1="625.421" y1="194.419" x2="637.821" y2="194.419" stroke="rgb(255,0,0)" stroke-width="0.705556"/>
		<line x1="639.121" y1="193.119" x2="639.121" y2="193.119" stroke="rgb(255,0,0)" stroke-width="0.705556"/>
		<line x1="637.821" y1="191.819" x2="625.421" y2="191.819" stroke="rgb(255,0,0)" stroke-width="0.705556"/>
		<path d="M639.121,193.119 a1.3 1.3 0 0 0 -1.3,-1.3" fill="none" stroke="rgb(255,0,0)" stroke-width="0.705556"/>
		<path d="M637.821,194.419 a1.3 1.3 0 0 0 1.3,-1.3" fill="none" stroke="rgb(255,0,0)" stroke-width="0.705556"/>
		<path d="M624.121,193.119 a1.3 1.3 0 0 0 1.3,1.3" fill="none" stroke="rgb(255,0,0)" stroke-width="0.705556"/>
		<path d="M624.121,193.119 a1.3 1.3 0 0 1 1.3,-1.3" fill="none" stroke="rgb(255,0,0)" stroke-width="0.705556"/>
		<line x1="125.221" y1="389.419" x2="125.221" y2="389.419" stroke="rgb(255,0,0)" stroke-width="0.705556"/>
		<line x1="123.921" y1="388.119" x2="111.521" y2="388.119" stroke="rgb(255,0,0)" stroke-width="0.705556"/>
		<line x1="110.221" y1="389.419" x2="110.221" y2="389.419" stroke="rgb(255,0,0)" stroke-width="0.705556"/>
		<line x1="111.521" y1="390.719" x2="123.921" y2="390.719" stroke="rgb(255,0,0)" stroke-width="0.705556"/>
		<path d="M110.221,389.419 a1.3 1.3 0 0 0 1.3,1.3" fill="none" stroke="rgb(255,0,0)" stroke-width="0.705556"/>
		<path d="M111.521,388.119 a1.3 1.3 0 0 0 -1.3,1.3" fill="none" stroke="rgb(255,0,0)" stroke-width="0.705556"/>
		<path d="M125.221,389.419 a1.3 1.3 0 0 0 -1.3,-1.3" fill="none" stroke="rgb(255,0,0)" stroke-width="0.705556"/>
		<path d="M125.221,389.419 a1.3 1.3 0 0 1 -1.3,1.3" fill="none" stroke="rgb(255,0,0)" stroke-width="0.705556"/>
		<line x1="125.221" y1="193.119" x2="125.221" y2="193.119" stroke="rgb(255,0,0)" stroke-width="0.705556"/>
		<line x1="123.921" y1="194.419" x2="111.521" y2="194.419" stroke="rgb(255,0,0)" stroke-width="0.705556"/>
		<line x1="110.221" y1="193.119" x2="110.221" y2="193.119" stroke="rgb(255,0,0)" stroke-width="0.705556"/>
		<line x1="111.521" y1="191.819" x2="123.921" y2="191.819" stroke="rgb(255,0,0)" stroke-width="0.705556"/>
		<path d="M110.221,193.119 a1.3 1.3 0 0 1 1.3,-1.3" fill="none" stroke="rgb(255,0,0)" stroke-width="0.705556"/>
		<path d="M111.521,194.419 a1.3 1.3 0 0 1 -1.3,-1.3" fill="none" stroke="rgb(255,0,0)" stroke-width="0.705556"/>
		<path d="M125.221,193.119 a1.3 1.3 0 0 1 -1.3,1.3" fill="none" stroke="rgb(255,0,0)" stroke-width="0.705556"/>
		<path d="M125.221,193.119 a1.3 1.3 0 0 0 -1.3,-1.3" fill="none" stroke="rgb(255,0,0)" stroke-width="0.705556"/>
		<line x1="422.821" y1="389.419" x2="422.821" y2="435.069" stroke="rgb(255,0,0)" stroke-width="0.705556"/>
		<line x1="422.821" y1="435.069" x2="437.821" y2="435.069" stroke="rgb(255,0,0)" stroke-width="0.705556"/>
		<line x1="452.821" y1="435.069" x2="467.821" y2="435.069" stroke="rgb(255,0,0)" stroke-width="0.705556"/>
		<line x1="467.821" y1="435.069" x2="467.821" y2="389.419" stroke="rgb(255,0,0)" stroke-width="0.705556"/>
		<line x1="467.821" y1="389.419" x2="422.821" y2="389.419" stroke="rgb(255,255,0)" stroke-width="0.705556"/>
		<line x1="281.521" y1="389.419" x2="281.521" y2="435.069" stroke="rgb(255,0,0)" stroke-width="0.705556"/>
		<line x1="281.521" y1="435.069" x2="296.521" y2="435.069" stroke="rgb(255,0,0)" stroke-width="0.705556"/>
		<line x1="311.521" y1="435.069" x2="326.521" y2="435.069" stroke="rgb(255,0,0)" stroke-width="0.705556"/>
		<line x1="326.521" y1="435.069" x2="326.521" y2="389.419" stroke="rgb(255,0,0)" stroke-width="0.705556"/>
		<line x1="326.521" y1="389.419" x2="281.521" y2="389.419" stroke="rgb(255,255,0)" stroke-width="0.705556"/>
		<line x1="467.821" y1="193.119" x2="467.821" y2="147.469" stroke="rgb(255,0,0)" stroke-width="0.705556"/>
		<line x1="467.821" y1="147.469" x2="452.821" y2="147.469" stroke="rgb(255,0,0)" stroke-width="0.705556"/>
		<line x1="437.821" y1="147.469" x2="422.821" y2="147.469" stroke="rgb(255,0,0)" stroke-width="0.705556"/>
		<line x1="422.821" y1="147.469" x2="422.821" y2="193.119" stroke="rgb(255,0,0)" stroke-width="0.705556"/>
		<line x1="422.821" y1="193.119" x2="467.821" y2="193.119" stroke="rgb(255,255,0)" stroke-width="0.705556"/>
		<line x1="326.521" y1="193.119" x2="326.521" y2="147.469" stroke="rgb(255,0,0)" stroke-width="0.705556"/>
		<line x1="326.521" y1="147.469" x2="311.521" y2="147.469" stroke="rgb(255,0,0)" stroke-width="0.705556"/>
		<line x1="296.521" y1="147.469" x2="281.521" y2="147.469" stroke="rgb(255,0,0)" stroke-width="0.705556"/>
		<line x1="281.521" y1="147.469" x2="281.521" y2="193.119" stroke="rgb(255,0,0)" stroke-width="0.705556"/>
		<line x1="281.521" y1="193.119" x2="326.521" y2="193.119" stroke="rgb(255,255,0)" stroke-width="0.705556"/>
		<line x1="452.821" y1="435.069" x2="451.821" y2="437.019" stroke="rgb(255,0,0)" stroke-width="0.705556"/>
		<line x1="451.821" y1="437.019" x2="438.821" y2="437.019" stroke="rgb(255,0,0)" stroke-width="0.705556"/>
		<line x1="438.821" y1="437.019" x2="437.821" y2="435.069" stroke="rgb(255,0,0)" stroke-width="0.705556"/>
		<line x1="311.521" y1="435.069" x2="310.521" y2="437.019" stroke="rgb(255,0,0)" stroke-width="0.705556"/>
		<line x1="310.521" y1="437.019" x2="297.521" y2="437.019" stroke="rgb(255,0,0)" stroke-width="0.705556"/>
		<line x1="297.521" y1="437.019" x2="296.521" y2="435.069" stroke="rgb(255,0,0)" stroke-width="0.705556"/>
		<line x1="296.521" y1="147.469" x2="297.521" y2="145.519" stroke="rgb(255,0,0)" stroke-width="0.705556"/>
		<line x1="297.521" y1="145.519" x2="310.521" y2="145.519" stroke="rgb(255,0,0)" stroke-width="0.705556"/>
		<line x1="310.521" y1="145.519" x2="311.521" y2="147.469" stroke="rgb(255,0,0)" stroke-width="0.705556"/>
		<line x1="437.821" y1="147.469" x2="438.821" y2="145.519" stroke="rgb(255,0,0)" stroke-width="0.705556"/>
		<line x1="438.821" y1="145.519" x2="451.821" y2="145.519" stroke="rgb(255,0,0)" stroke-width="0.705556"/>
		<line x1="451.821" y1="145.519" x2="452.821" y2="147.469" stroke="rgb(255,0,0)" stroke-width="0.705556"/>
		<line x1="381.044" y1="229.545" x2="353.429" y2="229.545" stroke="rgb(64,128,128)" stroke-width="0"/>
		<line x1="362.634" y1="238.029" x2="353.429" y2="238.029" stroke="rgb(64,128,128)" stroke-width="0"/>
		<line x1="371.839" y1="233.787" x2="353.429" y2="233.787" stroke="rgb(64,128,128)" stroke-width="0"/>
		<line x1="390.249" y1="225.303" x2="353.429" y2="225.303" stroke="rgb(64,128,128)" stroke-width="0"/>
		<line x1="399.454" y1="221.061" x2="353.429" y2="221.061" stroke="rgb(64,128,128)" stroke-width="0"/>
		<line x1="408.659" y1="216.819" x2="353.429" y2="216.819" stroke="rgb(64,128,128)" stroke-width="0"/>
		<line x1="353.429" y1="242.271" x2="353.429" y2="216.819" stroke="rgb(64,128,128)" stroke-width="0"/>
		<line x1="408.659" y1="216.819" x2="380.341" y2="245.093" stroke="rgb(64,128,128)" stroke-width="0"/>
		<path d="M380.341,245.093 a26.6045 26.6045 0 0 0 -26.9118,-2.82257" fill="none" stroke="rgb(64,128,128)" stroke-width="0"/>
		<line x1="353.429" y1="242.271" x2="408.659" y2="216.819" stroke="rgb(64,128,128)" stroke-width="0"/>
	</g>
</svg>