<svg version = "1.1" xmlns = "http://www.w3.org/2000/svg" xmlns:xlink="http://www.w3.org/1999/xlink" width="622.406" height="457.206" viewbox = "0 0 622.406 457.206">
	<g transform="translate(-83.7335,494.075) scale(1,-1) ">
		<line x1="156.036" y1="124.822" x2="358.636" y2="124.822" stroke="rgb(255,0,0)" stroke-width="0.705556"/>
		<line x1="358.636" y1="124.822" x2="358.636" y2="406.122" stroke="rgb(255,255,0)" stroke-width="0.705556"/>
		<line x1="358.636" y1="406.122" x2="277.336" y2="406.122" stroke="rgb(255,0,0)" stroke-width="0.705556"/>
		<line x1="237.336" y1="406.122" x2="156.036" y2="406.122" stroke="rgb(255,0,0)" stroke-width="0.705556"/>
		<line x1="431.236" y1="406.122" x2="431.236" y2="124.822" stroke="rgb(255,255,0)" stroke-width="0.705556"/>
		<line x1="633.836" y1="124.822" x2="633.836" y2="406.122" stroke="rgb(255,255,0)" stroke-width="0.705556"/>
		<line x1="705.786" y1="406.122" x2="705.786" y2="124.822" stroke="rgb(255,0,0)" stroke-width="0.705556"/>
		<line x1="633.836" y1="406.122" x2="705.786" y2="406.122" stroke="rgb(255,0,0)" stroke-width="0.705556"/>
		<line x1="705.786" y1="124.822" x2="633.836" y2="124.822" stroke="rgb(255,0,0)" stroke-width="0.705556"/>
		<line x1="84.0862" y1="124.822" x2="84.0862" y2="406.122" stroke="rgb(255,0,0)" stroke-width="0.705556"/>
		<line x1="156.036" y1="406.122" x2="156.036" y2="124.822" stroke="rgb(255,255,0)" stroke-width="0.705556"/>
		<line x1="358.636" y1="406.122" x2="360.586" y2="406.122" stroke="rgb(255,0,0)" stroke-width="0.705556"/>
		<line x1="360.586" y1="406.122" x2="360.586" y2="473.722" stroke="rgb(255,0,0)" stroke-width="0.705556"/>
		<line x1="360.586" y1="473.722" x2="426.236" y2="473.722" stroke="rgb(255,0,0)" stroke-width="0.705556"/>
		<line x1="360.586" y1="406.122" x2="431.236" y2="406.122" stroke="rgb(255,255,0)" stroke-width="0.705556"/>
		<line x1="633.836" y1="406.122" x2="638.836" y2="411.122" stroke="rgb(255,0,0)" stroke-width="0.705556"/>
		<line x1="426.236" y1="411.122" x2="431.236" y2="406.122" stroke="rgb(255,0,0)" stroke-width="0.705556"/>
		<line x1="638.836" y1="411.122" x2="638.836" y2="473.722" stroke="rgb(255,0,0)" stroke-width="0.705556"/>
		<line x1="426.236" y1="473.722" x2="426.236" y2="411.122" stroke="rgb(255,0,0)" stroke-width="0.705556"/>
		<line x1="429.936" y1="407.422" x2="635.136" y2="407.422" stroke="rgb(255,255,0)" stroke-width="0.705556"/>
		<line x1="426.236" y1="473.722" x2="431.236" y2="478.722" stroke="rgb(255,0,0)" stroke-width="0.705556"/>
		<line x1="638.836" y1="473.722" x2="633.836" y2="478.722" stroke="rgb(255,0,0)" stroke-width="0.705556"/>
		<line x1="431.236" y1="478.722" x2="431.236" y2="493.722" stroke="rgb(255,0,0)" stroke-width="0.705556"/>
		<line x1="431.236" y1="493.722" x2="633.836" y2="493.722" stroke="rgb(255,0,0)" stroke-width="0.705556"/>
		<line x1="633.836" y1="493.722" x2="633.836" y2="478.722" stroke="rgb(255,0,0)" stroke-width="0.705556"/>
		<line x1="633.836" y1="478.722" x2="431.236" y2="478.722" stroke="rgb(255,255,0)" stroke-width="0.705556"/>
		<line x1="358.636" y1="124.822" x2="360.586" y2="124.822" stroke="rgb(255,0,0)" stroke-width="0.705556"/>
		<line x1="360.586" y1="124.822" x2="360.586" y2="57.2221" stroke="rgb(255,0,0)" stroke-width="0.705556"/>
		<line x1="360.586" y1="57.2221" x2="426.236" y2="57.2221" stroke="rgb(255,0,0)" stroke-width="0.705556"/>
		<line x1="360.586" y1="124.822" x2="431.236" y2="124.822" stroke="rgb(255,255,0)" stroke-width="0.705556"/>
		<line x1="431.236" y1="124.822" x2="426.236" y2="119.822" stroke="rgb(255,0,0)" stroke-width="0.705556"/>
		<line x1="638.836" y1="119.822" x2="633.836" y2="124.822" stroke="rgb(255,0,0)" stroke-width="0.705556"/>
		<line x1="426.236" y1="119.822" x2="426.236" y2="57.2221" stroke="rgb(255,0,0)" stroke-width="0.705556"/>
		<line x1="638.836" y1="57.2221" x2="638.836" y2="119.822" stroke="rgb(255,0,0)" stroke-width="0.705556"/>
		<line x1="635.136" y1="123.522" x2="429.936" y2="123.522" stroke="rgb(255,255,0)" stroke-width="0.705556"/>
		<line x1="638.836" y1="57.2221" x2="633.836" y2="52.2221" stroke="rgb(255,0,0)" stroke-width="0.705556"/>
		<line x1="426.236" y1="57.2221" x2="431.236" y2="52.2221" stroke="rgb(255,0,0)" stroke-width="0.705556"/>
		<line x1="633.836" y1="52.2221" x2="633.836" y2="37.2221" stroke="rgb(255,0,0)" stroke-width="0.705556"/>
		<line x1="633.836" y1="37.2221" x2="431.236" y2="37.2221" stroke="rgb(255,0,0)" stroke-width="0.705556"/>
		<line x1="431.236" y1="37.2221" x2="431.236" y2="52.2221" stroke="rgb(255,0,0)" stroke-width="0.705556"/>
		<line x1="431.236" y1="52.2221" x2="633.836" y2="52.2221" stroke="rgb(255,255,0)" stroke-width="0.705556"/>
		<line x1="156.036" y1="406.122" x2="154.086" y2="406.122" stroke="rgb(255,0,0)" stroke-width="0.705556"/>
		<line x1="154.086" y1="406.122" x2="154.086" y2="473.722" stroke="rgb(255,0,0)" stroke-width="0.705556"/>
		<line x1="154.086" y1="473.722" x2="84.0862" y2="473.722" stroke="rgb(255,0,0)" stroke-width="0.705556"/>
		<line x1="84.0862" y1="473.722" x2="84.0862" y2="406.122" stroke="rgb(255,0,0)" stroke-width="0.705556"/>
		<line x1="84.0862" y1="406.122" x2="84.0862" y2="406.122" stroke="rgb(255,0,0)" stroke-width="0.705556"/>
		<line x1="154.086" y1="406.122" x2="84.0862" y2="406.122" stroke="rgb(255,255,0)" stroke-width="0.705556"/>
		<line x1="156.036" y1="124.822" x2="154.086" y2="124.822" stroke="rgb(255,0,0)" stroke-width="0.705556"/>
		<line x1="154.086" y1="124.822" x2="154.086" y2="57.2221" stroke="rgb(255,0,0)" stroke-width="0.705556"/>
		<line x1="154.086" y1="57.2221" x2="84.0862" y2="57.2221" stroke="rgb(255,0,0)" stroke-width="0.705556"/>
		<line x1="84.0862" y1="57.2221" x2="84.0862" y2="124.822" stroke="rgb(255,0,0)" stroke-width="0.705556"/>
		<line x1="84.0862" y1="124.822" x2="84.0862" y2="124.822" stroke="rgb(255,0,0)" stroke-width="0.705556"/>
		<line x1="154.086" y1="124.822" x2="84.0862" y2="124.822" stroke="rgb(255,255,0)" stroke-width="0.705556"/>
		<line x1="277.336" y1="406.122" x2="275.45" y2="399.048" stroke="rgb(255,0,0)" stroke-width="0.705556"/>
		<line x1="270.015" y1="394.872" x2="244.658" y2="394.872" stroke="rgb(255,0,0)" stroke-width="0.705556"/>
		<line x1="239.223" y1="399.048" x2="237.336" y2="406.122" stroke="rgb(255,0,0)" stroke-width="0.705556"/>
		<path d="M275.45,399.048 a5.625 5.625 0 0 0 -5.43507,-4.17565" fill="none" stroke="rgb(255,0,0)" stroke-width="0.705556"/>
		<path d="M244.658,394.872 a5.625 5.625 0 0 0 -5.43507,4.17565" fill="none" stroke="rgb(255,0,0)" stroke-width="0.705556"/>
		<line x1="257.336" y1="177.437" x2="257.336" y2="149.822" stroke="rgb(64,128,128)" stroke-width="0"/>
		<line x1="265.82" y1="159.027" x2="265.82" y2="149.822" stroke="rgb(64,128,128)" stroke-width="0"/>
		<line x1="261.578" y1="168.232" x2="261.578" y2="149.822" stroke="rgb(64,128,128)" stroke-width="0"/>
		<line x1="253.094" y1="186.642" x2="253.094" y2="149.822" stroke="rgb(64,128,128)" stroke-width="0"/>
		<line x1="248.852" y1="195.847" x2="248.852" y2="149.822" stroke="rgb(64,128,128)" stroke-width="0"/>
		<line x1="244.61" y1="205.052" x2="244.61" y2="149.822" stroke="rgb(64,128,128)" stroke-width="0"/>
		<line x1="270.062" y1="149.822" x2="244.61" y2="149.822" stroke="rgb(64,128,128)" stroke-width="0"/>
		<line x1="244.61" y1="205.052" x2="272.885" y2="176.734" stroke="rgb(64,128,128)" stroke-width="0"/>
		<path d="M272.885,176.734 a26.6045 26.6045 0 0 1 -2.82257,-26.9118" fill="none" stroke="rgb(64,128,128)" stroke-width="0"/>
		<line x1="270.062" y1="149.822" x2="244.61" y2="205.052" stroke="rgb(64,128,128)" stroke-width="0"/>
	</g>
</svg>