<svg version = "1.1" xmlns = "http://www.w3.org/2000/svg" xmlns:xlink="http://www.w3.org/1999/xlink" width="483.306" height="403.306" viewbox = "0 0 483.306 403.306">
	<g transform="translate(-24.5347,419.804) scale(1,-1) ">
		<line x1="125.538" y1="318.801" x2="127.038" y2="318.801" stroke="rgb(255,0,0)" stroke-width="0.705556"/>
		<line x1="127.038" y1="318.801" x2="127.038" y2="419.451" stroke="rgb(255,0,0)" stroke-width="0.705556"/>
		<line x1="127.038" y1="419.451" x2="405.338" y2="419.451" stroke="rgb(255,0,0)" stroke-width="0.705556"/>
		<line x1="405.338" y1="419.451" x2="405.338" y2="318.801" stroke="rgb(255,0,0)" stroke-width="0.705556"/>
		<line x1="405.338" y1="318.801" x2="406.838" y2="318.801" stroke="rgb(255,0,0)" stroke-width="0.705556"/>
		<line x1="127.038" y1="318.801" x2="405.338" y2="318.801" stroke="rgb(255,255,0)" stroke-width="0.705556"/>
		<line x1="406.838" y1="117.501" x2="405.338" y2="117.501" stroke="rgb(255,0,0)" stroke-width="0.705556"/>
		<line x1="405.338" y1="117.501" x2="405.338" y2="16.8513" stroke="rgb(255,0,0)" stroke-width="0.705556"/>
		<line x1="405.338" y1="16.8513" x2="127.038" y2="16.8513" stroke="rgb(255,0,0)" stroke-width="0.705556"/>
		<line x1="127.038" y1="16.8513" x2="127.038" y2="117.501" stroke="rgb(255,0,0)" stroke-width="0.705556"/>
		<line x1="127.038" y1="117.501" x2="125.538" y2="117.501" stroke="rgb(255,0,0)" stroke-width="0.705556"/>
		<line x1="405.338" y1="117.501" x2="127.038" y2="117.501" stroke="rgb(255,255,0)" stroke-width="0.705556"/>
		<line x1="507.488" y1="318.801" x2="507.488" y2="117.501" stroke="rgb(255,0,0)" stroke-width="0.705556"/>
		<line x1="406.838" y1="117.501" x2="406.838" y2="318.801" stroke="rgb(255,255,0)" stroke-width="0.705556"/>
		<line x1="24.8875" y1="117.501" x2="24.8875" y2="318.801" stroke="rgb(255,0,0)" stroke-width="0.705556"/>
		<line x1="125.538" y1="318.801" x2="125.538" y2="117.501" stroke="rgb(255,255,0)" stroke-width="0.705556"/>
		<line x1="507.488" y1="318.801" x2="507.488" y2="318.801" stroke="rgb(255,0,0)" stroke-width="0.705556"/>
		<line x1="507.488" y1="318.801" x2="507.488" y2="419.451" stroke="rgb(255,0,0)" stroke-width="0.705556"/>
		<line x1="507.488" y1="419.451" x2="408.338" y2="419.451" stroke="rgb(255,0,0)" stroke-width="0.705556"/>
		<line x1="408.338" y1="419.451" x2="408.338" y2="318.801" stroke="rgb(255,0,0)" stroke-width="0.705556"/>
		<line x1="408.338" y1="318.801" x2="406.838" y2="318.801" stroke="rgb(255,0,0)" stroke-width="0.705556"/>
		<line x1="507.488" y1="320.101" x2="408.338" y2="320.101" stroke="rgb(255,255,0)" stroke-width="0.705556"/>
		<line x1="408.338" y1="321.601" x2="506.188" y2="419.451" stroke="rgb(255,255,0)" stroke-width="0.705556"/>
		<line x1="24.8875" y1="318.801" x2="24.8875" y2="318.801" stroke="rgb(255,0,0)" stroke-width="0.705556"/>
		<line x1="24.8875" y1="318.801" x2="24.8875" y2="419.451" stroke="rgb(255,0,0)" stroke-width="0.705556"/>
		<line x1="24.8875" y1="419.451" x2="124.038" y2="419.451" stroke="rgb(255,0,0)" stroke-width="0.705556"/>
		<line x1="124.038" y1="419.451" x2="124.038" y2="318.801" stroke="rgb(255,0,0)" stroke-width="0.705556"/>
		<line x1="124.038" y1="318.801" x2="125.538" y2="318.801" stroke="rgb(255,0,0)" stroke-width="0.705556"/>
		<line x1="24.8875" y1="320.101" x2="124.038" y2="320.101" stroke="rgb(255,255,0)" stroke-width="0.705556"/>
		<line x1="124.038" y1="321.601" x2="26.1875" y2="419.451" stroke="rgb(255,255,0)" stroke-width="0.705556"/>
		<line x1="24.8875" y1="117.501" x2="24.8875" y2="117.501" stroke="rgb(255,0,0)" stroke-width="0.705556"/>
		<line x1="24.8875" y1="117.501" x2="24.8875" y2="16.8513" stroke="rgb(255,0,0)" stroke-width="0.705556"/>
		<line x1="24.8875" y1="16.8513" x2="124.038" y2="16.8513" stroke="rgb(255,0,0)" stroke-width="0.705556"/>
		<line x1="124.038" y1="16.8513" x2="124.038" y2="117.501" stroke="rgb(255,0,0)" stroke-width="0.705556"/>
		<line x1="124.038" y1="117.501" x2="125.538" y2="117.501" stroke="rgb(255,0,0)" stroke-width="0.705556"/>
		<line x1="24.8875" y1="116.201" x2="124.038" y2="116.201" stroke="rgb(255,255,0)" stroke-width="0.705556"/>
		<line x1="124.038" y1="114.701" x2="26.1875" y2="16.8513" stroke="rgb(255,255,0)" stroke-width="0.705556"/>
		<line x1="507.488" y1="117.501" x2="507.488" y2="117.501" stroke="rgb(255,0,0)" stroke-width="0.705556"/>
		<line x1="507.488" y1="117.501" x2="507.488" y2="16.8513" stroke="rgb(255,0,0)" stroke-width="0.705556"/>
		<line x1="507.488" y1="16.8513" x2="408.338" y2="16.8513" stroke="rgb(255,0,0)" stroke-width="0.705556"/>
		<line x1="408.338" y1="16.8513" x2="408.338" y2="117.501" stroke="rgb(255,0,0)" stroke-width="0.705556"/>
		<line x1="408.338" y1="117.501" x2="406.838" y2="117.501" stroke="rgb(255,0,0)" stroke-width="0.705556"/>
		<line x1="507.488" y1="116.201" x2="408.338" y2="116.201" stroke="rgb(255,255,0)" stroke-width="0.705556"/>
		<line x1="408.338" y1="114.701" x2="506.188" y2="16.8513" stroke="rgb(255,255,0)" stroke-width="0.705556"/>
		<line x1="266.188" y1="180.116" x2="266.188" y2="152.501" stroke="rgb(64,128,128)" stroke-width="0"/>
		<line x1="274.672" y1="161.706" x2="274.672" y2="152.501" stroke="rgb(64,128,128)" stroke-width="0"/>
		<line x1="270.43" y1="170.911" x2="270.43" y2="152.501" stroke="rgb(64,128,128)" stroke-width="0"/>
		<line x1="261.946" y1="189.321" x2="261.946" y2="152.501" stroke="rgb(64,128,128)" stroke-width="0"/>
		<line x1="257.704" y1="198.526" x2="257.704" y2="152.501" stroke="rgb(64,128,128)" stroke-width="0"/>
		<line x1="253.462" y1="207.731" x2="253.462" y2="152.501" stroke="rgb(64,128,128)" stroke-width="0"/>
		<line x1="278.914" y1="152.501" x2="253.462" y2="152.501" stroke="rgb(64,128,128)" stroke-width="0"/>
		<line x1="253.462" y1="207.731" x2="281.736" y2="179.413" stroke="rgb(64,128,128)" stroke-width="0"/>
		<path d="M281.736,179.413 a26.6045 26.6045 0 0 1 -2.82257,-26.9118" fill="none" stroke="rgb(64,128,128)" stroke-width="0"/>
		<line x1="278.914" y1="152.501" x2="253.462" y2="207.731" stroke="rgb(64,128,128)" stroke-width="0"/>
	</g>
</svg>