<svg version = "1.1" xmlns = "http://www.w3.org/2000/svg" xmlns:xlink="http://www.w3.org/1999/xlink" width="559.606" height="382.906" viewbox = "0 0 559.606 382.906">
	<g transform="translate(-129.683,417.505) scale(1,-1) ">
		<line x1="217.536" y1="367.152" x2="501.436" y2="417.152" stroke="rgb(255,0,0)" stroke-width="0.705556"/>
		<line x1="217.536" y1="326.702" x2="501.436" y2="326.702" stroke="rgb(255,255,0)" stroke-width="0.705556"/>
		<line x1="217.536" y1="84.9518" x2="501.436" y2="34.9518" stroke="rgb(255,0,0)" stroke-width="0.705556"/>
		<line x1="217.536" y1="125.402" x2="501.436" y2="125.402" stroke="rgb(255,255,0)" stroke-width="0.705556"/>
		<line x1="216.236" y1="326.702" x2="216.236" y2="306.052" stroke="rgb(255,255,0)" stroke-width="0.705556"/>
		<line x1="216.236" y1="271.419" x2="216.236" y2="180.685" stroke="rgb(255,255,0)" stroke-width="0.705556"/>
		<line x1="216.236" y1="146.052" x2="216.236" y2="125.402" stroke="rgb(255,255,0)" stroke-width="0.705556"/>
		<line x1="502.736" y1="125.402" x2="502.736" y2="146.052" stroke="rgb(255,255,0)" stroke-width="0.705556"/>
		<line x1="502.736" y1="180.685" x2="502.736" y2="271.419" stroke="rgb(255,255,0)" stroke-width="0.705556"/>
		<line x1="502.736" y1="306.052" x2="502.736" y2="326.702" stroke="rgb(255,255,0)" stroke-width="0.705556"/>
		<line x1="175.086" y1="367.152" x2="212.536" y2="367.152" stroke="rgb(255,0,0)" stroke-width="0.705556"/>
		<line x1="212.536" y1="367.152" x2="217.536" y2="367.152" stroke="rgb(255,0,0)" stroke-width="0.705556"/>
		<line x1="217.536" y1="326.702" x2="217.536" y2="367.152" stroke="rgb(255,255,0)" stroke-width="0.705556"/>
		<line x1="175.086" y1="367.152" x2="175.086" y2="327.352" stroke="rgb(255,0,0)" stroke-width="0.705556"/>
		<line x1="175.086" y1="84.9518" x2="212.536" y2="84.9518" stroke="rgb(255,0,0)" stroke-width="0.705556"/>
		<line x1="212.536" y1="84.9518" x2="217.536" y2="84.9518" stroke="rgb(255,0,0)" stroke-width="0.705556"/>
		<line x1="217.536" y1="125.402" x2="217.536" y2="84.9518" stroke="rgb(255,255,0)" stroke-width="0.705556"/>
		<line x1="175.086" y1="84.9518" x2="175.086" y2="124.752" stroke="rgb(255,0,0)" stroke-width="0.705556"/>
		<line x1="593.886" y1="34.9518" x2="506.436" y2="34.9518" stroke="rgb(255,0,0)" stroke-width="0.705556"/>
		<line x1="506.436" y1="34.9518" x2="501.436" y2="34.9518" stroke="rgb(255,0,0)" stroke-width="0.705556"/>
		<line x1="501.436" y1="125.402" x2="501.436" y2="34.9518" stroke="rgb(255,255,0)" stroke-width="0.705556"/>
		<line x1="593.886" y1="34.9518" x2="593.886" y2="124.752" stroke="rgb(255,0,0)" stroke-width="0.705556"/>
		<line x1="593.886" y1="417.152" x2="506.436" y2="417.152" stroke="rgb(255,0,0)" stroke-width="0.705556"/>
		<line x1="506.436" y1="417.152" x2="501.436" y2="417.152" stroke="rgb(255,0,0)" stroke-width="0.705556"/>
		<line x1="501.436" y1="326.702" x2="501.436" y2="417.152" stroke="rgb(255,255,0)" stroke-width="0.705556"/>
		<line x1="593.886" y1="417.152" x2="593.886" y2="327.352" stroke="rgb(255,0,0)" stroke-width="0.705556"/>
		<line x1="217.536" y1="326.702" x2="216.236" y2="327.352" stroke="rgb(255,0,0)" stroke-width="0.705556"/>
		<line x1="216.236" y1="327.352" x2="175.086" y2="327.352" stroke="rgb(255,0,0)" stroke-width="0.705556"/>
		<line x1="216.236" y1="326.702" x2="216.236" y2="327.352" stroke="rgb(255,255,0)" stroke-width="0.705556"/>
		<line x1="217.536" y1="125.402" x2="216.236" y2="124.752" stroke="rgb(255,0,0)" stroke-width="0.705556"/>
		<line x1="216.236" y1="124.752" x2="175.086" y2="124.752" stroke="rgb(255,0,0)" stroke-width="0.705556"/>
		<line x1="216.236" y1="125.402" x2="216.236" y2="124.752" stroke="rgb(255,255,0)" stroke-width="0.705556"/>
		<line x1="501.436" y1="326.702" x2="502.736" y2="327.352" stroke="rgb(255,0,0)" stroke-width="0.705556"/>
		<line x1="502.736" y1="327.352" x2="593.886" y2="327.352" stroke="rgb(255,0,0)" stroke-width="0.705556"/>
		<line x1="502.736" y1="326.702" x2="502.736" y2="327.352" stroke="rgb(255,255,0)" stroke-width="0.705556"/>
		<line x1="501.436" y1="125.402" x2="502.736" y2="124.752" stroke="rgb(255,0,0)" stroke-width="0.705556"/>
		<line x1="502.736" y1="124.752" x2="593.886" y2="124.752" stroke="rgb(255,0,0)" stroke-width="0.705556"/>
		<line x1="502.736" y1="125.402" x2="502.736" y2="124.752" stroke="rgb(255,255,0)" stroke-width="0.705556"/>
		<line x1="593.886" y1="124.752" x2="593.886" y2="327.352" stroke="rgb(255,255,0)" stroke-width="0.705556"/>
		<line x1="593.886" y1="327.352" x2="596.486" y2="325.402" stroke="rgb(255,0,0)" stroke-width="0.705556"/>
		<line x1="596.486" y1="126.702" x2="593.886" y2="124.752" stroke="rgb(255,0,0)" stroke-width="0.705556"/>
		<line x1="175.086" y1="124.752" x2="175.086" y2="327.352" stroke="rgb(255,255,0)" stroke-width="0.705556"/>
		<line x1="175.086" y1="327.352" x2="172.486" y2="325.402" stroke="rgb(255,0,0)" stroke-width="0.705556"/>
		<line x1="172.486" y1="126.702" x2="175.086" y2="124.752" stroke="rgb(255,0,0)" stroke-width="0.705556"/>
		<line x1="172.486" y1="126.702" x2="131.986" y2="126.702" stroke="rgb(255,0,0)" stroke-width="0.705556"/>
		<line x1="131.986" y1="126.702" x2="131.986" y2="146.702" stroke="rgb(255,0,0)" stroke-width="0.705556"/>
		<line x1="131.986" y1="180.035" x2="131.986" y2="272.069" stroke="rgb(255,0,0)" stroke-width="0.705556"/>
		<line x1="131.986" y1="305.402" x2="131.986" y2="325.402" stroke="rgb(255,0,0)" stroke-width="0.705556"/>
		<line x1="131.986" y1="325.402" x2="172.486" y2="325.402" stroke="rgb(255,0,0)" stroke-width="0.705556"/>
		<line x1="172.486" y1="325.402" x2="172.486" y2="126.702" stroke="rgb(255,255,0)" stroke-width="0.705556"/>
		<line x1="596.486" y1="325.402" x2="686.986" y2="325.402" stroke="rgb(255,0,0)" stroke-width="0.705556"/>
		<line x1="686.986" y1="325.402" x2="686.986" y2="305.402" stroke="rgb(255,0,0)" stroke-width="0.705556"/>
		<line x1="686.986" y1="272.069" x2="686.986" y2="180.035" stroke="rgb(255,0,0)" stroke-width="0.705556"/>
		<line x1="686.986" y1="146.702" x2="686.986" y2="126.702" stroke="rgb(255,0,0)" stroke-width="0.705556"/>
		<line x1="686.986" y1="126.702" x2="596.486" y2="126.702" stroke="rgb(255,0,0)" stroke-width="0.705556"/>
		<line x1="596.486" y1="126.702" x2="596.486" y2="325.402" stroke="rgb(255,255,0)" stroke-width="0.705556"/>
		<line x1="365.858" y1="163.128" x2="338.243" y2="163.128" stroke="rgb(64,128,128)" stroke-width="0"/>
		<line x1="347.448" y1="171.612" x2="338.243" y2="171.612" stroke="rgb(64,128,128)" stroke-width="0"/>
		<line x1="356.653" y1="167.37" x2="338.243" y2="167.37" stroke="rgb(64,128,128)" stroke-width="0"/>
		<line x1="375.063" y1="158.886" x2="338.243" y2="158.886" stroke="rgb(64,128,128)" stroke-width="0"/>
		<line x1="384.268" y1="154.644" x2="338.243" y2="154.644" stroke="rgb(64,128,128)" stroke-width="0"/>
		<line x1="393.473" y1="150.402" x2="338.243" y2="150.402" stroke="rgb(64,128,128)" stroke-width="0"/>
		<line x1="338.243" y1="175.854" x2="338.243" y2="150.402" stroke="rgb(64,128,128)" stroke-width="0"/>
		<line x1="393.473" y1="150.402" x2="365.155" y2="178.676" stroke="rgb(64,128,128)" stroke-width="0"/>
		<path d="M365.155,178.676 a26.6045 26.6045 0 0 0 -26.9118,-2.82257" fill="none" stroke="rgb(64,128,128)" stroke-width="0"/>
		<line x1="338.243" y1="175.854" x2="393.473" y2="150.402" stroke="rgb(64,128,128)" stroke-width="0"/>
		<line x1="131.986" y1="146.702" x2="130.036" y2="148.702" stroke="rgb(255,0,0)" stroke-width="0.705556"/>
		<line x1="130.036" y1="148.702" x2="130.036" y2="178.035" stroke="rgb(255,0,0)" stroke-width="0.705556"/>
		<line x1="130.036" y1="178.035" x2="131.986" y2="180.035" stroke="rgb(255,0,0)" stroke-width="0.705556"/>
		<line x1="131.986" y1="272.069" x2="130.036" y2="274.069" stroke="rgb(255,0,0)" stroke-width="0.705556"/>
		<line x1="130.036" y1="274.069" x2="130.036" y2="303.402" stroke="rgb(255,0,0)" stroke-width="0.705556"/>
		<line x1="130.036" y1="303.402" x2="131.986" y2="305.402" stroke="rgb(255,0,0)" stroke-width="0.705556"/>
		<line x1="131.986" y1="272.069" x2="130.036" y2="274.069" stroke="rgb(255,0,0)" stroke-width="0.705556"/>
		<line x1="130.036" y1="274.069" x2="130.036" y2="303.402" stroke="rgb(255,0,0)" stroke-width="0.705556"/>
		<line x1="130.036" y1="303.402" x2="131.986" y2="305.402" stroke="rgb(255,0,0)" stroke-width="0.705556"/>
		<line x1="131.986" y1="272.069" x2="130.036" y2="274.069" stroke="rgb(255,0,0)" stroke-width="0.705556"/>
		<line x1="130.036" y1="274.069" x2="130.036" y2="303.402" stroke="rgb(255,0,0)" stroke-width="0.705556"/>
		<line x1="130.036" y1="303.402" x2="131.986" y2="305.402" stroke="rgb(255,0,0)" stroke-width="0.705556"/>
		<line x1="131.986" y1="272.069" x2="130.036" y2="274.069" stroke="rgb(255,0,0)" stroke-width="0.705556"/>
		<line x1="130.036" y1="274.069" x2="130.036" y2="303.402" stroke="rgb(255,0,0)" stroke-width="0.705556"/>
		<line x1="130.036" y1="303.402" x2="131.986" y2="305.402" stroke="rgb(255,0,0)" stroke-width="0.705556"/>
		<line x1="131.986" y1="272.069" x2="130.036" y2="274.069" stroke="rgb(255,0,0)" stroke-width="0.705556"/>
		<line x1="130.036" y1="274.069" x2="130.036" y2="303.402" stroke="rgb(255,0,0)" stroke-width="0.705556"/>
		<line x1="130.036" y1="303.402" x2="131.986" y2="305.402" stroke="rgb(255,0,0)" stroke-width="0.705556"/>
		<line x1="131.986" y1="272.069" x2="130.036" y2="274.069" stroke="rgb(255,0,0)" stroke-width="0.705556"/>
		<line x1="130.036" y1="274.069" x2="130.036" y2="303.402" stroke="rgb(255,0,0)" stroke-width="0.705556"/>
		<line x1="130.036" y1="303.402" x2="131.986" y2="305.402" stroke="rgb(255,0,0)" stroke-width="0.705556"/>
		<line x1="131.986" y1="272.069" x2="130.036" y2="274.069" stroke="rgb(255,0,0)" stroke-width="0.705556"/>
		<line x1="130.036" y1="274.069" x2="130.036" y2="303.402" stroke="rgb(255,0,0)" stroke-width="0.705556"/>
		<line x1="130.036" y1="303.402" x2="131.986" y2="305.402" stroke="rgb(255,0,0)" stroke-width="0.705556"/>
		<line x1="131.986" y1="272.069" x2="130.036" y2="274.069" stroke="rgb(255,0,0)" stroke-width="0.705556"/>
		<line x1="130.036" y1="274.069" x2="130.036" y2="303.402" stroke="rgb(255,0,0)" stroke-width="0.705556"/>
		<line x1="130.036" y1="303.402" x2="131.986" y2="305.402" stroke="rgb(255,0,0)" stroke-width="0.705556"/>
		<line x1="131.986" y1="272.069" x2="130.036" y2="274.069" stroke="rgb(255,0,0)" stroke-width="0.705556"/>
		<line x1="130.036" y1="274.069" x2="130.036" y2="303.402" stroke="rgb(255,0,0)" stroke-width="0.705556"/>
		<line x1="130.036" y1="303.402" x2="131.986" y2="305.402" stroke="rgb(255,0,0)" stroke-width="0.705556"/>
		<line x1="131.986" y1="272.069" x2="130.036" y2="274.069" stroke="rgb(255,0,0)" stroke-width="0.705556"/>
		<line x1="130.036" y1="274.069" x2="130.036" y2="303.402" stroke="rgb(255,0,0)" stroke-width="0.705556"/>
		<line x1="130.036" y1="303.402" x2="131.986" y2="305.402" stroke="rgb(255,0,0)" stroke-width="0.705556"/>
		<line x1="131.986" y1="272.069" x2="130.036" y2="274.069" stroke="rgb(255,0,0)" stroke-width="0.705556"/>
		<line x1="130.036" y1="274.069" x2="130.036" y2="303.402" stroke="rgb(255,0,0)" stroke-width="0.705556"/>
		<line x1="130.036" y1="303.402" x2="131.986" y2="305.402" stroke="rgb(255,0,0)" stroke-width="0.705556"/>
		<line x1="131.986" y1="272.069" x2="130.036" y2="274.069" stroke="rgb(255,0,0)" stroke-width="0.705556"/>
		<line x1="130.036" y1="274.069" x2="130.036" y2="303.402" stroke="rgb(255,0,0)" stroke-width="0.705556"/>
		<line x1="130.036" y1="303.402" x2="131.986" y2="305.402" stroke="rgb(255,0,0)" stroke-width="0.705556"/>
		<line x1="131.986" y1="272.069" x2="130.036" y2="274.069" stroke="rgb(255,0,0)" stroke-width="0.705556"/>
		<line x1="130.036" y1="274.069" x2="130.036" y2="303.402" stroke="rgb(255,0,0)" stroke-width="0.705556"/>
		<line x1="130.036" y1="303.402" x2="131.986" y2="305.402" stroke="rgb(255,0,0)" stroke-width="0.705556"/>
		<line x1="131.986" y1="272.069" x2="130.036" y2="274.069" stroke="rgb(255,0,0)" stroke-width="0.705556"/>
		<line x1="130.036" y1="274.069" x2="130.036" y2="303.402" stroke="rgb(255,0,0)" stroke-width="0.705556"/>
		<line x1="130.036" y1="303.402" x2="131.986" y2="305.402" stroke="rgb(255,0,0)" stroke-width="0.705556"/>
		<line x1="131.986" y1="272.069" x2="130.036" y2="274.069" stroke="rgb(255,0,0)" stroke-width="0.705556"/>
		<line x1="130.036" y1="274.069" x2="130.036" y2="303.402" stroke="rgb(255,0,0)" stroke-width="0.705556"/>
		<line x1="130.036" y1="303.402" x2="131.986" y2="305.402" stroke="rgb(255,0,0)" stroke-width="0.705556"/>
		<line x1="131.986" y1="272.069" x2="130.036" y2="274.069" stroke="rgb(255,0,0)" stroke-width="0.705556"/>
		<line x1="130.036" y1="274.069" x2="130.036" y2="303.402" stroke="rgb(255,0,0)" stroke-width="0.705556"/>
		<line x1="130.036" y1="303.402" x2="131.986" y2="305.402" stroke="rgb(255,0,0)" stroke-width="0.705556"/>
		<line x1="131.986" y1="272.069" x2="130.036" y2="274.069" stroke="rgb(255,0,0)" stroke-width="0.705556"/>
		<line x1="130.036" y1="274.069" x2="130.036" y2="303.402" stroke="rgb(255,0,0)" stroke-width="0.705556"/>
		<line x1="130.036" y1="303.402" x2="131.986" y2="305.402" stroke="rgb(255,0,0)" stroke-width="0.705556"/>
		<line x1="131.986" y1="272.069" x2="130.036" y2="274.069" stroke="rgb(255,0,0)" stroke-width="0.705556"/>
		<line x1="130.036" y1="274.069" x2="130.036" y2="303.402" stroke="rgb(255,0,0)" stroke-width="0.705556"/>
		<line x1="130.036" y1="303.402" x2="131.986" y2="305.402" stroke="rgb(255,0,0)" stroke-width="0.705556"/>
		<line x1="219.486" y1="146.052" x2="219.486" y2="146.052" stroke="rgb(255,0,0)" stroke-width="0.705556"/>
		<line x1="219.486" y1="180.685" x2="219.486" y2="180.685" stroke="rgb(255,0,0)" stroke-width="0.705556"/>
		<line x1="219.486" y1="271.419" x2="216.236" y2="271.419" stroke="rgb(255,0,0)" stroke-width="0.705556"/>
		<line x1="216.236" y1="271.419" x2="216.236" y2="306.052" stroke="rgb(255,0,0)" stroke-width="0.705556"/>
		<line x1="216.236" y1="306.052" x2="219.486" y2="306.052" stroke="rgb(255,0,0)" stroke-width="0.705556"/>
		<line x1="219.486" y1="306.052" x2="219.486" y2="271.419" stroke="rgb(255,0,0)" stroke-width="0.705556"/>
		<line x1="219.486" y1="271.419" x2="219.486" y2="271.419" stroke="rgb(255,0,0)" stroke-width="0.705556"/>
		<line x1="219.486" y1="306.052" x2="219.486" y2="306.052" stroke="rgb(255,0,0)" stroke-width="0.705556"/>
		<line x1="219.486" y1="146.052" x2="219.486" y2="146.052" stroke="rgb(255,0,0)" stroke-width="0.705556"/>
		<line x1="219.486" y1="180.685" x2="219.486" y2="180.685" stroke="rgb(255,0,0)" stroke-width="0.705556"/>
		<line x1="219.486" y1="146.052" x2="219.486" y2="146.052" stroke="rgb(255,0,0)" stroke-width="0.705556"/>
		<line x1="219.486" y1="180.685" x2="219.486" y2="180.685" stroke="rgb(255,0,0)" stroke-width="0.705556"/>
		<line x1="219.486" y1="146.052" x2="219.486" y2="146.052" stroke="rgb(255,0,0)" stroke-width="0.705556"/>
		<line x1="219.486" y1="180.685" x2="219.486" y2="180.685" stroke="rgb(255,0,0)" stroke-width="0.705556"/>
		<line x1="219.486" y1="146.052" x2="219.486" y2="146.052" stroke="rgb(255,0,0)" stroke-width="0.705556"/>
		<line x1="219.486" y1="180.685" x2="219.486" y2="180.685" stroke="rgb(255,0,0)" stroke-width="0.705556"/>
		<line x1="219.486" y1="146.052" x2="219.486" y2="146.052" stroke="rgb(255,0,0)" stroke-width="0.705556"/>
		<line x1="219.486" y1="180.685" x2="219.486" y2="180.685" stroke="rgb(255,0,0)" stroke-width="0.705556"/>
		<line x1="219.486" y1="146.052" x2="219.486" y2="146.052" stroke="rgb(255,0,0)" stroke-width="0.705556"/>
		<line x1="219.486" y1="180.685" x2="219.486" y2="180.685" stroke="rgb(255,0,0)" stroke-width="0.705556"/>
		<line x1="219.486" y1="146.052" x2="219.486" y2="146.052" stroke="rgb(255,0,0)" stroke-width="0.705556"/>
		<line x1="219.486" y1="180.685" x2="219.486" y2="180.685" stroke="rgb(255,0,0)" stroke-width="0.705556"/>
		<line x1="219.486" y1="146.052" x2="219.486" y2="146.052" stroke="rgb(255,0,0)" stroke-width="0.705556"/>
		<line x1="219.486" y1="180.685" x2="219.486" y2="180.685" stroke="rgb(255,0,0)" stroke-width="0.705556"/>
		<line x1="219.486" y1="146.052" x2="219.486" y2="146.052" stroke="rgb(255,0,0)" stroke-width="0.705556"/>
		<line x1="219.486" y1="180.685" x2="219.486" y2="180.685" stroke="rgb(255,0,0)" stroke-width="0.705556"/>
		<line x1="219.486" y1="146.052" x2="219.486" y2="146.052" stroke="rgb(255,0,0)" stroke-width="0.705556"/>
		<line x1="219.486" y1="180.685" x2="219.486" y2="180.685" stroke="rgb(255,0,0)" stroke-width="0.705556"/>
		<line x1="219.486" y1="146.052" x2="219.486" y2="146.052" stroke="rgb(255,0,0)" stroke-width="0.705556"/>
		<line x1="219.486" y1="180.685" x2="219.486" y2="180.685" stroke="rgb(255,0,0)" stroke-width="0.705556"/>
		<line x1="219.486" y1="146.052" x2="219.486" y2="146.052" stroke="rgb(255,0,0)" stroke-width="0.705556"/>
		<line x1="219.486" y1="180.685" x2="219.486" y2="180.685" stroke="rgb(255,0,0)" stroke-width="0.705556"/>
		<line x1="219.486" y1="146.052" x2="219.486" y2="146.052" stroke="rgb(255,0,0)" stroke-width="0.705556"/>
		<line x1="219.486" y1="180.685" x2="219.486" y2="180.685" stroke="rgb(255,0,0)" stroke-width="0.705556"/>
		<line x1="219.486" y1="146.052" x2="219.486" y2="146.052" stroke="rgb(255,0,0)" stroke-width="0.705556"/>
		<line x1="219.486" y1="180.685" x2="219.486" y2="180.685" stroke="rgb(255,0,0)" stroke-width="0.705556"/>
		<line x1="219.486" y1="146.052" x2="219.486" y2="146.052" stroke="rgb(255,0,0)" stroke-width="0.705556"/>
		<line x1="219.486" y1="180.685" x2="219.486" y2="180.685" stroke="rgb(255,0,0)" stroke-width="0.705556"/>
		<line x1="219.486" y1="146.052" x2="219.486" y2="146.052" stroke="rgb(255,0,0)" stroke-width="0.705556"/>
		<line x1="219.486" y1="180.685" x2="219.486" y2="180.685" stroke="rgb(255,0,0)" stroke-width="0.705556"/>
		<line x1="219.486" y1="146.052" x2="216.236" y2="146.052" stroke="rgb(255,0,0)" stroke-width="0.705556"/>
		<line x1="216.236" y1="146.052" x2="216.236" y2="180.685" stroke="rgb(255,0,0)" stroke-width="0.705556"/>
		<line x1="216.236" y1="180.685" x2="219.486" y2="180.685" stroke="rgb(255,0,0)" stroke-width="0.705556"/>
		<line x1="219.486" y1="180.685" x2="219.486" y2="146.052" stroke="rgb(255,0,0)" stroke-width="0.705556"/>
		<line x1="219.486" y1="146.052" x2="219.486" y2="146.052" stroke="rgb(255,0,0)" stroke-width="0.705556"/>
		<line x1="219.486" y1="180.685" x2="219.486" y2="180.685" stroke="rgb(255,0,0)" stroke-width="0.705556"/>
		<line x1="686.986" y1="305.402" x2="688.936" y2="303.402" stroke="rgb(255,0,0)" stroke-width="0.705556"/>
		<line x1="688.936" y1="303.402" x2="688.936" y2="274.069" stroke="rgb(255,0,0)" stroke-width="0.705556"/>
		<line x1="688.936" y1="274.069" x2="686.986" y2="272.069" stroke="rgb(255,0,0)" stroke-width="0.705556"/>
		<line x1="686.986" y1="180.035" x2="688.936" y2="178.035" stroke="rgb(255,0,0)" stroke-width="0.705556"/>
		<line x1="688.936" y1="178.035" x2="688.936" y2="148.702" stroke="rgb(255,0,0)" stroke-width="0.705556"/>
		<line x1="688.936" y1="148.702" x2="686.986" y2="146.702" stroke="rgb(255,0,0)" stroke-width="0.705556"/>
		<line x1="686.986" y1="180.035" x2="688.936" y2="178.035" stroke="rgb(255,0,0)" stroke-width="0.705556"/>
		<line x1="688.936" y1="178.035" x2="688.936" y2="148.702" stroke="rgb(255,0,0)" stroke-width="0.705556"/>
		<line x1="688.936" y1="148.702" x2="686.986" y2="146.702" stroke="rgb(255,0,0)" stroke-width="0.705556"/>
		<line x1="686.986" y1="180.035" x2="688.936" y2="178.035" stroke="rgb(255,0,0)" stroke-width="0.705556"/>
		<line x1="688.936" y1="178.035" x2="688.936" y2="148.702" stroke="rgb(255,0,0)" stroke-width="0.705556"/>
		<line x1="688.936" y1="148.702" x2="686.986" y2="146.702" stroke="rgb(255,0,0)" stroke-width="0.705556"/>
		<line x1="686.986" y1="180.035" x2="688.936" y2="178.035" stroke="rgb(255,0,0)" stroke-width="0.705556"/>
		<line x1="688.936" y1="178.035" x2="688.936" y2="148.702" stroke="rgb(255,0,0)" stroke-width="0.705556"/>
		<line x1="688.936" y1="148.702" x2="686.986" y2="146.702" stroke="rgb(255,0,0)" stroke-width="0.705556"/>
		<line x1="686.986" y1="180.035" x2="688.936" y2="178.035" stroke="rgb(255,0,0)" stroke-width="0.705556"/>
		<line x1="688.936" y1="178.035" x2="688.936" y2="148.702" stroke="rgb(255,0,0)" stroke-width="0.705556"/>
		<line x1="688.936" y1="148.702" x2="686.986" y2="146.702" stroke="rgb(255,0,0)" stroke-width="0.705556"/>
		<line x1="686.986" y1="180.035" x2="688.936" y2="178.035" stroke="rgb(255,0,0)" stroke-width="0.705556"/>
		<line x1="688.936" y1="178.035" x2="688.936" y2="148.702" stroke="rgb(255,0,0)" stroke-width="0.705556"/>
		<line x1="688.936" y1="148.702" x2="686.986" y2="146.702" stroke="rgb(255,0,0)" stroke-width="0.705556"/>
		<line x1="686.986" y1="180.035" x2="688.936" y2="178.035" stroke="rgb(255,0,0)" stroke-width="0.705556"/>
		<line x1="688.936" y1="178.035" x2="688.936" y2="148.702" stroke="rgb(255,0,0)" stroke-width="0.705556"/>
		<line x1="688.936" y1="148.702" x2="686.986" y2="146.702" stroke="rgb(255,0,0)" stroke-width="0.705556"/>
		<line x1="686.986" y1="180.035" x2="688.936" y2="178.035" stroke="rgb(255,0,0)" stroke-width="0.705556"/>
		<line x1="688.936" y1="178.035" x2="688.936" y2="148.702" stroke="rgb(255,0,0)" stroke-width="0.705556"/>
		<line x1="688.936" y1="148.702" x2="686.986" y2="146.702" stroke="rgb(255,0,0)" stroke-width="0.705556"/>
		<line x1="686.986" y1="180.035" x2="688.936" y2="178.035" stroke="rgb(255,0,0)" stroke-width="0.705556"/>
		<line x1="688.936" y1="178.035" x2="688.936" y2="148.702" stroke="rgb(255,0,0)" stroke-width="0.705556"/>
		<line x1="688.936" y1="148.702" x2="686.986" y2="146.702" stroke="rgb(255,0,0)" stroke-width="0.705556"/>
		<line x1="686.986" y1="180.035" x2="688.936" y2="178.035" stroke="rgb(255,0,0)" stroke-width="0.705556"/>
		<line x1="688.936" y1="178.035" x2="688.936" y2="148.702" stroke="rgb(255,0,0)" stroke-width="0.705556"/>
		<line x1="688.936" y1="148.702" x2="686.986" y2="146.702" stroke="rgb(255,0,0)" stroke-width="0.705556"/>
		<line x1="686.986" y1="180.035" x2="688.936" y2="178.035" stroke="rgb(255,0,0)" stroke-width="0.705556"/>
		<line x1="688.936" y1="178.035" x2="688.936" y2="148.702" stroke="rgb(255,0,0)" stroke-width="0.705556"/>
		<line x1="688.936" y1="148.702" x2="686.986" y2="146.702" stroke="rgb(255,0,0)" stroke-width="0.705556"/>
		<line x1="686.986" y1="180.035" x2="688.936" y2="178.035" stroke="rgb(255,0,0)" stroke-width="0.705556"/>
		<line x1="688.936" y1="178.035" x2="688.936" y2="148.702" stroke="rgb(255,0,0)" stroke-width="0.705556"/>
		<line x1="688.936" y1="148.702" x2="686.986" y2="146.702" stroke="rgb(255,0,0)" stroke-width="0.705556"/>
		<line x1="686.986" y1="180.035" x2="688.936" y2="178.035" stroke="rgb(255,0,0)" stroke-width="0.705556"/>
		<line x1="688.936" y1="178.035" x2="688.936" y2="148.702" stroke="rgb(255,0,0)" stroke-width="0.705556"/>
		<line x1="688.936" y1="148.702" x2="686.986" y2="146.702" stroke="rgb(255,0,0)" stroke-width="0.705556"/>
		<line x1="686.986" y1="180.035" x2="688.936" y2="178.035" stroke="rgb(255,0,0)" stroke-width="0.705556"/>
		<line x1="688.936" y1="178.035" x2="688.936" y2="148.702" stroke="rgb(255,0,0)" stroke-width="0.705556"/>
		<line x1="688.936" y1="148.702" x2="686.986" y2="146.702" stroke="rgb(255,0,0)" stroke-width="0.705556"/>
		<line x1="686.986" y1="180.035" x2="688.936" y2="178.035" stroke="rgb(255,0,0)" stroke-width="0.705556"/>
		<line x1="688.936" y1="178.035" x2="688.936" y2="148.702" stroke="rgb(255,0,0)" stroke-width="0.705556"/>
		<line x1="688.936" y1="148.702" x2="686.986" y2="146.702" stroke="rgb(255,0,0)" stroke-width="0.705556"/>
		<line x1="686.986" y1="180.035" x2="688.936" y2="178.035" stroke="rgb(255,0,0)" stroke-width="0.705556"/>
		<line x1="688.936" y1="178.035" x2="688.936" y2="148.702" stroke="rgb(255,0,0)" stroke-width="0.705556"/>
		<line x1="688.936" y1="148.702" x2="686.986" y2="146.702" stroke="rgb(255,0,0)" stroke-width="0.705556"/>
		<line x1="686.986" y1="180.035" x2="688.936" y2="178.035" stroke="rgb(255,0,0)" stroke-width="0.705556"/>
		<line x1="688.936" y1="178.035" x2="688.936" y2="148.702" stroke="rgb(255,0,0)" stroke-width="0.705556"/>
		<line x1="688.936" y1="148.702" x2="686.986" y2="146.702" stroke="rgb(255,0,0)" stroke-width="0.705556"/>
		<line x1="686.986" y1="180.035" x2="688.936" y2="178.035" stroke="rgb(255,0,0)" stroke-width="0.705556"/>
		<line x1="688.936" y1="178.035" x2="688.936" y2="148.702" stroke="rgb(255,0,0)" stroke-width="0.705556"/>
		<line x1="688.936" y1="148.702" x2="686.986" y2="146.702" stroke="rgb(255,0,0)" stroke-width="0.705556"/>
		<line x1="499.486" y1="306.052" x2="499.486" y2="306.052" stroke="rgb(255,0,0)" stroke-width="0.705556"/>
		<line x1="499.486" y1="271.419" x2="499.486" y2="271.419" stroke="rgb(255,0,0)" stroke-width="0.705556"/>
		<line x1="499.486" y1="180.685" x2="502.736" y2="180.685" stroke="rgb(255,0,0)" stroke-width="0.705556"/>
		<line x1="502.736" y1="180.685" x2="502.736" y2="146.052" stroke="rgb(255,0,0)" stroke-width="0.705556"/>
		<line x1="502.736" y1="146.052" x2="499.486" y2="146.052" stroke="rgb(255,0,0)" stroke-width="0.705556"/>
		<line x1="499.486" y1="146.052" x2="499.486" y2="180.685" stroke="rgb(255,0,0)" stroke-width="0.705556"/>
		<line x1="499.486" y1="180.685" x2="499.486" y2="180.685" stroke="rgb(255,0,0)" stroke-width="0.705556"/>
		<line x1="499.486" y1="146.052" x2="499.486" y2="146.052" stroke="rgb(255,0,0)" stroke-width="0.705556"/>
		<line x1="499.486" y1="306.052" x2="499.486" y2="306.052" stroke="rgb(255,0,0)" stroke-width="0.705556"/>
		<line x1="499.486" y1="271.419" x2="499.486" y2="271.419" stroke="rgb(255,0,0)" stroke-width="0.705556"/>
		<line x1="499.486" y1="306.052" x2="499.486" y2="306.052" stroke="rgb(255,0,0)" stroke-width="0.705556"/>
		<line x1="499.486" y1="271.419" x2="499.486" y2="271.419" stroke="rgb(255,0,0)" stroke-width="0.705556"/>
		<line x1="499.486" y1="306.052" x2="499.486" y2="306.052" stroke="rgb(255,0,0)" stroke-width="0.705556"/>
		<line x1="499.486" y1="271.419" x2="499.486" y2="271.419" stroke="rgb(255,0,0)" stroke-width="0.705556"/>
		<line x1="499.486" y1="306.052" x2="499.486" y2="306.052" stroke="rgb(255,0,0)" stroke-width="0.705556"/>
		<line x1="499.486" y1="271.419" x2="499.486" y2="271.419" stroke="rgb(255,0,0)" stroke-width="0.705556"/>
		<line x1="499.486" y1="306.052" x2="499.486" y2="306.052" stroke="rgb(255,0,0)" stroke-width="0.705556"/>
		<line x1="499.486" y1="271.419" x2="499.486" y2="271.419" stroke="rgb(255,0,0)" stroke-width="0.705556"/>
		<line x1="499.486" y1="306.052" x2="499.486" y2="306.052" stroke="rgb(255,0,0)" stroke-width="0.705556"/>
		<line x1="499.486" y1="271.419" x2="499.486" y2="271.419" stroke="rgb(255,0,0)" stroke-width="0.705556"/>
		<line x1="499.486" y1="306.052" x2="499.486" y2="306.052" stroke="rgb(255,0,0)" stroke-width="0.705556"/>
		<line x1="499.486" y1="271.419" x2="499.486" y2="271.419" stroke="rgb(255,0,0)" stroke-width="0.705556"/>
		<line x1="499.486" y1="306.052" x2="499.486" y2="306.052" stroke="rgb(255,0,0)" stroke-width="0.705556"/>
		<line x1="499.486" y1="271.419" x2="499.486" y2="271.419" stroke="rgb(255,0,0)" stroke-width="0.705556"/>
		<line x1="499.486" y1="306.052" x2="499.486" y2="306.052" stroke="rgb(255,0,0)" stroke-width="0.705556"/>
		<line x1="499.486" y1="271.419" x2="499.486" y2="271.419" stroke="rgb(255,0,0)" stroke-width="0.705556"/>
		<line x1="499.486" y1="306.052" x2="499.486" y2="306.052" stroke="rgb(255,0,0)" stroke-width="0.705556"/>
		<line x1="499.486" y1="271.419" x2="499.486" y2="271.419" stroke="rgb(255,0,0)" stroke-width="0.705556"/>
		<line x1="499.486" y1="306.052" x2="499.486" y2="306.052" stroke="rgb(255,0,0)" stroke-width="0.705556"/>
		<line x1="499.486" y1="271.419" x2="499.486" y2="271.419" stroke="rgb(255,0,0)" stroke-width="0.705556"/>
		<line x1="499.486" y1="306.052" x2="499.486" y2="306.052" stroke="rgb(255,0,0)" stroke-width="0.705556"/>
		<line x1="499.486" y1="271.419" x2="499.486" y2="271.419" stroke="rgb(255,0,0)" stroke-width="0.705556"/>
		<line x1="499.486" y1="306.052" x2="499.486" y2="306.052" stroke="rgb(255,0,0)" stroke-width="0.705556"/>
		<line x1="499.486" y1="271.419" x2="499.486" y2="271.419" stroke="rgb(255,0,0)" stroke-width="0.705556"/>
		<line x1="499.486" y1="306.052" x2="499.486" y2="306.052" stroke="rgb(255,0,0)" stroke-width="0.705556"/>
		<line x1="499.486" y1="271.419" x2="499.486" y2="271.419" stroke="rgb(255,0,0)" stroke-width="0.705556"/>
		<line x1="499.486" y1="306.052" x2="499.486" y2="306.052" stroke="rgb(255,0,0)" stroke-width="0.705556"/>
		<line x1="499.486" y1="271.419" x2="499.486" y2="271.419" stroke="rgb(255,0,0)" stroke-width="0.705556"/>
		<line x1="499.486" y1="306.052" x2="499.486" y2="306.052" stroke="rgb(255,0,0)" stroke-width="0.705556"/>
		<line x1="499.486" y1="271.419" x2="499.486" y2="271.419" stroke="rgb(255,0,0)" stroke-width="0.705556"/>
		<line x1="499.486" y1="306.052" x2="502.736" y2="306.052" stroke="rgb(255,0,0)" stroke-width="0.705556"/>
		<line x1="502.736" y1="306.052" x2="502.736" y2="271.419" stroke="rgb(255,0,0)" stroke-width="0.705556"/>
		<line x1="502.736" y1="271.419" x2="499.486" y2="271.419" stroke="rgb(255,0,0)" stroke-width="0.705556"/>
		<line x1="499.486" y1="271.419" x2="499.486" y2="306.052" stroke="rgb(255,0,0)" stroke-width="0.705556"/>
		<line x1="499.486" y1="306.052" x2="499.486" y2="306.052" stroke="rgb(255,0,0)" stroke-width="0.705556"/>
		<line x1="499.486" y1="271.419" x2="499.486" y2="271.419" stroke="rgb(255,0,0)" stroke-width="0.705556"/>
	</g>
</svg>