<svg version = "1.1" xmlns = "http://www.w3.org/2000/svg" xmlns:xlink="http://www.w3.org/1999/xlink" width="485.906" height="403.306" viewbox = "0 0 485.906 403.306">
	<g transform="translate(-77.4747,459.505) scale(1,-1) ">
		<line x1="179.777" y1="459.152" x2="461.077" y2="459.152" stroke="rgb(255,0,0)" stroke-width="0.705556"/>
		<line x1="462.377" y1="357.002" x2="563.027" y2="357.002" stroke="rgb(255,0,0)" stroke-width="0.705556"/>
		<line x1="563.027" y1="357.002" x2="563.027" y2="158.702" stroke="rgb(255,0,0)" stroke-width="0.705556"/>
		<line x1="563.027" y1="158.702" x2="462.377" y2="158.702" stroke="rgb(255,0,0)" stroke-width="0.705556"/>
		<line x1="461.077" y1="56.5518" x2="179.777" y2="56.5518" stroke="rgb(255,0,0)" stroke-width="0.705556"/>
		<line x1="178.477" y1="357.002" x2="77.8275" y2="357.002" stroke="rgb(255,0,0)" stroke-width="0.705556"/>
		<line x1="77.8275" y1="357.002" x2="77.8275" y2="158.702" stroke="rgb(255,0,0)" stroke-width="0.705556"/>
		<line x1="77.8275" y1="158.702" x2="178.477" y2="158.702" stroke="rgb(255,0,0)" stroke-width="0.705556"/>
		<line x1="461.077" y1="358.502" x2="179.777" y2="358.502" stroke="rgb(255,255,0)" stroke-width="0.705556"/>
		<line x1="178.477" y1="357.002" x2="178.477" y2="158.702" stroke="rgb(255,255,0)" stroke-width="0.705556"/>
		<line x1="179.777" y1="157.202" x2="461.077" y2="157.202" stroke="rgb(255,255,0)" stroke-width="0.705556"/>
		<line x1="462.377" y1="158.702" x2="462.377" y2="357.002" stroke="rgb(255,255,0)" stroke-width="0.705556"/>
		<line x1="178.477" y1="357.002" x2="179.777" y2="357.002" stroke="rgb(255,0,0)" stroke-width="0.705556"/>
		<line x1="179.777" y1="357.002" x2="179.777" y2="358.502" stroke="rgb(255,0,0)" stroke-width="0.705556"/>
		<line x1="461.077" y1="358.502" x2="461.077" y2="357.002" stroke="rgb(255,0,0)" stroke-width="0.705556"/>
		<line x1="461.077" y1="357.002" x2="462.377" y2="357.002" stroke="rgb(255,0,0)" stroke-width="0.705556"/>
		<line x1="461.077" y1="157.202" x2="461.077" y2="158.702" stroke="rgb(255,0,0)" stroke-width="0.705556"/>
		<line x1="461.077" y1="158.702" x2="462.377" y2="158.702" stroke="rgb(255,0,0)" stroke-width="0.705556"/>
		<line x1="178.477" y1="158.702" x2="179.777" y2="158.702" stroke="rgb(255,0,0)" stroke-width="0.705556"/>
		<line x1="179.777" y1="158.702" x2="179.777" y2="157.202" stroke="rgb(255,0,0)" stroke-width="0.705556"/>
		<line x1="179.777" y1="358.502" x2="179.777" y2="360.002" stroke="rgb(255,0,0)" stroke-width="0.705556"/>
		<line x1="179.777" y1="360.002" x2="81.1275" y2="360.002" stroke="rgb(255,0,0)" stroke-width="0.705556"/>
		<line x1="81.1275" y1="360.002" x2="81.1275" y2="459.152" stroke="rgb(255,0,0)" stroke-width="0.705556"/>
		<line x1="81.1275" y1="459.152" x2="179.777" y2="459.152" stroke="rgb(255,0,0)" stroke-width="0.705556"/>
		<line x1="179.777" y1="459.152" x2="179.777" y2="459.152" stroke="rgb(255,0,0)" stroke-width="0.705556"/>
		<line x1="179.777" y1="360.002" x2="179.777" y2="459.152" stroke="rgb(255,255,0)" stroke-width="0.705556"/>
		<line x1="461.077" y1="358.502" x2="461.077" y2="360.002" stroke="rgb(255,0,0)" stroke-width="0.705556"/>
		<line x1="461.077" y1="360.002" x2="559.727" y2="360.002" stroke="rgb(255,0,0)" stroke-width="0.705556"/>
		<line x1="559.727" y1="360.002" x2="559.727" y2="459.152" stroke="rgb(255,0,0)" stroke-width="0.705556"/>
		<line x1="559.727" y1="459.152" x2="461.077" y2="459.152" stroke="rgb(255,0,0)" stroke-width="0.705556"/>
		<line x1="461.077" y1="459.152" x2="461.077" y2="459.152" stroke="rgb(255,0,0)" stroke-width="0.705556"/>
		<line x1="461.077" y1="360.002" x2="461.077" y2="459.152" stroke="rgb(255,255,0)" stroke-width="0.705556"/>
		<line x1="461.077" y1="157.202" x2="461.077" y2="155.702" stroke="rgb(255,0,0)" stroke-width="0.705556"/>
		<line x1="461.077" y1="155.702" x2="559.727" y2="155.702" stroke="rgb(255,0,0)" stroke-width="0.705556"/>
		<line x1="559.727" y1="155.702" x2="559.727" y2="56.5518" stroke="rgb(255,0,0)" stroke-width="0.705556"/>
		<line x1="559.727" y1="56.5518" x2="461.077" y2="56.5518" stroke="rgb(255,0,0)" stroke-width="0.705556"/>
		<line x1="461.077" y1="56.5518" x2="461.077" y2="56.5518" stroke="rgb(255,0,0)" stroke-width="0.705556"/>
		<line x1="461.077" y1="155.702" x2="461.077" y2="56.5518" stroke="rgb(255,255,0)" stroke-width="0.705556"/>
		<line x1="179.777" y1="157.202" x2="179.777" y2="155.702" stroke="rgb(255,0,0)" stroke-width="0.705556"/>
		<line x1="179.777" y1="155.702" x2="81.1275" y2="155.702" stroke="rgb(255,0,0)" stroke-width="0.705556"/>
		<line x1="81.1275" y1="155.702" x2="81.1275" y2="56.5518" stroke="rgb(255,0,0)" stroke-width="0.705556"/>
		<line x1="81.1275" y1="56.5518" x2="179.777" y2="56.5518" stroke="rgb(255,0,0)" stroke-width="0.705556"/>
		<line x1="179.777" y1="56.5518" x2="179.777" y2="56.5518" stroke="rgb(255,0,0)" stroke-width="0.705556"/>
		<line x1="179.777" y1="155.702" x2="179.777" y2="56.5518" stroke="rgb(255,255,0)" stroke-width="0.705556"/>
		<line x1="179.777" y1="358.502" x2="280.427" y2="459.152" stroke="rgb(255,255,0)" stroke-width="0.705556"/>
		<line x1="461.077" y1="358.502" x2="360.427" y2="459.152" stroke="rgb(255,255,0)" stroke-width="0.705556"/>
		<line x1="461.077" y1="157.202" x2="360.427" y2="56.5518" stroke="rgb(255,255,0)" stroke-width="0.705556"/>
		<line x1="179.777" y1="157.202" x2="280.427" y2="56.5518" stroke="rgb(255,255,0)" stroke-width="0.705556"/>
		<line x1="326.8" y1="196.428" x2="299.185" y2="196.428" stroke="rgb(64,128,128)" stroke-width="0"/>
		<line x1="308.39" y1="204.912" x2="299.185" y2="204.912" stroke="rgb(64,128,128)" stroke-width="0"/>
		<line x1="317.595" y1="200.67" x2="299.185" y2="200.67" stroke="rgb(64,128,128)" stroke-width="0"/>
		<line x1="336.005" y1="192.186" x2="299.185" y2="192.186" stroke="rgb(64,128,128)" stroke-width="0"/>
		<line x1="345.21" y1="187.944" x2="299.185" y2="187.944" stroke="rgb(64,128,128)" stroke-width="0"/>
		<line x1="354.415" y1="183.702" x2="299.185" y2="183.702" stroke="rgb(64,128,128)" stroke-width="0"/>
		<line x1="299.185" y1="209.154" x2="299.185" y2="183.702" stroke="rgb(64,128,128)" stroke-width="0"/>
		<line x1="354.415" y1="183.702" x2="326.097" y2="211.976" stroke="rgb(64,128,128)" stroke-width="0"/>
		<path d="M326.097,211.976 a26.6045 26.6045 0 0 0 -26.9118,-2.82257" fill="none" stroke="rgb(64,128,128)" stroke-width="0"/>
		<line x1="299.185" y1="209.154" x2="354.415" y2="183.702" stroke="rgb(64,128,128)" stroke-width="0"/>
	</g>
</svg>