<svg version = "1.1" xmlns = "http://www.w3.org/2000/svg" xmlns:xlink="http://www.w3.org/1999/xlink" width="483.306" height="405.906" viewbox = "0 0 483.306 405.906">
	<g transform="translate(-56.4887,448.25) scale(1,-1) ">
		<line x1="158.992" y1="347.247" x2="158.992" y2="447.897" stroke="rgb(255,0,0)" stroke-width="0.705556"/>
		<line x1="158.992" y1="447.897" x2="437.292" y2="447.897" stroke="rgb(255,0,0)" stroke-width="0.705556"/>
		<line x1="437.292" y1="447.897" x2="437.292" y2="347.247" stroke="rgb(255,0,0)" stroke-width="0.705556"/>
		<line x1="158.992" y1="347.247" x2="437.292" y2="347.247" stroke="rgb(255,255,0)" stroke-width="0.705556"/>
		<line x1="437.292" y1="143.347" x2="437.292" y2="42.6969" stroke="rgb(255,0,0)" stroke-width="0.705556"/>
		<line x1="437.292" y1="42.6969" x2="158.992" y2="42.6969" stroke="rgb(255,0,0)" stroke-width="0.705556"/>
		<line x1="158.992" y1="42.6969" x2="158.992" y2="143.347" stroke="rgb(255,0,0)" stroke-width="0.705556"/>
		<line x1="437.292" y1="143.347" x2="158.992" y2="143.347" stroke="rgb(255,255,0)" stroke-width="0.705556"/>
		<line x1="539.442" y1="347.247" x2="539.442" y2="143.347" stroke="rgb(255,0,0)" stroke-width="0.705556"/>
		<line x1="438.792" y1="144.647" x2="438.792" y2="345.947" stroke="rgb(255,255,0)" stroke-width="0.705556"/>
		<line x1="56.8415" y1="143.347" x2="56.8415" y2="347.247" stroke="rgb(255,0,0)" stroke-width="0.705556"/>
		<line x1="157.492" y1="345.947" x2="157.492" y2="144.647" stroke="rgb(255,255,0)" stroke-width="0.705556"/>
		<line x1="437.292" y1="347.247" x2="437.292" y2="345.947" stroke="rgb(255,0,0)" stroke-width="0.705556"/>
		<line x1="437.292" y1="345.947" x2="440.292" y2="345.947" stroke="rgb(255,0,0)" stroke-width="0.705556"/>
		<line x1="440.292" y1="345.947" x2="440.292" y2="447.897" stroke="rgb(255,0,0)" stroke-width="0.705556"/>
		<line x1="440.292" y1="447.897" x2="539.442" y2="447.897" stroke="rgb(255,0,0)" stroke-width="0.705556"/>
		<line x1="539.442" y1="447.897" x2="539.442" y2="345.947" stroke="rgb(255,0,0)" stroke-width="0.705556"/>
		<line x1="539.442" y1="345.947" x2="539.442" y2="345.947" stroke="rgb(255,0,0)" stroke-width="0.705556"/>
		<line x1="440.292" y1="345.947" x2="539.442" y2="345.947" stroke="rgb(255,255,0)" stroke-width="0.705556"/>
		<line x1="539.442" y1="345.947" x2="539.442" y2="347.247" stroke="rgb(255,0,0)" stroke-width="0.705556"/>
		<line x1="158.992" y1="347.247" x2="158.992" y2="345.947" stroke="rgb(255,0,0)" stroke-width="0.705556"/>
		<line x1="158.992" y1="345.947" x2="155.992" y2="345.947" stroke="rgb(255,0,0)" stroke-width="0.705556"/>
		<line x1="155.992" y1="345.947" x2="155.992" y2="447.897" stroke="rgb(255,0,0)" stroke-width="0.705556"/>
		<line x1="155.992" y1="447.897" x2="56.8415" y2="447.897" stroke="rgb(255,0,0)" stroke-width="0.705556"/>
		<line x1="56.8415" y1="447.897" x2="56.8415" y2="345.947" stroke="rgb(255,0,0)" stroke-width="0.705556"/>
		<line x1="56.8415" y1="345.947" x2="56.8415" y2="345.947" stroke="rgb(255,0,0)" stroke-width="0.705556"/>
		<line x1="155.992" y1="345.947" x2="56.8415" y2="345.947" stroke="rgb(255,255,0)" stroke-width="0.705556"/>
		<line x1="56.8415" y1="345.947" x2="56.8415" y2="347.247" stroke="rgb(255,0,0)" stroke-width="0.705556"/>
		<line x1="158.992" y1="143.347" x2="158.992" y2="144.647" stroke="rgb(255,0,0)" stroke-width="0.705556"/>
		<line x1="158.992" y1="144.647" x2="155.992" y2="144.647" stroke="rgb(255,0,0)" stroke-width="0.705556"/>
		<line x1="155.992" y1="144.647" x2="155.992" y2="42.6969" stroke="rgb(255,0,0)" stroke-width="0.705556"/>
		<line x1="155.992" y1="42.6969" x2="56.8415" y2="42.6969" stroke="rgb(255,0,0)" stroke-width="0.705556"/>
		<line x1="56.8415" y1="42.6969" x2="56.8415" y2="144.647" stroke="rgb(255,0,0)" stroke-width="0.705556"/>
		<line x1="56.8415" y1="144.647" x2="56.8415" y2="144.647" stroke="rgb(255,0,0)" stroke-width="0.705556"/>
		<line x1="155.992" y1="144.647" x2="56.8415" y2="144.647" stroke="rgb(255,255,0)" stroke-width="0.705556"/>
		<line x1="56.8415" y1="144.647" x2="56.8415" y2="143.347" stroke="rgb(255,0,0)" stroke-width="0.705556"/>
		<line x1="437.292" y1="143.347" x2="437.292" y2="144.647" stroke="rgb(255,0,0)" stroke-width="0.705556"/>
		<line x1="437.292" y1="144.647" x2="440.292" y2="144.647" stroke="rgb(255,0,0)" stroke-width="0.705556"/>
		<line x1="440.292" y1="144.647" x2="440.292" y2="42.6969" stroke="rgb(255,0,0)" stroke-width="0.705556"/>
		<line x1="440.292" y1="42.6969" x2="539.442" y2="42.6969" stroke="rgb(255,0,0)" stroke-width="0.705556"/>
		<line x1="539.442" y1="42.6969" x2="539.442" y2="144.647" stroke="rgb(255,0,0)" stroke-width="0.705556"/>
		<line x1="539.442" y1="144.647" x2="539.442" y2="144.647" stroke="rgb(255,0,0)" stroke-width="0.705556"/>
		<line x1="440.292" y1="144.647" x2="539.442" y2="144.647" stroke="rgb(255,255,0)" stroke-width="0.705556"/>
		<line x1="539.442" y1="144.647" x2="539.442" y2="143.347" stroke="rgb(255,0,0)" stroke-width="0.705556"/>
		<line x1="437.292" y1="348.747" x2="338.142" y2="447.897" stroke="rgb(255,255,0)" stroke-width="0.705556"/>
		<line x1="158.992" y1="348.747" x2="258.142" y2="447.897" stroke="rgb(255,255,0)" stroke-width="0.705556"/>
		<line x1="158.992" y1="141.847" x2="258.142" y2="42.6969" stroke="rgb(255,255,0)" stroke-width="0.705556"/>
		<line x1="437.292" y1="141.847" x2="338.142" y2="42.6969" stroke="rgb(255,255,0)" stroke-width="0.705556"/>
		<line x1="298.142" y1="205.962" x2="298.142" y2="178.347" stroke="rgb(64,128,128)" stroke-width="0"/>
		<line x1="306.626" y1="187.552" x2="306.626" y2="178.347" stroke="rgb(64,128,128)" stroke-width="0"/>
		<line x1="302.384" y1="196.757" x2="302.384" y2="178.347" stroke="rgb(64,128,128)" stroke-width="0"/>
		<line x1="293.9" y1="215.167" x2="293.9" y2="178.347" stroke="rgb(64,128,128)" stroke-width="0"/>
		<line x1="289.658" y1="224.372" x2="289.658" y2="178.347" stroke="rgb(64,128,128)" stroke-width="0"/>
		<line x1="285.416" y1="233.577" x2="285.416" y2="178.347" stroke="rgb(64,128,128)" stroke-width="0"/>
		<line x1="310.868" y1="178.347" x2="285.416" y2="178.347" stroke="rgb(64,128,128)" stroke-width="0"/>
		<line x1="285.416" y1="233.577" x2="313.69" y2="205.259" stroke="rgb(64,128,128)" stroke-width="0"/>
		<path d="M313.69,205.259 a26.6045 26.6045 0 0 1 -2.82257,-26.9118" fill="none" stroke="rgb(64,128,128)" stroke-width="0"/>
		<line x1="310.868" y1="178.347" x2="285.416" y2="233.577" stroke="rgb(64,128,128)" stroke-width="0"/>
	</g>
</svg>