<svg version = "1.1" xmlns = "http://www.w3.org/2000/svg" xmlns:xlink="http://www.w3.org/1999/xlink" width="691.106" height="400.706" viewbox = "0 0 691.106 400.706">
	<g transform="translate(-23.1241,492.741) scale(1,-1) ">
		<line x1="226.727" y1="492.388" x2="510.627" y2="492.388" stroke="rgb(255,0,0)" stroke-width="0.705556"/>
		<line x1="511.927" y1="391.538" x2="613.227" y2="391.538" stroke="rgb(255,0,0)" stroke-width="0.705556"/>
		<line x1="613.227" y1="193.238" x2="511.927" y2="193.238" stroke="rgb(255,0,0)" stroke-width="0.705556"/>
		<line x1="510.627" y1="92.3879" x2="226.727" y2="92.3879" stroke="rgb(255,0,0)" stroke-width="0.705556"/>
		<line x1="225.427" y1="391.538" x2="124.127" y2="391.538" stroke="rgb(255,0,0)" stroke-width="0.705556"/>
		<line x1="124.127" y1="193.238" x2="225.427" y2="193.238" stroke="rgb(255,0,0)" stroke-width="0.705556"/>
		<line x1="510.627" y1="393.038" x2="226.727" y2="393.038" stroke="rgb(255,255,0)" stroke-width="0.705556"/>
		<line x1="225.427" y1="391.538" x2="225.427" y2="193.238" stroke="rgb(255,255,0)" stroke-width="0.705556"/>
		<line x1="226.727" y1="191.738" x2="510.627" y2="191.738" stroke="rgb(255,255,0)" stroke-width="0.705556"/>
		<line x1="511.927" y1="193.238" x2="511.927" y2="391.538" stroke="rgb(255,255,0)" stroke-width="0.705556"/>
		<line x1="225.427" y1="391.538" x2="226.727" y2="391.538" stroke="rgb(255,0,0)" stroke-width="0.705556"/>
		<line x1="226.727" y1="391.538" x2="226.727" y2="393.038" stroke="rgb(255,0,0)" stroke-width="0.705556"/>
		<line x1="510.627" y1="393.038" x2="510.627" y2="391.538" stroke="rgb(255,0,0)" stroke-width="0.705556"/>
		<line x1="510.627" y1="391.538" x2="511.927" y2="391.538" stroke="rgb(255,0,0)" stroke-width="0.705556"/>
		<line x1="510.627" y1="191.738" x2="510.627" y2="193.238" stroke="rgb(255,0,0)" stroke-width="0.705556"/>
		<line x1="510.627" y1="193.238" x2="511.927" y2="193.238" stroke="rgb(255,0,0)" stroke-width="0.705556"/>
		<line x1="225.427" y1="193.238" x2="226.727" y2="193.238" stroke="rgb(255,0,0)" stroke-width="0.705556"/>
		<line x1="226.727" y1="193.238" x2="226.727" y2="191.738" stroke="rgb(255,0,0)" stroke-width="0.705556"/>
		<line x1="226.727" y1="393.038" x2="226.727" y2="394.538" stroke="rgb(255,0,0)" stroke-width="0.705556"/>
		<line x1="226.727" y1="394.538" x2="128.077" y2="394.538" stroke="rgb(255,0,0)" stroke-width="0.705556"/>
		<line x1="128.077" y1="394.538" x2="128.077" y2="492.388" stroke="rgb(255,0,0)" stroke-width="0.705556"/>
		<line x1="128.077" y1="492.388" x2="226.727" y2="492.388" stroke="rgb(255,0,0)" stroke-width="0.705556"/>
		<line x1="226.727" y1="492.388" x2="226.727" y2="492.388" stroke="rgb(255,0,0)" stroke-width="0.705556"/>
		<line x1="226.727" y1="394.538" x2="226.727" y2="492.388" stroke="rgb(255,255,0)" stroke-width="0.705556"/>
		<line x1="510.627" y1="393.038" x2="510.627" y2="394.538" stroke="rgb(255,0,0)" stroke-width="0.705556"/>
		<line x1="510.627" y1="394.538" x2="609.277" y2="394.538" stroke="rgb(255,0,0)" stroke-width="0.705556"/>
		<line x1="609.277" y1="394.538" x2="609.277" y2="492.388" stroke="rgb(255,0,0)" stroke-width="0.705556"/>
		<line x1="609.277" y1="492.388" x2="510.627" y2="492.388" stroke="rgb(255,0,0)" stroke-width="0.705556"/>
		<line x1="510.627" y1="492.388" x2="510.627" y2="492.388" stroke="rgb(255,0,0)" stroke-width="0.705556"/>
		<line x1="510.627" y1="394.538" x2="510.627" y2="492.388" stroke="rgb(255,255,0)" stroke-width="0.705556"/>
		<line x1="510.627" y1="191.738" x2="510.627" y2="190.238" stroke="rgb(255,0,0)" stroke-width="0.705556"/>
		<line x1="510.627" y1="190.238" x2="609.277" y2="190.238" stroke="rgb(255,0,0)" stroke-width="0.705556"/>
		<line x1="609.277" y1="190.238" x2="609.277" y2="92.3879" stroke="rgb(255,0,0)" stroke-width="0.705556"/>
		<line x1="609.277" y1="92.3879" x2="510.627" y2="92.3879" stroke="rgb(255,0,0)" stroke-width="0.705556"/>
		<line x1="510.627" y1="92.3879" x2="510.627" y2="92.3879" stroke="rgb(255,0,0)" stroke-width="0.705556"/>
		<line x1="510.627" y1="190.238" x2="510.627" y2="92.3879" stroke="rgb(255,255,0)" stroke-width="0.705556"/>
		<line x1="226.727" y1="191.738" x2="226.727" y2="190.238" stroke="rgb(255,0,0)" stroke-width="0.705556"/>
		<line x1="226.727" y1="190.238" x2="128.077" y2="190.238" stroke="rgb(255,0,0)" stroke-width="0.705556"/>
		<line x1="128.077" y1="190.238" x2="128.077" y2="92.3879" stroke="rgb(255,0,0)" stroke-width="0.705556"/>
		<line x1="128.077" y1="92.3879" x2="226.727" y2="92.3879" stroke="rgb(255,0,0)" stroke-width="0.705556"/>
		<line x1="226.727" y1="92.3879" x2="226.727" y2="92.3879" stroke="rgb(255,0,0)" stroke-width="0.705556"/>
		<line x1="226.727" y1="190.238" x2="226.727" y2="92.3879" stroke="rgb(255,255,0)" stroke-width="0.705556"/>
		<line x1="613.227" y1="391.538" x2="713.877" y2="391.538" stroke="rgb(255,0,0)" stroke-width="0.705556"/>
		<line x1="713.877" y1="391.538" x2="713.877" y2="193.238" stroke="rgb(255,0,0)" stroke-width="0.705556"/>
		<line x1="713.877" y1="193.238" x2="613.227" y2="193.238" stroke="rgb(255,0,0)" stroke-width="0.705556"/>
		<line x1="613.227" y1="193.238" x2="613.227" y2="391.538" stroke="rgb(255,255,0)" stroke-width="0.705556"/>
		<line x1="124.127" y1="193.238" x2="23.4769" y2="193.238" stroke="rgb(255,0,0)" stroke-width="0.705556"/>
		<line x1="23.4769" y1="193.238" x2="23.4769" y2="391.538" stroke="rgb(255,0,0)" stroke-width="0.705556"/>
		<line x1="23.4769" y1="391.538" x2="124.127" y2="391.538" stroke="rgb(255,0,0)" stroke-width="0.705556"/>
		<line x1="124.127" y1="391.538" x2="124.127" y2="193.238" stroke="rgb(255,255,0)" stroke-width="0.705556"/>
		<line x1="375.05" y1="230.964" x2="347.435" y2="230.964" stroke="rgb(64,128,128)" stroke-width="0"/>
		<line x1="356.64" y1="239.448" x2="347.435" y2="239.448" stroke="rgb(64,128,128)" stroke-width="0"/>
		<line x1="365.845" y1="235.206" x2="347.435" y2="235.206" stroke="rgb(64,128,128)" stroke-width="0"/>
		<line x1="384.255" y1="226.722" x2="347.435" y2="226.722" stroke="rgb(64,128,128)" stroke-width="0"/>
		<line x1="393.459" y1="222.48" x2="347.435" y2="222.48" stroke="rgb(64,128,128)" stroke-width="0"/>
		<line x1="402.664" y1="218.238" x2="347.435" y2="218.238" stroke="rgb(64,128,128)" stroke-width="0"/>
		<line x1="347.435" y1="243.69" x2="347.435" y2="218.238" stroke="rgb(64,128,128)" stroke-width="0"/>
		<line x1="402.664" y1="218.238" x2="374.347" y2="246.513" stroke="rgb(64,128,128)" stroke-width="0"/>
		<path d="M374.347,246.513 a26.6045 26.6045 0 0 0 -26.9118,-2.82257" fill="none" stroke="rgb(64,128,128)" stroke-width="0"/>
		<line x1="347.435" y1="243.69" x2="402.664" y2="218.238" stroke="rgb(64,128,128)" stroke-width="0"/>
	</g>
</svg>