<svg version = "1.1" xmlns = "http://www.w3.org/2000/svg" xmlns:xlink="http://www.w3.org/1999/xlink" width="475.506" height="595.506" viewbox = "0 0 475.506 595.506">
	<g transform="translate(-59.0887,540.45) scale(1,-1) ">
		<line x1="158.992" y1="342.047" x2="158.992" y2="441.397" stroke="rgb(255,0,0)" stroke-width="0.705556"/>
		<line x1="434.692" y1="441.397" x2="434.692" y2="342.047" stroke="rgb(255,0,0)" stroke-width="0.705556"/>
		<line x1="158.992" y1="342.047" x2="434.692" y2="342.047" stroke="rgb(255,255,0)" stroke-width="0.705556"/>
		<line x1="434.692" y1="143.347" x2="434.692" y2="43.9969" stroke="rgb(255,0,0)" stroke-width="0.705556"/>
		<line x1="158.992" y1="43.9969" x2="158.992" y2="143.347" stroke="rgb(255,0,0)" stroke-width="0.705556"/>
		<line x1="434.692" y1="143.347" x2="158.992" y2="143.347" stroke="rgb(255,255,0)" stroke-width="0.705556"/>
		<line x1="534.242" y1="342.047" x2="534.242" y2="143.347" stroke="rgb(255,0,0)" stroke-width="0.705556"/>
		<line x1="436.192" y1="144.647" x2="436.192" y2="340.747" stroke="rgb(255,255,0)" stroke-width="0.705556"/>
		<line x1="59.4415" y1="143.347" x2="59.4415" y2="342.047" stroke="rgb(255,0,0)" stroke-width="0.705556"/>
		<line x1="157.492" y1="340.747" x2="157.492" y2="144.647" stroke="rgb(255,255,0)" stroke-width="0.705556"/>
		<line x1="434.692" y1="342.047" x2="434.692" y2="340.747" stroke="rgb(255,0,0)" stroke-width="0.705556"/>
		<line x1="434.692" y1="340.747" x2="437.692" y2="340.747" stroke="rgb(255,0,0)" stroke-width="0.705556"/>
		<line x1="437.692" y1="340.747" x2="437.692" y2="441.397" stroke="rgb(255,0,0)" stroke-width="0.705556"/>
		<line x1="437.692" y1="441.397" x2="534.242" y2="441.397" stroke="rgb(255,0,0)" stroke-width="0.705556"/>
		<line x1="534.242" y1="441.397" x2="534.242" y2="340.747" stroke="rgb(255,0,0)" stroke-width="0.705556"/>
		<line x1="534.242" y1="340.747" x2="534.242" y2="340.747" stroke="rgb(255,0,0)" stroke-width="0.705556"/>
		<line x1="437.692" y1="340.747" x2="534.242" y2="340.747" stroke="rgb(255,255,0)" stroke-width="0.705556"/>
		<line x1="534.242" y1="340.747" x2="534.242" y2="342.047" stroke="rgb(255,0,0)" stroke-width="0.705556"/>
		<line x1="158.992" y1="342.047" x2="158.992" y2="340.747" stroke="rgb(255,0,0)" stroke-width="0.705556"/>
		<line x1="158.992" y1="340.747" x2="155.992" y2="340.747" stroke="rgb(255,0,0)" stroke-width="0.705556"/>
		<line x1="155.992" y1="340.747" x2="155.992" y2="441.397" stroke="rgb(255,0,0)" stroke-width="0.705556"/>
		<line x1="155.992" y1="441.397" x2="59.4415" y2="441.397" stroke="rgb(255,0,0)" stroke-width="0.705556"/>
		<line x1="59.4415" y1="441.397" x2="59.4415" y2="340.747" stroke="rgb(255,0,0)" stroke-width="0.705556"/>
		<line x1="59.4415" y1="340.747" x2="59.4415" y2="340.747" stroke="rgb(255,0,0)" stroke-width="0.705556"/>
		<line x1="155.992" y1="340.747" x2="59.4415" y2="340.747" stroke="rgb(255,255,0)" stroke-width="0.705556"/>
		<line x1="59.4415" y1="340.747" x2="59.4415" y2="342.047" stroke="rgb(255,0,0)" stroke-width="0.705556"/>
		<line x1="158.992" y1="143.347" x2="158.992" y2="144.647" stroke="rgb(255,0,0)" stroke-width="0.705556"/>
		<line x1="158.992" y1="144.647" x2="155.992" y2="144.647" stroke="rgb(255,0,0)" stroke-width="0.705556"/>
		<line x1="155.992" y1="144.647" x2="155.992" y2="43.9969" stroke="rgb(255,0,0)" stroke-width="0.705556"/>
		<line x1="155.992" y1="43.9969" x2="59.4415" y2="43.9969" stroke="rgb(255,0,0)" stroke-width="0.705556"/>
		<line x1="59.4415" y1="43.9969" x2="59.4415" y2="144.647" stroke="rgb(255,0,0)" stroke-width="0.705556"/>
		<line x1="59.4415" y1="144.647" x2="59.4415" y2="144.647" stroke="rgb(255,0,0)" stroke-width="0.705556"/>
		<line x1="155.992" y1="144.647" x2="59.4415" y2="144.647" stroke="rgb(255,255,0)" stroke-width="0.705556"/>
		<line x1="59.4415" y1="144.647" x2="59.4415" y2="143.347" stroke="rgb(255,0,0)" stroke-width="0.705556"/>
		<line x1="434.692" y1="143.347" x2="434.692" y2="144.647" stroke="rgb(255,0,0)" stroke-width="0.705556"/>
		<line x1="434.692" y1="144.647" x2="437.692" y2="144.647" stroke="rgb(255,0,0)" stroke-width="0.705556"/>
		<line x1="437.692" y1="144.647" x2="437.692" y2="43.9969" stroke="rgb(255,0,0)" stroke-width="0.705556"/>
		<line x1="437.692" y1="43.9969" x2="534.242" y2="43.9969" stroke="rgb(255,0,0)" stroke-width="0.705556"/>
		<line x1="534.242" y1="43.9969" x2="534.242" y2="144.647" stroke="rgb(255,0,0)" stroke-width="0.705556"/>
		<line x1="534.242" y1="144.647" x2="534.242" y2="144.647" stroke="rgb(255,0,0)" stroke-width="0.705556"/>
		<line x1="437.692" y1="144.647" x2="534.242" y2="144.647" stroke="rgb(255,255,0)" stroke-width="0.705556"/>
		<line x1="534.242" y1="144.647" x2="534.242" y2="143.347" stroke="rgb(255,0,0)" stroke-width="0.705556"/>
		<line x1="158.992" y1="441.397" x2="158.992" y2="540.097" stroke="rgb(255,0,0)" stroke-width="0.705556"/>
		<line x1="158.992" y1="540.097" x2="434.692" y2="540.097" stroke="rgb(255,0,0)" stroke-width="0.705556"/>
		<line x1="434.692" y1="540.097" x2="434.692" y2="441.397" stroke="rgb(255,0,0)" stroke-width="0.705556"/>
		<line x1="434.692" y1="441.397" x2="158.992" y2="441.397" stroke="rgb(255,255,0)" stroke-width="0.705556"/>
		<line x1="434.692" y1="43.9969" x2="434.692" y2="-54.7031" stroke="rgb(255,0,0)" stroke-width="0.705556"/>
		<line x1="434.692" y1="-54.7031" x2="158.992" y2="-54.7031" stroke="rgb(255,0,0)" stroke-width="0.705556"/>
		<line x1="158.992" y1="-54.7031" x2="158.992" y2="43.9969" stroke="rgb(255,0,0)" stroke-width="0.705556"/>
		<line x1="158.992" y1="43.9969" x2="434.692" y2="43.9969" stroke="rgb(255,255,0)" stroke-width="0.705556"/>
		<line x1="296.842" y1="205.962" x2="296.842" y2="178.347" stroke="rgb(64,128,128)" stroke-width="0"/>
		<line x1="305.326" y1="187.552" x2="305.326" y2="178.347" stroke="rgb(64,128,128)" stroke-width="0"/>
		<line x1="301.084" y1="196.757" x2="301.084" y2="178.347" stroke="rgb(64,128,128)" stroke-width="0"/>
		<line x1="292.6" y1="215.167" x2="292.6" y2="178.347" stroke="rgb(64,128,128)" stroke-width="0"/>
		<line x1="288.358" y1="224.372" x2="288.358" y2="178.347" stroke="rgb(64,128,128)" stroke-width="0"/>
		<line x1="284.116" y1="233.577" x2="284.116" y2="178.347" stroke="rgb(64,128,128)" stroke-width="0"/>
		<line x1="309.568" y1="178.347" x2="284.116" y2="178.347" stroke="rgb(64,128,128)" stroke-width="0"/>
		<line x1="284.116" y1="233.577" x2="312.39" y2="205.259" stroke="rgb(64,128,128)" stroke-width="0"/>
		<path d="M312.39,205.259 a26.6045 26.6045 0 0 1 -2.82257,-26.9118" fill="none" stroke="rgb(64,128,128)" stroke-width="0"/>
		<line x1="309.568" y1="178.347" x2="284.116" y2="233.577" stroke="rgb(64,128,128)" stroke-width="0"/>
	</g>
</svg>