<svg version = "1.1" xmlns = "http://www.w3.org/2000/svg" xmlns:xlink="http://www.w3.org/1999/xlink" width="483.306" height="403.306" viewbox = "0 0 483.306 403.306">
	<g transform="translate(-4.75495,408.359) scale(1,-1) ">
		<line x1="105.758" y1="307.356" x2="105.758" y2="408.006" stroke="rgb(255,0,0)" stroke-width="0.705556"/>
		<line x1="105.758" y1="408.006" x2="387.058" y2="408.006" stroke="rgb(255,0,0)" stroke-width="0.705556"/>
		<line x1="387.058" y1="408.006" x2="387.058" y2="307.356" stroke="rgb(255,0,0)" stroke-width="0.705556"/>
		<line x1="387.058" y1="307.356" x2="105.758" y2="307.356" stroke="rgb(255,255,0)" stroke-width="0.705556"/>
		<line x1="387.058" y1="106.056" x2="387.058" y2="5.40636" stroke="rgb(255,0,0)" stroke-width="0.705556"/>
		<line x1="387.058" y1="5.40636" x2="105.758" y2="5.40636" stroke="rgb(255,0,0)" stroke-width="0.705556"/>
		<line x1="105.758" y1="5.40636" x2="105.758" y2="106.056" stroke="rgb(255,0,0)" stroke-width="0.705556"/>
		<line x1="105.758" y1="106.056" x2="387.058" y2="106.056" stroke="rgb(255,255,0)" stroke-width="0.705556"/>
		<line x1="487.708" y1="307.356" x2="487.708" y2="106.056" stroke="rgb(255,0,0)" stroke-width="0.705556"/>
		<line x1="387.058" y1="106.056" x2="387.058" y2="307.356" stroke="rgb(255,255,0)" stroke-width="0.705556"/>
		<line x1="5.10773" y1="106.056" x2="5.10773" y2="307.356" stroke="rgb(255,0,0)" stroke-width="0.705556"/>
		<line x1="105.758" y1="307.356" x2="105.758" y2="106.056" stroke="rgb(255,255,0)" stroke-width="0.705556"/>
		<line x1="5.10773" y1="338.851" x2="35.3027" y2="364.188" stroke="rgb(255,0,0)" stroke-width="0.705556"/>
		<line x1="5.10773" y1="338.851" x2="5.10773" y2="307.356" stroke="rgb(255,0,0)" stroke-width="0.705556"/>
		<line x1="5.10773" y1="308.656" x2="104.458" y2="308.656" stroke="rgb(255,255,0)" stroke-width="0.705556"/>
		<line x1="74.2627" y1="338.851" x2="105.758" y2="307.356" stroke="rgb(255,0,0)" stroke-width="0.705556"/>
		<path d="M74.2627,338.851 a46.4739 46.4739 0 0 1 -3.35891,55.2095" fill="none" stroke="rgb(255,0,0)" stroke-width="0.705556"/>
		<path d="M70.9038,394.061 a23.237 23.237 0 1 1 -35.6011,-29.8729" fill="none" stroke="rgb(255,0,0)" stroke-width="0.705556"/>
		<line x1="487.708" y1="338.851" x2="457.513" y2="364.188" stroke="rgb(255,0,0)" stroke-width="0.705556"/>
		<line x1="487.708" y1="338.851" x2="487.708" y2="307.356" stroke="rgb(255,0,0)" stroke-width="0.705556"/>
		<line x1="487.708" y1="308.656" x2="388.358" y2="308.656" stroke="rgb(255,255,0)" stroke-width="0.705556"/>
		<line x1="418.553" y1="338.851" x2="387.058" y2="307.356" stroke="rgb(255,0,0)" stroke-width="0.705556"/>
		<path d="M418.553,338.851 a46.4739 46.4739 0 0 0 3.35891,55.2095" fill="none" stroke="rgb(255,0,0)" stroke-width="0.705556"/>
		<path d="M421.912,394.061 a23.237 23.237 0 0 0 35.6011,-29.8729" fill="none" stroke="rgb(255,0,0)" stroke-width="0.705556"/>
		<line x1="135.303" y1="337.501" x2="160.639" y2="378.811" stroke="rgb(255,0,0)" stroke-width="0.705556"/>
		<line x1="160.639" y1="378.811" x2="195.495" y2="378.811" stroke="rgb(255,0,0)" stroke-width="0.705556"/>
		<line x1="357.513" y1="337.501" x2="332.176" y2="378.811" stroke="rgb(255,0,0)" stroke-width="0.705556"/>
		<line x1="332.176" y1="378.811" x2="297.321" y2="378.811" stroke="rgb(255,0,0)" stroke-width="0.705556"/>
		<line x1="5.10773" y1="74.5614" x2="35.3027" y2="49.2247" stroke="rgb(255,0,0)" stroke-width="0.705556"/>
		<line x1="5.10773" y1="74.5614" x2="5.10773" y2="106.056" stroke="rgb(255,0,0)" stroke-width="0.705556"/>
		<line x1="5.10773" y1="104.756" x2="104.458" y2="104.756" stroke="rgb(255,255,0)" stroke-width="0.705556"/>
		<line x1="74.2627" y1="74.5614" x2="105.758" y2="106.056" stroke="rgb(255,0,0)" stroke-width="0.705556"/>
		<path d="M74.2627,74.5614 a46.4739 46.4739 0 0 0 -3.35891,-55.2095" fill="none" stroke="rgb(255,0,0)" stroke-width="0.705556"/>
		<path d="M70.9038,19.3519 a23.237 23.237 0 0 0 -35.6011,29.8729" fill="none" stroke="rgb(255,0,0)" stroke-width="0.705556"/>
		<line x1="487.708" y1="74.5614" x2="457.513" y2="49.2247" stroke="rgb(255,0,0)" stroke-width="0.705556"/>
		<line x1="487.708" y1="74.5614" x2="487.708" y2="106.056" stroke="rgb(255,0,0)" stroke-width="0.705556"/>
		<line x1="487.708" y1="104.756" x2="388.358" y2="104.756" stroke="rgb(255,255,0)" stroke-width="0.705556"/>
		<line x1="418.553" y1="74.5614" x2="387.058" y2="106.056" stroke="rgb(255,0,0)" stroke-width="0.705556"/>
		<path d="M418.553,74.5614 a46.4739 46.4739 0 0 1 3.35891,-55.2095" fill="none" stroke="rgb(255,0,0)" stroke-width="0.705556"/>
		<path d="M421.912,19.3519 a23.237 23.237 0 0 1 35.6011,29.8729" fill="none" stroke="rgb(255,0,0)" stroke-width="0.705556"/>
		<line x1="357.513" y1="75.9114" x2="332.176" y2="34.6014" stroke="rgb(255,0,0)" stroke-width="0.705556"/>
		<line x1="332.176" y1="34.6014" x2="297.321" y2="34.6014" stroke="rgb(255,0,0)" stroke-width="0.705556"/>
		<line x1="135.303" y1="75.9114" x2="160.639" y2="34.6014" stroke="rgb(255,0,0)" stroke-width="0.705556"/>
		<line x1="160.639" y1="34.6014" x2="195.495" y2="34.6014" stroke="rgb(255,0,0)" stroke-width="0.705556"/>
		<line x1="246.408" y1="158.671" x2="246.408" y2="131.056" stroke="rgb(64,128,128)" stroke-width="0"/>
		<line x1="254.892" y1="140.261" x2="254.892" y2="131.056" stroke="rgb(64,128,128)" stroke-width="0"/>
		<line x1="250.65" y1="149.466" x2="250.65" y2="131.056" stroke="rgb(64,128,128)" stroke-width="0"/>
		<line x1="242.166" y1="167.876" x2="242.166" y2="131.056" stroke="rgb(64,128,128)" stroke-width="0"/>
		<line x1="237.924" y1="177.081" x2="237.924" y2="131.056" stroke="rgb(64,128,128)" stroke-width="0"/>
		<line x1="233.682" y1="186.286" x2="233.682" y2="131.056" stroke="rgb(64,128,128)" stroke-width="0"/>
		<line x1="259.134" y1="131.056" x2="233.682" y2="131.056" stroke="rgb(64,128,128)" stroke-width="0"/>
		<line x1="233.682" y1="186.286" x2="261.956" y2="157.968" stroke="rgb(64,128,128)" stroke-width="0"/>
		<path d="M261.956,157.968 a26.6045 26.6045 0 0 1 -2.82257,-26.9118" fill="none" stroke="rgb(64,128,128)" stroke-width="0"/>
		<line x1="259.134" y1="131.056" x2="233.682" y2="186.286" stroke="rgb(64,128,128)" stroke-width="0"/>
	</g>
</svg>