<svg version = "1.1" xmlns = "http://www.w3.org/2000/svg" xmlns:xlink="http://www.w3.org/1999/xlink" width="383.306" height="303.306" viewbox = "0 0 383.306 303.306">
	<g transform="translate(-22.7818,318.101) scale(1,-1) ">
		<line x1="73.7846" y1="101.154" x2="109.14" y2="65.7986" stroke="rgb(255,0,0)" stroke-width="0.705556"/>
		<line x1="319.729" y1="65.7986" x2="355.085" y2="101.154" stroke="rgb(255,0,0)" stroke-width="0.705556"/>
		<line x1="73.7846" y1="231.743" x2="109.14" y2="267.099" stroke="rgb(255,0,0)" stroke-width="0.705556"/>
		<line x1="319.729" y1="267.099" x2="355.085" y2="231.743" stroke="rgb(255,0,0)" stroke-width="0.705556"/>
		<line x1="405.735" y1="231.743" x2="405.735" y2="101.154" stroke="rgb(255,0,0)" stroke-width="0.705556"/>
		<line x1="355.085" y1="101.154" x2="355.085" y2="231.743" stroke="rgb(255,255,0)" stroke-width="0.705556"/>
		<line x1="23.1346" y1="101.154" x2="23.1346" y2="231.743" stroke="rgb(255,0,0)" stroke-width="0.705556"/>
		<line x1="73.7846" y1="231.743" x2="73.7846" y2="101.154" stroke="rgb(255,255,0)" stroke-width="0.705556"/>
		<line x1="109.14" y1="317.749" x2="319.729" y2="317.749" stroke="rgb(255,0,0)" stroke-width="0.705556"/>
		<line x1="319.729" y1="267.099" x2="109.14" y2="267.099" stroke="rgb(255,255,0)" stroke-width="0.705556"/>
		<line x1="319.729" y1="15.1486" x2="109.14" y2="15.1486" stroke="rgb(255,0,0)" stroke-width="0.705556"/>
		<line x1="109.14" y1="65.7986" x2="319.729" y2="65.7986" stroke="rgb(255,255,0)" stroke-width="0.705556"/>
		<line x1="355.085" y1="231.743" x2="355.735" y2="234.743" stroke="rgb(255,0,0)" stroke-width="0.705556"/>
		<line x1="355.735" y1="234.743" x2="355.735" y2="280.443" stroke="rgb(255,0,0)" stroke-width="0.705556"/>
		<line x1="405.735" y1="280.443" x2="405.735" y2="236.743" stroke="rgb(255,0,0)" stroke-width="0.705556"/>
		<line x1="405.735" y1="236.743" x2="405.735" y2="231.743" stroke="rgb(255,0,0)" stroke-width="0.705556"/>
		<line x1="355.085" y1="231.743" x2="405.735" y2="231.743" stroke="rgb(255,255,0)" stroke-width="0.705556"/>
		<line x1="405.735" y1="280.443" x2="355.735" y2="280.443" stroke="rgb(255,0,0)" stroke-width="0.705556"/>
		<line x1="355.085" y1="101.154" x2="355.735" y2="98.1539" stroke="rgb(255,0,0)" stroke-width="0.705556"/>
		<line x1="355.735" y1="98.1539" x2="355.735" y2="52.4539" stroke="rgb(255,0,0)" stroke-width="0.705556"/>
		<line x1="405.735" y1="52.4539" x2="405.735" y2="96.1539" stroke="rgb(255,0,0)" stroke-width="0.705556"/>
		<line x1="405.735" y1="96.1539" x2="405.735" y2="101.154" stroke="rgb(255,0,0)" stroke-width="0.705556"/>
		<line x1="355.085" y1="101.154" x2="405.735" y2="101.154" stroke="rgb(255,255,0)" stroke-width="0.705556"/>
		<line x1="405.735" y1="52.4539" x2="355.735" y2="52.4539" stroke="rgb(255,0,0)" stroke-width="0.705556"/>
		<line x1="73.7846" y1="101.154" x2="73.1346" y2="98.1539" stroke="rgb(255,0,0)" stroke-width="0.705556"/>
		<line x1="73.1346" y1="98.1539" x2="73.1346" y2="52.4539" stroke="rgb(255,0,0)" stroke-width="0.705556"/>
		<line x1="23.1346" y1="52.4539" x2="23.1346" y2="96.1539" stroke="rgb(255,0,0)" stroke-width="0.705556"/>
		<line x1="23.1346" y1="96.1539" x2="23.1346" y2="101.154" stroke="rgb(255,0,0)" stroke-width="0.705556"/>
		<line x1="73.7846" y1="101.154" x2="23.1346" y2="101.154" stroke="rgb(255,255,0)" stroke-width="0.705556"/>
		<line x1="23.1346" y1="52.4539" x2="73.1346" y2="52.4539" stroke="rgb(255,0,0)" stroke-width="0.705556"/>
		<line x1="73.7846" y1="231.743" x2="73.1346" y2="234.743" stroke="rgb(255,0,0)" stroke-width="0.705556"/>
		<line x1="73.1346" y1="234.743" x2="73.1346" y2="280.443" stroke="rgb(255,0,0)" stroke-width="0.705556"/>
		<line x1="23.1346" y1="280.443" x2="23.1346" y2="236.743" stroke="rgb(255,0,0)" stroke-width="0.705556"/>
		<line x1="23.1346" y1="236.743" x2="23.1346" y2="231.743" stroke="rgb(255,0,0)" stroke-width="0.705556"/>
		<line x1="73.7846" y1="231.743" x2="23.1346" y2="231.743" stroke="rgb(255,255,0)" stroke-width="0.705556"/>
		<line x1="23.1346" y1="280.443" x2="73.1346" y2="280.443" stroke="rgb(255,0,0)" stroke-width="0.705556"/>
		<line x1="109.14" y1="267.099" x2="109.14" y2="267.099" stroke="rgb(255,0,0)" stroke-width="0.705556"/>
		<line x1="109.14" y1="267.099" x2="82.8399" y2="267.099" stroke="rgb(255,0,0)" stroke-width="0.705556"/>
		<line x1="82.8399" y1="267.099" x2="59.1399" y2="317.749" stroke="rgb(255,0,0)" stroke-width="0.705556"/>
		<line x1="59.1399" y1="317.749" x2="109.14" y2="317.749" stroke="rgb(255,0,0)" stroke-width="0.705556"/>
		<line x1="109.14" y1="317.749" x2="109.14" y2="317.749" stroke="rgb(255,0,0)" stroke-width="0.705556"/>
		<line x1="107.84" y1="267.099" x2="107.84" y2="317.749" stroke="rgb(255,255,0)" stroke-width="0.705556"/>
		<line x1="319.729" y1="267.099" x2="319.729" y2="267.099" stroke="rgb(255,0,0)" stroke-width="0.705556"/>
		<line x1="319.729" y1="267.099" x2="346.029" y2="267.099" stroke="rgb(255,0,0)" stroke-width="0.705556"/>
		<line x1="346.029" y1="267.099" x2="369.729" y2="317.749" stroke="rgb(255,0,0)" stroke-width="0.705556"/>
		<line x1="369.729" y1="317.749" x2="319.729" y2="317.749" stroke="rgb(255,0,0)" stroke-width="0.705556"/>
		<line x1="319.729" y1="317.749" x2="319.729" y2="317.749" stroke="rgb(255,0,0)" stroke-width="0.705556"/>
		<line x1="321.029" y1="267.099" x2="321.029" y2="317.749" stroke="rgb(255,255,0)" stroke-width="0.705556"/>
		<line x1="319.729" y1="65.7986" x2="319.729" y2="65.7986" stroke="rgb(255,0,0)" stroke-width="0.705556"/>
		<line x1="319.729" y1="65.7986" x2="346.029" y2="65.7986" stroke="rgb(255,0,0)" stroke-width="0.705556"/>
		<line x1="346.029" y1="65.7986" x2="369.729" y2="15.1486" stroke="rgb(255,0,0)" stroke-width="0.705556"/>
		<line x1="369.729" y1="15.1486" x2="319.729" y2="15.1486" stroke="rgb(255,0,0)" stroke-width="0.705556"/>
		<line x1="319.729" y1="15.1486" x2="319.729" y2="15.1486" stroke="rgb(255,0,0)" stroke-width="0.705556"/>
		<line x1="321.029" y1="65.7986" x2="321.029" y2="15.1486" stroke="rgb(255,255,0)" stroke-width="0.705556"/>
		<line x1="109.14" y1="65.7986" x2="109.14" y2="65.7986" stroke="rgb(255,0,0)" stroke-width="0.705556"/>
		<line x1="109.14" y1="65.7986" x2="82.8399" y2="65.7986" stroke="rgb(255,0,0)" stroke-width="0.705556"/>
		<line x1="82.8399" y1="65.7986" x2="59.1399" y2="15.1486" stroke="rgb(255,0,0)" stroke-width="0.705556"/>
		<line x1="59.1399" y1="15.1486" x2="109.14" y2="15.1486" stroke="rgb(255,0,0)" stroke-width="0.705556"/>
		<line x1="109.14" y1="15.1486" x2="109.14" y2="15.1486" stroke="rgb(255,0,0)" stroke-width="0.705556"/>
		<line x1="107.84" y1="65.7986" x2="107.84" y2="15.1486" stroke="rgb(255,255,0)" stroke-width="0.705556"/>
		<line x1="214.435" y1="133.769" x2="214.435" y2="106.154" stroke="rgb(64,128,128)" stroke-width="0"/>
		<line x1="222.919" y1="115.359" x2="222.919" y2="106.154" stroke="rgb(64,128,128)" stroke-width="0"/>
		<line x1="218.677" y1="124.564" x2="218.677" y2="106.154" stroke="rgb(64,128,128)" stroke-width="0"/>
		<line x1="210.193" y1="142.974" x2="210.193" y2="106.154" stroke="rgb(64,128,128)" stroke-width="0"/>
		<line x1="205.951" y1="152.179" x2="205.951" y2="106.154" stroke="rgb(64,128,128)" stroke-width="0"/>
		<line x1="201.709" y1="161.383" x2="201.709" y2="106.154" stroke="rgb(64,128,128)" stroke-width="0"/>
		<line x1="227.161" y1="106.154" x2="201.709" y2="106.154" stroke="rgb(64,128,128)" stroke-width="0"/>
		<line x1="201.709" y1="161.383" x2="229.983" y2="133.066" stroke="rgb(64,128,128)" stroke-width="0"/>
		<path d="M229.983,133.066 a26.6045 26.6045 0 0 1 -2.82257,-26.9118" fill="none" stroke="rgb(64,128,128)" stroke-width="0"/>
		<line x1="227.161" y1="106.154" x2="201.709" y2="161.383" stroke="rgb(64,128,128)" stroke-width="0"/>
	</g>
</svg>