<svg version = "1.1" xmlns = "http://www.w3.org/2000/svg" xmlns:xlink="http://www.w3.org/1999/xlink" width="503.306" height="345.906" viewbox = "0 0 503.306 345.906">
	<g transform="translate(-87.4385,456.281) scale(1,-1) ">
		<line x1="439.741" y1="423.978" x2="439.741" y2="423.978" stroke="rgb(255,0,0)" stroke-width="0.705556"/>
		<line x1="590.391" y1="423.978" x2="590.391" y2="142.678" stroke="rgb(255,0,0)" stroke-width="0.705556"/>
		<line x1="439.741" y1="142.678" x2="439.741" y2="142.678" stroke="rgb(255,0,0)" stroke-width="0.705556"/>
		<line x1="439.741" y1="423.978" x2="439.741" y2="142.678" stroke="rgb(255,255,0)" stroke-width="0.705556"/>
		<line x1="238.441" y1="142.678" x2="238.441" y2="142.678" stroke="rgb(255,0,0)" stroke-width="0.705556"/>
		<line x1="87.7913" y1="142.678" x2="87.7913" y2="423.978" stroke="rgb(255,0,0)" stroke-width="0.705556"/>
		<line x1="238.441" y1="423.978" x2="238.441" y2="423.978" stroke="rgb(255,0,0)" stroke-width="0.705556"/>
		<line x1="238.441" y1="142.678" x2="238.441" y2="423.978" stroke="rgb(255,255,0)" stroke-width="0.705556"/>
		<line x1="439.741" y1="423.978" x2="441.041" y2="423.978" stroke="rgb(255,0,0)" stroke-width="0.705556"/>
		<line x1="441.041" y1="423.978" x2="444.041" y2="455.928" stroke="rgb(255,0,0)" stroke-width="0.705556"/>
		<line x1="444.041" y1="455.928" x2="470.391" y2="455.928" stroke="rgb(255,0,0)" stroke-width="0.705556"/>
		<line x1="470.391" y1="455.928" x2="590.391" y2="431.966" stroke="rgb(255,0,0)" stroke-width="0.705556"/>
		<line x1="590.391" y1="431.966" x2="590.391" y2="423.978" stroke="rgb(255,0,0)" stroke-width="0.705556"/>
		<line x1="590.391" y1="423.978" x2="441.041" y2="423.978" stroke="rgb(255,255,0)" stroke-width="0.705556"/>
		<line x1="439.741" y1="142.678" x2="441.041" y2="142.678" stroke="rgb(255,0,0)" stroke-width="0.705556"/>
		<line x1="441.041" y1="142.678" x2="444.041" y2="110.728" stroke="rgb(255,0,0)" stroke-width="0.705556"/>
		<line x1="444.041" y1="110.728" x2="470.391" y2="110.728" stroke="rgb(255,0,0)" stroke-width="0.705556"/>
		<line x1="470.391" y1="110.728" x2="590.391" y2="134.691" stroke="rgb(255,0,0)" stroke-width="0.705556"/>
		<line x1="590.391" y1="134.691" x2="590.391" y2="142.678" stroke="rgb(255,0,0)" stroke-width="0.705556"/>
		<line x1="590.391" y1="142.678" x2="441.041" y2="142.678" stroke="rgb(255,255,0)" stroke-width="0.705556"/>
		<line x1="238.441" y1="423.978" x2="237.141" y2="423.978" stroke="rgb(255,0,0)" stroke-width="0.705556"/>
		<line x1="237.141" y1="423.978" x2="234.141" y2="455.928" stroke="rgb(255,0,0)" stroke-width="0.705556"/>
		<line x1="234.141" y1="455.928" x2="207.791" y2="455.928" stroke="rgb(255,0,0)" stroke-width="0.705556"/>
		<line x1="207.791" y1="455.928" x2="87.7913" y2="431.966" stroke="rgb(255,0,0)" stroke-width="0.705556"/>
		<line x1="87.7913" y1="431.966" x2="87.7913" y2="423.978" stroke="rgb(255,0,0)" stroke-width="0.705556"/>
		<line x1="87.7913" y1="423.978" x2="237.141" y2="423.978" stroke="rgb(255,255,0)" stroke-width="0.705556"/>
		<line x1="238.441" y1="142.678" x2="237.141" y2="142.678" stroke="rgb(255,0,0)" stroke-width="0.705556"/>
		<line x1="237.141" y1="142.678" x2="234.141" y2="110.728" stroke="rgb(255,0,0)" stroke-width="0.705556"/>
		<line x1="234.141" y1="110.728" x2="207.791" y2="110.728" stroke="rgb(255,0,0)" stroke-width="0.705556"/>
		<line x1="207.791" y1="110.728" x2="87.7913" y2="134.691" stroke="rgb(255,0,0)" stroke-width="0.705556"/>
		<line x1="87.7913" y1="134.691" x2="87.7913" y2="142.678" stroke="rgb(255,0,0)" stroke-width="0.705556"/>
		<line x1="87.7913" y1="142.678" x2="237.141" y2="142.678" stroke="rgb(255,255,0)" stroke-width="0.705556"/>
		<line x1="238.441" y1="423.978" x2="239.741" y2="423.978" stroke="rgb(255,0,0)" stroke-width="0.705556"/>
		<line x1="239.741" y1="423.978" x2="242.741" y2="455.928" stroke="rgb(255,0,0)" stroke-width="0.705556"/>
		<line x1="242.741" y1="455.928" x2="435.441" y2="455.928" stroke="rgb(255,0,0)" stroke-width="0.705556"/>
		<line x1="435.441" y1="455.928" x2="438.441" y2="423.978" stroke="rgb(255,0,0)" stroke-width="0.705556"/>
		<line x1="438.441" y1="423.978" x2="439.741" y2="423.978" stroke="rgb(255,0,0)" stroke-width="0.705556"/>
		<line x1="239.863" y1="425.278" x2="438.319" y2="425.278" stroke="rgb(255,255,0)" stroke-width="0.705556"/>
		<line x1="238.441" y1="142.678" x2="239.741" y2="142.678" stroke="rgb(255,0,0)" stroke-width="0.705556"/>
		<line x1="239.741" y1="142.678" x2="242.741" y2="110.728" stroke="rgb(255,0,0)" stroke-width="0.705556"/>
		<line x1="242.741" y1="110.728" x2="435.441" y2="110.728" stroke="rgb(255,0,0)" stroke-width="0.705556"/>
		<line x1="435.441" y1="110.728" x2="438.441" y2="142.678" stroke="rgb(255,0,0)" stroke-width="0.705556"/>
		<line x1="438.441" y1="142.678" x2="439.741" y2="142.678" stroke="rgb(255,0,0)" stroke-width="0.705556"/>
		<line x1="239.863" y1="141.378" x2="438.319" y2="141.378" stroke="rgb(255,255,0)" stroke-width="0.705556"/>
		<line x1="339.091" y1="205.293" x2="339.091" y2="177.678" stroke="rgb(64,128,128)" stroke-width="0"/>
		<line x1="347.575" y1="186.883" x2="347.575" y2="177.678" stroke="rgb(64,128,128)" stroke-width="0"/>
		<line x1="343.333" y1="196.088" x2="343.333" y2="177.678" stroke="rgb(64,128,128)" stroke-width="0"/>
		<line x1="334.849" y1="214.498" x2="334.849" y2="177.678" stroke="rgb(64,128,128)" stroke-width="0"/>
		<line x1="330.607" y1="223.703" x2="330.607" y2="177.678" stroke="rgb(64,128,128)" stroke-width="0"/>
		<line x1="326.365" y1="232.908" x2="326.365" y2="177.678" stroke="rgb(64,128,128)" stroke-width="0"/>
		<line x1="351.817" y1="177.678" x2="326.365" y2="177.678" stroke="rgb(64,128,128)" stroke-width="0"/>
		<line x1="326.365" y1="232.908" x2="354.64" y2="204.59" stroke="rgb(64,128,128)" stroke-width="0"/>
		<path d="M354.64,204.59 a26.6045 26.6045 0 0 1 -2.82257,-26.9118" fill="none" stroke="rgb(64,128,128)" stroke-width="0"/>
		<line x1="351.817" y1="177.678" x2="326.365" y2="232.908" stroke="rgb(64,128,128)" stroke-width="0"/>
	</g>
</svg>