<svg version = "1.1" xmlns = "http://www.w3.org/2000/svg" xmlns:xlink="http://www.w3.org/1999/xlink" width="542.439" height="621.106" viewbox = "0 0 542.439 621.106">
	<g transform="translate(-85.763,618.686) scale(1,-1) ">
		<line x1="373.999" y1="466.384" x2="373.999" y2="149.884" stroke="rgb(255,255,0)" stroke-width="0.705556"/>
		<line x1="272.049" y1="466.384" x2="272.049" y2="466.384" stroke="rgb(255,0,0)" stroke-width="0.705556"/>
		<line x1="272.049" y1="618.334" x2="372.699" y2="618.334" stroke="rgb(255,0,0)" stroke-width="0.705556"/>
		<line x1="272.049" y1="466.384" x2="372.699" y2="466.384" stroke="rgb(255,255,0)" stroke-width="0.705556"/>
		<line x1="372.699" y1="466.384" x2="373.999" y2="467.034" stroke="rgb(255,0,0)" stroke-width="0.705556"/>
		<line x1="373.999" y1="467.034" x2="526.599" y2="467.034" stroke="rgb(255,0,0)" stroke-width="0.705556"/>
		<line x1="373.999" y1="466.384" x2="373.999" y2="467.034" stroke="rgb(255,255,0)" stroke-width="0.705556"/>
		<line x1="272.049" y1="149.884" x2="272.049" y2="149.884" stroke="rgb(255,0,0)" stroke-width="0.705556"/>
		<line x1="272.049" y1="-2.06639" x2="372.699" y2="-2.06639" stroke="rgb(255,0,0)" stroke-width="0.705556"/>
		<line x1="272.049" y1="149.884" x2="372.699" y2="149.884" stroke="rgb(255,255,0)" stroke-width="0.705556"/>
		<line x1="372.699" y1="149.884" x2="373.999" y2="149.234" stroke="rgb(255,0,0)" stroke-width="0.705556"/>
		<line x1="373.999" y1="149.234" x2="526.599" y2="149.234" stroke="rgb(255,0,0)" stroke-width="0.705556"/>
		<line x1="373.999" y1="149.884" x2="373.999" y2="149.234" stroke="rgb(255,255,0)" stroke-width="0.705556"/>
		<line x1="627.849" y1="465.084" x2="627.849" y2="151.184" stroke="rgb(255,0,0)" stroke-width="0.705556"/>
		<line x1="526.599" y1="465.084" x2="526.599" y2="151.184" stroke="rgb(255,255,0)" stroke-width="0.705556"/>
		<line x1="627.849" y1="465.084" x2="627.849" y2="465.084" stroke="rgb(255,0,0)" stroke-width="0.705556"/>
		<line x1="627.849" y1="465.084" x2="627.849" y2="617.034" stroke="rgb(255,0,0)" stroke-width="0.705556"/>
		<line x1="627.849" y1="617.034" x2="528.549" y2="617.034" stroke="rgb(255,0,0)" stroke-width="0.705556"/>
		<line x1="528.549" y1="617.034" x2="528.549" y2="465.084" stroke="rgb(255,0,0)" stroke-width="0.705556"/>
		<line x1="627.849" y1="465.084" x2="528.549" y2="465.084" stroke="rgb(255,255,0)" stroke-width="0.705556"/>
		<line x1="627.849" y1="151.184" x2="627.849" y2="151.184" stroke="rgb(255,0,0)" stroke-width="0.705556"/>
		<line x1="627.849" y1="151.184" x2="627.849" y2="-0.766386" stroke="rgb(255,0,0)" stroke-width="0.705556"/>
		<line x1="627.849" y1="-0.766386" x2="528.549" y2="-0.766386" stroke="rgb(255,0,0)" stroke-width="0.705556"/>
		<line x1="528.549" y1="-0.766386" x2="528.549" y2="151.184" stroke="rgb(255,0,0)" stroke-width="0.705556"/>
		<line x1="627.849" y1="151.184" x2="528.549" y2="151.184" stroke="rgb(255,255,0)" stroke-width="0.705556"/>
		<line x1="526.599" y1="467.034" x2="528.549" y2="465.084" stroke="rgb(255,0,0)" stroke-width="0.705556"/>
		<line x1="526.599" y1="465.084" x2="526.599" y2="467.034" stroke="rgb(255,255,0)" stroke-width="0.705556"/>
		<line x1="526.599" y1="149.234" x2="528.549" y2="151.184" stroke="rgb(255,0,0)" stroke-width="0.705556"/>
		<line x1="526.599" y1="151.184" x2="526.599" y2="149.234" stroke="rgb(255,255,0)" stroke-width="0.705556"/>
		<line x1="528.549" y1="617.034" x2="528.549" y2="618.334" stroke="rgb(255,0,0)" stroke-width="0.705556"/>
		<line x1="528.549" y1="618.334" x2="372.699" y2="618.334" stroke="rgb(255,0,0)" stroke-width="0.705556"/>
		<line x1="528.549" y1="-0.766386" x2="528.549" y2="-2.06639" stroke="rgb(255,0,0)" stroke-width="0.705556"/>
		<line x1="528.549" y1="-2.06639" x2="372.699" y2="-2.06639" stroke="rgb(255,0,0)" stroke-width="0.705556"/>
		<line x1="272.049" y1="466.384" x2="272.049" y2="618.334" stroke="rgb(255,255,0)" stroke-width="0.705556"/>
		<line x1="272.049" y1="618.334" x2="269.449" y2="617.684" stroke="rgb(255,0,0)" stroke-width="0.705556"/>
		<line x1="272.049" y1="-2.06639" x2="272.049" y2="149.884" stroke="rgb(255,255,0)" stroke-width="0.705556"/>
		<line x1="269.449" y1="-1.41639" x2="272.049" y2="-2.06639" stroke="rgb(255,0,0)" stroke-width="0.705556"/>
		<line x1="272.049" y1="149.884" x2="269.449" y2="149.234" stroke="rgb(255,0,0)" stroke-width="0.705556"/>
		<line x1="169.449" y1="149.234" x2="119.449" y2="149.234" stroke="rgb(255,0,0)" stroke-width="0.705556"/>
		<line x1="119.449" y1="467.034" x2="169.449" y2="467.034" stroke="rgb(255,0,0)" stroke-width="0.705556"/>
		<line x1="269.449" y1="467.034" x2="272.049" y2="466.384" stroke="rgb(255,0,0)" stroke-width="0.705556"/>
		<line x1="270.749" y1="149.884" x2="270.749" y2="466.384" stroke="rgb(255,255,0)" stroke-width="0.705556"/>
		<line x1="270.749" y1="149.884" x2="270.749" y2="149.559" stroke="rgb(255,255,0)" stroke-width="0.705556"/>
		<line x1="270.749" y1="466.384" x2="270.749" y2="466.709" stroke="rgb(255,255,0)" stroke-width="0.705556"/>
		<line x1="269.449" y1="467.034" x2="169.449" y2="467.034" stroke="rgb(255,0,0)" stroke-width="0.705556"/>
		<line x1="169.449" y1="467.034" x2="169.449" y2="517.359" stroke="rgb(255,0,0)" stroke-width="0.705556"/>
		<line x1="169.449" y1="567.359" x2="169.449" y2="617.684" stroke="rgb(255,0,0)" stroke-width="0.705556"/>
		<line x1="169.449" y1="617.684" x2="269.449" y2="617.684" stroke="rgb(255,0,0)" stroke-width="0.705556"/>
		<line x1="269.449" y1="617.684" x2="269.449" y2="467.034" stroke="rgb(255,255,0)" stroke-width="0.705556"/>
		<line x1="269.449" y1="-1.41639" x2="169.449" y2="-1.41639" stroke="rgb(255,0,0)" stroke-width="0.705556"/>
		<line x1="169.449" y1="-1.41639" x2="169.449" y2="48.9086" stroke="rgb(255,0,0)" stroke-width="0.705556"/>
		<line x1="169.449" y1="98.9086" x2="169.449" y2="149.234" stroke="rgb(255,0,0)" stroke-width="0.705556"/>
		<line x1="169.449" y1="149.234" x2="269.449" y2="149.234" stroke="rgb(255,0,0)" stroke-width="0.705556"/>
		<line x1="269.449" y1="149.234" x2="269.449" y2="-1.41639" stroke="rgb(255,255,0)" stroke-width="0.705556"/>
		<line x1="372.699" y1="618.334" x2="372.699" y2="567.359" stroke="rgb(255,255,0)" stroke-width="0.705556"/>
		<line x1="372.699" y1="517.359" x2="372.699" y2="466.384" stroke="rgb(255,255,0)" stroke-width="0.705556"/>
		<line x1="372.699" y1="149.884" x2="372.699" y2="98.9086" stroke="rgb(255,255,0)" stroke-width="0.705556"/>
		<line x1="372.699" y1="48.9086" x2="372.699" y2="-2.06639" stroke="rgb(255,255,0)" stroke-width="0.705556"/>
		<line x1="119.449" y1="149.234" x2="119.449" y2="152.484" stroke="rgb(255,0,0)" stroke-width="0.705556"/>
		<line x1="119.449" y1="152.484" x2="102.782" y2="152.484" stroke="rgb(255,0,0)" stroke-width="0.705556"/>
		<line x1="86.1158" y1="169.15" x2="86.1158" y2="447.117" stroke="rgb(255,0,0)" stroke-width="0.705556"/>
		<line x1="102.782" y1="463.784" x2="119.449" y2="463.784" stroke="rgb(255,0,0)" stroke-width="0.705556"/>
		<line x1="119.449" y1="463.784" x2="119.449" y2="467.034" stroke="rgb(255,0,0)" stroke-width="0.705556"/>
		<line x1="119.449" y1="152.484" x2="119.449" y2="463.784" stroke="rgb(255,255,0)" stroke-width="0.705556"/>
		<path d="M102.782,152.484 a16.6667 16.6667 0 0 0 -16.6667,16.6667" fill="none" stroke="rgb(255,0,0)" stroke-width="0.705556"/>
		<path d="M86.1158,447.117 a16.6667 16.6667 0 0 0 16.6667,16.6667" fill="none" stroke="rgb(255,0,0)" stroke-width="0.705556"/>
		<line x1="328.747" y1="197.61" x2="301.132" y2="197.61" stroke="rgb(64,128,128)" stroke-width="0"/>
		<line x1="310.337" y1="206.094" x2="301.132" y2="206.094" stroke="rgb(64,128,128)" stroke-width="0"/>
		<line x1="319.542" y1="201.852" x2="301.132" y2="201.852" stroke="rgb(64,128,128)" stroke-width="0"/>
		<line x1="337.952" y1="193.368" x2="301.132" y2="193.368" stroke="rgb(64,128,128)" stroke-width="0"/>
		<line x1="347.157" y1="189.126" x2="301.132" y2="189.126" stroke="rgb(64,128,128)" stroke-width="0"/>
		<line x1="356.362" y1="184.884" x2="301.132" y2="184.884" stroke="rgb(64,128,128)" stroke-width="0"/>
		<line x1="301.132" y1="210.336" x2="301.132" y2="184.884" stroke="rgb(64,128,128)" stroke-width="0"/>
		<line x1="356.362" y1="184.884" x2="328.044" y2="213.158" stroke="rgb(64,128,128)" stroke-width="0"/>
		<path d="M328.044,213.158 a26.6045 26.6045 0 0 0 -26.9118,-2.82257" fill="none" stroke="rgb(64,128,128)" stroke-width="0"/>
		<line x1="301.132" y1="210.336" x2="356.362" y2="184.884" stroke="rgb(64,128,128)" stroke-width="0"/>
		<line x1="169.449" y1="98.9086" x2="167.499" y2="97.9086" stroke="rgb(255,0,0)" stroke-width="0.705556"/>
		<line x1="167.499" y1="97.9086" x2="167.499" y2="49.9086" stroke="rgb(255,0,0)" stroke-width="0.705556"/>
		<line x1="167.499" y1="49.9086" x2="169.449" y2="48.9086" stroke="rgb(255,0,0)" stroke-width="0.705556"/>
		<line x1="169.449" y1="98.9086" x2="167.499" y2="97.9086" stroke="rgb(255,0,0)" stroke-width="0.705556"/>
		<line x1="167.499" y1="97.9086" x2="167.499" y2="49.9086" stroke="rgb(255,0,0)" stroke-width="0.705556"/>
		<line x1="167.499" y1="49.9086" x2="169.449" y2="48.9086" stroke="rgb(255,0,0)" stroke-width="0.705556"/>
		<line x1="169.449" y1="98.9086" x2="167.499" y2="97.9086" stroke="rgb(255,0,0)" stroke-width="0.705556"/>
		<line x1="167.499" y1="97.9086" x2="167.499" y2="49.9086" stroke="rgb(255,0,0)" stroke-width="0.705556"/>
		<line x1="167.499" y1="49.9086" x2="169.449" y2="48.9086" stroke="rgb(255,0,0)" stroke-width="0.705556"/>
		<line x1="169.449" y1="98.9086" x2="167.499" y2="97.9086" stroke="rgb(255,0,0)" stroke-width="0.705556"/>
		<line x1="167.499" y1="97.9086" x2="167.499" y2="49.9086" stroke="rgb(255,0,0)" stroke-width="0.705556"/>
		<line x1="167.499" y1="49.9086" x2="169.449" y2="48.9086" stroke="rgb(255,0,0)" stroke-width="0.705556"/>
		<line x1="169.449" y1="98.9086" x2="167.499" y2="97.9086" stroke="rgb(255,0,0)" stroke-width="0.705556"/>
		<line x1="167.499" y1="97.9086" x2="167.499" y2="49.9086" stroke="rgb(255,0,0)" stroke-width="0.705556"/>
		<line x1="167.499" y1="49.9086" x2="169.449" y2="48.9086" stroke="rgb(255,0,0)" stroke-width="0.705556"/>
		<line x1="169.449" y1="98.9086" x2="167.499" y2="97.9086" stroke="rgb(255,0,0)" stroke-width="0.705556"/>
		<line x1="167.499" y1="97.9086" x2="167.499" y2="49.9086" stroke="rgb(255,0,0)" stroke-width="0.705556"/>
		<line x1="167.499" y1="49.9086" x2="169.449" y2="48.9086" stroke="rgb(255,0,0)" stroke-width="0.705556"/>
		<line x1="169.449" y1="98.9086" x2="167.499" y2="97.9086" stroke="rgb(255,0,0)" stroke-width="0.705556"/>
		<line x1="167.499" y1="97.9086" x2="167.499" y2="49.9086" stroke="rgb(255,0,0)" stroke-width="0.705556"/>
		<line x1="167.499" y1="49.9086" x2="169.449" y2="48.9086" stroke="rgb(255,0,0)" stroke-width="0.705556"/>
		<line x1="169.449" y1="98.9086" x2="167.499" y2="97.9086" stroke="rgb(255,0,0)" stroke-width="0.705556"/>
		<line x1="167.499" y1="97.9086" x2="167.499" y2="49.9086" stroke="rgb(255,0,0)" stroke-width="0.705556"/>
		<line x1="167.499" y1="49.9086" x2="169.449" y2="48.9086" stroke="rgb(255,0,0)" stroke-width="0.705556"/>
		<line x1="169.449" y1="98.9086" x2="167.499" y2="97.9086" stroke="rgb(255,0,0)" stroke-width="0.705556"/>
		<line x1="167.499" y1="97.9086" x2="167.499" y2="49.9086" stroke="rgb(255,0,0)" stroke-width="0.705556"/>
		<line x1="167.499" y1="49.9086" x2="169.449" y2="48.9086" stroke="rgb(255,0,0)" stroke-width="0.705556"/>
		<line x1="169.449" y1="98.9086" x2="167.499" y2="97.9086" stroke="rgb(255,0,0)" stroke-width="0.705556"/>
		<line x1="167.499" y1="97.9086" x2="167.499" y2="49.9086" stroke="rgb(255,0,0)" stroke-width="0.705556"/>
		<line x1="167.499" y1="49.9086" x2="169.449" y2="48.9086" stroke="rgb(255,0,0)" stroke-width="0.705556"/>
		<line x1="169.449" y1="98.9086" x2="167.499" y2="97.9086" stroke="rgb(255,0,0)" stroke-width="0.705556"/>
		<line x1="167.499" y1="97.9086" x2="167.499" y2="49.9086" stroke="rgb(255,0,0)" stroke-width="0.705556"/>
		<line x1="167.499" y1="49.9086" x2="169.449" y2="48.9086" stroke="rgb(255,0,0)" stroke-width="0.705556"/>
		<line x1="169.449" y1="98.9086" x2="167.499" y2="97.9086" stroke="rgb(255,0,0)" stroke-width="0.705556"/>
		<line x1="167.499" y1="97.9086" x2="167.499" y2="49.9086" stroke="rgb(255,0,0)" stroke-width="0.705556"/>
		<line x1="167.499" y1="49.9086" x2="169.449" y2="48.9086" stroke="rgb(255,0,0)" stroke-width="0.705556"/>
		<line x1="169.449" y1="98.9086" x2="167.499" y2="97.9086" stroke="rgb(255,0,0)" stroke-width="0.705556"/>
		<line x1="167.499" y1="97.9086" x2="167.499" y2="49.9086" stroke="rgb(255,0,0)" stroke-width="0.705556"/>
		<line x1="167.499" y1="49.9086" x2="169.449" y2="48.9086" stroke="rgb(255,0,0)" stroke-width="0.705556"/>
		<line x1="169.449" y1="98.9086" x2="167.499" y2="97.9086" stroke="rgb(255,0,0)" stroke-width="0.705556"/>
		<line x1="167.499" y1="97.9086" x2="167.499" y2="49.9086" stroke="rgb(255,0,0)" stroke-width="0.705556"/>
		<line x1="167.499" y1="49.9086" x2="169.449" y2="48.9086" stroke="rgb(255,0,0)" stroke-width="0.705556"/>
		<line x1="169.449" y1="98.9086" x2="167.499" y2="97.9086" stroke="rgb(255,0,0)" stroke-width="0.705556"/>
		<line x1="167.499" y1="97.9086" x2="167.499" y2="49.9086" stroke="rgb(255,0,0)" stroke-width="0.705556"/>
		<line x1="167.499" y1="49.9086" x2="169.449" y2="48.9086" stroke="rgb(255,0,0)" stroke-width="0.705556"/>
		<line x1="169.449" y1="98.9086" x2="167.499" y2="97.9086" stroke="rgb(255,0,0)" stroke-width="0.705556"/>
		<line x1="167.499" y1="97.9086" x2="167.499" y2="49.9086" stroke="rgb(255,0,0)" stroke-width="0.705556"/>
		<line x1="167.499" y1="49.9086" x2="169.449" y2="48.9086" stroke="rgb(255,0,0)" stroke-width="0.705556"/>
		<line x1="169.449" y1="98.9086" x2="167.499" y2="97.9086" stroke="rgb(255,0,0)" stroke-width="0.705556"/>
		<line x1="167.499" y1="97.9086" x2="167.499" y2="49.9086" stroke="rgb(255,0,0)" stroke-width="0.705556"/>
		<line x1="167.499" y1="49.9086" x2="169.449" y2="48.9086" stroke="rgb(255,0,0)" stroke-width="0.705556"/>
		<line x1="169.449" y1="98.9086" x2="167.499" y2="97.9086" stroke="rgb(255,0,0)" stroke-width="0.705556"/>
		<line x1="167.499" y1="97.9086" x2="167.499" y2="49.9086" stroke="rgb(255,0,0)" stroke-width="0.705556"/>
		<line x1="167.499" y1="49.9086" x2="169.449" y2="48.9086" stroke="rgb(255,0,0)" stroke-width="0.705556"/>
		<line x1="169.449" y1="98.9086" x2="167.499" y2="97.9086" stroke="rgb(255,0,0)" stroke-width="0.705556"/>
		<line x1="167.499" y1="97.9086" x2="167.499" y2="49.9086" stroke="rgb(255,0,0)" stroke-width="0.705556"/>
		<line x1="167.499" y1="49.9086" x2="169.449" y2="48.9086" stroke="rgb(255,0,0)" stroke-width="0.705556"/>
		<line x1="375.949" y1="98.9086" x2="375.949" y2="98.9086" stroke="rgb(255,0,0)" stroke-width="0.705556"/>
		<line x1="375.949" y1="48.9086" x2="375.949" y2="48.9086" stroke="rgb(255,0,0)" stroke-width="0.705556"/>
		<line x1="375.949" y1="98.9086" x2="375.949" y2="98.9086" stroke="rgb(255,0,0)" stroke-width="0.705556"/>
		<line x1="375.949" y1="48.9086" x2="375.949" y2="48.9086" stroke="rgb(255,0,0)" stroke-width="0.705556"/>
		<line x1="375.949" y1="98.9086" x2="375.949" y2="98.9086" stroke="rgb(255,0,0)" stroke-width="0.705556"/>
		<line x1="375.949" y1="48.9086" x2="375.949" y2="48.9086" stroke="rgb(255,0,0)" stroke-width="0.705556"/>
		<line x1="375.949" y1="98.9086" x2="375.949" y2="98.9086" stroke="rgb(255,0,0)" stroke-width="0.705556"/>
		<line x1="375.949" y1="48.9086" x2="375.949" y2="48.9086" stroke="rgb(255,0,0)" stroke-width="0.705556"/>
		<line x1="375.949" y1="98.9086" x2="375.949" y2="98.9086" stroke="rgb(255,0,0)" stroke-width="0.705556"/>
		<line x1="375.949" y1="48.9086" x2="375.949" y2="48.9086" stroke="rgb(255,0,0)" stroke-width="0.705556"/>
		<line x1="375.949" y1="98.9086" x2="375.949" y2="98.9086" stroke="rgb(255,0,0)" stroke-width="0.705556"/>
		<line x1="375.949" y1="48.9086" x2="375.949" y2="48.9086" stroke="rgb(255,0,0)" stroke-width="0.705556"/>
		<line x1="375.949" y1="98.9086" x2="375.949" y2="98.9086" stroke="rgb(255,0,0)" stroke-width="0.705556"/>
		<line x1="375.949" y1="48.9086" x2="375.949" y2="48.9086" stroke="rgb(255,0,0)" stroke-width="0.705556"/>
		<line x1="375.949" y1="98.9086" x2="375.949" y2="98.9086" stroke="rgb(255,0,0)" stroke-width="0.705556"/>
		<line x1="375.949" y1="48.9086" x2="375.949" y2="48.9086" stroke="rgb(255,0,0)" stroke-width="0.705556"/>
		<line x1="375.949" y1="98.9086" x2="375.949" y2="98.9086" stroke="rgb(255,0,0)" stroke-width="0.705556"/>
		<line x1="375.949" y1="48.9086" x2="375.949" y2="48.9086" stroke="rgb(255,0,0)" stroke-width="0.705556"/>
		<line x1="375.949" y1="98.9086" x2="375.949" y2="98.9086" stroke="rgb(255,0,0)" stroke-width="0.705556"/>
		<line x1="375.949" y1="48.9086" x2="375.949" y2="48.9086" stroke="rgb(255,0,0)" stroke-width="0.705556"/>
		<line x1="375.949" y1="98.9086" x2="375.949" y2="98.9086" stroke="rgb(255,0,0)" stroke-width="0.705556"/>
		<line x1="375.949" y1="48.9086" x2="375.949" y2="48.9086" stroke="rgb(255,0,0)" stroke-width="0.705556"/>
		<line x1="375.949" y1="98.9086" x2="375.949" y2="98.9086" stroke="rgb(255,0,0)" stroke-width="0.705556"/>
		<line x1="375.949" y1="48.9086" x2="375.949" y2="48.9086" stroke="rgb(255,0,0)" stroke-width="0.705556"/>
		<line x1="375.949" y1="98.9086" x2="375.949" y2="98.9086" stroke="rgb(255,0,0)" stroke-width="0.705556"/>
		<line x1="375.949" y1="48.9086" x2="375.949" y2="48.9086" stroke="rgb(255,0,0)" stroke-width="0.705556"/>
		<line x1="375.949" y1="98.9086" x2="375.949" y2="98.9086" stroke="rgb(255,0,0)" stroke-width="0.705556"/>
		<line x1="375.949" y1="48.9086" x2="375.949" y2="48.9086" stroke="rgb(255,0,0)" stroke-width="0.705556"/>
		<line x1="375.949" y1="98.9086" x2="375.949" y2="98.9086" stroke="rgb(255,0,0)" stroke-width="0.705556"/>
		<line x1="375.949" y1="48.9086" x2="375.949" y2="48.9086" stroke="rgb(255,0,0)" stroke-width="0.705556"/>
		<line x1="375.949" y1="98.9086" x2="375.949" y2="98.9086" stroke="rgb(255,0,0)" stroke-width="0.705556"/>
		<line x1="375.949" y1="48.9086" x2="375.949" y2="48.9086" stroke="rgb(255,0,0)" stroke-width="0.705556"/>
		<line x1="375.949" y1="98.9086" x2="375.949" y2="98.9086" stroke="rgb(255,0,0)" stroke-width="0.705556"/>
		<line x1="375.949" y1="48.9086" x2="375.949" y2="48.9086" stroke="rgb(255,0,0)" stroke-width="0.705556"/>
		<line x1="375.949" y1="98.9086" x2="375.949" y2="98.9086" stroke="rgb(255,0,0)" stroke-width="0.705556"/>
		<line x1="375.949" y1="48.9086" x2="375.949" y2="48.9086" stroke="rgb(255,0,0)" stroke-width="0.705556"/>
		<line x1="375.949" y1="98.9086" x2="372.699" y2="98.9086" stroke="rgb(255,0,0)" stroke-width="0.705556"/>
		<line x1="372.699" y1="98.9086" x2="372.699" y2="48.9086" stroke="rgb(255,0,0)" stroke-width="0.705556"/>
		<line x1="372.699" y1="48.9086" x2="375.949" y2="48.9086" stroke="rgb(255,0,0)" stroke-width="0.705556"/>
		<line x1="375.949" y1="48.9086" x2="375.949" y2="98.9086" stroke="rgb(255,0,0)" stroke-width="0.705556"/>
		<line x1="375.949" y1="98.9086" x2="375.949" y2="98.9086" stroke="rgb(255,0,0)" stroke-width="0.705556"/>
		<line x1="375.949" y1="48.9086" x2="375.949" y2="48.9086" stroke="rgb(255,0,0)" stroke-width="0.705556"/>
		<line x1="169.449" y1="517.359" x2="167.499" y2="518.359" stroke="rgb(255,0,0)" stroke-width="0.705556"/>
		<line x1="167.499" y1="518.359" x2="167.499" y2="566.359" stroke="rgb(255,0,0)" stroke-width="0.705556"/>
		<line x1="167.499" y1="566.359" x2="169.449" y2="567.359" stroke="rgb(255,0,0)" stroke-width="0.705556"/>
		<line x1="169.449" y1="517.359" x2="167.499" y2="518.359" stroke="rgb(255,0,0)" stroke-width="0.705556"/>
		<line x1="167.499" y1="518.359" x2="167.499" y2="566.359" stroke="rgb(255,0,0)" stroke-width="0.705556"/>
		<line x1="167.499" y1="566.359" x2="169.449" y2="567.359" stroke="rgb(255,0,0)" stroke-width="0.705556"/>
		<line x1="169.449" y1="517.359" x2="167.499" y2="518.359" stroke="rgb(255,0,0)" stroke-width="0.705556"/>
		<line x1="167.499" y1="518.359" x2="167.499" y2="566.359" stroke="rgb(255,0,0)" stroke-width="0.705556"/>
		<line x1="167.499" y1="566.359" x2="169.449" y2="567.359" stroke="rgb(255,0,0)" stroke-width="0.705556"/>
		<line x1="169.449" y1="517.359" x2="167.499" y2="518.359" stroke="rgb(255,0,0)" stroke-width="0.705556"/>
		<line x1="167.499" y1="518.359" x2="167.499" y2="566.359" stroke="rgb(255,0,0)" stroke-width="0.705556"/>
		<line x1="167.499" y1="566.359" x2="169.449" y2="567.359" stroke="rgb(255,0,0)" stroke-width="0.705556"/>
		<line x1="169.449" y1="517.359" x2="167.499" y2="518.359" stroke="rgb(255,0,0)" stroke-width="0.705556"/>
		<line x1="167.499" y1="518.359" x2="167.499" y2="566.359" stroke="rgb(255,0,0)" stroke-width="0.705556"/>
		<line x1="167.499" y1="566.359" x2="169.449" y2="567.359" stroke="rgb(255,0,0)" stroke-width="0.705556"/>
		<line x1="169.449" y1="517.359" x2="167.499" y2="518.359" stroke="rgb(255,0,0)" stroke-width="0.705556"/>
		<line x1="167.499" y1="518.359" x2="167.499" y2="566.359" stroke="rgb(255,0,0)" stroke-width="0.705556"/>
		<line x1="167.499" y1="566.359" x2="169.449" y2="567.359" stroke="rgb(255,0,0)" stroke-width="0.705556"/>
		<line x1="169.449" y1="517.359" x2="167.499" y2="518.359" stroke="rgb(255,0,0)" stroke-width="0.705556"/>
		<line x1="167.499" y1="518.359" x2="167.499" y2="566.359" stroke="rgb(255,0,0)" stroke-width="0.705556"/>
		<line x1="167.499" y1="566.359" x2="169.449" y2="567.359" stroke="rgb(255,0,0)" stroke-width="0.705556"/>
		<line x1="169.449" y1="517.359" x2="167.499" y2="518.359" stroke="rgb(255,0,0)" stroke-width="0.705556"/>
		<line x1="167.499" y1="518.359" x2="167.499" y2="566.359" stroke="rgb(255,0,0)" stroke-width="0.705556"/>
		<line x1="167.499" y1="566.359" x2="169.449" y2="567.359" stroke="rgb(255,0,0)" stroke-width="0.705556"/>
		<line x1="169.449" y1="517.359" x2="167.499" y2="518.359" stroke="rgb(255,0,0)" stroke-width="0.705556"/>
		<line x1="167.499" y1="518.359" x2="167.499" y2="566.359" stroke="rgb(255,0,0)" stroke-width="0.705556"/>
		<line x1="167.499" y1="566.359" x2="169.449" y2="567.359" stroke="rgb(255,0,0)" stroke-width="0.705556"/>
		<line x1="169.449" y1="517.359" x2="167.499" y2="518.359" stroke="rgb(255,0,0)" stroke-width="0.705556"/>
		<line x1="167.499" y1="518.359" x2="167.499" y2="566.359" stroke="rgb(255,0,0)" stroke-width="0.705556"/>
		<line x1="167.499" y1="566.359" x2="169.449" y2="567.359" stroke="rgb(255,0,0)" stroke-width="0.705556"/>
		<line x1="169.449" y1="517.359" x2="167.499" y2="518.359" stroke="rgb(255,0,0)" stroke-width="0.705556"/>
		<line x1="167.499" y1="518.359" x2="167.499" y2="566.359" stroke="rgb(255,0,0)" stroke-width="0.705556"/>
		<line x1="167.499" y1="566.359" x2="169.449" y2="567.359" stroke="rgb(255,0,0)" stroke-width="0.705556"/>
		<line x1="169.449" y1="517.359" x2="167.499" y2="518.359" stroke="rgb(255,0,0)" stroke-width="0.705556"/>
		<line x1="167.499" y1="518.359" x2="167.499" y2="566.359" stroke="rgb(255,0,0)" stroke-width="0.705556"/>
		<line x1="167.499" y1="566.359" x2="169.449" y2="567.359" stroke="rgb(255,0,0)" stroke-width="0.705556"/>
		<line x1="169.449" y1="517.359" x2="167.499" y2="518.359" stroke="rgb(255,0,0)" stroke-width="0.705556"/>
		<line x1="167.499" y1="518.359" x2="167.499" y2="566.359" stroke="rgb(255,0,0)" stroke-width="0.705556"/>
		<line x1="167.499" y1="566.359" x2="169.449" y2="567.359" stroke="rgb(255,0,0)" stroke-width="0.705556"/>
		<line x1="169.449" y1="517.359" x2="167.499" y2="518.359" stroke="rgb(255,0,0)" stroke-width="0.705556"/>
		<line x1="167.499" y1="518.359" x2="167.499" y2="566.359" stroke="rgb(255,0,0)" stroke-width="0.705556"/>
		<line x1="167.499" y1="566.359" x2="169.449" y2="567.359" stroke="rgb(255,0,0)" stroke-width="0.705556"/>
		<line x1="169.449" y1="517.359" x2="167.499" y2="518.359" stroke="rgb(255,0,0)" stroke-width="0.705556"/>
		<line x1="167.499" y1="518.359" x2="167.499" y2="566.359" stroke="rgb(255,0,0)" stroke-width="0.705556"/>
		<line x1="167.499" y1="566.359" x2="169.449" y2="567.359" stroke="rgb(255,0,0)" stroke-width="0.705556"/>
		<line x1="169.449" y1="517.359" x2="167.499" y2="518.359" stroke="rgb(255,0,0)" stroke-width="0.705556"/>
		<line x1="167.499" y1="518.359" x2="167.499" y2="566.359" stroke="rgb(255,0,0)" stroke-width="0.705556"/>
		<line x1="167.499" y1="566.359" x2="169.449" y2="567.359" stroke="rgb(255,0,0)" stroke-width="0.705556"/>
		<line x1="169.449" y1="517.359" x2="167.499" y2="518.359" stroke="rgb(255,0,0)" stroke-width="0.705556"/>
		<line x1="167.499" y1="518.359" x2="167.499" y2="566.359" stroke="rgb(255,0,0)" stroke-width="0.705556"/>
		<line x1="167.499" y1="566.359" x2="169.449" y2="567.359" stroke="rgb(255,0,0)" stroke-width="0.705556"/>
		<line x1="169.449" y1="517.359" x2="167.499" y2="518.359" stroke="rgb(255,0,0)" stroke-width="0.705556"/>
		<line x1="167.499" y1="518.359" x2="167.499" y2="566.359" stroke="rgb(255,0,0)" stroke-width="0.705556"/>
		<line x1="167.499" y1="566.359" x2="169.449" y2="567.359" stroke="rgb(255,0,0)" stroke-width="0.705556"/>
		<line x1="169.449" y1="517.359" x2="167.499" y2="518.359" stroke="rgb(255,0,0)" stroke-width="0.705556"/>
		<line x1="167.499" y1="518.359" x2="167.499" y2="566.359" stroke="rgb(255,0,0)" stroke-width="0.705556"/>
		<line x1="167.499" y1="566.359" x2="169.449" y2="567.359" stroke="rgb(255,0,0)" stroke-width="0.705556"/>
		<line x1="375.949" y1="517.359" x2="375.949" y2="517.359" stroke="rgb(255,0,0)" stroke-width="0.705556"/>
		<line x1="375.949" y1="567.359" x2="375.949" y2="567.359" stroke="rgb(255,0,0)" stroke-width="0.705556"/>
		<line x1="375.949" y1="517.359" x2="375.949" y2="517.359" stroke="rgb(255,0,0)" stroke-width="0.705556"/>
		<line x1="375.949" y1="567.359" x2="375.949" y2="567.359" stroke="rgb(255,0,0)" stroke-width="0.705556"/>
		<line x1="375.949" y1="517.359" x2="375.949" y2="517.359" stroke="rgb(255,0,0)" stroke-width="0.705556"/>
		<line x1="375.949" y1="567.359" x2="375.949" y2="567.359" stroke="rgb(255,0,0)" stroke-width="0.705556"/>
		<line x1="375.949" y1="517.359" x2="375.949" y2="517.359" stroke="rgb(255,0,0)" stroke-width="0.705556"/>
		<line x1="375.949" y1="567.359" x2="375.949" y2="567.359" stroke="rgb(255,0,0)" stroke-width="0.705556"/>
		<line x1="375.949" y1="517.359" x2="375.949" y2="517.359" stroke="rgb(255,0,0)" stroke-width="0.705556"/>
		<line x1="375.949" y1="567.359" x2="375.949" y2="567.359" stroke="rgb(255,0,0)" stroke-width="0.705556"/>
		<line x1="375.949" y1="517.359" x2="375.949" y2="517.359" stroke="rgb(255,0,0)" stroke-width="0.705556"/>
		<line x1="375.949" y1="567.359" x2="375.949" y2="567.359" stroke="rgb(255,0,0)" stroke-width="0.705556"/>
		<line x1="375.949" y1="517.359" x2="375.949" y2="517.359" stroke="rgb(255,0,0)" stroke-width="0.705556"/>
		<line x1="375.949" y1="567.359" x2="375.949" y2="567.359" stroke="rgb(255,0,0)" stroke-width="0.705556"/>
		<line x1="375.949" y1="517.359" x2="375.949" y2="517.359" stroke="rgb(255,0,0)" stroke-width="0.705556"/>
		<line x1="375.949" y1="567.359" x2="375.949" y2="567.359" stroke="rgb(255,0,0)" stroke-width="0.705556"/>
		<line x1="375.949" y1="517.359" x2="375.949" y2="517.359" stroke="rgb(255,0,0)" stroke-width="0.705556"/>
		<line x1="375.949" y1="567.359" x2="375.949" y2="567.359" stroke="rgb(255,0,0)" stroke-width="0.705556"/>
		<line x1="375.949" y1="517.359" x2="375.949" y2="517.359" stroke="rgb(255,0,0)" stroke-width="0.705556"/>
		<line x1="375.949" y1="567.359" x2="375.949" y2="567.359" stroke="rgb(255,0,0)" stroke-width="0.705556"/>
		<line x1="375.949" y1="517.359" x2="375.949" y2="517.359" stroke="rgb(255,0,0)" stroke-width="0.705556"/>
		<line x1="375.949" y1="567.359" x2="375.949" y2="567.359" stroke="rgb(255,0,0)" stroke-width="0.705556"/>
		<line x1="375.949" y1="517.359" x2="375.949" y2="517.359" stroke="rgb(255,0,0)" stroke-width="0.705556"/>
		<line x1="375.949" y1="567.359" x2="375.949" y2="567.359" stroke="rgb(255,0,0)" stroke-width="0.705556"/>
		<line x1="375.949" y1="517.359" x2="375.949" y2="517.359" stroke="rgb(255,0,0)" stroke-width="0.705556"/>
		<line x1="375.949" y1="567.359" x2="375.949" y2="567.359" stroke="rgb(255,0,0)" stroke-width="0.705556"/>
		<line x1="375.949" y1="517.359" x2="375.949" y2="517.359" stroke="rgb(255,0,0)" stroke-width="0.705556"/>
		<line x1="375.949" y1="567.359" x2="375.949" y2="567.359" stroke="rgb(255,0,0)" stroke-width="0.705556"/>
		<line x1="375.949" y1="517.359" x2="375.949" y2="517.359" stroke="rgb(255,0,0)" stroke-width="0.705556"/>
		<line x1="375.949" y1="567.359" x2="375.949" y2="567.359" stroke="rgb(255,0,0)" stroke-width="0.705556"/>
		<line x1="375.949" y1="517.359" x2="375.949" y2="517.359" stroke="rgb(255,0,0)" stroke-width="0.705556"/>
		<line x1="375.949" y1="567.359" x2="375.949" y2="567.359" stroke="rgb(255,0,0)" stroke-width="0.705556"/>
		<line x1="375.949" y1="517.359" x2="375.949" y2="517.359" stroke="rgb(255,0,0)" stroke-width="0.705556"/>
		<line x1="375.949" y1="567.359" x2="375.949" y2="567.359" stroke="rgb(255,0,0)" stroke-width="0.705556"/>
		<line x1="375.949" y1="517.359" x2="375.949" y2="517.359" stroke="rgb(255,0,0)" stroke-width="0.705556"/>
		<line x1="375.949" y1="567.359" x2="375.949" y2="567.359" stroke="rgb(255,0,0)" stroke-width="0.705556"/>
		<line x1="375.949" y1="517.359" x2="372.699" y2="517.359" stroke="rgb(255,0,0)" stroke-width="0.705556"/>
		<line x1="372.699" y1="517.359" x2="372.699" y2="567.359" stroke="rgb(255,0,0)" stroke-width="0.705556"/>
		<line x1="372.699" y1="567.359" x2="375.949" y2="567.359" stroke="rgb(255,0,0)" stroke-width="0.705556"/>
		<line x1="375.949" y1="567.359" x2="375.949" y2="517.359" stroke="rgb(255,0,0)" stroke-width="0.705556"/>
		<line x1="375.949" y1="517.359" x2="375.949" y2="517.359" stroke="rgb(255,0,0)" stroke-width="0.705556"/>
		<line x1="375.949" y1="567.359" x2="375.949" y2="567.359" stroke="rgb(255,0,0)" stroke-width="0.705556"/>
	</g>
</svg>