<svg version = "1.1" xmlns = "http://www.w3.org/2000/svg" xmlns:xlink="http://www.w3.org/1999/xlink" width="573.006" height="571.106" viewbox = "0 0 573.006 571.106">
	<g transform="translate(-33.8963,589.986) scale(1,-1) ">
		<line x1="373.999" y1="458.984" x2="373.999" y2="149.884" stroke="rgb(255,255,0)" stroke-width="0.705556"/>
		<line x1="271.399" y1="458.984" x2="271.399" y2="458.984" stroke="rgb(255,0,0)" stroke-width="0.705556"/>
		<line x1="271.399" y1="589.634" x2="372.699" y2="589.634" stroke="rgb(255,0,0)" stroke-width="0.705556"/>
		<line x1="271.399" y1="458.984" x2="372.699" y2="458.984" stroke="rgb(255,255,0)" stroke-width="0.705556"/>
		<line x1="373.999" y1="458.984" x2="373.999" y2="459.634" stroke="rgb(255,255,0)" stroke-width="0.705556"/>
		<line x1="271.399" y1="149.884" x2="271.399" y2="149.884" stroke="rgb(255,0,0)" stroke-width="0.705556"/>
		<line x1="271.399" y1="19.2336" x2="372.699" y2="19.2336" stroke="rgb(255,0,0)" stroke-width="0.705556"/>
		<line x1="271.399" y1="149.884" x2="372.699" y2="149.884" stroke="rgb(255,255,0)" stroke-width="0.705556"/>
		<line x1="373.999" y1="149.884" x2="373.999" y2="149.234" stroke="rgb(255,255,0)" stroke-width="0.705556"/>
		<line x1="271.399" y1="458.984" x2="271.399" y2="589.634" stroke="rgb(255,255,0)" stroke-width="0.705556"/>
		<line x1="271.399" y1="589.634" x2="266.199" y2="589.634" stroke="rgb(255,0,0)" stroke-width="0.705556"/>
		<line x1="271.399" y1="149.884" x2="266.199" y2="149.234" stroke="rgb(255,0,0)" stroke-width="0.705556"/>
		<line x1="165.549" y1="149.234" x2="137.499" y2="149.234" stroke="rgb(255,0,0)" stroke-width="0.705556"/>
		<line x1="137.499" y1="459.634" x2="165.549" y2="459.634" stroke="rgb(255,0,0)" stroke-width="0.705556"/>
		<line x1="266.199" y1="459.634" x2="271.399" y2="458.984" stroke="rgb(255,0,0)" stroke-width="0.705556"/>
		<line x1="270.099" y1="149.884" x2="270.099" y2="458.984" stroke="rgb(255,255,0)" stroke-width="0.705556"/>
		<line x1="270.099" y1="149.884" x2="270.099" y2="149.721" stroke="rgb(255,255,0)" stroke-width="0.705556"/>
		<line x1="270.099" y1="458.984" x2="270.099" y2="459.146" stroke="rgb(255,255,0)" stroke-width="0.705556"/>
		<line x1="266.199" y1="459.634" x2="165.549" y2="459.634" stroke="rgb(255,0,0)" stroke-width="0.705556"/>
		<line x1="165.549" y1="459.634" x2="165.549" y2="502.967" stroke="rgb(255,0,0)" stroke-width="0.705556"/>
		<line x1="165.549" y1="546.3" x2="165.549" y2="589.634" stroke="rgb(255,0,0)" stroke-width="0.705556"/>
		<line x1="165.549" y1="589.634" x2="266.199" y2="589.634" stroke="rgb(255,0,0)" stroke-width="0.705556"/>
		<line x1="266.199" y1="589.634" x2="266.199" y2="459.634" stroke="rgb(255,255,0)" stroke-width="0.705556"/>
		<line x1="137.499" y1="149.234" x2="134.899" y2="151.184" stroke="rgb(255,0,0)" stroke-width="0.705556"/>
		<line x1="134.899" y1="457.684" x2="137.499" y2="459.634" stroke="rgb(255,0,0)" stroke-width="0.705556"/>
		<line x1="137.499" y1="149.234" x2="137.499" y2="459.634" stroke="rgb(255,255,0)" stroke-width="0.705556"/>
		<line x1="34.2491" y1="457.684" x2="34.2491" y2="151.184" stroke="rgb(255,0,0)" stroke-width="0.705556"/>
		<line x1="134.899" y1="457.684" x2="134.899" y2="540.284" stroke="rgb(255,0,0)" stroke-width="0.705556"/>
		<line x1="34.2491" y1="457.684" x2="134.899" y2="457.684" stroke="rgb(255,255,0)" stroke-width="0.705556"/>
		<path d="M134.899,540.284 a100.65 100.65 0 0 1 -100.65,-82.6" fill="none" stroke="rgb(255,0,0)" stroke-width="0.705556"/>
		<line x1="134.899" y1="151.184" x2="134.899" y2="68.5836" stroke="rgb(255,0,0)" stroke-width="0.705556"/>
		<line x1="34.2491" y1="151.184" x2="134.899" y2="151.184" stroke="rgb(255,255,0)" stroke-width="0.705556"/>
		<path d="M134.899,68.5836 a100.65 100.65 0 0 0 -100.65,82.6" fill="none" stroke="rgb(255,0,0)" stroke-width="0.705556"/>
		<line x1="271.399" y1="149.884" x2="271.399" y2="19.2336" stroke="rgb(255,255,0)" stroke-width="0.705556"/>
		<line x1="271.399" y1="19.2336" x2="266.199" y2="19.2336" stroke="rgb(255,0,0)" stroke-width="0.705556"/>
		<line x1="266.199" y1="149.234" x2="271.399" y2="149.884" stroke="rgb(255,0,0)" stroke-width="0.705556"/>
		<line x1="266.199" y1="19.2336" x2="165.549" y2="19.2336" stroke="rgb(255,0,0)" stroke-width="0.705556"/>
		<line x1="165.549" y1="19.2336" x2="165.549" y2="62.5669" stroke="rgb(255,0,0)" stroke-width="0.705556"/>
		<line x1="165.549" y1="105.9" x2="165.549" y2="149.234" stroke="rgb(255,0,0)" stroke-width="0.705556"/>
		<line x1="165.549" y1="149.234" x2="266.199" y2="149.234" stroke="rgb(255,0,0)" stroke-width="0.705556"/>
		<line x1="266.199" y1="149.234" x2="266.199" y2="19.2336" stroke="rgb(255,255,0)" stroke-width="0.705556"/>
		<line x1="372.699" y1="458.984" x2="373.999" y2="459.634" stroke="rgb(255,0,0)" stroke-width="0.705556"/>
		<line x1="373.999" y1="459.634" x2="505.299" y2="459.634" stroke="rgb(255,0,0)" stroke-width="0.705556"/>
		<line x1="507.249" y1="589.634" x2="375.699" y2="589.634" stroke="rgb(255,0,0)" stroke-width="0.705556"/>
		<line x1="375.699" y1="589.634" x2="372.699" y2="589.634" stroke="rgb(255,0,0)" stroke-width="0.705556"/>
		<line x1="372.699" y1="458.984" x2="372.699" y2="502.967" stroke="rgb(255,255,0)" stroke-width="0.705556"/>
		<line x1="372.699" y1="546.3" x2="372.699" y2="589.634" stroke="rgb(255,255,0)" stroke-width="0.705556"/>
		<line x1="507.249" y1="589.634" x2="507.249" y2="586.384" stroke="rgb(255,0,0)" stroke-width="0.705556"/>
		<line x1="372.699" y1="149.884" x2="373.999" y2="149.234" stroke="rgb(255,0,0)" stroke-width="0.705556"/>
		<line x1="373.999" y1="149.234" x2="505.299" y2="149.234" stroke="rgb(255,0,0)" stroke-width="0.705556"/>
		<line x1="507.249" y1="19.2336" x2="375.699" y2="19.2336" stroke="rgb(255,0,0)" stroke-width="0.705556"/>
		<line x1="375.699" y1="19.2336" x2="372.699" y2="19.2336" stroke="rgb(255,0,0)" stroke-width="0.705556"/>
		<line x1="372.699" y1="149.884" x2="372.699" y2="105.9" stroke="rgb(255,255,0)" stroke-width="0.705556"/>
		<line x1="372.699" y1="62.5669" x2="372.699" y2="19.2336" stroke="rgb(255,255,0)" stroke-width="0.705556"/>
		<line x1="507.249" y1="19.2336" x2="507.249" y2="22.4836" stroke="rgb(255,0,0)" stroke-width="0.705556"/>
		<line x1="505.299" y1="459.634" x2="507.249" y2="455.734" stroke="rgb(255,0,0)" stroke-width="0.705556"/>
		<line x1="507.249" y1="153.134" x2="505.299" y2="149.234" stroke="rgb(255,0,0)" stroke-width="0.705556"/>
		<line x1="505.299" y1="459.634" x2="505.299" y2="149.234" stroke="rgb(255,255,0)" stroke-width="0.705556"/>
		<line x1="606.549" y1="153.134" x2="606.549" y2="455.734" stroke="rgb(255,0,0)" stroke-width="0.705556"/>
		<line x1="507.249" y1="455.734" x2="507.249" y2="586.384" stroke="rgb(255,0,0)" stroke-width="0.705556"/>
		<line x1="507.249" y1="586.384" x2="606.549" y2="586.384" stroke="rgb(255,0,0)" stroke-width="0.705556"/>
		<line x1="606.549" y1="586.384" x2="606.549" y2="455.734" stroke="rgb(255,0,0)" stroke-width="0.705556"/>
		<line x1="606.549" y1="455.734" x2="507.249" y2="455.734" stroke="rgb(255,255,0)" stroke-width="0.705556"/>
		<line x1="606.549" y1="153.134" x2="606.549" y2="22.4836" stroke="rgb(255,0,0)" stroke-width="0.705556"/>
		<line x1="606.549" y1="22.4836" x2="507.249" y2="22.4836" stroke="rgb(255,0,0)" stroke-width="0.705556"/>
		<line x1="507.249" y1="22.4836" x2="507.249" y2="153.134" stroke="rgb(255,0,0)" stroke-width="0.705556"/>
		<line x1="507.249" y1="153.134" x2="606.549" y2="153.134" stroke="rgb(255,255,0)" stroke-width="0.705556"/>
		<line x1="328.422" y1="197.61" x2="300.807" y2="197.61" stroke="rgb(64,128,128)" stroke-width="0"/>
		<line x1="310.012" y1="206.094" x2="300.807" y2="206.094" stroke="rgb(64,128,128)" stroke-width="0"/>
		<line x1="319.217" y1="201.852" x2="300.807" y2="201.852" stroke="rgb(64,128,128)" stroke-width="0"/>
		<line x1="337.627" y1="193.368" x2="300.807" y2="193.368" stroke="rgb(64,128,128)" stroke-width="0"/>
		<line x1="346.832" y1="189.126" x2="300.807" y2="189.126" stroke="rgb(64,128,128)" stroke-width="0"/>
		<line x1="356.037" y1="184.884" x2="300.807" y2="184.884" stroke="rgb(64,128,128)" stroke-width="0"/>
		<line x1="300.807" y1="210.336" x2="300.807" y2="184.884" stroke="rgb(64,128,128)" stroke-width="0"/>
		<line x1="356.037" y1="184.884" x2="327.719" y2="213.158" stroke="rgb(64,128,128)" stroke-width="0"/>
		<path d="M327.719,213.158 a26.6045 26.6045 0 0 0 -26.9118,-2.82257" fill="none" stroke="rgb(64,128,128)" stroke-width="0"/>
		<line x1="300.807" y1="210.336" x2="356.037" y2="184.884" stroke="rgb(64,128,128)" stroke-width="0"/>
		<line x1="165.549" y1="546.3" x2="164.249" y2="545.3" stroke="rgb(255,0,0)" stroke-width="0.705556"/>
		<line x1="164.249" y1="545.3" x2="164.249" y2="503.967" stroke="rgb(255,0,0)" stroke-width="0.705556"/>
		<line x1="164.249" y1="503.967" x2="165.549" y2="502.967" stroke="rgb(255,0,0)" stroke-width="0.705556"/>
		<line x1="377.249" y1="502.967" x2="377.249" y2="502.967" stroke="rgb(255,0,0)" stroke-width="0.705556"/>
		<line x1="377.249" y1="546.3" x2="377.249" y2="546.3" stroke="rgb(255,0,0)" stroke-width="0.705556"/>
		<line x1="377.249" y1="502.967" x2="377.249" y2="502.967" stroke="rgb(255,0,0)" stroke-width="0.705556"/>
		<line x1="377.249" y1="546.3" x2="377.249" y2="546.3" stroke="rgb(255,0,0)" stroke-width="0.705556"/>
		<line x1="377.249" y1="502.967" x2="377.249" y2="502.967" stroke="rgb(255,0,0)" stroke-width="0.705556"/>
		<line x1="377.249" y1="546.3" x2="377.249" y2="546.3" stroke="rgb(255,0,0)" stroke-width="0.705556"/>
		<line x1="377.249" y1="502.967" x2="377.249" y2="502.967" stroke="rgb(255,0,0)" stroke-width="0.705556"/>
		<line x1="377.249" y1="546.3" x2="377.249" y2="546.3" stroke="rgb(255,0,0)" stroke-width="0.705556"/>
		<line x1="377.249" y1="502.967" x2="377.249" y2="502.967" stroke="rgb(255,0,0)" stroke-width="0.705556"/>
		<line x1="377.249" y1="546.3" x2="377.249" y2="546.3" stroke="rgb(255,0,0)" stroke-width="0.705556"/>
		<line x1="377.249" y1="502.967" x2="377.249" y2="502.967" stroke="rgb(255,0,0)" stroke-width="0.705556"/>
		<line x1="377.249" y1="546.3" x2="377.249" y2="546.3" stroke="rgb(255,0,0)" stroke-width="0.705556"/>
		<line x1="377.249" y1="502.967" x2="377.249" y2="502.967" stroke="rgb(255,0,0)" stroke-width="0.705556"/>
		<line x1="377.249" y1="546.3" x2="377.249" y2="546.3" stroke="rgb(255,0,0)" stroke-width="0.705556"/>
		<line x1="377.249" y1="502.967" x2="377.249" y2="502.967" stroke="rgb(255,0,0)" stroke-width="0.705556"/>
		<line x1="377.249" y1="546.3" x2="377.249" y2="546.3" stroke="rgb(255,0,0)" stroke-width="0.705556"/>
		<line x1="377.249" y1="502.967" x2="377.249" y2="502.967" stroke="rgb(255,0,0)" stroke-width="0.705556"/>
		<line x1="377.249" y1="546.3" x2="377.249" y2="546.3" stroke="rgb(255,0,0)" stroke-width="0.705556"/>
		<line x1="372.699" y1="502.967" x2="372.699" y2="546.3" stroke="rgb(255,0,0)" stroke-width="0.705556"/>
		<line x1="372.699" y1="546.3" x2="377.249" y2="546.3" stroke="rgb(255,0,0)" stroke-width="0.705556"/>
		<line x1="377.249" y1="546.3" x2="377.249" y2="502.967" stroke="rgb(255,0,0)" stroke-width="0.705556"/>
		<line x1="377.249" y1="502.967" x2="372.699" y2="502.967" stroke="rgb(255,0,0)" stroke-width="0.705556"/>
		<line x1="377.249" y1="502.967" x2="377.249" y2="502.967" stroke="rgb(255,0,0)" stroke-width="0.705556"/>
		<line x1="377.249" y1="546.3" x2="377.249" y2="546.3" stroke="rgb(255,0,0)" stroke-width="0.705556"/>
		<line x1="165.549" y1="105.9" x2="164.249" y2="104.9" stroke="rgb(255,0,0)" stroke-width="0.705556"/>
		<line x1="164.249" y1="104.9" x2="164.249" y2="63.5669" stroke="rgb(255,0,0)" stroke-width="0.705556"/>
		<line x1="164.249" y1="63.5669" x2="165.549" y2="62.5669" stroke="rgb(255,0,0)" stroke-width="0.705556"/>
		<line x1="377.249" y1="62.5669" x2="377.249" y2="62.5669" stroke="rgb(255,0,0)" stroke-width="0.705556"/>
		<line x1="377.249" y1="105.9" x2="377.249" y2="105.9" stroke="rgb(255,0,0)" stroke-width="0.705556"/>
		<line x1="377.249" y1="62.5669" x2="377.249" y2="62.5669" stroke="rgb(255,0,0)" stroke-width="0.705556"/>
		<line x1="377.249" y1="105.9" x2="377.249" y2="105.9" stroke="rgb(255,0,0)" stroke-width="0.705556"/>
		<line x1="377.249" y1="62.5669" x2="377.249" y2="62.5669" stroke="rgb(255,0,0)" stroke-width="0.705556"/>
		<line x1="377.249" y1="105.9" x2="377.249" y2="105.9" stroke="rgb(255,0,0)" stroke-width="0.705556"/>
		<line x1="377.249" y1="62.5669" x2="377.249" y2="62.5669" stroke="rgb(255,0,0)" stroke-width="0.705556"/>
		<line x1="377.249" y1="105.9" x2="377.249" y2="105.9" stroke="rgb(255,0,0)" stroke-width="0.705556"/>
		<line x1="377.249" y1="62.5669" x2="377.249" y2="62.5669" stroke="rgb(255,0,0)" stroke-width="0.705556"/>
		<line x1="377.249" y1="105.9" x2="377.249" y2="105.9" stroke="rgb(255,0,0)" stroke-width="0.705556"/>
		<line x1="377.249" y1="62.5669" x2="377.249" y2="62.5669" stroke="rgb(255,0,0)" stroke-width="0.705556"/>
		<line x1="377.249" y1="105.9" x2="377.249" y2="105.9" stroke="rgb(255,0,0)" stroke-width="0.705556"/>
		<line x1="377.249" y1="62.5669" x2="377.249" y2="62.5669" stroke="rgb(255,0,0)" stroke-width="0.705556"/>
		<line x1="377.249" y1="105.9" x2="377.249" y2="105.9" stroke="rgb(255,0,0)" stroke-width="0.705556"/>
		<line x1="377.249" y1="62.5669" x2="377.249" y2="62.5669" stroke="rgb(255,0,0)" stroke-width="0.705556"/>
		<line x1="377.249" y1="105.9" x2="377.249" y2="105.9" stroke="rgb(255,0,0)" stroke-width="0.705556"/>
		<line x1="377.249" y1="62.5669" x2="377.249" y2="62.5669" stroke="rgb(255,0,0)" stroke-width="0.705556"/>
		<line x1="377.249" y1="105.9" x2="377.249" y2="105.9" stroke="rgb(255,0,0)" stroke-width="0.705556"/>
		<line x1="372.699" y1="62.5669" x2="372.699" y2="105.9" stroke="rgb(255,0,0)" stroke-width="0.705556"/>
		<line x1="372.699" y1="105.9" x2="377.249" y2="105.9" stroke="rgb(255,0,0)" stroke-width="0.705556"/>
		<line x1="377.249" y1="105.9" x2="377.249" y2="62.5669" stroke="rgb(255,0,0)" stroke-width="0.705556"/>
		<line x1="377.249" y1="62.5669" x2="372.699" y2="62.5669" stroke="rgb(255,0,0)" stroke-width="0.705556"/>
		<line x1="377.249" y1="62.5669" x2="377.249" y2="62.5669" stroke="rgb(255,0,0)" stroke-width="0.705556"/>
		<line x1="377.249" y1="105.9" x2="377.249" y2="105.9" stroke="rgb(255,0,0)" stroke-width="0.705556"/>
	</g>
</svg>