<svg version = "1.1" xmlns = "http://www.w3.org/2000/svg" xmlns:xlink="http://www.w3.org/1999/xlink" width="763.006" height="611.106" viewbox = "0 0 763.006 611.106">
	<g transform="translate(-20.1289,617.536) scale(1,-1) ">
		<line x1="380.232" y1="466.533" x2="380.232" y2="157.433" stroke="rgb(255,255,0)" stroke-width="0.705556"/>
		<line x1="277.632" y1="466.533" x2="277.632" y2="466.533" stroke="rgb(255,0,0)" stroke-width="0.705556"/>
		<line x1="277.632" y1="617.183" x2="378.932" y2="617.183" stroke="rgb(255,0,0)" stroke-width="0.705556"/>
		<line x1="378.932" y1="617.183" x2="378.932" y2="566.858" stroke="rgb(255,255,0)" stroke-width="0.705556"/>
		<line x1="378.932" y1="516.858" x2="378.932" y2="466.533" stroke="rgb(255,255,0)" stroke-width="0.705556"/>
		<line x1="277.632" y1="466.533" x2="378.932" y2="466.533" stroke="rgb(255,255,0)" stroke-width="0.705556"/>
		<line x1="378.932" y1="466.533" x2="380.232" y2="467.183" stroke="rgb(255,0,0)" stroke-width="0.705556"/>
		<line x1="380.232" y1="467.183" x2="531.532" y2="467.183" stroke="rgb(255,0,0)" stroke-width="0.705556"/>
		<line x1="380.232" y1="466.533" x2="380.232" y2="467.183" stroke="rgb(255,255,0)" stroke-width="0.705556"/>
		<line x1="277.632" y1="157.433" x2="277.632" y2="157.433" stroke="rgb(255,0,0)" stroke-width="0.705556"/>
		<line x1="277.632" y1="6.78325" x2="378.932" y2="6.78325" stroke="rgb(255,0,0)" stroke-width="0.705556"/>
		<line x1="378.932" y1="6.78325" x2="378.932" y2="57.1083" stroke="rgb(255,255,0)" stroke-width="0.705556"/>
		<line x1="378.932" y1="107.108" x2="378.932" y2="157.433" stroke="rgb(255,255,0)" stroke-width="0.705556"/>
		<line x1="277.632" y1="157.433" x2="378.932" y2="157.433" stroke="rgb(255,255,0)" stroke-width="0.705556"/>
		<line x1="378.932" y1="157.433" x2="380.232" y2="156.783" stroke="rgb(255,0,0)" stroke-width="0.705556"/>
		<line x1="380.232" y1="156.783" x2="531.532" y2="156.783" stroke="rgb(255,0,0)" stroke-width="0.705556"/>
		<line x1="380.232" y1="157.433" x2="380.232" y2="156.783" stroke="rgb(255,255,0)" stroke-width="0.705556"/>
		<line x1="531.532" y1="463.283" x2="531.532" y2="160.683" stroke="rgb(255,255,0)" stroke-width="0.705556"/>
		<line x1="632.782" y1="463.283" x2="632.782" y2="463.283" stroke="rgb(255,0,0)" stroke-width="0.705556"/>
		<line x1="632.782" y1="558.683" x2="632.782" y2="613.933" stroke="rgb(255,0,0)" stroke-width="0.705556"/>
		<line x1="632.782" y1="613.933" x2="533.482" y2="613.933" stroke="rgb(255,0,0)" stroke-width="0.705556"/>
		<line x1="533.482" y1="613.933" x2="533.482" y2="463.283" stroke="rgb(255,0,0)" stroke-width="0.705556"/>
		<line x1="632.782" y1="463.283" x2="533.482" y2="463.283" stroke="rgb(255,255,0)" stroke-width="0.705556"/>
		<line x1="632.782" y1="160.683" x2="632.782" y2="160.683" stroke="rgb(255,0,0)" stroke-width="0.705556"/>
		<line x1="632.782" y1="65.2833" x2="632.782" y2="10.0333" stroke="rgb(255,0,0)" stroke-width="0.705556"/>
		<line x1="632.782" y1="10.0333" x2="533.482" y2="10.0333" stroke="rgb(255,0,0)" stroke-width="0.705556"/>
		<line x1="533.482" y1="10.0333" x2="533.482" y2="160.683" stroke="rgb(255,0,0)" stroke-width="0.705556"/>
		<line x1="632.782" y1="160.683" x2="533.482" y2="160.683" stroke="rgb(255,255,0)" stroke-width="0.705556"/>
		<line x1="531.532" y1="467.183" x2="533.482" y2="463.283" stroke="rgb(255,0,0)" stroke-width="0.705556"/>
		<line x1="531.532" y1="463.283" x2="531.532" y2="467.183" stroke="rgb(255,255,0)" stroke-width="0.705556"/>
		<line x1="531.532" y1="156.783" x2="533.482" y2="160.683" stroke="rgb(255,0,0)" stroke-width="0.705556"/>
		<line x1="531.532" y1="160.683" x2="531.532" y2="156.783" stroke="rgb(255,255,0)" stroke-width="0.705556"/>
		<line x1="533.482" y1="613.933" x2="533.482" y2="617.183" stroke="rgb(255,0,0)" stroke-width="0.705556"/>
		<line x1="533.482" y1="617.183" x2="378.932" y2="617.183" stroke="rgb(255,0,0)" stroke-width="0.705556"/>
		<line x1="533.482" y1="10.0333" x2="533.482" y2="6.78325" stroke="rgb(255,0,0)" stroke-width="0.705556"/>
		<line x1="533.482" y1="6.78325" x2="378.932" y2="6.78325" stroke="rgb(255,0,0)" stroke-width="0.705556"/>
		<line x1="277.632" y1="6.78325" x2="277.632" y2="157.433" stroke="rgb(255,255,0)" stroke-width="0.705556"/>
		<line x1="272.432" y1="7.43325" x2="277.632" y2="6.78325" stroke="rgb(255,0,0)" stroke-width="0.705556"/>
		<line x1="277.632" y1="157.433" x2="272.432" y2="156.783" stroke="rgb(255,0,0)" stroke-width="0.705556"/>
		<line x1="171.782" y1="156.783" x2="123.732" y2="156.783" stroke="rgb(255,0,0)" stroke-width="0.705556"/>
		<line x1="123.732" y1="467.183" x2="171.782" y2="467.183" stroke="rgb(255,0,0)" stroke-width="0.705556"/>
		<line x1="272.432" y1="467.183" x2="277.632" y2="466.533" stroke="rgb(255,0,0)" stroke-width="0.705556"/>
		<line x1="276.332" y1="157.433" x2="276.332" y2="466.533" stroke="rgb(255,255,0)" stroke-width="0.705556"/>
		<line x1="276.332" y1="157.433" x2="276.332" y2="157.271" stroke="rgb(255,255,0)" stroke-width="0.705556"/>
		<line x1="276.332" y1="466.533" x2="276.332" y2="466.696" stroke="rgb(255,255,0)" stroke-width="0.705556"/>
		<line x1="272.432" y1="467.183" x2="171.782" y2="467.183" stroke="rgb(255,0,0)" stroke-width="0.705556"/>
		<line x1="171.782" y1="467.183" x2="171.782" y2="516.858" stroke="rgb(255,0,0)" stroke-width="0.705556"/>
		<line x1="171.782" y1="566.858" x2="171.782" y2="616.533" stroke="rgb(255,0,0)" stroke-width="0.705556"/>
		<line x1="171.782" y1="616.533" x2="272.432" y2="616.533" stroke="rgb(255,0,0)" stroke-width="0.705556"/>
		<line x1="272.432" y1="616.533" x2="272.432" y2="467.183" stroke="rgb(255,255,0)" stroke-width="0.705556"/>
		<line x1="272.432" y1="7.43325" x2="171.782" y2="7.43325" stroke="rgb(255,0,0)" stroke-width="0.705556"/>
		<line x1="171.782" y1="7.43325" x2="171.782" y2="57.1083" stroke="rgb(255,0,0)" stroke-width="0.705556"/>
		<line x1="171.782" y1="107.108" x2="171.782" y2="156.783" stroke="rgb(255,0,0)" stroke-width="0.705556"/>
		<line x1="171.782" y1="156.783" x2="272.432" y2="156.783" stroke="rgb(255,0,0)" stroke-width="0.705556"/>
		<line x1="272.432" y1="156.783" x2="272.432" y2="7.43325" stroke="rgb(255,255,0)" stroke-width="0.705556"/>
		<line x1="123.732" y1="156.783" x2="121.132" y2="158.733" stroke="rgb(255,0,0)" stroke-width="0.705556"/>
		<line x1="121.132" y1="465.233" x2="123.732" y2="467.183" stroke="rgb(255,0,0)" stroke-width="0.705556"/>
		<line x1="123.732" y1="156.783" x2="123.732" y2="467.183" stroke="rgb(255,255,0)" stroke-width="0.705556"/>
		<line x1="20.4817" y1="465.233" x2="20.4817" y2="158.733" stroke="rgb(255,0,0)" stroke-width="0.705556"/>
		<line x1="121.132" y1="465.233" x2="121.132" y2="547.833" stroke="rgb(255,0,0)" stroke-width="0.705556"/>
		<line x1="20.4817" y1="465.233" x2="121.132" y2="465.233" stroke="rgb(255,255,0)" stroke-width="0.705556"/>
		<path d="M121.132,547.833 a100.65 100.65 0 0 1 -100.65,-82.6" fill="none" stroke="rgb(255,0,0)" stroke-width="0.705556"/>
		<line x1="121.132" y1="158.733" x2="121.132" y2="76.1333" stroke="rgb(255,0,0)" stroke-width="0.705556"/>
		<line x1="20.4817" y1="158.733" x2="121.132" y2="158.733" stroke="rgb(255,255,0)" stroke-width="0.705556"/>
		<path d="M121.132,76.1333 a100.65 100.65 0 0 0 -100.65,82.6" fill="none" stroke="rgb(255,0,0)" stroke-width="0.705556"/>
		<line x1="782.782" y1="460.033" x2="782.782" y2="323.983" stroke="rgb(255,0,0)" stroke-width="0.705556"/>
		<line x1="782.782" y1="299.983" x2="782.782" y2="163.933" stroke="rgb(255,0,0)" stroke-width="0.705556"/>
		<line x1="632.782" y1="460.033" x2="632.782" y2="163.933" stroke="rgb(255,255,0)" stroke-width="0.705556"/>
		<line x1="782.782" y1="163.933" x2="782.782" y2="163.933" stroke="rgb(255,0,0)" stroke-width="0.705556"/>
		<line x1="782.782" y1="163.933" x2="632.782" y2="163.933" stroke="rgb(255,255,0)" stroke-width="0.705556"/>
		<line x1="632.782" y1="163.933" x2="632.782" y2="163.933" stroke="rgb(255,0,0)" stroke-width="0.705556"/>
		<line x1="632.782" y1="163.933" x2="632.782" y2="65.2833" stroke="rgb(255,0,0)" stroke-width="0.705556"/>
		<path d="M632.782,65.2833 a150 150 0 0 1 150,98.65" fill="none" stroke="rgb(255,0,0)" stroke-width="0.705556"/>
		<line x1="782.782" y1="460.033" x2="782.782" y2="460.033" stroke="rgb(255,0,0)" stroke-width="0.705556"/>
		<line x1="782.782" y1="460.033" x2="632.782" y2="460.033" stroke="rgb(255,255,0)" stroke-width="0.705556"/>
		<line x1="632.782" y1="460.033" x2="632.782" y2="460.033" stroke="rgb(255,0,0)" stroke-width="0.705556"/>
		<line x1="632.782" y1="460.033" x2="632.782" y2="558.683" stroke="rgb(255,0,0)" stroke-width="0.705556"/>
		<path d="M632.782,558.683 a150 150 0 0 0 150,-98.65" fill="none" stroke="rgb(255,0,0)" stroke-width="0.705556"/>
		<path d="M782.782,323.983 a12 12 0 0 1 0,-24" fill="none" stroke="rgb(255,0,0)" stroke-width="0.705556"/>
		<line x1="334.654" y1="205.159" x2="307.04" y2="205.159" stroke="rgb(64,128,128)" stroke-width="0"/>
		<line x1="316.245" y1="213.643" x2="307.04" y2="213.643" stroke="rgb(64,128,128)" stroke-width="0"/>
		<line x1="325.449" y1="209.401" x2="307.04" y2="209.401" stroke="rgb(64,128,128)" stroke-width="0"/>
		<line x1="343.859" y1="200.917" x2="307.04" y2="200.917" stroke="rgb(64,128,128)" stroke-width="0"/>
		<line x1="353.064" y1="196.675" x2="307.04" y2="196.675" stroke="rgb(64,128,128)" stroke-width="0"/>
		<line x1="362.269" y1="192.433" x2="307.04" y2="192.433" stroke="rgb(64,128,128)" stroke-width="0"/>
		<line x1="307.04" y1="217.885" x2="307.04" y2="192.433" stroke="rgb(64,128,128)" stroke-width="0"/>
		<line x1="362.269" y1="192.433" x2="333.951" y2="220.708" stroke="rgb(64,128,128)" stroke-width="0"/>
		<path d="M333.951,220.708 a26.6045 26.6045 0 0 0 -26.9118,-2.82257" fill="none" stroke="rgb(64,128,128)" stroke-width="0"/>
		<line x1="307.04" y1="217.885" x2="362.269" y2="192.433" stroke="rgb(64,128,128)" stroke-width="0"/>
		<line x1="277.632" y1="466.533" x2="277.632" y2="617.183" stroke="rgb(255,255,0)" stroke-width="0.705556"/>
		<line x1="277.632" y1="617.183" x2="272.432" y2="616.533" stroke="rgb(255,0,0)" stroke-width="0.705556"/>
		<line x1="272.432" y1="467.183" x2="277.632" y2="466.533" stroke="rgb(255,0,0)" stroke-width="0.705556"/>
		<line x1="171.782" y1="566.858" x2="169.832" y2="565.858" stroke="rgb(255,0,0)" stroke-width="0.705556"/>
		<line x1="169.832" y1="565.858" x2="169.832" y2="517.858" stroke="rgb(255,0,0)" stroke-width="0.705556"/>
		<line x1="169.832" y1="517.858" x2="171.782" y2="516.858" stroke="rgb(255,0,0)" stroke-width="0.705556"/>
		<line x1="383.482" y1="516.858" x2="383.482" y2="516.858" stroke="rgb(255,0,0)" stroke-width="0.705556"/>
		<line x1="383.482" y1="566.858" x2="383.482" y2="566.858" stroke="rgb(255,0,0)" stroke-width="0.705556"/>
		<line x1="383.482" y1="516.858" x2="383.482" y2="516.858" stroke="rgb(255,0,0)" stroke-width="0.705556"/>
		<line x1="383.482" y1="566.858" x2="383.482" y2="566.858" stroke="rgb(255,0,0)" stroke-width="0.705556"/>
		<line x1="383.482" y1="516.858" x2="383.482" y2="516.858" stroke="rgb(255,0,0)" stroke-width="0.705556"/>
		<line x1="383.482" y1="566.858" x2="383.482" y2="566.858" stroke="rgb(255,0,0)" stroke-width="0.705556"/>
		<line x1="383.482" y1="516.858" x2="383.482" y2="516.858" stroke="rgb(255,0,0)" stroke-width="0.705556"/>
		<line x1="383.482" y1="566.858" x2="383.482" y2="566.858" stroke="rgb(255,0,0)" stroke-width="0.705556"/>
		<line x1="383.482" y1="516.858" x2="383.482" y2="516.858" stroke="rgb(255,0,0)" stroke-width="0.705556"/>
		<line x1="383.482" y1="566.858" x2="383.482" y2="566.858" stroke="rgb(255,0,0)" stroke-width="0.705556"/>
		<line x1="383.482" y1="516.858" x2="383.482" y2="516.858" stroke="rgb(255,0,0)" stroke-width="0.705556"/>
		<line x1="383.482" y1="566.858" x2="383.482" y2="566.858" stroke="rgb(255,0,0)" stroke-width="0.705556"/>
		<line x1="383.482" y1="516.858" x2="383.482" y2="516.858" stroke="rgb(255,0,0)" stroke-width="0.705556"/>
		<line x1="383.482" y1="566.858" x2="383.482" y2="566.858" stroke="rgb(255,0,0)" stroke-width="0.705556"/>
		<line x1="383.482" y1="516.858" x2="383.482" y2="516.858" stroke="rgb(255,0,0)" stroke-width="0.705556"/>
		<line x1="383.482" y1="566.858" x2="383.482" y2="566.858" stroke="rgb(255,0,0)" stroke-width="0.705556"/>
		<line x1="383.482" y1="516.858" x2="383.482" y2="516.858" stroke="rgb(255,0,0)" stroke-width="0.705556"/>
		<line x1="383.482" y1="566.858" x2="383.482" y2="566.858" stroke="rgb(255,0,0)" stroke-width="0.705556"/>
		<line x1="378.932" y1="516.858" x2="378.932" y2="566.858" stroke="rgb(255,0,0)" stroke-width="0.705556"/>
		<line x1="378.932" y1="566.858" x2="383.482" y2="566.858" stroke="rgb(255,0,0)" stroke-width="0.705556"/>
		<line x1="383.482" y1="566.858" x2="383.482" y2="516.858" stroke="rgb(255,0,0)" stroke-width="0.705556"/>
		<line x1="383.482" y1="516.858" x2="378.932" y2="516.858" stroke="rgb(255,0,0)" stroke-width="0.705556"/>
		<line x1="383.482" y1="516.858" x2="383.482" y2="516.858" stroke="rgb(255,0,0)" stroke-width="0.705556"/>
		<line x1="383.482" y1="566.858" x2="383.482" y2="566.858" stroke="rgb(255,0,0)" stroke-width="0.705556"/>
		<line x1="171.782" y1="107.108" x2="169.832" y2="106.108" stroke="rgb(255,0,0)" stroke-width="0.705556"/>
		<line x1="169.832" y1="106.108" x2="169.832" y2="58.1083" stroke="rgb(255,0,0)" stroke-width="0.705556"/>
		<line x1="169.832" y1="58.1083" x2="171.782" y2="57.1083" stroke="rgb(255,0,0)" stroke-width="0.705556"/>
		<line x1="383.482" y1="57.1083" x2="383.482" y2="57.1083" stroke="rgb(255,0,0)" stroke-width="0.705556"/>
		<line x1="383.482" y1="107.108" x2="383.482" y2="107.108" stroke="rgb(255,0,0)" stroke-width="0.705556"/>
		<line x1="383.482" y1="57.1083" x2="383.482" y2="57.1083" stroke="rgb(255,0,0)" stroke-width="0.705556"/>
		<line x1="383.482" y1="107.108" x2="383.482" y2="107.108" stroke="rgb(255,0,0)" stroke-width="0.705556"/>
		<line x1="383.482" y1="57.1083" x2="383.482" y2="57.1083" stroke="rgb(255,0,0)" stroke-width="0.705556"/>
		<line x1="383.482" y1="107.108" x2="383.482" y2="107.108" stroke="rgb(255,0,0)" stroke-width="0.705556"/>
		<line x1="383.482" y1="57.1083" x2="383.482" y2="57.1083" stroke="rgb(255,0,0)" stroke-width="0.705556"/>
		<line x1="383.482" y1="107.108" x2="383.482" y2="107.108" stroke="rgb(255,0,0)" stroke-width="0.705556"/>
		<line x1="383.482" y1="57.1083" x2="383.482" y2="57.1083" stroke="rgb(255,0,0)" stroke-width="0.705556"/>
		<line x1="383.482" y1="107.108" x2="383.482" y2="107.108" stroke="rgb(255,0,0)" stroke-width="0.705556"/>
		<line x1="383.482" y1="57.1083" x2="383.482" y2="57.1083" stroke="rgb(255,0,0)" stroke-width="0.705556"/>
		<line x1="383.482" y1="107.108" x2="383.482" y2="107.108" stroke="rgb(255,0,0)" stroke-width="0.705556"/>
		<line x1="383.482" y1="57.1083" x2="383.482" y2="57.1083" stroke="rgb(255,0,0)" stroke-width="0.705556"/>
		<line x1="383.482" y1="107.108" x2="383.482" y2="107.108" stroke="rgb(255,0,0)" stroke-width="0.705556"/>
		<line x1="383.482" y1="57.1083" x2="383.482" y2="57.1083" stroke="rgb(255,0,0)" stroke-width="0.705556"/>
		<line x1="383.482" y1="107.108" x2="383.482" y2="107.108" stroke="rgb(255,0,0)" stroke-width="0.705556"/>
		<line x1="383.482" y1="57.1083" x2="383.482" y2="57.1083" stroke="rgb(255,0,0)" stroke-width="0.705556"/>
		<line x1="383.482" y1="107.108" x2="383.482" y2="107.108" stroke="rgb(255,0,0)" stroke-width="0.705556"/>
		<line x1="378.932" y1="57.1083" x2="378.932" y2="107.108" stroke="rgb(255,0,0)" stroke-width="0.705556"/>
		<line x1="378.932" y1="107.108" x2="383.482" y2="107.108" stroke="rgb(255,0,0)" stroke-width="0.705556"/>
		<line x1="383.482" y1="107.108" x2="383.482" y2="57.1083" stroke="rgb(255,0,0)" stroke-width="0.705556"/>
		<line x1="383.482" y1="57.1083" x2="378.932" y2="57.1083" stroke="rgb(255,0,0)" stroke-width="0.705556"/>
		<line x1="383.482" y1="57.1083" x2="383.482" y2="57.1083" stroke="rgb(255,0,0)" stroke-width="0.705556"/>
		<line x1="383.482" y1="107.108" x2="383.482" y2="107.108" stroke="rgb(255,0,0)" stroke-width="0.705556"/>
	</g>
</svg>