<svg version = "1.1" xmlns = "http://www.w3.org/2000/svg" xmlns:xlink="http://www.w3.org/1999/xlink" width="301.927" height="212.656" viewbox = "0 0 301.927 212.656">
	<g transform="translate(-121.194,280.732) scale(1,-1) ">
		<line x1="184.885" y1="68.4295" x2="236.185" y2="68.4295" stroke="rgb(255,0,0)" stroke-width="0.705556"/>
		<line x1="236.185" y1="68.4295" x2="236.185" y2="148.43" stroke="rgb(255,255,0)" stroke-width="0.705556"/>
		<line x1="236.185" y1="148.43" x2="215.01" y2="148.43" stroke="rgb(255,0,0)" stroke-width="0.705556"/>
		<line x1="337.485" y1="133.755" x2="337.485" y2="68.4295" stroke="rgb(255,255,0)" stroke-width="0.705556"/>
		<line x1="236.185" y1="148.43" x2="286.835" y2="148.43" stroke="rgb(255,0,0)" stroke-width="0.705556"/>
		<line x1="337.485" y1="68.4295" x2="236.185" y2="68.4295" stroke="rgb(255,0,0)" stroke-width="0.705556"/>
		<line x1="337.485" y1="68.4295" x2="388.785" y2="68.4295" stroke="rgb(255,0,0)" stroke-width="0.705556"/>
		<line x1="388.785" y1="148.43" x2="337.485" y2="148.43" stroke="rgb(255,0,0)" stroke-width="0.705556"/>
		<line x1="184.885" y1="68.4295" x2="150.901" y2="68.4295" stroke="rgb(255,0,0)" stroke-width="0.705556"/>
		<line x1="150.901" y1="68.4295" x2="150.901" y2="148.43" stroke="rgb(255,0,0)" stroke-width="0.705556"/>
		<line x1="184.885" y1="148.43" x2="184.885" y2="68.4295" stroke="rgb(255,255,0)" stroke-width="0.705556"/>
		<line x1="388.785" y1="148.43" x2="422.768" y2="148.43" stroke="rgb(255,0,0)" stroke-width="0.705556"/>
		<line x1="422.768" y1="148.43" x2="422.768" y2="68.4295" stroke="rgb(255,0,0)" stroke-width="0.705556"/>
		<line x1="422.768" y1="68.4295" x2="388.785" y2="68.4295" stroke="rgb(255,0,0)" stroke-width="0.705556"/>
		<line x1="388.785" y1="68.4295" x2="388.785" y2="148.43" stroke="rgb(255,255,0)" stroke-width="0.705556"/>
		<line x1="286.835" y1="148.43" x2="319.497" y2="115.767" stroke="rgb(255,0,0)" stroke-width="0.705556"/>
		<line x1="319.497" y1="115.767" x2="337.485" y2="133.755" stroke="rgb(255,255,0)" stroke-width="0.705556"/>
		<line x1="337.485" y1="133.755" x2="337.485" y2="148.43" stroke="rgb(255,0,0)" stroke-width="0.705556"/>
		<line x1="352.81" y1="148.43" x2="352.81" y2="280.38" stroke="rgb(255,255,0)" stroke-width="0.705556"/>
		<line x1="271.51" y1="148.43" x2="271.51" y2="280.38" stroke="rgb(255,255,0)" stroke-width="0.705556"/>
		<line x1="408.01" y1="280.38" x2="408.01" y2="225.551" stroke="rgb(255,255,0)" stroke-width="0.705556"/>
		<line x1="408.01" y1="203.258" x2="408.01" y2="148.43" stroke="rgb(255,255,0)" stroke-width="0.705556"/>
		<line x1="422.768" y1="280.38" x2="422.768" y2="148.43" stroke="rgb(255,0,0)" stroke-width="0.705556"/>
		<line x1="406.71" y1="227.218" x2="410.61" y2="222.218" stroke="rgb(255,0,0)" stroke-width="0.705556"/>
		<line x1="410.61" y1="222.218" x2="410.61" y2="206.591" stroke="rgb(255,0,0)" stroke-width="0.705556"/>
		<line x1="410.61" y1="206.591" x2="406.71" y2="201.591" stroke="rgb(255,0,0)" stroke-width="0.705556"/>
		<line x1="286.835" y1="148.43" x2="337.485" y2="148.43" stroke="rgb(255,255,0)" stroke-width="0.705556"/>
		<line x1="215.01" y1="148.43" x2="134.36" y2="148.43" stroke="rgb(255,0,0)" stroke-width="0.705556"/>
		<line x1="134.36" y1="148.43" x2="134.36" y2="204.591" stroke="rgb(255,0,0)" stroke-width="0.705556"/>
		<line x1="134.36" y1="224.218" x2="134.36" y2="280.38" stroke="rgb(255,0,0)" stroke-width="0.705556"/>
		<line x1="134.36" y1="280.38" x2="215.01" y2="280.38" stroke="rgb(255,0,0)" stroke-width="0.705556"/>
		<line x1="215.01" y1="280.38" x2="215.01" y2="148.43" stroke="rgb(255,255,0)" stroke-width="0.705556"/>
		<line x1="215.01" y1="280.38" x2="422.768" y2="280.38" stroke="rgb(255,0,0)" stroke-width="0.705556"/>
		<line x1="134.36" y1="204.591" x2="131.36" y2="204.591" stroke="rgb(255,0,0)" stroke-width="0.705556"/>
		<line x1="131.36" y1="204.591" x2="131.36" y2="201.591" stroke="rgb(255,0,0)" stroke-width="0.705556"/>
		<line x1="131.36" y1="201.591" x2="121.546" y2="206.591" stroke="rgb(255,0,0)" stroke-width="0.705556"/>
		<line x1="121.546" y1="206.591" x2="121.546" y2="222.218" stroke="rgb(255,0,0)" stroke-width="0.705556"/>
		<line x1="121.546" y1="222.218" x2="131.36" y2="227.218" stroke="rgb(255,0,0)" stroke-width="0.705556"/>
		<line x1="131.36" y1="227.218" x2="131.36" y2="224.218" stroke="rgb(255,0,0)" stroke-width="0.705556"/>
		<line x1="131.36" y1="224.218" x2="134.36" y2="224.218" stroke="rgb(255,0,0)" stroke-width="0.705556"/>
		<line x1="134.36" y1="224.218" x2="134.36" y2="204.591" stroke="rgb(255,255,0)" stroke-width="0.705556"/>
		<line x1="315.346" y1="169.793" x2="301.539" y2="169.793" stroke="rgb(64,128,128)" stroke-width="0"/>
		<line x1="306.141" y1="174.035" x2="301.539" y2="174.035" stroke="rgb(64,128,128)" stroke-width="0"/>
		<line x1="310.744" y1="171.914" x2="301.539" y2="171.914" stroke="rgb(64,128,128)" stroke-width="0"/>
		<line x1="319.948" y1="167.672" x2="301.539" y2="167.672" stroke="rgb(64,128,128)" stroke-width="0"/>
		<line x1="324.551" y1="165.551" x2="301.539" y2="165.551" stroke="rgb(64,128,128)" stroke-width="0"/>
		<line x1="329.153" y1="163.43" x2="301.539" y2="163.43" stroke="rgb(64,128,128)" stroke-width="0"/>
		<line x1="301.539" y1="176.156" x2="301.539" y2="163.43" stroke="rgb(64,128,128)" stroke-width="0"/>
		<line x1="329.153" y1="163.43" x2="314.994" y2="177.567" stroke="rgb(64,128,128)" stroke-width="0"/>
		<path d="M314.994,177.567 a13.3022 13.3022 0 0 0 -13.4559,-1.41128" fill="none" stroke="rgb(64,128,128)" stroke-width="0"/>
		<line x1="301.539" y1="176.156" x2="329.153" y2="163.43" stroke="rgb(64,128,128)" stroke-width="0"/>
	</g>
</svg>