<svg version = "1.1" xmlns = "http://www.w3.org/2000/svg" xmlns:xlink="http://www.w3.org/1999/xlink" width="889.606" height="200.706" viewbox = "0 0 889.606 200.706">
	<g transform="translate(-5.03696,200.53) scale(1,-1) ">
		<line x1="30.3897" y1="0.177609" x2="311.69" y2="0.177609" stroke="rgb(255,0,0)" stroke-width="0.705556"/>
		<line x1="311.69" y1="0.177609" x2="311.69" y2="200.178" stroke="rgb(255,255,0)" stroke-width="0.705556"/>
		<line x1="311.69" y1="200.178" x2="30.3897" y2="200.178" stroke="rgb(255,0,0)" stroke-width="0.705556"/>
		<line x1="462.99" y1="200.178" x2="462.99" y2="0.177609" stroke="rgb(255,255,0)" stroke-width="0.705556"/>
		<line x1="311.69" y1="200.178" x2="462.99" y2="200.178" stroke="rgb(255,0,0)" stroke-width="0.705556"/>
		<line x1="462.99" y1="0.177609" x2="311.69" y2="0.177609" stroke="rgb(255,0,0)" stroke-width="0.705556"/>
		<line x1="744.29" y1="0.177609" x2="744.29" y2="200.178" stroke="rgb(255,255,0)" stroke-width="0.705556"/>
		<line x1="462.99" y1="0.177609" x2="744.29" y2="0.177609" stroke="rgb(255,0,0)" stroke-width="0.705556"/>
		<line x1="744.29" y1="200.178" x2="462.99" y2="200.178" stroke="rgb(255,0,0)" stroke-width="0.705556"/>
		<line x1="894.29" y1="200.178" x2="894.29" y2="0.177609" stroke="rgb(255,0,0)" stroke-width="0.705556"/>
		<line x1="744.29" y1="200.178" x2="894.29" y2="200.178" stroke="rgb(255,0,0)" stroke-width="0.705556"/>
		<line x1="894.29" y1="0.177609" x2="744.29" y2="0.177609" stroke="rgb(255,0,0)" stroke-width="0.705556"/>
		<line x1="30.3897" y1="0.177609" x2="30.3897" y2="200.178" stroke="rgb(255,255,0)" stroke-width="0.705556"/>
		<line x1="30.3897" y1="200.178" x2="5.38974" y2="200.178" stroke="rgb(255,0,0)" stroke-width="0.705556"/>
		<line x1="5.38974" y1="200.178" x2="5.38974" y2="0.177609" stroke="rgb(255,0,0)" stroke-width="0.705556"/>
		<line x1="5.38974" y1="0.177609" x2="30.3897" y2="0.177609" stroke="rgb(255,0,0)" stroke-width="0.705556"/>
		<line x1="174.774" y1="52.7924" x2="174.774" y2="25.1776" stroke="rgb(64,128,128)" stroke-width="0"/>
		<line x1="183.258" y1="34.3825" x2="183.258" y2="25.1776" stroke="rgb(64,128,128)" stroke-width="0"/>
		<line x1="179.016" y1="43.5875" x2="179.016" y2="25.1776" stroke="rgb(64,128,128)" stroke-width="0"/>
		<line x1="170.532" y1="61.9973" x2="170.532" y2="25.1776" stroke="rgb(64,128,128)" stroke-width="0"/>
		<line x1="166.29" y1="71.2023" x2="166.29" y2="25.1776" stroke="rgb(64,128,128)" stroke-width="0"/>
		<line x1="162.048" y1="80.4072" x2="162.048" y2="25.1776" stroke="rgb(64,128,128)" stroke-width="0"/>
		<line x1="187.5" y1="25.1776" x2="162.048" y2="25.1776" stroke="rgb(64,128,128)" stroke-width="0"/>
		<line x1="162.048" y1="80.4072" x2="190.323" y2="52.0894" stroke="rgb(64,128,128)" stroke-width="0"/>
		<path d="M190.323,52.0894 a26.6045 26.6045 0 0 1 -2.82257,-26.9118" fill="none" stroke="rgb(64,128,128)" stroke-width="0"/>
		<line x1="187.5" y1="25.1776" x2="162.048" y2="80.4072" stroke="rgb(64,128,128)" stroke-width="0"/>
	</g>
</svg>