<svg version = "1.1" xmlns = "http://www.w3.org/2000/svg" xmlns:xlink="http://www.w3.org/1999/xlink" width="725.906" height="200.706" viewbox = "0 0 725.906 200.706">
	<g transform="translate(-92.6601,266.51) scale(1,-1) ">
		<line x1="596.263" y1="266.157" x2="314.963" y2="266.157" stroke="rgb(255,0,0)" stroke-width="0.705556"/>
		<line x1="314.963" y1="66.1573" x2="596.263" y2="66.1573" stroke="rgb(255,0,0)" stroke-width="0.705556"/>
		<line x1="314.963" y1="66.1573" x2="163.663" y2="66.1573" stroke="rgb(255,0,0)" stroke-width="0.705556"/>
		<line x1="163.663" y1="266.157" x2="314.963" y2="266.157" stroke="rgb(255,0,0)" stroke-width="0.705556"/>
		<line x1="314.963" y1="266.157" x2="314.963" y2="66.1573" stroke="rgb(255,255,0)" stroke-width="0.705556"/>
		<line x1="596.263" y1="266.157" x2="747.563" y2="266.157" stroke="rgb(255,0,0)" stroke-width="0.705556"/>
		<line x1="747.563" y1="66.1573" x2="596.263" y2="66.1573" stroke="rgb(255,0,0)" stroke-width="0.705556"/>
		<line x1="596.263" y1="66.1573" x2="596.263" y2="266.157" stroke="rgb(255,255,0)" stroke-width="0.705556"/>
		<line x1="747.563" y1="266.157" x2="818.213" y2="266.157" stroke="rgb(255,0,0)" stroke-width="0.705556"/>
		<line x1="818.213" y1="266.157" x2="818.213" y2="66.1573" stroke="rgb(255,0,0)" stroke-width="0.705556"/>
		<line x1="818.213" y1="66.1573" x2="747.563" y2="66.1573" stroke="rgb(255,0,0)" stroke-width="0.705556"/>
		<line x1="747.563" y1="66.1573" x2="747.563" y2="266.157" stroke="rgb(255,255,0)" stroke-width="0.705556"/>
		<line x1="163.663" y1="66.1573" x2="93.0129" y2="66.1573" stroke="rgb(255,0,0)" stroke-width="0.705556"/>
		<line x1="93.0129" y1="66.1573" x2="93.0129" y2="266.157" stroke="rgb(255,0,0)" stroke-width="0.705556"/>
		<line x1="93.0129" y1="266.157" x2="163.663" y2="266.157" stroke="rgb(255,0,0)" stroke-width="0.705556"/>
		<line x1="163.663" y1="266.157" x2="163.663" y2="66.1573" stroke="rgb(255,255,0)" stroke-width="0.705556"/>
		<line x1="239.313" y1="118.772" x2="239.313" y2="91.1573" stroke="rgb(64,128,128)" stroke-width="0"/>
		<line x1="247.797" y1="100.362" x2="247.797" y2="91.1573" stroke="rgb(64,128,128)" stroke-width="0"/>
		<line x1="243.555" y1="109.567" x2="243.555" y2="91.1573" stroke="rgb(64,128,128)" stroke-width="0"/>
		<line x1="235.071" y1="127.977" x2="235.071" y2="91.1573" stroke="rgb(64,128,128)" stroke-width="0"/>
		<line x1="230.829" y1="137.182" x2="230.829" y2="91.1573" stroke="rgb(64,128,128)" stroke-width="0"/>
		<line x1="226.587" y1="146.387" x2="226.587" y2="91.1573" stroke="rgb(64,128,128)" stroke-width="0"/>
		<line x1="252.039" y1="91.1573" x2="226.587" y2="91.1573" stroke="rgb(64,128,128)" stroke-width="0"/>
		<line x1="226.587" y1="146.387" x2="254.861" y2="118.069" stroke="rgb(64,128,128)" stroke-width="0"/>
		<path d="M254.861,118.069 a26.6045 26.6045 0 0 1 -2.82257,-26.9118" fill="none" stroke="rgb(64,128,128)" stroke-width="0"/>
		<line x1="252.039" y1="91.1573" x2="226.587" y2="146.387" stroke="rgb(64,128,128)" stroke-width="0"/>
	</g>
</svg>