<svg version = "1.1" xmlns = "http://www.w3.org/2000/svg" xmlns:xlink="http://www.w3.org/1999/xlink" width="581.606" height="278.106" viewbox = "0 0 581.606 278.106">
	<g transform="translate(-5.86866,310.77) scale(1,-1) ">
		<line x1="26.2214" y1="33.0169" x2="223.621" y2="33.0169" stroke="rgb(255,0,0)" stroke-width="0.705556"/>
		<line x1="223.621" y1="33.0169" x2="223.621" y2="310.417" stroke="rgb(255,255,0)" stroke-width="0.705556"/>
		<line x1="223.621" y1="310.417" x2="26.2214" y2="310.417" stroke="rgb(255,0,0)" stroke-width="0.705556"/>
		<line x1="369.721" y1="310.417" x2="369.721" y2="33.0169" stroke="rgb(255,255,0)" stroke-width="0.705556"/>
		<line x1="223.621" y1="310.417" x2="369.721" y2="310.417" stroke="rgb(255,0,0)" stroke-width="0.705556"/>
		<line x1="369.721" y1="33.0169" x2="223.621" y2="33.0169" stroke="rgb(255,0,0)" stroke-width="0.705556"/>
		<line x1="369.721" y1="33.0169" x2="567.121" y2="33.0169" stroke="rgb(255,0,0)" stroke-width="0.705556"/>
		<line x1="567.121" y1="310.417" x2="369.721" y2="310.417" stroke="rgb(255,0,0)" stroke-width="0.705556"/>
		<line x1="26.2214" y1="33.0169" x2="26.2214" y2="310.417" stroke="rgb(255,255,0)" stroke-width="0.705556"/>
		<line x1="26.2214" y1="310.417" x2="6.22144" y2="310.417" stroke="rgb(255,0,0)" stroke-width="0.705556"/>
		<line x1="6.22144" y1="310.417" x2="6.22144" y2="33.0169" stroke="rgb(255,0,0)" stroke-width="0.705556"/>
		<line x1="6.22144" y1="33.0169" x2="26.2214" y2="33.0169" stroke="rgb(255,0,0)" stroke-width="0.705556"/>
		<line x1="567.121" y1="310.417" x2="567.121" y2="33.0169" stroke="rgb(255,255,0)" stroke-width="0.705556"/>
		<line x1="567.121" y1="33.0169" x2="587.121" y2="33.0169" stroke="rgb(255,0,0)" stroke-width="0.705556"/>
		<line x1="587.121" y1="33.0169" x2="587.121" y2="310.417" stroke="rgb(255,0,0)" stroke-width="0.705556"/>
		<line x1="587.121" y1="310.417" x2="567.121" y2="310.417" stroke="rgb(255,0,0)" stroke-width="0.705556"/>
		<line x1="296.671" y1="85.6316" x2="296.671" y2="58.0169" stroke="rgb(64,128,128)" stroke-width="0"/>
		<line x1="305.155" y1="67.2218" x2="305.155" y2="58.0169" stroke="rgb(64,128,128)" stroke-width="0"/>
		<line x1="300.913" y1="76.4267" x2="300.913" y2="58.0169" stroke="rgb(64,128,128)" stroke-width="0"/>
		<line x1="292.429" y1="94.8366" x2="292.429" y2="58.0169" stroke="rgb(64,128,128)" stroke-width="0"/>
		<line x1="288.187" y1="104.042" x2="288.187" y2="58.0169" stroke="rgb(64,128,128)" stroke-width="0"/>
		<line x1="283.945" y1="113.246" x2="283.945" y2="58.0169" stroke="rgb(64,128,128)" stroke-width="0"/>
		<line x1="309.397" y1="58.0169" x2="283.945" y2="58.0169" stroke="rgb(64,128,128)" stroke-width="0"/>
		<line x1="283.945" y1="113.246" x2="312.22" y2="84.9287" stroke="rgb(64,128,128)" stroke-width="0"/>
		<path d="M312.22,84.9287 a26.6045 26.6045 0 0 1 -2.82257,-26.9118" fill="none" stroke="rgb(64,128,128)" stroke-width="0"/>
		<line x1="309.397" y1="58.0169" x2="283.945" y2="113.246" stroke="rgb(64,128,128)" stroke-width="0"/>
	</g>
</svg>