<svg version = "1.1" xmlns = "http://www.w3.org/2000/svg" xmlns:xlink="http://www.w3.org/1999/xlink" width="347.206" height="738.506" viewbox = "0 0 347.206 738.506">
	<g transform="translate(-6.23355,763.503) scale(1,-1) ">
		<line x1="320.486" y1="208.6" x2="39.1863" y2="208.6" stroke="rgb(255,255,0)" stroke-width="0.705556"/>
		<line x1="39.1863" y1="409.9" x2="320.486" y2="409.9" stroke="rgb(255,255,0)" stroke-width="0.705556"/>
		<line x1="39.1863" y1="208.6" x2="39.1863" y2="210.6" stroke="rgb(255,0,0)" stroke-width="0.705556"/>
		<line x1="39.1863" y1="210.6" x2="6.58633" y2="210.6" stroke="rgb(255,0,0)" stroke-width="0.705556"/>
		<line x1="6.58633" y1="210.6" x2="6.58633" y2="407.9" stroke="rgb(255,0,0)" stroke-width="0.705556"/>
		<line x1="6.58633" y1="407.9" x2="39.1863" y2="407.9" stroke="rgb(255,0,0)" stroke-width="0.705556"/>
		<line x1="39.1863" y1="407.9" x2="39.1863" y2="409.9" stroke="rgb(255,0,0)" stroke-width="0.705556"/>
		<line x1="36.5863" y1="210.6" x2="36.5863" y2="407.9" stroke="rgb(255,255,0)" stroke-width="0.705556"/>
		<line x1="320.486" y1="208.6" x2="320.486" y2="210.6" stroke="rgb(255,0,0)" stroke-width="0.705556"/>
		<line x1="320.486" y1="210.6" x2="353.086" y2="210.6" stroke="rgb(255,0,0)" stroke-width="0.705556"/>
		<line x1="353.086" y1="210.6" x2="353.086" y2="407.9" stroke="rgb(255,0,0)" stroke-width="0.705556"/>
		<line x1="353.086" y1="407.9" x2="320.486" y2="407.9" stroke="rgb(255,0,0)" stroke-width="0.705556"/>
		<line x1="320.486" y1="407.9" x2="320.486" y2="409.9" stroke="rgb(255,0,0)" stroke-width="0.705556"/>
		<line x1="323.086" y1="210.6" x2="323.086" y2="407.9" stroke="rgb(255,255,0)" stroke-width="0.705556"/>
		<line x1="39.1863" y1="562.5" x2="39.1863" y2="763.15" stroke="rgb(255,0,0)" stroke-width="0.705556"/>
		<line x1="39.1863" y1="763.15" x2="320.486" y2="763.15" stroke="rgb(255,0,0)" stroke-width="0.705556"/>
		<line x1="320.486" y1="763.15" x2="320.486" y2="562.5" stroke="rgb(255,0,0)" stroke-width="0.705556"/>
		<line x1="320.486" y1="562.5" x2="39.1863" y2="562.5" stroke="rgb(255,255,0)" stroke-width="0.705556"/>
		<line x1="186.209" y1="93.726" x2="158.594" y2="93.726" stroke="rgb(64,128,128)" stroke-width="0"/>
		<line x1="167.799" y1="102.21" x2="158.594" y2="102.21" stroke="rgb(64,128,128)" stroke-width="0"/>
		<line x1="177.004" y1="97.968" x2="158.594" y2="97.968" stroke="rgb(64,128,128)" stroke-width="0"/>
		<line x1="195.414" y1="89.484" x2="158.594" y2="89.484" stroke="rgb(64,128,128)" stroke-width="0"/>
		<line x1="204.619" y1="85.242" x2="158.594" y2="85.242" stroke="rgb(64,128,128)" stroke-width="0"/>
		<line x1="213.824" y1="81" x2="158.594" y2="81" stroke="rgb(64,128,128)" stroke-width="0"/>
		<line x1="158.594" y1="106.452" x2="158.594" y2="81" stroke="rgb(64,128,128)" stroke-width="0"/>
		<line x1="213.824" y1="81" x2="185.506" y2="109.275" stroke="rgb(64,128,128)" stroke-width="0"/>
		<path d="M185.506,109.275 a26.6045 26.6045 0 0 0 -26.9118,-2.82257" fill="none" stroke="rgb(64,128,128)" stroke-width="0"/>
		<line x1="158.594" y1="106.452" x2="213.824" y2="81" stroke="rgb(64,128,128)" stroke-width="0"/>
		<line x1="320.486" y1="208.6" x2="320.486" y2="206.6" stroke="rgb(255,0,0)" stroke-width="0.705556"/>
		<line x1="320.486" y1="206.6" x2="353.086" y2="206.6" stroke="rgb(255,0,0)" stroke-width="0.705556"/>
		<line x1="353.086" y1="206.6" x2="353.086" y2="58" stroke="rgb(255,0,0)" stroke-width="0.705556"/>
		<line x1="353.086" y1="58" x2="320.486" y2="58" stroke="rgb(255,0,0)" stroke-width="0.705556"/>
		<line x1="320.486" y1="58" x2="320.486" y2="56" stroke="rgb(255,0,0)" stroke-width="0.705556"/>
		<line x1="320.486" y1="206.6" x2="320.486" y2="58" stroke="rgb(255,255,0)" stroke-width="0.705556"/>
		<line x1="39.1863" y1="56" x2="39.1863" y2="25.35" stroke="rgb(255,0,0)" stroke-width="0.705556"/>
		<line x1="39.1863" y1="25.35" x2="320.486" y2="25.35" stroke="rgb(255,0,0)" stroke-width="0.705556"/>
		<line x1="320.486" y1="25.35" x2="320.486" y2="56" stroke="rgb(255,0,0)" stroke-width="0.705556"/>
		<line x1="320.486" y1="56" x2="39.1863" y2="56" stroke="rgb(255,255,0)" stroke-width="0.705556"/>
		<line x1="39.1863" y1="208.6" x2="39.1863" y2="206.6" stroke="rgb(255,0,0)" stroke-width="0.705556"/>
		<line x1="39.1863" y1="206.6" x2="6.58633" y2="206.6" stroke="rgb(255,0,0)" stroke-width="0.705556"/>
		<line x1="6.58633" y1="206.6" x2="6.58633" y2="58" stroke="rgb(255,0,0)" stroke-width="0.705556"/>
		<line x1="6.58633" y1="58" x2="39.1863" y2="58" stroke="rgb(255,0,0)" stroke-width="0.705556"/>
		<line x1="39.1863" y1="58" x2="39.1863" y2="56" stroke="rgb(255,0,0)" stroke-width="0.705556"/>
		<line x1="39.1863" y1="206.6" x2="39.1863" y2="58" stroke="rgb(255,255,0)" stroke-width="0.705556"/>
		<line x1="320.486" y1="409.9" x2="320.486" y2="411.9" stroke="rgb(255,0,0)" stroke-width="0.705556"/>
		<line x1="320.486" y1="411.9" x2="353.086" y2="411.9" stroke="rgb(255,0,0)" stroke-width="0.705556"/>
		<line x1="353.086" y1="411.9" x2="353.086" y2="560.5" stroke="rgb(255,0,0)" stroke-width="0.705556"/>
		<line x1="353.086" y1="560.5" x2="320.486" y2="560.5" stroke="rgb(255,0,0)" stroke-width="0.705556"/>
		<line x1="320.486" y1="560.5" x2="320.486" y2="562.5" stroke="rgb(255,0,0)" stroke-width="0.705556"/>
		<line x1="320.486" y1="411.9" x2="320.486" y2="560.5" stroke="rgb(255,255,0)" stroke-width="0.705556"/>
		<line x1="39.1863" y1="409.9" x2="39.1863" y2="411.9" stroke="rgb(255,0,0)" stroke-width="0.705556"/>
		<line x1="39.1863" y1="411.9" x2="6.58633" y2="411.9" stroke="rgb(255,0,0)" stroke-width="0.705556"/>
		<line x1="6.58633" y1="411.9" x2="6.58633" y2="560.5" stroke="rgb(255,0,0)" stroke-width="0.705556"/>
		<line x1="6.58633" y1="560.5" x2="39.1863" y2="560.5" stroke="rgb(255,0,0)" stroke-width="0.705556"/>
		<line x1="39.1863" y1="560.5" x2="39.1863" y2="562.5" stroke="rgb(255,0,0)" stroke-width="0.705556"/>
		<line x1="39.1863" y1="411.9" x2="39.1863" y2="560.5" stroke="rgb(255,255,0)" stroke-width="0.705556"/>
	</g>
</svg>