<svg version = "1.1" xmlns = "http://www.w3.org/2000/svg" xmlns:xlink="http://www.w3.org/1999/xlink" width="347.206" height="742.406" viewbox = "0 0 347.206 742.406">
	<g transform="translate(-6.23355,764.153) scale(1,-1) ">
		<line x1="320.486" y1="208.6" x2="39.1863" y2="208.6" stroke="rgb(255,255,0)" stroke-width="0.705556"/>
		<line x1="39.1863" y1="409.9" x2="320.486" y2="409.9" stroke="rgb(255,255,0)" stroke-width="0.705556"/>
		<line x1="39.1863" y1="208.6" x2="39.1863" y2="210.6" stroke="rgb(255,0,0)" stroke-width="0.705556"/>
		<line x1="39.1863" y1="210.6" x2="6.58633" y2="210.6" stroke="rgb(255,0,0)" stroke-width="0.705556"/>
		<line x1="6.58633" y1="210.6" x2="6.58633" y2="407.9" stroke="rgb(255,0,0)" stroke-width="0.705556"/>
		<line x1="6.58633" y1="407.9" x2="39.1863" y2="407.9" stroke="rgb(255,0,0)" stroke-width="0.705556"/>
		<line x1="39.1863" y1="407.9" x2="39.1863" y2="409.9" stroke="rgb(255,0,0)" stroke-width="0.705556"/>
		<line x1="36.5863" y1="210.6" x2="36.5863" y2="407.9" stroke="rgb(255,255,0)" stroke-width="0.705556"/>
		<line x1="320.486" y1="208.6" x2="320.486" y2="210.6" stroke="rgb(255,0,0)" stroke-width="0.705556"/>
		<line x1="320.486" y1="210.6" x2="353.086" y2="210.6" stroke="rgb(255,0,0)" stroke-width="0.705556"/>
		<line x1="353.086" y1="210.6" x2="353.086" y2="407.9" stroke="rgb(255,0,0)" stroke-width="0.705556"/>
		<line x1="353.086" y1="407.9" x2="320.486" y2="407.9" stroke="rgb(255,0,0)" stroke-width="0.705556"/>
		<line x1="320.486" y1="407.9" x2="320.486" y2="409.9" stroke="rgb(255,0,0)" stroke-width="0.705556"/>
		<line x1="323.086" y1="210.6" x2="323.086" y2="407.9" stroke="rgb(255,255,0)" stroke-width="0.705556"/>
		<line x1="186.909" y1="92.826" x2="159.294" y2="92.826" stroke="rgb(64,128,128)" stroke-width="0"/>
		<line x1="168.499" y1="101.31" x2="159.294" y2="101.31" stroke="rgb(64,128,128)" stroke-width="0"/>
		<line x1="177.704" y1="97.068" x2="159.294" y2="97.068" stroke="rgb(64,128,128)" stroke-width="0"/>
		<line x1="196.114" y1="88.584" x2="159.294" y2="88.584" stroke="rgb(64,128,128)" stroke-width="0"/>
		<line x1="205.319" y1="84.342" x2="159.294" y2="84.342" stroke="rgb(64,128,128)" stroke-width="0"/>
		<line x1="214.524" y1="80.1" x2="159.294" y2="80.1" stroke="rgb(64,128,128)" stroke-width="0"/>
		<line x1="159.294" y1="105.552" x2="159.294" y2="80.1" stroke="rgb(64,128,128)" stroke-width="0"/>
		<line x1="214.524" y1="80.1" x2="186.206" y2="108.375" stroke="rgb(64,128,128)" stroke-width="0"/>
		<path d="M186.206,108.375 a26.6045 26.6045 0 0 0 -26.9118,-2.82257" fill="none" stroke="rgb(64,128,128)" stroke-width="0"/>
		<line x1="159.294" y1="105.552" x2="214.524" y2="80.1" stroke="rgb(64,128,128)" stroke-width="0"/>
		<line x1="320.486" y1="56" x2="320.486" y2="22.1" stroke="rgb(255,0,0)" stroke-width="0.705556"/>
		<line x1="320.486" y1="22.1" x2="39.1863" y2="22.1" stroke="rgb(255,0,0)" stroke-width="0.705556"/>
		<line x1="39.1863" y1="22.1" x2="39.1863" y2="56" stroke="rgb(255,0,0)" stroke-width="0.705556"/>
		<line x1="39.1863" y1="54.7" x2="320.486" y2="54.7" stroke="rgb(255,255,0)" stroke-width="0.705556"/>
		<line x1="320.486" y1="208.6" x2="320.486" y2="206.6" stroke="rgb(255,0,0)" stroke-width="0.705556"/>
		<line x1="320.486" y1="206.6" x2="353.086" y2="206.6" stroke="rgb(255,0,0)" stroke-width="0.705556"/>
		<line x1="353.086" y1="206.6" x2="353.086" y2="57.3" stroke="rgb(255,0,0)" stroke-width="0.705556"/>
		<line x1="353.086" y1="57.3" x2="320.486" y2="57.3" stroke="rgb(255,0,0)" stroke-width="0.705556"/>
		<line x1="320.486" y1="57.3" x2="320.486" y2="56" stroke="rgb(255,0,0)" stroke-width="0.705556"/>
		<line x1="320.486" y1="206.6" x2="320.486" y2="57.3" stroke="rgb(255,255,0)" stroke-width="0.705556"/>
		<line x1="39.1863" y1="208.6" x2="39.1863" y2="206.6" stroke="rgb(255,0,0)" stroke-width="0.705556"/>
		<line x1="39.1863" y1="206.6" x2="6.58633" y2="206.6" stroke="rgb(255,0,0)" stroke-width="0.705556"/>
		<line x1="6.58633" y1="206.6" x2="6.58633" y2="57.3" stroke="rgb(255,0,0)" stroke-width="0.705556"/>
		<line x1="6.58633" y1="57.3" x2="39.1863" y2="57.3" stroke="rgb(255,0,0)" stroke-width="0.705556"/>
		<line x1="39.1863" y1="57.3" x2="39.1863" y2="56" stroke="rgb(255,0,0)" stroke-width="0.705556"/>
		<line x1="39.1863" y1="206.6" x2="39.1863" y2="57.3" stroke="rgb(255,255,0)" stroke-width="0.705556"/>
		<line x1="320.486" y1="409.9" x2="320.486" y2="411.9" stroke="rgb(255,0,0)" stroke-width="0.705556"/>
		<line x1="320.486" y1="411.9" x2="353.086" y2="411.9" stroke="rgb(255,0,0)" stroke-width="0.705556"/>
		<line x1="353.086" y1="411.9" x2="353.086" y2="561.2" stroke="rgb(255,0,0)" stroke-width="0.705556"/>
		<line x1="353.086" y1="561.2" x2="320.486" y2="561.2" stroke="rgb(255,0,0)" stroke-width="0.705556"/>
		<line x1="320.486" y1="561.2" x2="320.486" y2="562.5" stroke="rgb(255,0,0)" stroke-width="0.705556"/>
		<line x1="320.486" y1="411.9" x2="320.486" y2="561.2" stroke="rgb(255,255,0)" stroke-width="0.705556"/>
		<line x1="39.1863" y1="409.9" x2="39.1863" y2="411.9" stroke="rgb(255,0,0)" stroke-width="0.705556"/>
		<line x1="39.1863" y1="411.9" x2="6.58633" y2="411.9" stroke="rgb(255,0,0)" stroke-width="0.705556"/>
		<line x1="6.58633" y1="411.9" x2="6.58633" y2="561.2" stroke="rgb(255,0,0)" stroke-width="0.705556"/>
		<line x1="6.58633" y1="561.2" x2="39.1863" y2="561.2" stroke="rgb(255,0,0)" stroke-width="0.705556"/>
		<line x1="39.1863" y1="561.2" x2="39.1863" y2="562.5" stroke="rgb(255,0,0)" stroke-width="0.705556"/>
		<line x1="39.1863" y1="411.9" x2="39.1863" y2="561.2" stroke="rgb(255,255,0)" stroke-width="0.705556"/>
		<line x1="39.1863" y1="562.5" x2="39.1863" y2="763.8" stroke="rgb(255,0,0)" stroke-width="0.705556"/>
		<line x1="39.1863" y1="763.8" x2="320.486" y2="763.8" stroke="rgb(255,0,0)" stroke-width="0.705556"/>
		<line x1="320.486" y1="763.8" x2="320.486" y2="562.5" stroke="rgb(255,0,0)" stroke-width="0.705556"/>
		<line x1="320.486" y1="563.8" x2="39.1863" y2="563.8" stroke="rgb(255,255,0)" stroke-width="0.705556"/>
	</g>
</svg>