<svg version = "1.1" xmlns = "http://www.w3.org/2000/svg" xmlns:xlink="http://www.w3.org/1999/xlink" width="345.906" height="705.906" viewbox = "0 0 345.906 705.906">
	<g transform="translate(0.322873,710.014) scale(1,-1) ">
		<line x1="314.58" y1="256.412" x2="30.6799" y2="256.412" stroke="rgb(255,255,0)" stroke-width="0.705556"/>
		<line x1="30.6799" y1="457.712" x2="314.58" y2="457.712" stroke="rgb(255,255,0)" stroke-width="0.705556"/>
		<line x1="30.6799" y1="709.662" x2="314.58" y2="709.662" stroke="rgb(255,0,0)" stroke-width="0.705556"/>
		<line x1="314.58" y1="609.012" x2="30.6799" y2="609.012" stroke="rgb(255,255,0)" stroke-width="0.705556"/>
		<line x1="30.6799" y1="4.46159" x2="314.58" y2="4.46159" stroke="rgb(255,0,0)" stroke-width="0.705556"/>
		<line x1="314.58" y1="105.112" x2="30.6799" y2="105.112" stroke="rgb(255,255,0)" stroke-width="0.705556"/>
		<line x1="179.003" y1="42.1876" x2="151.388" y2="42.1876" stroke="rgb(64,128,128)" stroke-width="0"/>
		<line x1="160.593" y1="50.6716" x2="151.388" y2="50.6716" stroke="rgb(64,128,128)" stroke-width="0"/>
		<line x1="169.798" y1="46.4296" x2="151.388" y2="46.4296" stroke="rgb(64,128,128)" stroke-width="0"/>
		<line x1="188.208" y1="37.9456" x2="151.388" y2="37.9456" stroke="rgb(64,128,128)" stroke-width="0"/>
		<line x1="197.412" y1="33.7036" x2="151.388" y2="33.7036" stroke="rgb(64,128,128)" stroke-width="0"/>
		<line x1="206.617" y1="29.4616" x2="151.388" y2="29.4616" stroke="rgb(64,128,128)" stroke-width="0"/>
		<line x1="151.388" y1="54.9136" x2="151.388" y2="29.4616" stroke="rgb(64,128,128)" stroke-width="0"/>
		<line x1="206.617" y1="29.4616" x2="178.3" y2="57.7362" stroke="rgb(64,128,128)" stroke-width="0"/>
		<path d="M178.3,57.7362 a26.6045 26.6045 0 0 0 -26.9118,-2.82257" fill="none" stroke="rgb(64,128,128)" stroke-width="0"/>
		<line x1="151.388" y1="54.9136" x2="206.617" y2="29.4616" stroke="rgb(64,128,128)" stroke-width="0"/>
		<line x1="314.58" y1="609.012" x2="345.23" y2="578.362" stroke="rgb(255,0,0)" stroke-width="0.705556"/>
		<line x1="345.23" y1="578.362" x2="345.23" y2="488.362" stroke="rgb(255,0,0)" stroke-width="0.705556"/>
		<line x1="345.23" y1="488.362" x2="314.58" y2="457.712" stroke="rgb(255,0,0)" stroke-width="0.705556"/>
		<line x1="314.58" y1="609.012" x2="314.58" y2="457.712" stroke="rgb(255,255,0)" stroke-width="0.705556"/>
		<line x1="314.58" y1="457.712" x2="345.23" y2="427.062" stroke="rgb(255,0,0)" stroke-width="0.705556"/>
		<line x1="345.23" y1="427.062" x2="345.23" y2="287.062" stroke="rgb(255,0,0)" stroke-width="0.705556"/>
		<line x1="345.23" y1="287.062" x2="314.58" y2="256.412" stroke="rgb(255,0,0)" stroke-width="0.705556"/>
		<line x1="314.58" y1="457.712" x2="314.58" y2="256.412" stroke="rgb(255,255,0)" stroke-width="0.705556"/>
		<line x1="314.58" y1="256.412" x2="345.23" y2="225.762" stroke="rgb(255,0,0)" stroke-width="0.705556"/>
		<line x1="345.23" y1="225.762" x2="345.23" y2="135.762" stroke="rgb(255,0,0)" stroke-width="0.705556"/>
		<line x1="345.23" y1="135.762" x2="314.58" y2="105.112" stroke="rgb(255,0,0)" stroke-width="0.705556"/>
		<line x1="314.58" y1="256.412" x2="314.58" y2="105.112" stroke="rgb(255,255,0)" stroke-width="0.705556"/>
		<line x1="30.6799" y1="256.412" x2="0.0299044" y2="287.062" stroke="rgb(255,0,0)" stroke-width="0.705556"/>
		<line x1="0.0299044" y1="287.062" x2="0.0299044" y2="427.062" stroke="rgb(255,0,0)" stroke-width="0.705556"/>
		<line x1="0.0299044" y1="427.062" x2="30.6799" y2="457.712" stroke="rgb(255,0,0)" stroke-width="0.705556"/>
		<line x1="30.6799" y1="256.412" x2="30.6799" y2="457.712" stroke="rgb(255,255,0)" stroke-width="0.705556"/>
		<line x1="30.6799" y1="457.712" x2="0.0299044" y2="488.362" stroke="rgb(255,0,0)" stroke-width="0.705556"/>
		<line x1="0.0299044" y1="488.362" x2="0.0299044" y2="578.362" stroke="rgb(255,0,0)" stroke-width="0.705556"/>
		<line x1="0.0299044" y1="578.362" x2="30.6799" y2="609.012" stroke="rgb(255,0,0)" stroke-width="0.705556"/>
		<line x1="30.6799" y1="457.712" x2="30.6799" y2="609.012" stroke="rgb(255,255,0)" stroke-width="0.705556"/>
		<line x1="30.6799" y1="105.112" x2="0.0299044" y2="135.762" stroke="rgb(255,0,0)" stroke-width="0.705556"/>
		<line x1="0.0299044" y1="135.762" x2="0.0299044" y2="225.762" stroke="rgb(255,0,0)" stroke-width="0.705556"/>
		<line x1="0.0299044" y1="225.762" x2="30.6799" y2="256.412" stroke="rgb(255,0,0)" stroke-width="0.705556"/>
		<line x1="30.6799" y1="105.112" x2="30.6799" y2="256.412" stroke="rgb(255,255,0)" stroke-width="0.705556"/>
		<line x1="30.6799" y1="609.012" x2="0.0299044" y2="639.662" stroke="rgb(255,0,0)" stroke-width="0.705556"/>
		<line x1="0.0299044" y1="639.662" x2="0.0299044" y2="709.662" stroke="rgb(255,0,0)" stroke-width="0.705556"/>
		<line x1="0.0299044" y1="709.662" x2="30.6799" y2="709.662" stroke="rgb(255,0,0)" stroke-width="0.705556"/>
		<line x1="30.6799" y1="609.012" x2="30.6799" y2="709.662" stroke="rgb(255,255,0)" stroke-width="0.705556"/>
		<line x1="314.58" y1="609.012" x2="345.23" y2="639.662" stroke="rgb(255,0,0)" stroke-width="0.705556"/>
		<line x1="345.23" y1="639.662" x2="345.23" y2="709.662" stroke="rgb(255,0,0)" stroke-width="0.705556"/>
		<line x1="345.23" y1="709.662" x2="314.58" y2="709.662" stroke="rgb(255,0,0)" stroke-width="0.705556"/>
		<line x1="314.58" y1="609.012" x2="314.58" y2="709.662" stroke="rgb(255,255,0)" stroke-width="0.705556"/>
		<line x1="30.6799" y1="105.112" x2="0.0299044" y2="74.4616" stroke="rgb(255,0,0)" stroke-width="0.705556"/>
		<line x1="0.0299044" y1="74.4616" x2="0.0299044" y2="4.46159" stroke="rgb(255,0,0)" stroke-width="0.705556"/>
		<line x1="0.0299044" y1="4.46159" x2="30.6799" y2="4.46159" stroke="rgb(255,0,0)" stroke-width="0.705556"/>
		<line x1="30.6799" y1="105.112" x2="30.6799" y2="4.46159" stroke="rgb(255,255,0)" stroke-width="0.705556"/>
		<line x1="314.58" y1="105.112" x2="345.23" y2="74.4616" stroke="rgb(255,0,0)" stroke-width="0.705556"/>
		<line x1="345.23" y1="74.4616" x2="345.23" y2="4.46159" stroke="rgb(255,0,0)" stroke-width="0.705556"/>
		<line x1="345.23" y1="4.46159" x2="314.58" y2="4.46159" stroke="rgb(255,0,0)" stroke-width="0.705556"/>
		<line x1="314.58" y1="105.112" x2="314.58" y2="4.46159" stroke="rgb(255,255,0)" stroke-width="0.705556"/>
	</g>
</svg>