<svg version = "1.1" xmlns = "http://www.w3.org/2000/svg" xmlns:xlink="http://www.w3.org/1999/xlink" width="283.306" height="741.956" viewbox = "0 0 283.306 741.956">
	<g transform="translate(-89.9851,867.364) scale(1,-1) ">
		<line x1="372.938" y1="150.761" x2="372.938" y2="305.961" stroke="rgb(255,0,0)" stroke-width="0.705556"/>
		<line x1="372.938" y1="305.961" x2="90.3379" y2="305.961" stroke="rgb(255,255,0)" stroke-width="0.705556"/>
		<line x1="90.3379" y1="305.961" x2="90.3379" y2="150.761" stroke="rgb(255,0,0)" stroke-width="0.705556"/>
		<line x1="90.3379" y1="509.861" x2="372.938" y2="509.861" stroke="rgb(255,255,0)" stroke-width="0.705556"/>
		<line x1="90.3379" y1="305.961" x2="90.3379" y2="509.861" stroke="rgb(255,0,0)" stroke-width="0.705556"/>
		<line x1="372.938" y1="509.861" x2="372.938" y2="305.961" stroke="rgb(255,0,0)" stroke-width="0.705556"/>
		<line x1="372.938" y1="663.761" x2="90.3379" y2="663.761" stroke="rgb(255,255,0)" stroke-width="0.705556"/>
		<line x1="372.938" y1="509.861" x2="372.938" y2="663.761" stroke="rgb(255,0,0)" stroke-width="0.705556"/>
		<line x1="90.3379" y1="663.761" x2="90.3379" y2="509.861" stroke="rgb(255,0,0)" stroke-width="0.705556"/>
		<line x1="90.3379" y1="867.011" x2="372.938" y2="867.011" stroke="rgb(255,0,0)" stroke-width="0.705556"/>
		<line x1="90.3379" y1="663.761" x2="90.3379" y2="867.011" stroke="rgb(255,0,0)" stroke-width="0.705556"/>
		<line x1="372.938" y1="867.011" x2="372.938" y2="663.761" stroke="rgb(255,0,0)" stroke-width="0.705556"/>
		<line x1="372.938" y1="150.761" x2="90.3379" y2="150.761" stroke="rgb(255,255,0)" stroke-width="0.705556"/>
		<line x1="90.3379" y1="150.761" x2="90.3379" y2="125.761" stroke="rgb(255,0,0)" stroke-width="0.705556"/>
		<line x1="90.3379" y1="125.761" x2="372.938" y2="125.761" stroke="rgb(255,0,0)" stroke-width="0.705556"/>
		<line x1="372.938" y1="125.761" x2="372.938" y2="150.761" stroke="rgb(255,0,0)" stroke-width="0.705556"/>
		<line x1="231.638" y1="358.576" x2="231.638" y2="330.961" stroke="rgb(64,128,128)" stroke-width="0"/>
		<line x1="240.122" y1="340.166" x2="240.122" y2="330.961" stroke="rgb(64,128,128)" stroke-width="0"/>
		<line x1="235.88" y1="349.371" x2="235.88" y2="330.961" stroke="rgb(64,128,128)" stroke-width="0"/>
		<line x1="227.396" y1="367.781" x2="227.396" y2="330.961" stroke="rgb(64,128,128)" stroke-width="0"/>
		<line x1="223.154" y1="376.986" x2="223.154" y2="330.961" stroke="rgb(64,128,128)" stroke-width="0"/>
		<line x1="218.912" y1="386.191" x2="218.912" y2="330.961" stroke="rgb(64,128,128)" stroke-width="0"/>
		<line x1="244.364" y1="330.961" x2="218.912" y2="330.961" stroke="rgb(64,128,128)" stroke-width="0"/>
		<line x1="218.912" y1="386.191" x2="247.186" y2="357.873" stroke="rgb(64,128,128)" stroke-width="0"/>
		<path d="M247.186,357.873 a26.6045 26.6045 0 0 1 -2.82257,-26.9118" fill="none" stroke="rgb(64,128,128)" stroke-width="0"/>
		<line x1="244.364" y1="330.961" x2="218.912" y2="386.191" stroke="rgb(64,128,128)" stroke-width="0"/>
	</g>
</svg>