<svg version = "1.1" xmlns = "http://www.w3.org/2000/svg" xmlns:xlink="http://www.w3.org/1999/xlink" width="279.406" height="718.556" viewbox = "0 0 279.406 718.556">
	<g transform="translate(-119.266,804.907) scale(1,-1) ">
		<line x1="398.319" y1="86.7043" x2="398.319" y2="234.754" stroke="rgb(255,0,0)" stroke-width="0.705556"/>
		<line x1="398.319" y1="234.754" x2="119.619" y2="234.754" stroke="rgb(255,255,0)" stroke-width="0.705556"/>
		<line x1="119.619" y1="234.754" x2="119.619" y2="86.7043" stroke="rgb(255,0,0)" stroke-width="0.705556"/>
		<line x1="119.619" y1="86.7043" x2="398.319" y2="86.7043" stroke="rgb(255,0,0)" stroke-width="0.705556"/>
		<line x1="119.619" y1="432.154" x2="398.319" y2="432.154" stroke="rgb(255,255,0)" stroke-width="0.705556"/>
		<line x1="119.619" y1="234.754" x2="119.619" y2="432.154" stroke="rgb(255,0,0)" stroke-width="0.705556"/>
		<line x1="398.319" y1="432.154" x2="398.319" y2="234.754" stroke="rgb(255,0,0)" stroke-width="0.705556"/>
		<line x1="398.319" y1="580.854" x2="119.619" y2="580.854" stroke="rgb(255,255,0)" stroke-width="0.705556"/>
		<line x1="398.319" y1="432.154" x2="398.319" y2="580.854" stroke="rgb(255,0,0)" stroke-width="0.705556"/>
		<line x1="119.619" y1="580.854" x2="119.619" y2="432.154" stroke="rgb(255,0,0)" stroke-width="0.705556"/>
		<line x1="119.619" y1="580.854" x2="119.619" y2="779.554" stroke="rgb(255,0,0)" stroke-width="0.705556"/>
		<line x1="398.319" y1="779.554" x2="398.319" y2="580.854" stroke="rgb(255,0,0)" stroke-width="0.705556"/>
		<line x1="119.619" y1="779.554" x2="119.619" y2="804.554" stroke="rgb(255,0,0)" stroke-width="0.705556"/>
		<line x1="119.619" y1="804.554" x2="398.319" y2="804.554" stroke="rgb(255,0,0)" stroke-width="0.705556"/>
		<line x1="398.319" y1="804.554" x2="398.319" y2="779.554" stroke="rgb(255,0,0)" stroke-width="0.705556"/>
		<line x1="119.619" y1="779.554" x2="398.319" y2="779.554" stroke="rgb(255,255,0)" stroke-width="0.705556"/>
		<line x1="258.969" y1="139.319" x2="258.969" y2="111.704" stroke="rgb(64,128,128)" stroke-width="0"/>
		<line x1="267.453" y1="120.909" x2="267.453" y2="111.704" stroke="rgb(64,128,128)" stroke-width="0"/>
		<line x1="263.211" y1="130.114" x2="263.211" y2="111.704" stroke="rgb(64,128,128)" stroke-width="0"/>
		<line x1="254.727" y1="148.524" x2="254.727" y2="111.704" stroke="rgb(64,128,128)" stroke-width="0"/>
		<line x1="250.485" y1="157.729" x2="250.485" y2="111.704" stroke="rgb(64,128,128)" stroke-width="0"/>
		<line x1="246.243" y1="166.934" x2="246.243" y2="111.704" stroke="rgb(64,128,128)" stroke-width="0"/>
		<line x1="271.695" y1="111.704" x2="246.243" y2="111.704" stroke="rgb(64,128,128)" stroke-width="0"/>
		<line x1="246.243" y1="166.934" x2="274.517" y2="138.616" stroke="rgb(64,128,128)" stroke-width="0"/>
		<path d="M274.517,138.616 a26.6045 26.6045 0 0 1 -2.82257,-26.9118" fill="none" stroke="rgb(64,128,128)" stroke-width="0"/>
		<line x1="271.695" y1="111.704" x2="246.243" y2="166.934" stroke="rgb(64,128,128)" stroke-width="0"/>
	</g>
</svg>