<svg version = "1.1" xmlns = "http://www.w3.org/2000/svg" xmlns:xlink="http://www.w3.org/1999/xlink" width="343.306" height="731.556" viewbox = "0 0 343.306 731.556">
	<g transform="translate(-29.9851,856.964) scale(1,-1) ">
		<line x1="372.938" y1="150.761" x2="372.938" y2="303.361" stroke="rgb(255,0,0)" stroke-width="0.705556"/>
		<line x1="372.938" y1="303.361" x2="30.3379" y2="303.361" stroke="rgb(255,255,0)" stroke-width="0.705556"/>
		<line x1="30.3379" y1="303.361" x2="30.3379" y2="150.761" stroke="rgb(255,0,0)" stroke-width="0.705556"/>
		<line x1="30.3379" y1="504.661" x2="372.938" y2="504.661" stroke="rgb(255,255,0)" stroke-width="0.705556"/>
		<line x1="30.3379" y1="303.361" x2="30.3379" y2="504.661" stroke="rgb(255,0,0)" stroke-width="0.705556"/>
		<line x1="372.938" y1="504.661" x2="372.938" y2="303.361" stroke="rgb(255,0,0)" stroke-width="0.705556"/>
		<line x1="372.938" y1="655.961" x2="30.3379" y2="655.961" stroke="rgb(255,255,0)" stroke-width="0.705556"/>
		<line x1="372.938" y1="504.661" x2="372.938" y2="655.961" stroke="rgb(255,0,0)" stroke-width="0.705556"/>
		<line x1="30.3379" y1="655.961" x2="30.3379" y2="504.661" stroke="rgb(255,0,0)" stroke-width="0.705556"/>
		<line x1="30.3379" y1="856.611" x2="372.938" y2="856.611" stroke="rgb(255,0,0)" stroke-width="0.705556"/>
		<line x1="30.3379" y1="655.961" x2="30.3379" y2="856.611" stroke="rgb(255,0,0)" stroke-width="0.705556"/>
		<line x1="372.938" y1="856.611" x2="372.938" y2="655.961" stroke="rgb(255,0,0)" stroke-width="0.705556"/>
		<line x1="372.938" y1="150.761" x2="30.3379" y2="150.761" stroke="rgb(255,255,0)" stroke-width="0.705556"/>
		<line x1="30.3379" y1="150.761" x2="30.3379" y2="125.761" stroke="rgb(255,0,0)" stroke-width="0.705556"/>
		<line x1="30.3379" y1="125.761" x2="372.938" y2="125.761" stroke="rgb(255,0,0)" stroke-width="0.705556"/>
		<line x1="372.938" y1="125.761" x2="372.938" y2="150.761" stroke="rgb(255,0,0)" stroke-width="0.705556"/>
		<line x1="201.638" y1="355.976" x2="201.638" y2="328.361" stroke="rgb(64,128,128)" stroke-width="0"/>
		<line x1="210.122" y1="337.566" x2="210.122" y2="328.361" stroke="rgb(64,128,128)" stroke-width="0"/>
		<line x1="205.88" y1="346.771" x2="205.88" y2="328.361" stroke="rgb(64,128,128)" stroke-width="0"/>
		<line x1="197.396" y1="365.181" x2="197.396" y2="328.361" stroke="rgb(64,128,128)" stroke-width="0"/>
		<line x1="193.154" y1="374.386" x2="193.154" y2="328.361" stroke="rgb(64,128,128)" stroke-width="0"/>
		<line x1="188.912" y1="383.591" x2="188.912" y2="328.361" stroke="rgb(64,128,128)" stroke-width="0"/>
		<line x1="214.364" y1="328.361" x2="188.912" y2="328.361" stroke="rgb(64,128,128)" stroke-width="0"/>
		<line x1="188.912" y1="383.591" x2="217.186" y2="355.273" stroke="rgb(64,128,128)" stroke-width="0"/>
		<path d="M217.186,355.273 a26.6045 26.6045 0 0 1 -2.82257,-26.9118" fill="none" stroke="rgb(64,128,128)" stroke-width="0"/>
		<line x1="214.364" y1="328.361" x2="188.912" y2="383.591" stroke="rgb(64,128,128)" stroke-width="0"/>
	</g>
</svg>