<svg version = "1.1" xmlns = "http://www.w3.org/2000/svg" xmlns:xlink="http://www.w3.org/1999/xlink" width="992.206" height="214.306" viewbox = "0 0 992.206 214.306">
	<g transform="translate(-162.342,328.229) scale(1,-1) ">
		<line x1="162.695" y1="114.277" x2="365.295" y2="114.277" stroke="rgb(255,0,0)" stroke-width="0.705556"/>
		<line x1="365.295" y1="114.277" x2="365.295" y2="327.877" stroke="rgb(255,255,0)" stroke-width="0.705556"/>
		<line x1="365.295" y1="327.877" x2="162.695" y2="327.877" stroke="rgb(255,0,0)" stroke-width="0.705556"/>
		<line x1="162.695" y1="327.877" x2="162.695" y2="114.277" stroke="rgb(255,0,0)" stroke-width="0.705556"/>
		<line x1="646.595" y1="327.877" x2="646.595" y2="114.277" stroke="rgb(255,255,0)" stroke-width="0.705556"/>
		<line x1="365.295" y1="327.877" x2="646.595" y2="327.877" stroke="rgb(255,0,0)" stroke-width="0.705556"/>
		<line x1="646.595" y1="114.277" x2="365.295" y2="114.277" stroke="rgb(255,0,0)" stroke-width="0.705556"/>
		<line x1="847.895" y1="114.277" x2="847.895" y2="327.877" stroke="rgb(255,255,0)" stroke-width="0.705556"/>
		<line x1="646.595" y1="114.277" x2="847.895" y2="114.277" stroke="rgb(255,0,0)" stroke-width="0.705556"/>
		<line x1="847.895" y1="327.877" x2="646.595" y2="327.877" stroke="rgb(255,0,0)" stroke-width="0.705556"/>
		<line x1="847.895" y1="327.877" x2="1129.2" y2="327.877" stroke="rgb(255,0,0)" stroke-width="0.705556"/>
		<line x1="1129.2" y1="114.277" x2="847.895" y2="114.277" stroke="rgb(255,0,0)" stroke-width="0.705556"/>
		<line x1="1129.2" y1="327.877" x2="1129.2" y2="114.277" stroke="rgb(255,255,0)" stroke-width="0.705556"/>
		<line x1="1129.2" y1="114.277" x2="1154.2" y2="114.277" stroke="rgb(255,0,0)" stroke-width="0.705556"/>
		<line x1="1154.2" y1="114.277" x2="1154.2" y2="327.877" stroke="rgb(255,0,0)" stroke-width="0.705556"/>
		<line x1="1154.2" y1="327.877" x2="1129.2" y2="327.877" stroke="rgb(255,0,0)" stroke-width="0.705556"/>
		<line x1="512.318" y1="162.003" x2="484.703" y2="162.003" stroke="rgb(64,128,128)" stroke-width="0"/>
		<line x1="493.908" y1="170.487" x2="484.703" y2="170.487" stroke="rgb(64,128,128)" stroke-width="0"/>
		<line x1="503.113" y1="166.245" x2="484.703" y2="166.245" stroke="rgb(64,128,128)" stroke-width="0"/>
		<line x1="521.523" y1="157.761" x2="484.703" y2="157.761" stroke="rgb(64,128,128)" stroke-width="0"/>
		<line x1="530.728" y1="153.519" x2="484.703" y2="153.519" stroke="rgb(64,128,128)" stroke-width="0"/>
		<line x1="539.933" y1="149.277" x2="484.703" y2="149.277" stroke="rgb(64,128,128)" stroke-width="0"/>
		<line x1="484.703" y1="174.729" x2="484.703" y2="149.277" stroke="rgb(64,128,128)" stroke-width="0"/>
		<line x1="539.933" y1="149.277" x2="511.615" y2="177.551" stroke="rgb(64,128,128)" stroke-width="0"/>
		<path d="M511.615,177.551 a26.6045 26.6045 0 0 0 -26.9118,-2.82257" fill="none" stroke="rgb(64,128,128)" stroke-width="0"/>
		<line x1="484.703" y1="174.729" x2="539.933" y2="149.277" stroke="rgb(64,128,128)" stroke-width="0"/>
	</g>
</svg>