<svg version = "1.1" xmlns = "http://www.w3.org/2000/svg" xmlns:xlink="http://www.w3.org/1999/xlink" width="989.606" height="213.306" viewbox = "0 0 989.606 213.306">
	<g transform="translate(-162.342,327.229) scale(1,-1) ">
		<line x1="162.695" y1="114.277" x2="362.695" y2="114.277" stroke="rgb(255,0,0)" stroke-width="0.705556"/>
		<line x1="362.695" y1="114.277" x2="362.695" y2="326.877" stroke="rgb(255,255,0)" stroke-width="0.705556"/>
		<line x1="362.695" y1="326.877" x2="162.695" y2="326.877" stroke="rgb(255,0,0)" stroke-width="0.705556"/>
		<line x1="162.695" y1="326.877" x2="162.695" y2="114.277" stroke="rgb(255,0,0)" stroke-width="0.705556"/>
		<line x1="643.995" y1="326.877" x2="643.995" y2="114.277" stroke="rgb(255,255,0)" stroke-width="0.705556"/>
		<line x1="362.695" y1="326.877" x2="643.995" y2="326.877" stroke="rgb(255,0,0)" stroke-width="0.705556"/>
		<line x1="643.995" y1="114.277" x2="362.695" y2="114.277" stroke="rgb(255,0,0)" stroke-width="0.705556"/>
		<line x1="845.295" y1="114.277" x2="845.295" y2="326.877" stroke="rgb(255,255,0)" stroke-width="0.705556"/>
		<line x1="643.995" y1="114.277" x2="845.295" y2="114.277" stroke="rgb(255,0,0)" stroke-width="0.705556"/>
		<line x1="845.295" y1="326.877" x2="643.995" y2="326.877" stroke="rgb(255,0,0)" stroke-width="0.705556"/>
		<line x1="845.295" y1="326.877" x2="1126.6" y2="326.877" stroke="rgb(255,0,0)" stroke-width="0.705556"/>
		<line x1="1126.6" y1="114.277" x2="845.295" y2="114.277" stroke="rgb(255,0,0)" stroke-width="0.705556"/>
		<line x1="1126.6" y1="326.877" x2="1126.6" y2="114.277" stroke="rgb(255,255,0)" stroke-width="0.705556"/>
		<line x1="1126.6" y1="114.277" x2="1151.6" y2="114.277" stroke="rgb(255,0,0)" stroke-width="0.705556"/>
		<line x1="1151.6" y1="114.277" x2="1151.6" y2="326.877" stroke="rgb(255,0,0)" stroke-width="0.705556"/>
		<line x1="1151.6" y1="326.877" x2="1126.6" y2="326.877" stroke="rgb(255,0,0)" stroke-width="0.705556"/>
		<line x1="509.718" y1="162.003" x2="482.103" y2="162.003" stroke="rgb(64,128,128)" stroke-width="0"/>
		<line x1="491.308" y1="170.487" x2="482.103" y2="170.487" stroke="rgb(64,128,128)" stroke-width="0"/>
		<line x1="500.513" y1="166.245" x2="482.103" y2="166.245" stroke="rgb(64,128,128)" stroke-width="0"/>
		<line x1="518.923" y1="157.761" x2="482.103" y2="157.761" stroke="rgb(64,128,128)" stroke-width="0"/>
		<line x1="528.128" y1="153.519" x2="482.103" y2="153.519" stroke="rgb(64,128,128)" stroke-width="0"/>
		<line x1="537.333" y1="149.277" x2="482.103" y2="149.277" stroke="rgb(64,128,128)" stroke-width="0"/>
		<line x1="482.103" y1="174.729" x2="482.103" y2="149.277" stroke="rgb(64,128,128)" stroke-width="0"/>
		<line x1="537.333" y1="149.277" x2="509.015" y2="177.551" stroke="rgb(64,128,128)" stroke-width="0"/>
		<path d="M509.015,177.551 a26.6045 26.6045 0 0 0 -26.9118,-2.82257" fill="none" stroke="rgb(64,128,128)" stroke-width="0"/>
		<line x1="482.103" y1="174.729" x2="537.333" y2="149.277" stroke="rgb(64,128,128)" stroke-width="0"/>
	</g>
</svg>