<svg version = "1.1" xmlns = "http://www.w3.org/2000/svg" xmlns:xlink="http://www.w3.org/1999/xlink" width="664.956" height="503.306" viewbox = "0 0 664.956 503.306">
	<g transform="translate(82.8904,478.955) scale(1,-1) ">
		<line x1="581.712" y1="129.25" x2="581.712" y2="325.354" stroke="rgb(255,0,0)" stroke-width="0.705556"/>
		<line x1="301.062" y1="127.952" x2="301.062" y2="326.652" stroke="rgb(255,255,0)" stroke-width="0.705556"/>
		<line x1="149.762" y1="129.252" x2="149.762" y2="325.352" stroke="rgb(255,255,0)" stroke-width="0.705556"/>
		<line x1="92.4624" y1="130.552" x2="92.4624" y2="324.052" stroke="rgb(255,255,0)" stroke-width="0.705556"/>
		<line x1="151.262" y1="326.652" x2="151.262" y2="383.302" stroke="rgb(255,0,0)" stroke-width="0.705556"/>
		<line x1="151.262" y1="383.302" x2="299.562" y2="383.302" stroke="rgb(255,0,0)" stroke-width="0.705556"/>
		<line x1="299.562" y1="383.302" x2="299.562" y2="326.652" stroke="rgb(255,0,0)" stroke-width="0.705556"/>
		<line x1="299.562" y1="326.652" x2="301.062" y2="326.652" stroke="rgb(255,0,0)" stroke-width="0.705556"/>
		<line x1="151.262" y1="326.652" x2="299.562" y2="326.652" stroke="rgb(255,255,0)" stroke-width="0.705556"/>
		<line x1="93.9624" y1="325.352" x2="93.9624" y2="474.702" stroke="rgb(255,0,0)" stroke-width="0.705556"/>
		<line x1="93.9624" y1="474.702" x2="148.262" y2="474.702" stroke="rgb(255,0,0)" stroke-width="0.705556"/>
		<line x1="148.262" y1="474.702" x2="148.262" y2="325.352" stroke="rgb(255,0,0)" stroke-width="0.705556"/>
		<line x1="148.262" y1="325.352" x2="149.762" y2="325.352" stroke="rgb(255,0,0)" stroke-width="0.705556"/>
		<line x1="93.9624" y1="325.352" x2="148.262" y2="325.352" stroke="rgb(255,255,0)" stroke-width="0.705556"/>
		<line x1="-56.0376" y1="324.052" x2="-56.0376" y2="380.702" stroke="rgb(255,0,0)" stroke-width="0.705556"/>
		<line x1="-56.0376" y1="380.702" x2="90.9624" y2="380.702" stroke="rgb(255,0,0)" stroke-width="0.705556"/>
		<line x1="90.9624" y1="380.702" x2="90.9624" y2="324.052" stroke="rgb(255,0,0)" stroke-width="0.705556"/>
		<line x1="90.9624" y1="324.052" x2="92.4624" y2="324.052" stroke="rgb(255,0,0)" stroke-width="0.705556"/>
		<line x1="-56.0376" y1="324.052" x2="90.9624" y2="324.052" stroke="rgb(255,255,0)" stroke-width="0.705556"/>
		<line x1="302.562" y1="327.952" x2="302.562" y2="478.602" stroke="rgb(255,0,0)" stroke-width="0.705556"/>
		<line x1="302.562" y1="478.602" x2="580.212" y2="478.602" stroke="rgb(255,0,0)" stroke-width="0.705556"/>
		<line x1="580.212" y1="478.602" x2="580.212" y2="327.952" stroke="rgb(255,0,0)" stroke-width="0.705556"/>
		<line x1="302.562" y1="327.952" x2="580.212" y2="327.952" stroke="rgb(255,255,0)" stroke-width="0.705556"/>
		<line x1="302.562" y1="327.952" x2="302.562" y2="326.652" stroke="rgb(255,0,0)" stroke-width="0.705556"/>
		<line x1="302.562" y1="326.652" x2="301.062" y2="326.652" stroke="rgb(255,0,0)" stroke-width="0.705556"/>
		<line x1="151.262" y1="326.652" x2="151.262" y2="325.352" stroke="rgb(255,0,0)" stroke-width="0.705556"/>
		<line x1="151.262" y1="325.352" x2="149.762" y2="325.352" stroke="rgb(255,0,0)" stroke-width="0.705556"/>
		<line x1="93.9624" y1="325.352" x2="93.9624" y2="324.052" stroke="rgb(255,0,0)" stroke-width="0.705556"/>
		<line x1="93.9624" y1="324.052" x2="92.4624" y2="324.052" stroke="rgb(255,0,0)" stroke-width="0.705556"/>
		<line x1="580.212" y1="126.652" x2="580.212" y2="-23.9982" stroke="rgb(255,0,0)" stroke-width="0.705556"/>
		<line x1="580.212" y1="-23.9982" x2="302.562" y2="-23.9982" stroke="rgb(255,0,0)" stroke-width="0.705556"/>
		<line x1="302.562" y1="-23.9982" x2="302.562" y2="126.652" stroke="rgb(255,0,0)" stroke-width="0.705556"/>
		<line x1="580.212" y1="126.652" x2="302.562" y2="126.652" stroke="rgb(255,255,0)" stroke-width="0.705556"/>
		<line x1="301.062" y1="127.952" x2="299.562" y2="127.952" stroke="rgb(255,0,0)" stroke-width="0.705556"/>
		<line x1="299.562" y1="127.952" x2="299.562" y2="71.3018" stroke="rgb(255,0,0)" stroke-width="0.705556"/>
		<line x1="299.562" y1="71.3018" x2="151.262" y2="71.3018" stroke="rgb(255,0,0)" stroke-width="0.705556"/>
		<line x1="151.262" y1="71.3018" x2="151.262" y2="127.952" stroke="rgb(255,0,0)" stroke-width="0.705556"/>
		<line x1="299.562" y1="127.952" x2="151.262" y2="127.952" stroke="rgb(255,255,0)" stroke-width="0.705556"/>
		<line x1="149.762" y1="129.252" x2="148.262" y2="129.252" stroke="rgb(255,0,0)" stroke-width="0.705556"/>
		<line x1="148.262" y1="129.252" x2="148.262" y2="-20.0982" stroke="rgb(255,0,0)" stroke-width="0.705556"/>
		<line x1="148.262" y1="-20.0982" x2="93.9624" y2="-20.0982" stroke="rgb(255,0,0)" stroke-width="0.705556"/>
		<line x1="93.9624" y1="-20.0982" x2="93.9624" y2="129.252" stroke="rgb(255,0,0)" stroke-width="0.705556"/>
		<line x1="148.262" y1="129.252" x2="93.9624" y2="129.252" stroke="rgb(255,255,0)" stroke-width="0.705556"/>
		<line x1="92.4624" y1="130.552" x2="90.9624" y2="130.552" stroke="rgb(255,0,0)" stroke-width="0.705556"/>
		<line x1="90.9624" y1="130.552" x2="90.9624" y2="73.9018" stroke="rgb(255,0,0)" stroke-width="0.705556"/>
		<line x1="90.9624" y1="73.9018" x2="-56.0376" y2="73.9018" stroke="rgb(255,0,0)" stroke-width="0.705556"/>
		<line x1="-56.0376" y1="73.9018" x2="-56.0376" y2="130.552" stroke="rgb(255,0,0)" stroke-width="0.705556"/>
		<line x1="90.9624" y1="130.552" x2="-56.0376" y2="130.552" stroke="rgb(255,255,0)" stroke-width="0.705556"/>
		<line x1="151.262" y1="127.952" x2="151.262" y2="129.252" stroke="rgb(255,0,0)" stroke-width="0.705556"/>
		<line x1="151.262" y1="129.252" x2="149.762" y2="129.252" stroke="rgb(255,0,0)" stroke-width="0.705556"/>
		<line x1="93.9624" y1="129.252" x2="93.9624" y2="130.552" stroke="rgb(255,0,0)" stroke-width="0.705556"/>
		<line x1="93.9624" y1="130.552" x2="92.4624" y2="130.552" stroke="rgb(255,0,0)" stroke-width="0.705556"/>
		<line x1="302.562" y1="126.652" x2="302.562" y2="127.952" stroke="rgb(255,0,0)" stroke-width="0.705556"/>
		<line x1="302.562" y1="127.952" x2="301.062" y2="127.952" stroke="rgb(255,0,0)" stroke-width="0.705556"/>
		<line x1="-56.0376" y1="130.552" x2="-82.5376" y2="137.552" stroke="rgb(255,0,0)" stroke-width="0.705556"/>
		<line x1="-82.5376" y1="137.552" x2="-82.5376" y2="317.052" stroke="rgb(255,0,0)" stroke-width="0.705556"/>
		<line x1="-82.5376" y1="317.052" x2="-56.0376" y2="324.052" stroke="rgb(255,0,0)" stroke-width="0.705556"/>
		<line x1="-57.5376" y1="130.948" x2="-57.5376" y2="323.656" stroke="rgb(255,255,0)" stroke-width="0.705556"/>
		<line x1="581.712" y1="129.25" x2="580.212" y2="126.652" stroke="rgb(255,0,0)" stroke-width="0.705556"/>
		<line x1="581.712" y1="325.354" x2="580.212" y2="327.952" stroke="rgb(255,0,0)" stroke-width="0.705556"/>
		<line x1="441.549" y1="189.916" x2="441.549" y2="162.301" stroke="rgb(64,128,128)" stroke-width="0"/>
		<line x1="450.033" y1="171.506" x2="450.033" y2="162.301" stroke="rgb(64,128,128)" stroke-width="0"/>
		<line x1="445.791" y1="180.711" x2="445.791" y2="162.301" stroke="rgb(64,128,128)" stroke-width="0"/>
		<line x1="437.307" y1="199.121" x2="437.307" y2="162.301" stroke="rgb(64,128,128)" stroke-width="0"/>
		<line x1="433.065" y1="208.326" x2="433.065" y2="162.301" stroke="rgb(64,128,128)" stroke-width="0"/>
		<line x1="428.823" y1="217.531" x2="428.823" y2="162.301" stroke="rgb(64,128,128)" stroke-width="0"/>
		<line x1="454.275" y1="162.301" x2="428.823" y2="162.301" stroke="rgb(64,128,128)" stroke-width="0"/>
		<line x1="428.823" y1="217.531" x2="457.098" y2="189.213" stroke="rgb(64,128,128)" stroke-width="0"/>
		<path d="M457.098,189.213 a26.6045 26.6045 0 0 1 -2.82257,-26.9118" fill="none" stroke="rgb(64,128,128)" stroke-width="0"/>
		<line x1="454.275" y1="162.301" x2="428.823" y2="217.531" stroke="rgb(64,128,128)" stroke-width="0"/>
	</g>
</svg>