<svg version = "1.1" xmlns = "http://www.w3.org/2000/svg" xmlns:xlink="http://www.w3.org/1999/xlink" width="989.606" height="277.168" viewbox = "0 0 989.606 277.168">
	<g transform="translate(-24.1988,329.654) scale(1,-1) ">
		<line x1="330.852" y1="179.651" x2="330.852" y2="329.301" stroke="rgb(255,255,0)" stroke-width="0.705556"/>
		<line x1="330.852" y1="329.301" x2="49.5516" y2="329.301" stroke="rgb(255,0,0)" stroke-width="0.705556"/>
		<line x1="532.152" y1="329.301" x2="532.152" y2="179.651" stroke="rgb(255,255,0)" stroke-width="0.705556"/>
		<line x1="330.852" y1="329.301" x2="532.152" y2="329.301" stroke="rgb(255,0,0)" stroke-width="0.705556"/>
		<line x1="813.452" y1="179.651" x2="813.452" y2="329.301" stroke="rgb(255,255,0)" stroke-width="0.705556"/>
		<line x1="813.452" y1="329.301" x2="532.152" y2="329.301" stroke="rgb(255,0,0)" stroke-width="0.705556"/>
		<line x1="1013.45" y1="329.301" x2="1013.45" y2="178.651" stroke="rgb(255,0,0)" stroke-width="0.705556"/>
		<line x1="813.452" y1="329.301" x2="1013.45" y2="329.301" stroke="rgb(255,0,0)" stroke-width="0.705556"/>
		<line x1="431.502" y1="241.266" x2="431.502" y2="213.651" stroke="rgb(64,128,128)" stroke-width="0"/>
		<line x1="439.986" y1="222.856" x2="439.986" y2="213.651" stroke="rgb(64,128,128)" stroke-width="0"/>
		<line x1="435.744" y1="232.061" x2="435.744" y2="213.651" stroke="rgb(64,128,128)" stroke-width="0"/>
		<line x1="427.26" y1="250.471" x2="427.26" y2="213.651" stroke="rgb(64,128,128)" stroke-width="0"/>
		<line x1="423.018" y1="259.676" x2="423.018" y2="213.651" stroke="rgb(64,128,128)" stroke-width="0"/>
		<line x1="418.776" y1="268.881" x2="418.776" y2="213.651" stroke="rgb(64,128,128)" stroke-width="0"/>
		<line x1="444.228" y1="213.651" x2="418.776" y2="213.651" stroke="rgb(64,128,128)" stroke-width="0"/>
		<line x1="418.776" y1="268.881" x2="447.05" y2="240.563" stroke="rgb(64,128,128)" stroke-width="0"/>
		<path d="M447.05,240.563 a26.6045 26.6045 0 0 1 -2.82257,-26.9118" fill="none" stroke="rgb(64,128,128)" stroke-width="0"/>
		<line x1="444.228" y1="213.651" x2="418.776" y2="268.881" stroke="rgb(64,128,128)" stroke-width="0"/>
		<path d="M330.852,179.651 a2 2 0 0 0 1.87939,-1.31596" fill="none" stroke="rgb(255,0,0)" stroke-width="0.705556"/>
		<line x1="332.731" y1="178.335" x2="369.25" y2="78.0013" stroke="rgb(255,0,0)" stroke-width="0.705556"/>
		<path d="M532.152,179.651 a2 2 0 0 1 -1.41421,-0.585786" fill="none" stroke="rgb(255,0,0)" stroke-width="0.705556"/>
		<line x1="530.737" y1="179.066" x2="429.673" y2="78.0013" stroke="rgb(255,0,0)" stroke-width="0.705556"/>
		<line x1="369.25" y1="78.0013" x2="429.673" y2="78.0013" stroke="rgb(255,0,0)" stroke-width="0.705556"/>
		<line x1="332.584" y1="178.651" x2="530.323" y2="178.651" stroke="rgb(255,255,0)" stroke-width="0.705556"/>
		<path d="M813.452,179.651 a2 2 0 0 0 1.87939,-1.31596" fill="none" stroke="rgb(255,0,0)" stroke-width="0.705556"/>
		<line x1="815.331" y1="178.335" x2="851.85" y2="78.0013" stroke="rgb(255,0,0)" stroke-width="0.705556"/>
		<line x1="1013.45" y1="178.651" x2="912.802" y2="78.0013" stroke="rgb(255,0,0)" stroke-width="0.705556"/>
		<line x1="851.85" y1="78.0013" x2="912.802" y2="78.0013" stroke="rgb(255,0,0)" stroke-width="0.705556"/>
		<line x1="815.184" y1="178.651" x2="1013.45" y2="178.651" stroke="rgb(255,255,0)" stroke-width="0.705556"/>
		<line x1="328.852" y1="152.183" x2="328.852" y2="52.8388" stroke="rgb(255,0,0)" stroke-width="0.705556"/>
		<line x1="328.852" y1="52.8388" x2="255.364" y2="52.8388" stroke="rgb(255,0,0)" stroke-width="0.705556"/>
		<line x1="255.364" y1="52.8388" x2="230.202" y2="78.0013" stroke="rgb(255,0,0)" stroke-width="0.705556"/>
		<line x1="230.202" y1="78.0013" x2="190.202" y2="78.0013" stroke="rgb(255,0,0)" stroke-width="0.705556"/>
		<line x1="190.202" y1="78.0013" x2="190.202" y2="74.0013" stroke="rgb(255,0,0)" stroke-width="0.705556"/>
		<line x1="190.202" y1="74.0013" x2="169.039" y2="52.8388" stroke="rgb(255,0,0)" stroke-width="0.705556"/>
		<line x1="169.039" y1="52.8388" x2="56.7951" y2="52.8388" stroke="rgb(255,0,0)" stroke-width="0.705556"/>
		<line x1="50.2016" y1="178.651" x2="56.7951" y2="52.8388" stroke="rgb(255,0,0)" stroke-width="0.705556"/>
		<line x1="50.2016" y1="178.651" x2="329.023" y2="178.651" stroke="rgb(255,255,0)" stroke-width="0.705556"/>
		<line x1="328.852" y1="152.183" x2="315.703" y2="165.331" stroke="rgb(255,0,0)" stroke-width="0.705556"/>
		<line x1="329.437" y1="179.066" x2="315.703" y2="165.331" stroke="rgb(255,0,0)" stroke-width="0.705556"/>
		<path d="M330.852,179.651 a2 2 0 0 1 -1.41421,-0.585786" fill="none" stroke="rgb(255,0,0)" stroke-width="0.705556"/>
		<line x1="230.202" y1="78.0013" x2="316.618" y2="164.417" stroke="rgb(255,255,0)" stroke-width="0.705556"/>
		<path d="M532.152,179.651 a2 2 0 0 0 1.99726,-1.89533" fill="none" stroke="rgb(255,0,0)" stroke-width="0.705556"/>
		<line x1="811.452" y1="152.183" x2="811.452" y2="52.8388" stroke="rgb(255,0,0)" stroke-width="0.705556"/>
		<line x1="811.452" y1="52.8388" x2="737.964" y2="52.8388" stroke="rgb(255,0,0)" stroke-width="0.705556"/>
		<line x1="737.964" y1="52.8388" x2="712.802" y2="78.0013" stroke="rgb(255,0,0)" stroke-width="0.705556"/>
		<line x1="712.802" y1="78.0013" x2="672.802" y2="78.0013" stroke="rgb(255,0,0)" stroke-width="0.705556"/>
		<line x1="672.802" y1="78.0013" x2="672.802" y2="74.0013" stroke="rgb(255,0,0)" stroke-width="0.705556"/>
		<line x1="672.802" y1="74.0013" x2="651.639" y2="52.8388" stroke="rgb(255,0,0)" stroke-width="0.705556"/>
		<line x1="651.639" y1="52.8388" x2="540.695" y2="52.8388" stroke="rgb(255,0,0)" stroke-width="0.705556"/>
		<line x1="534.149" y1="177.756" x2="540.695" y2="52.8388" stroke="rgb(255,0,0)" stroke-width="0.705556"/>
		<line x1="533.884" y1="178.651" x2="811.623" y2="178.651" stroke="rgb(255,255,0)" stroke-width="0.705556"/>
		<line x1="811.452" y1="152.183" x2="798.303" y2="165.331" stroke="rgb(255,0,0)" stroke-width="0.705556"/>
		<line x1="812.037" y1="179.066" x2="798.303" y2="165.331" stroke="rgb(255,0,0)" stroke-width="0.705556"/>
		<path d="M813.452,179.651 a2 2 0 0 1 -1.41421,-0.585786" fill="none" stroke="rgb(255,0,0)" stroke-width="0.705556"/>
		<line x1="712.802" y1="78.0013" x2="799.218" y2="164.417" stroke="rgb(255,255,0)" stroke-width="0.705556"/>
		<line x1="50.2016" y1="178.651" x2="24.5516" y2="204.301" stroke="rgb(255,0,0)" stroke-width="0.705556"/>
		<line x1="24.5516" y1="204.301" x2="24.5516" y2="329.301" stroke="rgb(255,0,0)" stroke-width="0.705556"/>
		<line x1="24.5516" y1="329.301" x2="49.5516" y2="329.301" stroke="rgb(255,0,0)" stroke-width="0.705556"/>
		<line x1="49.5516" y1="179.301" x2="49.5516" y2="329.301" stroke="rgb(255,255,0)" stroke-width="0.705556"/>
	</g>
</svg>