<svg version = "1.1" xmlns = "http://www.w3.org/2000/svg" xmlns:xlink="http://www.w3.org/1999/xlink" width="989.606" height="623.956" viewbox = "0 0 989.606 623.956">
	<g transform="translate(-51.0769,648.146) scale(1,-1) ">
		<line x1="357.73" y1="226.843" x2="357.73" y2="445.143" stroke="rgb(255,255,0)" stroke-width="0.705556"/>
		<line x1="559.03" y1="445.143" x2="559.03" y2="226.843" stroke="rgb(255,255,0)" stroke-width="0.705556"/>
		<line x1="840.33" y1="226.843" x2="840.33" y2="445.143" stroke="rgb(255,255,0)" stroke-width="0.705556"/>
		<line x1="1040.33" y1="445.143" x2="1040.33" y2="225.843" stroke="rgb(255,0,0)" stroke-width="0.705556"/>
		<line x1="840.33" y1="445.143" x2="838.83" y2="445.143" stroke="rgb(255,0,0)" stroke-width="0.705556"/>
		<line x1="838.83" y1="445.143" x2="838.83" y2="647.793" stroke="rgb(255,0,0)" stroke-width="0.705556"/>
		<line x1="838.83" y1="647.793" x2="560.53" y2="647.793" stroke="rgb(255,0,0)" stroke-width="0.705556"/>
		<line x1="560.53" y1="647.793" x2="560.53" y2="445.143" stroke="rgb(255,0,0)" stroke-width="0.705556"/>
		<line x1="560.53" y1="445.143" x2="559.03" y2="445.143" stroke="rgb(255,0,0)" stroke-width="0.705556"/>
		<line x1="838.83" y1="448.443" x2="560.53" y2="448.443" stroke="rgb(255,255,0)" stroke-width="0.705556"/>
		<line x1="559.03" y1="445.143" x2="557.53" y2="445.143" stroke="rgb(255,0,0)" stroke-width="0.705556"/>
		<line x1="557.53" y1="445.143" x2="557.53" y2="647.793" stroke="rgb(255,0,0)" stroke-width="0.705556"/>
		<line x1="557.53" y1="647.793" x2="359.23" y2="647.793" stroke="rgb(255,0,0)" stroke-width="0.705556"/>
		<line x1="359.23" y1="647.793" x2="359.23" y2="445.143" stroke="rgb(255,0,0)" stroke-width="0.705556"/>
		<line x1="359.23" y1="445.143" x2="357.73" y2="445.143" stroke="rgb(255,0,0)" stroke-width="0.705556"/>
		<line x1="557.53" y1="447.143" x2="359.23" y2="447.143" stroke="rgb(255,255,0)" stroke-width="0.705556"/>
		<line x1="357.73" y1="445.143" x2="356.23" y2="445.143" stroke="rgb(255,0,0)" stroke-width="0.705556"/>
		<line x1="356.23" y1="445.143" x2="356.23" y2="647.793" stroke="rgb(255,0,0)" stroke-width="0.705556"/>
		<line x1="356.23" y1="647.793" x2="77.9297" y2="647.793" stroke="rgb(255,0,0)" stroke-width="0.705556"/>
		<line x1="77.9297" y1="647.793" x2="77.9297" y2="445.143" stroke="rgb(255,0,0)" stroke-width="0.705556"/>
		<line x1="356.23" y1="448.443" x2="77.9297" y2="448.443" stroke="rgb(255,255,0)" stroke-width="0.705556"/>
		<line x1="1040.33" y1="445.143" x2="1040.33" y2="445.143" stroke="rgb(255,0,0)" stroke-width="0.705556"/>
		<line x1="1040.33" y1="445.143" x2="1040.33" y2="647.793" stroke="rgb(255,0,0)" stroke-width="0.705556"/>
		<line x1="1040.33" y1="647.793" x2="841.83" y2="647.793" stroke="rgb(255,0,0)" stroke-width="0.705556"/>
		<line x1="841.83" y1="647.793" x2="841.83" y2="445.143" stroke="rgb(255,0,0)" stroke-width="0.705556"/>
		<line x1="841.83" y1="445.143" x2="840.33" y2="445.143" stroke="rgb(255,0,0)" stroke-width="0.705556"/>
		<line x1="1040.33" y1="447.143" x2="841.83" y2="447.143" stroke="rgb(255,255,0)" stroke-width="0.705556"/>
		<line x1="1040.33" y1="445.143" x2="1040.33" y2="445.143" stroke="rgb(255,0,0)" stroke-width="0.705556"/>
		<line x1="698.68" y1="278.458" x2="698.68" y2="250.843" stroke="rgb(64,128,128)" stroke-width="0"/>
		<line x1="707.164" y1="260.048" x2="707.164" y2="250.843" stroke="rgb(64,128,128)" stroke-width="0"/>
		<line x1="702.922" y1="269.253" x2="702.922" y2="250.843" stroke="rgb(64,128,128)" stroke-width="0"/>
		<line x1="694.438" y1="287.663" x2="694.438" y2="250.843" stroke="rgb(64,128,128)" stroke-width="0"/>
		<line x1="690.196" y1="296.868" x2="690.196" y2="250.843" stroke="rgb(64,128,128)" stroke-width="0"/>
		<line x1="685.954" y1="306.073" x2="685.954" y2="250.843" stroke="rgb(64,128,128)" stroke-width="0"/>
		<line x1="711.406" y1="250.843" x2="685.954" y2="250.843" stroke="rgb(64,128,128)" stroke-width="0"/>
		<line x1="685.954" y1="306.073" x2="714.228" y2="277.755" stroke="rgb(64,128,128)" stroke-width="0"/>
		<path d="M714.228,277.755 a26.6045 26.6045 0 0 1 -2.82257,-26.9118" fill="none" stroke="rgb(64,128,128)" stroke-width="0"/>
		<line x1="711.406" y1="250.843" x2="685.954" y2="306.073" stroke="rgb(64,128,128)" stroke-width="0"/>
		<line x1="458.38" y1="125.193" x2="458.38" y2="125.193" stroke="rgb(255,0,0)" stroke-width="0.705556"/>
		<line x1="458.38" y1="125.193" x2="433.217" y2="100.031" stroke="rgb(255,0,0)" stroke-width="0.705556"/>
		<line x1="433.217" y1="100.031" x2="359.73" y2="100.031" stroke="rgb(255,0,0)" stroke-width="0.705556"/>
		<line x1="359.73" y1="100.031" x2="359.73" y2="199.375" stroke="rgb(255,0,0)" stroke-width="0.705556"/>
		<path d="M357.73,226.843 a2 2 0 0 0 1.41421,-0.585786" fill="none" stroke="rgb(255,0,0)" stroke-width="0.705556"/>
		<line x1="557.603" y1="226.245" x2="458.38" y2="125.193" stroke="rgb(255,0,0)" stroke-width="0.705556"/>
		<path d="M559.03,226.843 a2 2 0 0 1 -1.42706,-0.598755" fill="none" stroke="rgb(255,0,0)" stroke-width="0.705556"/>
		<line x1="359.558" y1="225.843" x2="557.209" y2="225.843" stroke="rgb(255,255,0)" stroke-width="0.705556"/>
		<line x1="359.144" y1="226.258" x2="372.878" y2="212.524" stroke="rgb(255,0,0)" stroke-width="0.705556"/>
		<line x1="371.964" y1="211.609" x2="458.38" y2="125.193" stroke="rgb(255,255,0)" stroke-width="0.705556"/>
		<line x1="359.73" y1="199.375" x2="372.878" y2="212.524" stroke="rgb(255,0,0)" stroke-width="0.705556"/>
		<path d="M357.73,226.843 a2 2 0 0 1 -2,-2" fill="none" stroke="rgb(255,0,0)" stroke-width="0.705556"/>
		<line x1="355.73" y1="224.843" x2="355.73" y2="125.193" stroke="rgb(255,0,0)" stroke-width="0.705556"/>
		<line x1="77.0797" y1="225.843" x2="77.0797" y2="125.193" stroke="rgb(255,0,0)" stroke-width="0.705556"/>
		<line x1="355.73" y1="125.193" x2="77.0797" y2="125.193" stroke="rgb(255,0,0)" stroke-width="0.705556"/>
		<line x1="355.998" y1="225.843" x2="262.659" y2="225.843" stroke="rgb(255,255,0)" stroke-width="0.705556"/>
		<line x1="171.501" y1="225.843" x2="77.0797" y2="225.843" stroke="rgb(255,255,0)" stroke-width="0.705556"/>
		<line x1="940.98" y1="125.193" x2="940.98" y2="125.193" stroke="rgb(255,0,0)" stroke-width="0.705556"/>
		<line x1="940.98" y1="125.193" x2="915.817" y2="100.031" stroke="rgb(255,0,0)" stroke-width="0.705556"/>
		<line x1="915.817" y1="100.031" x2="842.33" y2="100.031" stroke="rgb(255,0,0)" stroke-width="0.705556"/>
		<line x1="842.33" y1="100.031" x2="842.33" y2="199.375" stroke="rgb(255,0,0)" stroke-width="0.705556"/>
		<path d="M840.33,226.843 a2 2 0 0 0 1.41421,-0.585786" fill="none" stroke="rgb(255,0,0)" stroke-width="0.705556"/>
		<line x1="1040.33" y1="225.843" x2="940.98" y2="125.193" stroke="rgb(255,0,0)" stroke-width="0.705556"/>
		<line x1="842.158" y1="225.843" x2="1040.33" y2="225.843" stroke="rgb(255,255,0)" stroke-width="0.705556"/>
		<line x1="1040.33" y1="225.843" x2="1040.33" y2="225.843" stroke="rgb(255,0,0)" stroke-width="0.705556"/>
		<line x1="841.744" y1="226.258" x2="855.478" y2="212.524" stroke="rgb(255,0,0)" stroke-width="0.705556"/>
		<line x1="854.564" y1="211.609" x2="940.98" y2="125.193" stroke="rgb(255,255,0)" stroke-width="0.705556"/>
		<line x1="842.33" y1="199.375" x2="855.478" y2="212.524" stroke="rgb(255,0,0)" stroke-width="0.705556"/>
		<line x1="170.196" y1="223.843" x2="173.196" y2="228.443" stroke="rgb(255,0,0)" stroke-width="0.705556"/>
		<line x1="173.196" y1="228.443" x2="260.963" y2="228.443" stroke="rgb(255,0,0)" stroke-width="0.705556"/>
		<line x1="260.963" y1="228.443" x2="263.963" y2="223.843" stroke="rgb(255,0,0)" stroke-width="0.705556"/>
		<path d="M840.33,226.843 a2 2 0 0 1 -1.98306,-1.74023" fill="none" stroke="rgb(255,0,0)" stroke-width="0.705556"/>
		<line x1="838.347" y1="225.103" x2="812.33" y2="26.4934" stroke="rgb(255,0,0)" stroke-width="0.705556"/>
		<line x1="561.03" y1="224.843" x2="561.03" y2="26.4934" stroke="rgb(255,0,0)" stroke-width="0.705556"/>
		<line x1="812.33" y1="26.4934" x2="746.563" y2="26.4934" stroke="rgb(255,0,0)" stroke-width="0.705556"/>
		<line x1="652.796" y1="26.4934" x2="561.03" y2="26.4934" stroke="rgb(255,0,0)" stroke-width="0.705556"/>
		<line x1="838.598" y1="225.843" x2="560.762" y2="225.843" stroke="rgb(255,255,0)" stroke-width="0.705556"/>
		<path d="M559.03,226.843 a2 2 0 0 0 2,-2" fill="none" stroke="rgb(255,0,0)" stroke-width="0.705556"/>
		<line x1="653.796" y1="24.5434" x2="652.796" y2="26.4934" stroke="rgb(255,0,0)" stroke-width="0.705556"/>
		<line x1="745.563" y1="24.5434" x2="653.796" y2="24.5434" stroke="rgb(255,0,0)" stroke-width="0.705556"/>
		<line x1="746.563" y1="26.4934" x2="745.563" y2="24.5434" stroke="rgb(255,0,0)" stroke-width="0.705556"/>
		<line x1="77.0797" y1="225.843" x2="51.4297" y2="251.493" stroke="rgb(255,0,0)" stroke-width="0.705556"/>
		<line x1="51.4297" y1="251.493" x2="51.4297" y2="438.043" stroke="rgb(255,0,0)" stroke-width="0.705556"/>
		<line x1="76.4297" y1="444.741" x2="76.4297" y2="226.493" stroke="rgb(255,255,0)" stroke-width="0.705556"/>
		<line x1="77.9297" y1="445.143" x2="51.4297" y2="438.043" stroke="rgb(255,0,0)" stroke-width="0.705556"/>
	</g>
</svg>