<svg version = "1.1" xmlns = "http://www.w3.org/2000/svg" xmlns:xlink="http://www.w3.org/1999/xlink" width="989.606" height="418.468" viewbox = "0 0 989.606 418.468">
	<g transform="translate(-22.7369,423.109) scale(1,-1) ">
		<line x1="329.39" y1="131.806" x2="329.39" y2="280.106" stroke="rgb(255,255,0)" stroke-width="0.705556"/>
		<line x1="530.69" y1="280.106" x2="530.69" y2="131.806" stroke="rgb(255,255,0)" stroke-width="0.705556"/>
		<line x1="811.99" y1="131.806" x2="811.99" y2="280.106" stroke="rgb(255,255,0)" stroke-width="0.705556"/>
		<line x1="1011.99" y1="280.106" x2="1011.99" y2="130.806" stroke="rgb(255,0,0)" stroke-width="0.705556"/>
		<line x1="811.99" y1="280.106" x2="810.49" y2="280.106" stroke="rgb(255,0,0)" stroke-width="0.705556"/>
		<line x1="810.49" y1="280.106" x2="810.49" y2="384.056" stroke="rgb(255,0,0)" stroke-width="0.705556"/>
		<line x1="810.49" y1="384.056" x2="532.19" y2="384.056" stroke="rgb(255,0,0)" stroke-width="0.705556"/>
		<line x1="532.19" y1="384.056" x2="532.19" y2="280.106" stroke="rgb(255,0,0)" stroke-width="0.705556"/>
		<line x1="532.19" y1="280.106" x2="530.69" y2="280.106" stroke="rgb(255,0,0)" stroke-width="0.705556"/>
		<line x1="810.49" y1="283.406" x2="532.19" y2="283.406" stroke="rgb(255,255,0)" stroke-width="0.705556"/>
		<line x1="530.69" y1="280.106" x2="529.19" y2="280.106" stroke="rgb(255,0,0)" stroke-width="0.705556"/>
		<line x1="529.19" y1="280.106" x2="529.19" y2="422.756" stroke="rgb(255,0,0)" stroke-width="0.705556"/>
		<line x1="529.19" y1="422.756" x2="330.89" y2="422.756" stroke="rgb(255,0,0)" stroke-width="0.705556"/>
		<line x1="330.89" y1="422.756" x2="330.89" y2="280.106" stroke="rgb(255,0,0)" stroke-width="0.705556"/>
		<line x1="330.89" y1="280.106" x2="329.39" y2="280.106" stroke="rgb(255,0,0)" stroke-width="0.705556"/>
		<line x1="529.19" y1="282.106" x2="330.89" y2="282.106" stroke="rgb(255,255,0)" stroke-width="0.705556"/>
		<line x1="329.39" y1="280.106" x2="327.89" y2="280.106" stroke="rgb(255,0,0)" stroke-width="0.705556"/>
		<line x1="327.89" y1="280.106" x2="327.89" y2="384.056" stroke="rgb(255,0,0)" stroke-width="0.705556"/>
		<line x1="327.89" y1="384.056" x2="49.5897" y2="384.056" stroke="rgb(255,0,0)" stroke-width="0.705556"/>
		<line x1="49.5897" y1="384.056" x2="49.5897" y2="280.106" stroke="rgb(255,0,0)" stroke-width="0.705556"/>
		<line x1="327.89" y1="283.406" x2="49.5897" y2="283.406" stroke="rgb(255,255,0)" stroke-width="0.705556"/>
		<line x1="1011.99" y1="280.106" x2="1011.99" y2="280.106" stroke="rgb(255,0,0)" stroke-width="0.705556"/>
		<line x1="1011.99" y1="280.106" x2="1011.99" y2="422.756" stroke="rgb(255,0,0)" stroke-width="0.705556"/>
		<line x1="1011.99" y1="422.756" x2="813.49" y2="422.756" stroke="rgb(255,0,0)" stroke-width="0.705556"/>
		<line x1="813.49" y1="422.756" x2="813.49" y2="280.106" stroke="rgb(255,0,0)" stroke-width="0.705556"/>
		<line x1="813.49" y1="280.106" x2="811.99" y2="280.106" stroke="rgb(255,0,0)" stroke-width="0.705556"/>
		<line x1="1011.99" y1="282.106" x2="813.49" y2="282.106" stroke="rgb(255,255,0)" stroke-width="0.705556"/>
		<line x1="1011.99" y1="280.106" x2="1011.99" y2="280.106" stroke="rgb(255,0,0)" stroke-width="0.705556"/>
		<line x1="188.74" y1="183.421" x2="188.74" y2="155.806" stroke="rgb(64,128,128)" stroke-width="0"/>
		<line x1="197.224" y1="165.011" x2="197.224" y2="155.806" stroke="rgb(64,128,128)" stroke-width="0"/>
		<line x1="192.982" y1="174.216" x2="192.982" y2="155.806" stroke="rgb(64,128,128)" stroke-width="0"/>
		<line x1="184.498" y1="192.626" x2="184.498" y2="155.806" stroke="rgb(64,128,128)" stroke-width="0"/>
		<line x1="180.256" y1="201.831" x2="180.256" y2="155.806" stroke="rgb(64,128,128)" stroke-width="0"/>
		<line x1="176.014" y1="211.036" x2="176.014" y2="155.806" stroke="rgb(64,128,128)" stroke-width="0"/>
		<line x1="201.466" y1="155.806" x2="176.014" y2="155.806" stroke="rgb(64,128,128)" stroke-width="0"/>
		<line x1="176.014" y1="211.036" x2="204.288" y2="182.718" stroke="rgb(64,128,128)" stroke-width="0"/>
		<path d="M204.288,182.718 a26.6045 26.6045 0 0 1 -2.82257,-26.9118" fill="none" stroke="rgb(64,128,128)" stroke-width="0"/>
		<line x1="201.466" y1="155.806" x2="176.014" y2="211.036" stroke="rgb(64,128,128)" stroke-width="0"/>
		<path d="M329.39,131.806 a2 2 0 0 0 1.87939,-1.31596" fill="none" stroke="rgb(255,0,0)" stroke-width="0.705556"/>
		<line x1="331.269" y1="130.49" x2="367.788" y2="30.1559" stroke="rgb(255,0,0)" stroke-width="0.705556"/>
		<path d="M530.69,131.806 a2 2 0 0 1 -1.41421,-0.585786" fill="none" stroke="rgb(255,0,0)" stroke-width="0.705556"/>
		<line x1="529.276" y1="131.22" x2="428.211" y2="30.1559" stroke="rgb(255,0,0)" stroke-width="0.705556"/>
		<line x1="367.788" y1="30.1559" x2="428.211" y2="30.1559" stroke="rgb(255,0,0)" stroke-width="0.705556"/>
		<line x1="331.122" y1="130.806" x2="528.861" y2="130.806" stroke="rgb(255,255,0)" stroke-width="0.705556"/>
		<path d="M811.99,131.806 a2 2 0 0 0 1.87939,-1.31596" fill="none" stroke="rgb(255,0,0)" stroke-width="0.705556"/>
		<line x1="813.869" y1="130.49" x2="850.388" y2="30.1559" stroke="rgb(255,0,0)" stroke-width="0.705556"/>
		<line x1="1011.99" y1="130.806" x2="911.34" y2="30.1559" stroke="rgb(255,0,0)" stroke-width="0.705556"/>
		<line x1="850.388" y1="30.1559" x2="911.34" y2="30.1559" stroke="rgb(255,0,0)" stroke-width="0.705556"/>
		<line x1="813.722" y1="130.806" x2="1011.99" y2="130.806" stroke="rgb(255,255,0)" stroke-width="0.705556"/>
		<line x1="327.39" y1="104.338" x2="327.39" y2="4.99343" stroke="rgb(255,0,0)" stroke-width="0.705556"/>
		<line x1="327.39" y1="4.99343" x2="253.902" y2="4.99343" stroke="rgb(255,0,0)" stroke-width="0.705556"/>
		<line x1="253.902" y1="4.99343" x2="228.74" y2="30.1559" stroke="rgb(255,0,0)" stroke-width="0.705556"/>
		<line x1="228.74" y1="30.1559" x2="188.74" y2="30.1559" stroke="rgb(255,0,0)" stroke-width="0.705556"/>
		<line x1="188.74" y1="30.1559" x2="188.74" y2="26.1559" stroke="rgb(255,0,0)" stroke-width="0.705556"/>
		<line x1="188.74" y1="26.1559" x2="167.577" y2="4.99343" stroke="rgb(255,0,0)" stroke-width="0.705556"/>
		<line x1="167.577" y1="4.99343" x2="55.3333" y2="4.99343" stroke="rgb(255,0,0)" stroke-width="0.705556"/>
		<line x1="48.7397" y1="130.806" x2="55.3333" y2="4.99343" stroke="rgb(255,0,0)" stroke-width="0.705556"/>
		<line x1="48.7397" y1="130.806" x2="327.561" y2="130.806" stroke="rgb(255,255,0)" stroke-width="0.705556"/>
		<line x1="327.39" y1="104.338" x2="314.241" y2="117.486" stroke="rgb(255,0,0)" stroke-width="0.705556"/>
		<line x1="327.976" y1="131.22" x2="314.241" y2="117.486" stroke="rgb(255,0,0)" stroke-width="0.705556"/>
		<path d="M329.39,131.806 a2 2 0 0 1 -1.41421,-0.585786" fill="none" stroke="rgb(255,0,0)" stroke-width="0.705556"/>
		<line x1="228.74" y1="30.1559" x2="315.156" y2="116.572" stroke="rgb(255,255,0)" stroke-width="0.705556"/>
		<path d="M530.69,131.806 a2 2 0 0 0 1.99726,-1.89533" fill="none" stroke="rgb(255,0,0)" stroke-width="0.705556"/>
		<line x1="809.99" y1="104.338" x2="809.99" y2="4.99343" stroke="rgb(255,0,0)" stroke-width="0.705556"/>
		<line x1="809.99" y1="4.99343" x2="736.502" y2="4.99343" stroke="rgb(255,0,0)" stroke-width="0.705556"/>
		<line x1="736.502" y1="4.99343" x2="711.34" y2="30.1559" stroke="rgb(255,0,0)" stroke-width="0.705556"/>
		<line x1="711.34" y1="30.1559" x2="671.34" y2="30.1559" stroke="rgb(255,0,0)" stroke-width="0.705556"/>
		<line x1="671.34" y1="30.1559" x2="671.34" y2="26.1559" stroke="rgb(255,0,0)" stroke-width="0.705556"/>
		<line x1="671.34" y1="26.1559" x2="650.177" y2="4.99343" stroke="rgb(255,0,0)" stroke-width="0.705556"/>
		<line x1="650.177" y1="4.99343" x2="539.234" y2="4.99343" stroke="rgb(255,0,0)" stroke-width="0.705556"/>
		<line x1="532.687" y1="129.911" x2="539.234" y2="4.99343" stroke="rgb(255,0,0)" stroke-width="0.705556"/>
		<line x1="532.422" y1="130.806" x2="810.161" y2="130.806" stroke="rgb(255,255,0)" stroke-width="0.705556"/>
		<line x1="809.99" y1="104.338" x2="796.841" y2="117.486" stroke="rgb(255,0,0)" stroke-width="0.705556"/>
		<line x1="810.576" y1="131.22" x2="796.841" y2="117.486" stroke="rgb(255,0,0)" stroke-width="0.705556"/>
		<path d="M811.99,131.806 a2 2 0 0 1 -1.41421,-0.585786" fill="none" stroke="rgb(255,0,0)" stroke-width="0.705556"/>
		<line x1="711.34" y1="30.1559" x2="797.756" y2="116.572" stroke="rgb(255,255,0)" stroke-width="0.705556"/>
		<line x1="48.7397" y1="130.806" x2="23.0897" y2="156.456" stroke="rgb(255,0,0)" stroke-width="0.705556"/>
		<line x1="23.0897" y1="156.456" x2="23.0897" y2="273.005" stroke="rgb(255,0,0)" stroke-width="0.705556"/>
		<line x1="48.0897" y1="279.704" x2="48.0897" y2="131.456" stroke="rgb(255,255,0)" stroke-width="0.705556"/>
		<line x1="49.5897" y1="280.106" x2="23.0897" y2="273.005" stroke="rgb(255,0,0)" stroke-width="0.705556"/>
	</g>
</svg>