<svg version = "1.1" xmlns = "http://www.w3.org/2000/svg" xmlns:xlink="http://www.w3.org/1999/xlink" width="989.606" height="519.118" viewbox = "0 0 989.606 519.118">
	<g transform="translate(-38.1668,646.512) scale(1,-1) ">
		<line x1="344.82" y1="254.559" x2="344.82" y2="404.859" stroke="rgb(255,255,0)" stroke-width="0.705556"/>
		<line x1="546.12" y1="404.859" x2="546.12" y2="254.559" stroke="rgb(255,255,0)" stroke-width="0.705556"/>
		<line x1="827.42" y1="254.559" x2="827.42" y2="404.859" stroke="rgb(255,255,0)" stroke-width="0.705556"/>
		<line x1="827.42" y1="404.859" x2="698.77" y2="404.859" stroke="rgb(255,0,0)" stroke-width="0.705556"/>
		<line x1="674.77" y1="404.859" x2="546.12" y2="404.859" stroke="rgb(255,0,0)" stroke-width="0.705556"/>
		<line x1="1027.42" y1="404.859" x2="1027.42" y2="253.559" stroke="rgb(255,0,0)" stroke-width="0.705556"/>
		<path d="M674.77,404.859 a12 12 0 0 1 24,0" fill="none" stroke="rgb(255,0,0)" stroke-width="0.705556"/>
		<line x1="345.47" y1="498.842" x2="345.47" y2="606.159" stroke="rgb(255,0,0)" stroke-width="0.705556"/>
		<line x1="62.8696" y1="606.159" x2="62.8696" y2="406.159" stroke="rgb(255,0,0)" stroke-width="0.705556"/>
		<line x1="62.8696" y1="406.159" x2="63.5196" y2="404.859" stroke="rgb(255,0,0)" stroke-width="0.705556"/>
		<line x1="345.47" y1="406.159" x2="62.8696" y2="406.159" stroke="rgb(255,255,0)" stroke-width="0.705556"/>
		<line x1="64.8196" y1="606.159" x2="64.8196" y2="626.159" stroke="rgb(255,0,0)" stroke-width="0.705556"/>
		<line x1="84.8196" y1="646.159" x2="323.52" y2="646.159" stroke="rgb(255,0,0)" stroke-width="0.705556"/>
		<line x1="343.52" y1="626.159" x2="343.52" y2="606.159" stroke="rgb(255,0,0)" stroke-width="0.705556"/>
		<line x1="345.47" y1="606.159" x2="343.52" y2="606.159" stroke="rgb(255,0,0)" stroke-width="0.705556"/>
		<line x1="343.52" y1="606.159" x2="64.8196" y2="606.159" stroke="rgb(255,255,0)" stroke-width="0.705556"/>
		<line x1="64.8196" y1="606.159" x2="62.8696" y2="606.159" stroke="rgb(255,0,0)" stroke-width="0.705556"/>
		<path d="M84.8196,646.159 a20 20 0 0 1 -20,-20" fill="none" stroke="rgb(255,0,0)" stroke-width="0.705556"/>
		<path d="M323.52,646.159 a20 20 0 0 0 20,-20" fill="none" stroke="rgb(255,0,0)" stroke-width="0.705556"/>
		<line x1="344.82" y1="404.859" x2="345.47" y2="406.159" stroke="rgb(255,0,0)" stroke-width="0.705556"/>
		<line x1="345.47" y1="406.159" x2="345.47" y2="498.842" stroke="rgb(255,0,0)" stroke-width="0.705556"/>
		<line x1="345.47" y1="498.842" x2="521.12" y2="498.842" stroke="rgb(255,0,0)" stroke-width="0.705556"/>
		<line x1="521.12" y1="498.842" x2="544.17" y2="404.859" stroke="rgb(255,0,0)" stroke-width="0.705556"/>
		<line x1="544.17" y1="404.859" x2="546.12" y2="404.859" stroke="rgb(255,0,0)" stroke-width="0.705556"/>
		<line x1="344.82" y1="404.859" x2="544.17" y2="404.859" stroke="rgb(255,255,0)" stroke-width="0.705556"/>
		<line x1="1027.42" y1="404.859" x2="1026.77" y2="406.159" stroke="rgb(255,0,0)" stroke-width="0.705556"/>
		<line x1="1026.77" y1="406.159" x2="1026.77" y2="498.842" stroke="rgb(255,0,0)" stroke-width="0.705556"/>
		<line x1="1026.77" y1="498.842" x2="852.42" y2="498.842" stroke="rgb(255,0,0)" stroke-width="0.705556"/>
		<line x1="852.42" y1="498.842" x2="829.37" y2="404.859" stroke="rgb(255,0,0)" stroke-width="0.705556"/>
		<line x1="829.37" y1="404.859" x2="827.42" y2="404.859" stroke="rgb(255,0,0)" stroke-width="0.705556"/>
		<line x1="1027.42" y1="404.859" x2="829.37" y2="404.859" stroke="rgb(255,255,0)" stroke-width="0.705556"/>
		<line x1="686.77" y1="306.174" x2="686.77" y2="278.559" stroke="rgb(64,128,128)" stroke-width="0"/>
		<line x1="695.254" y1="287.764" x2="695.254" y2="278.559" stroke="rgb(64,128,128)" stroke-width="0"/>
		<line x1="691.012" y1="296.969" x2="691.012" y2="278.559" stroke="rgb(64,128,128)" stroke-width="0"/>
		<line x1="682.528" y1="315.379" x2="682.528" y2="278.559" stroke="rgb(64,128,128)" stroke-width="0"/>
		<line x1="678.286" y1="324.584" x2="678.286" y2="278.559" stroke="rgb(64,128,128)" stroke-width="0"/>
		<line x1="674.044" y1="333.788" x2="674.044" y2="278.559" stroke="rgb(64,128,128)" stroke-width="0"/>
		<line x1="699.496" y1="278.559" x2="674.044" y2="278.559" stroke="rgb(64,128,128)" stroke-width="0"/>
		<line x1="674.044" y1="333.788" x2="702.318" y2="305.471" stroke="rgb(64,128,128)" stroke-width="0"/>
		<path d="M702.318,305.471 a26.6045 26.6045 0 0 1 -2.82257,-26.9118" fill="none" stroke="rgb(64,128,128)" stroke-width="0"/>
		<line x1="699.496" y1="278.559" x2="674.044" y2="333.788" stroke="rgb(64,128,128)" stroke-width="0"/>
		<path d="M344.82,254.559 a2 2 0 0 0 1.87939,-1.31596" fill="none" stroke="rgb(255,0,0)" stroke-width="0.705556"/>
		<line x1="346.699" y1="253.243" x2="383.218" y2="152.909" stroke="rgb(255,0,0)" stroke-width="0.705556"/>
		<path d="M546.12,254.559 a2 2 0 0 1 -1.41421,-0.585786" fill="none" stroke="rgb(255,0,0)" stroke-width="0.705556"/>
		<line x1="544.705" y1="253.973" x2="443.641" y2="152.909" stroke="rgb(255,0,0)" stroke-width="0.705556"/>
		<line x1="383.218" y1="152.909" x2="443.641" y2="152.909" stroke="rgb(255,0,0)" stroke-width="0.705556"/>
		<line x1="346.552" y1="253.559" x2="544.291" y2="253.559" stroke="rgb(255,255,0)" stroke-width="0.705556"/>
		<path d="M827.42,254.559 a2 2 0 0 0 1.87939,-1.31596" fill="none" stroke="rgb(255,0,0)" stroke-width="0.705556"/>
		<line x1="829.299" y1="253.243" x2="865.818" y2="152.909" stroke="rgb(255,0,0)" stroke-width="0.705556"/>
		<line x1="1027.42" y1="253.559" x2="926.77" y2="152.909" stroke="rgb(255,0,0)" stroke-width="0.705556"/>
		<line x1="865.818" y1="152.909" x2="926.77" y2="152.909" stroke="rgb(255,0,0)" stroke-width="0.705556"/>
		<line x1="829.152" y1="253.559" x2="1027.42" y2="253.559" stroke="rgb(255,255,0)" stroke-width="0.705556"/>
		<line x1="342.82" y1="227.091" x2="342.82" y2="127.746" stroke="rgb(255,0,0)" stroke-width="0.705556"/>
		<line x1="342.82" y1="127.746" x2="269.332" y2="127.746" stroke="rgb(255,0,0)" stroke-width="0.705556"/>
		<line x1="269.332" y1="127.746" x2="244.17" y2="152.909" stroke="rgb(255,0,0)" stroke-width="0.705556"/>
		<line x1="244.17" y1="152.909" x2="204.17" y2="152.909" stroke="rgb(255,0,0)" stroke-width="0.705556"/>
		<line x1="204.17" y1="152.909" x2="204.17" y2="148.909" stroke="rgb(255,0,0)" stroke-width="0.705556"/>
		<line x1="204.17" y1="148.909" x2="183.007" y2="127.746" stroke="rgb(255,0,0)" stroke-width="0.705556"/>
		<line x1="183.007" y1="127.746" x2="70.7632" y2="127.746" stroke="rgb(255,0,0)" stroke-width="0.705556"/>
		<line x1="64.1696" y1="253.559" x2="70.7632" y2="127.746" stroke="rgb(255,0,0)" stroke-width="0.705556"/>
		<line x1="64.1696" y1="253.559" x2="342.991" y2="253.559" stroke="rgb(255,255,0)" stroke-width="0.705556"/>
		<line x1="342.82" y1="227.091" x2="329.671" y2="240.239" stroke="rgb(255,0,0)" stroke-width="0.705556"/>
		<line x1="343.405" y1="253.973" x2="329.671" y2="240.239" stroke="rgb(255,0,0)" stroke-width="0.705556"/>
		<path d="M344.82,254.559 a2 2 0 0 1 -1.41421,-0.585786" fill="none" stroke="rgb(255,0,0)" stroke-width="0.705556"/>
		<line x1="244.17" y1="152.909" x2="330.586" y2="239.325" stroke="rgb(255,255,0)" stroke-width="0.705556"/>
		<path d="M546.12,254.559 a2 2 0 0 0 1.99726,-1.89533" fill="none" stroke="rgb(255,0,0)" stroke-width="0.705556"/>
		<line x1="825.42" y1="227.091" x2="825.42" y2="127.746" stroke="rgb(255,0,0)" stroke-width="0.705556"/>
		<line x1="825.42" y1="127.746" x2="751.932" y2="127.746" stroke="rgb(255,0,0)" stroke-width="0.705556"/>
		<line x1="751.932" y1="127.746" x2="726.77" y2="152.909" stroke="rgb(255,0,0)" stroke-width="0.705556"/>
		<line x1="726.77" y1="152.909" x2="686.77" y2="152.909" stroke="rgb(255,0,0)" stroke-width="0.705556"/>
		<line x1="686.77" y1="152.909" x2="686.77" y2="148.909" stroke="rgb(255,0,0)" stroke-width="0.705556"/>
		<line x1="686.77" y1="148.909" x2="665.607" y2="127.746" stroke="rgb(255,0,0)" stroke-width="0.705556"/>
		<line x1="665.607" y1="127.746" x2="554.664" y2="127.746" stroke="rgb(255,0,0)" stroke-width="0.705556"/>
		<line x1="548.117" y1="252.664" x2="554.664" y2="127.746" stroke="rgb(255,0,0)" stroke-width="0.705556"/>
		<line x1="547.852" y1="253.559" x2="825.591" y2="253.559" stroke="rgb(255,255,0)" stroke-width="0.705556"/>
		<line x1="825.42" y1="227.091" x2="812.271" y2="240.239" stroke="rgb(255,0,0)" stroke-width="0.705556"/>
		<line x1="826.005" y1="253.973" x2="812.271" y2="240.239" stroke="rgb(255,0,0)" stroke-width="0.705556"/>
		<path d="M827.42,254.559 a2 2 0 0 1 -1.41421,-0.585786" fill="none" stroke="rgb(255,0,0)" stroke-width="0.705556"/>
		<line x1="726.77" y1="152.909" x2="813.186" y2="239.325" stroke="rgb(255,255,0)" stroke-width="0.705556"/>
		<line x1="64.1696" y1="253.559" x2="38.5196" y2="279.209" stroke="rgb(255,0,0)" stroke-width="0.705556"/>
		<line x1="38.5196" y1="279.209" x2="38.5196" y2="398.16" stroke="rgb(255,0,0)" stroke-width="0.705556"/>
		<line x1="38.5196" y1="398.16" x2="63.5196" y2="404.859" stroke="rgb(255,0,0)" stroke-width="0.705556"/>
		<line x1="63.5196" y1="254.209" x2="63.5196" y2="404.859" stroke="rgb(255,255,0)" stroke-width="0.705556"/>
	</g>
</svg>