<svg version = "1.1" xmlns = "http://www.w3.org/2000/svg" xmlns:xlink="http://www.w3.org/1999/xlink" width="541.306" height="376.556" viewbox = "0 0 541.306 376.556">
	<g transform="translate(-37.7518,394.101) scale(1,-1) ">
		<line x1="142.005" y1="190.198" x2="142.005" y2="340.498" stroke="rgb(255,255,0)" stroke-width="0.705556"/>
		<line x1="38.1046" y1="340.498" x2="38.1046" y2="189.198" stroke="rgb(255,0,0)" stroke-width="0.705556"/>
		<line x1="295.905" y1="340.498" x2="295.905" y2="190.198" stroke="rgb(255,255,0)" stroke-width="0.705556"/>
		<line x1="399.805" y1="190.198" x2="399.805" y2="340.498" stroke="rgb(255,255,0)" stroke-width="0.705556"/>
		<line x1="553.705" y1="189.198" x2="553.705" y2="340.498" stroke="rgb(255,255,0)" stroke-width="0.705556"/>
		<line x1="553.705" y1="340.498" x2="578.705" y2="338.311" stroke="rgb(255,0,0)" stroke-width="0.705556"/>
		<line x1="578.705" y1="338.311" x2="578.705" y2="200.856" stroke="rgb(255,0,0)" stroke-width="0.705556"/>
		<line x1="578.705" y1="200.856" x2="553.705" y2="189.198" stroke="rgb(255,0,0)" stroke-width="0.705556"/>
		<line x1="42.7634" y1="393.748" x2="135.346" y2="393.748" stroke="rgb(255,0,0)" stroke-width="0.705556"/>
		<line x1="140.005" y1="340.498" x2="135.346" y2="393.748" stroke="rgb(255,0,0)" stroke-width="0.705556"/>
		<line x1="42.7634" y1="393.748" x2="38.1046" y2="340.498" stroke="rgb(255,0,0)" stroke-width="0.705556"/>
		<line x1="142.005" y1="340.498" x2="140.005" y2="340.498" stroke="rgb(255,0,0)" stroke-width="0.705556"/>
		<line x1="140.005" y1="340.498" x2="38.1046" y2="340.498" stroke="rgb(255,255,0)" stroke-width="0.705556"/>
		<line x1="38.1046" y1="340.498" x2="38.1046" y2="340.498" stroke="rgb(255,0,0)" stroke-width="0.705556"/>
		<line x1="393.146" y1="393.748" x2="302.563" y2="393.748" stroke="rgb(255,0,0)" stroke-width="0.705556"/>
		<line x1="297.905" y1="340.498" x2="302.563" y2="393.748" stroke="rgb(255,0,0)" stroke-width="0.705556"/>
		<line x1="393.146" y1="393.748" x2="397.805" y2="340.498" stroke="rgb(255,0,0)" stroke-width="0.705556"/>
		<line x1="295.905" y1="340.498" x2="297.905" y2="340.498" stroke="rgb(255,0,0)" stroke-width="0.705556"/>
		<line x1="297.905" y1="340.498" x2="397.805" y2="340.498" stroke="rgb(255,255,0)" stroke-width="0.705556"/>
		<line x1="397.805" y1="340.498" x2="399.805" y2="340.498" stroke="rgb(255,0,0)" stroke-width="0.705556"/>
		<line x1="142.005" y1="340.498" x2="144.005" y2="340.498" stroke="rgb(255,0,0)" stroke-width="0.705556"/>
		<line x1="144.005" y1="340.498" x2="144.005" y2="393.748" stroke="rgb(255,0,0)" stroke-width="0.705556"/>
		<line x1="144.005" y1="393.748" x2="293.905" y2="393.748" stroke="rgb(255,0,0)" stroke-width="0.705556"/>
		<line x1="293.905" y1="393.748" x2="293.905" y2="340.498" stroke="rgb(255,0,0)" stroke-width="0.705556"/>
		<line x1="293.905" y1="340.498" x2="295.905" y2="340.498" stroke="rgb(255,0,0)" stroke-width="0.705556"/>
		<line x1="144.005" y1="341.798" x2="293.905" y2="341.798" stroke="rgb(255,255,0)" stroke-width="0.705556"/>
		<line x1="399.805" y1="340.498" x2="401.805" y2="340.498" stroke="rgb(255,0,0)" stroke-width="0.705556"/>
		<line x1="401.805" y1="340.498" x2="401.805" y2="393.748" stroke="rgb(255,0,0)" stroke-width="0.705556"/>
		<line x1="401.805" y1="393.748" x2="551.705" y2="393.748" stroke="rgb(255,0,0)" stroke-width="0.705556"/>
		<line x1="551.705" y1="393.748" x2="551.705" y2="340.498" stroke="rgb(255,0,0)" stroke-width="0.705556"/>
		<line x1="551.705" y1="340.498" x2="553.705" y2="340.498" stroke="rgb(255,0,0)" stroke-width="0.705556"/>
		<line x1="401.805" y1="341.798" x2="551.705" y2="341.798" stroke="rgb(255,255,0)" stroke-width="0.705556"/>
		<line x1="38.1046" y1="340.498" x2="38.1046" y2="340.498" stroke="rgb(255,0,0)" stroke-width="0.705556"/>
		<line x1="218.955" y1="251.813" x2="218.955" y2="224.198" stroke="rgb(64,128,128)" stroke-width="0"/>
		<line x1="227.439" y1="233.403" x2="227.439" y2="224.198" stroke="rgb(64,128,128)" stroke-width="0"/>
		<line x1="223.197" y1="242.608" x2="223.197" y2="224.198" stroke="rgb(64,128,128)" stroke-width="0"/>
		<line x1="214.713" y1="261.018" x2="214.713" y2="224.198" stroke="rgb(64,128,128)" stroke-width="0"/>
		<line x1="210.471" y1="270.223" x2="210.471" y2="224.198" stroke="rgb(64,128,128)" stroke-width="0"/>
		<line x1="206.229" y1="279.428" x2="206.229" y2="224.198" stroke="rgb(64,128,128)" stroke-width="0"/>
		<line x1="231.681" y1="224.198" x2="206.229" y2="224.198" stroke="rgb(64,128,128)" stroke-width="0"/>
		<line x1="206.229" y1="279.428" x2="234.503" y2="251.11" stroke="rgb(64,128,128)" stroke-width="0"/>
		<path d="M234.503,251.11 a26.6045 26.6045 0 0 1 -2.82257,-26.9118" fill="none" stroke="rgb(64,128,128)" stroke-width="0"/>
		<line x1="231.681" y1="224.198" x2="206.229" y2="279.428" stroke="rgb(64,128,128)" stroke-width="0"/>
		<line x1="401.219" y1="189.612" x2="408.066" y2="182.765" stroke="rgb(255,0,0)" stroke-width="0.705556"/>
		<line x1="408.066" y1="182.765" x2="401.805" y2="176.504" stroke="rgb(255,0,0)" stroke-width="0.705556"/>
		<line x1="401.805" y1="176.504" x2="401.805" y2="137.898" stroke="rgb(255,0,0)" stroke-width="0.705556"/>
		<line x1="407.151" y1="181.851" x2="451.105" y2="137.898" stroke="rgb(255,255,0)" stroke-width="0.705556"/>
		<line x1="401.633" y1="189.198" x2="553.705" y2="189.198" stroke="rgb(255,255,0)" stroke-width="0.705556"/>
		<line x1="553.705" y1="189.198" x2="502.405" y2="137.898" stroke="rgb(255,0,0)" stroke-width="0.705556"/>
		<line x1="401.805" y1="137.898" x2="451.105" y2="137.898" stroke="rgb(255,0,0)" stroke-width="0.705556"/>
		<line x1="452.405" y1="137.898" x2="502.405" y2="137.898" stroke="rgb(255,255,0)" stroke-width="0.705556"/>
		<line x1="502.405" y1="17.8981" x2="452.405" y2="17.8981" stroke="rgb(255,0,0)" stroke-width="0.705556"/>
		<line x1="451.105" y1="17.8981" x2="435.715" y2="17.8981" stroke="rgb(255,0,0)" stroke-width="0.705556"/>
		<line x1="435.715" y1="17.8981" x2="435.715" y2="137.898" stroke="rgb(255,0,0)" stroke-width="0.705556"/>
		<line x1="502.405" y1="122.898" x2="547.013" y2="114.654" stroke="rgb(255,0,0)" stroke-width="0.705556"/>
		<line x1="551.105" y1="109.737" x2="551.105" y2="46.0587" stroke="rgb(255,0,0)" stroke-width="0.705556"/>
		<line x1="547.013" y1="41.142" x2="502.405" y2="32.8981" stroke="rgb(255,0,0)" stroke-width="0.705556"/>
		<line x1="502.405" y1="137.898" x2="502.405" y2="122.898" stroke="rgb(255,0,0)" stroke-width="0.705556"/>
		<line x1="502.405" y1="32.8981" x2="502.405" y2="17.8981" stroke="rgb(255,0,0)" stroke-width="0.705556"/>
		<line x1="553.705" y1="189.198" x2="553.705" y2="189.198" stroke="rgb(255,0,0)" stroke-width="0.705556"/>
		<path d="M399.805,190.198 a2 2 0 0 0 1.41421,-0.585786" fill="none" stroke="rgb(255,0,0)" stroke-width="0.705556"/>
		<line x1="394.805" y1="137.898" x2="397.808" y2="188.317" stroke="rgb(255,0,0)" stroke-width="0.705556"/>
		<line x1="300.905" y1="137.898" x2="394.805" y2="137.898" stroke="rgb(255,255,0)" stroke-width="0.705556"/>
		<line x1="300.905" y1="137.898" x2="300.905" y2="17.8981" stroke="rgb(255,0,0)" stroke-width="0.705556"/>
		<line x1="300.905" y1="17.8981" x2="394.805" y2="17.8981" stroke="rgb(255,0,0)" stroke-width="0.705556"/>
		<line x1="394.805" y1="17.8981" x2="394.805" y2="137.898" stroke="rgb(255,0,0)" stroke-width="0.705556"/>
		<line x1="346.23" y1="123.898" x2="349.48" y2="123.898" stroke="rgb(255,0,0)" stroke-width="0.705556"/>
		<line x1="349.48" y1="123.898" x2="349.48" y2="31.8981" stroke="rgb(255,0,0)" stroke-width="0.705556"/>
		<line x1="349.48" y1="31.8981" x2="346.23" y2="31.8981" stroke="rgb(255,0,0)" stroke-width="0.705556"/>
		<line x1="346.23" y1="31.8981" x2="346.23" y2="123.898" stroke="rgb(255,0,0)" stroke-width="0.705556"/>
		<line x1="297.901" y1="188.317" x2="300.905" y2="137.898" stroke="rgb(255,0,0)" stroke-width="0.705556"/>
		<line x1="297.637" y1="189.198" x2="398.073" y2="189.198" stroke="rgb(255,255,0)" stroke-width="0.705556"/>
		<path d="M399.805,190.198 a2 2 0 0 1 -1.99646,-1.88107" fill="none" stroke="rgb(255,0,0)" stroke-width="0.705556"/>
		<path d="M295.905,190.198 a2 2 0 0 0 1.99646,-1.88107" fill="none" stroke="rgb(255,0,0)" stroke-width="0.705556"/>
		<line x1="137.005" y1="137.898" x2="140.008" y2="188.317" stroke="rgb(255,0,0)" stroke-width="0.705556"/>
		<line x1="43.1046" y1="137.898" x2="137.005" y2="137.898" stroke="rgb(255,255,0)" stroke-width="0.705556"/>
		<line x1="43.1046" y1="137.898" x2="43.1046" y2="17.8981" stroke="rgb(255,0,0)" stroke-width="0.705556"/>
		<line x1="43.1046" y1="17.8981" x2="137.005" y2="17.8981" stroke="rgb(255,0,0)" stroke-width="0.705556"/>
		<line x1="137.005" y1="17.8981" x2="137.005" y2="137.898" stroke="rgb(255,0,0)" stroke-width="0.705556"/>
		<line x1="88.4296" y1="123.898" x2="91.6796" y2="123.898" stroke="rgb(255,0,0)" stroke-width="0.705556"/>
		<line x1="91.6796" y1="123.898" x2="91.6796" y2="31.8981" stroke="rgb(255,0,0)" stroke-width="0.705556"/>
		<line x1="91.6796" y1="31.8981" x2="88.4296" y2="31.8981" stroke="rgb(255,0,0)" stroke-width="0.705556"/>
		<line x1="88.4296" y1="31.8981" x2="88.4296" y2="123.898" stroke="rgb(255,0,0)" stroke-width="0.705556"/>
		<line x1="38.1046" y1="189.198" x2="43.1046" y2="137.898" stroke="rgb(255,0,0)" stroke-width="0.705556"/>
		<line x1="38.1046" y1="189.198" x2="38.1046" y2="189.198" stroke="rgb(255,0,0)" stroke-width="0.705556"/>
		<line x1="38.1046" y1="189.198" x2="140.273" y2="189.198" stroke="rgb(255,255,0)" stroke-width="0.705556"/>
		<path d="M142.005,190.198 a2 2 0 0 1 -1.99646,-1.88107" fill="none" stroke="rgb(255,0,0)" stroke-width="0.705556"/>
		<line x1="143.419" y1="189.612" x2="150.266" y2="182.765" stroke="rgb(255,0,0)" stroke-width="0.705556"/>
		<line x1="150.266" y1="182.765" x2="144.005" y2="176.504" stroke="rgb(255,0,0)" stroke-width="0.705556"/>
		<line x1="144.005" y1="176.504" x2="144.005" y2="137.898" stroke="rgb(255,0,0)" stroke-width="0.705556"/>
		<line x1="149.351" y1="181.851" x2="193.305" y2="137.898" stroke="rgb(255,255,0)" stroke-width="0.705556"/>
		<line x1="143.833" y1="189.198" x2="294.076" y2="189.198" stroke="rgb(255,255,0)" stroke-width="0.705556"/>
		<line x1="294.49" y1="189.612" x2="242.776" y2="137.898" stroke="rgb(255,0,0)" stroke-width="0.705556"/>
		<line x1="144.005" y1="137.898" x2="193.305" y2="137.898" stroke="rgb(255,0,0)" stroke-width="0.705556"/>
		<line x1="194.605" y1="137.898" x2="242.776" y2="137.898" stroke="rgb(255,255,0)" stroke-width="0.705556"/>
		<line x1="242.776" y1="17.8981" x2="194.605" y2="17.8981" stroke="rgb(255,0,0)" stroke-width="0.705556"/>
		<line x1="193.305" y1="17.8981" x2="177.915" y2="17.8981" stroke="rgb(255,0,0)" stroke-width="0.705556"/>
		<line x1="177.915" y1="17.8981" x2="177.915" y2="137.898" stroke="rgb(255,0,0)" stroke-width="0.705556"/>
		<line x1="242.776" y1="122.898" x2="287.385" y2="114.654" stroke="rgb(255,0,0)" stroke-width="0.705556"/>
		<line x1="291.476" y1="109.737" x2="291.476" y2="46.0587" stroke="rgb(255,0,0)" stroke-width="0.705556"/>
		<line x1="287.385" y1="41.142" x2="242.776" y2="32.8981" stroke="rgb(255,0,0)" stroke-width="0.705556"/>
		<line x1="242.776" y1="137.898" x2="242.776" y2="122.898" stroke="rgb(255,0,0)" stroke-width="0.705556"/>
		<line x1="242.776" y1="32.8981" x2="242.776" y2="17.8981" stroke="rgb(255,0,0)" stroke-width="0.705556"/>
		<path d="M295.905,190.198 a2 2 0 0 1 -1.41421,-0.585786" fill="none" stroke="rgb(255,0,0)" stroke-width="0.705556"/>
		<path d="M142.005,190.198 a2 2 0 0 0 1.41421,-0.585786" fill="none" stroke="rgb(255,0,0)" stroke-width="0.705556"/>
		<line x1="194.605" y1="17.8981" x2="193.305" y2="17.8981" stroke="rgb(255,0,0)" stroke-width="0.705556"/>
		<line x1="194.605" y1="137.898" x2="194.605" y2="17.8981" stroke="rgb(255,255,0)" stroke-width="0.705556"/>
		<line x1="193.305" y1="137.898" x2="194.605" y2="137.898" stroke="rgb(255,0,0)" stroke-width="0.705556"/>
		<line x1="452.405" y1="17.8981" x2="451.105" y2="17.8981" stroke="rgb(255,0,0)" stroke-width="0.705556"/>
		<line x1="452.405" y1="137.898" x2="452.405" y2="17.8981" stroke="rgb(255,255,0)" stroke-width="0.705556"/>
		<line x1="451.105" y1="137.898" x2="452.405" y2="137.898" stroke="rgb(255,0,0)" stroke-width="0.705556"/>
		<path d="M287.385,114.654 a5 5 0 0 0 4.09136,-4.91674" fill="none" stroke="rgb(255,0,0)" stroke-width="0.705556"/>
		<path d="M291.476,46.0587 a5 5 0 0 0 -4.09136,-4.91674" fill="none" stroke="rgb(255,0,0)" stroke-width="0.705556"/>
		<path d="M547.013,114.654 a5 5 0 0 0 4.09136,-4.91674" fill="none" stroke="rgb(255,0,0)" stroke-width="0.705556"/>
		<path d="M551.105,46.0587 a5 5 0 0 0 -4.09136,-4.91674" fill="none" stroke="rgb(255,0,0)" stroke-width="0.705556"/>
	</g>
</svg>