<svg version = "1.1" xmlns = "http://www.w3.org/2000/svg" xmlns:xlink="http://www.w3.org/1999/xlink" width="989.606" height="844.006" viewbox = "0 0 989.606 844.006">
	<g transform="translate(-51.0769,750.146) scale(1,-1) ">
		<line x1="357.73" y1="226.843" x2="357.73" y2="447.143" stroke="rgb(255,255,0)" stroke-width="0.705556"/>
		<line x1="559.03" y1="447.143" x2="559.03" y2="226.843" stroke="rgb(255,255,0)" stroke-width="0.705556"/>
		<line x1="357.73" y1="447.143" x2="559.03" y2="447.143" stroke="rgb(255,0,0)" stroke-width="0.705556"/>
		<line x1="840.33" y1="226.843" x2="840.33" y2="447.143" stroke="rgb(255,255,0)" stroke-width="0.705556"/>
		<line x1="1040.33" y1="447.143" x2="1040.33" y2="225.843" stroke="rgb(255,0,0)" stroke-width="0.705556"/>
		<line x1="835.33" y1="513.81" x2="577.628" y2="513.81" stroke="rgb(255,0,0)" stroke-width="0.705556"/>
		<line x1="577.628" y1="513.81" x2="562.98" y2="459.143" stroke="rgb(255,0,0)" stroke-width="0.705556"/>
		<line x1="562.98" y1="459.143" x2="560.98" y2="457.143" stroke="rgb(255,0,0)" stroke-width="0.705556"/>
		<line x1="560.98" y1="457.143" x2="560.98" y2="447.143" stroke="rgb(255,0,0)" stroke-width="0.705556"/>
		<line x1="559.03" y1="447.143" x2="560.98" y2="447.143" stroke="rgb(255,0,0)" stroke-width="0.705556"/>
		<line x1="560.98" y1="447.143" x2="840.33" y2="447.143" stroke="rgb(255,255,0)" stroke-width="0.705556"/>
		<line x1="840.33" y1="447.143" x2="835.33" y2="452.143" stroke="rgb(255,0,0)" stroke-width="0.705556"/>
		<line x1="835.33" y1="452.143" x2="835.33" y2="513.81" stroke="rgb(255,0,0)" stroke-width="0.705556"/>
		<line x1="81.4297" y1="513.81" x2="339.132" y2="513.81" stroke="rgb(255,0,0)" stroke-width="0.705556"/>
		<line x1="339.132" y1="513.81" x2="353.78" y2="459.143" stroke="rgb(255,0,0)" stroke-width="0.705556"/>
		<line x1="353.78" y1="459.143" x2="355.78" y2="457.143" stroke="rgb(255,0,0)" stroke-width="0.705556"/>
		<line x1="355.78" y1="457.143" x2="355.78" y2="447.143" stroke="rgb(255,0,0)" stroke-width="0.705556"/>
		<line x1="357.73" y1="447.143" x2="355.78" y2="447.143" stroke="rgb(255,0,0)" stroke-width="0.705556"/>
		<line x1="355.78" y1="447.143" x2="76.4297" y2="447.143" stroke="rgb(255,255,0)" stroke-width="0.705556"/>
		<line x1="76.4297" y1="447.143" x2="81.4297" y2="452.143" stroke="rgb(255,0,0)" stroke-width="0.705556"/>
		<line x1="81.4297" y1="452.143" x2="81.4297" y2="513.81" stroke="rgb(255,0,0)" stroke-width="0.705556"/>
		<line x1="840.33" y1="447.143" x2="840.33" y2="447.143" stroke="rgb(255,0,0)" stroke-width="0.705556"/>
		<line x1="840.33" y1="447.143" x2="840.33" y2="727.793" stroke="rgb(255,0,0)" stroke-width="0.705556"/>
		<line x1="1040.33" y1="727.793" x2="1040.33" y2="447.143" stroke="rgb(255,0,0)" stroke-width="0.705556"/>
		<line x1="1040.33" y1="447.143" x2="1040.33" y2="447.143" stroke="rgb(255,0,0)" stroke-width="0.705556"/>
		<line x1="840.33" y1="448.443" x2="1040.33" y2="448.443" stroke="rgb(255,255,0)" stroke-width="0.705556"/>
		<line x1="840.33" y1="727.793" x2="840.33" y2="729.743" stroke="rgb(255,0,0)" stroke-width="0.705556"/>
		<line x1="840.33" y1="729.743" x2="852.33" y2="729.743" stroke="rgb(255,0,0)" stroke-width="0.705556"/>
		<line x1="852.33" y1="729.743" x2="852.33" y2="725.793" stroke="rgb(255,0,0)" stroke-width="0.705556"/>
		<line x1="1040.33" y1="727.793" x2="1040.33" y2="729.743" stroke="rgb(255,0,0)" stroke-width="0.705556"/>
		<line x1="1040.33" y1="729.743" x2="1028.33" y2="729.743" stroke="rgb(255,0,0)" stroke-width="0.705556"/>
		<line x1="1028.33" y1="729.743" x2="1028.33" y2="725.793" stroke="rgb(255,0,0)" stroke-width="0.705556"/>
		<line x1="852.33" y1="727.793" x2="1028.33" y2="727.793" stroke="rgb(255,255,0)" stroke-width="0.705556"/>
		<path d="M841.63,729.743 a24 24 0 0 0 14.329,20.05" fill="none" stroke="rgb(255,0,0)" stroke-width="0.705556"/>
		<path d="M1039.03,729.743 a24 24 0 0 1 -14.329,20.05" fill="none" stroke="rgb(255,0,0)" stroke-width="0.705556"/>
		<line x1="855.959" y1="749.793" x2="1024.7" y2="749.793" stroke="rgb(255,0,0)" stroke-width="0.705556"/>
		<line x1="555.88" y1="282.143" x2="550.88" y2="282.143" stroke="rgb(255,0,0)" stroke-width="0.705556"/>
		<line x1="545.88" y1="282.143" x2="540.88" y2="282.143" stroke="rgb(255,0,0)" stroke-width="0.705556"/>
		<line x1="535.88" y1="282.143" x2="530.88" y2="282.143" stroke="rgb(255,0,0)" stroke-width="0.705556"/>
		<line x1="525.88" y1="282.143" x2="520.88" y2="282.143" stroke="rgb(255,0,0)" stroke-width="0.705556"/>
		<line x1="515.88" y1="282.143" x2="510.88" y2="282.143" stroke="rgb(255,0,0)" stroke-width="0.705556"/>
		<line x1="505.88" y1="282.143" x2="500.88" y2="282.143" stroke="rgb(255,0,0)" stroke-width="0.705556"/>
		<line x1="495.88" y1="282.143" x2="490.88" y2="282.143" stroke="rgb(255,0,0)" stroke-width="0.705556"/>
		<line x1="485.88" y1="282.143" x2="480.88" y2="282.143" stroke="rgb(255,0,0)" stroke-width="0.705556"/>
		<line x1="475.88" y1="282.143" x2="470.88" y2="282.143" stroke="rgb(255,0,0)" stroke-width="0.705556"/>
		<line x1="465.88" y1="282.143" x2="460.88" y2="282.143" stroke="rgb(255,0,0)" stroke-width="0.705556"/>
		<line x1="455.88" y1="282.143" x2="450.88" y2="282.143" stroke="rgb(255,0,0)" stroke-width="0.705556"/>
		<line x1="445.88" y1="282.143" x2="440.88" y2="282.143" stroke="rgb(255,0,0)" stroke-width="0.705556"/>
		<line x1="435.88" y1="282.143" x2="430.88" y2="282.143" stroke="rgb(255,0,0)" stroke-width="0.705556"/>
		<line x1="425.88" y1="282.143" x2="420.88" y2="282.143" stroke="rgb(255,0,0)" stroke-width="0.705556"/>
		<line x1="415.88" y1="282.143" x2="410.88" y2="282.143" stroke="rgb(255,0,0)" stroke-width="0.705556"/>
		<line x1="405.88" y1="282.143" x2="400.88" y2="282.143" stroke="rgb(255,0,0)" stroke-width="0.705556"/>
		<line x1="395.88" y1="282.143" x2="390.88" y2="282.143" stroke="rgb(255,0,0)" stroke-width="0.705556"/>
		<line x1="385.88" y1="282.143" x2="380.88" y2="282.143" stroke="rgb(255,0,0)" stroke-width="0.705556"/>
		<line x1="375.88" y1="282.143" x2="370.88" y2="282.143" stroke="rgb(255,0,0)" stroke-width="0.705556"/>
		<line x1="365.88" y1="282.143" x2="360.88" y2="282.143" stroke="rgb(255,0,0)" stroke-width="0.705556"/>
		<line x1="76.4297" y1="447.143" x2="76.913" y2="446.86" stroke="rgb(255,0,0)" stroke-width="0.705556"/>
		<line x1="81.2259" y1="444.33" x2="85.5387" y2="441.8" stroke="rgb(255,0,0)" stroke-width="0.705556"/>
		<line x1="89.8515" y1="439.271" x2="94.1643" y2="436.741" stroke="rgb(255,0,0)" stroke-width="0.705556"/>
		<line x1="98.4771" y1="434.211" x2="102.79" y2="431.681" stroke="rgb(255,0,0)" stroke-width="0.705556"/>
		<line x1="107.103" y1="429.152" x2="111.416" y2="426.622" stroke="rgb(255,0,0)" stroke-width="0.705556"/>
		<line x1="115.728" y1="424.092" x2="120.041" y2="421.562" stroke="rgb(255,0,0)" stroke-width="0.705556"/>
		<line x1="124.354" y1="419.033" x2="128.667" y2="416.503" stroke="rgb(255,0,0)" stroke-width="0.705556"/>
		<line x1="132.98" y1="413.973" x2="137.293" y2="411.444" stroke="rgb(255,0,0)" stroke-width="0.705556"/>
		<line x1="141.605" y1="408.914" x2="145.918" y2="406.384" stroke="rgb(255,0,0)" stroke-width="0.705556"/>
		<line x1="150.231" y1="403.854" x2="154.544" y2="401.325" stroke="rgb(255,0,0)" stroke-width="0.705556"/>
		<line x1="158.857" y1="398.795" x2="163.169" y2="396.265" stroke="rgb(255,0,0)" stroke-width="0.705556"/>
		<line x1="167.482" y1="393.735" x2="171.795" y2="391.206" stroke="rgb(255,0,0)" stroke-width="0.705556"/>
		<line x1="176.108" y1="388.676" x2="180.421" y2="386.146" stroke="rgb(255,0,0)" stroke-width="0.705556"/>
		<line x1="184.734" y1="383.616" x2="189.046" y2="381.087" stroke="rgb(255,0,0)" stroke-width="0.705556"/>
		<line x1="193.359" y1="378.557" x2="197.672" y2="376.027" stroke="rgb(255,0,0)" stroke-width="0.705556"/>
		<line x1="201.985" y1="373.497" x2="206.298" y2="370.968" stroke="rgb(255,0,0)" stroke-width="0.705556"/>
		<line x1="210.61" y1="368.438" x2="214.923" y2="365.908" stroke="rgb(255,0,0)" stroke-width="0.705556"/>
		<line x1="219.236" y1="363.379" x2="223.549" y2="360.849" stroke="rgb(255,0,0)" stroke-width="0.705556"/>
		<line x1="227.862" y1="358.319" x2="232.175" y2="355.789" stroke="rgb(255,0,0)" stroke-width="0.705556"/>
		<line x1="236.487" y1="353.26" x2="240.8" y2="350.73" stroke="rgb(255,0,0)" stroke-width="0.705556"/>
		<line x1="245.113" y1="348.2" x2="249.426" y2="345.67" stroke="rgb(255,0,0)" stroke-width="0.705556"/>
		<line x1="253.739" y1="343.141" x2="258.052" y2="340.611" stroke="rgb(255,0,0)" stroke-width="0.705556"/>
		<line x1="262.364" y1="338.081" x2="266.677" y2="335.551" stroke="rgb(255,0,0)" stroke-width="0.705556"/>
		<line x1="270.99" y1="333.022" x2="275.303" y2="330.492" stroke="rgb(255,0,0)" stroke-width="0.705556"/>
		<line x1="279.616" y1="327.962" x2="283.928" y2="325.432" stroke="rgb(255,0,0)" stroke-width="0.705556"/>
		<line x1="288.241" y1="322.903" x2="292.554" y2="320.373" stroke="rgb(255,0,0)" stroke-width="0.705556"/>
		<line x1="296.867" y1="317.843" x2="301.18" y2="315.313" stroke="rgb(255,0,0)" stroke-width="0.705556"/>
		<line x1="305.493" y1="312.784" x2="309.805" y2="310.254" stroke="rgb(255,0,0)" stroke-width="0.705556"/>
		<line x1="314.118" y1="307.724" x2="318.431" y2="305.195" stroke="rgb(255,0,0)" stroke-width="0.705556"/>
		<line x1="322.744" y1="302.665" x2="327.057" y2="300.135" stroke="rgb(255,0,0)" stroke-width="0.705556"/>
		<line x1="331.369" y1="297.605" x2="335.682" y2="295.076" stroke="rgb(255,0,0)" stroke-width="0.705556"/>
		<line x1="339.995" y1="292.546" x2="344.308" y2="290.016" stroke="rgb(255,0,0)" stroke-width="0.705556"/>
		<line x1="348.621" y1="287.486" x2="352.934" y2="284.957" stroke="rgb(255,0,0)" stroke-width="0.705556"/>
		<line x1="357.246" y1="282.427" x2="357.73" y2="282.143" stroke="rgb(255,0,0)" stroke-width="0.705556"/>
		<line x1="559.03" y1="282.143" x2="559.513" y2="282.427" stroke="rgb(255,0,0)" stroke-width="0.705556"/>
		<line x1="563.826" y1="284.957" x2="568.139" y2="287.486" stroke="rgb(255,0,0)" stroke-width="0.705556"/>
		<line x1="572.451" y1="290.016" x2="576.764" y2="292.546" stroke="rgb(255,0,0)" stroke-width="0.705556"/>
		<line x1="581.077" y1="295.076" x2="585.39" y2="297.605" stroke="rgb(255,0,0)" stroke-width="0.705556"/>
		<line x1="589.703" y1="300.135" x2="594.016" y2="302.665" stroke="rgb(255,0,0)" stroke-width="0.705556"/>
		<line x1="598.328" y1="305.195" x2="602.641" y2="307.724" stroke="rgb(255,0,0)" stroke-width="0.705556"/>
		<line x1="606.954" y1="310.254" x2="611.267" y2="312.784" stroke="rgb(255,0,0)" stroke-width="0.705556"/>
		<line x1="615.58" y1="315.313" x2="619.893" y2="317.843" stroke="rgb(255,0,0)" stroke-width="0.705556"/>
		<line x1="624.205" y1="320.373" x2="628.518" y2="322.903" stroke="rgb(255,0,0)" stroke-width="0.705556"/>
		<line x1="632.831" y1="325.432" x2="637.144" y2="327.962" stroke="rgb(255,0,0)" stroke-width="0.705556"/>
		<line x1="641.457" y1="330.492" x2="645.769" y2="333.022" stroke="rgb(255,0,0)" stroke-width="0.705556"/>
		<line x1="650.082" y1="335.551" x2="654.395" y2="338.081" stroke="rgb(255,0,0)" stroke-width="0.705556"/>
		<line x1="658.708" y1="340.611" x2="663.021" y2="343.141" stroke="rgb(255,0,0)" stroke-width="0.705556"/>
		<line x1="667.334" y1="345.67" x2="671.646" y2="348.2" stroke="rgb(255,0,0)" stroke-width="0.705556"/>
		<line x1="675.959" y1="350.73" x2="680.272" y2="353.26" stroke="rgb(255,0,0)" stroke-width="0.705556"/>
		<line x1="684.585" y1="355.789" x2="688.898" y2="358.319" stroke="rgb(255,0,0)" stroke-width="0.705556"/>
		<line x1="693.21" y1="360.849" x2="697.523" y2="363.379" stroke="rgb(255,0,0)" stroke-width="0.705556"/>
		<line x1="701.836" y1="365.908" x2="706.149" y2="368.438" stroke="rgb(255,0,0)" stroke-width="0.705556"/>
		<line x1="710.462" y1="370.968" x2="714.775" y2="373.497" stroke="rgb(255,0,0)" stroke-width="0.705556"/>
		<line x1="719.087" y1="376.027" x2="723.4" y2="378.557" stroke="rgb(255,0,0)" stroke-width="0.705556"/>
		<line x1="727.713" y1="381.087" x2="732.026" y2="383.616" stroke="rgb(255,0,0)" stroke-width="0.705556"/>
		<line x1="736.339" y1="386.146" x2="740.652" y2="388.676" stroke="rgb(255,0,0)" stroke-width="0.705556"/>
		<line x1="744.964" y1="391.206" x2="749.277" y2="393.735" stroke="rgb(255,0,0)" stroke-width="0.705556"/>
		<line x1="753.59" y1="396.265" x2="757.903" y2="398.795" stroke="rgb(255,0,0)" stroke-width="0.705556"/>
		<line x1="762.216" y1="401.325" x2="766.528" y2="403.854" stroke="rgb(255,0,0)" stroke-width="0.705556"/>
		<line x1="770.841" y1="406.384" x2="775.154" y2="408.914" stroke="rgb(255,0,0)" stroke-width="0.705556"/>
		<line x1="779.467" y1="411.444" x2="783.78" y2="413.973" stroke="rgb(255,0,0)" stroke-width="0.705556"/>
		<line x1="788.093" y1="416.503" x2="792.405" y2="419.033" stroke="rgb(255,0,0)" stroke-width="0.705556"/>
		<line x1="796.718" y1="421.562" x2="801.031" y2="424.092" stroke="rgb(255,0,0)" stroke-width="0.705556"/>
		<line x1="805.344" y1="426.622" x2="809.657" y2="429.152" stroke="rgb(255,0,0)" stroke-width="0.705556"/>
		<line x1="813.969" y1="431.681" x2="818.282" y2="434.211" stroke="rgb(255,0,0)" stroke-width="0.705556"/>
		<line x1="822.595" y1="436.741" x2="826.908" y2="439.271" stroke="rgb(255,0,0)" stroke-width="0.705556"/>
		<line x1="831.221" y1="441.8" x2="835.534" y2="444.33" stroke="rgb(255,0,0)" stroke-width="0.705556"/>
		<line x1="839.846" y1="446.86" x2="840.33" y2="447.143" stroke="rgb(255,0,0)" stroke-width="0.705556"/>
		<line x1="699.98" y1="278.458" x2="699.98" y2="250.843" stroke="rgb(64,128,128)" stroke-width="0"/>
		<line x1="708.464" y1="260.048" x2="708.464" y2="250.843" stroke="rgb(64,128,128)" stroke-width="0"/>
		<line x1="704.222" y1="269.253" x2="704.222" y2="250.843" stroke="rgb(64,128,128)" stroke-width="0"/>
		<line x1="695.738" y1="287.663" x2="695.738" y2="250.843" stroke="rgb(64,128,128)" stroke-width="0"/>
		<line x1="691.496" y1="296.868" x2="691.496" y2="250.843" stroke="rgb(64,128,128)" stroke-width="0"/>
		<line x1="687.254" y1="306.073" x2="687.254" y2="250.843" stroke="rgb(64,128,128)" stroke-width="0"/>
		<line x1="712.706" y1="250.843" x2="687.254" y2="250.843" stroke="rgb(64,128,128)" stroke-width="0"/>
		<line x1="687.254" y1="306.073" x2="715.528" y2="277.755" stroke="rgb(64,128,128)" stroke-width="0"/>
		<path d="M715.528,277.755 a26.6045 26.6045 0 0 1 -2.82257,-26.9118" fill="none" stroke="rgb(64,128,128)" stroke-width="0"/>
		<line x1="712.706" y1="250.843" x2="687.254" y2="306.073" stroke="rgb(64,128,128)" stroke-width="0"/>
		<line x1="838.915" y1="226.258" x2="824.267" y2="211.609" stroke="rgb(255,0,0)" stroke-width="0.705556"/>
		<line x1="824.267" y1="211.609" x2="838.33" y2="197.547" stroke="rgb(255,0,0)" stroke-width="0.705556"/>
		<line x1="838.33" y1="197.547" x2="838.33" y2="125.843" stroke="rgb(255,0,0)" stroke-width="0.705556"/>
		<line x1="825.181" y1="210.695" x2="740.33" y2="125.843" stroke="rgb(255,255,0)" stroke-width="0.705556"/>
		<line x1="561.03" y1="-71.5066" x2="561.03" y2="224.843" stroke="rgb(255,0,0)" stroke-width="0.705556"/>
		<line x1="838.501" y1="225.843" x2="560.762" y2="225.843" stroke="rgb(255,255,0)" stroke-width="0.705556"/>
		<line x1="768.46" y1="122.843" x2="768.46" y2="-93.5066" stroke="rgb(255,0,0)" stroke-width="0.705556"/>
		<line x1="768.46" y1="-93.5066" x2="563.63" y2="-93.5066" stroke="rgb(255,0,0)" stroke-width="0.705556"/>
		<line x1="740.33" y1="125.843" x2="740.33" y2="122.843" stroke="rgb(255,0,0)" stroke-width="0.705556"/>
		<line x1="740.33" y1="122.843" x2="768.46" y2="122.843" stroke="rgb(255,0,0)" stroke-width="0.705556"/>
		<line x1="838.33" y1="125.843" x2="740.33" y2="125.843" stroke="rgb(255,0,0)" stroke-width="0.705556"/>
		<line x1="740.33" y1="125.843" x2="561.03" y2="125.843" stroke="rgb(255,255,0)" stroke-width="0.705556"/>
		<path d="M840.33,226.843 a2 2 0 0 1 -1.41421,-0.585786" fill="none" stroke="rgb(255,0,0)" stroke-width="0.705556"/>
		<path d="M559.03,226.843 a2 2 0 0 0 2,-2" fill="none" stroke="rgb(255,0,0)" stroke-width="0.705556"/>
		<line x1="356.315" y1="226.258" x2="341.667" y2="211.609" stroke="rgb(255,0,0)" stroke-width="0.705556"/>
		<line x1="341.667" y1="211.609" x2="355.73" y2="197.547" stroke="rgb(255,0,0)" stroke-width="0.705556"/>
		<line x1="355.73" y1="197.547" x2="355.73" y2="125.843" stroke="rgb(255,0,0)" stroke-width="0.705556"/>
		<line x1="342.581" y1="210.695" x2="257.73" y2="125.843" stroke="rgb(255,255,0)" stroke-width="0.705556"/>
		<line x1="77.0797" y1="-93.5066" x2="77.0797" y2="225.843" stroke="rgb(255,0,0)" stroke-width="0.705556"/>
		<line x1="355.901" y1="225.843" x2="77.0797" y2="225.843" stroke="rgb(255,255,0)" stroke-width="0.705556"/>
		<line x1="285.86" y1="122.843" x2="285.86" y2="-93.5066" stroke="rgb(255,0,0)" stroke-width="0.705556"/>
		<line x1="285.86" y1="-93.5066" x2="77.0797" y2="-93.5066" stroke="rgb(255,0,0)" stroke-width="0.705556"/>
		<line x1="257.73" y1="125.843" x2="257.73" y2="122.843" stroke="rgb(255,0,0)" stroke-width="0.705556"/>
		<line x1="257.73" y1="122.843" x2="285.86" y2="122.843" stroke="rgb(255,0,0)" stroke-width="0.705556"/>
		<line x1="355.73" y1="125.843" x2="257.73" y2="125.843" stroke="rgb(255,0,0)" stroke-width="0.705556"/>
		<line x1="257.73" y1="125.843" x2="77.0797" y2="125.843" stroke="rgb(255,255,0)" stroke-width="0.705556"/>
		<path d="M357.73,226.843 a2 2 0 0 1 -1.41421,-0.585786" fill="none" stroke="rgb(255,0,0)" stroke-width="0.705556"/>
		<path d="M357.73,226.843 a2 2 0 0 0 1.99749,-1.89983" fill="none" stroke="rgb(255,0,0)" stroke-width="0.705556"/>
		<line x1="359.727" y1="224.944" x2="364.73" y2="125.193" stroke="rgb(255,0,0)" stroke-width="0.705556"/>
		<path d="M559.03,226.843 a2 2 0 0 1 -1.41421,-0.585786" fill="none" stroke="rgb(255,0,0)" stroke-width="0.705556"/>
		<line x1="557.615" y1="226.258" x2="456.551" y2="125.193" stroke="rgb(255,0,0)" stroke-width="0.705556"/>
		<line x1="364.73" y1="125.193" x2="456.551" y2="125.193" stroke="rgb(255,0,0)" stroke-width="0.705556"/>
		<line x1="359.462" y1="225.843" x2="557.201" y2="225.843" stroke="rgb(255,255,0)" stroke-width="0.705556"/>
		<path d="M840.33,226.843 a2 2 0 0 0 1.99749,-1.89983" fill="none" stroke="rgb(255,0,0)" stroke-width="0.705556"/>
		<line x1="842.327" y1="224.944" x2="847.33" y2="125.193" stroke="rgb(255,0,0)" stroke-width="0.705556"/>
		<line x1="1040.33" y1="225.843" x2="939.68" y2="125.193" stroke="rgb(255,0,0)" stroke-width="0.705556"/>
		<line x1="847.33" y1="125.193" x2="939.68" y2="125.193" stroke="rgb(255,0,0)" stroke-width="0.705556"/>
		<line x1="842.062" y1="225.843" x2="1040.33" y2="225.843" stroke="rgb(255,255,0)" stroke-width="0.705556"/>
		<line x1="1040.33" y1="225.843" x2="1040.33" y2="225.843" stroke="rgb(255,0,0)" stroke-width="0.705556"/>
		<line x1="77.0797" y1="225.843" x2="51.4297" y2="251.493" stroke="rgb(255,0,0)" stroke-width="0.705556"/>
		<line x1="51.4297" y1="251.493" x2="51.4297" y2="440.445" stroke="rgb(255,0,0)" stroke-width="0.705556"/>
		<line x1="51.4297" y1="440.445" x2="76.4297" y2="447.143" stroke="rgb(255,0,0)" stroke-width="0.705556"/>
		<line x1="76.4297" y1="226.493" x2="76.4297" y2="447.143" stroke="rgb(255,255,0)" stroke-width="0.705556"/>
		<line x1="561.03" y1="-71.5066" x2="563.63" y2="-71.5066" stroke="rgb(255,0,0)" stroke-width="0.705556"/>
		<line x1="563.63" y1="-71.5066" x2="563.63" y2="-93.5066" stroke="rgb(255,0,0)" stroke-width="0.705556"/>
	</g>
</svg>