<svg version = "1.1" xmlns = "http://www.w3.org/2000/svg" xmlns:xlink="http://www.w3.org/1999/xlink" width="951.506" height="363.271" viewbox = "0 0 951.506 363.271">
	<g transform="translate(-161.899,439.635) scale(1,-1) ">
		<line x1="662.652" y1="168.467" x2="662.652" y2="298.117" stroke="rgb(255,255,0)" stroke-width="0.705556"/>
		<line x1="807.852" y1="298.117" x2="807.852" y2="168.467" stroke="rgb(255,255,0)" stroke-width="0.705556"/>
		<line x1="1021.75" y1="167.467" x2="1021.75" y2="298.117" stroke="rgb(255,255,0)" stroke-width="0.705556"/>
		<line x1="1113.05" y1="298.117" x2="1113.05" y2="167.467" stroke="rgb(255,0,0)" stroke-width="0.705556"/>
		<line x1="1113.05" y1="167.467" x2="1021.75" y2="167.467" stroke="rgb(255,0,0)" stroke-width="0.705556"/>
		<line x1="448.752" y1="256.952" x2="591.352" y2="339.282" stroke="rgb(255,0,0)" stroke-width="0.705556"/>
		<line x1="520.052" y1="256.952" x2="662.652" y2="339.282" stroke="rgb(255,0,0)" stroke-width="0.705556"/>
		<line x1="591.352" y1="256.952" x2="733.952" y2="339.282" stroke="rgb(255,0,0)" stroke-width="0.705556"/>
		<line x1="807.852" y1="256.952" x2="950.452" y2="339.282" stroke="rgb(255,0,0)" stroke-width="0.705556"/>
		<line x1="879.152" y1="256.952" x2="1021.75" y2="339.282" stroke="rgb(255,0,0)" stroke-width="0.705556"/>
		<line x1="950.452" y1="256.952" x2="1093.05" y2="339.282" stroke="rgb(255,0,0)" stroke-width="0.705556"/>
		<line x1="304.852" y1="167.467" x2="304.852" y2="256.952" stroke="rgb(255,0,0)" stroke-width="0.705556"/>
		<line x1="448.752" y1="298.117" x2="448.752" y2="168.467" stroke="rgb(255,255,0)" stroke-width="0.705556"/>
		<line x1="807.852" y1="298.117" x2="879.152" y2="339.282" stroke="rgb(255,0,0)" stroke-width="0.705556"/>
		<line x1="448.752" y1="298.117" x2="520.052" y2="339.282" stroke="rgb(255,0,0)" stroke-width="0.705556"/>
		<line x1="807.852" y1="298.117" x2="733.952" y2="339.282" stroke="rgb(255,0,0)" stroke-width="0.705556"/>
		<line x1="520.052" y1="256.952" x2="520.052" y2="298.117" stroke="rgb(255,255,0)" stroke-width="0.705556"/>
		<line x1="591.352" y1="256.952" x2="591.352" y2="298.117" stroke="rgb(255,255,0)" stroke-width="0.705556"/>
		<line x1="950.452" y1="256.952" x2="950.452" y2="298.117" stroke="rgb(255,255,0)" stroke-width="0.705556"/>
		<line x1="879.152" y1="256.952" x2="879.152" y2="298.117" stroke="rgb(255,255,0)" stroke-width="0.705556"/>
		<line x1="448.752" y1="298.117" x2="376.152" y2="340.032" stroke="rgb(255,0,0)" stroke-width="0.705556"/>
		<line x1="162.252" y1="256.952" x2="162.252" y2="439.282" stroke="rgb(255,0,0)" stroke-width="0.705556"/>
		<line x1="162.252" y1="439.282" x2="376.152" y2="439.282" stroke="rgb(255,0,0)" stroke-width="0.705556"/>
		<line x1="376.152" y1="439.282" x2="376.152" y2="340.032" stroke="rgb(255,0,0)" stroke-width="0.705556"/>
		<line x1="376.152" y1="256.952" x2="162.252" y2="256.952" stroke="rgb(255,0,0)" stroke-width="0.705556"/>
		<line x1="376.152" y1="340.032" x2="376.152" y2="256.952" stroke="rgb(255,255,0)" stroke-width="0.705556"/>
		<line x1="1093.05" y1="339.282" x2="1113.05" y2="327.735" stroke="rgb(255,0,0)" stroke-width="0.705556"/>
		<line x1="1113.05" y1="298.117" x2="1113.05" y2="327.735" stroke="rgb(255,0,0)" stroke-width="0.705556"/>
		<line x1="520.052" y1="339.282" x2="520.052" y2="298.117" stroke="rgb(255,255,0)" stroke-width="0.705556"/>
		<line x1="591.352" y1="339.282" x2="591.352" y2="298.117" stroke="rgb(255,255,0)" stroke-width="0.705556"/>
		<line x1="662.652" y1="339.282" x2="662.652" y2="298.117" stroke="rgb(255,255,0)" stroke-width="0.705556"/>
		<line x1="520.052" y1="339.282" x2="520.052" y2="439.282" stroke="rgb(255,0,0)" stroke-width="0.705556"/>
		<line x1="520.052" y1="439.282" x2="733.952" y2="439.282" stroke="rgb(255,0,0)" stroke-width="0.705556"/>
		<line x1="733.952" y1="439.282" x2="733.952" y2="339.282" stroke="rgb(255,0,0)" stroke-width="0.705556"/>
		<line x1="879.152" y1="339.282" x2="879.152" y2="298.117" stroke="rgb(255,255,0)" stroke-width="0.705556"/>
		<line x1="950.452" y1="339.282" x2="950.452" y2="298.117" stroke="rgb(255,255,0)" stroke-width="0.705556"/>
		<line x1="1021.75" y1="339.282" x2="1021.75" y2="298.117" stroke="rgb(255,255,0)" stroke-width="0.705556"/>
		<line x1="879.152" y1="339.282" x2="879.152" y2="439.282" stroke="rgb(255,0,0)" stroke-width="0.705556"/>
		<line x1="879.152" y1="439.282" x2="1093.05" y2="439.282" stroke="rgb(255,0,0)" stroke-width="0.705556"/>
		<line x1="1093.05" y1="439.282" x2="1093.05" y2="339.282" stroke="rgb(255,0,0)" stroke-width="0.705556"/>
		<line x1="1021.75" y1="298.117" x2="1021.75" y2="298.117" stroke="rgb(255,255,0)" stroke-width="0.705556"/>
		<line x1="1039.58" y1="419.282" x2="932.627" y2="419.282" stroke="rgb(255,0,0)" stroke-width="0.705556"/>
		<line x1="932.627" y1="419.282" x2="932.627" y2="409.282" stroke="rgb(255,0,0)" stroke-width="0.705556"/>
		<line x1="942.627" y1="399.282" x2="1029.58" y2="399.282" stroke="rgb(255,0,0)" stroke-width="0.705556"/>
		<line x1="1039.58" y1="409.282" x2="1039.58" y2="419.282" stroke="rgb(255,0,0)" stroke-width="0.705556"/>
		<path d="M1029.58,399.282 a10 10 0 0 1 10,10" fill="none" stroke="rgb(255,0,0)" stroke-width="0.705556"/>
		<path d="M932.627,409.282 a10 10 0 0 1 10,-10" fill="none" stroke="rgb(255,0,0)" stroke-width="0.705556"/>
		<line x1="322.677" y1="419.282" x2="215.727" y2="419.282" stroke="rgb(255,0,0)" stroke-width="0.705556"/>
		<line x1="215.727" y1="419.282" x2="215.727" y2="409.282" stroke="rgb(255,0,0)" stroke-width="0.705556"/>
		<line x1="225.727" y1="399.282" x2="312.677" y2="399.282" stroke="rgb(255,0,0)" stroke-width="0.705556"/>
		<line x1="322.677" y1="409.282" x2="322.677" y2="419.282" stroke="rgb(255,0,0)" stroke-width="0.705556"/>
		<path d="M312.677,399.282 a10 10 0 0 1 10,10" fill="none" stroke="rgb(255,0,0)" stroke-width="0.705556"/>
		<path d="M215.727,409.282 a10 10 0 0 1 10,-10" fill="none" stroke="rgb(255,0,0)" stroke-width="0.705556"/>
		<line x1="573.527" y1="419.282" x2="680.477" y2="419.282" stroke="rgb(255,255,0)" stroke-width="0.705556"/>
		<line x1="680.477" y1="419.282" x2="680.477" y2="409.282" stroke="rgb(255,0,0)" stroke-width="0.705556"/>
		<line x1="670.477" y1="399.282" x2="583.527" y2="399.282" stroke="rgb(255,0,0)" stroke-width="0.705556"/>
		<line x1="573.527" y1="409.282" x2="573.527" y2="419.282" stroke="rgb(255,0,0)" stroke-width="0.705556"/>
		<path d="M583.527,399.282 a10 10 0 0 0 -10,10" fill="none" stroke="rgb(255,0,0)" stroke-width="0.705556"/>
		<path d="M680.477,409.282 a10 10 0 0 0 -10,-10" fill="none" stroke="rgb(255,0,0)" stroke-width="0.705556"/>
		<line x1="680.477" y1="415.382" x2="573.527" y2="415.382" stroke="rgb(255,255,0)" stroke-width="0.705556"/>
		<line x1="269.202" y1="309.566" x2="269.202" y2="281.952" stroke="rgb(64,128,128)" stroke-width="0"/>
		<line x1="277.686" y1="291.157" x2="277.686" y2="281.952" stroke="rgb(64,128,128)" stroke-width="0"/>
		<line x1="273.444" y1="300.362" x2="273.444" y2="281.952" stroke="rgb(64,128,128)" stroke-width="0"/>
		<line x1="264.96" y1="318.771" x2="264.96" y2="281.952" stroke="rgb(64,128,128)" stroke-width="0"/>
		<line x1="260.718" y1="327.976" x2="260.718" y2="281.952" stroke="rgb(64,128,128)" stroke-width="0"/>
		<line x1="256.476" y1="337.181" x2="256.476" y2="281.952" stroke="rgb(64,128,128)" stroke-width="0"/>
		<line x1="281.928" y1="281.952" x2="256.476" y2="281.952" stroke="rgb(64,128,128)" stroke-width="0"/>
		<line x1="256.476" y1="337.181" x2="284.75" y2="308.864" stroke="rgb(64,128,128)" stroke-width="0"/>
		<path d="M284.75,308.864 a26.6045 26.6045 0 0 1 -2.82257,-26.9118" fill="none" stroke="rgb(64,128,128)" stroke-width="0"/>
		<line x1="281.928" y1="281.952" x2="256.476" y2="337.181" stroke="rgb(64,128,128)" stroke-width="0"/>
		<path d="M807.852,168.467 a2 2 0 0 1 -1.87939,-1.31596" fill="none" stroke="rgb(255,0,0)" stroke-width="0.705556"/>
		<line x1="805.972" y1="167.151" x2="779.663" y2="94.8668" stroke="rgb(255,0,0)" stroke-width="0.705556"/>
		<path d="M662.652,168.467 a2 2 0 0 0 1.41421,-0.585786" fill="none" stroke="rgb(255,0,0)" stroke-width="0.705556"/>
		<line x1="664.066" y1="167.881" x2="737.08" y2="94.8668" stroke="rgb(255,0,0)" stroke-width="0.705556"/>
		<line x1="779.663" y1="94.8668" x2="737.08" y2="94.8668" stroke="rgb(255,0,0)" stroke-width="0.705556"/>
		<line x1="806.12" y1="167.467" x2="664.48" y2="167.467" stroke="rgb(255,255,0)" stroke-width="0.705556"/>
		<path d="M448.752,168.467 a2 2 0 0 1 -1.87939,-1.31596" fill="none" stroke="rgb(255,0,0)" stroke-width="0.705556"/>
		<line x1="446.872" y1="167.151" x2="420.563" y2="94.8668" stroke="rgb(255,0,0)" stroke-width="0.705556"/>
		<line x1="304.852" y1="167.467" x2="377.452" y2="94.8668" stroke="rgb(255,0,0)" stroke-width="0.705556"/>
		<line x1="420.563" y1="94.8668" x2="377.452" y2="94.8668" stroke="rgb(255,0,0)" stroke-width="0.705556"/>
		<line x1="447.02" y1="167.467" x2="304.852" y2="167.467" stroke="rgb(255,255,0)" stroke-width="0.705556"/>
		<line x1="809.852" y1="148.932" x2="809.852" y2="76.7168" stroke="rgb(255,0,0)" stroke-width="0.705556"/>
		<line x1="809.852" y1="76.7168" x2="862.302" y2="76.7168" stroke="rgb(255,0,0)" stroke-width="0.705556"/>
		<line x1="862.302" y1="76.7168" x2="880.452" y2="94.8668" stroke="rgb(255,0,0)" stroke-width="0.705556"/>
		<line x1="880.452" y1="94.8668" x2="914.802" y2="94.8668" stroke="rgb(255,0,0)" stroke-width="0.705556"/>
		<line x1="914.802" y1="94.8668" x2="914.802" y2="90.8668" stroke="rgb(255,0,0)" stroke-width="0.705556"/>
		<line x1="914.802" y1="90.8668" x2="928.952" y2="76.7168" stroke="rgb(255,0,0)" stroke-width="0.705556"/>
		<line x1="928.952" y1="76.7168" x2="1017" y2="76.7168" stroke="rgb(255,0,0)" stroke-width="0.705556"/>
		<line x1="1021.75" y1="167.467" x2="1021.75" y2="167.467" stroke="rgb(255,0,0)" stroke-width="0.705556"/>
		<line x1="1021.75" y1="167.467" x2="1017" y2="76.7168" stroke="rgb(255,0,0)" stroke-width="0.705556"/>
		<line x1="1021.75" y1="167.467" x2="809.68" y2="167.467" stroke="rgb(255,255,0)" stroke-width="0.705556"/>
		<line x1="809.852" y1="148.932" x2="819.033" y2="158.114" stroke="rgb(255,0,0)" stroke-width="0.705556"/>
		<line x1="809.266" y1="167.881" x2="819.033" y2="158.114" stroke="rgb(255,0,0)" stroke-width="0.705556"/>
		<path d="M807.852,168.467 a2 2 0 0 0 1.41421,-0.585786" fill="none" stroke="rgb(255,0,0)" stroke-width="0.705556"/>
		<line x1="880.452" y1="94.8668" x2="818.119" y2="157.2" stroke="rgb(255,255,0)" stroke-width="0.705556"/>
		<path d="M662.652,168.467 a2 2 0 0 1 -1.99726,-1.89533" fill="none" stroke="rgb(255,0,0)" stroke-width="0.705556"/>
		<line x1="450.752" y1="148.932" x2="450.752" y2="76.7168" stroke="rgb(255,0,0)" stroke-width="0.705556"/>
		<line x1="450.752" y1="76.7168" x2="503.202" y2="76.7168" stroke="rgb(255,0,0)" stroke-width="0.705556"/>
		<line x1="503.202" y1="76.7168" x2="521.352" y2="94.8668" stroke="rgb(255,0,0)" stroke-width="0.705556"/>
		<line x1="521.352" y1="94.8668" x2="555.702" y2="94.8668" stroke="rgb(255,0,0)" stroke-width="0.705556"/>
		<line x1="555.702" y1="94.8668" x2="555.702" y2="90.8668" stroke="rgb(255,0,0)" stroke-width="0.705556"/>
		<line x1="555.702" y1="90.8668" x2="569.852" y2="76.7168" stroke="rgb(255,0,0)" stroke-width="0.705556"/>
		<line x1="569.852" y1="76.7168" x2="655.945" y2="76.7168" stroke="rgb(255,0,0)" stroke-width="0.705556"/>
		<line x1="660.654" y1="166.571" x2="655.945" y2="76.7168" stroke="rgb(255,0,0)" stroke-width="0.705556"/>
		<line x1="660.92" y1="167.467" x2="450.58" y2="167.467" stroke="rgb(255,255,0)" stroke-width="0.705556"/>
		<line x1="450.752" y1="148.932" x2="459.933" y2="158.114" stroke="rgb(255,0,0)" stroke-width="0.705556"/>
		<line x1="450.166" y1="167.881" x2="459.933" y2="158.114" stroke="rgb(255,0,0)" stroke-width="0.705556"/>
		<path d="M448.752,168.467 a2 2 0 0 0 1.41421,-0.585786" fill="none" stroke="rgb(255,0,0)" stroke-width="0.705556"/>
		<line x1="521.352" y1="94.8668" x2="459.019" y2="157.2" stroke="rgb(255,255,0)" stroke-width="0.705556"/>
	</g>
</svg>