<svg version = "1.1" xmlns = "http://www.w3.org/2000/svg" xmlns:xlink="http://www.w3.org/1999/xlink" width="465.906" height="566.506" viewbox = "0 0 465.906 566.506">
	<g transform="translate(-29.3019,609.215) scale(1,-1) ">
		<line x1="121.605" y1="427.912" x2="402.905" y2="427.912" stroke="rgb(255,255,0)" stroke-width="0.705556"/>
		<line x1="402.905" y1="224.012" x2="121.605" y2="224.012" stroke="rgb(255,255,0)" stroke-width="0.705556"/>
		<line x1="402.905" y1="427.912" x2="402.905" y2="426.412" stroke="rgb(255,0,0)" stroke-width="0.705556"/>
		<line x1="402.905" y1="426.412" x2="494.855" y2="426.412" stroke="rgb(255,0,0)" stroke-width="0.705556"/>
		<line x1="494.855" y1="426.412" x2="494.855" y2="225.512" stroke="rgb(255,0,0)" stroke-width="0.705556"/>
		<line x1="494.855" y1="225.512" x2="402.905" y2="225.512" stroke="rgb(255,0,0)" stroke-width="0.705556"/>
		<line x1="402.905" y1="225.512" x2="402.905" y2="224.012" stroke="rgb(255,0,0)" stroke-width="0.705556"/>
		<line x1="404.205" y1="426.412" x2="404.205" y2="225.512" stroke="rgb(255,255,0)" stroke-width="0.705556"/>
		<line x1="121.605" y1="224.012" x2="121.605" y2="225.512" stroke="rgb(255,0,0)" stroke-width="0.705556"/>
		<line x1="121.605" y1="225.512" x2="29.6547" y2="225.512" stroke="rgb(255,0,0)" stroke-width="0.705556"/>
		<line x1="29.6547" y1="225.512" x2="29.6547" y2="426.412" stroke="rgb(255,0,0)" stroke-width="0.705556"/>
		<line x1="29.6547" y1="426.412" x2="121.605" y2="426.412" stroke="rgb(255,0,0)" stroke-width="0.705556"/>
		<line x1="121.605" y1="426.412" x2="121.605" y2="427.912" stroke="rgb(255,0,0)" stroke-width="0.705556"/>
		<line x1="120.305" y1="225.512" x2="120.305" y2="426.412" stroke="rgb(255,255,0)" stroke-width="0.705556"/>
		<line x1="402.905" y1="518.062" x2="402.905" y2="518.062" stroke="rgb(255,0,0)" stroke-width="0.705556"/>
		<line x1="402.905" y1="518.062" x2="494.855" y2="518.062" stroke="rgb(255,0,0)" stroke-width="0.705556"/>
		<line x1="494.855" y1="518.062" x2="494.855" y2="429.412" stroke="rgb(255,0,0)" stroke-width="0.705556"/>
		<line x1="494.855" y1="429.412" x2="402.905" y2="429.412" stroke="rgb(255,0,0)" stroke-width="0.705556"/>
		<line x1="402.905" y1="429.412" x2="402.905" y2="427.912" stroke="rgb(255,0,0)" stroke-width="0.705556"/>
		<line x1="402.905" y1="518.062" x2="402.905" y2="429.412" stroke="rgb(255,255,0)" stroke-width="0.705556"/>
		<line x1="402.905" y1="133.862" x2="402.905" y2="133.862" stroke="rgb(255,0,0)" stroke-width="0.705556"/>
		<line x1="402.905" y1="133.862" x2="494.855" y2="133.862" stroke="rgb(255,0,0)" stroke-width="0.705556"/>
		<line x1="494.855" y1="133.862" x2="494.855" y2="222.512" stroke="rgb(255,0,0)" stroke-width="0.705556"/>
		<line x1="494.855" y1="222.512" x2="402.905" y2="222.512" stroke="rgb(255,0,0)" stroke-width="0.705556"/>
		<line x1="402.905" y1="222.512" x2="402.905" y2="224.012" stroke="rgb(255,0,0)" stroke-width="0.705556"/>
		<line x1="402.905" y1="133.862" x2="402.905" y2="222.512" stroke="rgb(255,255,0)" stroke-width="0.705556"/>
		<line x1="121.605" y1="518.062" x2="121.605" y2="518.062" stroke="rgb(255,0,0)" stroke-width="0.705556"/>
		<line x1="121.605" y1="518.062" x2="29.6547" y2="518.062" stroke="rgb(255,0,0)" stroke-width="0.705556"/>
		<line x1="29.6547" y1="518.062" x2="29.6547" y2="429.412" stroke="rgb(255,0,0)" stroke-width="0.705556"/>
		<line x1="29.6547" y1="429.412" x2="121.605" y2="429.412" stroke="rgb(255,0,0)" stroke-width="0.705556"/>
		<line x1="121.605" y1="429.412" x2="121.605" y2="427.912" stroke="rgb(255,0,0)" stroke-width="0.705556"/>
		<line x1="121.605" y1="518.062" x2="121.605" y2="429.412" stroke="rgb(255,255,0)" stroke-width="0.705556"/>
		<line x1="121.605" y1="133.862" x2="121.605" y2="133.862" stroke="rgb(255,0,0)" stroke-width="0.705556"/>
		<line x1="121.605" y1="133.862" x2="29.6547" y2="133.862" stroke="rgb(255,0,0)" stroke-width="0.705556"/>
		<line x1="29.6547" y1="133.862" x2="29.6547" y2="222.512" stroke="rgb(255,0,0)" stroke-width="0.705556"/>
		<line x1="29.6547" y1="222.512" x2="121.605" y2="222.512" stroke="rgb(255,0,0)" stroke-width="0.705556"/>
		<line x1="121.605" y1="222.512" x2="121.605" y2="224.012" stroke="rgb(255,0,0)" stroke-width="0.705556"/>
		<line x1="121.605" y1="133.862" x2="121.605" y2="222.512" stroke="rgb(255,255,0)" stroke-width="0.705556"/>
		<line x1="121.605" y1="518.062" x2="402.905" y2="518.062" stroke="rgb(255,255,0)" stroke-width="0.705556"/>
		<line x1="402.905" y1="518.062" x2="402.255" y2="519.362" stroke="rgb(255,0,0)" stroke-width="0.705556"/>
		<line x1="122.255" y1="519.362" x2="121.605" y2="518.062" stroke="rgb(255,0,0)" stroke-width="0.705556"/>
		<line x1="402.905" y1="133.862" x2="121.605" y2="133.862" stroke="rgb(255,255,0)" stroke-width="0.705556"/>
		<line x1="121.605" y1="133.862" x2="122.255" y2="132.562" stroke="rgb(255,0,0)" stroke-width="0.705556"/>
		<line x1="402.255" y1="132.562" x2="402.905" y2="133.862" stroke="rgb(255,0,0)" stroke-width="0.705556"/>
		<line x1="402.255" y1="132.562" x2="402.255" y2="43.0625" stroke="rgb(255,0,0)" stroke-width="0.705556"/>
		<line x1="402.255" y1="43.0625" x2="122.255" y2="43.0625" stroke="rgb(255,0,0)" stroke-width="0.705556"/>
		<line x1="122.255" y1="43.0625" x2="122.255" y2="132.562" stroke="rgb(255,0,0)" stroke-width="0.705556"/>
		<line x1="122.255" y1="132.562" x2="402.255" y2="132.562" stroke="rgb(255,255,0)" stroke-width="0.705556"/>
		<line x1="122.255" y1="519.362" x2="122.255" y2="608.862" stroke="rgb(255,0,0)" stroke-width="0.705556"/>
		<line x1="122.255" y1="608.862" x2="402.255" y2="608.862" stroke="rgb(255,0,0)" stroke-width="0.705556"/>
		<line x1="402.255" y1="608.862" x2="402.255" y2="519.362" stroke="rgb(255,0,0)" stroke-width="0.705556"/>
		<line x1="402.255" y1="519.362" x2="122.255" y2="519.362" stroke="rgb(255,255,0)" stroke-width="0.705556"/>
		<line x1="405.705" y1="426.412" x2="494.855" y2="337.262" stroke="rgb(255,255,0)" stroke-width="0.705556"/>
		<line x1="405.705" y1="225.512" x2="494.855" y2="314.662" stroke="rgb(255,255,0)" stroke-width="0.705556"/>
		<line x1="118.805" y1="426.412" x2="29.6547" y2="337.262" stroke="rgb(255,255,0)" stroke-width="0.705556"/>
		<line x1="118.805" y1="225.512" x2="29.6547" y2="314.662" stroke="rgb(255,255,0)" stroke-width="0.705556"/>
		<line x1="262.255" y1="276.627" x2="262.255" y2="249.012" stroke="rgb(64,128,128)" stroke-width="0"/>
		<line x1="270.739" y1="258.217" x2="270.739" y2="249.012" stroke="rgb(64,128,128)" stroke-width="0"/>
		<line x1="266.497" y1="267.422" x2="266.497" y2="249.012" stroke="rgb(64,128,128)" stroke-width="0"/>
		<line x1="258.013" y1="285.832" x2="258.013" y2="249.012" stroke="rgb(64,128,128)" stroke-width="0"/>
		<line x1="253.771" y1="295.037" x2="253.771" y2="249.012" stroke="rgb(64,128,128)" stroke-width="0"/>
		<line x1="249.529" y1="304.242" x2="249.529" y2="249.012" stroke="rgb(64,128,128)" stroke-width="0"/>
		<line x1="274.981" y1="249.012" x2="249.529" y2="249.012" stroke="rgb(64,128,128)" stroke-width="0"/>
		<line x1="249.529" y1="304.242" x2="277.803" y2="275.924" stroke="rgb(64,128,128)" stroke-width="0"/>
		<path d="M277.803,275.924 a26.6045 26.6045 0 0 1 -2.82257,-26.9118" fill="none" stroke="rgb(64,128,128)" stroke-width="0"/>
		<line x1="274.981" y1="249.012" x2="249.529" y2="304.242" stroke="rgb(64,128,128)" stroke-width="0"/>
	</g>
</svg>