<svg version = "1.1" xmlns = "http://www.w3.org/2000/svg" xmlns:xlink="http://www.w3.org/1999/xlink" width="547.206" height="639.156" viewbox = "0 0 547.206 639.156">
	<g transform="translate(-40.8105,657.354) scale(1,-1) ">
		<line x1="172.463" y1="120.501" x2="173.963" y2="120.501" stroke="rgb(255,0,0)" stroke-width="0.705556"/>
		<line x1="173.963" y1="120.501" x2="173.963" y2="18.5509" stroke="rgb(255,0,0)" stroke-width="0.705556"/>
		<line x1="173.963" y1="18.5509" x2="454.863" y2="18.5509" stroke="rgb(255,0,0)" stroke-width="0.705556"/>
		<line x1="454.863" y1="18.5509" x2="454.863" y2="120.501" stroke="rgb(255,0,0)" stroke-width="0.705556"/>
		<line x1="454.863" y1="120.501" x2="456.363" y2="120.501" stroke="rgb(255,0,0)" stroke-width="0.705556"/>
		<line x1="173.963" y1="119.201" x2="454.863" y2="119.201" stroke="rgb(255,255,0)" stroke-width="0.705556"/>
		<line x1="172.463" y1="120.501" x2="172.463" y2="120.501" stroke="rgb(255,0,0)" stroke-width="0.705556"/>
		<line x1="71.8133" y1="321.601" x2="172.463" y2="321.601" stroke="rgb(255,0,0)" stroke-width="0.705556"/>
		<line x1="172.463" y1="120.501" x2="172.463" y2="321.601" stroke="rgb(255,255,0)" stroke-width="0.705556"/>
		<line x1="456.363" y1="120.501" x2="456.363" y2="120.501" stroke="rgb(255,0,0)" stroke-width="0.705556"/>
		<line x1="557.013" y1="321.601" x2="456.363" y2="321.601" stroke="rgb(255,0,0)" stroke-width="0.705556"/>
		<line x1="456.363" y1="120.501" x2="456.363" y2="321.601" stroke="rgb(255,255,0)" stroke-width="0.705556"/>
		<line x1="172.463" y1="120.501" x2="170.963" y2="120.501" stroke="rgb(255,0,0)" stroke-width="0.705556"/>
		<line x1="170.963" y1="120.501" x2="170.963" y2="49.8509" stroke="rgb(255,0,0)" stroke-width="0.705556"/>
		<line x1="170.963" y1="49.8509" x2="71.8133" y2="49.8509" stroke="rgb(255,0,0)" stroke-width="0.705556"/>
		<line x1="71.8133" y1="49.8509" x2="71.8133" y2="120.501" stroke="rgb(255,0,0)" stroke-width="0.705556"/>
		<line x1="71.8133" y1="120.501" x2="71.8133" y2="120.501" stroke="rgb(255,0,0)" stroke-width="0.705556"/>
		<line x1="170.963" y1="120.501" x2="71.8133" y2="120.501" stroke="rgb(255,255,0)" stroke-width="0.705556"/>
		<line x1="456.363" y1="120.501" x2="457.863" y2="120.501" stroke="rgb(255,0,0)" stroke-width="0.705556"/>
		<line x1="457.863" y1="120.501" x2="457.863" y2="50.5009" stroke="rgb(255,0,0)" stroke-width="0.705556"/>
		<line x1="457.863" y1="50.5009" x2="557.013" y2="50.5009" stroke="rgb(255,0,0)" stroke-width="0.705556"/>
		<line x1="557.013" y1="50.5009" x2="557.013" y2="120.501" stroke="rgb(255,0,0)" stroke-width="0.705556"/>
		<line x1="557.013" y1="120.501" x2="557.013" y2="120.501" stroke="rgb(255,0,0)" stroke-width="0.705556"/>
		<line x1="457.863" y1="120.501" x2="557.013" y2="120.501" stroke="rgb(255,255,0)" stroke-width="0.705556"/>
		<line x1="71.8133" y1="120.501" x2="71.8133" y2="122.451" stroke="rgb(255,0,0)" stroke-width="0.705556"/>
		<line x1="71.8133" y1="122.451" x2="41.1633" y2="122.451" stroke="rgb(255,0,0)" stroke-width="0.705556"/>
		<line x1="41.1633" y1="122.451" x2="41.1633" y2="321.601" stroke="rgb(255,0,0)" stroke-width="0.705556"/>
		<line x1="41.1633" y1="321.601" x2="71.8133" y2="321.601" stroke="rgb(255,0,0)" stroke-width="0.705556"/>
		<line x1="71.8133" y1="321.601" x2="71.8133" y2="321.601" stroke="rgb(255,0,0)" stroke-width="0.705556"/>
		<line x1="71.8133" y1="122.451" x2="71.8133" y2="321.601" stroke="rgb(255,255,0)" stroke-width="0.705556"/>
		<line x1="557.013" y1="120.501" x2="557.013" y2="122.451" stroke="rgb(255,0,0)" stroke-width="0.705556"/>
		<line x1="557.013" y1="122.451" x2="587.663" y2="122.451" stroke="rgb(255,0,0)" stroke-width="0.705556"/>
		<line x1="587.663" y1="122.451" x2="587.663" y2="321.601" stroke="rgb(255,0,0)" stroke-width="0.705556"/>
		<line x1="587.663" y1="321.601" x2="557.013" y2="321.601" stroke="rgb(255,0,0)" stroke-width="0.705556"/>
		<line x1="557.013" y1="321.601" x2="557.013" y2="321.601" stroke="rgb(255,0,0)" stroke-width="0.705556"/>
		<line x1="557.013" y1="122.451" x2="557.013" y2="321.601" stroke="rgb(255,255,0)" stroke-width="0.705556"/>
		<line x1="172.463" y1="423.101" x2="173.763" y2="423.101" stroke="rgb(255,0,0)" stroke-width="0.705556"/>
		<line x1="455.063" y1="423.101" x2="456.363" y2="423.101" stroke="rgb(255,0,0)" stroke-width="0.705556"/>
		<line x1="455.063" y1="323.101" x2="173.763" y2="323.101" stroke="rgb(255,255,0)" stroke-width="0.705556"/>
		<line x1="172.463" y1="321.601" x2="173.763" y2="321.601" stroke="rgb(255,0,0)" stroke-width="0.705556"/>
		<line x1="173.763" y1="321.601" x2="173.763" y2="324.601" stroke="rgb(255,0,0)" stroke-width="0.705556"/>
		<line x1="173.763" y1="324.601" x2="103.113" y2="324.601" stroke="rgb(255,0,0)" stroke-width="0.705556"/>
		<line x1="103.113" y1="324.601" x2="103.113" y2="423.101" stroke="rgb(255,0,0)" stroke-width="0.705556"/>
		<line x1="103.113" y1="423.101" x2="173.763" y2="423.101" stroke="rgb(255,0,0)" stroke-width="0.705556"/>
		<line x1="173.763" y1="423.101" x2="173.763" y2="423.101" stroke="rgb(255,0,0)" stroke-width="0.705556"/>
		<line x1="173.763" y1="324.601" x2="173.763" y2="423.101" stroke="rgb(255,255,0)" stroke-width="0.705556"/>
		<line x1="173.763" y1="423.101" x2="172.463" y2="423.101" stroke="rgb(255,0,0)" stroke-width="0.705556"/>
		<line x1="456.363" y1="321.601" x2="455.063" y2="321.601" stroke="rgb(255,0,0)" stroke-width="0.705556"/>
		<line x1="455.063" y1="321.601" x2="455.063" y2="324.601" stroke="rgb(255,0,0)" stroke-width="0.705556"/>
		<line x1="455.063" y1="324.601" x2="525.713" y2="324.601" stroke="rgb(255,0,0)" stroke-width="0.705556"/>
		<line x1="525.713" y1="324.601" x2="525.713" y2="423.101" stroke="rgb(255,0,0)" stroke-width="0.705556"/>
		<line x1="525.713" y1="423.101" x2="455.063" y2="423.101" stroke="rgb(255,0,0)" stroke-width="0.705556"/>
		<line x1="455.063" y1="423.101" x2="455.063" y2="423.101" stroke="rgb(255,0,0)" stroke-width="0.705556"/>
		<line x1="455.063" y1="324.601" x2="455.063" y2="423.101" stroke="rgb(255,255,0)" stroke-width="0.705556"/>
		<line x1="455.063" y1="423.101" x2="456.363" y2="423.101" stroke="rgb(255,0,0)" stroke-width="0.705556"/>
		<line x1="173.763" y1="423.101" x2="173.763" y2="425.701" stroke="rgb(255,0,0)" stroke-width="0.705556"/>
		<line x1="173.763" y1="425.701" x2="173.763" y2="627.001" stroke="rgb(255,0,0)" stroke-width="0.705556"/>
		<line x1="455.063" y1="627.001" x2="455.063" y2="425.701" stroke="rgb(255,0,0)" stroke-width="0.705556"/>
		<line x1="455.063" y1="425.701" x2="455.063" y2="423.101" stroke="rgb(255,0,0)" stroke-width="0.705556"/>
		<line x1="173.763" y1="425.701" x2="455.063" y2="425.701" stroke="rgb(255,255,0)" stroke-width="0.705556"/>
		<line x1="455.063" y1="627.001" x2="455.063" y2="642.001" stroke="rgb(255,0,0)" stroke-width="0.705556"/>
		<line x1="440.063" y1="657.001" x2="188.763" y2="657.001" stroke="rgb(255,0,0)" stroke-width="0.705556"/>
		<line x1="173.763" y1="642.001" x2="173.763" y2="627.001" stroke="rgb(255,0,0)" stroke-width="0.705556"/>
		<line x1="173.763" y1="627.001" x2="173.763" y2="627.001" stroke="rgb(255,0,0)" stroke-width="0.705556"/>
		<line x1="173.763" y1="627.001" x2="455.063" y2="627.001" stroke="rgb(255,255,0)" stroke-width="0.705556"/>
		<line x1="455.063" y1="627.001" x2="455.063" y2="627.001" stroke="rgb(255,0,0)" stroke-width="0.705556"/>
		<path d="M440.063,657.001 a15 15 0 0 0 15,-15" fill="none" stroke="rgb(255,0,0)" stroke-width="0.705556"/>
		<path d="M188.763,657.001 a15 15 0 0 1 -15,-15" fill="none" stroke="rgb(255,0,0)" stroke-width="0.705556"/>
		<line x1="320.786" y1="156.927" x2="293.171" y2="156.927" stroke="rgb(64,128,128)" stroke-width="0"/>
		<line x1="302.376" y1="165.411" x2="293.171" y2="165.411" stroke="rgb(64,128,128)" stroke-width="0"/>
		<line x1="311.581" y1="161.169" x2="293.171" y2="161.169" stroke="rgb(64,128,128)" stroke-width="0"/>
		<line x1="329.991" y1="152.685" x2="293.171" y2="152.685" stroke="rgb(64,128,128)" stroke-width="0"/>
		<line x1="339.196" y1="148.443" x2="293.171" y2="148.443" stroke="rgb(64,128,128)" stroke-width="0"/>
		<line x1="348.401" y1="144.201" x2="293.171" y2="144.201" stroke="rgb(64,128,128)" stroke-width="0"/>
		<line x1="293.171" y1="169.653" x2="293.171" y2="144.201" stroke="rgb(64,128,128)" stroke-width="0"/>
		<line x1="348.401" y1="144.201" x2="320.083" y2="172.475" stroke="rgb(64,128,128)" stroke-width="0"/>
		<path d="M320.083,172.475 a26.6045 26.6045 0 0 0 -26.9118,-2.82257" fill="none" stroke="rgb(64,128,128)" stroke-width="0"/>
		<line x1="293.171" y1="169.653" x2="348.401" y2="144.201" stroke="rgb(64,128,128)" stroke-width="0"/>
		<line x1="457.863" y1="321.601" x2="587.663" y2="191.801" stroke="rgb(255,255,0)" stroke-width="0.705556"/>
		<line x1="170.963" y1="321.601" x2="41.1633" y2="191.801" stroke="rgb(255,255,0)" stroke-width="0.705556"/>
		<line x1="454.863" y1="117.701" x2="355.713" y2="18.5509" stroke="rgb(255,255,0)" stroke-width="0.705556"/>
		<line x1="173.963" y1="117.701" x2="273.113" y2="18.5509" stroke="rgb(255,255,0)" stroke-width="0.705556"/>
	</g>
</svg>