<svg version = "1.1" xmlns = "http://www.w3.org/2000/svg" xmlns:xlink="http://www.w3.org/1999/xlink" width="465.906" height="567.856" viewbox = "0 0 465.906 567.856">
	<g transform="translate(-29.3019,720.865) scale(1,-1) ">
		<line x1="121.605" y1="426.612" x2="402.905" y2="426.612" stroke="rgb(255,255,0)" stroke-width="0.705556"/>
		<line x1="402.905" y1="153.362" x2="121.605" y2="153.362" stroke="rgb(255,0,0)" stroke-width="0.705556"/>
		<line x1="402.905" y1="224.012" x2="121.605" y2="224.012" stroke="rgb(255,255,0)" stroke-width="0.705556"/>
		<line x1="402.905" y1="426.612" x2="402.905" y2="425.112" stroke="rgb(255,0,0)" stroke-width="0.705556"/>
		<line x1="402.905" y1="425.112" x2="474.855" y2="425.112" stroke="rgb(255,0,0)" stroke-width="0.705556"/>
		<line x1="474.855" y1="225.512" x2="402.905" y2="225.512" stroke="rgb(255,0,0)" stroke-width="0.705556"/>
		<line x1="402.905" y1="225.512" x2="402.905" y2="224.012" stroke="rgb(255,0,0)" stroke-width="0.705556"/>
		<line x1="404.205" y1="425.112" x2="404.205" y2="225.512" stroke="rgb(255,255,0)" stroke-width="0.705556"/>
		<line x1="121.605" y1="224.012" x2="121.605" y2="225.512" stroke="rgb(255,0,0)" stroke-width="0.705556"/>
		<line x1="121.605" y1="225.512" x2="49.6547" y2="225.512" stroke="rgb(255,0,0)" stroke-width="0.705556"/>
		<line x1="49.6547" y1="425.112" x2="121.605" y2="425.112" stroke="rgb(255,0,0)" stroke-width="0.705556"/>
		<line x1="121.605" y1="425.112" x2="121.605" y2="426.612" stroke="rgb(255,0,0)" stroke-width="0.705556"/>
		<line x1="120.305" y1="225.512" x2="120.305" y2="425.112" stroke="rgb(255,255,0)" stroke-width="0.705556"/>
		<line x1="407.905" y1="497.262" x2="474.855" y2="497.262" stroke="rgb(255,0,0)" stroke-width="0.705556"/>
		<line x1="474.855" y1="497.262" x2="474.855" y2="428.112" stroke="rgb(255,0,0)" stroke-width="0.705556"/>
		<line x1="474.855" y1="428.112" x2="402.905" y2="428.112" stroke="rgb(255,0,0)" stroke-width="0.705556"/>
		<line x1="402.905" y1="428.112" x2="402.905" y2="426.612" stroke="rgb(255,0,0)" stroke-width="0.705556"/>
		<line x1="402.905" y1="497.262" x2="402.905" y2="428.112" stroke="rgb(255,255,0)" stroke-width="0.705556"/>
		<line x1="407.905" y1="154.012" x2="474.855" y2="154.012" stroke="rgb(255,0,0)" stroke-width="0.705556"/>
		<line x1="474.855" y1="154.012" x2="474.855" y2="222.512" stroke="rgb(255,0,0)" stroke-width="0.705556"/>
		<line x1="474.855" y1="222.512" x2="402.905" y2="222.512" stroke="rgb(255,0,0)" stroke-width="0.705556"/>
		<line x1="402.905" y1="222.512" x2="402.905" y2="224.012" stroke="rgb(255,0,0)" stroke-width="0.705556"/>
		<line x1="402.905" y1="154.012" x2="402.905" y2="222.512" stroke="rgb(255,255,0)" stroke-width="0.705556"/>
		<line x1="116.605" y1="497.262" x2="49.6547" y2="497.262" stroke="rgb(255,0,0)" stroke-width="0.705556"/>
		<line x1="49.6547" y1="497.262" x2="49.6547" y2="428.112" stroke="rgb(255,0,0)" stroke-width="0.705556"/>
		<line x1="49.6547" y1="428.112" x2="121.605" y2="428.112" stroke="rgb(255,0,0)" stroke-width="0.705556"/>
		<line x1="121.605" y1="428.112" x2="121.605" y2="426.612" stroke="rgb(255,0,0)" stroke-width="0.705556"/>
		<line x1="121.605" y1="497.262" x2="121.605" y2="428.112" stroke="rgb(255,255,0)" stroke-width="0.705556"/>
		<line x1="116.605" y1="154.012" x2="49.6547" y2="154.012" stroke="rgb(255,0,0)" stroke-width="0.705556"/>
		<line x1="49.6547" y1="154.012" x2="49.6547" y2="222.512" stroke="rgb(255,0,0)" stroke-width="0.705556"/>
		<line x1="49.6547" y1="222.512" x2="121.605" y2="222.512" stroke="rgb(255,0,0)" stroke-width="0.705556"/>
		<line x1="121.605" y1="222.512" x2="121.605" y2="224.012" stroke="rgb(255,0,0)" stroke-width="0.705556"/>
		<line x1="121.605" y1="154.012" x2="121.605" y2="222.512" stroke="rgb(255,255,0)" stroke-width="0.705556"/>
		<line x1="121.605" y1="497.912" x2="116.605" y2="497.262" stroke="rgb(255,0,0)" stroke-width="0.705556"/>
		<line x1="121.605" y1="497.262" x2="121.605" y2="497.912" stroke="rgb(255,255,0)" stroke-width="0.705556"/>
		<line x1="402.905" y1="497.912" x2="407.905" y2="497.262" stroke="rgb(255,0,0)" stroke-width="0.705556"/>
		<line x1="402.905" y1="497.262" x2="402.905" y2="497.912" stroke="rgb(255,255,0)" stroke-width="0.705556"/>
		<line x1="402.905" y1="153.362" x2="407.905" y2="154.012" stroke="rgb(255,0,0)" stroke-width="0.705556"/>
		<line x1="402.905" y1="154.012" x2="402.905" y2="153.362" stroke="rgb(255,255,0)" stroke-width="0.705556"/>
		<line x1="121.605" y1="153.362" x2="116.605" y2="154.012" stroke="rgb(255,0,0)" stroke-width="0.705556"/>
		<line x1="121.605" y1="154.012" x2="121.605" y2="153.362" stroke="rgb(255,255,0)" stroke-width="0.705556"/>
		<line x1="121.605" y1="497.912" x2="121.605" y2="499.212" stroke="rgb(255,0,0)" stroke-width="0.705556"/>
		<line x1="121.605" y1="499.212" x2="121.605" y2="700.512" stroke="rgb(255,0,0)" stroke-width="0.705556"/>
		<line x1="402.905" y1="700.512" x2="402.905" y2="499.212" stroke="rgb(255,0,0)" stroke-width="0.705556"/>
		<line x1="402.905" y1="499.212" x2="402.905" y2="497.912" stroke="rgb(255,0,0)" stroke-width="0.705556"/>
		<line x1="121.605" y1="499.212" x2="402.905" y2="499.212" stroke="rgb(255,255,0)" stroke-width="0.705556"/>
		<line x1="402.255" y1="700.512" x2="402.255" y2="710.512" stroke="rgb(255,0,0)" stroke-width="0.705556"/>
		<line x1="392.255" y1="720.512" x2="132.255" y2="720.512" stroke="rgb(255,0,0)" stroke-width="0.705556"/>
		<line x1="122.255" y1="710.512" x2="122.255" y2="700.512" stroke="rgb(255,0,0)" stroke-width="0.705556"/>
		<line x1="121.605" y1="700.512" x2="122.255" y2="700.512" stroke="rgb(255,0,0)" stroke-width="0.705556"/>
		<line x1="122.255" y1="700.512" x2="402.255" y2="700.512" stroke="rgb(255,255,0)" stroke-width="0.705556"/>
		<line x1="402.255" y1="700.512" x2="402.905" y2="700.512" stroke="rgb(255,0,0)" stroke-width="0.705556"/>
		<path d="M392.255,720.512 a10 10 0 0 0 10,-10" fill="none" stroke="rgb(255,0,0)" stroke-width="0.705556"/>
		<path d="M132.255,720.512 a10 10 0 0 1 -10,-10" fill="none" stroke="rgb(255,0,0)" stroke-width="0.705556"/>
		<line x1="474.855" y1="425.112" x2="494.855" y2="425.112" stroke="rgb(255,0,0)" stroke-width="0.705556"/>
		<line x1="494.855" y1="425.112" x2="494.855" y2="225.512" stroke="rgb(255,0,0)" stroke-width="0.705556"/>
		<line x1="494.855" y1="225.512" x2="474.855" y2="225.512" stroke="rgb(255,0,0)" stroke-width="0.705556"/>
		<line x1="474.855" y1="225.512" x2="474.855" y2="425.112" stroke="rgb(255,255,0)" stroke-width="0.705556"/>
		<line x1="49.6547" y1="225.512" x2="29.6547" y2="225.512" stroke="rgb(255,0,0)" stroke-width="0.705556"/>
		<line x1="29.6547" y1="225.512" x2="29.6547" y2="425.112" stroke="rgb(255,0,0)" stroke-width="0.705556"/>
		<line x1="29.6547" y1="425.112" x2="49.6547" y2="425.112" stroke="rgb(255,0,0)" stroke-width="0.705556"/>
		<line x1="49.6547" y1="425.112" x2="49.6547" y2="225.512" stroke="rgb(255,255,0)" stroke-width="0.705556"/>
		<line x1="405.705" y1="425.112" x2="494.855" y2="335.962" stroke="rgb(255,255,0)" stroke-width="0.705556"/>
		<line x1="405.705" y1="225.512" x2="494.855" y2="314.662" stroke="rgb(255,255,0)" stroke-width="0.705556"/>
		<line x1="118.805" y1="425.112" x2="29.6547" y2="335.962" stroke="rgb(255,255,0)" stroke-width="0.705556"/>
		<line x1="118.805" y1="225.512" x2="29.6547" y2="314.662" stroke="rgb(255,255,0)" stroke-width="0.705556"/>
		<line x1="268.627" y1="261.738" x2="241.013" y2="261.738" stroke="rgb(64,128,128)" stroke-width="0"/>
		<line x1="250.218" y1="270.222" x2="241.013" y2="270.222" stroke="rgb(64,128,128)" stroke-width="0"/>
		<line x1="259.423" y1="265.98" x2="241.013" y2="265.98" stroke="rgb(64,128,128)" stroke-width="0"/>
		<line x1="277.832" y1="257.496" x2="241.013" y2="257.496" stroke="rgb(64,128,128)" stroke-width="0"/>
		<line x1="287.037" y1="253.254" x2="241.013" y2="253.254" stroke="rgb(64,128,128)" stroke-width="0"/>
		<line x1="296.242" y1="249.012" x2="241.013" y2="249.012" stroke="rgb(64,128,128)" stroke-width="0"/>
		<line x1="241.013" y1="274.464" x2="241.013" y2="249.012" stroke="rgb(64,128,128)" stroke-width="0"/>
		<line x1="296.242" y1="249.012" x2="267.924" y2="277.287" stroke="rgb(64,128,128)" stroke-width="0"/>
		<path d="M267.924,277.287 a26.6045 26.6045 0 0 0 -26.9118,-2.82257" fill="none" stroke="rgb(64,128,128)" stroke-width="0"/>
		<line x1="241.013" y1="274.464" x2="296.242" y2="249.012" stroke="rgb(64,128,128)" stroke-width="0"/>
	</g>
</svg>