<svg version = "1.1" xmlns = "http://www.w3.org/2000/svg" xmlns:xlink="http://www.w3.org/1999/xlink" width="411.106" height="557.206" viewbox = "0 0 411.106 557.206">
	<g transform="translate(-86.1545,633.994) scale(1,-1) ">
		<line x1="489.307" y1="329.091" x2="494.307" y2="329.091" stroke="rgb(255,0,0)" stroke-width="0.705556"/>
		<line x1="494.307" y1="329.091" x2="494.307" y2="278.441" stroke="rgb(255,0,0)" stroke-width="0.705556"/>
		<line x1="494.307" y1="258.441" x2="494.307" y2="198.441" stroke="rgb(255,0,0)" stroke-width="0.705556"/>
		<line x1="494.307" y1="178.441" x2="494.307" y2="127.791" stroke="rgb(255,0,0)" stroke-width="0.705556"/>
		<line x1="494.307" y1="127.791" x2="443.657" y2="127.791" stroke="rgb(255,0,0)" stroke-width="0.705556"/>
		<line x1="443.657" y1="127.791" x2="443.657" y2="157.791" stroke="rgb(255,255,0)" stroke-width="0.705556"/>
		<line x1="443.657" y1="187.791" x2="443.657" y2="269.091" stroke="rgb(255,255,0)" stroke-width="0.705556"/>
		<line x1="443.657" y1="299.091" x2="443.657" y2="329.091" stroke="rgb(255,255,0)" stroke-width="0.705556"/>
		<line x1="139.757" y1="127.791" x2="89.1073" y2="127.791" stroke="rgb(255,0,0)" stroke-width="0.705556"/>
		<line x1="89.1073" y1="127.791" x2="89.1073" y2="178.441" stroke="rgb(255,0,0)" stroke-width="0.705556"/>
		<line x1="89.1073" y1="198.441" x2="89.1073" y2="258.441" stroke="rgb(255,0,0)" stroke-width="0.705556"/>
		<line x1="89.1073" y1="278.441" x2="89.1073" y2="329.091" stroke="rgb(255,0,0)" stroke-width="0.705556"/>
		<line x1="89.1073" y1="329.091" x2="94.1073" y2="329.091" stroke="rgb(255,0,0)" stroke-width="0.705556"/>
		<line x1="139.757" y1="329.091" x2="139.757" y2="299.091" stroke="rgb(255,255,0)" stroke-width="0.705556"/>
		<line x1="139.757" y1="269.091" x2="139.757" y2="187.791" stroke="rgb(255,255,0)" stroke-width="0.705556"/>
		<line x1="139.757" y1="157.791" x2="139.757" y2="127.791" stroke="rgb(255,255,0)" stroke-width="0.705556"/>
		<line x1="443.657" y1="329.091" x2="413.657" y2="329.091" stroke="rgb(255,255,0)" stroke-width="0.705556"/>
		<line x1="383.657" y1="329.091" x2="199.757" y2="329.091" stroke="rgb(255,255,0)" stroke-width="0.705556"/>
		<line x1="169.757" y1="329.091" x2="139.757" y2="329.091" stroke="rgb(255,255,0)" stroke-width="0.705556"/>
		<line x1="479.53" y1="345.818" x2="443.657" y2="329.091" stroke="rgb(255,0,0)" stroke-width="0.705556"/>
		<line x1="443.657" y1="380.391" x2="443.657" y2="380.391" stroke="rgb(255,0,0)" stroke-width="0.705556"/>
		<line x1="444.957" y1="380.391" x2="479.53" y2="345.818" stroke="rgb(255,0,0)" stroke-width="0.705556"/>
		<line x1="444.957" y1="380.391" x2="444.957" y2="329.697" stroke="rgb(255,255,0)" stroke-width="0.705556"/>
		<line x1="103.885" y1="345.818" x2="139.757" y2="329.091" stroke="rgb(255,0,0)" stroke-width="0.705556"/>
		<line x1="139.757" y1="380.391" x2="139.757" y2="380.391" stroke="rgb(255,0,0)" stroke-width="0.705556"/>
		<line x1="138.457" y1="380.391" x2="103.885" y2="345.818" stroke="rgb(255,0,0)" stroke-width="0.705556"/>
		<line x1="138.457" y1="380.391" x2="138.457" y2="329.697" stroke="rgb(255,255,0)" stroke-width="0.705556"/>
		<line x1="443.657" y1="127.791" x2="442.357" y2="127.791" stroke="rgb(255,0,0)" stroke-width="0.705556"/>
		<line x1="442.357" y1="77.1409" x2="141.057" y2="77.1409" stroke="rgb(255,0,0)" stroke-width="0.705556"/>
		<line x1="141.057" y1="127.791" x2="139.757" y2="127.791" stroke="rgb(255,0,0)" stroke-width="0.705556"/>
		<line x1="442.357" y1="127.791" x2="413.657" y2="127.791" stroke="rgb(255,255,0)" stroke-width="0.705556"/>
		<line x1="383.657" y1="127.791" x2="199.757" y2="127.791" stroke="rgb(255,255,0)" stroke-width="0.705556"/>
		<line x1="169.757" y1="127.791" x2="141.057" y2="127.791" stroke="rgb(255,255,0)" stroke-width="0.705556"/>
		<line x1="442.357" y1="77.1409" x2="442.357" y2="77.1409" stroke="rgb(255,0,0)" stroke-width="0.705556"/>
		<line x1="442.357" y1="127.791" x2="442.357" y2="127.791" stroke="rgb(255,0,0)" stroke-width="0.705556"/>
		<line x1="442.357" y1="127.791" x2="476.9" y2="93.2484" stroke="rgb(255,0,0)" stroke-width="0.705556"/>
		<line x1="476.9" y1="93.2484" x2="442.357" y2="77.1409" stroke="rgb(255,0,0)" stroke-width="0.705556"/>
		<line x1="442.357" y1="77.1409" x2="442.357" y2="127.791" stroke="rgb(255,255,0)" stroke-width="0.705556"/>
		<line x1="141.057" y1="77.1409" x2="141.057" y2="77.1409" stroke="rgb(255,0,0)" stroke-width="0.705556"/>
		<line x1="141.057" y1="127.791" x2="141.057" y2="127.791" stroke="rgb(255,0,0)" stroke-width="0.705556"/>
		<line x1="141.057" y1="127.791" x2="106.515" y2="93.2484" stroke="rgb(255,0,0)" stroke-width="0.705556"/>
		<line x1="106.515" y1="93.2484" x2="141.057" y2="77.1409" stroke="rgb(255,0,0)" stroke-width="0.705556"/>
		<line x1="141.057" y1="77.1409" x2="141.057" y2="127.791" stroke="rgb(255,255,0)" stroke-width="0.705556"/>
		<line x1="444.957" y1="380.391" x2="413.657" y2="380.391" stroke="rgb(255,255,0)" stroke-width="0.705556"/>
		<line x1="383.657" y1="380.391" x2="199.757" y2="380.391" stroke="rgb(255,255,0)" stroke-width="0.705556"/>
		<line x1="169.757" y1="380.391" x2="138.457" y2="380.391" stroke="rgb(255,255,0)" stroke-width="0.705556"/>
		<line x1="444.957" y1="582.991" x2="444.957" y2="582.991" stroke="rgb(255,0,0)" stroke-width="0.705556"/>
		<line x1="472.46" y1="575.97" x2="496.907" y2="380.391" stroke="rgb(255,0,0)" stroke-width="0.705556"/>
		<line x1="496.907" y1="380.391" x2="444.957" y2="380.391" stroke="rgb(255,0,0)" stroke-width="0.705556"/>
		<line x1="444.957" y1="380.391" x2="444.957" y2="380.391" stroke="rgb(255,0,0)" stroke-width="0.705556"/>
		<line x1="446.257" y1="582.991" x2="446.257" y2="532.041" stroke="rgb(255,255,0)" stroke-width="0.705556"/>
		<line x1="446.257" y1="510.041" x2="446.257" y2="452.041" stroke="rgb(255,255,0)" stroke-width="0.705556"/>
		<line x1="446.257" y1="430.041" x2="446.257" y2="380.391" stroke="rgb(255,255,0)" stroke-width="0.705556"/>
		<line x1="138.457" y1="582.991" x2="138.457" y2="582.991" stroke="rgb(255,0,0)" stroke-width="0.705556"/>
		<line x1="110.955" y1="575.97" x2="86.5073" y2="380.391" stroke="rgb(255,0,0)" stroke-width="0.705556"/>
		<line x1="86.5073" y1="380.391" x2="138.457" y2="380.391" stroke="rgb(255,0,0)" stroke-width="0.705556"/>
		<line x1="138.457" y1="380.391" x2="138.457" y2="380.391" stroke="rgb(255,0,0)" stroke-width="0.705556"/>
		<line x1="137.157" y1="582.991" x2="137.157" y2="532.041" stroke="rgb(255,255,0)" stroke-width="0.705556"/>
		<line x1="137.157" y1="510.041" x2="137.157" y2="452.041" stroke="rgb(255,255,0)" stroke-width="0.705556"/>
		<line x1="137.157" y1="430.041" x2="137.157" y2="380.391" stroke="rgb(255,255,0)" stroke-width="0.705556"/>
		<line x1="446.257" y1="582.991" x2="472.46" y2="575.97" stroke="rgb(255,0,0)" stroke-width="0.705556"/>
		<line x1="137.157" y1="582.991" x2="110.955" y2="575.97" stroke="rgb(255,0,0)" stroke-width="0.705556"/>
		<line x1="137.157" y1="582.991" x2="137.157" y2="633.641" stroke="rgb(255,0,0)" stroke-width="0.705556"/>
		<line x1="137.157" y1="633.641" x2="446.257" y2="633.641" stroke="rgb(255,0,0)" stroke-width="0.705556"/>
		<line x1="446.257" y1="633.641" x2="446.257" y2="582.991" stroke="rgb(255,0,0)" stroke-width="0.705556"/>
		<line x1="446.257" y1="582.991" x2="413.657" y2="582.991" stroke="rgb(255,255,0)" stroke-width="0.705556"/>
		<line x1="383.657" y1="582.991" x2="199.757" y2="582.991" stroke="rgb(255,255,0)" stroke-width="0.705556"/>
		<line x1="169.757" y1="582.991" x2="137.157" y2="582.991" stroke="rgb(255,255,0)" stroke-width="0.705556"/>
		<line x1="137.157" y1="380.391" x2="92.1351" y2="425.413" stroke="rgb(255,255,0)" stroke-width="0.705556"/>
		<line x1="446.257" y1="380.391" x2="491.28" y2="425.413" stroke="rgb(255,255,0)" stroke-width="0.705556"/>
		<line x1="443.657" y1="127.791" x2="494.307" y2="178.441" stroke="rgb(255,255,0)" stroke-width="0.705556"/>
		<line x1="139.757" y1="127.791" x2="89.1073" y2="178.441" stroke="rgb(255,255,0)" stroke-width="0.705556"/>
		<line x1="89.1073" y1="198.441" x2="87.1573" y2="197.441" stroke="rgb(255,0,0)" stroke-width="0.705556"/>
		<line x1="87.1573" y1="197.441" x2="87.1573" y2="179.441" stroke="rgb(255,0,0)" stroke-width="0.705556"/>
		<line x1="87.1573" y1="179.441" x2="89.1073" y2="178.441" stroke="rgb(255,0,0)" stroke-width="0.705556"/>
		<line x1="89.1073" y1="258.441" x2="87.1573" y2="259.441" stroke="rgb(255,0,0)" stroke-width="0.705556"/>
		<line x1="87.1573" y1="259.441" x2="87.1573" y2="277.441" stroke="rgb(255,0,0)" stroke-width="0.705556"/>
		<line x1="87.1573" y1="277.441" x2="89.1073" y2="278.441" stroke="rgb(255,0,0)" stroke-width="0.705556"/>
		<line x1="494.307" y1="258.441" x2="496.257" y2="259.441" stroke="rgb(255,0,0)" stroke-width="0.705556"/>
		<line x1="496.257" y1="259.441" x2="496.257" y2="277.441" stroke="rgb(255,0,0)" stroke-width="0.705556"/>
		<line x1="496.257" y1="277.441" x2="494.307" y2="278.441" stroke="rgb(255,0,0)" stroke-width="0.705556"/>
		<line x1="494.307" y1="198.441" x2="496.257" y2="197.441" stroke="rgb(255,0,0)" stroke-width="0.705556"/>
		<line x1="496.257" y1="197.441" x2="496.257" y2="179.441" stroke="rgb(255,0,0)" stroke-width="0.705556"/>
		<line x1="496.257" y1="179.441" x2="494.307" y2="178.441" stroke="rgb(255,0,0)" stroke-width="0.705556"/>
		<line x1="137.157" y1="430.041" x2="141.057" y2="430.041" stroke="rgb(255,0,0)" stroke-width="0.705556"/>
		<line x1="141.057" y1="430.041" x2="141.057" y2="452.041" stroke="rgb(255,0,0)" stroke-width="0.705556"/>
		<line x1="141.057" y1="452.041" x2="137.157" y2="452.041" stroke="rgb(255,0,0)" stroke-width="0.705556"/>
		<line x1="137.157" y1="430.041" x2="137.157" y2="452.041" stroke="rgb(255,0,0)" stroke-width="0.705556"/>
		<line x1="446.257" y1="430.041" x2="442.357" y2="430.041" stroke="rgb(255,0,0)" stroke-width="0.705556"/>
		<line x1="442.357" y1="430.041" x2="442.357" y2="452.041" stroke="rgb(255,0,0)" stroke-width="0.705556"/>
		<line x1="442.357" y1="452.041" x2="446.257" y2="452.041" stroke="rgb(255,0,0)" stroke-width="0.705556"/>
		<line x1="446.257" y1="430.041" x2="446.257" y2="452.041" stroke="rgb(255,0,0)" stroke-width="0.705556"/>
		<line x1="137.157" y1="532.041" x2="141.057" y2="532.041" stroke="rgb(255,0,0)" stroke-width="0.705556"/>
		<line x1="141.057" y1="532.041" x2="141.057" y2="510.041" stroke="rgb(255,0,0)" stroke-width="0.705556"/>
		<line x1="141.057" y1="510.041" x2="137.157" y2="510.041" stroke="rgb(255,0,0)" stroke-width="0.705556"/>
		<line x1="137.157" y1="532.041" x2="137.157" y2="510.041" stroke="rgb(255,0,0)" stroke-width="0.705556"/>
		<line x1="446.257" y1="532.041" x2="442.357" y2="532.041" stroke="rgb(255,0,0)" stroke-width="0.705556"/>
		<line x1="442.357" y1="532.041" x2="442.357" y2="510.041" stroke="rgb(255,0,0)" stroke-width="0.705556"/>
		<line x1="442.357" y1="510.041" x2="446.257" y2="510.041" stroke="rgb(255,0,0)" stroke-width="0.705556"/>
		<line x1="446.257" y1="532.041" x2="446.257" y2="510.041" stroke="rgb(255,0,0)" stroke-width="0.705556"/>
		<path d="M489.307,329.091 a59.345 59.345 0 0 0 -45.65,0" fill="none" stroke="rgb(255,0,0)" stroke-width="0.705556"/>
		<path d="M94.1073,329.091 a59.345 59.345 0 0 1 45.65,0" fill="none" stroke="rgb(255,0,0)" stroke-width="0.705556"/>
		<circle cx="251.857" cy="481.691" r="20" fill="none" stroke="rgb(255,0,0)" stroke-width="0.705556"/>
		<circle cx="331.557" cy="481.691" r="20" fill="none" stroke="rgb(255,0,0)" stroke-width="0.705556"/>
		<circle cx="411.257" cy="481.691" r="20" fill="none" stroke="rgb(255,0,0)" stroke-width="0.705556"/>
		<circle cx="172.157" cy="481.691" r="20" fill="none" stroke="rgb(255,0,0)" stroke-width="0.705556"/>
		<circle cx="251.857" cy="552.991" r="20" fill="none" stroke="rgb(255,0,0)" stroke-width="0.705556"/>
		<circle cx="331.557" cy="552.991" r="20" fill="none" stroke="rgb(255,0,0)" stroke-width="0.705556"/>
		<circle cx="411.257" cy="552.991" r="20" fill="none" stroke="rgb(255,0,0)" stroke-width="0.705556"/>
		<circle cx="172.157" cy="552.991" r="20" fill="none" stroke="rgb(255,0,0)" stroke-width="0.705556"/>
		<circle cx="251.857" cy="410.391" r="20" fill="none" stroke="rgb(255,0,0)" stroke-width="0.705556"/>
		<circle cx="331.557" cy="410.391" r="20" fill="none" stroke="rgb(255,0,0)" stroke-width="0.705556"/>
		<circle cx="411.257" cy="410.391" r="20" fill="none" stroke="rgb(255,0,0)" stroke-width="0.705556"/>
		<circle cx="172.157" cy="410.391" r="20" fill="none" stroke="rgb(255,0,0)" stroke-width="0.705556"/>
		<circle cx="291.707" cy="517.341" r="6.66667" fill="none" stroke="rgb(255,0,0)" stroke-width="0.705556"/>
		<circle cx="371.407" cy="517.341" r="6.66667" fill="none" stroke="rgb(255,0,0)" stroke-width="0.705556"/>
		<circle cx="212.007" cy="517.341" r="6.66667" fill="none" stroke="rgb(255,0,0)" stroke-width="0.705556"/>
		<circle cx="291.707" cy="446.041" r="6.66667" fill="none" stroke="rgb(255,0,0)" stroke-width="0.705556"/>
		<circle cx="371.407" cy="446.041" r="6.66667" fill="none" stroke="rgb(255,0,0)" stroke-width="0.705556"/>
		<circle cx="212.007" cy="446.041" r="6.66667" fill="none" stroke="rgb(255,0,0)" stroke-width="0.705556"/>
		<circle cx="291.707" cy="192.141" r="6.66667" fill="none" stroke="rgb(255,0,0)" stroke-width="0.705556"/>
		<circle cx="371.407" cy="192.141" r="6.66667" fill="none" stroke="rgb(255,0,0)" stroke-width="0.705556"/>
		<circle cx="212.007" cy="192.141" r="6.66667" fill="none" stroke="rgb(255,0,0)" stroke-width="0.705556"/>
		<circle cx="291.707" cy="263.441" r="6.66667" fill="none" stroke="rgb(255,0,0)" stroke-width="0.705556"/>
		<circle cx="371.407" cy="263.441" r="6.66667" fill="none" stroke="rgb(255,0,0)" stroke-width="0.705556"/>
		<circle cx="212.007" cy="263.441" r="6.66667" fill="none" stroke="rgb(255,0,0)" stroke-width="0.705556"/>
		<circle cx="475.141" cy="271.774" r="6.66667" fill="none" stroke="rgb(255,0,0)" stroke-width="0.705556"/>
		<circle cx="475.141" cy="185.108" r="6.66667" fill="none" stroke="rgb(255,0,0)" stroke-width="0.705556"/>
		<circle cx="108.274" cy="271.774" r="6.66667" fill="none" stroke="rgb(255,0,0)" stroke-width="0.705556"/>
		<circle cx="108.274" cy="185.108" r="6.66667" fill="none" stroke="rgb(255,0,0)" stroke-width="0.705556"/>
		<circle cx="466.074" cy="437.708" r="6.66667" fill="none" stroke="rgb(255,0,0)" stroke-width="0.705556"/>
		<circle cx="466.074" cy="524.374" r="6.66667" fill="none" stroke="rgb(255,0,0)" stroke-width="0.705556"/>
		<circle cx="117.341" cy="437.708" r="6.66667" fill="none" stroke="rgb(255,0,0)" stroke-width="0.705556"/>
		<circle cx="117.341" cy="524.374" r="6.66667" fill="none" stroke="rgb(255,0,0)" stroke-width="0.705556"/>
		<circle cx="215.907" cy="102.466" r="6.66667" fill="none" stroke="rgb(255,0,0)" stroke-width="0.705556"/>
		<circle cx="367.507" cy="102.466" r="6.66667" fill="none" stroke="rgb(255,0,0)" stroke-width="0.705556"/>
		<circle cx="367.507" cy="608.966" r="6.66667" fill="none" stroke="rgb(255,0,0)" stroke-width="0.705556"/>
		<circle cx="215.907" cy="608.966" r="6.66667" fill="none" stroke="rgb(255,0,0)" stroke-width="0.705556"/>
		<line x1="199.757" y1="127.791" x2="198.757" y2="132.791" stroke="rgb(255,0,0)" stroke-width="0.705556"/>
		<line x1="198.757" y1="132.791" x2="170.757" y2="132.791" stroke="rgb(255,0,0)" stroke-width="0.705556"/>
		<line x1="170.757" y1="132.791" x2="169.757" y2="127.791" stroke="rgb(255,0,0)" stroke-width="0.705556"/>
		<line x1="383.657" y1="127.791" x2="384.657" y2="132.791" stroke="rgb(255,0,0)" stroke-width="0.705556"/>
		<line x1="384.657" y1="132.791" x2="412.657" y2="132.791" stroke="rgb(255,0,0)" stroke-width="0.705556"/>
		<line x1="412.657" y1="132.791" x2="413.657" y2="127.791" stroke="rgb(255,0,0)" stroke-width="0.705556"/>
		<line x1="199.757" y1="329.091" x2="198.757" y2="324.091" stroke="rgb(255,0,0)" stroke-width="0.705556"/>
		<line x1="198.757" y1="324.091" x2="170.757" y2="324.091" stroke="rgb(255,0,0)" stroke-width="0.705556"/>
		<line x1="170.757" y1="324.091" x2="169.757" y2="329.091" stroke="rgb(255,0,0)" stroke-width="0.705556"/>
		<line x1="383.657" y1="329.091" x2="384.657" y2="324.091" stroke="rgb(255,0,0)" stroke-width="0.705556"/>
		<line x1="384.657" y1="324.091" x2="412.657" y2="324.091" stroke="rgb(255,0,0)" stroke-width="0.705556"/>
		<line x1="412.657" y1="324.091" x2="413.657" y2="329.091" stroke="rgb(255,0,0)" stroke-width="0.705556"/>
		<line x1="169.757" y1="380.391" x2="169.757" y2="385.591" stroke="rgb(255,0,0)" stroke-width="0.705556"/>
		<line x1="169.757" y1="385.591" x2="199.757" y2="385.591" stroke="rgb(255,0,0)" stroke-width="0.705556"/>
		<line x1="199.757" y1="385.591" x2="199.757" y2="380.391" stroke="rgb(255,0,0)" stroke-width="0.705556"/>
		<line x1="169.757" y1="380.391" x2="199.757" y2="380.391" stroke="rgb(255,0,0)" stroke-width="0.705556"/>
		<line x1="413.657" y1="380.391" x2="413.657" y2="385.591" stroke="rgb(255,0,0)" stroke-width="0.705556"/>
		<line x1="413.657" y1="385.591" x2="383.657" y2="385.591" stroke="rgb(255,0,0)" stroke-width="0.705556"/>
		<line x1="383.657" y1="385.591" x2="383.657" y2="380.391" stroke="rgb(255,0,0)" stroke-width="0.705556"/>
		<line x1="413.657" y1="380.391" x2="383.657" y2="380.391" stroke="rgb(255,0,0)" stroke-width="0.705556"/>
		<line x1="413.657" y1="582.991" x2="413.657" y2="577.791" stroke="rgb(255,0,0)" stroke-width="0.705556"/>
		<line x1="413.657" y1="577.791" x2="383.657" y2="577.791" stroke="rgb(255,0,0)" stroke-width="0.705556"/>
		<line x1="383.657" y1="577.791" x2="383.657" y2="582.991" stroke="rgb(255,0,0)" stroke-width="0.705556"/>
		<line x1="413.657" y1="582.991" x2="383.657" y2="582.991" stroke="rgb(255,0,0)" stroke-width="0.705556"/>
		<line x1="169.757" y1="582.991" x2="169.757" y2="577.791" stroke="rgb(255,0,0)" stroke-width="0.705556"/>
		<line x1="169.757" y1="577.791" x2="199.757" y2="577.791" stroke="rgb(255,0,0)" stroke-width="0.705556"/>
		<line x1="199.757" y1="577.791" x2="199.757" y2="582.991" stroke="rgb(255,0,0)" stroke-width="0.705556"/>
		<line x1="169.757" y1="582.991" x2="199.757" y2="582.991" stroke="rgb(255,0,0)" stroke-width="0.705556"/>
		<line x1="139.757" y1="269.091" x2="144.757" y2="270.091" stroke="rgb(255,0,0)" stroke-width="0.705556"/>
		<line x1="144.757" y1="270.091" x2="144.757" y2="298.091" stroke="rgb(255,0,0)" stroke-width="0.705556"/>
		<line x1="144.757" y1="298.091" x2="139.757" y2="299.091" stroke="rgb(255,0,0)" stroke-width="0.705556"/>
		<line x1="139.757" y1="187.791" x2="144.757" y2="186.791" stroke="rgb(255,0,0)" stroke-width="0.705556"/>
		<line x1="144.757" y1="186.791" x2="144.757" y2="158.791" stroke="rgb(255,0,0)" stroke-width="0.705556"/>
		<line x1="144.757" y1="158.791" x2="139.757" y2="157.791" stroke="rgb(255,0,0)" stroke-width="0.705556"/>
		<line x1="443.657" y1="269.091" x2="438.657" y2="270.091" stroke="rgb(255,0,0)" stroke-width="0.705556"/>
		<line x1="438.657" y1="270.091" x2="438.657" y2="298.091" stroke="rgb(255,0,0)" stroke-width="0.705556"/>
		<line x1="438.657" y1="298.091" x2="443.657" y2="299.091" stroke="rgb(255,0,0)" stroke-width="0.705556"/>
		<line x1="443.657" y1="187.791" x2="438.657" y2="186.791" stroke="rgb(255,0,0)" stroke-width="0.705556"/>
		<line x1="438.657" y1="186.791" x2="438.657" y2="158.791" stroke="rgb(255,0,0)" stroke-width="0.705556"/>
		<line x1="438.657" y1="158.791" x2="443.657" y2="157.791" stroke="rgb(255,0,0)" stroke-width="0.705556"/>
		<line x1="298.08" y1="155.517" x2="270.465" y2="155.517" stroke="rgb(64,128,128)" stroke-width="0"/>
		<line x1="279.67" y1="164.001" x2="270.465" y2="164.001" stroke="rgb(64,128,128)" stroke-width="0"/>
		<line x1="288.875" y1="159.759" x2="270.465" y2="159.759" stroke="rgb(64,128,128)" stroke-width="0"/>
		<line x1="307.285" y1="151.275" x2="270.465" y2="151.275" stroke="rgb(64,128,128)" stroke-width="0"/>
		<line x1="316.49" y1="147.033" x2="270.465" y2="147.033" stroke="rgb(64,128,128)" stroke-width="0"/>
		<line x1="325.695" y1="142.791" x2="270.465" y2="142.791" stroke="rgb(64,128,128)" stroke-width="0"/>
		<line x1="270.465" y1="168.243" x2="270.465" y2="142.791" stroke="rgb(64,128,128)" stroke-width="0"/>
		<line x1="325.695" y1="142.791" x2="297.377" y2="171.065" stroke="rgb(64,128,128)" stroke-width="0"/>
		<path d="M297.377,171.065 a26.6045 26.6045 0 0 0 -26.9118,-2.82257" fill="none" stroke="rgb(64,128,128)" stroke-width="0"/>
		<line x1="270.465" y1="168.243" x2="325.695" y2="142.791" stroke="rgb(64,128,128)" stroke-width="0"/>
	</g>
</svg>