<svg version = "1.1" xmlns = "http://www.w3.org/2000/svg" xmlns:xlink="http://www.w3.org/1999/xlink" width="415.706" height="353.806" viewbox = "0 0 415.706 353.806">
	<g transform="translate(-48.4481,371) scale(1,-1) ">
		<line x1="463.801" y1="30.5472" x2="463.801" y2="69.4972" stroke="rgb(255,0,0)" stroke-width="0.705556"/>
		<line x1="463.801" y1="69.4972" x2="443.627" y2="69.4972" stroke="rgb(255,255,0)" stroke-width="0.705556"/>
		<line x1="406.475" y1="69.4972" x2="274.877" y2="69.4972" stroke="rgb(255,255,0)" stroke-width="0.705556"/>
		<line x1="237.725" y1="69.4972" x2="106.127" y2="69.4972" stroke="rgb(255,255,0)" stroke-width="0.705556"/>
		<line x1="68.9747" y1="69.4972" x2="48.8008" y2="69.4972" stroke="rgb(255,255,0)" stroke-width="0.705556"/>
		<line x1="48.8008" y1="69.4972" x2="48.8008" y2="30.5472" stroke="rgb(255,0,0)" stroke-width="0.705556"/>
		<line x1="48.8008" y1="30.5472" x2="68.8008" y2="30.5472" stroke="rgb(255,0,0)" stroke-width="0.705556"/>
		<line x1="118.801" y1="30.5472" x2="133.801" y2="30.5472" stroke="rgb(255,0,0)" stroke-width="0.705556"/>
		<line x1="183.801" y1="30.5472" x2="198.801" y2="30.5472" stroke="rgb(255,0,0)" stroke-width="0.705556"/>
		<line x1="248.801" y1="30.5472" x2="263.801" y2="30.5472" stroke="rgb(255,0,0)" stroke-width="0.705556"/>
		<line x1="313.801" y1="30.5472" x2="328.801" y2="30.5472" stroke="rgb(255,0,0)" stroke-width="0.705556"/>
		<line x1="378.801" y1="30.5472" x2="393.801" y2="30.5472" stroke="rgb(255,0,0)" stroke-width="0.705556"/>
		<line x1="443.801" y1="30.5472" x2="463.801" y2="30.5472" stroke="rgb(255,0,0)" stroke-width="0.705556"/>
		<line x1="48.8008" y1="170.797" x2="463.801" y2="170.797" stroke="rgb(255,255,0)" stroke-width="0.705556"/>
		<line x1="48.8008" y1="69.4972" x2="48.8008" y2="170.797" stroke="rgb(255,0,0)" stroke-width="0.705556"/>
		<line x1="463.801" y1="170.797" x2="463.801" y2="69.4972" stroke="rgb(255,0,0)" stroke-width="0.705556"/>
		<line x1="463.801" y1="210.397" x2="443.801" y2="210.397" stroke="rgb(255,255,0)" stroke-width="0.705556"/>
		<line x1="393.801" y1="210.397" x2="378.801" y2="210.397" stroke="rgb(255,255,0)" stroke-width="0.705556"/>
		<line x1="328.801" y1="210.397" x2="313.801" y2="210.397" stroke="rgb(255,255,0)" stroke-width="0.705556"/>
		<line x1="263.801" y1="210.397" x2="248.801" y2="210.397" stroke="rgb(255,255,0)" stroke-width="0.705556"/>
		<line x1="198.801" y1="210.397" x2="183.801" y2="210.397" stroke="rgb(255,255,0)" stroke-width="0.705556"/>
		<line x1="133.801" y1="210.397" x2="118.801" y2="210.397" stroke="rgb(255,255,0)" stroke-width="0.705556"/>
		<line x1="68.8008" y1="210.397" x2="48.8008" y2="210.397" stroke="rgb(255,255,0)" stroke-width="0.705556"/>
		<line x1="463.801" y1="170.797" x2="463.801" y2="210.397" stroke="rgb(255,0,0)" stroke-width="0.705556"/>
		<line x1="48.8008" y1="210.397" x2="48.8008" y2="170.797" stroke="rgb(255,0,0)" stroke-width="0.705556"/>
		<line x1="48.8008" y1="210.397" x2="48.8008" y2="312.997" stroke="rgb(255,0,0)" stroke-width="0.705556"/>
		<line x1="463.801" y1="312.997" x2="463.801" y2="210.397" stroke="rgb(255,0,0)" stroke-width="0.705556"/>
		<line x1="48.8008" y1="312.997" x2="48.8008" y2="351.947" stroke="rgb(255,0,0)" stroke-width="0.705556"/>
		<line x1="48.8008" y1="351.947" x2="69.6675" y2="351.947" stroke="rgb(255,0,0)" stroke-width="0.705556"/>
		<line x1="105.434" y1="351.947" x2="238.418" y2="351.947" stroke="rgb(255,0,0)" stroke-width="0.705556"/>
		<line x1="274.184" y1="351.947" x2="407.168" y2="351.947" stroke="rgb(255,0,0)" stroke-width="0.705556"/>
		<line x1="442.934" y1="351.947" x2="463.801" y2="351.947" stroke="rgb(255,0,0)" stroke-width="0.705556"/>
		<line x1="463.801" y1="351.947" x2="463.801" y2="312.997" stroke="rgb(255,0,0)" stroke-width="0.705556"/>
		<line x1="463.801" y1="312.997" x2="443.801" y2="312.997" stroke="rgb(255,255,0)" stroke-width="0.705556"/>
		<line x1="393.801" y1="312.997" x2="378.801" y2="312.997" stroke="rgb(255,255,0)" stroke-width="0.705556"/>
		<line x1="328.801" y1="312.997" x2="313.801" y2="312.997" stroke="rgb(255,255,0)" stroke-width="0.705556"/>
		<line x1="263.801" y1="312.997" x2="248.801" y2="312.997" stroke="rgb(255,255,0)" stroke-width="0.705556"/>
		<line x1="198.801" y1="312.997" x2="183.801" y2="312.997" stroke="rgb(255,255,0)" stroke-width="0.705556"/>
		<line x1="133.801" y1="312.997" x2="118.801" y2="312.997" stroke="rgb(255,255,0)" stroke-width="0.705556"/>
		<line x1="68.8008" y1="312.997" x2="48.8008" y2="312.997" stroke="rgb(255,255,0)" stroke-width="0.705556"/>
		<path d="M68.8008,30.5472 a30.5385 30.5385 0 0 1 50,0" fill="none" stroke="rgb(255,0,0)" stroke-width="0.705556"/>
		<path d="M198.801,30.5472 a30.5385 30.5385 0 0 1 50,0" fill="none" stroke="rgb(255,0,0)" stroke-width="0.705556"/>
		<path d="M263.801,30.5472 a30.5385 30.5385 0 0 1 50,0" fill="none" stroke="rgb(255,0,0)" stroke-width="0.705556"/>
		<path d="M328.801,30.5472 a30.5385 30.5385 0 0 1 50,0" fill="none" stroke="rgb(255,0,0)" stroke-width="0.705556"/>
		<path d="M393.801,30.5472 a30.5385 30.5385 0 0 1 50,0" fill="none" stroke="rgb(255,0,0)" stroke-width="0.705556"/>
		<path d="M133.801,30.5472 a30.5385 30.5385 0 0 1 50,0" fill="none" stroke="rgb(255,0,0)" stroke-width="0.705556"/>
		<line x1="70.1008" y1="350.647" x2="68.8008" y2="354.547" stroke="rgb(255,0,0)" stroke-width="0.705556"/>
		<line x1="68.8008" y1="354.547" x2="73.1148" y2="370.647" stroke="rgb(255,0,0)" stroke-width="0.705556"/>
		<line x1="73.1148" y1="370.647" x2="101.987" y2="370.647" stroke="rgb(255,0,0)" stroke-width="0.705556"/>
		<line x1="101.987" y1="370.647" x2="106.301" y2="354.547" stroke="rgb(255,0,0)" stroke-width="0.705556"/>
		<line x1="106.301" y1="354.547" x2="105.001" y2="350.647" stroke="rgb(255,0,0)" stroke-width="0.705556"/>
		<line x1="105.001" y1="350.647" x2="70.1008" y2="350.647" stroke="rgb(255,255,0)" stroke-width="0.705556"/>
		<line x1="407.601" y1="350.647" x2="406.301" y2="354.547" stroke="rgb(255,0,0)" stroke-width="0.705556"/>
		<line x1="406.301" y1="354.547" x2="410.615" y2="370.647" stroke="rgb(255,0,0)" stroke-width="0.705556"/>
		<line x1="410.615" y1="370.647" x2="439.487" y2="370.647" stroke="rgb(255,0,0)" stroke-width="0.705556"/>
		<line x1="439.487" y1="370.647" x2="443.801" y2="354.547" stroke="rgb(255,0,0)" stroke-width="0.705556"/>
		<line x1="443.801" y1="354.547" x2="442.501" y2="350.647" stroke="rgb(255,0,0)" stroke-width="0.705556"/>
		<line x1="442.501" y1="350.647" x2="407.601" y2="350.647" stroke="rgb(255,255,0)" stroke-width="0.705556"/>
		<line x1="238.851" y1="350.647" x2="237.551" y2="354.547" stroke="rgb(255,0,0)" stroke-width="0.705556"/>
		<line x1="237.551" y1="354.547" x2="241.865" y2="370.647" stroke="rgb(255,0,0)" stroke-width="0.705556"/>
		<line x1="241.865" y1="370.647" x2="270.737" y2="370.647" stroke="rgb(255,0,0)" stroke-width="0.705556"/>
		<line x1="270.737" y1="370.647" x2="275.051" y2="354.547" stroke="rgb(255,0,0)" stroke-width="0.705556"/>
		<line x1="275.051" y1="354.547" x2="273.751" y2="350.647" stroke="rgb(255,0,0)" stroke-width="0.705556"/>
		<line x1="273.751" y1="350.647" x2="238.851" y2="350.647" stroke="rgb(255,255,0)" stroke-width="0.705556"/>
		<line x1="66.8008" y1="71.4972" x2="71.8008" y2="66.8972" stroke="rgb(255,0,0)" stroke-width="0.705556"/>
		<line x1="71.8008" y1="66.8972" x2="103.301" y2="66.8972" stroke="rgb(255,0,0)" stroke-width="0.705556"/>
		<line x1="103.301" y1="66.8972" x2="108.301" y2="71.4972" stroke="rgb(255,0,0)" stroke-width="0.705556"/>
		<line x1="404.301" y1="71.4972" x2="409.301" y2="66.8972" stroke="rgb(255,0,0)" stroke-width="0.705556"/>
		<line x1="409.301" y1="66.8972" x2="440.801" y2="66.8972" stroke="rgb(255,0,0)" stroke-width="0.705556"/>
		<line x1="440.801" y1="66.8972" x2="445.801" y2="71.4972" stroke="rgb(255,0,0)" stroke-width="0.705556"/>
		<line x1="235.551" y1="71.4972" x2="240.551" y2="66.8972" stroke="rgb(255,0,0)" stroke-width="0.705556"/>
		<line x1="240.551" y1="66.8972" x2="272.051" y2="66.8972" stroke="rgb(255,0,0)" stroke-width="0.705556"/>
		<line x1="272.051" y1="66.8972" x2="277.051" y2="71.4972" stroke="rgb(255,0,0)" stroke-width="0.705556"/>
		<line x1="256.301" y1="122.112" x2="256.301" y2="94.4972" stroke="rgb(64,128,128)" stroke-width="0"/>
		<line x1="264.785" y1="103.702" x2="264.785" y2="94.4972" stroke="rgb(64,128,128)" stroke-width="0"/>
		<line x1="260.543" y1="112.907" x2="260.543" y2="94.4972" stroke="rgb(64,128,128)" stroke-width="0"/>
		<line x1="252.059" y1="131.317" x2="252.059" y2="94.4972" stroke="rgb(64,128,128)" stroke-width="0"/>
		<line x1="247.817" y1="140.522" x2="247.817" y2="94.4972" stroke="rgb(64,128,128)" stroke-width="0"/>
		<line x1="243.575" y1="149.727" x2="243.575" y2="94.4972" stroke="rgb(64,128,128)" stroke-width="0"/>
		<line x1="269.027" y1="94.4972" x2="243.575" y2="94.4972" stroke="rgb(64,128,128)" stroke-width="0"/>
		<line x1="243.575" y1="149.727" x2="271.849" y2="121.409" stroke="rgb(64,128,128)" stroke-width="0"/>
		<path d="M271.849,121.409 a26.6045 26.6045 0 0 1 -2.82257,-26.9118" fill="none" stroke="rgb(64,128,128)" stroke-width="0"/>
		<line x1="269.027" y1="94.4972" x2="243.575" y2="149.727" stroke="rgb(64,128,128)" stroke-width="0"/>
		<line x1="68.8008" y1="210.397" x2="68.8008" y2="312.997" stroke="rgb(255,0,0)" stroke-width="0.705556"/>
		<line x1="118.801" y1="312.997" x2="118.801" y2="210.397" stroke="rgb(255,0,0)" stroke-width="0.705556"/>
		<path d="M68.8008,312.997 a30.5385 30.5385 0 0 1 50,0" fill="none" stroke="rgb(255,0,0)" stroke-width="0.705556"/>
		<path d="M68.8008,210.397 a30.5385 30.5385 0 0 0 50,0" fill="none" stroke="rgb(255,0,0)" stroke-width="0.705556"/>
		<line x1="133.801" y1="210.397" x2="133.801" y2="312.997" stroke="rgb(255,0,0)" stroke-width="0.705556"/>
		<line x1="183.801" y1="312.997" x2="183.801" y2="210.397" stroke="rgb(255,0,0)" stroke-width="0.705556"/>
		<path d="M133.801,312.997 a30.5385 30.5385 0 0 1 50,0" fill="none" stroke="rgb(255,0,0)" stroke-width="0.705556"/>
		<path d="M133.801,210.397 a30.5385 30.5385 0 0 0 50,0" fill="none" stroke="rgb(255,0,0)" stroke-width="0.705556"/>
		<line x1="198.801" y1="210.397" x2="198.801" y2="312.997" stroke="rgb(255,0,0)" stroke-width="0.705556"/>
		<line x1="248.801" y1="312.997" x2="248.801" y2="210.397" stroke="rgb(255,0,0)" stroke-width="0.705556"/>
		<path d="M198.801,312.997 a30.5385 30.5385 0 0 1 50,0" fill="none" stroke="rgb(255,0,0)" stroke-width="0.705556"/>
		<path d="M198.801,210.397 a30.5385 30.5385 0 0 0 50,0" fill="none" stroke="rgb(255,0,0)" stroke-width="0.705556"/>
		<line x1="263.801" y1="210.397" x2="263.801" y2="312.997" stroke="rgb(255,0,0)" stroke-width="0.705556"/>
		<line x1="313.801" y1="312.997" x2="313.801" y2="210.397" stroke="rgb(255,0,0)" stroke-width="0.705556"/>
		<path d="M263.801,312.997 a30.5385 30.5385 0 0 1 50,0" fill="none" stroke="rgb(255,0,0)" stroke-width="0.705556"/>
		<path d="M263.801,210.397 a30.5385 30.5385 0 0 0 50,0" fill="none" stroke="rgb(255,0,0)" stroke-width="0.705556"/>
		<line x1="328.801" y1="210.397" x2="328.801" y2="312.997" stroke="rgb(255,0,0)" stroke-width="0.705556"/>
		<line x1="378.801" y1="312.997" x2="378.801" y2="210.397" stroke="rgb(255,0,0)" stroke-width="0.705556"/>
		<path d="M328.801,312.997 a30.5385 30.5385 0 0 1 50,0" fill="none" stroke="rgb(255,0,0)" stroke-width="0.705556"/>
		<path d="M328.801,210.397 a30.5385 30.5385 0 0 0 50,0" fill="none" stroke="rgb(255,0,0)" stroke-width="0.705556"/>
		<line x1="393.801" y1="210.397" x2="393.801" y2="312.997" stroke="rgb(255,0,0)" stroke-width="0.705556"/>
		<line x1="443.801" y1="312.997" x2="443.801" y2="210.397" stroke="rgb(255,0,0)" stroke-width="0.705556"/>
		<path d="M393.801,312.997 a30.5385 30.5385 0 0 1 50,0" fill="none" stroke="rgb(255,0,0)" stroke-width="0.705556"/>
		<path d="M393.801,210.397 a30.5385 30.5385 0 0 0 50,0" fill="none" stroke="rgb(255,0,0)" stroke-width="0.705556"/>
	</g>
</svg>