<svg version = "1.1" xmlns = "http://www.w3.org/2000/svg" xmlns:xlink="http://www.w3.org/1999/xlink" width="427.206" height="619.806" viewbox = "0 0 427.206 619.806">
	<g transform="translate(-98.2745,712.412) scale(1,-1) ">
		<line x1="169.927" y1="165.759" x2="98.6273" y2="165.759" stroke="rgb(255,0,0)" stroke-width="0.705556"/>
		<line x1="98.6273" y1="165.759" x2="98.6273" y2="365.559" stroke="rgb(255,0,0)" stroke-width="0.705556"/>
		<line x1="169.927" y1="165.759" x2="169.927" y2="365.559" stroke="rgb(255,255,0)" stroke-width="0.705556"/>
		<line x1="453.827" y1="165.759" x2="525.127" y2="165.759" stroke="rgb(255,0,0)" stroke-width="0.705556"/>
		<line x1="525.127" y1="165.759" x2="525.127" y2="365.559" stroke="rgb(255,0,0)" stroke-width="0.705556"/>
		<line x1="453.827" y1="165.759" x2="453.827" y2="365.559" stroke="rgb(255,255,0)" stroke-width="0.705556"/>
		<line x1="453.827" y1="92.9591" x2="169.927" y2="92.9591" stroke="rgb(255,0,0)" stroke-width="0.705556"/>
		<line x1="173.227" y1="164.259" x2="450.527" y2="164.259" stroke="rgb(255,255,0)" stroke-width="0.705556"/>
		<line x1="453.827" y1="165.759" x2="452.527" y2="165.759" stroke="rgb(255,0,0)" stroke-width="0.705556"/>
		<line x1="452.527" y1="162.759" x2="525.127" y2="162.759" stroke="rgb(255,0,0)" stroke-width="0.705556"/>
		<line x1="525.127" y1="162.759" x2="525.127" y2="92.9591" stroke="rgb(255,0,0)" stroke-width="0.705556"/>
		<line x1="525.127" y1="92.9591" x2="452.527" y2="92.9591" stroke="rgb(255,0,0)" stroke-width="0.705556"/>
		<line x1="452.527" y1="92.9591" x2="452.527" y2="92.9591" stroke="rgb(255,0,0)" stroke-width="0.705556"/>
		<line x1="452.527" y1="162.759" x2="452.527" y2="92.9591" stroke="rgb(255,255,0)" stroke-width="0.705556"/>
		<line x1="452.527" y1="92.9591" x2="453.827" y2="92.9591" stroke="rgb(255,0,0)" stroke-width="0.705556"/>
		<line x1="169.927" y1="165.759" x2="171.227" y2="165.759" stroke="rgb(255,0,0)" stroke-width="0.705556"/>
		<line x1="171.227" y1="162.759" x2="98.6273" y2="162.759" stroke="rgb(255,0,0)" stroke-width="0.705556"/>
		<line x1="98.6273" y1="162.759" x2="98.6273" y2="92.9591" stroke="rgb(255,0,0)" stroke-width="0.705556"/>
		<line x1="98.6273" y1="92.9591" x2="171.227" y2="92.9591" stroke="rgb(255,0,0)" stroke-width="0.705556"/>
		<line x1="171.227" y1="92.9591" x2="171.227" y2="92.9591" stroke="rgb(255,0,0)" stroke-width="0.705556"/>
		<line x1="171.227" y1="162.759" x2="171.227" y2="92.9591" stroke="rgb(255,255,0)" stroke-width="0.705556"/>
		<line x1="171.227" y1="92.9591" x2="169.927" y2="92.9591" stroke="rgb(255,0,0)" stroke-width="0.705556"/>
		<line x1="452.527" y1="165.759" x2="450.527" y2="165.759" stroke="rgb(255,0,0)" stroke-width="0.705556"/>
		<line x1="450.527" y1="165.759" x2="450.527" y2="162.759" stroke="rgb(255,0,0)" stroke-width="0.705556"/>
		<line x1="450.527" y1="162.759" x2="452.527" y2="162.759" stroke="rgb(255,0,0)" stroke-width="0.705556"/>
		<line x1="171.227" y1="162.759" x2="173.227" y2="162.759" stroke="rgb(255,0,0)" stroke-width="0.705556"/>
		<line x1="173.227" y1="162.759" x2="173.227" y2="165.759" stroke="rgb(255,0,0)" stroke-width="0.705556"/>
		<line x1="173.227" y1="165.759" x2="171.227" y2="165.759" stroke="rgb(255,0,0)" stroke-width="0.705556"/>
		<line x1="453.827" y1="366.859" x2="169.927" y2="366.859" stroke="rgb(255,255,0)" stroke-width="0.705556"/>
		<line x1="98.6273" y1="365.559" x2="98.6273" y2="365.559" stroke="rgb(255,0,0)" stroke-width="0.705556"/>
		<line x1="98.6273" y1="365.559" x2="98.6273" y2="440.959" stroke="rgb(255,0,0)" stroke-width="0.705556"/>
		<line x1="98.6273" y1="365.559" x2="169.927" y2="365.559" stroke="rgb(255,255,0)" stroke-width="0.705556"/>
		<line x1="525.127" y1="365.559" x2="525.127" y2="365.559" stroke="rgb(255,0,0)" stroke-width="0.705556"/>
		<line x1="525.127" y1="365.559" x2="525.127" y2="440.959" stroke="rgb(255,0,0)" stroke-width="0.705556"/>
		<line x1="525.127" y1="365.559" x2="453.827" y2="365.559" stroke="rgb(255,255,0)" stroke-width="0.705556"/>
		<line x1="453.827" y1="365.559" x2="454.477" y2="366.859" stroke="rgb(255,0,0)" stroke-width="0.705556"/>
		<line x1="454.477" y1="366.859" x2="454.477" y2="439.459" stroke="rgb(255,0,0)" stroke-width="0.705556"/>
		<line x1="453.827" y1="366.859" x2="454.477" y2="366.859" stroke="rgb(255,255,0)" stroke-width="0.705556"/>
		<line x1="169.927" y1="365.559" x2="169.277" y2="366.859" stroke="rgb(255,0,0)" stroke-width="0.705556"/>
		<line x1="169.277" y1="366.859" x2="169.277" y2="439.459" stroke="rgb(255,0,0)" stroke-width="0.705556"/>
		<line x1="169.927" y1="366.859" x2="169.277" y2="366.859" stroke="rgb(255,255,0)" stroke-width="0.705556"/>
		<line x1="454.477" y1="439.459" x2="169.277" y2="439.459" stroke="rgb(255,255,0)" stroke-width="0.705556"/>
		<line x1="169.277" y1="439.459" x2="169.277" y2="440.959" stroke="rgb(255,0,0)" stroke-width="0.705556"/>
		<line x1="169.277" y1="440.959" x2="98.6273" y2="440.959" stroke="rgb(255,0,0)" stroke-width="0.705556"/>
		<line x1="98.6273" y1="440.959" x2="98.6273" y2="641.859" stroke="rgb(255,0,0)" stroke-width="0.705556"/>
		<line x1="98.6273" y1="641.859" x2="168.627" y2="641.859" stroke="rgb(255,0,0)" stroke-width="0.705556"/>
		<line x1="167.327" y1="440.959" x2="167.327" y2="641.859" stroke="rgb(255,255,0)" stroke-width="0.705556"/>
		<line x1="454.477" y1="439.459" x2="454.477" y2="440.959" stroke="rgb(255,0,0)" stroke-width="0.705556"/>
		<line x1="454.477" y1="440.959" x2="525.127" y2="440.959" stroke="rgb(255,0,0)" stroke-width="0.705556"/>
		<line x1="525.127" y1="440.959" x2="525.127" y2="641.859" stroke="rgb(255,0,0)" stroke-width="0.705556"/>
		<line x1="525.127" y1="641.859" x2="455.127" y2="641.859" stroke="rgb(255,0,0)" stroke-width="0.705556"/>
		<line x1="456.427" y1="440.959" x2="456.427" y2="641.859" stroke="rgb(255,255,0)" stroke-width="0.705556"/>
		<line x1="169.277" y1="712.059" x2="454.477" y2="712.059" stroke="rgb(255,0,0)" stroke-width="0.705556"/>
		<line x1="453.127" y1="643.359" x2="170.627" y2="643.359" stroke="rgb(255,255,0)" stroke-width="0.705556"/>
		<line x1="168.627" y1="644.859" x2="98.6273" y2="644.859" stroke="rgb(255,0,0)" stroke-width="0.705556"/>
		<line x1="98.6273" y1="644.859" x2="98.6273" y2="712.059" stroke="rgb(255,0,0)" stroke-width="0.705556"/>
		<line x1="98.6273" y1="712.059" x2="169.277" y2="712.059" stroke="rgb(255,0,0)" stroke-width="0.705556"/>
		<line x1="169.277" y1="712.059" x2="169.277" y2="712.059" stroke="rgb(255,0,0)" stroke-width="0.705556"/>
		<line x1="168.627" y1="644.859" x2="168.627" y2="712.059" stroke="rgb(255,255,0)" stroke-width="0.705556"/>
		<line x1="455.127" y1="644.859" x2="525.127" y2="644.859" stroke="rgb(255,0,0)" stroke-width="0.705556"/>
		<line x1="525.127" y1="644.859" x2="525.127" y2="712.059" stroke="rgb(255,0,0)" stroke-width="0.705556"/>
		<line x1="525.127" y1="712.059" x2="454.477" y2="712.059" stroke="rgb(255,0,0)" stroke-width="0.705556"/>
		<line x1="454.477" y1="712.059" x2="454.477" y2="712.059" stroke="rgb(255,0,0)" stroke-width="0.705556"/>
		<line x1="455.127" y1="644.859" x2="455.127" y2="712.059" stroke="rgb(255,255,0)" stroke-width="0.705556"/>
		<line x1="168.427" y1="165.759" x2="98.6273" y2="235.559" stroke="rgb(255,255,0)" stroke-width="0.705556"/>
		<line x1="455.327" y1="165.759" x2="525.127" y2="235.559" stroke="rgb(255,255,0)" stroke-width="0.705556"/>
		<line x1="165.827" y1="641.859" x2="98.6273" y2="574.659" stroke="rgb(255,255,0)" stroke-width="0.705556"/>
		<line x1="457.927" y1="641.859" x2="525.127" y2="574.659" stroke="rgb(255,255,0)" stroke-width="0.705556"/>
		<line x1="168.627" y1="641.859" x2="170.627" y2="641.859" stroke="rgb(255,0,0)" stroke-width="0.705556"/>
		<line x1="170.627" y1="641.859" x2="170.627" y2="644.859" stroke="rgb(255,0,0)" stroke-width="0.705556"/>
		<line x1="170.627" y1="644.859" x2="168.627" y2="644.859" stroke="rgb(255,0,0)" stroke-width="0.705556"/>
		<line x1="455.127" y1="644.859" x2="453.127" y2="644.859" stroke="rgb(255,0,0)" stroke-width="0.705556"/>
		<line x1="453.127" y1="644.859" x2="453.127" y2="641.859" stroke="rgb(255,0,0)" stroke-width="0.705556"/>
		<line x1="453.127" y1="641.859" x2="455.127" y2="641.859" stroke="rgb(255,0,0)" stroke-width="0.705556"/>
		<line x1="318.25" y1="210.485" x2="290.635" y2="210.485" stroke="rgb(64,128,128)" stroke-width="0"/>
		<line x1="299.84" y1="218.969" x2="290.635" y2="218.969" stroke="rgb(64,128,128)" stroke-width="0"/>
		<line x1="309.045" y1="214.727" x2="290.635" y2="214.727" stroke="rgb(64,128,128)" stroke-width="0"/>
		<line x1="327.455" y1="206.243" x2="290.635" y2="206.243" stroke="rgb(64,128,128)" stroke-width="0"/>
		<line x1="336.66" y1="202.001" x2="290.635" y2="202.001" stroke="rgb(64,128,128)" stroke-width="0"/>
		<line x1="345.865" y1="197.759" x2="290.635" y2="197.759" stroke="rgb(64,128,128)" stroke-width="0"/>
		<line x1="290.635" y1="223.211" x2="290.635" y2="197.759" stroke="rgb(64,128,128)" stroke-width="0"/>
		<line x1="345.865" y1="197.759" x2="317.547" y2="226.034" stroke="rgb(64,128,128)" stroke-width="0"/>
		<path d="M317.547,226.034 a26.6045 26.6045 0 0 0 -26.9118,-2.82257" fill="none" stroke="rgb(64,128,128)" stroke-width="0"/>
		<line x1="290.635" y1="223.211" x2="345.865" y2="197.759" stroke="rgb(64,128,128)" stroke-width="0"/>
	</g>
</svg>