<svg version = "1.1" xmlns = "http://www.w3.org/2000/svg" xmlns:xlink="http://www.w3.org/1999/xlink" width="465.906" height="632.206" viewbox = "0 0 465.906 632.206">
	<g transform="translate(-28.3636,661.299) scale(1,-1) ">
		<line x1="120.666" y1="321.396" x2="401.966" y2="321.396" stroke="rgb(255,255,0)" stroke-width="0.705556"/>
		<line x1="401.966" y1="29.446" x2="120.666" y2="29.446" stroke="rgb(255,0,0)" stroke-width="0.705556"/>
		<line x1="401.966" y1="120.096" x2="120.666" y2="120.096" stroke="rgb(255,255,0)" stroke-width="0.705556"/>
		<line x1="401.966" y1="321.396" x2="401.966" y2="319.896" stroke="rgb(255,0,0)" stroke-width="0.705556"/>
		<line x1="401.966" y1="319.896" x2="493.916" y2="319.896" stroke="rgb(255,0,0)" stroke-width="0.705556"/>
		<line x1="493.916" y1="319.896" x2="493.916" y2="121.596" stroke="rgb(255,0,0)" stroke-width="0.705556"/>
		<line x1="493.916" y1="121.596" x2="401.966" y2="121.596" stroke="rgb(255,0,0)" stroke-width="0.705556"/>
		<line x1="401.966" y1="121.596" x2="401.966" y2="120.096" stroke="rgb(255,0,0)" stroke-width="0.705556"/>
		<line x1="403.266" y1="319.896" x2="403.266" y2="121.596" stroke="rgb(255,255,0)" stroke-width="0.705556"/>
		<line x1="120.666" y1="120.096" x2="120.666" y2="121.596" stroke="rgb(255,0,0)" stroke-width="0.705556"/>
		<line x1="120.666" y1="121.596" x2="28.7164" y2="121.596" stroke="rgb(255,0,0)" stroke-width="0.705556"/>
		<line x1="28.7164" y1="121.596" x2="28.7164" y2="319.896" stroke="rgb(255,0,0)" stroke-width="0.705556"/>
		<line x1="28.7164" y1="319.896" x2="120.666" y2="319.896" stroke="rgb(255,0,0)" stroke-width="0.705556"/>
		<line x1="120.666" y1="319.896" x2="120.666" y2="321.396" stroke="rgb(255,0,0)" stroke-width="0.705556"/>
		<line x1="119.366" y1="121.596" x2="119.366" y2="319.896" stroke="rgb(255,255,0)" stroke-width="0.705556"/>
		<line x1="401.966" y1="412.046" x2="401.966" y2="412.046" stroke="rgb(255,0,0)" stroke-width="0.705556"/>
		<line x1="401.966" y1="412.046" x2="493.916" y2="412.046" stroke="rgb(255,0,0)" stroke-width="0.705556"/>
		<line x1="493.916" y1="412.046" x2="493.916" y2="322.896" stroke="rgb(255,0,0)" stroke-width="0.705556"/>
		<line x1="493.916" y1="322.896" x2="401.966" y2="322.896" stroke="rgb(255,0,0)" stroke-width="0.705556"/>
		<line x1="401.966" y1="322.896" x2="401.966" y2="321.396" stroke="rgb(255,0,0)" stroke-width="0.705556"/>
		<line x1="401.966" y1="412.046" x2="401.966" y2="322.896" stroke="rgb(255,255,0)" stroke-width="0.705556"/>
		<line x1="401.966" y1="29.446" x2="401.966" y2="29.446" stroke="rgb(255,0,0)" stroke-width="0.705556"/>
		<line x1="401.966" y1="29.446" x2="493.916" y2="29.446" stroke="rgb(255,0,0)" stroke-width="0.705556"/>
		<line x1="493.916" y1="29.446" x2="493.916" y2="118.596" stroke="rgb(255,0,0)" stroke-width="0.705556"/>
		<line x1="493.916" y1="118.596" x2="401.966" y2="118.596" stroke="rgb(255,0,0)" stroke-width="0.705556"/>
		<line x1="401.966" y1="118.596" x2="401.966" y2="120.096" stroke="rgb(255,0,0)" stroke-width="0.705556"/>
		<line x1="401.966" y1="29.446" x2="401.966" y2="118.596" stroke="rgb(255,255,0)" stroke-width="0.705556"/>
		<line x1="120.666" y1="412.046" x2="120.666" y2="412.046" stroke="rgb(255,0,0)" stroke-width="0.705556"/>
		<line x1="120.666" y1="412.046" x2="28.7164" y2="412.046" stroke="rgb(255,0,0)" stroke-width="0.705556"/>
		<line x1="28.7164" y1="412.046" x2="28.7164" y2="322.896" stroke="rgb(255,0,0)" stroke-width="0.705556"/>
		<line x1="28.7164" y1="322.896" x2="120.666" y2="322.896" stroke="rgb(255,0,0)" stroke-width="0.705556"/>
		<line x1="120.666" y1="322.896" x2="120.666" y2="321.396" stroke="rgb(255,0,0)" stroke-width="0.705556"/>
		<line x1="120.666" y1="412.046" x2="120.666" y2="322.896" stroke="rgb(255,255,0)" stroke-width="0.705556"/>
		<line x1="120.666" y1="29.446" x2="120.666" y2="29.446" stroke="rgb(255,0,0)" stroke-width="0.705556"/>
		<line x1="120.666" y1="29.446" x2="28.7164" y2="29.446" stroke="rgb(255,0,0)" stroke-width="0.705556"/>
		<line x1="28.7164" y1="29.446" x2="28.7164" y2="118.596" stroke="rgb(255,0,0)" stroke-width="0.705556"/>
		<line x1="28.7164" y1="118.596" x2="120.666" y2="118.596" stroke="rgb(255,0,0)" stroke-width="0.705556"/>
		<line x1="120.666" y1="118.596" x2="120.666" y2="120.096" stroke="rgb(255,0,0)" stroke-width="0.705556"/>
		<line x1="120.666" y1="29.446" x2="120.666" y2="118.596" stroke="rgb(255,255,0)" stroke-width="0.705556"/>
		<line x1="404.766" y1="319.896" x2="493.916" y2="230.746" stroke="rgb(255,255,0)" stroke-width="0.705556"/>
		<line x1="404.766" y1="121.596" x2="493.916" y2="210.746" stroke="rgb(255,255,0)" stroke-width="0.705556"/>
		<line x1="117.866" y1="319.896" x2="28.7164" y2="230.746" stroke="rgb(255,255,0)" stroke-width="0.705556"/>
		<line x1="117.866" y1="121.596" x2="28.7164" y2="210.746" stroke="rgb(255,255,0)" stroke-width="0.705556"/>
		<line x1="120.666" y1="412.046" x2="120.666" y2="412.046" stroke="rgb(255,0,0)" stroke-width="0.705556"/>
		<line x1="120.666" y1="412.046" x2="120.666" y2="412.696" stroke="rgb(255,0,0)" stroke-width="0.705556"/>
		<line x1="401.966" y1="412.696" x2="401.966" y2="412.046" stroke="rgb(255,0,0)" stroke-width="0.705556"/>
		<line x1="401.966" y1="412.046" x2="401.966" y2="412.046" stroke="rgb(255,0,0)" stroke-width="0.705556"/>
		<line x1="120.666" y1="412.696" x2="401.966" y2="412.696" stroke="rgb(255,255,0)" stroke-width="0.705556"/>
		<line x1="401.966" y1="615.296" x2="401.966" y2="613.796" stroke="rgb(255,0,0)" stroke-width="0.705556"/>
		<line x1="401.966" y1="613.796" x2="451.516" y2="613.796" stroke="rgb(255,0,0)" stroke-width="0.705556"/>
		<line x1="451.516" y1="613.796" x2="451.516" y2="414.196" stroke="rgb(255,0,0)" stroke-width="0.705556"/>
		<line x1="451.516" y1="414.196" x2="401.966" y2="414.196" stroke="rgb(255,0,0)" stroke-width="0.705556"/>
		<line x1="401.966" y1="414.196" x2="401.966" y2="412.696" stroke="rgb(255,0,0)" stroke-width="0.705556"/>
		<line x1="405.866" y1="613.796" x2="405.866" y2="414.196" stroke="rgb(255,255,0)" stroke-width="0.705556"/>
		<line x1="120.666" y1="615.296" x2="120.666" y2="613.796" stroke="rgb(255,0,0)" stroke-width="0.705556"/>
		<line x1="120.666" y1="613.796" x2="71.1164" y2="613.796" stroke="rgb(255,0,0)" stroke-width="0.705556"/>
		<line x1="71.1164" y1="613.796" x2="71.1164" y2="414.196" stroke="rgb(255,0,0)" stroke-width="0.705556"/>
		<line x1="71.1164" y1="414.196" x2="120.666" y2="414.196" stroke="rgb(255,0,0)" stroke-width="0.705556"/>
		<line x1="120.666" y1="414.196" x2="120.666" y2="412.696" stroke="rgb(255,0,0)" stroke-width="0.705556"/>
		<line x1="116.766" y1="613.796" x2="116.766" y2="414.196" stroke="rgb(255,255,0)" stroke-width="0.705556"/>
		<line x1="120.666" y1="660.946" x2="401.966" y2="660.946" stroke="rgb(255,0,0)" stroke-width="0.705556"/>
		<line x1="401.966" y1="615.296" x2="120.666" y2="615.296" stroke="rgb(255,255,0)" stroke-width="0.705556"/>
		<line x1="401.966" y1="660.946" x2="401.966" y2="660.946" stroke="rgb(255,0,0)" stroke-width="0.705556"/>
		<line x1="401.966" y1="660.946" x2="451.516" y2="660.946" stroke="rgb(255,0,0)" stroke-width="0.705556"/>
		<line x1="451.516" y1="660.946" x2="451.516" y2="616.796" stroke="rgb(255,0,0)" stroke-width="0.705556"/>
		<line x1="451.516" y1="616.796" x2="401.966" y2="616.796" stroke="rgb(255,0,0)" stroke-width="0.705556"/>
		<line x1="401.966" y1="616.796" x2="401.966" y2="615.296" stroke="rgb(255,0,0)" stroke-width="0.705556"/>
		<line x1="404.566" y1="660.946" x2="404.566" y2="616.796" stroke="rgb(255,255,0)" stroke-width="0.705556"/>
		<line x1="120.666" y1="660.946" x2="120.666" y2="660.946" stroke="rgb(255,0,0)" stroke-width="0.705556"/>
		<line x1="120.666" y1="660.946" x2="71.1164" y2="660.946" stroke="rgb(255,0,0)" stroke-width="0.705556"/>
		<line x1="71.1164" y1="660.946" x2="71.1164" y2="616.796" stroke="rgb(255,0,0)" stroke-width="0.705556"/>
		<line x1="71.1164" y1="616.796" x2="120.666" y2="616.796" stroke="rgb(255,0,0)" stroke-width="0.705556"/>
		<line x1="120.666" y1="616.796" x2="120.666" y2="615.296" stroke="rgb(255,0,0)" stroke-width="0.705556"/>
		<line x1="118.066" y1="660.946" x2="118.066" y2="616.796" stroke="rgb(255,255,0)" stroke-width="0.705556"/>
		<line x1="407.366" y1="613.796" x2="451.516" y2="569.646" stroke="rgb(255,255,0)" stroke-width="0.705556"/>
		<line x1="115.266" y1="613.796" x2="71.1164" y2="569.646" stroke="rgb(255,255,0)" stroke-width="0.705556"/>
		<line x1="267.689" y1="157.822" x2="240.074" y2="157.822" stroke="rgb(64,128,128)" stroke-width="0"/>
		<line x1="249.279" y1="166.306" x2="240.074" y2="166.306" stroke="rgb(64,128,128)" stroke-width="0"/>
		<line x1="258.484" y1="162.064" x2="240.074" y2="162.064" stroke="rgb(64,128,128)" stroke-width="0"/>
		<line x1="276.894" y1="153.58" x2="240.074" y2="153.58" stroke="rgb(64,128,128)" stroke-width="0"/>
		<line x1="286.099" y1="149.338" x2="240.074" y2="149.338" stroke="rgb(64,128,128)" stroke-width="0"/>
		<line x1="295.304" y1="145.096" x2="240.074" y2="145.096" stroke="rgb(64,128,128)" stroke-width="0"/>
		<line x1="240.074" y1="170.548" x2="240.074" y2="145.096" stroke="rgb(64,128,128)" stroke-width="0"/>
		<line x1="295.304" y1="145.096" x2="266.986" y2="173.371" stroke="rgb(64,128,128)" stroke-width="0"/>
		<path d="M266.986,173.371 a26.6045 26.6045 0 0 0 -26.9118,-2.82257" fill="none" stroke="rgb(64,128,128)" stroke-width="0"/>
		<line x1="240.074" y1="170.548" x2="295.304" y2="145.096" stroke="rgb(64,128,128)" stroke-width="0"/>
	</g>
</svg>