<svg version = "1.1" xmlns = "http://www.w3.org/2000/svg" xmlns:xlink="http://www.w3.org/1999/xlink" width="403.306" height="325.906" viewbox = "0 0 403.306 325.906">
	<g transform="translate(-9.84582,333.166) scale(1,-1) ">
		<line x1="72.3486" y1="272.163" x2="72.3486" y2="332.813" stroke="rgb(255,0,0)" stroke-width="0.705556"/>
		<line x1="72.3486" y1="332.813" x2="108.349" y2="332.813" stroke="rgb(255,0,0)" stroke-width="0.705556"/>
		<line x1="314.649" y1="332.813" x2="350.649" y2="332.813" stroke="rgb(255,0,0)" stroke-width="0.705556"/>
		<line x1="350.649" y1="332.813" x2="350.649" y2="272.163" stroke="rgb(255,0,0)" stroke-width="0.705556"/>
		<line x1="412.799" y1="270.863" x2="412.799" y2="234.863" stroke="rgb(255,0,0)" stroke-width="0.705556"/>
		<line x1="412.799" y1="105.563" x2="412.799" y2="69.5635" stroke="rgb(255,0,0)" stroke-width="0.705556"/>
		<line x1="350.649" y1="68.2635" x2="350.649" y2="7.61347" stroke="rgb(255,0,0)" stroke-width="0.705556"/>
		<line x1="350.649" y1="7.61347" x2="314.649" y2="7.61347" stroke="rgb(255,0,0)" stroke-width="0.705556"/>
		<line x1="108.349" y1="7.61347" x2="72.3486" y2="7.61347" stroke="rgb(255,0,0)" stroke-width="0.705556"/>
		<line x1="72.3486" y1="7.61347" x2="72.3486" y2="68.2635" stroke="rgb(255,0,0)" stroke-width="0.705556"/>
		<line x1="10.1986" y1="270.863" x2="10.1986" y2="234.863" stroke="rgb(255,0,0)" stroke-width="0.705556"/>
		<line x1="10.1986" y1="105.563" x2="10.1986" y2="69.5635" stroke="rgb(255,0,0)" stroke-width="0.705556"/>
		<line x1="350.649" y1="272.163" x2="72.3486" y2="272.163" stroke="rgb(255,255,0)" stroke-width="0.705556"/>
		<line x1="70.8486" y1="270.863" x2="70.8486" y2="69.5635" stroke="rgb(255,255,0)" stroke-width="0.705556"/>
		<line x1="72.3486" y1="68.2635" x2="350.649" y2="68.2635" stroke="rgb(255,255,0)" stroke-width="0.705556"/>
		<line x1="352.149" y1="69.5635" x2="352.149" y2="270.863" stroke="rgb(255,255,0)" stroke-width="0.705556"/>
		<line x1="70.8486" y1="270.863" x2="72.3486" y2="270.863" stroke="rgb(255,0,0)" stroke-width="0.705556"/>
		<line x1="72.3486" y1="270.863" x2="72.3486" y2="272.163" stroke="rgb(255,0,0)" stroke-width="0.705556"/>
		<line x1="350.649" y1="272.163" x2="350.649" y2="270.863" stroke="rgb(255,0,0)" stroke-width="0.705556"/>
		<line x1="350.649" y1="270.863" x2="352.149" y2="270.863" stroke="rgb(255,0,0)" stroke-width="0.705556"/>
		<line x1="350.649" y1="68.2635" x2="350.649" y2="69.5635" stroke="rgb(255,0,0)" stroke-width="0.705556"/>
		<line x1="350.649" y1="69.5635" x2="352.149" y2="69.5635" stroke="rgb(255,0,0)" stroke-width="0.705556"/>
		<line x1="70.8486" y1="69.5635" x2="72.3486" y2="69.5635" stroke="rgb(255,0,0)" stroke-width="0.705556"/>
		<line x1="72.3486" y1="69.5635" x2="72.3486" y2="68.2635" stroke="rgb(255,0,0)" stroke-width="0.705556"/>
		<line x1="412.799" y1="105.563" x2="399.449" y2="105.563" stroke="rgb(255,0,0)" stroke-width="0.705556"/>
		<line x1="389.449" y1="115.563" x2="389.449" y2="224.863" stroke="rgb(255,0,0)" stroke-width="0.705556"/>
		<line x1="399.449" y1="234.863" x2="412.799" y2="234.863" stroke="rgb(255,0,0)" stroke-width="0.705556"/>
		<path d="M399.449,105.563 a10 10 0 0 0 -10,10" fill="none" stroke="rgb(255,0,0)" stroke-width="0.705556"/>
		<path d="M389.449,224.863 a10 10 0 0 0 10,10" fill="none" stroke="rgb(255,0,0)" stroke-width="0.705556"/>
		<line x1="10.1986" y1="234.863" x2="23.5486" y2="234.863" stroke="rgb(255,0,0)" stroke-width="0.705556"/>
		<line x1="33.5486" y1="224.863" x2="33.5486" y2="115.563" stroke="rgb(255,0,0)" stroke-width="0.705556"/>
		<line x1="23.5486" y1="105.563" x2="10.1986" y2="105.563" stroke="rgb(255,0,0)" stroke-width="0.705556"/>
		<path d="M23.5486,234.863 a10 10 0 0 0 10,-10" fill="none" stroke="rgb(255,0,0)" stroke-width="0.705556"/>
		<path d="M33.5486,115.563 a10 10 0 0 0 -10,-10" fill="none" stroke="rgb(255,0,0)" stroke-width="0.705556"/>
		<line x1="352.149" y1="270.863" x2="353.649" y2="270.863" stroke="rgb(255,0,0)" stroke-width="0.705556"/>
		<line x1="353.649" y1="270.863" x2="353.649" y2="307.513" stroke="rgb(255,0,0)" stroke-width="0.705556"/>
		<line x1="353.649" y1="307.513" x2="411.499" y2="307.513" stroke="rgb(255,0,0)" stroke-width="0.705556"/>
		<line x1="353.649" y1="270.863" x2="412.799" y2="270.863" stroke="rgb(255,255,0)" stroke-width="0.705556"/>
		<line x1="411.499" y1="307.513" x2="411.499" y2="272.163" stroke="rgb(255,0,0)" stroke-width="0.705556"/>
		<line x1="411.499" y1="272.163" x2="412.799" y2="270.863" stroke="rgb(255,0,0)" stroke-width="0.705556"/>
		<line x1="352.149" y1="69.5635" x2="353.649" y2="69.5635" stroke="rgb(255,0,0)" stroke-width="0.705556"/>
		<line x1="353.649" y1="69.5635" x2="353.649" y2="32.9135" stroke="rgb(255,0,0)" stroke-width="0.705556"/>
		<line x1="353.649" y1="32.9135" x2="411.499" y2="32.9135" stroke="rgb(255,0,0)" stroke-width="0.705556"/>
		<line x1="353.649" y1="69.5635" x2="412.799" y2="69.5635" stroke="rgb(255,255,0)" stroke-width="0.705556"/>
		<line x1="411.499" y1="32.9135" x2="411.499" y2="68.2635" stroke="rgb(255,0,0)" stroke-width="0.705556"/>
		<line x1="411.499" y1="68.2635" x2="412.799" y2="69.5635" stroke="rgb(255,0,0)" stroke-width="0.705556"/>
		<line x1="70.8486" y1="69.5635" x2="69.3486" y2="69.5635" stroke="rgb(255,0,0)" stroke-width="0.705556"/>
		<line x1="69.3486" y1="69.5635" x2="69.3486" y2="32.9135" stroke="rgb(255,0,0)" stroke-width="0.705556"/>
		<line x1="69.3486" y1="32.9135" x2="11.4986" y2="32.9135" stroke="rgb(255,0,0)" stroke-width="0.705556"/>
		<line x1="69.3486" y1="69.5635" x2="10.1986" y2="69.5635" stroke="rgb(255,255,0)" stroke-width="0.705556"/>
		<line x1="11.4986" y1="32.9135" x2="11.4986" y2="68.2635" stroke="rgb(255,0,0)" stroke-width="0.705556"/>
		<line x1="11.4986" y1="68.2635" x2="10.1986" y2="69.5635" stroke="rgb(255,0,0)" stroke-width="0.705556"/>
		<line x1="70.8486" y1="270.863" x2="69.3486" y2="270.863" stroke="rgb(255,0,0)" stroke-width="0.705556"/>
		<line x1="69.3486" y1="270.863" x2="69.3486" y2="307.513" stroke="rgb(255,0,0)" stroke-width="0.705556"/>
		<line x1="69.3486" y1="307.513" x2="11.4986" y2="307.513" stroke="rgb(255,0,0)" stroke-width="0.705556"/>
		<line x1="69.3486" y1="270.863" x2="10.1986" y2="270.863" stroke="rgb(255,255,0)" stroke-width="0.705556"/>
		<line x1="11.4986" y1="307.513" x2="11.4986" y2="272.163" stroke="rgb(255,0,0)" stroke-width="0.705556"/>
		<line x1="11.4986" y1="272.163" x2="10.1986" y2="270.863" stroke="rgb(255,0,0)" stroke-width="0.705556"/>
		<line x1="314.649" y1="332.813" x2="314.649" y2="318.813" stroke="rgb(255,0,0)" stroke-width="0.705556"/>
		<line x1="304.649" y1="308.813" x2="118.349" y2="308.813" stroke="rgb(255,0,0)" stroke-width="0.705556"/>
		<line x1="108.349" y1="318.813" x2="108.349" y2="332.813" stroke="rgb(255,0,0)" stroke-width="0.705556"/>
		<path d="M314.649,318.813 a10 10 0 0 0 -10,-10" fill="none" stroke="rgb(255,0,0)" stroke-width="0.705556"/>
		<path d="M118.349,308.813 a10 10 0 0 0 -10,10" fill="none" stroke="rgb(255,0,0)" stroke-width="0.705556"/>
		<line x1="350.649" y1="273.663" x2="312.132" y2="312.18" stroke="rgb(255,255,0)" stroke-width="0.705556"/>
		<line x1="72.3486" y1="273.663" x2="110.865" y2="312.18" stroke="rgb(255,255,0)" stroke-width="0.705556"/>
		<line x1="108.349" y1="7.61347" x2="108.349" y2="21.6135" stroke="rgb(255,0,0)" stroke-width="0.705556"/>
		<line x1="118.349" y1="31.6135" x2="304.649" y2="31.6135" stroke="rgb(255,0,0)" stroke-width="0.705556"/>
		<line x1="314.649" y1="21.6135" x2="314.649" y2="7.61347" stroke="rgb(255,0,0)" stroke-width="0.705556"/>
		<path d="M108.349,21.6135 a10 10 0 0 0 10,10" fill="none" stroke="rgb(255,0,0)" stroke-width="0.705556"/>
		<path d="M304.649,31.6135 a10 10 0 0 0 10,-10" fill="none" stroke="rgb(255,0,0)" stroke-width="0.705556"/>
		<line x1="350.649" y1="66.7635" x2="312.132" y2="28.2468" stroke="rgb(255,255,0)" stroke-width="0.705556"/>
		<line x1="72.3486" y1="66.7635" x2="110.865" y2="28.2468" stroke="rgb(255,255,0)" stroke-width="0.705556"/>
		<line x1="211.499" y1="105.878" x2="211.499" y2="78.2635" stroke="rgb(64,128,128)" stroke-width="0"/>
		<line x1="219.983" y1="87.4684" x2="219.983" y2="78.2635" stroke="rgb(64,128,128)" stroke-width="0"/>
		<line x1="215.741" y1="96.6733" x2="215.741" y2="78.2635" stroke="rgb(64,128,128)" stroke-width="0"/>
		<line x1="207.257" y1="115.083" x2="207.257" y2="78.2635" stroke="rgb(64,128,128)" stroke-width="0"/>
		<line x1="203.015" y1="124.288" x2="203.015" y2="78.2635" stroke="rgb(64,128,128)" stroke-width="0"/>
		<line x1="198.773" y1="133.493" x2="198.773" y2="78.2635" stroke="rgb(64,128,128)" stroke-width="0"/>
		<line x1="224.225" y1="78.2635" x2="198.773" y2="78.2635" stroke="rgb(64,128,128)" stroke-width="0"/>
		<line x1="198.773" y1="133.493" x2="227.047" y2="105.175" stroke="rgb(64,128,128)" stroke-width="0"/>
		<path d="M227.047,105.175 a26.6045 26.6045 0 0 1 -2.82257,-26.9118" fill="none" stroke="rgb(64,128,128)" stroke-width="0"/>
		<line x1="224.225" y1="78.2635" x2="198.773" y2="133.493" stroke="rgb(64,128,128)" stroke-width="0"/>
	</g>
</svg>