<svg version = "1.1" xmlns = "http://www.w3.org/2000/svg" xmlns:xlink="http://www.w3.org/1999/xlink" width="423.306" height="343.306" viewbox = "0 0 423.306 343.306">
	<g transform="translate(0.183262,343.508) scale(1,-1) ">
		<line x1="72.3195" y1="272.505" x2="72.3195" y2="343.155" stroke="rgb(255,0,0)" stroke-width="0.705556"/>
		<line x1="72.3195" y1="343.155" x2="93.3195" y2="343.155" stroke="rgb(255,0,0)" stroke-width="0.705556"/>
		<line x1="329.62" y1="343.155" x2="350.62" y2="343.155" stroke="rgb(255,0,0)" stroke-width="0.705556"/>
		<line x1="350.62" y1="343.155" x2="350.62" y2="272.505" stroke="rgb(255,0,0)" stroke-width="0.705556"/>
		<line x1="422.77" y1="271.205" x2="422.77" y2="248.705" stroke="rgb(255,0,0)" stroke-width="0.705556"/>
		<line x1="422.77" y1="95.0052" x2="422.77" y2="72.5052" stroke="rgb(255,0,0)" stroke-width="0.705556"/>
		<line x1="350.62" y1="71.2052" x2="350.62" y2="0.555232" stroke="rgb(255,0,0)" stroke-width="0.705556"/>
		<line x1="350.62" y1="0.555232" x2="329.62" y2="0.555232" stroke="rgb(255,0,0)" stroke-width="0.705556"/>
		<line x1="93.3195" y1="0.555232" x2="72.3195" y2="0.555232" stroke="rgb(255,0,0)" stroke-width="0.705556"/>
		<line x1="72.3195" y1="0.555232" x2="72.3195" y2="71.2052" stroke="rgb(255,0,0)" stroke-width="0.705556"/>
		<line x1="0.169516" y1="271.205" x2="0.169516" y2="248.705" stroke="rgb(255,0,0)" stroke-width="0.705556"/>
		<line x1="0.169516" y1="95.0052" x2="0.169516" y2="72.5052" stroke="rgb(255,0,0)" stroke-width="0.705556"/>
		<line x1="350.62" y1="272.505" x2="72.3195" y2="272.505" stroke="rgb(255,255,0)" stroke-width="0.705556"/>
		<line x1="70.8195" y1="271.205" x2="70.8195" y2="72.5052" stroke="rgb(255,255,0)" stroke-width="0.705556"/>
		<line x1="72.3195" y1="71.2052" x2="350.62" y2="71.2052" stroke="rgb(255,255,0)" stroke-width="0.705556"/>
		<line x1="352.12" y1="72.5052" x2="352.12" y2="271.205" stroke="rgb(255,255,0)" stroke-width="0.705556"/>
		<line x1="70.8195" y1="271.205" x2="72.3195" y2="271.205" stroke="rgb(255,0,0)" stroke-width="0.705556"/>
		<line x1="72.3195" y1="271.205" x2="72.3195" y2="272.505" stroke="rgb(255,0,0)" stroke-width="0.705556"/>
		<line x1="350.62" y1="272.505" x2="350.62" y2="271.205" stroke="rgb(255,0,0)" stroke-width="0.705556"/>
		<line x1="350.62" y1="271.205" x2="352.12" y2="271.205" stroke="rgb(255,0,0)" stroke-width="0.705556"/>
		<line x1="350.62" y1="71.2052" x2="350.62" y2="72.5052" stroke="rgb(255,0,0)" stroke-width="0.705556"/>
		<line x1="350.62" y1="72.5052" x2="352.12" y2="72.5052" stroke="rgb(255,0,0)" stroke-width="0.705556"/>
		<line x1="70.8195" y1="72.5052" x2="72.3195" y2="72.5052" stroke="rgb(255,0,0)" stroke-width="0.705556"/>
		<line x1="72.3195" y1="72.5052" x2="72.3195" y2="71.2052" stroke="rgb(255,0,0)" stroke-width="0.705556"/>
		<line x1="93.3195" y1="343.155" x2="100.32" y2="322.155" stroke="rgb(255,0,0)" stroke-width="0.705556"/>
		<line x1="100.32" y1="322.155" x2="322.62" y2="322.155" stroke="rgb(255,0,0)" stroke-width="0.705556"/>
		<line x1="322.62" y1="322.155" x2="329.62" y2="343.155" stroke="rgb(255,0,0)" stroke-width="0.705556"/>
		<line x1="72.3195" y1="274.005" x2="120.47" y2="322.155" stroke="rgb(255,255,0)" stroke-width="0.705556"/>
		<line x1="350.62" y1="274.005" x2="302.47" y2="322.155" stroke="rgb(255,255,0)" stroke-width="0.705556"/>
		<line x1="93.3195" y1="0.555232" x2="100.32" y2="21.5552" stroke="rgb(255,0,0)" stroke-width="0.705556"/>
		<line x1="100.32" y1="21.5552" x2="322.62" y2="21.5552" stroke="rgb(255,0,0)" stroke-width="0.705556"/>
		<line x1="322.62" y1="21.5552" x2="329.62" y2="0.555232" stroke="rgb(255,0,0)" stroke-width="0.705556"/>
		<line x1="72.3195" y1="69.7052" x2="120.47" y2="21.5552" stroke="rgb(255,255,0)" stroke-width="0.705556"/>
		<line x1="350.62" y1="69.7052" x2="302.47" y2="21.5552" stroke="rgb(255,255,0)" stroke-width="0.705556"/>
		<line x1="422.77" y1="95.0052" x2="402.42" y2="102.005" stroke="rgb(255,0,0)" stroke-width="0.705556"/>
		<line x1="402.42" y1="102.005" x2="402.42" y2="241.705" stroke="rgb(255,0,0)" stroke-width="0.705556"/>
		<line x1="402.42" y1="241.705" x2="422.77" y2="248.705" stroke="rgb(255,0,0)" stroke-width="0.705556"/>
		<line x1="0.169516" y1="248.705" x2="20.5195" y2="241.705" stroke="rgb(255,0,0)" stroke-width="0.705556"/>
		<line x1="20.5195" y1="241.705" x2="20.5195" y2="102.005" stroke="rgb(255,0,0)" stroke-width="0.705556"/>
		<line x1="20.5195" y1="102.005" x2="0.169516" y2="95.0052" stroke="rgb(255,0,0)" stroke-width="0.705556"/>
		<line x1="352.12" y1="271.205" x2="353.62" y2="271.205" stroke="rgb(255,0,0)" stroke-width="0.705556"/>
		<line x1="353.62" y1="271.205" x2="353.62" y2="322.823" stroke="rgb(255,0,0)" stroke-width="0.705556"/>
		<line x1="422.77" y1="271.205" x2="422.77" y2="271.205" stroke="rgb(255,0,0)" stroke-width="0.705556"/>
		<line x1="353.62" y1="271.205" x2="422.77" y2="271.205" stroke="rgb(255,255,0)" stroke-width="0.705556"/>
		<line x1="353.62" y1="292.855" x2="417.52" y2="292.855" stroke="rgb(255,255,0)" stroke-width="0.705556"/>
		<path d="M422.77,287.605 a5.25 5.25 0 0 0 0,10.5" fill="none" stroke="rgb(255,0,0)" stroke-width="0.705556"/>
		<line x1="422.77" y1="322.823" x2="422.77" y2="298.105" stroke="rgb(255,0,0)" stroke-width="0.705556"/>
		<line x1="422.77" y1="287.605" x2="422.77" y2="271.205" stroke="rgb(255,0,0)" stroke-width="0.705556"/>
		<line x1="353.62" y1="322.823" x2="373.77" y2="322.823" stroke="rgb(255,0,0)" stroke-width="0.705556"/>
		<line x1="401.77" y1="322.823" x2="422.77" y2="322.823" stroke="rgb(255,0,0)" stroke-width="0.705556"/>
		<line x1="70.8195" y1="72.5052" x2="69.3195" y2="72.5052" stroke="rgb(255,0,0)" stroke-width="0.705556"/>
		<line x1="69.3195" y1="72.5052" x2="69.3195" y2="20.8875" stroke="rgb(255,0,0)" stroke-width="0.705556"/>
		<line x1="0.169516" y1="72.5052" x2="0.169516" y2="72.5052" stroke="rgb(255,0,0)" stroke-width="0.705556"/>
		<line x1="69.3195" y1="72.5052" x2="0.169516" y2="72.5052" stroke="rgb(255,255,0)" stroke-width="0.705556"/>
		<line x1="69.3195" y1="50.8552" x2="5.41952" y2="50.8552" stroke="rgb(255,255,0)" stroke-width="0.705556"/>
		<path d="M0.169516,56.1052 a5.25 5.25 0 0 0 0,-10.5" fill="none" stroke="rgb(255,0,0)" stroke-width="0.705556"/>
		<line x1="0.169516" y1="20.8875" x2="0.169516" y2="45.6052" stroke="rgb(255,0,0)" stroke-width="0.705556"/>
		<line x1="0.169516" y1="56.1052" x2="0.169516" y2="72.5052" stroke="rgb(255,0,0)" stroke-width="0.705556"/>
		<line x1="69.3195" y1="20.8875" x2="49.1695" y2="20.8875" stroke="rgb(255,0,0)" stroke-width="0.705556"/>
		<line x1="21.1695" y1="20.8875" x2="0.169516" y2="20.8875" stroke="rgb(255,0,0)" stroke-width="0.705556"/>
		<line x1="352.12" y1="72.5052" x2="353.62" y2="72.5052" stroke="rgb(255,0,0)" stroke-width="0.705556"/>
		<line x1="353.62" y1="72.5052" x2="353.62" y2="20.8875" stroke="rgb(255,0,0)" stroke-width="0.705556"/>
		<line x1="422.77" y1="72.5052" x2="422.77" y2="72.5052" stroke="rgb(255,0,0)" stroke-width="0.705556"/>
		<line x1="353.62" y1="72.5052" x2="422.77" y2="72.5052" stroke="rgb(255,255,0)" stroke-width="0.705556"/>
		<line x1="353.62" y1="50.8552" x2="417.52" y2="50.8552" stroke="rgb(255,255,0)" stroke-width="0.705556"/>
		<path d="M422.77,56.1052 a5.25 5.25 0 0 1 0,-10.5" fill="none" stroke="rgb(255,0,0)" stroke-width="0.705556"/>
		<line x1="422.77" y1="20.8875" x2="422.77" y2="45.6052" stroke="rgb(255,0,0)" stroke-width="0.705556"/>
		<line x1="422.77" y1="56.1052" x2="422.77" y2="72.5052" stroke="rgb(255,0,0)" stroke-width="0.705556"/>
		<line x1="353.62" y1="20.8875" x2="373.77" y2="20.8875" stroke="rgb(255,0,0)" stroke-width="0.705556"/>
		<line x1="401.77" y1="20.8875" x2="422.77" y2="20.8875" stroke="rgb(255,0,0)" stroke-width="0.705556"/>
		<line x1="70.8195" y1="271.205" x2="69.3195" y2="271.205" stroke="rgb(255,0,0)" stroke-width="0.705556"/>
		<line x1="69.3195" y1="271.205" x2="69.3195" y2="322.823" stroke="rgb(255,0,0)" stroke-width="0.705556"/>
		<line x1="0.169516" y1="271.205" x2="0.169516" y2="271.205" stroke="rgb(255,0,0)" stroke-width="0.705556"/>
		<line x1="69.3195" y1="271.205" x2="0.169516" y2="271.205" stroke="rgb(255,255,0)" stroke-width="0.705556"/>
		<line x1="69.3195" y1="292.855" x2="5.41952" y2="292.855" stroke="rgb(255,255,0)" stroke-width="0.705556"/>
		<path d="M0.169516,287.605 a5.25 5.25 0 0 1 0,10.5" fill="none" stroke="rgb(255,0,0)" stroke-width="0.705556"/>
		<line x1="0.169516" y1="322.823" x2="0.169516" y2="298.105" stroke="rgb(255,0,0)" stroke-width="0.705556"/>
		<line x1="0.169516" y1="287.605" x2="0.169516" y2="271.205" stroke="rgb(255,0,0)" stroke-width="0.705556"/>
		<line x1="69.3195" y1="322.823" x2="49.1695" y2="322.823" stroke="rgb(255,0,0)" stroke-width="0.705556"/>
		<line x1="21.1695" y1="322.823" x2="0.169516" y2="322.823" stroke="rgb(255,0,0)" stroke-width="0.705556"/>
		<line x1="401.77" y1="322.823" x2="400.77" y2="324.773" stroke="rgb(255,0,0)" stroke-width="0.705556"/>
		<line x1="400.77" y1="324.773" x2="374.77" y2="324.773" stroke="rgb(255,0,0)" stroke-width="0.705556"/>
		<line x1="374.77" y1="324.773" x2="373.77" y2="322.823" stroke="rgb(255,0,0)" stroke-width="0.705556"/>
		<line x1="21.1695" y1="20.8875" x2="22.1695" y2="18.9375" stroke="rgb(255,0,0)" stroke-width="0.705556"/>
		<line x1="22.1695" y1="18.9375" x2="48.1695" y2="18.9375" stroke="rgb(255,0,0)" stroke-width="0.705556"/>
		<line x1="48.1695" y1="18.9375" x2="49.1695" y2="20.8875" stroke="rgb(255,0,0)" stroke-width="0.705556"/>
		<line x1="401.77" y1="20.8875" x2="400.77" y2="18.9375" stroke="rgb(255,0,0)" stroke-width="0.705556"/>
		<line x1="400.77" y1="18.9375" x2="374.77" y2="18.9375" stroke="rgb(255,0,0)" stroke-width="0.705556"/>
		<line x1="374.77" y1="18.9375" x2="373.77" y2="20.8875" stroke="rgb(255,0,0)" stroke-width="0.705556"/>
		<line x1="21.1695" y1="322.823" x2="22.1695" y2="324.773" stroke="rgb(255,0,0)" stroke-width="0.705556"/>
		<line x1="22.1695" y1="324.773" x2="48.1695" y2="324.773" stroke="rgb(255,0,0)" stroke-width="0.705556"/>
		<line x1="48.1695" y1="324.773" x2="49.1695" y2="322.823" stroke="rgb(255,0,0)" stroke-width="0.705556"/>
		<line x1="49.1695" y1="93.5052" x2="49.1695" y2="94.8052" stroke="rgb(255,0,0)" stroke-width="0.705556"/>
		<line x1="49.1695" y1="94.8052" x2="21.1695" y2="94.8052" stroke="rgb(255,0,0)" stroke-width="0.705556"/>
		<line x1="21.1695" y1="94.8052" x2="21.1695" y2="93.5052" stroke="rgb(255,0,0)" stroke-width="0.705556"/>
		<line x1="21.1695" y1="93.5052" x2="49.1695" y2="93.5052" stroke="rgb(255,0,0)" stroke-width="0.705556"/>
		<line x1="49.1695" y1="250.205" x2="49.1695" y2="248.905" stroke="rgb(255,0,0)" stroke-width="0.705556"/>
		<line x1="49.1695" y1="248.905" x2="21.1695" y2="248.905" stroke="rgb(255,0,0)" stroke-width="0.705556"/>
		<line x1="21.1695" y1="248.905" x2="21.1695" y2="250.205" stroke="rgb(255,0,0)" stroke-width="0.705556"/>
		<line x1="21.1695" y1="250.205" x2="49.1695" y2="250.205" stroke="rgb(255,0,0)" stroke-width="0.705556"/>
		<line x1="373.77" y1="250.205" x2="373.77" y2="248.905" stroke="rgb(255,0,0)" stroke-width="0.705556"/>
		<line x1="373.77" y1="248.905" x2="401.77" y2="248.905" stroke="rgb(255,0,0)" stroke-width="0.705556"/>
		<line x1="401.77" y1="248.905" x2="401.77" y2="250.205" stroke="rgb(255,0,0)" stroke-width="0.705556"/>
		<line x1="401.77" y1="250.205" x2="373.77" y2="250.205" stroke="rgb(255,0,0)" stroke-width="0.705556"/>
		<line x1="373.77" y1="93.5052" x2="373.77" y2="94.8052" stroke="rgb(255,0,0)" stroke-width="0.705556"/>
		<line x1="373.77" y1="94.8052" x2="401.77" y2="94.8052" stroke="rgb(255,0,0)" stroke-width="0.705556"/>
		<line x1="401.77" y1="94.8052" x2="401.77" y2="93.5052" stroke="rgb(255,0,0)" stroke-width="0.705556"/>
		<line x1="401.77" y1="93.5052" x2="373.77" y2="93.5052" stroke="rgb(255,0,0)" stroke-width="0.705556"/>
		<circle cx="137.811" cy="171.855" r="6.66667" fill="none" stroke="rgb(255,0,0)" stroke-width="0.705556"/>
		<circle cx="285.128" cy="171.855" r="6.66667" fill="none" stroke="rgb(255,0,0)" stroke-width="0.705556"/>
		<circle cx="211.47" cy="171.855" r="6.66667" fill="none" stroke="rgb(255,0,0)" stroke-width="0.705556"/>
		<line x1="211.47" y1="123.82" x2="211.47" y2="96.2052" stroke="rgb(64,128,128)" stroke-width="0"/>
		<line x1="219.954" y1="105.41" x2="219.954" y2="96.2052" stroke="rgb(64,128,128)" stroke-width="0"/>
		<line x1="215.712" y1="114.615" x2="215.712" y2="96.2052" stroke="rgb(64,128,128)" stroke-width="0"/>
		<line x1="207.228" y1="133.025" x2="207.228" y2="96.2052" stroke="rgb(64,128,128)" stroke-width="0"/>
		<line x1="202.986" y1="142.23" x2="202.986" y2="96.2052" stroke="rgb(64,128,128)" stroke-width="0"/>
		<line x1="198.744" y1="151.435" x2="198.744" y2="96.2052" stroke="rgb(64,128,128)" stroke-width="0"/>
		<line x1="224.196" y1="96.2052" x2="198.744" y2="96.2052" stroke="rgb(64,128,128)" stroke-width="0"/>
		<line x1="198.744" y1="151.435" x2="227.018" y2="123.117" stroke="rgb(64,128,128)" stroke-width="0"/>
		<path d="M227.018,123.117 a26.6045 26.6045 0 0 1 -2.82257,-26.9118" fill="none" stroke="rgb(64,128,128)" stroke-width="0"/>
		<line x1="224.196" y1="96.2052" x2="198.744" y2="151.435" stroke="rgb(64,128,128)" stroke-width="0"/>
	</g>
</svg>