<svg version = "1.1" xmlns = "http://www.w3.org/2000/svg" xmlns:xlink="http://www.w3.org/1999/xlink" width="488.506" height="327.006" viewbox = "0 0 488.506 327.006">
	<g transform="translate(-29.0372,359.253) scale(1,-1) ">
		<line x1="415.24" y1="296.4" x2="415.24" y2="295.75" stroke="rgb(255,0,0)" stroke-width="0.705556"/>
		<line x1="415.24" y1="295.75" x2="444.04" y2="295.75" stroke="rgb(255,0,0)" stroke-width="0.705556"/>
		<line x1="456.54" y1="295.75" x2="466.54" y2="295.75" stroke="rgb(255,0,0)" stroke-width="0.705556"/>
		<line x1="466.54" y1="95.7502" x2="456.54" y2="95.7502" stroke="rgb(255,0,0)" stroke-width="0.705556"/>
		<line x1="444.04" y1="95.7502" x2="415.24" y2="95.7502" stroke="rgb(255,0,0)" stroke-width="0.705556"/>
		<line x1="415.24" y1="95.7502" x2="415.24" y2="95.1002" stroke="rgb(255,0,0)" stroke-width="0.705556"/>
		<line x1="415.24" y1="295.75" x2="415.24" y2="95.7502" stroke="rgb(255,255,0)" stroke-width="0.705556"/>
		<line x1="131.34" y1="95.1002" x2="131.34" y2="95.7502" stroke="rgb(255,0,0)" stroke-width="0.705556"/>
		<line x1="131.34" y1="95.7502" x2="102.54" y2="95.7502" stroke="rgb(255,0,0)" stroke-width="0.705556"/>
		<line x1="90.0399" y1="95.7502" x2="80.0399" y2="95.7502" stroke="rgb(255,0,0)" stroke-width="0.705556"/>
		<line x1="80.0399" y1="295.75" x2="90.0399" y2="295.75" stroke="rgb(255,0,0)" stroke-width="0.705556"/>
		<line x1="102.54" y1="295.75" x2="131.34" y2="295.75" stroke="rgb(255,0,0)" stroke-width="0.705556"/>
		<line x1="131.34" y1="295.75" x2="131.34" y2="296.4" stroke="rgb(255,0,0)" stroke-width="0.705556"/>
		<line x1="131.34" y1="95.7502" x2="131.34" y2="295.75" stroke="rgb(255,255,0)" stroke-width="0.705556"/>
		<line x1="466.54" y1="295.75" x2="476.54" y2="295.75" stroke="rgb(255,0,0)" stroke-width="0.705556"/>
		<line x1="489.04" y1="295.75" x2="517.19" y2="295.75" stroke="rgb(255,0,0)" stroke-width="0.705556"/>
		<line x1="517.19" y1="295.75" x2="517.19" y2="95.7502" stroke="rgb(255,0,0)" stroke-width="0.705556"/>
		<line x1="517.19" y1="95.7502" x2="489.04" y2="95.7502" stroke="rgb(255,0,0)" stroke-width="0.705556"/>
		<line x1="476.54" y1="95.7502" x2="466.54" y2="95.7502" stroke="rgb(255,0,0)" stroke-width="0.705556"/>
		<line x1="466.54" y1="95.7502" x2="466.54" y2="295.75" stroke="rgb(255,255,0)" stroke-width="0.705556"/>
		<line x1="80.0399" y1="95.7502" x2="70.0399" y2="95.7502" stroke="rgb(255,0,0)" stroke-width="0.705556"/>
		<line x1="57.5399" y1="95.7502" x2="29.3899" y2="95.7502" stroke="rgb(255,0,0)" stroke-width="0.705556"/>
		<line x1="29.3899" y1="95.7502" x2="29.3899" y2="295.75" stroke="rgb(255,0,0)" stroke-width="0.705556"/>
		<line x1="29.3899" y1="295.75" x2="57.5399" y2="295.75" stroke="rgb(255,0,0)" stroke-width="0.705556"/>
		<line x1="70.0399" y1="295.75" x2="80.0399" y2="295.75" stroke="rgb(255,0,0)" stroke-width="0.705556"/>
		<line x1="80.0399" y1="295.75" x2="80.0399" y2="95.7502" stroke="rgb(255,255,0)" stroke-width="0.705556"/>
		<line x1="131.34" y1="296.4" x2="128.09" y2="300.7" stroke="rgb(255,0,0)" stroke-width="0.705556"/>
		<line x1="128.09" y1="358.9" x2="203.29" y2="358.9" stroke="rgb(255,0,0)" stroke-width="0.705556"/>
		<line x1="343.29" y1="358.9" x2="418.49" y2="358.9" stroke="rgb(255,0,0)" stroke-width="0.705556"/>
		<line x1="418.49" y1="300.7" x2="415.24" y2="296.4" stroke="rgb(255,0,0)" stroke-width="0.705556"/>
		<line x1="415.24" y1="296.4" x2="391.456" y2="296.4" stroke="rgb(255,255,0)" stroke-width="0.705556"/>
		<line x1="363.456" y1="296.4" x2="183.124" y2="296.4" stroke="rgb(255,255,0)" stroke-width="0.705556"/>
		<line x1="155.124" y1="296.4" x2="131.34" y2="296.4" stroke="rgb(255,255,0)" stroke-width="0.705556"/>
		<line x1="415.24" y1="95.1002" x2="418.49" y2="90.8002" stroke="rgb(255,0,0)" stroke-width="0.705556"/>
		<line x1="418.49" y1="32.6002" x2="343.29" y2="32.6002" stroke="rgb(255,0,0)" stroke-width="0.705556"/>
		<line x1="203.29" y1="32.6002" x2="128.09" y2="32.6002" stroke="rgb(255,0,0)" stroke-width="0.705556"/>
		<line x1="128.09" y1="90.8002" x2="131.34" y2="95.1002" stroke="rgb(255,0,0)" stroke-width="0.705556"/>
		<line x1="131.34" y1="95.1002" x2="155.124" y2="95.1002" stroke="rgb(255,255,0)" stroke-width="0.705556"/>
		<line x1="183.124" y1="95.1002" x2="363.456" y2="95.1002" stroke="rgb(255,255,0)" stroke-width="0.705556"/>
		<line x1="391.456" y1="95.1002" x2="415.24" y2="95.1002" stroke="rgb(255,255,0)" stroke-width="0.705556"/>
		<line x1="444.04" y1="295.75" x2="445.04" y2="297.7" stroke="rgb(255,0,0)" stroke-width="0.705556"/>
		<line x1="445.04" y1="297.7" x2="455.54" y2="297.7" stroke="rgb(255,0,0)" stroke-width="0.705556"/>
		<line x1="455.54" y1="297.7" x2="456.54" y2="295.75" stroke="rgb(255,0,0)" stroke-width="0.705556"/>
		<line x1="489.04" y1="295.75" x2="488.04" y2="297.7" stroke="rgb(255,0,0)" stroke-width="0.705556"/>
		<line x1="488.04" y1="297.7" x2="477.54" y2="297.7" stroke="rgb(255,0,0)" stroke-width="0.705556"/>
		<line x1="477.54" y1="297.7" x2="476.54" y2="295.75" stroke="rgb(255,0,0)" stroke-width="0.705556"/>
		<line x1="444.04" y1="95.7502" x2="445.04" y2="93.8002" stroke="rgb(255,0,0)" stroke-width="0.705556"/>
		<line x1="445.04" y1="93.8002" x2="455.54" y2="93.8002" stroke="rgb(255,0,0)" stroke-width="0.705556"/>
		<line x1="455.54" y1="93.8002" x2="456.54" y2="95.7502" stroke="rgb(255,0,0)" stroke-width="0.705556"/>
		<line x1="489.04" y1="95.7502" x2="488.04" y2="93.8002" stroke="rgb(255,0,0)" stroke-width="0.705556"/>
		<line x1="488.04" y1="93.8002" x2="477.54" y2="93.8002" stroke="rgb(255,0,0)" stroke-width="0.705556"/>
		<line x1="477.54" y1="93.8002" x2="476.54" y2="95.7502" stroke="rgb(255,0,0)" stroke-width="0.705556"/>
		<line x1="102.54" y1="295.75" x2="101.54" y2="297.7" stroke="rgb(255,0,0)" stroke-width="0.705556"/>
		<line x1="101.54" y1="297.7" x2="91.0399" y2="297.7" stroke="rgb(255,0,0)" stroke-width="0.705556"/>
		<line x1="91.0399" y1="297.7" x2="90.0399" y2="295.75" stroke="rgb(255,0,0)" stroke-width="0.705556"/>
		<line x1="57.5399" y1="295.75" x2="58.5399" y2="297.7" stroke="rgb(255,0,0)" stroke-width="0.705556"/>
		<line x1="58.5399" y1="297.7" x2="69.0399" y2="297.7" stroke="rgb(255,0,0)" stroke-width="0.705556"/>
		<line x1="69.0399" y1="297.7" x2="70.0399" y2="295.75" stroke="rgb(255,0,0)" stroke-width="0.705556"/>
		<line x1="102.54" y1="95.7502" x2="101.54" y2="93.8002" stroke="rgb(255,0,0)" stroke-width="0.705556"/>
		<line x1="101.54" y1="93.8002" x2="91.0399" y2="93.8002" stroke="rgb(255,0,0)" stroke-width="0.705556"/>
		<line x1="91.0399" y1="93.8002" x2="90.0399" y2="95.7502" stroke="rgb(255,0,0)" stroke-width="0.705556"/>
		<line x1="57.5399" y1="95.7502" x2="58.5399" y2="93.8002" stroke="rgb(255,0,0)" stroke-width="0.705556"/>
		<line x1="58.5399" y1="93.8002" x2="69.0399" y2="93.8002" stroke="rgb(255,0,0)" stroke-width="0.705556"/>
		<line x1="69.0399" y1="93.8002" x2="70.0399" y2="95.7502" stroke="rgb(255,0,0)" stroke-width="0.705556"/>
		<line x1="343.29" y1="358.9" x2="341.003" y2="351.276" stroke="rgb(255,0,0)" stroke-width="0.705556"/>
		<line x1="337.81" y1="348.9" x2="208.77" y2="348.9" stroke="rgb(255,0,0)" stroke-width="0.705556"/>
		<line x1="205.577" y1="351.276" x2="203.29" y2="358.9" stroke="rgb(255,0,0)" stroke-width="0.705556"/>
		<path d="M341.003,351.276 a3.33333 3.33333 0 0 0 -3.19275,-2.37551" fill="none" stroke="rgb(255,0,0)" stroke-width="0.705556"/>
		<path d="M208.77,348.9 a3.33333 3.33333 0 0 0 -3.19275,2.37551" fill="none" stroke="rgb(255,0,0)" stroke-width="0.705556"/>
		<line x1="203.29" y1="32.6002" x2="205.577" y2="40.2247" stroke="rgb(255,0,0)" stroke-width="0.705556"/>
		<line x1="208.77" y1="42.6002" x2="337.81" y2="42.6002" stroke="rgb(255,0,0)" stroke-width="0.705556"/>
		<line x1="341.003" y1="40.2247" x2="343.29" y2="32.6002" stroke="rgb(255,0,0)" stroke-width="0.705556"/>
		<path d="M205.577,40.2247 a3.33333 3.33333 0 0 0 3.19275,2.37551" fill="none" stroke="rgb(255,0,0)" stroke-width="0.705556"/>
		<path d="M337.81,42.6002 a3.33333 3.33333 0 0 0 3.19275,-2.37551" fill="none" stroke="rgb(255,0,0)" stroke-width="0.705556"/>
		<line x1="418.49" y1="358.9" x2="428.752" y2="358.9" stroke="rgb(255,0,0)" stroke-width="0.705556"/>
		<line x1="128.09" y1="358.9" x2="117.828" y2="358.9" stroke="rgb(255,0,0)" stroke-width="0.705556"/>
		<line x1="418.49" y1="32.6002" x2="428.752" y2="32.6002" stroke="rgb(255,0,0)" stroke-width="0.705556"/>
		<line x1="128.09" y1="32.6002" x2="117.828" y2="32.6002" stroke="rgb(255,0,0)" stroke-width="0.705556"/>
		<line x1="124.582" y1="326.212" x2="123.088" y2="334.682" stroke="rgb(255,0,0)" stroke-width="0.705556"/>
		<line x1="124.67" y1="336.941" x2="124.67" y2="336.941" stroke="rgb(255,0,0)" stroke-width="0.705556"/>
		<line x1="126.929" y1="335.359" x2="128.422" y2="326.889" stroke="rgb(255,0,0)" stroke-width="0.705556"/>
		<line x1="126.841" y1="324.63" x2="126.841" y2="324.63" stroke="rgb(255,0,0)" stroke-width="0.705556"/>
		<path d="M128.422,326.889 a1.95 1.95 0 0 0 -1.58176,-2.25899" fill="none" stroke="rgb(255,0,0)" stroke-width="0.705556"/>
		<path d="M124.67,336.941 a1.95 1.95 0 0 0 2.25899,-1.58176" fill="none" stroke="rgb(255,0,0)" stroke-width="0.705556"/>
		<path d="M123.088,334.682 a1.95 1.95 0 0 0 1.58176,2.25899" fill="none" stroke="rgb(255,0,0)" stroke-width="0.705556"/>
		<path d="M124.582,326.212 a1.95 1.95 0 0 1 2.25899,-1.58176" fill="none" stroke="rgb(255,0,0)" stroke-width="0.705556"/>
		<line x1="421.998" y1="326.212" x2="423.492" y2="334.682" stroke="rgb(255,0,0)" stroke-width="0.705556"/>
		<line x1="421.91" y1="336.941" x2="421.91" y2="336.941" stroke="rgb(255,0,0)" stroke-width="0.705556"/>
		<line x1="419.651" y1="335.359" x2="418.158" y2="326.889" stroke="rgb(255,0,0)" stroke-width="0.705556"/>
		<line x1="419.739" y1="324.63" x2="419.739" y2="324.63" stroke="rgb(255,0,0)" stroke-width="0.705556"/>
		<path d="M418.158,326.889 a1.95 1.95 0 0 1 1.58176,-2.25899" fill="none" stroke="rgb(255,0,0)" stroke-width="0.705556"/>
		<path d="M421.91,336.941 a1.95 1.95 0 0 1 -2.25899,-1.58176" fill="none" stroke="rgb(255,0,0)" stroke-width="0.705556"/>
		<path d="M423.492,334.682 a1.95 1.95 0 0 1 -1.58176,2.25899" fill="none" stroke="rgb(255,0,0)" stroke-width="0.705556"/>
		<path d="M421.998,326.212 a1.95 1.95 0 0 0 -2.25899,-1.58176" fill="none" stroke="rgb(255,0,0)" stroke-width="0.705556"/>
		<line x1="421.998" y1="65.2882" x2="423.492" y2="56.8188" stroke="rgb(255,0,0)" stroke-width="0.705556"/>
		<line x1="421.91" y1="54.5599" x2="421.91" y2="54.5599" stroke="rgb(255,0,0)" stroke-width="0.705556"/>
		<line x1="419.651" y1="56.1416" x2="418.158" y2="64.611" stroke="rgb(255,0,0)" stroke-width="0.705556"/>
		<line x1="419.739" y1="66.87" x2="419.739" y2="66.87" stroke="rgb(255,0,0)" stroke-width="0.705556"/>
		<path d="M418.158,64.611 a1.95 1.95 0 0 0 1.58176,2.25899" fill="none" stroke="rgb(255,0,0)" stroke-width="0.705556"/>
		<path d="M421.91,54.5599 a1.95 1.95 0 0 0 -2.25899,1.58176" fill="none" stroke="rgb(255,0,0)" stroke-width="0.705556"/>
		<path d="M423.492,56.8188 a1.95 1.95 0 0 0 -1.58176,-2.25899" fill="none" stroke="rgb(255,0,0)" stroke-width="0.705556"/>
		<path d="M421.998,65.2882 a1.95 1.95 0 0 1 -2.25899,1.58176" fill="none" stroke="rgb(255,0,0)" stroke-width="0.705556"/>
		<line x1="124.582" y1="65.2882" x2="123.088" y2="56.8188" stroke="rgb(255,0,0)" stroke-width="0.705556"/>
		<line x1="124.67" y1="54.5599" x2="124.67" y2="54.5599" stroke="rgb(255,0,0)" stroke-width="0.705556"/>
		<line x1="126.929" y1="56.1416" x2="128.422" y2="64.611" stroke="rgb(255,0,0)" stroke-width="0.705556"/>
		<line x1="126.841" y1="66.87" x2="126.841" y2="66.87" stroke="rgb(255,0,0)" stroke-width="0.705556"/>
		<path d="M128.422,64.611 a1.95 1.95 0 0 1 -1.58176,2.25899" fill="none" stroke="rgb(255,0,0)" stroke-width="0.705556"/>
		<path d="M124.67,54.5599 a1.95 1.95 0 0 1 2.25899,1.58176" fill="none" stroke="rgb(255,0,0)" stroke-width="0.705556"/>
		<path d="M123.088,56.8188 a1.95 1.95 0 0 1 1.58176,-2.25899" fill="none" stroke="rgb(255,0,0)" stroke-width="0.705556"/>
		<path d="M124.582,65.2882 a1.95 1.95 0 0 0 2.25899,1.58176" fill="none" stroke="rgb(255,0,0)" stroke-width="0.705556"/>
		<line x1="428.752" y1="358.9" x2="428.752" y2="358.9" stroke="rgb(255,0,0)" stroke-width="0.705556"/>
		<line x1="428.752" y1="358.9" x2="458.39" y2="353.674" stroke="rgb(255,0,0)" stroke-width="0.705556"/>
		<line x1="468.257" y1="339.583" x2="461.401" y2="300.7" stroke="rgb(255,0,0)" stroke-width="0.705556"/>
		<line x1="461.401" y1="300.7" x2="418.49" y2="300.7" stroke="rgb(255,0,0)" stroke-width="0.705556"/>
		<line x1="418.49" y1="300.7" x2="418.49" y2="300.7" stroke="rgb(255,0,0)" stroke-width="0.705556"/>
		<line x1="428.752" y1="358.9" x2="418.49" y2="300.7" stroke="rgb(255,255,0)" stroke-width="0.705556"/>
		<line x1="418.49" y1="300.7" x2="468.257" y2="339.583" stroke="rgb(255,255,0)" stroke-width="0.705556"/>
		<line x1="117.828" y1="358.9" x2="117.828" y2="358.9" stroke="rgb(255,0,0)" stroke-width="0.705556"/>
		<line x1="117.828" y1="358.9" x2="88.1898" y2="353.674" stroke="rgb(255,0,0)" stroke-width="0.705556"/>
		<line x1="78.3227" y1="339.583" x2="85.1788" y2="300.7" stroke="rgb(255,0,0)" stroke-width="0.705556"/>
		<line x1="85.1788" y1="300.7" x2="128.09" y2="300.7" stroke="rgb(255,0,0)" stroke-width="0.705556"/>
		<line x1="128.09" y1="300.7" x2="128.09" y2="300.7" stroke="rgb(255,0,0)" stroke-width="0.705556"/>
		<line x1="117.828" y1="358.9" x2="128.09" y2="300.7" stroke="rgb(255,255,0)" stroke-width="0.705556"/>
		<line x1="428.752" y1="32.6002" x2="428.752" y2="32.6002" stroke="rgb(255,0,0)" stroke-width="0.705556"/>
		<line x1="428.752" y1="32.6002" x2="458.39" y2="37.8262" stroke="rgb(255,0,0)" stroke-width="0.705556"/>
		<line x1="468.257" y1="51.9178" x2="461.401" y2="90.8002" stroke="rgb(255,0,0)" stroke-width="0.705556"/>
		<line x1="461.401" y1="90.8002" x2="418.49" y2="90.8002" stroke="rgb(255,0,0)" stroke-width="0.705556"/>
		<line x1="418.49" y1="90.8002" x2="418.49" y2="90.8002" stroke="rgb(255,0,0)" stroke-width="0.705556"/>
		<line x1="428.752" y1="32.6002" x2="418.49" y2="90.8002" stroke="rgb(255,255,0)" stroke-width="0.705556"/>
		<line x1="117.828" y1="32.6002" x2="117.828" y2="32.6002" stroke="rgb(255,0,0)" stroke-width="0.705556"/>
		<line x1="117.828" y1="32.6002" x2="88.1898" y2="37.8262" stroke="rgb(255,0,0)" stroke-width="0.705556"/>
		<line x1="78.3227" y1="51.9178" x2="85.1788" y2="90.8002" stroke="rgb(255,0,0)" stroke-width="0.705556"/>
		<line x1="85.1788" y1="90.8002" x2="128.09" y2="90.8002" stroke="rgb(255,0,0)" stroke-width="0.705556"/>
		<line x1="128.09" y1="90.8002" x2="128.09" y2="90.8002" stroke="rgb(255,0,0)" stroke-width="0.705556"/>
		<line x1="117.828" y1="32.6002" x2="128.09" y2="90.8002" stroke="rgb(255,255,0)" stroke-width="0.705556"/>
		<line x1="128.09" y1="300.7" x2="78.3227" y2="339.583" stroke="rgb(255,255,0)" stroke-width="0.705556"/>
		<line x1="128.09" y1="90.8002" x2="78.3227" y2="51.9178" stroke="rgb(255,255,0)" stroke-width="0.705556"/>
		<line x1="418.49" y1="90.8002" x2="468.257" y2="51.9178" stroke="rgb(255,255,0)" stroke-width="0.705556"/>
		<path d="M458.39,353.674 a12.1642 12.1642 0 0 0 9.86708,-14.0916" fill="none" stroke="rgb(255,0,0)" stroke-width="0.705556"/>
		<path d="M78.3227,339.583 a12.1642 12.1642 0 0 0 9.86708,14.0916" fill="none" stroke="rgb(255,0,0)" stroke-width="0.705556"/>
		<path d="M88.1898,37.8262 a12.1642 12.1642 0 0 0 -9.86708,14.0916" fill="none" stroke="rgb(255,0,0)" stroke-width="0.705556"/>
		<path d="M468.257,51.9178 a12.1642 12.1642 0 0 0 -9.86708,-14.0916" fill="none" stroke="rgb(255,0,0)" stroke-width="0.705556"/>
		<circle cx="188.007" cy="138.434" r="10" fill="none" stroke="rgb(255,0,0)" stroke-width="0.705556"/>
		<circle cx="358.573" cy="138.434" r="10" fill="none" stroke="rgb(255,0,0)" stroke-width="0.705556"/>
		<circle cx="188.007" cy="253.067" r="10" fill="none" stroke="rgb(255,0,0)" stroke-width="0.705556"/>
		<circle cx="358.573" cy="253.067" r="10" fill="none" stroke="rgb(255,0,0)" stroke-width="0.705556"/>
		<circle cx="273.29" cy="228.067" r="5" fill="none" stroke="rgb(255,0,0)" stroke-width="0.705556"/>
		<circle cx="273.29" cy="163.434" r="5" fill="none" stroke="rgb(255,0,0)" stroke-width="0.705556"/>
		<path d="M155.124,296.4 a15.1667 15.1667 0 0 0 28,0" fill="none" stroke="rgb(255,0,0)" stroke-width="0.705556"/>
		<path d="M391.456,95.1002 a15.1667 15.1667 0 0 0 -28,0" fill="none" stroke="rgb(255,0,0)" stroke-width="0.705556"/>
		<path d="M155.124,95.1002 a15.1667 15.1667 0 0 1 28,0" fill="none" stroke="rgb(255,0,0)" stroke-width="0.705556"/>
		<path d="M391.456,296.4 a15.1667 15.1667 0 0 1 -28,0" fill="none" stroke="rgb(255,0,0)" stroke-width="0.705556"/>
		<line x1="155.124" y1="296.4" x2="183.124" y2="296.4" stroke="rgb(255,0,0)" stroke-width="0.705556"/>
		<line x1="363.456" y1="296.4" x2="391.456" y2="296.4" stroke="rgb(255,0,0)" stroke-width="0.705556"/>
		<line x1="363.456" y1="95.1002" x2="391.456" y2="95.1002" stroke="rgb(255,0,0)" stroke-width="0.705556"/>
		<line x1="155.124" y1="95.1002" x2="183.124" y2="95.1002" stroke="rgb(255,0,0)" stroke-width="0.705556"/>
		<line x1="279.663" y1="123.476" x2="252.048" y2="123.476" stroke="rgb(64,128,128)" stroke-width="0"/>
		<line x1="261.253" y1="131.96" x2="252.048" y2="131.96" stroke="rgb(64,128,128)" stroke-width="0"/>
		<line x1="270.458" y1="127.718" x2="252.048" y2="127.718" stroke="rgb(64,128,128)" stroke-width="0"/>
		<line x1="288.868" y1="119.234" x2="252.048" y2="119.234" stroke="rgb(64,128,128)" stroke-width="0"/>
		<line x1="298.073" y1="114.992" x2="252.048" y2="114.992" stroke="rgb(64,128,128)" stroke-width="0"/>
		<line x1="307.277" y1="110.75" x2="252.048" y2="110.75" stroke="rgb(64,128,128)" stroke-width="0"/>
		<line x1="252.048" y1="136.202" x2="252.048" y2="110.75" stroke="rgb(64,128,128)" stroke-width="0"/>
		<line x1="307.277" y1="110.75" x2="278.96" y2="139.025" stroke="rgb(64,128,128)" stroke-width="0"/>
		<path d="M278.96,139.025 a26.6045 26.6045 0 0 0 -26.9118,-2.82257" fill="none" stroke="rgb(64,128,128)" stroke-width="0"/>
		<line x1="252.048" y1="136.202" x2="307.277" y2="110.75" stroke="rgb(64,128,128)" stroke-width="0"/>
	</g>
</svg>