<svg version = "1.1" xmlns = "http://www.w3.org/2000/svg" xmlns:xlink="http://www.w3.org/1999/xlink" width="505.263" height="353.306" viewbox = "0 0 505.263 353.306">
	<g transform="translate(-41.7805,369.904) scale(1,-1) ">
		<line x1="435.062" y1="92.6009" x2="435.062" y2="293.901" stroke="rgb(255,255,0)" stroke-width="0.705556"/>
		<line x1="153.762" y1="293.901" x2="153.762" y2="92.6009" stroke="rgb(255,255,0)" stroke-width="0.705556"/>
		<line x1="496.362" y1="293.901" x2="496.362" y2="293.901" stroke="rgb(255,0,0)" stroke-width="0.705556"/>
		<line x1="435.062" y1="293.901" x2="435.062" y2="293.901" stroke="rgb(255,0,0)" stroke-width="0.705556"/>
		<line x1="435.062" y1="293.901" x2="438.962" y2="297.801" stroke="rgb(255,0,0)" stroke-width="0.705556"/>
		<line x1="496.362" y1="348.13" x2="496.362" y2="297.801" stroke="rgb(255,0,0)" stroke-width="0.705556"/>
		<line x1="438.962" y1="297.801" x2="458.723" y2="297.801" stroke="rgb(255,255,0)" stroke-width="0.705556"/>
		<line x1="478.723" y1="297.801" x2="496.362" y2="297.801" stroke="rgb(255,255,0)" stroke-width="0.705556"/>
		<line x1="92.4622" y1="92.6009" x2="92.4622" y2="92.6009" stroke="rgb(255,0,0)" stroke-width="0.705556"/>
		<line x1="153.762" y1="92.6009" x2="153.762" y2="92.6009" stroke="rgb(255,0,0)" stroke-width="0.705556"/>
		<line x1="153.762" y1="92.6009" x2="149.862" y2="88.7009" stroke="rgb(255,0,0)" stroke-width="0.705556"/>
		<line x1="92.4622" y1="38.372" x2="92.4622" y2="88.7009" stroke="rgb(255,0,0)" stroke-width="0.705556"/>
		<line x1="149.862" y1="88.7009" x2="130.102" y2="88.7009" stroke="rgb(255,255,0)" stroke-width="0.705556"/>
		<line x1="110.102" y1="88.7009" x2="92.4622" y2="88.7009" stroke="rgb(255,255,0)" stroke-width="0.705556"/>
		<line x1="496.362" y1="92.6009" x2="496.362" y2="92.6009" stroke="rgb(255,0,0)" stroke-width="0.705556"/>
		<line x1="435.062" y1="92.6009" x2="435.062" y2="92.6009" stroke="rgb(255,0,0)" stroke-width="0.705556"/>
		<line x1="435.062" y1="92.6009" x2="438.962" y2="88.7009" stroke="rgb(255,0,0)" stroke-width="0.705556"/>
		<line x1="496.362" y1="38.372" x2="496.362" y2="88.7009" stroke="rgb(255,0,0)" stroke-width="0.705556"/>
		<line x1="438.962" y1="88.7009" x2="458.723" y2="88.7009" stroke="rgb(255,255,0)" stroke-width="0.705556"/>
		<line x1="478.723" y1="88.7009" x2="496.362" y2="88.7009" stroke="rgb(255,255,0)" stroke-width="0.705556"/>
		<line x1="92.4622" y1="293.901" x2="92.4622" y2="293.901" stroke="rgb(255,0,0)" stroke-width="0.705556"/>
		<line x1="153.762" y1="293.901" x2="153.762" y2="293.901" stroke="rgb(255,0,0)" stroke-width="0.705556"/>
		<line x1="153.762" y1="293.901" x2="149.862" y2="297.801" stroke="rgb(255,0,0)" stroke-width="0.705556"/>
		<line x1="92.4622" y1="348.13" x2="92.4622" y2="297.801" stroke="rgb(255,0,0)" stroke-width="0.705556"/>
		<line x1="149.862" y1="297.801" x2="130.102" y2="297.801" stroke="rgb(255,255,0)" stroke-width="0.705556"/>
		<line x1="110.102" y1="297.801" x2="92.4622" y2="297.801" stroke="rgb(255,255,0)" stroke-width="0.705556"/>
		<line x1="153.762" y1="293.901" x2="435.062" y2="293.901" stroke="rgb(255,255,0)" stroke-width="0.705556"/>
		<line x1="435.062" y1="293.901" x2="424.368" y2="354.551" stroke="rgb(255,0,0)" stroke-width="0.705556"/>
		<line x1="164.456" y1="354.551" x2="153.762" y2="293.901" stroke="rgb(255,0,0)" stroke-width="0.705556"/>
		<line x1="435.062" y1="92.6009" x2="153.762" y2="92.6009" stroke="rgb(255,255,0)" stroke-width="0.705556"/>
		<line x1="153.762" y1="92.6009" x2="164.456" y2="31.9509" stroke="rgb(255,0,0)" stroke-width="0.705556"/>
		<line x1="424.368" y1="31.9509" x2="435.062" y2="92.6009" stroke="rgb(255,0,0)" stroke-width="0.705556"/>
		<line x1="438.962" y1="297.801" x2="441.084" y2="299.922" stroke="rgb(255,0,0)" stroke-width="0.705556"/>
		<line x1="441.084" y1="299.922" x2="438.785" y2="302.22" stroke="rgb(255,0,0)" stroke-width="0.705556"/>
		<line x1="496.362" y1="355.201" x2="496.362" y2="355.201" stroke="rgb(255,0,0)" stroke-width="0.705556"/>
		<line x1="441.084" y1="299.922" x2="459.51" y2="318.348" stroke="rgb(255,255,0)" stroke-width="0.705556"/>
		<line x1="477.936" y1="336.775" x2="492.827" y2="351.665" stroke="rgb(255,255,0)" stroke-width="0.705556"/>
		<line x1="149.862" y1="297.801" x2="147.741" y2="299.922" stroke="rgb(255,0,0)" stroke-width="0.705556"/>
		<line x1="147.741" y1="299.922" x2="150.039" y2="302.22" stroke="rgb(255,0,0)" stroke-width="0.705556"/>
		<line x1="92.4622" y1="355.201" x2="92.4622" y2="355.201" stroke="rgb(255,0,0)" stroke-width="0.705556"/>
		<line x1="147.741" y1="299.922" x2="129.315" y2="318.348" stroke="rgb(255,255,0)" stroke-width="0.705556"/>
		<line x1="110.888" y1="336.775" x2="95.9978" y2="351.665" stroke="rgb(255,255,0)" stroke-width="0.705556"/>
		<line x1="438.962" y1="88.7009" x2="441.084" y2="86.5796" stroke="rgb(255,0,0)" stroke-width="0.705556"/>
		<line x1="441.084" y1="86.5796" x2="438.785" y2="84.2815" stroke="rgb(255,0,0)" stroke-width="0.705556"/>
		<line x1="496.362" y1="31.3009" x2="496.362" y2="31.3009" stroke="rgb(255,0,0)" stroke-width="0.705556"/>
		<line x1="441.084" y1="86.5796" x2="459.51" y2="68.1534" stroke="rgb(255,255,0)" stroke-width="0.705556"/>
		<line x1="477.936" y1="49.7271" x2="492.827" y2="34.8364" stroke="rgb(255,255,0)" stroke-width="0.705556"/>
		<line x1="149.862" y1="88.7009" x2="147.741" y2="86.5796" stroke="rgb(255,0,0)" stroke-width="0.705556"/>
		<line x1="147.741" y1="86.5796" x2="150.039" y2="84.2815" stroke="rgb(255,0,0)" stroke-width="0.705556"/>
		<line x1="92.4622" y1="31.3009" x2="92.4622" y2="31.3009" stroke="rgb(255,0,0)" stroke-width="0.705556"/>
		<line x1="147.741" y1="86.5796" x2="129.315" y2="68.1534" stroke="rgb(255,255,0)" stroke-width="0.705556"/>
		<line x1="110.888" y1="49.7271" x2="95.9978" y2="34.8364" stroke="rgb(255,255,0)" stroke-width="0.705556"/>
		<line x1="438.785" y1="302.22" x2="457.212" y2="320.647" stroke="rgb(255,255,0)" stroke-width="0.705556"/>
		<line x1="475.638" y1="339.073" x2="490.529" y2="353.963" stroke="rgb(255,255,0)" stroke-width="0.705556"/>
		<line x1="486.993" y1="357.499" x2="438.785" y2="357.499" stroke="rgb(255,0,0)" stroke-width="0.705556"/>
		<line x1="438.785" y1="357.499" x2="438.785" y2="339.86" stroke="rgb(255,0,0)" stroke-width="0.705556"/>
		<line x1="438.785" y1="319.86" x2="438.785" y2="302.22" stroke="rgb(255,0,0)" stroke-width="0.705556"/>
		<line x1="98.2959" y1="353.963" x2="113.187" y2="339.073" stroke="rgb(255,255,0)" stroke-width="0.705556"/>
		<line x1="131.613" y1="320.647" x2="150.039" y2="302.22" stroke="rgb(255,255,0)" stroke-width="0.705556"/>
		<line x1="150.039" y1="302.22" x2="150.039" y2="319.86" stroke="rgb(255,0,0)" stroke-width="0.705556"/>
		<line x1="150.039" y1="339.86" x2="150.039" y2="357.499" stroke="rgb(255,0,0)" stroke-width="0.705556"/>
		<line x1="150.039" y1="357.499" x2="101.831" y2="357.499" stroke="rgb(255,0,0)" stroke-width="0.705556"/>
		<line x1="490.529" y1="32.5383" x2="475.638" y2="47.429" stroke="rgb(255,255,0)" stroke-width="0.705556"/>
		<line x1="457.212" y1="65.8553" x2="438.785" y2="84.2815" stroke="rgb(255,255,0)" stroke-width="0.705556"/>
		<line x1="438.785" y1="84.2815" x2="438.785" y2="66.6422" stroke="rgb(255,0,0)" stroke-width="0.705556"/>
		<line x1="438.785" y1="46.6422" x2="438.785" y2="29.0028" stroke="rgb(255,0,0)" stroke-width="0.705556"/>
		<line x1="438.785" y1="29.0028" x2="486.993" y2="29.0028" stroke="rgb(255,0,0)" stroke-width="0.705556"/>
		<line x1="150.039" y1="84.2815" x2="131.613" y2="65.8553" stroke="rgb(255,255,0)" stroke-width="0.705556"/>
		<line x1="113.187" y1="47.429" x2="98.2959" y2="32.5383" stroke="rgb(255,255,0)" stroke-width="0.705556"/>
		<line x1="101.831" y1="29.0028" x2="150.039" y2="29.0028" stroke="rgb(255,0,0)" stroke-width="0.705556"/>
		<line x1="150.039" y1="29.0028" x2="150.039" y2="46.6422" stroke="rgb(255,0,0)" stroke-width="0.705556"/>
		<line x1="150.039" y1="66.6422" x2="150.039" y2="84.2815" stroke="rgb(255,0,0)" stroke-width="0.705556"/>
		<line x1="438.785" y1="319.86" x2="434.714" y2="320.86" stroke="rgb(255,0,0)" stroke-width="0.705556"/>
		<line x1="434.714" y1="320.86" x2="434.714" y2="338.86" stroke="rgb(255,0,0)" stroke-width="0.705556"/>
		<line x1="434.714" y1="338.86" x2="438.785" y2="339.86" stroke="rgb(255,0,0)" stroke-width="0.705556"/>
		<line x1="150.039" y1="319.86" x2="154.11" y2="320.86" stroke="rgb(255,0,0)" stroke-width="0.705556"/>
		<line x1="154.11" y1="320.86" x2="154.11" y2="338.86" stroke="rgb(255,0,0)" stroke-width="0.705556"/>
		<line x1="154.11" y1="338.86" x2="150.039" y2="339.86" stroke="rgb(255,0,0)" stroke-width="0.705556"/>
		<line x1="438.785" y1="66.6422" x2="434.714" y2="65.6422" stroke="rgb(255,0,0)" stroke-width="0.705556"/>
		<line x1="434.714" y1="65.6422" x2="434.714" y2="47.6422" stroke="rgb(255,0,0)" stroke-width="0.705556"/>
		<line x1="434.714" y1="47.6422" x2="438.785" y2="46.6422" stroke="rgb(255,0,0)" stroke-width="0.705556"/>
		<line x1="150.039" y1="66.6422" x2="154.11" y2="65.6422" stroke="rgb(255,0,0)" stroke-width="0.705556"/>
		<line x1="154.11" y1="65.6422" x2="154.11" y2="47.6422" stroke="rgb(255,0,0)" stroke-width="0.705556"/>
		<line x1="154.11" y1="47.6422" x2="150.039" y2="46.6422" stroke="rgb(255,0,0)" stroke-width="0.705556"/>
		<line x1="478.723" y1="297.801" x2="478.723" y2="293.901" stroke="rgb(255,0,0)" stroke-width="0.705556"/>
		<line x1="478.723" y1="293.901" x2="458.723" y2="293.901" stroke="rgb(255,0,0)" stroke-width="0.705556"/>
		<line x1="458.723" y1="293.901" x2="458.723" y2="297.801" stroke="rgb(255,0,0)" stroke-width="0.705556"/>
		<line x1="478.723" y1="297.801" x2="458.723" y2="297.801" stroke="rgb(255,0,0)" stroke-width="0.705556"/>
		<line x1="478.723" y1="88.7009" x2="478.723" y2="92.6009" stroke="rgb(255,0,0)" stroke-width="0.705556"/>
		<line x1="478.723" y1="92.6009" x2="458.723" y2="92.6009" stroke="rgb(255,0,0)" stroke-width="0.705556"/>
		<line x1="458.723" y1="92.6009" x2="458.723" y2="88.7009" stroke="rgb(255,0,0)" stroke-width="0.705556"/>
		<line x1="478.723" y1="88.7009" x2="458.723" y2="88.7009" stroke="rgb(255,0,0)" stroke-width="0.705556"/>
		<line x1="110.102" y1="88.7009" x2="110.102" y2="92.6009" stroke="rgb(255,0,0)" stroke-width="0.705556"/>
		<line x1="110.102" y1="92.6009" x2="130.102" y2="92.6009" stroke="rgb(255,0,0)" stroke-width="0.705556"/>
		<line x1="130.102" y1="92.6009" x2="130.102" y2="88.7009" stroke="rgb(255,0,0)" stroke-width="0.705556"/>
		<line x1="110.102" y1="88.7009" x2="130.102" y2="88.7009" stroke="rgb(255,0,0)" stroke-width="0.705556"/>
		<line x1="110.102" y1="297.801" x2="110.102" y2="293.901" stroke="rgb(255,0,0)" stroke-width="0.705556"/>
		<line x1="110.102" y1="293.901" x2="130.102" y2="293.901" stroke="rgb(255,0,0)" stroke-width="0.705556"/>
		<line x1="130.102" y1="293.901" x2="130.102" y2="297.801" stroke="rgb(255,0,0)" stroke-width="0.705556"/>
		<line x1="110.102" y1="297.801" x2="130.102" y2="297.801" stroke="rgb(255,0,0)" stroke-width="0.705556"/>
		<line x1="496.362" y1="348.13" x2="486.993" y2="357.499" stroke="rgb(255,0,0)" stroke-width="0.705556"/>
		<line x1="92.4622" y1="38.372" x2="101.831" y2="29.0028" stroke="rgb(255,0,0)" stroke-width="0.705556"/>
		<line x1="164.456" y1="354.551" x2="424.368" y2="354.551" stroke="rgb(255,255,0)" stroke-width="0.705556"/>
		<line x1="424.368" y1="354.551" x2="421.723" y2="369.551" stroke="rgb(255,0,0)" stroke-width="0.705556"/>
		<line x1="421.723" y1="369.551" x2="167.101" y2="369.551" stroke="rgb(255,0,0)" stroke-width="0.705556"/>
		<line x1="167.101" y1="369.551" x2="164.456" y2="354.551" stroke="rgb(255,0,0)" stroke-width="0.705556"/>
		<line x1="424.368" y1="31.9509" x2="164.456" y2="31.9509" stroke="rgb(255,255,0)" stroke-width="0.705556"/>
		<line x1="164.456" y1="31.9509" x2="167.101" y2="16.9509" stroke="rgb(255,0,0)" stroke-width="0.705556"/>
		<line x1="167.101" y1="16.9509" x2="421.723" y2="16.9509" stroke="rgb(255,0,0)" stroke-width="0.705556"/>
		<line x1="421.723" y1="16.9509" x2="424.368" y2="31.9509" stroke="rgb(255,0,0)" stroke-width="0.705556"/>
		<line x1="459.51" y1="318.348" x2="457.212" y2="320.647" stroke="rgb(255,0,0)" stroke-width="0.705556"/>
		<line x1="457.212" y1="320.647" x2="475.638" y2="339.073" stroke="rgb(255,0,0)" stroke-width="0.705556"/>
		<line x1="475.638" y1="339.073" x2="477.936" y2="336.775" stroke="rgb(255,0,0)" stroke-width="0.705556"/>
		<line x1="459.51" y1="318.348" x2="477.936" y2="336.775" stroke="rgb(255,0,0)" stroke-width="0.705556"/>
		<line x1="129.315" y1="318.348" x2="131.613" y2="320.647" stroke="rgb(255,0,0)" stroke-width="0.705556"/>
		<line x1="131.613" y1="320.647" x2="113.187" y2="339.073" stroke="rgb(255,0,0)" stroke-width="0.705556"/>
		<line x1="113.187" y1="339.073" x2="110.888" y2="336.775" stroke="rgb(255,0,0)" stroke-width="0.705556"/>
		<line x1="129.315" y1="318.348" x2="110.888" y2="336.775" stroke="rgb(255,0,0)" stroke-width="0.705556"/>
		<line x1="129.315" y1="68.1534" x2="131.613" y2="65.8553" stroke="rgb(255,0,0)" stroke-width="0.705556"/>
		<line x1="131.613" y1="65.8553" x2="113.187" y2="47.429" stroke="rgb(255,0,0)" stroke-width="0.705556"/>
		<line x1="113.187" y1="47.429" x2="110.888" y2="49.7271" stroke="rgb(255,0,0)" stroke-width="0.705556"/>
		<line x1="129.315" y1="68.1534" x2="110.888" y2="49.7271" stroke="rgb(255,0,0)" stroke-width="0.705556"/>
		<line x1="459.51" y1="68.1534" x2="457.212" y2="65.8553" stroke="rgb(255,0,0)" stroke-width="0.705556"/>
		<line x1="457.212" y1="65.8553" x2="475.638" y2="47.429" stroke="rgb(255,0,0)" stroke-width="0.705556"/>
		<line x1="475.638" y1="47.429" x2="477.936" y2="49.7271" stroke="rgb(255,0,0)" stroke-width="0.705556"/>
		<line x1="459.51" y1="68.1534" x2="477.936" y2="49.7271" stroke="rgb(255,0,0)" stroke-width="0.705556"/>
		<line x1="496.362" y1="38.372" x2="486.993" y2="29.0028" stroke="rgb(255,0,0)" stroke-width="0.705556"/>
		<line x1="92.4622" y1="348.13" x2="101.831" y2="357.499" stroke="rgb(255,0,0)" stroke-width="0.705556"/>
		<line x1="496.362" y1="297.801" x2="496.362" y2="296.501" stroke="rgb(255,0,0)" stroke-width="0.705556"/>
		<line x1="496.362" y1="296.501" x2="497.662" y2="296.501" stroke="rgb(255,0,0)" stroke-width="0.705556"/>
		<line x1="546.691" y1="296.501" x2="546.691" y2="90.0009" stroke="rgb(255,0,0)" stroke-width="0.705556"/>
		<line x1="497.662" y1="90.0009" x2="496.362" y2="90.0009" stroke="rgb(255,0,0)" stroke-width="0.705556"/>
		<line x1="496.362" y1="90.0009" x2="496.362" y2="88.7009" stroke="rgb(255,0,0)" stroke-width="0.705556"/>
		<line x1="497.662" y1="296.501" x2="497.662" y2="90.0009" stroke="rgb(255,255,0)" stroke-width="0.705556"/>
		<line x1="92.4622" y1="88.7009" x2="92.4622" y2="90.0009" stroke="rgb(255,0,0)" stroke-width="0.705556"/>
		<line x1="92.4622" y1="90.0009" x2="91.1622" y2="90.0009" stroke="rgb(255,0,0)" stroke-width="0.705556"/>
		<line x1="42.1333" y1="90.0009" x2="42.1333" y2="296.501" stroke="rgb(255,0,0)" stroke-width="0.705556"/>
		<line x1="91.1622" y1="296.501" x2="92.4622" y2="296.501" stroke="rgb(255,0,0)" stroke-width="0.705556"/>
		<line x1="92.4622" y1="296.501" x2="92.4622" y2="297.801" stroke="rgb(255,0,0)" stroke-width="0.705556"/>
		<line x1="91.1622" y1="90.0009" x2="91.1622" y2="296.501" stroke="rgb(255,255,0)" stroke-width="0.705556"/>
		<line x1="546.691" y1="296.501" x2="546.691" y2="296.501" stroke="rgb(255,0,0)" stroke-width="0.705556"/>
		<line x1="546.691" y1="296.501" x2="546.691" y2="303.572" stroke="rgb(255,0,0)" stroke-width="0.705556"/>
		<line x1="546.691" y1="303.572" x2="534.629" y2="315.634" stroke="rgb(255,0,0)" stroke-width="0.705556"/>
		<line x1="534.629" y1="315.634" x2="536.467" y2="317.473" stroke="rgb(255,0,0)" stroke-width="0.705556"/>
		<line x1="536.467" y1="317.473" x2="521.858" y2="332.082" stroke="rgb(255,0,0)" stroke-width="0.705556"/>
		<line x1="497.662" y1="296.501" x2="497.662" y2="296.501" stroke="rgb(255,0,0)" stroke-width="0.705556"/>
		<line x1="497.662" y1="296.501" x2="517.764" y2="331.537" stroke="rgb(255,0,0)" stroke-width="0.705556"/>
		<line x1="497.662" y1="296.501" x2="546.691" y2="296.501" stroke="rgb(255,255,0)" stroke-width="0.705556"/>
		<path d="M521.858,332.082 a2.6 2.6 0 0 1 -4.09365,-0.544576" fill="none" stroke="rgb(255,0,0)" stroke-width="0.705556"/>
		<line x1="42.1333" y1="296.501" x2="42.1333" y2="296.501" stroke="rgb(255,0,0)" stroke-width="0.705556"/>
		<line x1="42.1333" y1="296.501" x2="42.1333" y2="303.572" stroke="rgb(255,0,0)" stroke-width="0.705556"/>
		<line x1="42.1333" y1="303.572" x2="54.1956" y2="315.634" stroke="rgb(255,0,0)" stroke-width="0.705556"/>
		<line x1="54.1956" y1="315.634" x2="52.3571" y2="317.473" stroke="rgb(255,0,0)" stroke-width="0.705556"/>
		<line x1="52.3571" y1="317.473" x2="66.9664" y2="332.082" stroke="rgb(255,0,0)" stroke-width="0.705556"/>
		<line x1="91.1622" y1="296.501" x2="91.1622" y2="296.501" stroke="rgb(255,0,0)" stroke-width="0.705556"/>
		<line x1="91.1622" y1="296.501" x2="71.0601" y2="331.537" stroke="rgb(255,0,0)" stroke-width="0.705556"/>
		<line x1="91.1622" y1="296.501" x2="42.1333" y2="296.501" stroke="rgb(255,255,0)" stroke-width="0.705556"/>
		<path d="M66.9664,332.082 a2.6 2.6 0 0 0 4.09365,-0.544576" fill="none" stroke="rgb(255,0,0)" stroke-width="0.705556"/>
		<line x1="546.691" y1="90.0009" x2="546.691" y2="90.0009" stroke="rgb(255,0,0)" stroke-width="0.705556"/>
		<line x1="546.691" y1="90.0009" x2="546.691" y2="82.9298" stroke="rgb(255,0,0)" stroke-width="0.705556"/>
		<line x1="546.691" y1="82.9298" x2="534.629" y2="70.8676" stroke="rgb(255,0,0)" stroke-width="0.705556"/>
		<line x1="534.629" y1="70.8676" x2="536.467" y2="69.0291" stroke="rgb(255,0,0)" stroke-width="0.705556"/>
		<line x1="536.467" y1="69.0291" x2="521.858" y2="54.4198" stroke="rgb(255,0,0)" stroke-width="0.705556"/>
		<line x1="497.662" y1="90.0009" x2="497.662" y2="90.0009" stroke="rgb(255,0,0)" stroke-width="0.705556"/>
		<line x1="497.662" y1="90.0009" x2="517.764" y2="54.9643" stroke="rgb(255,0,0)" stroke-width="0.705556"/>
		<line x1="497.662" y1="90.0009" x2="546.691" y2="90.0009" stroke="rgb(255,255,0)" stroke-width="0.705556"/>
		<path d="M521.858,54.4198 a2.6 2.6 0 0 0 -4.09365,0.544576" fill="none" stroke="rgb(255,0,0)" stroke-width="0.705556"/>
		<line x1="42.1333" y1="90.0009" x2="42.1333" y2="90.0009" stroke="rgb(255,0,0)" stroke-width="0.705556"/>
		<line x1="42.1333" y1="90.0009" x2="42.1333" y2="82.9298" stroke="rgb(255,0,0)" stroke-width="0.705556"/>
		<line x1="42.1333" y1="82.9298" x2="54.1956" y2="70.8676" stroke="rgb(255,0,0)" stroke-width="0.705556"/>
		<line x1="54.1956" y1="70.8676" x2="52.3571" y2="69.0291" stroke="rgb(255,0,0)" stroke-width="0.705556"/>
		<line x1="52.3571" y1="69.0291" x2="66.9664" y2="54.4198" stroke="rgb(255,0,0)" stroke-width="0.705556"/>
		<line x1="91.1622" y1="90.0009" x2="91.1622" y2="90.0009" stroke="rgb(255,0,0)" stroke-width="0.705556"/>
		<line x1="91.1622" y1="90.0009" x2="71.0601" y2="54.9643" stroke="rgb(255,0,0)" stroke-width="0.705556"/>
		<line x1="91.1622" y1="90.0009" x2="42.1333" y2="90.0009" stroke="rgb(255,255,0)" stroke-width="0.705556"/>
		<path d="M66.9664,54.4198 a2.6 2.6 0 0 1 4.09365,0.544576" fill="none" stroke="rgb(255,0,0)" stroke-width="0.705556"/>
		<line x1="294.412" y1="145.216" x2="294.412" y2="117.601" stroke="rgb(64,128,128)" stroke-width="0"/>
		<line x1="302.896" y1="126.806" x2="302.896" y2="117.601" stroke="rgb(64,128,128)" stroke-width="0"/>
		<line x1="298.654" y1="136.011" x2="298.654" y2="117.601" stroke="rgb(64,128,128)" stroke-width="0"/>
		<line x1="290.17" y1="154.421" x2="290.17" y2="117.601" stroke="rgb(64,128,128)" stroke-width="0"/>
		<line x1="285.928" y1="163.626" x2="285.928" y2="117.601" stroke="rgb(64,128,128)" stroke-width="0"/>
		<line x1="281.686" y1="172.83" x2="281.686" y2="117.601" stroke="rgb(64,128,128)" stroke-width="0"/>
		<line x1="307.138" y1="117.601" x2="281.686" y2="117.601" stroke="rgb(64,128,128)" stroke-width="0"/>
		<line x1="281.686" y1="172.83" x2="309.961" y2="144.513" stroke="rgb(64,128,128)" stroke-width="0"/>
		<path d="M309.961,144.513 a26.6045 26.6045 0 0 1 -2.82257,-26.9118" fill="none" stroke="rgb(64,128,128)" stroke-width="0"/>
		<line x1="307.138" y1="117.601" x2="281.686" y2="172.83" stroke="rgb(64,128,128)" stroke-width="0"/>
	</g>
</svg>