<svg version = "1.1" xmlns = "http://www.w3.org/2000/svg" xmlns:xlink="http://www.w3.org/1999/xlink" width="944.606" height="150.706" viewbox = "0 0 944.606 150.706">
	<g transform="translate(-110.391,245.254) scale(1,-1) ">
		<line x1="110.744" y1="94.9014" x2="301.394" y2="94.9014" stroke="rgb(255,0,0)" stroke-width="0.705556"/>
		<line x1="301.394" y1="94.9014" x2="301.394" y2="244.901" stroke="rgb(255,255,0)" stroke-width="0.705556"/>
		<line x1="301.394" y1="244.901" x2="110.744" y2="244.901" stroke="rgb(255,0,0)" stroke-width="0.705556"/>
		<line x1="110.744" y1="244.901" x2="110.744" y2="94.9014" stroke="rgb(255,0,0)" stroke-width="0.705556"/>
		<line x1="582.694" y1="244.901" x2="582.694" y2="94.9014" stroke="rgb(255,255,0)" stroke-width="0.705556"/>
		<line x1="301.394" y1="244.901" x2="582.694" y2="244.901" stroke="rgb(255,0,0)" stroke-width="0.705556"/>
		<line x1="582.694" y1="94.9014" x2="301.394" y2="94.9014" stroke="rgb(255,0,0)" stroke-width="0.705556"/>
		<line x1="783.994" y1="94.9014" x2="783.994" y2="244.901" stroke="rgb(255,255,0)" stroke-width="0.705556"/>
		<line x1="582.694" y1="94.9014" x2="783.994" y2="94.9014" stroke="rgb(255,0,0)" stroke-width="0.705556"/>
		<line x1="783.994" y1="244.901" x2="582.694" y2="244.901" stroke="rgb(255,0,0)" stroke-width="0.705556"/>
		<line x1="1054.64" y1="244.901" x2="1054.64" y2="94.9014" stroke="rgb(255,0,0)" stroke-width="0.705556"/>
		<line x1="783.994" y1="244.901" x2="1054.64" y2="244.901" stroke="rgb(255,0,0)" stroke-width="0.705556"/>
		<line x1="1054.64" y1="94.9014" x2="783.994" y2="94.9014" stroke="rgb(255,0,0)" stroke-width="0.705556"/>
		<line x1="442.044" y1="147.516" x2="442.044" y2="119.901" stroke="rgb(64,128,128)" stroke-width="0"/>
		<line x1="450.528" y1="129.106" x2="450.528" y2="119.901" stroke="rgb(64,128,128)" stroke-width="0"/>
		<line x1="446.286" y1="138.311" x2="446.286" y2="119.901" stroke="rgb(64,128,128)" stroke-width="0"/>
		<line x1="437.802" y1="156.721" x2="437.802" y2="119.901" stroke="rgb(64,128,128)" stroke-width="0"/>
		<line x1="433.56" y1="165.926" x2="433.56" y2="119.901" stroke="rgb(64,128,128)" stroke-width="0"/>
		<line x1="429.318" y1="175.131" x2="429.318" y2="119.901" stroke="rgb(64,128,128)" stroke-width="0"/>
		<line x1="454.77" y1="119.901" x2="429.318" y2="119.901" stroke="rgb(64,128,128)" stroke-width="0"/>
		<line x1="429.318" y1="175.131" x2="457.593" y2="146.813" stroke="rgb(64,128,128)" stroke-width="0"/>
		<path d="M457.593,146.813 a26.6045 26.6045 0 0 1 -2.82257,-26.9118" fill="none" stroke="rgb(64,128,128)" stroke-width="0"/>
		<line x1="454.77" y1="119.901" x2="429.318" y2="175.131" stroke="rgb(64,128,128)" stroke-width="0"/>
	</g>
</svg>