<svg version = "1.1" xmlns = "http://www.w3.org/2000/svg" xmlns:xlink="http://www.w3.org/1999/xlink" width="844.606" height="200.706" viewbox = "0 0 844.606 200.706">
	<g transform="translate(-110.391,295.254) scale(1,-1) ">
		<line x1="110.744" y1="94.9014" x2="251.394" y2="94.9014" stroke="rgb(255,0,0)" stroke-width="0.705556"/>
		<line x1="251.394" y1="94.9014" x2="251.394" y2="294.901" stroke="rgb(255,255,0)" stroke-width="0.705556"/>
		<line x1="251.394" y1="294.901" x2="110.744" y2="294.901" stroke="rgb(255,0,0)" stroke-width="0.705556"/>
		<line x1="110.744" y1="294.901" x2="110.744" y2="94.9014" stroke="rgb(255,0,0)" stroke-width="0.705556"/>
		<line x1="532.694" y1="294.901" x2="532.694" y2="94.9014" stroke="rgb(255,255,0)" stroke-width="0.705556"/>
		<line x1="251.394" y1="294.901" x2="532.694" y2="294.901" stroke="rgb(255,0,0)" stroke-width="0.705556"/>
		<line x1="532.694" y1="94.9014" x2="251.394" y2="94.9014" stroke="rgb(255,0,0)" stroke-width="0.705556"/>
		<line x1="683.994" y1="94.9014" x2="683.994" y2="294.901" stroke="rgb(255,255,0)" stroke-width="0.705556"/>
		<line x1="532.694" y1="94.9014" x2="683.994" y2="94.9014" stroke="rgb(255,0,0)" stroke-width="0.705556"/>
		<line x1="683.994" y1="294.901" x2="532.694" y2="294.901" stroke="rgb(255,0,0)" stroke-width="0.705556"/>
		<line x1="954.644" y1="294.901" x2="954.644" y2="94.9014" stroke="rgb(255,0,0)" stroke-width="0.705556"/>
		<line x1="683.994" y1="294.901" x2="954.644" y2="294.901" stroke="rgb(255,0,0)" stroke-width="0.705556"/>
		<line x1="954.644" y1="94.9014" x2="683.994" y2="94.9014" stroke="rgb(255,0,0)" stroke-width="0.705556"/>
		<line x1="392.044" y1="157.516" x2="392.044" y2="129.901" stroke="rgb(64,128,128)" stroke-width="0"/>
		<line x1="400.528" y1="139.106" x2="400.528" y2="129.901" stroke="rgb(64,128,128)" stroke-width="0"/>
		<line x1="396.286" y1="148.311" x2="396.286" y2="129.901" stroke="rgb(64,128,128)" stroke-width="0"/>
		<line x1="387.802" y1="166.721" x2="387.802" y2="129.901" stroke="rgb(64,128,128)" stroke-width="0"/>
		<line x1="383.56" y1="175.926" x2="383.56" y2="129.901" stroke="rgb(64,128,128)" stroke-width="0"/>
		<line x1="379.318" y1="185.131" x2="379.318" y2="129.901" stroke="rgb(64,128,128)" stroke-width="0"/>
		<line x1="404.77" y1="129.901" x2="379.318" y2="129.901" stroke="rgb(64,128,128)" stroke-width="0"/>
		<line x1="379.318" y1="185.131" x2="407.593" y2="156.813" stroke="rgb(64,128,128)" stroke-width="0"/>
		<path d="M407.593,156.813 a26.6045 26.6045 0 0 1 -2.82257,-26.9118" fill="none" stroke="rgb(64,128,128)" stroke-width="0"/>
		<line x1="404.77" y1="129.901" x2="379.318" y2="185.131" stroke="rgb(64,128,128)" stroke-width="0"/>
	</g>
</svg>