<svg version = "1.1" xmlns = "http://www.w3.org/2000/svg" xmlns:xlink="http://www.w3.org/1999/xlink" width="684.606" height="280.706" viewbox = "0 0 684.606 280.706">
	<g transform="translate(-110.391,375.254) scale(1,-1) ">
		<line x1="110.744" y1="94.9014" x2="251.394" y2="94.9014" stroke="rgb(255,0,0)" stroke-width="0.705556"/>
		<line x1="251.394" y1="94.9014" x2="251.394" y2="374.901" stroke="rgb(255,255,0)" stroke-width="0.705556"/>
		<line x1="251.394" y1="374.901" x2="110.744" y2="374.901" stroke="rgb(255,0,0)" stroke-width="0.705556"/>
		<line x1="110.744" y1="374.901" x2="110.744" y2="94.9014" stroke="rgb(255,0,0)" stroke-width="0.705556"/>
		<line x1="452.694" y1="374.901" x2="452.694" y2="94.9014" stroke="rgb(255,255,0)" stroke-width="0.705556"/>
		<line x1="251.394" y1="374.901" x2="452.694" y2="374.901" stroke="rgb(255,0,0)" stroke-width="0.705556"/>
		<line x1="452.694" y1="94.9014" x2="251.394" y2="94.9014" stroke="rgb(255,0,0)" stroke-width="0.705556"/>
		<line x1="603.994" y1="94.9014" x2="603.994" y2="374.901" stroke="rgb(255,255,0)" stroke-width="0.705556"/>
		<line x1="452.694" y1="94.9014" x2="603.994" y2="94.9014" stroke="rgb(255,0,0)" stroke-width="0.705556"/>
		<line x1="603.994" y1="374.901" x2="452.694" y2="374.901" stroke="rgb(255,0,0)" stroke-width="0.705556"/>
		<line x1="794.644" y1="374.901" x2="794.644" y2="94.9014" stroke="rgb(255,0,0)" stroke-width="0.705556"/>
		<line x1="603.994" y1="374.901" x2="794.644" y2="374.901" stroke="rgb(255,0,0)" stroke-width="0.705556"/>
		<line x1="794.644" y1="94.9014" x2="603.994" y2="94.9014" stroke="rgb(255,0,0)" stroke-width="0.705556"/>
		<line x1="352.044" y1="157.516" x2="352.044" y2="129.901" stroke="rgb(64,128,128)" stroke-width="0"/>
		<line x1="360.528" y1="139.106" x2="360.528" y2="129.901" stroke="rgb(64,128,128)" stroke-width="0"/>
		<line x1="356.286" y1="148.311" x2="356.286" y2="129.901" stroke="rgb(64,128,128)" stroke-width="0"/>
		<line x1="347.802" y1="166.721" x2="347.802" y2="129.901" stroke="rgb(64,128,128)" stroke-width="0"/>
		<line x1="343.56" y1="175.926" x2="343.56" y2="129.901" stroke="rgb(64,128,128)" stroke-width="0"/>
		<line x1="339.318" y1="185.131" x2="339.318" y2="129.901" stroke="rgb(64,128,128)" stroke-width="0"/>
		<line x1="364.77" y1="129.901" x2="339.318" y2="129.901" stroke="rgb(64,128,128)" stroke-width="0"/>
		<line x1="339.318" y1="185.131" x2="367.593" y2="156.813" stroke="rgb(64,128,128)" stroke-width="0"/>
		<path d="M367.593,156.813 a26.6045 26.6045 0 0 1 -2.82257,-26.9118" fill="none" stroke="rgb(64,128,128)" stroke-width="0"/>
		<line x1="364.77" y1="129.901" x2="339.318" y2="185.131" stroke="rgb(64,128,128)" stroke-width="0"/>
	</g>
</svg>