<svg version = "1.1" xmlns = "http://www.w3.org/2000/svg" xmlns:xlink="http://www.w3.org/1999/xlink" width="745.906" height="200.706" viewbox = "0 0 745.906 200.706">
	<g transform="translate(0.488731,200.353) scale(1,-1) ">
		<line x1="80.514" y1="0" x2="231.814" y2="0" stroke="rgb(255,0,0)" stroke-width="0.705556"/>
		<line x1="231.814" y1="0" x2="231.814" y2="200" stroke="rgb(255,255,0)" stroke-width="0.705556"/>
		<line x1="231.814" y1="200" x2="80.514" y2="200" stroke="rgb(255,0,0)" stroke-width="0.705556"/>
		<line x1="513.114" y1="200" x2="513.114" y2="0" stroke="rgb(255,255,0)" stroke-width="0.705556"/>
		<line x1="231.814" y1="200" x2="513.114" y2="200" stroke="rgb(255,0,0)" stroke-width="0.705556"/>
		<line x1="513.114" y1="0" x2="231.814" y2="0" stroke="rgb(255,0,0)" stroke-width="0.705556"/>
		<line x1="513.114" y1="0" x2="664.414" y2="0" stroke="rgb(255,0,0)" stroke-width="0.705556"/>
		<line x1="664.414" y1="200" x2="513.114" y2="200" stroke="rgb(255,0,0)" stroke-width="0.705556"/>
		<line x1="80.514" y1="0" x2="-0.135953" y2="0" stroke="rgb(255,0,0)" stroke-width="0.705556"/>
		<line x1="-0.135953" y1="0" x2="-0.135953" y2="200" stroke="rgb(255,0,0)" stroke-width="0.705556"/>
		<line x1="-0.135953" y1="200" x2="80.514" y2="200" stroke="rgb(255,0,0)" stroke-width="0.705556"/>
		<line x1="80.514" y1="200" x2="80.514" y2="0" stroke="rgb(255,255,0)" stroke-width="0.705556"/>
		<line x1="664.414" y1="200" x2="745.064" y2="200" stroke="rgb(255,0,0)" stroke-width="0.705556"/>
		<line x1="745.064" y1="200" x2="745.064" y2="0" stroke="rgb(255,0,0)" stroke-width="0.705556"/>
		<line x1="745.064" y1="0" x2="664.414" y2="0" stroke="rgb(255,0,0)" stroke-width="0.705556"/>
		<line x1="664.414" y1="0" x2="664.414" y2="200" stroke="rgb(255,255,0)" stroke-width="0.705556"/>
		<line x1="372.464" y1="52.6148" x2="372.464" y2="25" stroke="rgb(64,128,128)" stroke-width="0"/>
		<line x1="380.948" y1="34.2049" x2="380.948" y2="25" stroke="rgb(64,128,128)" stroke-width="0"/>
		<line x1="376.706" y1="43.4099" x2="376.706" y2="25" stroke="rgb(64,128,128)" stroke-width="0"/>
		<line x1="368.222" y1="61.8197" x2="368.222" y2="25" stroke="rgb(64,128,128)" stroke-width="0"/>
		<line x1="363.98" y1="71.0246" x2="363.98" y2="25" stroke="rgb(64,128,128)" stroke-width="0"/>
		<line x1="359.738" y1="80.2296" x2="359.738" y2="25" stroke="rgb(64,128,128)" stroke-width="0"/>
		<line x1="385.19" y1="25" x2="359.738" y2="25" stroke="rgb(64,128,128)" stroke-width="0"/>
		<line x1="359.738" y1="80.2296" x2="388.013" y2="51.9118" stroke="rgb(64,128,128)" stroke-width="0"/>
		<path d="M388.013,51.9118 a26.6045 26.6045 0 0 1 -2.82257,-26.9118" fill="none" stroke="rgb(64,128,128)" stroke-width="0"/>
		<line x1="385.19" y1="25" x2="359.738" y2="80.2296" stroke="rgb(64,128,128)" stroke-width="0"/>
	</g>
</svg>