<svg version = "1.1" xmlns = "http://www.w3.org/2000/svg" xmlns:xlink="http://www.w3.org/1999/xlink" width="845.906" height="150.706" viewbox = "0 0 845.906 150.706">
	<g transform="translate(-44.7185,284.152) scale(1,-1) ">
		<line x1="125.721" y1="133.799" x2="327.021" y2="133.799" stroke="rgb(255,0,0)" stroke-width="0.705556"/>
		<line x1="327.021" y1="133.799" x2="327.021" y2="283.799" stroke="rgb(255,255,0)" stroke-width="0.705556"/>
		<line x1="327.021" y1="283.799" x2="125.721" y2="283.799" stroke="rgb(255,0,0)" stroke-width="0.705556"/>
		<line x1="608.321" y1="283.799" x2="608.321" y2="133.799" stroke="rgb(255,255,0)" stroke-width="0.705556"/>
		<line x1="327.021" y1="283.799" x2="608.321" y2="283.799" stroke="rgb(255,0,0)" stroke-width="0.705556"/>
		<line x1="608.321" y1="133.799" x2="327.021" y2="133.799" stroke="rgb(255,0,0)" stroke-width="0.705556"/>
		<line x1="608.321" y1="133.799" x2="809.621" y2="133.799" stroke="rgb(255,0,0)" stroke-width="0.705556"/>
		<line x1="809.621" y1="283.799" x2="608.321" y2="283.799" stroke="rgb(255,0,0)" stroke-width="0.705556"/>
		<line x1="125.721" y1="133.799" x2="45.0713" y2="133.799" stroke="rgb(255,0,0)" stroke-width="0.705556"/>
		<line x1="45.0713" y1="133.799" x2="45.0713" y2="283.799" stroke="rgb(255,0,0)" stroke-width="0.705556"/>
		<line x1="45.0713" y1="283.799" x2="125.721" y2="283.799" stroke="rgb(255,0,0)" stroke-width="0.705556"/>
		<line x1="125.721" y1="283.799" x2="125.721" y2="133.799" stroke="rgb(255,255,0)" stroke-width="0.705556"/>
		<line x1="809.621" y1="283.799" x2="890.271" y2="283.799" stroke="rgb(255,0,0)" stroke-width="0.705556"/>
		<line x1="890.271" y1="283.799" x2="890.271" y2="133.799" stroke="rgb(255,0,0)" stroke-width="0.705556"/>
		<line x1="890.271" y1="133.799" x2="809.621" y2="133.799" stroke="rgb(255,0,0)" stroke-width="0.705556"/>
		<line x1="809.621" y1="133.799" x2="809.621" y2="283.799" stroke="rgb(255,255,0)" stroke-width="0.705556"/>
		<line x1="467.671" y1="196.414" x2="467.671" y2="168.799" stroke="rgb(64,128,128)" stroke-width="0"/>
		<line x1="476.155" y1="178.004" x2="476.155" y2="168.799" stroke="rgb(64,128,128)" stroke-width="0"/>
		<line x1="471.913" y1="187.209" x2="471.913" y2="168.799" stroke="rgb(64,128,128)" stroke-width="0"/>
		<line x1="463.429" y1="205.619" x2="463.429" y2="168.799" stroke="rgb(64,128,128)" stroke-width="0"/>
		<line x1="459.187" y1="214.824" x2="459.187" y2="168.799" stroke="rgb(64,128,128)" stroke-width="0"/>
		<line x1="454.945" y1="224.029" x2="454.945" y2="168.799" stroke="rgb(64,128,128)" stroke-width="0"/>
		<line x1="480.397" y1="168.799" x2="454.945" y2="168.799" stroke="rgb(64,128,128)" stroke-width="0"/>
		<line x1="454.945" y1="224.029" x2="483.22" y2="195.711" stroke="rgb(64,128,128)" stroke-width="0"/>
		<path d="M483.22,195.711 a26.6045 26.6045 0 0 1 -2.82257,-26.9118" fill="none" stroke="rgb(64,128,128)" stroke-width="0"/>
		<line x1="480.397" y1="168.799" x2="454.945" y2="224.029" stroke="rgb(64,128,128)" stroke-width="0"/>
	</g>
</svg>