<svg version = "1.1" xmlns = "http://www.w3.org/2000/svg" xmlns:xlink="http://www.w3.org/1999/xlink" width="815.906" height="200.706" viewbox = "0 0 815.906 200.706">
	<g transform="translate(-84.0737,359.339) scale(1,-1) ">
		<line x1="135.076" y1="158.986" x2="416.376" y2="158.986" stroke="rgb(255,0,0)" stroke-width="0.705556"/>
		<line x1="416.376" y1="158.986" x2="416.376" y2="358.986" stroke="rgb(255,255,0)" stroke-width="0.705556"/>
		<line x1="416.376" y1="358.986" x2="135.076" y2="358.986" stroke="rgb(255,0,0)" stroke-width="0.705556"/>
		<line x1="567.676" y1="358.986" x2="567.676" y2="158.986" stroke="rgb(255,255,0)" stroke-width="0.705556"/>
		<line x1="416.376" y1="358.986" x2="567.676" y2="358.986" stroke="rgb(255,0,0)" stroke-width="0.705556"/>
		<line x1="567.676" y1="158.986" x2="416.376" y2="158.986" stroke="rgb(255,0,0)" stroke-width="0.705556"/>
		<line x1="567.676" y1="158.986" x2="848.976" y2="158.986" stroke="rgb(255,0,0)" stroke-width="0.705556"/>
		<line x1="848.976" y1="358.986" x2="567.676" y2="358.986" stroke="rgb(255,0,0)" stroke-width="0.705556"/>
		<line x1="848.976" y1="358.986" x2="899.626" y2="358.986" stroke="rgb(255,0,0)" stroke-width="0.705556"/>
		<line x1="899.626" y1="358.986" x2="899.626" y2="158.986" stroke="rgb(255,0,0)" stroke-width="0.705556"/>
		<line x1="899.626" y1="158.986" x2="848.976" y2="158.986" stroke="rgb(255,0,0)" stroke-width="0.705556"/>
		<line x1="848.976" y1="158.986" x2="848.976" y2="358.986" stroke="rgb(255,255,0)" stroke-width="0.705556"/>
		<line x1="135.076" y1="158.986" x2="84.4265" y2="158.986" stroke="rgb(255,0,0)" stroke-width="0.705556"/>
		<line x1="84.4265" y1="158.986" x2="84.4265" y2="358.986" stroke="rgb(255,0,0)" stroke-width="0.705556"/>
		<line x1="84.4265" y1="358.986" x2="135.076" y2="358.986" stroke="rgb(255,0,0)" stroke-width="0.705556"/>
		<line x1="135.076" y1="358.986" x2="135.076" y2="158.986" stroke="rgb(255,255,0)" stroke-width="0.705556"/>
		<line x1="708.326" y1="221.601" x2="708.326" y2="193.986" stroke="rgb(64,128,128)" stroke-width="0"/>
		<line x1="716.81" y1="203.191" x2="716.81" y2="193.986" stroke="rgb(64,128,128)" stroke-width="0"/>
		<line x1="712.568" y1="212.396" x2="712.568" y2="193.986" stroke="rgb(64,128,128)" stroke-width="0"/>
		<line x1="704.084" y1="230.806" x2="704.084" y2="193.986" stroke="rgb(64,128,128)" stroke-width="0"/>
		<line x1="699.842" y1="240.011" x2="699.842" y2="193.986" stroke="rgb(64,128,128)" stroke-width="0"/>
		<line x1="695.6" y1="249.216" x2="695.6" y2="193.986" stroke="rgb(64,128,128)" stroke-width="0"/>
		<line x1="721.052" y1="193.986" x2="695.6" y2="193.986" stroke="rgb(64,128,128)" stroke-width="0"/>
		<line x1="695.6" y1="249.216" x2="723.875" y2="220.898" stroke="rgb(64,128,128)" stroke-width="0"/>
		<path d="M723.875,220.898 a26.6045 26.6045 0 0 1 -2.82257,-26.9118" fill="none" stroke="rgb(64,128,128)" stroke-width="0"/>
		<line x1="721.052" y1="193.986" x2="695.6" y2="249.216" stroke="rgb(64,128,128)" stroke-width="0"/>
	</g>
</svg>