<svg version = "1.1" xmlns = "http://www.w3.org/2000/svg" xmlns:xlink="http://www.w3.org/1999/xlink" width="665.906" height="280.706" viewbox = "0 0 665.906 280.706">
	<g transform="translate(-72.7841,447.975) scale(1,-1) ">
		<line x1="153.787" y1="167.622" x2="305.087" y2="167.622" stroke="rgb(255,0,0)" stroke-width="0.705556"/>
		<line x1="305.087" y1="167.622" x2="305.087" y2="447.622" stroke="rgb(255,255,0)" stroke-width="0.705556"/>
		<line x1="305.087" y1="447.622" x2="153.787" y2="447.622" stroke="rgb(255,0,0)" stroke-width="0.705556"/>
		<line x1="506.387" y1="447.622" x2="506.387" y2="167.622" stroke="rgb(255,255,0)" stroke-width="0.705556"/>
		<line x1="305.087" y1="447.622" x2="506.387" y2="447.622" stroke="rgb(255,0,0)" stroke-width="0.705556"/>
		<line x1="506.387" y1="167.622" x2="305.087" y2="167.622" stroke="rgb(255,0,0)" stroke-width="0.705556"/>
		<line x1="506.387" y1="167.622" x2="657.687" y2="167.622" stroke="rgb(255,0,0)" stroke-width="0.705556"/>
		<line x1="657.687" y1="447.622" x2="506.387" y2="447.622" stroke="rgb(255,0,0)" stroke-width="0.705556"/>
		<line x1="657.687" y1="447.622" x2="738.337" y2="447.622" stroke="rgb(255,0,0)" stroke-width="0.705556"/>
		<line x1="738.337" y1="447.622" x2="738.337" y2="167.622" stroke="rgb(255,0,0)" stroke-width="0.705556"/>
		<line x1="738.337" y1="167.622" x2="657.687" y2="167.622" stroke="rgb(255,0,0)" stroke-width="0.705556"/>
		<line x1="657.687" y1="167.622" x2="657.687" y2="447.622" stroke="rgb(255,255,0)" stroke-width="0.705556"/>
		<line x1="153.787" y1="167.622" x2="73.1369" y2="167.622" stroke="rgb(255,0,0)" stroke-width="0.705556"/>
		<line x1="73.1369" y1="167.622" x2="73.1369" y2="447.622" stroke="rgb(255,0,0)" stroke-width="0.705556"/>
		<line x1="73.1369" y1="447.622" x2="153.787" y2="447.622" stroke="rgb(255,0,0)" stroke-width="0.705556"/>
		<line x1="153.787" y1="447.622" x2="153.787" y2="167.622" stroke="rgb(255,255,0)" stroke-width="0.705556"/>
		<line x1="405.737" y1="230.237" x2="405.737" y2="202.622" stroke="rgb(64,128,128)" stroke-width="0"/>
		<line x1="414.221" y1="211.827" x2="414.221" y2="202.622" stroke="rgb(64,128,128)" stroke-width="0"/>
		<line x1="409.979" y1="221.032" x2="409.979" y2="202.622" stroke="rgb(64,128,128)" stroke-width="0"/>
		<line x1="401.495" y1="239.442" x2="401.495" y2="202.622" stroke="rgb(64,128,128)" stroke-width="0"/>
		<line x1="397.253" y1="248.646" x2="397.253" y2="202.622" stroke="rgb(64,128,128)" stroke-width="0"/>
		<line x1="393.011" y1="257.851" x2="393.011" y2="202.622" stroke="rgb(64,128,128)" stroke-width="0"/>
		<line x1="418.463" y1="202.622" x2="393.011" y2="202.622" stroke="rgb(64,128,128)" stroke-width="0"/>
		<line x1="393.011" y1="257.851" x2="421.285" y2="229.534" stroke="rgb(64,128,128)" stroke-width="0"/>
		<path d="M421.285,229.534 a26.6045 26.6045 0 0 1 -2.82257,-26.9118" fill="none" stroke="rgb(64,128,128)" stroke-width="0"/>
		<line x1="418.463" y1="202.622" x2="393.011" y2="257.851" stroke="rgb(64,128,128)" stroke-width="0"/>
	</g>
</svg>