<svg version = "1.1" xmlns = "http://www.w3.org/2000/svg" xmlns:xlink="http://www.w3.org/1999/xlink" width="885.906" height="150.706" viewbox = "0 0 885.906 150.706">
	<g transform="translate(-103.302,242.869) scale(1,-1) ">
		<line x1="204.305" y1="92.5167" x2="405.605" y2="92.5167" stroke="rgb(255,0,0)" stroke-width="0.705556"/>
		<line x1="405.605" y1="92.5167" x2="405.605" y2="242.517" stroke="rgb(255,255,0)" stroke-width="0.705556"/>
		<line x1="405.605" y1="242.517" x2="204.305" y2="242.517" stroke="rgb(255,0,0)" stroke-width="0.705556"/>
		<line x1="686.905" y1="242.517" x2="686.905" y2="92.5167" stroke="rgb(255,255,0)" stroke-width="0.705556"/>
		<line x1="405.605" y1="242.517" x2="686.905" y2="242.517" stroke="rgb(255,0,0)" stroke-width="0.705556"/>
		<line x1="686.905" y1="92.5167" x2="405.605" y2="92.5167" stroke="rgb(255,0,0)" stroke-width="0.705556"/>
		<line x1="686.905" y1="92.5167" x2="888.205" y2="92.5167" stroke="rgb(255,0,0)" stroke-width="0.705556"/>
		<line x1="888.205" y1="242.517" x2="686.905" y2="242.517" stroke="rgb(255,0,0)" stroke-width="0.705556"/>
		<line x1="888.205" y1="242.517" x2="988.855" y2="242.517" stroke="rgb(255,0,0)" stroke-width="0.705556"/>
		<line x1="988.855" y1="242.517" x2="988.855" y2="92.5167" stroke="rgb(255,0,0)" stroke-width="0.705556"/>
		<line x1="988.855" y1="92.5167" x2="888.205" y2="92.5167" stroke="rgb(255,0,0)" stroke-width="0.705556"/>
		<line x1="888.205" y1="92.5167" x2="888.205" y2="242.517" stroke="rgb(255,255,0)" stroke-width="0.705556"/>
		<line x1="204.305" y1="92.5167" x2="103.655" y2="92.5167" stroke="rgb(255,0,0)" stroke-width="0.705556"/>
		<line x1="103.655" y1="92.5167" x2="103.655" y2="242.517" stroke="rgb(255,0,0)" stroke-width="0.705556"/>
		<line x1="103.655" y1="242.517" x2="204.305" y2="242.517" stroke="rgb(255,0,0)" stroke-width="0.705556"/>
		<line x1="204.305" y1="242.517" x2="204.305" y2="92.5167" stroke="rgb(255,255,0)" stroke-width="0.705556"/>
		<line x1="988.855" y1="222.517" x2="103.655" y2="222.517" stroke="rgb(255,255,0)" stroke-width="0.705556"/>
		<line x1="103.655" y1="112.517" x2="988.855" y2="112.517" stroke="rgb(255,255,0)" stroke-width="0.705556"/>
		<line x1="546.255" y1="170.131" x2="546.255" y2="142.517" stroke="rgb(64,128,128)" stroke-width="0"/>
		<line x1="554.739" y1="151.722" x2="554.739" y2="142.517" stroke="rgb(64,128,128)" stroke-width="0"/>
		<line x1="550.497" y1="160.927" x2="550.497" y2="142.517" stroke="rgb(64,128,128)" stroke-width="0"/>
		<line x1="542.013" y1="179.336" x2="542.013" y2="142.517" stroke="rgb(64,128,128)" stroke-width="0"/>
		<line x1="537.771" y1="188.541" x2="537.771" y2="142.517" stroke="rgb(64,128,128)" stroke-width="0"/>
		<line x1="533.529" y1="197.746" x2="533.529" y2="142.517" stroke="rgb(64,128,128)" stroke-width="0"/>
		<line x1="558.981" y1="142.517" x2="533.529" y2="142.517" stroke="rgb(64,128,128)" stroke-width="0"/>
		<line x1="533.529" y1="197.746" x2="561.803" y2="169.428" stroke="rgb(64,128,128)" stroke-width="0"/>
		<path d="M561.803,169.428 a26.6045 26.6045 0 0 1 -2.82257,-26.9118" fill="none" stroke="rgb(64,128,128)" stroke-width="0"/>
		<line x1="558.981" y1="142.517" x2="533.529" y2="197.746" stroke="rgb(64,128,128)" stroke-width="0"/>
	</g>
</svg>