<svg version = "1.1" xmlns = "http://www.w3.org/2000/svg" xmlns:xlink="http://www.w3.org/1999/xlink" width="857.206" height="280.706" viewbox = "0 0 857.206 280.706">
	<g transform="translate(-63.6791,333.742) scale(1,-1) ">
		<line x1="214.682" y1="53.3888" x2="415.982" y2="53.3888" stroke="rgb(255,0,0)" stroke-width="0.705556"/>
		<line x1="415.982" y1="53.3888" x2="415.982" y2="333.389" stroke="rgb(255,255,0)" stroke-width="0.705556"/>
		<line x1="415.982" y1="333.389" x2="214.682" y2="333.389" stroke="rgb(255,0,0)" stroke-width="0.705556"/>
		<line x1="567.282" y1="333.389" x2="567.282" y2="53.3888" stroke="rgb(255,255,0)" stroke-width="0.705556"/>
		<line x1="415.982" y1="333.389" x2="567.282" y2="333.389" stroke="rgb(255,0,0)" stroke-width="0.705556"/>
		<line x1="567.282" y1="53.3888" x2="415.982" y2="53.3888" stroke="rgb(255,0,0)" stroke-width="0.705556"/>
		<line x1="769.882" y1="53.3888" x2="769.882" y2="333.389" stroke="rgb(255,255,0)" stroke-width="0.705556"/>
		<line x1="567.282" y1="53.3888" x2="769.882" y2="53.3888" stroke="rgb(255,0,0)" stroke-width="0.705556"/>
		<line x1="769.882" y1="333.389" x2="567.282" y2="333.389" stroke="rgb(255,0,0)" stroke-width="0.705556"/>
		<line x1="920.532" y1="333.389" x2="920.532" y2="53.3888" stroke="rgb(255,0,0)" stroke-width="0.705556"/>
		<line x1="769.882" y1="333.389" x2="920.532" y2="333.389" stroke="rgb(255,0,0)" stroke-width="0.705556"/>
		<line x1="920.532" y1="53.3888" x2="769.882" y2="53.3888" stroke="rgb(255,0,0)" stroke-width="0.705556"/>
		<line x1="214.682" y1="53.3888" x2="64.0319" y2="53.3888" stroke="rgb(255,0,0)" stroke-width="0.705556"/>
		<line x1="64.0319" y1="53.3888" x2="64.0319" y2="333.389" stroke="rgb(255,0,0)" stroke-width="0.705556"/>
		<line x1="64.0319" y1="333.389" x2="214.682" y2="333.389" stroke="rgb(255,0,0)" stroke-width="0.705556"/>
		<line x1="214.682" y1="333.389" x2="214.682" y2="53.3888" stroke="rgb(255,255,0)" stroke-width="0.705556"/>
		<line x1="491.632" y1="116.004" x2="491.632" y2="88.3888" stroke="rgb(64,128,128)" stroke-width="0"/>
		<line x1="500.116" y1="97.5937" x2="500.116" y2="88.3888" stroke="rgb(64,128,128)" stroke-width="0"/>
		<line x1="495.874" y1="106.799" x2="495.874" y2="88.3888" stroke="rgb(64,128,128)" stroke-width="0"/>
		<line x1="487.39" y1="125.208" x2="487.39" y2="88.3888" stroke="rgb(64,128,128)" stroke-width="0"/>
		<line x1="483.148" y1="134.413" x2="483.148" y2="88.3888" stroke="rgb(64,128,128)" stroke-width="0"/>
		<line x1="478.906" y1="143.618" x2="478.906" y2="88.3888" stroke="rgb(64,128,128)" stroke-width="0"/>
		<line x1="504.358" y1="88.3888" x2="478.906" y2="88.3888" stroke="rgb(64,128,128)" stroke-width="0"/>
		<line x1="478.906" y1="143.618" x2="507.18" y2="115.301" stroke="rgb(64,128,128)" stroke-width="0"/>
		<path d="M507.18,115.301 a26.6045 26.6045 0 0 1 -2.82257,-26.9118" fill="none" stroke="rgb(64,128,128)" stroke-width="0"/>
		<line x1="504.358" y1="88.3888" x2="478.906" y2="143.618" stroke="rgb(64,128,128)" stroke-width="0"/>
	</g>
</svg>