<svg version = "1.1" xmlns = "http://www.w3.org/2000/svg" xmlns:xlink="http://www.w3.org/1999/xlink" width="1350.31" height="150.706" viewbox = "0 0 1350.31 150.706">
	<g transform="translate(-102.942,230.026) scale(1,-1) ">
		<line x1="440.045" y1="79.6728" x2="638.745" y2="79.6728" stroke="rgb(255,0,0)" stroke-width="0.705556"/>
		<line x1="638.745" y1="79.6728" x2="638.745" y2="229.673" stroke="rgb(255,255,0)" stroke-width="0.705556"/>
		<line x1="638.745" y1="229.673" x2="440.045" y2="229.673" stroke="rgb(255,0,0)" stroke-width="0.705556"/>
		<line x1="917.445" y1="229.673" x2="917.445" y2="79.6728" stroke="rgb(255,255,0)" stroke-width="0.705556"/>
		<line x1="638.745" y1="229.673" x2="917.445" y2="229.673" stroke="rgb(255,0,0)" stroke-width="0.705556"/>
		<line x1="917.445" y1="79.6728" x2="638.745" y2="79.6728" stroke="rgb(255,0,0)" stroke-width="0.705556"/>
		<line x1="917.445" y1="79.6728" x2="1116.14" y2="79.6728" stroke="rgb(255,0,0)" stroke-width="0.705556"/>
		<line x1="1116.14" y1="229.673" x2="917.445" y2="229.673" stroke="rgb(255,0,0)" stroke-width="0.705556"/>
		<line x1="440.045" y1="79.6728" x2="301.345" y2="79.6728" stroke="rgb(255,0,0)" stroke-width="0.705556"/>
		<line x1="301.345" y1="229.673" x2="440.045" y2="229.673" stroke="rgb(255,0,0)" stroke-width="0.705556"/>
		<line x1="440.045" y1="229.673" x2="440.045" y2="79.6728" stroke="rgb(255,255,0)" stroke-width="0.705556"/>
		<line x1="1116.14" y1="229.673" x2="1254.84" y2="229.673" stroke="rgb(255,0,0)" stroke-width="0.705556"/>
		<line x1="1254.84" y1="79.6728" x2="1116.14" y2="79.6728" stroke="rgb(255,0,0)" stroke-width="0.705556"/>
		<line x1="1116.14" y1="79.6728" x2="1116.14" y2="229.673" stroke="rgb(255,255,0)" stroke-width="0.705556"/>
		<line x1="301.345" y1="79.6728" x2="103.295" y2="79.6728" stroke="rgb(255,0,0)" stroke-width="0.705556"/>
		<line x1="103.295" y1="79.6728" x2="103.295" y2="229.673" stroke="rgb(255,0,0)" stroke-width="0.705556"/>
		<line x1="103.295" y1="229.673" x2="301.345" y2="229.673" stroke="rgb(255,0,0)" stroke-width="0.705556"/>
		<line x1="301.345" y1="229.673" x2="301.345" y2="79.6728" stroke="rgb(255,255,0)" stroke-width="0.705556"/>
		<line x1="1254.84" y1="229.673" x2="1452.89" y2="229.673" stroke="rgb(255,0,0)" stroke-width="0.705556"/>
		<line x1="1452.89" y1="229.673" x2="1452.89" y2="79.6728" stroke="rgb(255,0,0)" stroke-width="0.705556"/>
		<line x1="1452.89" y1="79.6728" x2="1254.84" y2="79.6728" stroke="rgb(255,0,0)" stroke-width="0.705556"/>
		<line x1="1254.84" y1="79.6728" x2="1254.84" y2="229.673" stroke="rgb(255,255,0)" stroke-width="0.705556"/>
		<line x1="778.095" y1="142.288" x2="778.095" y2="114.673" stroke="rgb(64,128,128)" stroke-width="0"/>
		<line x1="786.579" y1="123.878" x2="786.579" y2="114.673" stroke="rgb(64,128,128)" stroke-width="0"/>
		<line x1="782.337" y1="133.083" x2="782.337" y2="114.673" stroke="rgb(64,128,128)" stroke-width="0"/>
		<line x1="773.853" y1="151.492" x2="773.853" y2="114.673" stroke="rgb(64,128,128)" stroke-width="0"/>
		<line x1="769.611" y1="160.697" x2="769.611" y2="114.673" stroke="rgb(64,128,128)" stroke-width="0"/>
		<line x1="765.369" y1="169.902" x2="765.369" y2="114.673" stroke="rgb(64,128,128)" stroke-width="0"/>
		<line x1="790.821" y1="114.673" x2="765.369" y2="114.673" stroke="rgb(64,128,128)" stroke-width="0"/>
		<line x1="765.369" y1="169.902" x2="793.643" y2="141.585" stroke="rgb(64,128,128)" stroke-width="0"/>
		<path d="M793.643,141.585 a26.6045 26.6045 0 0 1 -2.82257,-26.9118" fill="none" stroke="rgb(64,128,128)" stroke-width="0"/>
		<line x1="790.821" y1="114.673" x2="765.369" y2="169.902" stroke="rgb(64,128,128)" stroke-width="0"/>
	</g>
</svg>