<svg version = "1.1" xmlns = "http://www.w3.org/2000/svg" xmlns:xlink="http://www.w3.org/1999/xlink" width="1150.31" height="150.706" viewbox = "0 0 1150.31 150.706">
	<g transform="translate(-96.9145,239.535) scale(1,-1) ">
		<line x1="434.017" y1="89.182" x2="572.717" y2="89.182" stroke="rgb(255,0,0)" stroke-width="0.705556"/>
		<line x1="572.717" y1="89.182" x2="572.717" y2="239.182" stroke="rgb(255,255,0)" stroke-width="0.705556"/>
		<line x1="572.717" y1="239.182" x2="434.017" y2="239.182" stroke="rgb(255,0,0)" stroke-width="0.705556"/>
		<line x1="771.417" y1="239.182" x2="771.417" y2="89.182" stroke="rgb(255,255,0)" stroke-width="0.705556"/>
		<line x1="572.717" y1="239.182" x2="771.417" y2="239.182" stroke="rgb(255,0,0)" stroke-width="0.705556"/>
		<line x1="771.417" y1="89.182" x2="572.717" y2="89.182" stroke="rgb(255,0,0)" stroke-width="0.705556"/>
		<line x1="771.417" y1="89.182" x2="910.117" y2="89.182" stroke="rgb(255,0,0)" stroke-width="0.705556"/>
		<line x1="910.117" y1="239.182" x2="771.417" y2="239.182" stroke="rgb(255,0,0)" stroke-width="0.705556"/>
		<line x1="434.017" y1="89.182" x2="235.317" y2="89.182" stroke="rgb(255,0,0)" stroke-width="0.705556"/>
		<line x1="235.317" y1="239.182" x2="434.017" y2="239.182" stroke="rgb(255,0,0)" stroke-width="0.705556"/>
		<line x1="434.017" y1="239.182" x2="434.017" y2="89.182" stroke="rgb(255,255,0)" stroke-width="0.705556"/>
		<line x1="910.117" y1="239.182" x2="1108.82" y2="239.182" stroke="rgb(255,0,0)" stroke-width="0.705556"/>
		<line x1="1108.82" y1="89.182" x2="910.117" y2="89.182" stroke="rgb(255,0,0)" stroke-width="0.705556"/>
		<line x1="910.117" y1="89.182" x2="910.117" y2="239.182" stroke="rgb(255,255,0)" stroke-width="0.705556"/>
		<line x1="235.317" y1="89.182" x2="97.2672" y2="89.182" stroke="rgb(255,0,0)" stroke-width="0.705556"/>
		<line x1="97.2672" y1="89.182" x2="97.2672" y2="239.182" stroke="rgb(255,0,0)" stroke-width="0.705556"/>
		<line x1="97.2672" y1="239.182" x2="235.317" y2="239.182" stroke="rgb(255,0,0)" stroke-width="0.705556"/>
		<line x1="235.317" y1="239.182" x2="235.317" y2="89.182" stroke="rgb(255,255,0)" stroke-width="0.705556"/>
		<line x1="1108.82" y1="239.182" x2="1246.87" y2="239.182" stroke="rgb(255,0,0)" stroke-width="0.705556"/>
		<line x1="1246.87" y1="239.182" x2="1246.87" y2="89.182" stroke="rgb(255,0,0)" stroke-width="0.705556"/>
		<line x1="1246.87" y1="89.182" x2="1108.82" y2="89.182" stroke="rgb(255,0,0)" stroke-width="0.705556"/>
		<line x1="1108.82" y1="89.182" x2="1108.82" y2="239.182" stroke="rgb(255,255,0)" stroke-width="0.705556"/>
		<line x1="672.067" y1="151.797" x2="672.067" y2="124.182" stroke="rgb(64,128,128)" stroke-width="0"/>
		<line x1="680.551" y1="133.387" x2="680.551" y2="124.182" stroke="rgb(64,128,128)" stroke-width="0"/>
		<line x1="676.309" y1="142.592" x2="676.309" y2="124.182" stroke="rgb(64,128,128)" stroke-width="0"/>
		<line x1="667.825" y1="161.002" x2="667.825" y2="124.182" stroke="rgb(64,128,128)" stroke-width="0"/>
		<line x1="663.583" y1="170.207" x2="663.583" y2="124.182" stroke="rgb(64,128,128)" stroke-width="0"/>
		<line x1="659.341" y1="179.412" x2="659.341" y2="124.182" stroke="rgb(64,128,128)" stroke-width="0"/>
		<line x1="684.793" y1="124.182" x2="659.341" y2="124.182" stroke="rgb(64,128,128)" stroke-width="0"/>
		<line x1="659.341" y1="179.412" x2="687.616" y2="151.094" stroke="rgb(64,128,128)" stroke-width="0"/>
		<path d="M687.616,151.094 a26.6045 26.6045 0 0 1 -2.82257,-26.9118" fill="none" stroke="rgb(64,128,128)" stroke-width="0"/>
		<line x1="684.793" y1="124.182" x2="659.341" y2="179.412" stroke="rgb(64,128,128)" stroke-width="0"/>
	</g>
</svg>