<svg version = "1.1" xmlns = "http://www.w3.org/2000/svg" xmlns:xlink="http://www.w3.org/1999/xlink" width="424.606" height="100.706" viewbox = "0 0 424.606 100.706">
	<g transform="translate(-32.7327,138.884) scale(1,-1) ">
		<line x1="103.086" y1="38.5315" x2="386.986" y2="38.5315" stroke="rgb(255,0,0)" stroke-width="0.705556"/>
		<line x1="386.986" y1="138.531" x2="316.336" y2="138.531" stroke="rgb(255,0,0)" stroke-width="0.705556"/>
		<line x1="315.036" y1="138.531" x2="175.036" y2="138.531" stroke="rgb(255,0,0)" stroke-width="0.705556"/>
		<line x1="173.736" y1="138.531" x2="103.086" y2="138.531" stroke="rgb(255,0,0)" stroke-width="0.705556"/>
		<line x1="386.986" y1="138.531" x2="456.986" y2="138.531" stroke="rgb(255,0,0)" stroke-width="0.705556"/>
		<line x1="456.986" y1="138.531" x2="456.986" y2="38.5315" stroke="rgb(255,0,0)" stroke-width="0.705556"/>
		<line x1="456.986" y1="38.5315" x2="386.986" y2="38.5315" stroke="rgb(255,0,0)" stroke-width="0.705556"/>
		<line x1="386.986" y1="38.5315" x2="386.986" y2="138.531" stroke="rgb(255,255,0)" stroke-width="0.705556"/>
		<line x1="103.086" y1="38.5315" x2="33.0855" y2="38.5315" stroke="rgb(255,0,0)" stroke-width="0.705556"/>
		<line x1="33.0855" y1="38.5315" x2="33.0855" y2="138.531" stroke="rgb(255,0,0)" stroke-width="0.705556"/>
		<line x1="33.0855" y1="138.531" x2="103.086" y2="138.531" stroke="rgb(255,0,0)" stroke-width="0.705556"/>
		<line x1="103.086" y1="138.531" x2="103.086" y2="38.5315" stroke="rgb(255,255,0)" stroke-width="0.705556"/>
		<line x1="173.736" y1="138.531" x2="173.736" y2="87.5315" stroke="rgb(255,0,0)" stroke-width="0.705556"/>
		<line x1="173.736" y1="87.5315" x2="175.036" y2="87.5315" stroke="rgb(255,0,0)" stroke-width="0.705556"/>
		<line x1="175.036" y1="87.5315" x2="175.036" y2="138.531" stroke="rgb(255,0,0)" stroke-width="0.705556"/>
		<line x1="316.336" y1="138.531" x2="316.336" y2="87.5315" stroke="rgb(255,0,0)" stroke-width="0.705556"/>
		<line x1="316.336" y1="87.5315" x2="315.036" y2="87.5315" stroke="rgb(255,0,0)" stroke-width="0.705556"/>
		<line x1="315.036" y1="87.5315" x2="315.036" y2="138.531" stroke="rgb(255,0,0)" stroke-width="0.705556"/>
		<line x1="251.408" y1="76.2575" x2="223.793" y2="76.2575" stroke="rgb(64,128,128)" stroke-width="0"/>
		<line x1="232.998" y1="84.7415" x2="223.793" y2="84.7415" stroke="rgb(64,128,128)" stroke-width="0"/>
		<line x1="242.203" y1="80.4995" x2="223.793" y2="80.4995" stroke="rgb(64,128,128)" stroke-width="0"/>
		<line x1="260.613" y1="72.0155" x2="223.793" y2="72.0155" stroke="rgb(64,128,128)" stroke-width="0"/>
		<line x1="269.818" y1="67.7735" x2="223.793" y2="67.7735" stroke="rgb(64,128,128)" stroke-width="0"/>
		<line x1="279.023" y1="63.5315" x2="223.793" y2="63.5315" stroke="rgb(64,128,128)" stroke-width="0"/>
		<line x1="223.793" y1="88.9835" x2="223.793" y2="63.5315" stroke="rgb(64,128,128)" stroke-width="0"/>
		<line x1="279.023" y1="63.5315" x2="250.705" y2="91.8061" stroke="rgb(64,128,128)" stroke-width="0"/>
		<path d="M250.705,91.8061 a26.6045 26.6045 0 0 0 -26.9118,-2.82257" fill="none" stroke="rgb(64,128,128)" stroke-width="0"/>
		<line x1="223.793" y1="88.9835" x2="279.023" y2="63.5315" stroke="rgb(64,128,128)" stroke-width="0"/>
	</g>
</svg>