<svg version = "1.1" xmlns = "http://www.w3.org/2000/svg" xmlns:xlink="http://www.w3.org/1999/xlink" width="428.506" height="50.7056" viewbox = "0 0 428.506 50.7056">
	<g transform="translate(-40.1215,93.9845) scale(1,-1) ">
		<line x1="40.4743" y1="43.6317" x2="468.274" y2="43.6317" stroke="rgb(255,0,0)" stroke-width="0.705556"/>
		<line x1="468.274" y1="43.6317" x2="468.274" y2="93.6317" stroke="rgb(255,0,0)" stroke-width="0.705556"/>
		<line x1="468.274" y1="93.6317" x2="433.274" y2="93.6317" stroke="rgb(255,0,0)" stroke-width="0.705556"/>
		<line x1="431.974" y1="93.6317" x2="361.974" y2="93.6317" stroke="rgb(255,0,0)" stroke-width="0.705556"/>
		<line x1="360.674" y1="93.6317" x2="290.674" y2="93.6317" stroke="rgb(255,0,0)" stroke-width="0.705556"/>
		<line x1="289.374" y1="93.6317" x2="219.374" y2="93.6317" stroke="rgb(255,0,0)" stroke-width="0.705556"/>
		<line x1="218.074" y1="93.6317" x2="148.074" y2="93.6317" stroke="rgb(255,0,0)" stroke-width="0.705556"/>
		<line x1="146.774" y1="93.6317" x2="76.7743" y2="93.6317" stroke="rgb(255,0,0)" stroke-width="0.705556"/>
		<line x1="75.4743" y1="93.6317" x2="40.4743" y2="93.6317" stroke="rgb(255,0,0)" stroke-width="0.705556"/>
		<line x1="40.4743" y1="93.6317" x2="40.4743" y2="43.6317" stroke="rgb(255,0,0)" stroke-width="0.705556"/>
		<line x1="75.4743" y1="93.6317" x2="75.4743" y2="67.6317" stroke="rgb(255,0,0)" stroke-width="0.705556"/>
		<line x1="75.4743" y1="67.6317" x2="76.7743" y2="67.6317" stroke="rgb(255,0,0)" stroke-width="0.705556"/>
		<line x1="76.7743" y1="67.6317" x2="76.7743" y2="93.6317" stroke="rgb(255,0,0)" stroke-width="0.705556"/>
		<line x1="146.774" y1="93.6317" x2="146.774" y2="67.6317" stroke="rgb(255,0,0)" stroke-width="0.705556"/>
		<line x1="146.774" y1="67.6317" x2="148.074" y2="67.6317" stroke="rgb(255,0,0)" stroke-width="0.705556"/>
		<line x1="148.074" y1="67.6317" x2="148.074" y2="93.6317" stroke="rgb(255,0,0)" stroke-width="0.705556"/>
		<line x1="218.074" y1="93.6317" x2="218.074" y2="67.6317" stroke="rgb(255,0,0)" stroke-width="0.705556"/>
		<line x1="218.074" y1="67.6317" x2="219.374" y2="67.6317" stroke="rgb(255,0,0)" stroke-width="0.705556"/>
		<line x1="219.374" y1="67.6317" x2="219.374" y2="93.6317" stroke="rgb(255,0,0)" stroke-width="0.705556"/>
		<line x1="289.374" y1="93.6317" x2="289.374" y2="67.6317" stroke="rgb(255,0,0)" stroke-width="0.705556"/>
		<line x1="289.374" y1="67.6317" x2="290.674" y2="67.6317" stroke="rgb(255,0,0)" stroke-width="0.705556"/>
		<line x1="290.674" y1="67.6317" x2="290.674" y2="93.6317" stroke="rgb(255,0,0)" stroke-width="0.705556"/>
		<line x1="360.674" y1="93.6317" x2="360.674" y2="67.6317" stroke="rgb(255,0,0)" stroke-width="0.705556"/>
		<line x1="360.674" y1="67.6317" x2="361.974" y2="67.6317" stroke="rgb(255,0,0)" stroke-width="0.705556"/>
		<line x1="361.974" y1="67.6317" x2="361.974" y2="93.6317" stroke="rgb(255,0,0)" stroke-width="0.705556"/>
		<line x1="431.974" y1="93.6317" x2="431.974" y2="67.6317" stroke="rgb(255,0,0)" stroke-width="0.705556"/>
		<line x1="431.974" y1="67.6317" x2="433.274" y2="67.6317" stroke="rgb(255,0,0)" stroke-width="0.705556"/>
		<line x1="433.274" y1="67.6317" x2="433.274" y2="93.6317" stroke="rgb(255,0,0)" stroke-width="0.705556"/>
	</g>
</svg>