<svg version = "1.1" xmlns = "http://www.w3.org/2000/svg" xmlns:xlink="http://www.w3.org/1999/xlink" width="284.606" height="50.7056" viewbox = "0 0 284.606 50.7056">
	<g transform="translate(-40.1215,93.9845) scale(1,-1) ">
		<line x1="40.4743" y1="43.6317" x2="324.374" y2="43.6317" stroke="rgb(255,0,0)" stroke-width="0.705556"/>
		<line x1="324.374" y1="43.6317" x2="324.374" y2="93.6317" stroke="rgb(255,0,0)" stroke-width="0.705556"/>
		<line x1="324.374" y1="93.6317" x2="254.374" y2="93.6317" stroke="rgb(255,0,0)" stroke-width="0.705556"/>
		<line x1="253.074" y1="93.6317" x2="183.074" y2="93.6317" stroke="rgb(255,0,0)" stroke-width="0.705556"/>
		<line x1="181.774" y1="93.6317" x2="111.774" y2="93.6317" stroke="rgb(255,0,0)" stroke-width="0.705556"/>
		<line x1="110.474" y1="93.6317" x2="40.4743" y2="93.6317" stroke="rgb(255,0,0)" stroke-width="0.705556"/>
		<line x1="40.4743" y1="93.6317" x2="40.4743" y2="43.6317" stroke="rgb(255,0,0)" stroke-width="0.705556"/>
		<line x1="254.374" y1="93.6317" x2="254.374" y2="67.6317" stroke="rgb(255,0,0)" stroke-width="0.705556"/>
		<line x1="254.374" y1="67.6317" x2="253.074" y2="67.6317" stroke="rgb(255,0,0)" stroke-width="0.705556"/>
		<line x1="253.074" y1="67.6317" x2="253.074" y2="93.6317" stroke="rgb(255,0,0)" stroke-width="0.705556"/>
		<line x1="183.074" y1="93.6317" x2="183.074" y2="67.6317" stroke="rgb(255,0,0)" stroke-width="0.705556"/>
		<line x1="183.074" y1="67.6317" x2="181.774" y2="67.6317" stroke="rgb(255,0,0)" stroke-width="0.705556"/>
		<line x1="181.774" y1="67.6317" x2="181.774" y2="93.6317" stroke="rgb(255,0,0)" stroke-width="0.705556"/>
		<line x1="111.774" y1="93.6317" x2="111.774" y2="67.6317" stroke="rgb(255,0,0)" stroke-width="0.705556"/>
		<line x1="111.774" y1="67.6317" x2="110.474" y2="67.6317" stroke="rgb(255,0,0)" stroke-width="0.705556"/>
		<line x1="110.474" y1="67.6317" x2="110.474" y2="93.6317" stroke="rgb(255,0,0)" stroke-width="0.705556"/>
	</g>
</svg>