<svg version = "1.1" xmlns = "http://www.w3.org/2000/svg" xmlns:xlink="http://www.w3.org/1999/xlink" width="695.106" height="200.706" viewbox = "0 0 695.106 200.706">
	<g transform="translate(-246.128,282.869) scale(1,-1) ">
		<line x1="469.33" y1="82.5162" x2="518.03" y2="82.5162" stroke="rgb(255,0,0)" stroke-width="0.705556"/>
		<line x1="518.03" y1="82.5162" x2="518.03" y2="282.516" stroke="rgb(255,255,0)" stroke-width="0.705556"/>
		<line x1="518.03" y1="282.516" x2="469.33" y2="282.516" stroke="rgb(255,0,0)" stroke-width="0.705556"/>
		<line x1="669.33" y1="282.516" x2="669.33" y2="82.5162" stroke="rgb(255,255,0)" stroke-width="0.705556"/>
		<line x1="518.03" y1="282.516" x2="669.33" y2="282.516" stroke="rgb(255,0,0)" stroke-width="0.705556"/>
		<line x1="669.33" y1="82.5162" x2="518.03" y2="82.5162" stroke="rgb(255,0,0)" stroke-width="0.705556"/>
		<line x1="669.33" y1="82.5162" x2="718.03" y2="82.5162" stroke="rgb(255,0,0)" stroke-width="0.705556"/>
		<line x1="718.03" y1="282.516" x2="669.33" y2="282.516" stroke="rgb(255,0,0)" stroke-width="0.705556"/>
		<line x1="718.03" y1="282.516" x2="781.73" y2="282.516" stroke="rgb(255,0,0)" stroke-width="0.705556"/>
		<line x1="781.73" y1="82.5162" x2="718.03" y2="82.5162" stroke="rgb(255,0,0)" stroke-width="0.705556"/>
		<line x1="718.03" y1="82.5162" x2="718.03" y2="282.516" stroke="rgb(255,255,0)" stroke-width="0.705556"/>
		<line x1="469.33" y1="82.5162" x2="405.63" y2="82.5162" stroke="rgb(255,0,0)" stroke-width="0.705556"/>
		<line x1="405.63" y1="282.516" x2="469.33" y2="282.516" stroke="rgb(255,0,0)" stroke-width="0.705556"/>
		<line x1="469.33" y1="282.516" x2="469.33" y2="82.5162" stroke="rgb(255,255,0)" stroke-width="0.705556"/>
		<line x1="781.73" y1="282.516" x2="830.43" y2="282.516" stroke="rgb(255,0,0)" stroke-width="0.705556"/>
		<line x1="830.43" y1="82.5162" x2="781.73" y2="82.5162" stroke="rgb(255,0,0)" stroke-width="0.705556"/>
		<line x1="781.73" y1="82.5162" x2="781.73" y2="282.516" stroke="rgb(255,255,0)" stroke-width="0.705556"/>
		<line x1="405.63" y1="82.5162" x2="356.93" y2="82.5162" stroke="rgb(255,0,0)" stroke-width="0.705556"/>
		<line x1="356.93" y1="282.516" x2="405.63" y2="282.516" stroke="rgb(255,0,0)" stroke-width="0.705556"/>
		<line x1="405.63" y1="282.516" x2="405.63" y2="82.5162" stroke="rgb(255,255,0)" stroke-width="0.705556"/>
		<line x1="830.43" y1="282.516" x2="892.83" y2="282.516" stroke="rgb(255,0,0)" stroke-width="0.705556"/>
		<line x1="892.83" y1="82.5162" x2="830.43" y2="82.5162" stroke="rgb(255,0,0)" stroke-width="0.705556"/>
		<line x1="830.43" y1="82.5162" x2="830.43" y2="282.516" stroke="rgb(255,255,0)" stroke-width="0.705556"/>
		<line x1="356.93" y1="82.5162" x2="294.53" y2="82.5162" stroke="rgb(255,0,0)" stroke-width="0.705556"/>
		<line x1="294.53" y1="282.516" x2="356.93" y2="282.516" stroke="rgb(255,0,0)" stroke-width="0.705556"/>
		<line x1="356.93" y1="282.516" x2="356.93" y2="82.5162" stroke="rgb(255,255,0)" stroke-width="0.705556"/>
		<line x1="892.83" y1="282.516" x2="940.88" y2="282.516" stroke="rgb(255,0,0)" stroke-width="0.705556"/>
		<line x1="940.88" y1="282.516" x2="940.88" y2="82.5162" stroke="rgb(255,0,0)" stroke-width="0.705556"/>
		<line x1="940.88" y1="82.5162" x2="892.83" y2="82.5162" stroke="rgb(255,0,0)" stroke-width="0.705556"/>
		<line x1="892.83" y1="82.5162" x2="892.83" y2="282.516" stroke="rgb(255,255,0)" stroke-width="0.705556"/>
		<line x1="294.53" y1="82.5162" x2="246.48" y2="82.5162" stroke="rgb(255,0,0)" stroke-width="0.705556"/>
		<line x1="246.48" y1="82.5162" x2="246.48" y2="282.516" stroke="rgb(255,0,0)" stroke-width="0.705556"/>
		<line x1="246.48" y1="282.516" x2="294.53" y2="282.516" stroke="rgb(255,0,0)" stroke-width="0.705556"/>
		<line x1="294.53" y1="282.516" x2="294.53" y2="82.5162" stroke="rgb(255,255,0)" stroke-width="0.705556"/>
		<line x1="593.68" y1="145.131" x2="593.68" y2="117.516" stroke="rgb(64,128,128)" stroke-width="0"/>
		<line x1="602.164" y1="126.721" x2="602.164" y2="117.516" stroke="rgb(64,128,128)" stroke-width="0"/>
		<line x1="597.922" y1="135.926" x2="597.922" y2="117.516" stroke="rgb(64,128,128)" stroke-width="0"/>
		<line x1="589.438" y1="154.336" x2="589.438" y2="117.516" stroke="rgb(64,128,128)" stroke-width="0"/>
		<line x1="585.196" y1="163.541" x2="585.196" y2="117.516" stroke="rgb(64,128,128)" stroke-width="0"/>
		<line x1="580.954" y1="172.746" x2="580.954" y2="117.516" stroke="rgb(64,128,128)" stroke-width="0"/>
		<line x1="606.406" y1="117.516" x2="580.954" y2="117.516" stroke="rgb(64,128,128)" stroke-width="0"/>
		<line x1="580.954" y1="172.746" x2="609.229" y2="144.428" stroke="rgb(64,128,128)" stroke-width="0"/>
		<path d="M609.229,144.428 a26.6045 26.6045 0 0 1 -2.82257,-26.9118" fill="none" stroke="rgb(64,128,128)" stroke-width="0"/>
		<line x1="606.406" y1="117.516" x2="580.954" y2="172.746" stroke="rgb(64,128,128)" stroke-width="0"/>
	</g>
</svg>