<svg version = "1.1" xmlns = "http://www.w3.org/2000/svg" xmlns:xlink="http://www.w3.org/1999/xlink" width="970.149" height="200.706" viewbox = "0 0 970.149 200.706">
	<g transform="translate(-43.2411,260.98) scale(1,-1) ">
		<line x1="340.266" y1="60.6276" x2="388.966" y2="60.6276" stroke="rgb(255,0,0)" stroke-width="0.705556"/>
		<line x1="388.966" y1="60.6276" x2="388.966" y2="260.628" stroke="rgb(255,255,0)" stroke-width="0.705556"/>
		<line x1="388.966" y1="260.628" x2="340.266" y2="260.628" stroke="rgb(255,0,0)" stroke-width="0.705556"/>
		<line x1="667.666" y1="260.628" x2="667.666" y2="60.6276" stroke="rgb(255,255,0)" stroke-width="0.705556"/>
		<line x1="388.966" y1="260.628" x2="667.666" y2="260.628" stroke="rgb(255,0,0)" stroke-width="0.705556"/>
		<line x1="667.666" y1="60.6276" x2="388.966" y2="60.6276" stroke="rgb(255,0,0)" stroke-width="0.705556"/>
		<line x1="667.666" y1="60.6276" x2="716.366" y2="60.6276" stroke="rgb(255,0,0)" stroke-width="0.705556"/>
		<line x1="716.366" y1="260.628" x2="667.666" y2="260.628" stroke="rgb(255,0,0)" stroke-width="0.705556"/>
		<line x1="716.366" y1="260.628" x2="796.366" y2="260.628" stroke="rgb(255,0,0)" stroke-width="0.705556"/>
		<line x1="796.366" y1="60.6276" x2="716.366" y2="60.6276" stroke="rgb(255,0,0)" stroke-width="0.705556"/>
		<line x1="716.366" y1="60.6276" x2="716.366" y2="260.628" stroke="rgb(255,255,0)" stroke-width="0.705556"/>
		<line x1="340.266" y1="60.6276" x2="260.266" y2="60.6276" stroke="rgb(255,0,0)" stroke-width="0.705556"/>
		<line x1="260.266" y1="260.628" x2="340.266" y2="260.628" stroke="rgb(255,0,0)" stroke-width="0.705556"/>
		<line x1="340.266" y1="260.628" x2="340.266" y2="60.6276" stroke="rgb(255,255,0)" stroke-width="0.705556"/>
		<line x1="796.366" y1="260.628" x2="843.766" y2="260.628" stroke="rgb(255,0,0)" stroke-width="0.705556"/>
		<line x1="843.766" y1="60.6276" x2="796.366" y2="60.6276" stroke="rgb(255,0,0)" stroke-width="0.705556"/>
		<line x1="796.366" y1="60.6276" x2="796.366" y2="260.628" stroke="rgb(255,255,0)" stroke-width="0.705556"/>
		<line x1="260.266" y1="60.6276" x2="212.866" y2="60.6276" stroke="rgb(255,0,0)" stroke-width="0.705556"/>
		<line x1="212.866" y1="260.628" x2="260.266" y2="260.628" stroke="rgb(255,0,0)" stroke-width="0.705556"/>
		<line x1="260.266" y1="260.628" x2="260.266" y2="60.6276" stroke="rgb(255,255,0)" stroke-width="0.705556"/>
		<line x1="843.766" y1="260.628" x2="922.466" y2="260.628" stroke="rgb(255,0,0)" stroke-width="0.705556"/>
		<line x1="922.466" y1="60.6276" x2="843.766" y2="60.6276" stroke="rgb(255,0,0)" stroke-width="0.705556"/>
		<line x1="843.766" y1="60.6276" x2="843.766" y2="260.628" stroke="rgb(255,255,0)" stroke-width="0.705556"/>
		<line x1="212.866" y1="60.6276" x2="134.166" y2="60.6276" stroke="rgb(255,0,0)" stroke-width="0.705556"/>
		<line x1="134.166" y1="260.628" x2="212.866" y2="260.628" stroke="rgb(255,0,0)" stroke-width="0.705556"/>
		<line x1="212.866" y1="260.628" x2="212.866" y2="60.6276" stroke="rgb(255,255,0)" stroke-width="0.705556"/>
		<line x1="134.166" y1="60.6276" x2="43.5939" y2="60.6276" stroke="rgb(255,0,0)" stroke-width="0.705556"/>
		<line x1="43.5939" y1="60.6276" x2="43.5939" y2="260.628" stroke="rgb(255,0,0)" stroke-width="0.705556"/>
		<line x1="43.5939" y1="260.628" x2="134.166" y2="260.628" stroke="rgb(255,0,0)" stroke-width="0.705556"/>
		<line x1="134.166" y1="260.628" x2="134.166" y2="60.6276" stroke="rgb(255,255,0)" stroke-width="0.705556"/>
		<line x1="922.466" y1="260.628" x2="1013.04" y2="260.628" stroke="rgb(255,0,0)" stroke-width="0.705556"/>
		<line x1="1013.04" y1="260.628" x2="1013.04" y2="60.6276" stroke="rgb(255,0,0)" stroke-width="0.705556"/>
		<line x1="1013.04" y1="60.6276" x2="922.466" y2="60.6276" stroke="rgb(255,0,0)" stroke-width="0.705556"/>
		<line x1="922.466" y1="60.6276" x2="922.466" y2="260.628" stroke="rgb(255,255,0)" stroke-width="0.705556"/>
		<line x1="528.316" y1="123.242" x2="528.316" y2="95.6276" stroke="rgb(64,128,128)" stroke-width="0"/>
		<line x1="536.8" y1="104.833" x2="536.8" y2="95.6276" stroke="rgb(64,128,128)" stroke-width="0"/>
		<line x1="532.558" y1="114.037" x2="532.558" y2="95.6276" stroke="rgb(64,128,128)" stroke-width="0"/>
		<line x1="524.074" y1="132.447" x2="524.074" y2="95.6276" stroke="rgb(64,128,128)" stroke-width="0"/>
		<line x1="519.832" y1="141.652" x2="519.832" y2="95.6276" stroke="rgb(64,128,128)" stroke-width="0"/>
		<line x1="515.59" y1="150.857" x2="515.59" y2="95.6276" stroke="rgb(64,128,128)" stroke-width="0"/>
		<line x1="541.042" y1="95.6276" x2="515.59" y2="95.6276" stroke="rgb(64,128,128)" stroke-width="0"/>
		<line x1="515.59" y1="150.857" x2="543.864" y2="122.539" stroke="rgb(64,128,128)" stroke-width="0"/>
		<path d="M543.864,122.539 a26.6045 26.6045 0 0 1 -2.82257,-26.9118" fill="none" stroke="rgb(64,128,128)" stroke-width="0"/>
		<line x1="541.042" y1="95.6276" x2="515.59" y2="150.857" stroke="rgb(64,128,128)" stroke-width="0"/>
	</g>
</svg>