<svg version = "1.1" xmlns = "http://www.w3.org/2000/svg" xmlns:xlink="http://www.w3.org/1999/xlink" width="1523.04" height="200.706" viewbox = "0 0 1523.04 200.706">
	<g transform="translate(-103.655,281.934) scale(1,-1) ">
		<line x1="725.173" y1="81.5815" x2="1005.17" y2="81.5815" stroke="rgb(255,0,0)" stroke-width="0.705556"/>
		<line x1="1005.17" y1="281.582" x2="725.173" y2="281.582" stroke="rgb(255,0,0)" stroke-width="0.705556"/>
		<line x1="1005.17" y1="281.582" x2="1160.46" y2="281.582" stroke="rgb(255,0,0)" stroke-width="0.705556"/>
		<line x1="1160.46" y1="81.5815" x2="1005.17" y2="81.5815" stroke="rgb(255,0,0)" stroke-width="0.705556"/>
		<line x1="1005.17" y1="81.5815" x2="1005.17" y2="281.582" stroke="rgb(255,255,0)" stroke-width="0.705556"/>
		<line x1="725.173" y1="81.5815" x2="569.882" y2="81.5815" stroke="rgb(255,0,0)" stroke-width="0.705556"/>
		<line x1="569.882" y1="281.582" x2="725.173" y2="281.582" stroke="rgb(255,0,0)" stroke-width="0.705556"/>
		<line x1="725.173" y1="281.582" x2="725.173" y2="81.5815" stroke="rgb(255,255,0)" stroke-width="0.705556"/>
		<line x1="1160.46" y1="281.582" x2="1315.76" y2="281.582" stroke="rgb(255,0,0)" stroke-width="0.705556"/>
		<line x1="1315.76" y1="81.5815" x2="1160.46" y2="81.5815" stroke="rgb(255,0,0)" stroke-width="0.705556"/>
		<line x1="1160.46" y1="81.5815" x2="1160.46" y2="281.582" stroke="rgb(255,255,0)" stroke-width="0.705556"/>
		<line x1="569.882" y1="81.5815" x2="414.59" y2="81.5815" stroke="rgb(255,0,0)" stroke-width="0.705556"/>
		<line x1="414.59" y1="281.582" x2="569.882" y2="281.582" stroke="rgb(255,0,0)" stroke-width="0.705556"/>
		<line x1="569.882" y1="281.582" x2="569.882" y2="81.5815" stroke="rgb(255,255,0)" stroke-width="0.705556"/>
		<line x1="1315.76" y1="281.582" x2="1471.05" y2="281.582" stroke="rgb(255,0,0)" stroke-width="0.705556"/>
		<line x1="1471.05" y1="81.5815" x2="1315.76" y2="81.5815" stroke="rgb(255,0,0)" stroke-width="0.705556"/>
		<line x1="1315.76" y1="81.5815" x2="1315.76" y2="281.582" stroke="rgb(255,255,0)" stroke-width="0.705556"/>
		<line x1="1471.05" y1="281.582" x2="1626.34" y2="281.582" stroke="rgb(255,0,0)" stroke-width="0.705556"/>
		<line x1="1626.34" y1="281.582" x2="1626.34" y2="81.5815" stroke="rgb(255,0,0)" stroke-width="0.705556"/>
		<line x1="1626.34" y1="81.5815" x2="1471.05" y2="81.5815" stroke="rgb(255,0,0)" stroke-width="0.705556"/>
		<line x1="1471.05" y1="81.5815" x2="1471.05" y2="281.582" stroke="rgb(255,255,0)" stroke-width="0.705556"/>
		<line x1="414.59" y1="81.5815" x2="259.299" y2="81.5815" stroke="rgb(255,0,0)" stroke-width="0.705556"/>
		<line x1="259.299" y1="281.582" x2="414.59" y2="281.582" stroke="rgb(255,0,0)" stroke-width="0.705556"/>
		<line x1="414.59" y1="281.582" x2="414.59" y2="81.5815" stroke="rgb(255,255,0)" stroke-width="0.705556"/>
		<line x1="259.299" y1="81.5815" x2="104.008" y2="81.5815" stroke="rgb(255,0,0)" stroke-width="0.705556"/>
		<line x1="104.008" y1="81.5815" x2="104.008" y2="281.582" stroke="rgb(255,0,0)" stroke-width="0.705556"/>
		<line x1="104.008" y1="281.582" x2="259.299" y2="281.582" stroke="rgb(255,0,0)" stroke-width="0.705556"/>
		<line x1="259.299" y1="281.582" x2="259.299" y2="81.5815" stroke="rgb(255,255,0)" stroke-width="0.705556"/>
		<line x1="865.173" y1="144.196" x2="865.173" y2="116.582" stroke="rgb(64,128,128)" stroke-width="0"/>
		<line x1="873.657" y1="125.786" x2="873.657" y2="116.582" stroke="rgb(64,128,128)" stroke-width="0"/>
		<line x1="869.415" y1="134.991" x2="869.415" y2="116.582" stroke="rgb(64,128,128)" stroke-width="0"/>
		<line x1="860.931" y1="153.401" x2="860.931" y2="116.582" stroke="rgb(64,128,128)" stroke-width="0"/>
		<line x1="856.689" y1="162.606" x2="856.689" y2="116.582" stroke="rgb(64,128,128)" stroke-width="0"/>
		<line x1="852.447" y1="171.811" x2="852.447" y2="116.582" stroke="rgb(64,128,128)" stroke-width="0"/>
		<line x1="877.899" y1="116.582" x2="852.447" y2="116.582" stroke="rgb(64,128,128)" stroke-width="0"/>
		<line x1="852.447" y1="171.811" x2="880.722" y2="143.493" stroke="rgb(64,128,128)" stroke-width="0"/>
		<path d="M880.722,143.493 a26.6045 26.6045 0 0 1 -2.82257,-26.9118" fill="none" stroke="rgb(64,128,128)" stroke-width="0"/>
		<line x1="877.899" y1="116.582" x2="852.447" y2="171.811" stroke="rgb(64,128,128)" stroke-width="0"/>
	</g>
</svg>