<svg version = "1.1" xmlns = "http://www.w3.org/2000/svg" xmlns:xlink="http://www.w3.org/1999/xlink" width="690.706" height="100.706" viewbox = "0 0 690.706 100.706">
	<g transform="translate(-112.274,139.939) scale(1,-1) ">
		<line x1="382.627" y1="39.5867" x2="532.627" y2="39.5867" stroke="rgb(255,0,0)" stroke-width="0.705556"/>
		<line x1="532.627" y1="139.587" x2="382.627" y2="139.587" stroke="rgb(255,0,0)" stroke-width="0.705556"/>
		<line x1="532.627" y1="139.587" x2="582.627" y2="139.587" stroke="rgb(255,0,0)" stroke-width="0.705556"/>
		<line x1="582.627" y1="39.5867" x2="532.627" y2="39.5867" stroke="rgb(255,0,0)" stroke-width="0.705556"/>
		<line x1="532.627" y1="39.5867" x2="532.627" y2="139.587" stroke="rgb(255,255,0)" stroke-width="0.705556"/>
		<line x1="382.627" y1="39.5867" x2="332.627" y2="39.5867" stroke="rgb(255,0,0)" stroke-width="0.705556"/>
		<line x1="332.627" y1="139.587" x2="382.627" y2="139.587" stroke="rgb(255,0,0)" stroke-width="0.705556"/>
		<line x1="382.627" y1="139.587" x2="382.627" y2="39.5867" stroke="rgb(255,255,0)" stroke-width="0.705556"/>
		<line x1="582.627" y1="139.587" x2="682.627" y2="139.587" stroke="rgb(255,0,0)" stroke-width="0.705556"/>
		<line x1="682.627" y1="39.5867" x2="582.627" y2="39.5867" stroke="rgb(255,0,0)" stroke-width="0.705556"/>
		<line x1="582.627" y1="39.5867" x2="582.627" y2="139.587" stroke="rgb(255,255,0)" stroke-width="0.705556"/>
		<line x1="332.627" y1="39.5867" x2="232.627" y2="39.5867" stroke="rgb(255,0,0)" stroke-width="0.705556"/>
		<line x1="232.627" y1="139.587" x2="332.627" y2="139.587" stroke="rgb(255,0,0)" stroke-width="0.705556"/>
		<line x1="332.627" y1="139.587" x2="332.627" y2="39.5867" stroke="rgb(255,255,0)" stroke-width="0.705556"/>
		<line x1="682.627" y1="139.587" x2="732.627" y2="139.587" stroke="rgb(255,0,0)" stroke-width="0.705556"/>
		<line x1="732.627" y1="39.5867" x2="682.627" y2="39.5867" stroke="rgb(255,0,0)" stroke-width="0.705556"/>
		<line x1="682.627" y1="39.5867" x2="682.627" y2="139.587" stroke="rgb(255,255,0)" stroke-width="0.705556"/>
		<line x1="232.627" y1="39.5867" x2="182.627" y2="39.5867" stroke="rgb(255,0,0)" stroke-width="0.705556"/>
		<line x1="182.627" y1="139.587" x2="232.627" y2="139.587" stroke="rgb(255,0,0)" stroke-width="0.705556"/>
		<line x1="232.627" y1="139.587" x2="232.627" y2="39.5867" stroke="rgb(255,255,0)" stroke-width="0.705556"/>
		<line x1="732.627" y1="139.587" x2="802.627" y2="139.587" stroke="rgb(255,0,0)" stroke-width="0.705556"/>
		<line x1="802.627" y1="139.587" x2="802.627" y2="39.5867" stroke="rgb(255,0,0)" stroke-width="0.705556"/>
		<line x1="802.627" y1="39.5867" x2="732.627" y2="39.5867" stroke="rgb(255,0,0)" stroke-width="0.705556"/>
		<line x1="732.627" y1="39.5867" x2="732.627" y2="139.587" stroke="rgb(255,255,0)" stroke-width="0.705556"/>
		<line x1="182.627" y1="39.5867" x2="112.627" y2="39.5867" stroke="rgb(255,0,0)" stroke-width="0.705556"/>
		<line x1="112.627" y1="39.5867" x2="112.627" y2="139.587" stroke="rgb(255,0,0)" stroke-width="0.705556"/>
		<line x1="112.627" y1="139.587" x2="182.627" y2="139.587" stroke="rgb(255,0,0)" stroke-width="0.705556"/>
		<line x1="182.627" y1="139.587" x2="182.627" y2="39.5867" stroke="rgb(255,255,0)" stroke-width="0.705556"/>
		<line x1="457.627" y1="102.201" x2="457.627" y2="74.5867" stroke="rgb(64,128,128)" stroke-width="0"/>
		<line x1="466.111" y1="83.7916" x2="466.111" y2="74.5867" stroke="rgb(64,128,128)" stroke-width="0"/>
		<line x1="461.869" y1="92.9965" x2="461.869" y2="74.5867" stroke="rgb(64,128,128)" stroke-width="0"/>
		<line x1="453.385" y1="111.406" x2="453.385" y2="74.5867" stroke="rgb(64,128,128)" stroke-width="0"/>
		<line x1="449.143" y1="120.611" x2="449.143" y2="74.5867" stroke="rgb(64,128,128)" stroke-width="0"/>
		<line x1="444.901" y1="129.816" x2="444.901" y2="74.5867" stroke="rgb(64,128,128)" stroke-width="0"/>
		<line x1="470.353" y1="74.5867" x2="444.901" y2="74.5867" stroke="rgb(64,128,128)" stroke-width="0"/>
		<line x1="444.901" y1="129.816" x2="473.176" y2="101.498" stroke="rgb(64,128,128)" stroke-width="0"/>
		<path d="M473.176,101.498 a26.6045 26.6045 0 0 1 -2.82257,-26.9118" fill="none" stroke="rgb(64,128,128)" stroke-width="0"/>
		<line x1="470.353" y1="74.5867" x2="444.901" y2="129.816" stroke="rgb(64,128,128)" stroke-width="0"/>
	</g>
</svg>