<svg version = "1.1" xmlns = "http://www.w3.org/2000/svg" xmlns:xlink="http://www.w3.org/1999/xlink" width="750.306" height="200.706" viewbox = "0 0 750.306 200.706">
	<g transform="translate(-282.228,282.869) scale(1,-1) ">
		<line x1="469.33" y1="82.5162" x2="518.03" y2="82.5162" stroke="rgb(255,0,0)" stroke-width="0.705556"/>
		<line x1="518.03" y1="82.5162" x2="518.03" y2="282.516" stroke="rgb(255,255,0)" stroke-width="0.705556"/>
		<line x1="518.03" y1="282.516" x2="469.33" y2="282.516" stroke="rgb(255,0,0)" stroke-width="0.705556"/>
		<line x1="796.73" y1="282.516" x2="796.73" y2="82.5162" stroke="rgb(255,255,0)" stroke-width="0.705556"/>
		<line x1="518.03" y1="282.516" x2="796.73" y2="282.516" stroke="rgb(255,0,0)" stroke-width="0.705556"/>
		<line x1="796.73" y1="82.5162" x2="518.03" y2="82.5162" stroke="rgb(255,0,0)" stroke-width="0.705556"/>
		<line x1="796.73" y1="82.5162" x2="845.43" y2="82.5162" stroke="rgb(255,0,0)" stroke-width="0.705556"/>
		<line x1="845.43" y1="282.516" x2="796.73" y2="282.516" stroke="rgb(255,0,0)" stroke-width="0.705556"/>
		<line x1="845.43" y1="282.516" x2="915.43" y2="282.516" stroke="rgb(255,0,0)" stroke-width="0.705556"/>
		<line x1="915.43" y1="82.5162" x2="845.43" y2="82.5162" stroke="rgb(255,0,0)" stroke-width="0.705556"/>
		<line x1="845.43" y1="82.5162" x2="845.43" y2="282.516" stroke="rgb(255,255,0)" stroke-width="0.705556"/>
		<line x1="469.33" y1="82.5162" x2="399.33" y2="82.5162" stroke="rgb(255,0,0)" stroke-width="0.705556"/>
		<line x1="399.33" y1="282.516" x2="469.33" y2="282.516" stroke="rgb(255,0,0)" stroke-width="0.705556"/>
		<line x1="469.33" y1="282.516" x2="469.33" y2="82.5162" stroke="rgb(255,255,0)" stroke-width="0.705556"/>
		<line x1="915.43" y1="282.516" x2="962.83" y2="282.516" stroke="rgb(255,0,0)" stroke-width="0.705556"/>
		<line x1="962.83" y1="82.5162" x2="915.43" y2="82.5162" stroke="rgb(255,0,0)" stroke-width="0.705556"/>
		<line x1="915.43" y1="82.5162" x2="915.43" y2="282.516" stroke="rgb(255,255,0)" stroke-width="0.705556"/>
		<line x1="399.33" y1="82.5162" x2="351.93" y2="82.5162" stroke="rgb(255,0,0)" stroke-width="0.705556"/>
		<line x1="351.93" y1="282.516" x2="399.33" y2="282.516" stroke="rgb(255,0,0)" stroke-width="0.705556"/>
		<line x1="399.33" y1="282.516" x2="399.33" y2="82.5162" stroke="rgb(255,255,0)" stroke-width="0.705556"/>
		<line x1="962.83" y1="282.516" x2="1032.18" y2="282.516" stroke="rgb(255,0,0)" stroke-width="0.705556"/>
		<line x1="1032.18" y1="282.516" x2="1032.18" y2="82.5162" stroke="rgb(255,0,0)" stroke-width="0.705556"/>
		<line x1="1032.18" y1="82.5162" x2="962.83" y2="82.5162" stroke="rgb(255,0,0)" stroke-width="0.705556"/>
		<line x1="962.83" y1="82.5162" x2="962.83" y2="282.516" stroke="rgb(255,255,0)" stroke-width="0.705556"/>
		<line x1="351.93" y1="82.5162" x2="282.58" y2="82.5162" stroke="rgb(255,0,0)" stroke-width="0.705556"/>
		<line x1="282.58" y1="82.5162" x2="282.58" y2="282.516" stroke="rgb(255,0,0)" stroke-width="0.705556"/>
		<line x1="282.58" y1="282.516" x2="351.93" y2="282.516" stroke="rgb(255,0,0)" stroke-width="0.705556"/>
		<line x1="351.93" y1="282.516" x2="351.93" y2="82.5162" stroke="rgb(255,255,0)" stroke-width="0.705556"/>
		<line x1="657.38" y1="145.131" x2="657.38" y2="117.516" stroke="rgb(64,128,128)" stroke-width="0"/>
		<line x1="665.864" y1="126.721" x2="665.864" y2="117.516" stroke="rgb(64,128,128)" stroke-width="0"/>
		<line x1="661.622" y1="135.926" x2="661.622" y2="117.516" stroke="rgb(64,128,128)" stroke-width="0"/>
		<line x1="653.138" y1="154.336" x2="653.138" y2="117.516" stroke="rgb(64,128,128)" stroke-width="0"/>
		<line x1="648.896" y1="163.541" x2="648.896" y2="117.516" stroke="rgb(64,128,128)" stroke-width="0"/>
		<line x1="644.654" y1="172.746" x2="644.654" y2="117.516" stroke="rgb(64,128,128)" stroke-width="0"/>
		<line x1="670.106" y1="117.516" x2="644.654" y2="117.516" stroke="rgb(64,128,128)" stroke-width="0"/>
		<line x1="644.654" y1="172.746" x2="672.929" y2="144.428" stroke="rgb(64,128,128)" stroke-width="0"/>
		<path d="M672.929,144.428 a26.6045 26.6045 0 0 1 -2.82257,-26.9118" fill="none" stroke="rgb(64,128,128)" stroke-width="0"/>
		<line x1="670.106" y1="117.516" x2="644.654" y2="172.746" stroke="rgb(64,128,128)" stroke-width="0"/>
	</g>
</svg>