<svg version = "1.1" xmlns = "http://www.w3.org/2000/svg" xmlns:xlink="http://www.w3.org/1999/xlink" width="782.829" height="200.706" viewbox = "0 0 782.829 200.706">
	<g transform="translate(-54.9411,229.889) scale(1,-1) ">
		<line x1="370.705" y1="29.5362" x2="522.005" y2="29.5362" stroke="rgb(255,0,0)" stroke-width="0.705556"/>
		<line x1="522.005" y1="229.536" x2="370.705" y2="229.536" stroke="rgb(255,0,0)" stroke-width="0.705556"/>
		<line x1="522.005" y1="229.536" x2="538.672" y2="229.536" stroke="rgb(255,0,0)" stroke-width="0.705556"/>
		<line x1="538.672" y1="29.5362" x2="522.005" y2="29.5362" stroke="rgb(255,0,0)" stroke-width="0.705556"/>
		<line x1="522.005" y1="29.5362" x2="522.005" y2="229.536" stroke="rgb(255,255,0)" stroke-width="0.705556"/>
		<line x1="370.705" y1="29.5362" x2="354.039" y2="29.5362" stroke="rgb(255,0,0)" stroke-width="0.705556"/>
		<line x1="354.039" y1="229.536" x2="370.705" y2="229.536" stroke="rgb(255,0,0)" stroke-width="0.705556"/>
		<line x1="370.705" y1="229.536" x2="370.705" y2="29.5362" stroke="rgb(255,255,0)" stroke-width="0.705556"/>
		<line x1="538.672" y1="229.536" x2="602.372" y2="229.536" stroke="rgb(255,0,0)" stroke-width="0.705556"/>
		<line x1="602.372" y1="29.5362" x2="538.672" y2="29.5362" stroke="rgb(255,0,0)" stroke-width="0.705556"/>
		<line x1="538.672" y1="29.5362" x2="538.672" y2="229.536" stroke="rgb(255,255,0)" stroke-width="0.705556"/>
		<line x1="354.039" y1="29.5362" x2="290.339" y2="29.5362" stroke="rgb(255,0,0)" stroke-width="0.705556"/>
		<line x1="290.339" y1="229.536" x2="354.039" y2="229.536" stroke="rgb(255,0,0)" stroke-width="0.705556"/>
		<line x1="354.039" y1="229.536" x2="354.039" y2="29.5362" stroke="rgb(255,255,0)" stroke-width="0.705556"/>
		<line x1="602.372" y1="229.536" x2="651.072" y2="229.536" stroke="rgb(255,0,0)" stroke-width="0.705556"/>
		<line x1="651.072" y1="29.5362" x2="602.372" y2="29.5362" stroke="rgb(255,0,0)" stroke-width="0.705556"/>
		<line x1="602.372" y1="29.5362" x2="602.372" y2="229.536" stroke="rgb(255,255,0)" stroke-width="0.705556"/>
		<line x1="290.339" y1="29.5362" x2="241.639" y2="29.5362" stroke="rgb(255,0,0)" stroke-width="0.705556"/>
		<line x1="241.639" y1="229.536" x2="290.339" y2="229.536" stroke="rgb(255,0,0)" stroke-width="0.705556"/>
		<line x1="290.339" y1="229.536" x2="290.339" y2="29.5362" stroke="rgb(255,255,0)" stroke-width="0.705556"/>
		<line x1="651.072" y1="229.536" x2="713.472" y2="229.536" stroke="rgb(255,0,0)" stroke-width="0.705556"/>
		<line x1="713.472" y1="29.5362" x2="651.072" y2="29.5362" stroke="rgb(255,0,0)" stroke-width="0.705556"/>
		<line x1="651.072" y1="29.5362" x2="651.072" y2="229.536" stroke="rgb(255,255,0)" stroke-width="0.705556"/>
		<line x1="241.639" y1="29.5362" x2="179.239" y2="29.5362" stroke="rgb(255,0,0)" stroke-width="0.705556"/>
		<line x1="179.239" y1="229.536" x2="241.639" y2="229.536" stroke="rgb(255,0,0)" stroke-width="0.705556"/>
		<line x1="241.639" y1="229.536" x2="241.639" y2="29.5362" stroke="rgb(255,255,0)" stroke-width="0.705556"/>
		<line x1="713.472" y1="229.536" x2="760.872" y2="229.536" stroke="rgb(255,0,0)" stroke-width="0.705556"/>
		<line x1="760.872" y1="29.5362" x2="713.472" y2="29.5362" stroke="rgb(255,0,0)" stroke-width="0.705556"/>
		<line x1="713.472" y1="29.5362" x2="713.472" y2="229.536" stroke="rgb(255,255,0)" stroke-width="0.705556"/>
		<line x1="179.239" y1="29.5362" x2="131.839" y2="29.5362" stroke="rgb(255,0,0)" stroke-width="0.705556"/>
		<line x1="131.839" y1="229.536" x2="179.239" y2="229.536" stroke="rgb(255,0,0)" stroke-width="0.705556"/>
		<line x1="179.239" y1="229.536" x2="179.239" y2="29.5362" stroke="rgb(255,255,0)" stroke-width="0.705556"/>
		<line x1="760.872" y1="229.536" x2="837.417" y2="229.536" stroke="rgb(255,0,0)" stroke-width="0.705556"/>
		<line x1="837.417" y1="229.536" x2="837.417" y2="29.5362" stroke="rgb(255,0,0)" stroke-width="0.705556"/>
		<line x1="837.417" y1="29.5362" x2="760.872" y2="29.5362" stroke="rgb(255,0,0)" stroke-width="0.705556"/>
		<line x1="760.872" y1="29.5362" x2="760.872" y2="229.536" stroke="rgb(255,255,0)" stroke-width="0.705556"/>
		<line x1="131.839" y1="29.5362" x2="55.2939" y2="29.5362" stroke="rgb(255,0,0)" stroke-width="0.705556"/>
		<line x1="55.2939" y1="29.5362" x2="55.2939" y2="229.536" stroke="rgb(255,0,0)" stroke-width="0.705556"/>
		<line x1="55.2939" y1="229.536" x2="131.839" y2="229.536" stroke="rgb(255,0,0)" stroke-width="0.705556"/>
		<line x1="131.839" y1="229.536" x2="131.839" y2="29.5362" stroke="rgb(255,255,0)" stroke-width="0.705556"/>
		<line x1="446.355" y1="92.151" x2="446.355" y2="64.5362" stroke="rgb(64,128,128)" stroke-width="0"/>
		<line x1="454.839" y1="73.7411" x2="454.839" y2="64.5362" stroke="rgb(64,128,128)" stroke-width="0"/>
		<line x1="450.597" y1="82.946" x2="450.597" y2="64.5362" stroke="rgb(64,128,128)" stroke-width="0"/>
		<line x1="442.113" y1="101.356" x2="442.113" y2="64.5362" stroke="rgb(64,128,128)" stroke-width="0"/>
		<line x1="437.871" y1="110.561" x2="437.871" y2="64.5362" stroke="rgb(64,128,128)" stroke-width="0"/>
		<line x1="433.629" y1="119.766" x2="433.629" y2="64.5362" stroke="rgb(64,128,128)" stroke-width="0"/>
		<line x1="459.081" y1="64.5362" x2="433.629" y2="64.5362" stroke="rgb(64,128,128)" stroke-width="0"/>
		<line x1="433.629" y1="119.766" x2="461.904" y2="91.448" stroke="rgb(64,128,128)" stroke-width="0"/>
		<path d="M461.904,91.448 a26.6045 26.6045 0 0 1 -2.82257,-26.9118" fill="none" stroke="rgb(64,128,128)" stroke-width="0"/>
		<line x1="459.081" y1="64.5362" x2="433.629" y2="119.766" stroke="rgb(64,128,128)" stroke-width="0"/>
	</g>
</svg>