<svg version = "1.1" xmlns = "http://www.w3.org/2000/svg" xmlns:xlink="http://www.w3.org/1999/xlink" width="599.406" height="200.706" viewbox = "0 0 599.406 200.706">
	<g transform="translate(-40.1268,249.966) scale(1,-1) ">
		<line x1="200.48" y1="49.6136" x2="479.18" y2="49.6136" stroke="rgb(255,0,0)" stroke-width="0.705556"/>
		<line x1="479.18" y1="249.614" x2="200.48" y2="249.614" stroke="rgb(255,0,0)" stroke-width="0.705556"/>
		<line x1="479.18" y1="249.614" x2="559.18" y2="249.614" stroke="rgb(255,0,0)" stroke-width="0.705556"/>
		<line x1="559.18" y1="49.6136" x2="479.18" y2="49.6136" stroke="rgb(255,0,0)" stroke-width="0.705556"/>
		<line x1="479.18" y1="49.6136" x2="479.18" y2="249.614" stroke="rgb(255,255,0)" stroke-width="0.705556"/>
		<line x1="200.48" y1="49.6136" x2="120.48" y2="49.6136" stroke="rgb(255,0,0)" stroke-width="0.705556"/>
		<line x1="120.48" y1="249.614" x2="200.48" y2="249.614" stroke="rgb(255,0,0)" stroke-width="0.705556"/>
		<line x1="200.48" y1="249.614" x2="200.48" y2="49.6136" stroke="rgb(255,255,0)" stroke-width="0.705556"/>
		<line x1="559.18" y1="249.614" x2="639.18" y2="249.614" stroke="rgb(255,0,0)" stroke-width="0.705556"/>
		<line x1="639.18" y1="249.614" x2="639.18" y2="49.6136" stroke="rgb(255,0,0)" stroke-width="0.705556"/>
		<line x1="639.18" y1="49.6136" x2="559.18" y2="49.6136" stroke="rgb(255,0,0)" stroke-width="0.705556"/>
		<line x1="559.18" y1="49.6136" x2="559.18" y2="249.614" stroke="rgb(255,255,0)" stroke-width="0.705556"/>
		<line x1="120.48" y1="49.6136" x2="40.4796" y2="49.6136" stroke="rgb(255,0,0)" stroke-width="0.705556"/>
		<line x1="40.4796" y1="49.6136" x2="40.4796" y2="249.614" stroke="rgb(255,0,0)" stroke-width="0.705556"/>
		<line x1="40.4796" y1="249.614" x2="120.48" y2="249.614" stroke="rgb(255,0,0)" stroke-width="0.705556"/>
		<line x1="120.48" y1="249.614" x2="120.48" y2="49.6136" stroke="rgb(255,255,0)" stroke-width="0.705556"/>
		<line x1="339.83" y1="112.228" x2="339.83" y2="84.6136" stroke="rgb(64,128,128)" stroke-width="0"/>
		<line x1="348.314" y1="93.8186" x2="348.314" y2="84.6136" stroke="rgb(64,128,128)" stroke-width="0"/>
		<line x1="344.072" y1="103.024" x2="344.072" y2="84.6136" stroke="rgb(64,128,128)" stroke-width="0"/>
		<line x1="335.588" y1="121.433" x2="335.588" y2="84.6136" stroke="rgb(64,128,128)" stroke-width="0"/>
		<line x1="331.346" y1="130.638" x2="331.346" y2="84.6136" stroke="rgb(64,128,128)" stroke-width="0"/>
		<line x1="327.104" y1="139.843" x2="327.104" y2="84.6136" stroke="rgb(64,128,128)" stroke-width="0"/>
		<line x1="352.556" y1="84.6136" x2="327.104" y2="84.6136" stroke="rgb(64,128,128)" stroke-width="0"/>
		<line x1="327.104" y1="139.843" x2="355.378" y2="111.525" stroke="rgb(64,128,128)" stroke-width="0"/>
		<path d="M355.378,111.525 a26.6045 26.6045 0 0 1 -2.82257,-26.9118" fill="none" stroke="rgb(64,128,128)" stroke-width="0"/>
		<line x1="352.556" y1="84.6136" x2="327.104" y2="139.843" stroke="rgb(64,128,128)" stroke-width="0"/>
	</g>
</svg>