<svg version = "1.1" xmlns = "http://www.w3.org/2000/svg" xmlns:xlink="http://www.w3.org/1999/xlink" width="612.206" height="200.706" viewbox = "0 0 612.206 200.706">
	<g transform="translate(-179.887,263.852) scale(1,-1) ">
		<line x1="590.589" y1="63.4995" x2="689.639" y2="63.4995" stroke="rgb(255,0,0)" stroke-width="0.705556"/>
		<line x1="689.639" y1="263.5" x2="590.589" y2="263.5" stroke="rgb(255,0,0)" stroke-width="0.705556"/>
		<line x1="689.639" y1="263.5" x2="689.639" y2="63.4995" stroke="rgb(255,255,0)" stroke-width="0.705556"/>
		<line x1="689.639" y1="63.4995" x2="692.239" y2="63.4995" stroke="rgb(255,0,0)" stroke-width="0.705556"/>
		<line x1="692.239" y1="263.5" x2="689.639" y2="263.5" stroke="rgb(255,0,0)" stroke-width="0.705556"/>
		<line x1="692.239" y1="263.5" x2="741.639" y2="263.5" stroke="rgb(255,0,0)" stroke-width="0.705556"/>
		<line x1="741.639" y1="63.4995" x2="692.239" y2="63.4995" stroke="rgb(255,0,0)" stroke-width="0.705556"/>
		<line x1="692.239" y1="63.4995" x2="692.239" y2="263.5" stroke="rgb(255,255,0)" stroke-width="0.705556"/>
		<line x1="741.639" y1="263.5" x2="741.639" y2="63.4995" stroke="rgb(255,255,0)" stroke-width="0.705556"/>
		<line x1="741.639" y1="63.4995" x2="742.939" y2="63.4995" stroke="rgb(255,0,0)" stroke-width="0.705556"/>
		<line x1="742.939" y1="263.5" x2="741.639" y2="263.5" stroke="rgb(255,0,0)" stroke-width="0.705556"/>
		<line x1="742.939" y1="263.5" x2="791.739" y2="263.5" stroke="rgb(255,0,0)" stroke-width="0.705556"/>
		<line x1="791.739" y1="263.5" x2="791.739" y2="63.4995" stroke="rgb(255,0,0)" stroke-width="0.705556"/>
		<line x1="791.739" y1="63.4995" x2="742.939" y2="63.4995" stroke="rgb(255,0,0)" stroke-width="0.705556"/>
		<line x1="742.939" y1="63.4995" x2="742.939" y2="263.5" stroke="rgb(255,255,0)" stroke-width="0.705556"/>
		<line x1="590.589" y1="63.4995" x2="580.189" y2="63.4995" stroke="rgb(255,0,0)" stroke-width="0.705556"/>
		<line x1="580.189" y1="263.5" x2="590.589" y2="263.5" stroke="rgb(255,0,0)" stroke-width="0.705556"/>
		<line x1="590.589" y1="263.5" x2="590.589" y2="63.4995" stroke="rgb(255,255,0)" stroke-width="0.705556"/>
		<line x1="580.189" y1="63.4995" x2="530.839" y2="63.4995" stroke="rgb(255,0,0)" stroke-width="0.705556"/>
		<line x1="530.839" y1="263.5" x2="580.189" y2="263.5" stroke="rgb(255,0,0)" stroke-width="0.705556"/>
		<line x1="580.189" y1="263.5" x2="580.189" y2="63.4995" stroke="rgb(255,255,0)" stroke-width="0.705556"/>
		<line x1="530.839" y1="63.4995" x2="521.739" y2="63.4995" stroke="rgb(255,0,0)" stroke-width="0.705556"/>
		<line x1="521.739" y1="263.5" x2="530.839" y2="263.5" stroke="rgb(255,0,0)" stroke-width="0.705556"/>
		<line x1="530.839" y1="263.5" x2="530.839" y2="63.4995" stroke="rgb(255,255,0)" stroke-width="0.705556"/>
		<line x1="521.739" y1="63.4995" x2="473.339" y2="63.4995" stroke="rgb(255,0,0)" stroke-width="0.705556"/>
		<line x1="473.339" y1="263.5" x2="521.739" y2="263.5" stroke="rgb(255,0,0)" stroke-width="0.705556"/>
		<line x1="521.739" y1="263.5" x2="521.739" y2="63.4995" stroke="rgb(255,255,0)" stroke-width="0.705556"/>
		<line x1="473.339" y1="63.4995" x2="473.339" y2="263.5" stroke="rgb(255,255,0)" stroke-width="0.705556"/>
		<line x1="473.339" y1="263.5" x2="472.039" y2="263.5" stroke="rgb(255,0,0)" stroke-width="0.705556"/>
		<line x1="472.039" y1="63.4995" x2="473.339" y2="63.4995" stroke="rgb(255,0,0)" stroke-width="0.705556"/>
		<line x1="472.039" y1="63.4995" x2="424.589" y2="63.4995" stroke="rgb(255,0,0)" stroke-width="0.705556"/>
		<line x1="424.589" y1="263.5" x2="472.039" y2="263.5" stroke="rgb(255,0,0)" stroke-width="0.705556"/>
		<line x1="472.039" y1="263.5" x2="472.039" y2="63.4995" stroke="rgb(255,255,0)" stroke-width="0.705556"/>
		<line x1="424.589" y1="63.4995" x2="424.589" y2="263.5" stroke="rgb(255,255,0)" stroke-width="0.705556"/>
		<line x1="424.589" y1="263.5" x2="423.289" y2="263.5" stroke="rgb(255,0,0)" stroke-width="0.705556"/>
		<line x1="423.289" y1="63.4995" x2="424.589" y2="63.4995" stroke="rgb(255,0,0)" stroke-width="0.705556"/>
		<line x1="423.289" y1="63.4995" x2="375.839" y2="63.4995" stroke="rgb(255,0,0)" stroke-width="0.705556"/>
		<line x1="375.839" y1="263.5" x2="423.289" y2="263.5" stroke="rgb(255,0,0)" stroke-width="0.705556"/>
		<line x1="423.289" y1="263.5" x2="423.289" y2="63.4995" stroke="rgb(255,255,0)" stroke-width="0.705556"/>
		<line x1="375.839" y1="63.4995" x2="375.839" y2="263.5" stroke="rgb(255,255,0)" stroke-width="0.705556"/>
		<line x1="375.839" y1="263.5" x2="374.539" y2="263.5" stroke="rgb(255,0,0)" stroke-width="0.705556"/>
		<line x1="374.539" y1="63.4995" x2="375.839" y2="63.4995" stroke="rgb(255,0,0)" stroke-width="0.705556"/>
		<line x1="374.539" y1="63.4995" x2="327.089" y2="63.4995" stroke="rgb(255,0,0)" stroke-width="0.705556"/>
		<line x1="327.089" y1="263.5" x2="374.539" y2="263.5" stroke="rgb(255,0,0)" stroke-width="0.705556"/>
		<line x1="374.539" y1="263.5" x2="374.539" y2="63.4995" stroke="rgb(255,255,0)" stroke-width="0.705556"/>
		<line x1="327.089" y1="63.4995" x2="327.089" y2="263.5" stroke="rgb(255,255,0)" stroke-width="0.705556"/>
		<line x1="327.089" y1="263.5" x2="325.789" y2="263.5" stroke="rgb(255,0,0)" stroke-width="0.705556"/>
		<line x1="325.789" y1="63.4995" x2="327.089" y2="63.4995" stroke="rgb(255,0,0)" stroke-width="0.705556"/>
		<line x1="325.789" y1="63.4995" x2="278.339" y2="63.4995" stroke="rgb(255,0,0)" stroke-width="0.705556"/>
		<line x1="278.339" y1="263.5" x2="325.789" y2="263.5" stroke="rgb(255,0,0)" stroke-width="0.705556"/>
		<line x1="325.789" y1="263.5" x2="325.789" y2="63.4995" stroke="rgb(255,255,0)" stroke-width="0.705556"/>
		<line x1="278.339" y1="63.4995" x2="278.339" y2="263.5" stroke="rgb(255,255,0)" stroke-width="0.705556"/>
		<line x1="278.339" y1="263.5" x2="277.039" y2="263.5" stroke="rgb(255,0,0)" stroke-width="0.705556"/>
		<line x1="277.039" y1="63.4995" x2="278.339" y2="63.4995" stroke="rgb(255,0,0)" stroke-width="0.705556"/>
		<line x1="277.039" y1="63.4995" x2="229.289" y2="63.4995" stroke="rgb(255,0,0)" stroke-width="0.705556"/>
		<line x1="229.289" y1="263.5" x2="277.039" y2="263.5" stroke="rgb(255,0,0)" stroke-width="0.705556"/>
		<line x1="277.039" y1="263.5" x2="277.039" y2="63.4995" stroke="rgb(255,255,0)" stroke-width="0.705556"/>
		<line x1="229.289" y1="63.4995" x2="229.289" y2="263.5" stroke="rgb(255,255,0)" stroke-width="0.705556"/>
		<line x1="229.289" y1="263.5" x2="227.989" y2="263.5" stroke="rgb(255,0,0)" stroke-width="0.705556"/>
		<line x1="227.989" y1="63.4995" x2="229.289" y2="63.4995" stroke="rgb(255,0,0)" stroke-width="0.705556"/>
		<line x1="227.989" y1="63.4995" x2="180.239" y2="63.4995" stroke="rgb(255,0,0)" stroke-width="0.705556"/>
		<line x1="180.239" y1="63.4995" x2="180.239" y2="263.5" stroke="rgb(255,0,0)" stroke-width="0.705556"/>
		<line x1="180.239" y1="263.5" x2="227.989" y2="263.5" stroke="rgb(255,0,0)" stroke-width="0.705556"/>
		<line x1="227.989" y1="263.5" x2="227.989" y2="63.4995" stroke="rgb(255,255,0)" stroke-width="0.705556"/>
		<line x1="640.114" y1="126.114" x2="640.114" y2="98.4995" stroke="rgb(64,128,128)" stroke-width="0"/>
		<line x1="648.598" y1="107.704" x2="648.598" y2="98.4995" stroke="rgb(64,128,128)" stroke-width="0"/>
		<line x1="644.356" y1="116.909" x2="644.356" y2="98.4995" stroke="rgb(64,128,128)" stroke-width="0"/>
		<line x1="635.872" y1="135.319" x2="635.872" y2="98.4995" stroke="rgb(64,128,128)" stroke-width="0"/>
		<line x1="631.63" y1="144.524" x2="631.63" y2="98.4995" stroke="rgb(64,128,128)" stroke-width="0"/>
		<line x1="627.388" y1="153.729" x2="627.388" y2="98.4995" stroke="rgb(64,128,128)" stroke-width="0"/>
		<line x1="652.84" y1="98.4995" x2="627.388" y2="98.4995" stroke="rgb(64,128,128)" stroke-width="0"/>
		<line x1="627.388" y1="153.729" x2="655.663" y2="125.411" stroke="rgb(64,128,128)" stroke-width="0"/>
		<path d="M655.663,125.411 a26.6045 26.6045 0 0 1 -2.82257,-26.9118" fill="none" stroke="rgb(64,128,128)" stroke-width="0"/>
		<line x1="652.84" y1="98.4995" x2="627.388" y2="153.729" stroke="rgb(64,128,128)" stroke-width="0"/>
	</g>
</svg>