<svg version = "1.1" xmlns = "http://www.w3.org/2000/svg" xmlns:xlink="http://www.w3.org/1999/xlink" width="300.706" height="100.706" viewbox = "0 0 300.706 100.706">
	<g transform="translate(-59.4993,165.426) scale(1,-1) ">
		<line x1="59.8521" y1="65.0729" x2="209.852" y2="65.0729" stroke="rgb(255,0,0)" stroke-width="0.705556"/>
		<line x1="209.852" y1="165.073" x2="59.8521" y2="165.073" stroke="rgb(255,0,0)" stroke-width="0.705556"/>
		<line x1="59.8521" y1="165.073" x2="59.8521" y2="65.0729" stroke="rgb(255,0,0)" stroke-width="0.705556"/>
		<line x1="209.852" y1="165.073" x2="359.852" y2="165.073" stroke="rgb(255,0,0)" stroke-width="0.705556"/>
		<line x1="359.852" y1="165.073" x2="359.852" y2="65.0729" stroke="rgb(255,0,0)" stroke-width="0.705556"/>
		<line x1="359.852" y1="65.0729" x2="209.852" y2="65.0729" stroke="rgb(255,0,0)" stroke-width="0.705556"/>
		<line x1="209.852" y1="65.0729" x2="209.852" y2="165.073" stroke="rgb(255,255,0)" stroke-width="0.705556"/>
		<line x1="284.852" y1="102.688" x2="284.852" y2="75.0729" stroke="rgb(64,128,128)" stroke-width="0"/>
		<line x1="293.336" y1="84.2779" x2="293.336" y2="75.0729" stroke="rgb(64,128,128)" stroke-width="0"/>
		<line x1="289.094" y1="93.4828" x2="289.094" y2="75.0729" stroke="rgb(64,128,128)" stroke-width="0"/>
		<line x1="280.61" y1="111.893" x2="280.61" y2="75.0729" stroke="rgb(64,128,128)" stroke-width="0"/>
		<line x1="276.368" y1="121.098" x2="276.368" y2="75.0729" stroke="rgb(64,128,128)" stroke-width="0"/>
		<line x1="272.126" y1="130.302" x2="272.126" y2="75.0729" stroke="rgb(64,128,128)" stroke-width="0"/>
		<line x1="297.578" y1="75.0729" x2="272.126" y2="75.0729" stroke="rgb(64,128,128)" stroke-width="0"/>
		<line x1="272.126" y1="130.302" x2="300.401" y2="101.985" stroke="rgb(64,128,128)" stroke-width="0"/>
		<path d="M300.401,101.985 a26.6045 26.6045 0 0 1 -2.82257,-26.9118" fill="none" stroke="rgb(64,128,128)" stroke-width="0"/>
		<line x1="297.578" y1="75.0729" x2="272.126" y2="130.302" stroke="rgb(64,128,128)" stroke-width="0"/>
	</g>
</svg>