<svg version = "1.1" xmlns = "http://www.w3.org/2000/svg" xmlns:xlink="http://www.w3.org/1999/xlink" width="598.106" height="100.706" viewbox = "0 0 598.106 100.706">
	<g transform="translate(32.723,135.25) scale(1,-1) ">
		<line x1="116.98" y1="34.8971" x2="266.98" y2="34.8971" stroke="rgb(255,0,0)" stroke-width="0.705556"/>
		<line x1="266.98" y1="134.897" x2="116.98" y2="134.897" stroke="rgb(255,0,0)" stroke-width="0.705556"/>
		<line x1="266.98" y1="134.897" x2="416.98" y2="134.897" stroke="rgb(255,0,0)" stroke-width="0.705556"/>
		<line x1="416.98" y1="34.8971" x2="266.98" y2="34.8971" stroke="rgb(255,0,0)" stroke-width="0.705556"/>
		<line x1="266.98" y1="34.8971" x2="266.98" y2="134.897" stroke="rgb(255,255,0)" stroke-width="0.705556"/>
		<line x1="116.98" y1="34.8971" x2="-32.3703" y2="34.8971" stroke="rgb(255,0,0)" stroke-width="0.705556"/>
		<line x1="-32.3703" y1="34.8971" x2="-32.3703" y2="134.897" stroke="rgb(255,0,0)" stroke-width="0.705556"/>
		<line x1="-32.3703" y1="134.897" x2="116.98" y2="134.897" stroke="rgb(255,0,0)" stroke-width="0.705556"/>
		<line x1="116.98" y1="134.897" x2="116.98" y2="34.8971" stroke="rgb(255,255,0)" stroke-width="0.705556"/>
		<line x1="416.98" y1="134.897" x2="565.03" y2="134.897" stroke="rgb(255,0,0)" stroke-width="0.705556"/>
		<line x1="565.03" y1="134.897" x2="565.03" y2="34.8971" stroke="rgb(255,0,0)" stroke-width="0.705556"/>
		<line x1="565.03" y1="34.8971" x2="416.98" y2="34.8971" stroke="rgb(255,0,0)" stroke-width="0.705556"/>
		<line x1="416.98" y1="34.8971" x2="416.98" y2="134.897" stroke="rgb(255,255,0)" stroke-width="0.705556"/>
		<line x1="341.98" y1="87.5119" x2="341.98" y2="59.8971" stroke="rgb(64,128,128)" stroke-width="0"/>
		<line x1="350.464" y1="69.102" x2="350.464" y2="59.8971" stroke="rgb(64,128,128)" stroke-width="0"/>
		<line x1="346.222" y1="78.3069" x2="346.222" y2="59.8971" stroke="rgb(64,128,128)" stroke-width="0"/>
		<line x1="337.738" y1="96.7168" x2="337.738" y2="59.8971" stroke="rgb(64,128,128)" stroke-width="0"/>
		<line x1="333.496" y1="105.922" x2="333.496" y2="59.8971" stroke="rgb(64,128,128)" stroke-width="0"/>
		<line x1="329.254" y1="115.127" x2="329.254" y2="59.8971" stroke="rgb(64,128,128)" stroke-width="0"/>
		<line x1="354.706" y1="59.8971" x2="329.254" y2="59.8971" stroke="rgb(64,128,128)" stroke-width="0"/>
		<line x1="329.254" y1="115.127" x2="357.528" y2="86.8089" stroke="rgb(64,128,128)" stroke-width="0"/>
		<path d="M357.528,86.8089 a26.6045 26.6045 0 0 1 -2.82257,-26.9118" fill="none" stroke="rgb(64,128,128)" stroke-width="0"/>
		<line x1="354.706" y1="59.8971" x2="329.254" y2="115.127" stroke="rgb(64,128,128)" stroke-width="0"/>
	</g>
</svg>