<svg version = "1.1" xmlns = "http://www.w3.org/2000/svg" xmlns:xlink="http://www.w3.org/1999/xlink" width="668.092" height="100.706" viewbox = "0 0 668.092 100.706">
	<g transform="translate(-40.1815,142.271) scale(1,-1) ">
		<line x1="224.227" y1="41.9181" x2="374.227" y2="41.9181" stroke="rgb(255,0,0)" stroke-width="0.705556"/>
		<line x1="374.227" y1="141.918" x2="224.227" y2="141.918" stroke="rgb(255,0,0)" stroke-width="0.705556"/>
		<line x1="374.227" y1="141.918" x2="524.227" y2="141.918" stroke="rgb(255,0,0)" stroke-width="0.705556"/>
		<line x1="524.227" y1="41.9181" x2="374.227" y2="41.9181" stroke="rgb(255,0,0)" stroke-width="0.705556"/>
		<line x1="374.227" y1="41.9181" x2="374.227" y2="141.918" stroke="rgb(255,255,0)" stroke-width="0.705556"/>
		<line x1="524.227" y1="141.918" x2="633.154" y2="141.918" stroke="rgb(255,0,0)" stroke-width="0.705556"/>
		<line x1="633.154" y1="41.9181" x2="524.227" y2="41.9181" stroke="rgb(255,0,0)" stroke-width="0.705556"/>
		<line x1="524.227" y1="41.9181" x2="524.227" y2="141.918" stroke="rgb(255,255,0)" stroke-width="0.705556"/>
		<line x1="224.227" y1="41.9181" x2="115.3" y2="41.9181" stroke="rgb(255,0,0)" stroke-width="0.705556"/>
		<line x1="115.3" y1="141.918" x2="224.227" y2="141.918" stroke="rgb(255,0,0)" stroke-width="0.705556"/>
		<line x1="224.227" y1="141.918" x2="224.227" y2="41.9181" stroke="rgb(255,255,0)" stroke-width="0.705556"/>
		<line x1="633.154" y1="141.918" x2="707.92" y2="141.918" stroke="rgb(255,0,0)" stroke-width="0.705556"/>
		<line x1="707.92" y1="141.918" x2="707.92" y2="41.9181" stroke="rgb(255,0,0)" stroke-width="0.705556"/>
		<line x1="707.92" y1="41.9181" x2="633.154" y2="41.9181" stroke="rgb(255,0,0)" stroke-width="0.705556"/>
		<line x1="633.154" y1="41.9181" x2="633.154" y2="141.918" stroke="rgb(255,255,0)" stroke-width="0.705556"/>
		<line x1="115.3" y1="41.9181" x2="40.5342" y2="41.9181" stroke="rgb(255,0,0)" stroke-width="0.705556"/>
		<line x1="40.5342" y1="41.9181" x2="40.5342" y2="141.918" stroke="rgb(255,0,0)" stroke-width="0.705556"/>
		<line x1="40.5342" y1="141.918" x2="115.3" y2="141.918" stroke="rgb(255,0,0)" stroke-width="0.705556"/>
		<line x1="115.3" y1="141.918" x2="115.3" y2="41.9181" stroke="rgb(255,255,0)" stroke-width="0.705556"/>
		<line x1="449.227" y1="104.533" x2="449.227" y2="76.9181" stroke="rgb(64,128,128)" stroke-width="0"/>
		<line x1="457.711" y1="86.123" x2="457.711" y2="76.9181" stroke="rgb(64,128,128)" stroke-width="0"/>
		<line x1="453.469" y1="95.328" x2="453.469" y2="76.9181" stroke="rgb(64,128,128)" stroke-width="0"/>
		<line x1="444.985" y1="113.738" x2="444.985" y2="76.9181" stroke="rgb(64,128,128)" stroke-width="0"/>
		<line x1="440.743" y1="122.943" x2="440.743" y2="76.9181" stroke="rgb(64,128,128)" stroke-width="0"/>
		<line x1="436.501" y1="132.148" x2="436.501" y2="76.9181" stroke="rgb(64,128,128)" stroke-width="0"/>
		<line x1="461.953" y1="76.9181" x2="436.501" y2="76.9181" stroke="rgb(64,128,128)" stroke-width="0"/>
		<line x1="436.501" y1="132.148" x2="464.776" y2="103.83" stroke="rgb(64,128,128)" stroke-width="0"/>
		<path d="M464.776,103.83 a26.6045 26.6045 0 0 1 -2.82257,-26.9118" fill="none" stroke="rgb(64,128,128)" stroke-width="0"/>
		<line x1="461.953" y1="76.9181" x2="436.501" y2="132.148" stroke="rgb(64,128,128)" stroke-width="0"/>
	</g>
</svg>