<svg version = "1.1" xmlns = "http://www.w3.org/2000/svg" xmlns:xlink="http://www.w3.org/1999/xlink" width="1330.43" height="100.706" viewbox = "0 0 1330.43 100.706">
	<g transform="translate(-50.0753,139.309) scale(1,-1) ">
		<line x1="565.289" y1="38.9558" x2="715.289" y2="38.9558" stroke="rgb(255,0,0)" stroke-width="0.705556"/>
		<line x1="715.289" y1="138.956" x2="565.289" y2="138.956" stroke="rgb(255,0,0)" stroke-width="0.705556"/>
		<line x1="715.289" y1="138.956" x2="865.289" y2="138.956" stroke="rgb(255,0,0)" stroke-width="0.705556"/>
		<line x1="865.289" y1="38.9558" x2="715.289" y2="38.9558" stroke="rgb(255,0,0)" stroke-width="0.705556"/>
		<line x1="715.289" y1="38.9558" x2="715.289" y2="138.956" stroke="rgb(255,255,0)" stroke-width="0.705556"/>
		<line x1="865.289" y1="138.956" x2="915.289" y2="138.956" stroke="rgb(255,0,0)" stroke-width="0.705556"/>
		<line x1="915.289" y1="38.9558" x2="865.289" y2="38.9558" stroke="rgb(255,0,0)" stroke-width="0.705556"/>
		<line x1="865.289" y1="38.9558" x2="865.289" y2="138.956" stroke="rgb(255,255,0)" stroke-width="0.705556"/>
		<line x1="565.289" y1="38.9558" x2="515.289" y2="38.9558" stroke="rgb(255,0,0)" stroke-width="0.705556"/>
		<line x1="515.289" y1="138.956" x2="565.289" y2="138.956" stroke="rgb(255,0,0)" stroke-width="0.705556"/>
		<line x1="565.289" y1="138.956" x2="565.289" y2="38.9558" stroke="rgb(255,255,0)" stroke-width="0.705556"/>
		<line x1="915.289" y1="138.956" x2="1135.35" y2="138.956" stroke="rgb(255,0,0)" stroke-width="0.705556"/>
		<line x1="1135.35" y1="38.9558" x2="915.289" y2="38.9558" stroke="rgb(255,0,0)" stroke-width="0.705556"/>
		<line x1="915.289" y1="38.9558" x2="915.289" y2="138.956" stroke="rgb(255,255,0)" stroke-width="0.705556"/>
		<line x1="515.289" y1="38.9558" x2="295.228" y2="38.9558" stroke="rgb(255,0,0)" stroke-width="0.705556"/>
		<line x1="295.228" y1="138.956" x2="515.289" y2="138.956" stroke="rgb(255,0,0)" stroke-width="0.705556"/>
		<line x1="515.289" y1="138.956" x2="515.289" y2="38.9558" stroke="rgb(255,255,0)" stroke-width="0.705556"/>
		<line x1="1135.35" y1="138.956" x2="1184.05" y2="138.956" stroke="rgb(255,0,0)" stroke-width="0.705556"/>
		<line x1="1184.05" y1="38.9558" x2="1135.35" y2="38.9558" stroke="rgb(255,0,0)" stroke-width="0.705556"/>
		<line x1="1135.35" y1="38.9558" x2="1135.35" y2="138.956" stroke="rgb(255,255,0)" stroke-width="0.705556"/>
		<line x1="295.228" y1="38.9558" x2="246.528" y2="38.9558" stroke="rgb(255,0,0)" stroke-width="0.705556"/>
		<line x1="246.528" y1="138.956" x2="295.228" y2="138.956" stroke="rgb(255,0,0)" stroke-width="0.705556"/>
		<line x1="295.228" y1="138.956" x2="295.228" y2="38.9558" stroke="rgb(255,255,0)" stroke-width="0.705556"/>
		<line x1="1184.05" y1="138.956" x2="1332.75" y2="138.956" stroke="rgb(255,0,0)" stroke-width="0.705556"/>
		<line x1="1332.75" y1="38.9558" x2="1184.05" y2="38.9558" stroke="rgb(255,0,0)" stroke-width="0.705556"/>
		<line x1="1184.05" y1="38.9558" x2="1184.05" y2="138.956" stroke="rgb(255,255,0)" stroke-width="0.705556"/>
		<line x1="246.528" y1="38.9558" x2="97.8281" y2="38.9558" stroke="rgb(255,0,0)" stroke-width="0.705556"/>
		<line x1="97.8281" y1="138.956" x2="246.528" y2="138.956" stroke="rgb(255,0,0)" stroke-width="0.705556"/>
		<line x1="246.528" y1="138.956" x2="246.528" y2="38.9558" stroke="rgb(255,255,0)" stroke-width="0.705556"/>
		<line x1="1332.75" y1="138.956" x2="1380.15" y2="138.956" stroke="rgb(255,0,0)" stroke-width="0.705556"/>
		<line x1="1380.15" y1="138.956" x2="1380.15" y2="38.9558" stroke="rgb(255,0,0)" stroke-width="0.705556"/>
		<line x1="1380.15" y1="38.9558" x2="1332.75" y2="38.9558" stroke="rgb(255,0,0)" stroke-width="0.705556"/>
		<line x1="1332.75" y1="38.9558" x2="1332.75" y2="138.956" stroke="rgb(255,255,0)" stroke-width="0.705556"/>
		<line x1="97.8281" y1="38.9558" x2="50.4281" y2="38.9558" stroke="rgb(255,0,0)" stroke-width="0.705556"/>
		<line x1="50.4281" y1="38.9558" x2="50.4281" y2="138.956" stroke="rgb(255,0,0)" stroke-width="0.705556"/>
		<line x1="50.4281" y1="138.956" x2="97.8281" y2="138.956" stroke="rgb(255,0,0)" stroke-width="0.705556"/>
		<line x1="97.8281" y1="138.956" x2="97.8281" y2="38.9558" stroke="rgb(255,255,0)" stroke-width="0.705556"/>
		<line x1="790.289" y1="81.5706" x2="790.289" y2="53.9558" stroke="rgb(64,128,128)" stroke-width="0"/>
		<line x1="798.773" y1="63.1607" x2="798.773" y2="53.9558" stroke="rgb(64,128,128)" stroke-width="0"/>
		<line x1="794.531" y1="72.3657" x2="794.531" y2="53.9558" stroke="rgb(64,128,128)" stroke-width="0"/>
		<line x1="786.047" y1="90.7755" x2="786.047" y2="53.9558" stroke="rgb(64,128,128)" stroke-width="0"/>
		<line x1="781.805" y1="99.9804" x2="781.805" y2="53.9558" stroke="rgb(64,128,128)" stroke-width="0"/>
		<line x1="777.563" y1="109.185" x2="777.563" y2="53.9558" stroke="rgb(64,128,128)" stroke-width="0"/>
		<line x1="803.015" y1="53.9558" x2="777.563" y2="53.9558" stroke="rgb(64,128,128)" stroke-width="0"/>
		<line x1="777.563" y1="109.185" x2="805.837" y2="80.8676" stroke="rgb(64,128,128)" stroke-width="0"/>
		<path d="M805.837,80.8676 a26.6045 26.6045 0 0 1 -2.82257,-26.9118" fill="none" stroke="rgb(64,128,128)" stroke-width="0"/>
		<line x1="803.015" y1="53.9558" x2="777.563" y2="109.185" stroke="rgb(64,128,128)" stroke-width="0"/>
	</g>
</svg>