<svg version = "1.1" xmlns = "http://www.w3.org/2000/svg" xmlns:xlink="http://www.w3.org/1999/xlink" width="900.706" height="100.706" viewbox = "0 0 900.706 100.706">
	<g transform="translate(240.501,165.426) scale(1,-1) ">
		<line x1="59.8521" y1="65.0729" x2="209.852" y2="65.0729" stroke="rgb(255,0,0)" stroke-width="0.705556"/>
		<line x1="209.852" y1="165.073" x2="59.8521" y2="165.073" stroke="rgb(255,0,0)" stroke-width="0.705556"/>
		<line x1="209.852" y1="165.073" x2="359.852" y2="165.073" stroke="rgb(255,0,0)" stroke-width="0.705556"/>
		<line x1="359.852" y1="65.0729" x2="209.852" y2="65.0729" stroke="rgb(255,0,0)" stroke-width="0.705556"/>
		<line x1="209.852" y1="65.0729" x2="209.852" y2="165.073" stroke="rgb(255,255,0)" stroke-width="0.705556"/>
		<line x1="359.852" y1="165.073" x2="509.852" y2="165.073" stroke="rgb(255,0,0)" stroke-width="0.705556"/>
		<line x1="509.852" y1="65.0729" x2="359.852" y2="65.0729" stroke="rgb(255,0,0)" stroke-width="0.705556"/>
		<line x1="359.852" y1="65.0729" x2="359.852" y2="165.073" stroke="rgb(255,255,0)" stroke-width="0.705556"/>
		<line x1="59.8521" y1="65.0729" x2="-90.1479" y2="65.0729" stroke="rgb(255,0,0)" stroke-width="0.705556"/>
		<line x1="-90.1479" y1="165.073" x2="59.8521" y2="165.073" stroke="rgb(255,0,0)" stroke-width="0.705556"/>
		<line x1="59.8521" y1="165.073" x2="59.8521" y2="65.0729" stroke="rgb(255,255,0)" stroke-width="0.705556"/>
		<line x1="509.852" y1="165.073" x2="659.852" y2="165.073" stroke="rgb(255,0,0)" stroke-width="0.705556"/>
		<line x1="659.852" y1="165.073" x2="659.852" y2="65.0729" stroke="rgb(255,0,0)" stroke-width="0.705556"/>
		<line x1="659.852" y1="65.0729" x2="509.852" y2="65.0729" stroke="rgb(255,0,0)" stroke-width="0.705556"/>
		<line x1="509.852" y1="65.0729" x2="509.852" y2="165.073" stroke="rgb(255,255,0)" stroke-width="0.705556"/>
		<line x1="-90.1479" y1="65.0729" x2="-240.148" y2="65.0729" stroke="rgb(255,0,0)" stroke-width="0.705556"/>
		<line x1="-240.148" y1="65.0729" x2="-240.148" y2="165.073" stroke="rgb(255,0,0)" stroke-width="0.705556"/>
		<line x1="-240.148" y1="165.073" x2="-90.1479" y2="165.073" stroke="rgb(255,0,0)" stroke-width="0.705556"/>
		<line x1="-90.1479" y1="165.073" x2="-90.1479" y2="65.0729" stroke="rgb(255,255,0)" stroke-width="0.705556"/>
		<line x1="268.372" y1="124.61" x2="268.372" y2="96.9956" stroke="rgb(64,128,128)" stroke-width="0"/>
		<line x1="276.856" y1="106.201" x2="276.856" y2="96.9956" stroke="rgb(64,128,128)" stroke-width="0"/>
		<line x1="272.614" y1="115.405" x2="272.614" y2="96.9956" stroke="rgb(64,128,128)" stroke-width="0"/>
		<line x1="264.13" y1="133.815" x2="264.13" y2="96.9956" stroke="rgb(64,128,128)" stroke-width="0"/>
		<line x1="259.888" y1="143.02" x2="259.888" y2="96.9956" stroke="rgb(64,128,128)" stroke-width="0"/>
		<line x1="255.646" y1="152.225" x2="255.646" y2="96.9956" stroke="rgb(64,128,128)" stroke-width="0"/>
		<line x1="281.098" y1="96.9956" x2="255.646" y2="96.9956" stroke="rgb(64,128,128)" stroke-width="0"/>
		<line x1="255.646" y1="152.225" x2="283.921" y2="123.907" stroke="rgb(64,128,128)" stroke-width="0"/>
		<path d="M283.921,123.907 a26.6045 26.6045 0 0 1 -2.82257,-26.9118" fill="none" stroke="rgb(64,128,128)" stroke-width="0"/>
		<line x1="281.098" y1="96.9956" x2="255.646" y2="152.225" stroke="rgb(64,128,128)" stroke-width="0"/>
	</g>
</svg>